# Blender 5.0.0
# www.blender.org
mtllib sink.mtl
o sink
v -0.086392 0.203704 0.097371
v -0.071902 0.398445 0.082881
v -0.086392 0.203704 -0.097371
v -0.071902 0.398445 -0.082881
v -0.086392 0.022671 0.082002
v -0.086392 0.022671 -0.082002
v -0.086392 0.110502 0.104798
v -0.086392 0.110502 -0.104798
v -0.086392 0.052623 0.100903
v -0.086392 0.052623 -0.100903
v -0.086392 0.000000 0.041019
v -0.086392 0.000000 -0.041019
v -0.067469 0.563537 0.078448
v -0.067469 0.563537 -0.078448
v -0.067469 0.677093 0.084283
v -0.067469 0.677093 -0.084283
v -0.067469 0.774907 0.098597
v -0.067469 0.774907 -0.098597
v 0.108392 0.202039 0.075482
v 0.086387 0.203704 0.097371
v 0.106704 0.202676 0.083858
v 0.101929 0.203216 0.090960
v 0.094795 0.203577 0.095705
v 0.093882 0.397049 0.060972
v 0.071897 0.398445 0.082881
v 0.092201 0.397584 0.069356
v 0.087433 0.398036 0.076464
v 0.080303 0.398339 0.081213
v 0.108392 0.202039 -0.075482
v 0.086387 0.203704 -0.097371
v 0.106704 0.202676 -0.083858
v 0.101929 0.203216 -0.090960
v 0.094795 0.203577 -0.095705
v 0.093895 0.397049 -0.060958
v 0.071897 0.398445 -0.082881
v 0.092210 0.397584 -0.069348
v 0.087437 0.398036 -0.076460
v 0.080304 0.398339 -0.081212
v 0.108349 0.039153 0.066445
v 0.086392 0.022671 0.082002
v 0.106678 0.032846 0.072398
v 0.101918 0.027499 0.077445
v 0.094795 0.023926 0.080818
v 0.108349 0.039153 -0.066445
v 0.086392 0.022671 -0.082002
v 0.106678 0.032846 -0.072398
v 0.101918 0.027499 -0.077445
v 0.094795 0.023926 -0.080818
v 0.108314 0.110366 0.082787
v 0.086389 0.110502 0.104798
v 0.106656 0.110418 0.091210
v 0.101907 0.110462 0.098351
v 0.094790 0.110492 0.103122
v 0.108392 0.110366 -0.082787
v 0.086389 0.110502 -0.104798
v 0.106704 0.110418 -0.091210
v 0.101930 0.110462 -0.098351
v 0.094796 0.110492 -0.103122
v 0.108349 0.059640 0.079373
v 0.086391 0.052623 0.100903
v 0.106678 0.056954 0.087612
v 0.101918 0.054678 0.094597
v 0.094794 0.053157 0.099264
v 0.108349 0.059640 -0.079373
v 0.086391 0.052623 -0.100903
v 0.106678 0.056954 -0.087612
v 0.101918 0.054678 -0.094597
v 0.094794 0.053157 -0.099264
v 0.108349 0.021952 0.035352
v 0.086392 0.000000 0.041019
v 0.106678 0.013551 0.037520
v 0.101918 0.006430 0.039359
v 0.094795 0.001671 0.040588
v 0.108349 0.021952 -0.035352
v 0.086392 0.000000 -0.041019
v 0.106678 0.013551 -0.037520
v 0.101918 0.006430 -0.039359
v 0.094795 0.001671 -0.040588
v 0.089416 0.563879 0.056479
v 0.067466 0.563537 0.078448
v 0.087748 0.563748 0.064886
v 0.082991 0.563637 0.072013
v 0.075869 0.563563 0.076776
v 0.089399 0.563879 -0.056485
v 0.067466 0.563537 -0.078448
v 0.087738 0.563748 -0.064890
v 0.082987 0.563637 -0.072015
v 0.075868 0.563563 -0.076776
v 0.089399 0.679249 0.062412
v 0.067467 0.677093 0.084283
v 0.087738 0.678424 0.070782
v 0.082987 0.677724 0.077877
v 0.075869 0.677257 0.082618
v 0.089350 0.679249 -0.062412
v 0.067467 0.677093 -0.084283
v 0.087708 0.678424 -0.070782
v 0.082972 0.677724 -0.077877
v 0.075865 0.677257 -0.082618
v 0.089427 0.752955 0.073198
v 0.067468 0.774907 0.098597
v 0.087755 0.761356 0.082918
v 0.082995 0.768477 0.091157
v 0.075871 0.773236 0.096663
v 0.089427 0.752955 -0.073198
v 0.067468 0.774907 -0.098597
v 0.087755 0.761356 -0.082918
v 0.082995 0.768477 -0.091157
v 0.075871 0.773236 -0.096663
v 0.330303 0.793021 0.075084
v 0.247701 0.766718 0.098794
v 0.324015 0.782955 0.084158
v 0.306109 0.774422 0.091850
v 0.279311 0.768720 0.096989
v 0.330303 0.997999 0.244513
v 0.235178 1.024302 0.211031
v 0.324015 1.008065 0.260267
v 0.306109 1.016598 0.273622
v 0.279311 1.022300 0.282546
v 0.330303 0.793021 -0.075084
v 0.247701 0.766718 -0.098794
v 0.324015 0.782955 -0.084158
v 0.306109 0.774422 -0.091850
v 0.279311 0.768720 -0.096989
v 0.330303 0.997999 -0.244513
v 0.235178 1.024302 -0.211031
v 0.324015 1.008065 -0.260267
v 0.306109 1.016598 -0.273622
v 0.279311 1.022300 -0.282546
v 0.330303 0.831796 -0.190155
v 0.247701 0.819253 -0.256678
v 0.324015 0.826996 -0.215612
v 0.306109 0.822927 -0.237194
v 0.279311 0.820208 -0.251614
v 0.330303 0.831796 0.190155
v 0.247701 0.819253 0.256678
v 0.324015 0.826996 0.215612
v 0.306109 0.822927 0.237194
v 0.279311 0.820208 0.251614
v 0.247701 0.792986 -0.206083
v 0.330303 0.811731 -0.151508
v 0.279311 0.794413 -0.201929
v 0.306109 0.798476 -0.190099
v 0.324015 0.804558 -0.172393
v 0.330303 0.811731 0.151508
v 0.247701 0.792986 0.206083
v 0.324015 0.804558 0.172393
v 0.306109 0.798476 0.190099
v 0.279311 0.794413 0.201929
v 0.330303 0.925915 -0.272881
v 0.247701 0.921777 -0.347213
v 0.324015 0.924332 -0.301327
v 0.306109 0.922989 -0.325442
v 0.279311 0.922092 -0.341555
v 0.330303 0.925915 0.272881
v 0.247701 0.921777 0.347213
v 0.324015 0.924332 0.301327
v 0.306109 0.922989 0.325442
v 0.279311 0.922092 0.341555
v 0.330303 0.878238 -0.245693
v 0.247701 0.870515 -0.317980
v 0.324015 0.875283 -0.273356
v 0.306109 0.872777 -0.296808
v 0.279311 0.871103 -0.312478
v 0.330303 0.878238 0.245693
v 0.247701 0.870515 0.317980
v 0.324015 0.875283 0.273356
v 0.306109 0.872777 0.296808
v 0.279311 0.871103 0.312478
v 0.247701 0.844884 -0.287329
v 0.330303 0.855032 -0.217943
v 0.279311 0.845657 -0.282047
v 0.306109 0.847857 -0.267006
v 0.324015 0.851149 -0.244496
v 0.330303 0.855032 0.217943
v 0.247701 0.844884 0.287329
v 0.324015 0.851149 0.244496
v 0.306109 0.847857 0.267006
v 0.279311 0.845657 0.282047
v 0.330303 0.968199 -0.278857
v 0.247701 0.973040 -0.353671
v 0.324015 0.970052 -0.307487
v 0.306109 0.971622 -0.331758
v 0.279311 0.972671 -0.347976
v 0.330303 0.968199 0.278857
v 0.247701 0.973040 0.353671
v 0.324015 0.970052 0.307487
v 0.306109 0.971622 0.331758
v 0.279311 0.972671 0.347976
v 0.247701 1.003915 -0.322978
v 0.330303 0.992350 -0.254849
v 0.279311 1.003035 -0.317792
v 0.306109 1.000528 -0.303023
v 0.324015 0.996776 -0.280921
v 0.330303 0.992350 0.254849
v 0.247701 1.003915 0.322978
v 0.324015 0.996776 0.280921
v 0.306109 1.000528 0.303023
v 0.279311 1.003035 0.317792
v 0.247701 0.947409 -0.355965
v 0.330303 0.948563 -0.280615
v 0.279311 0.947496 -0.350229
v 0.306109 0.947747 -0.333895
v 0.324015 0.948121 -0.309450
v 0.330303 0.948563 0.280615
v 0.247701 0.947409 0.355965
v 0.324015 0.948121 0.309450
v 0.306109 0.947747 0.333895
v 0.279311 0.947496 0.350229
v -0.123148 0.766718 0.098794
v -0.139147 0.771813 0.094202
v -0.131147 0.767401 0.098179
v -0.137004 0.769265 0.096498
v -0.039494 1.024302 0.211031
v -0.139147 1.019207 0.277706
v -0.131147 1.023619 0.284611
v -0.137004 1.021755 0.281692
v -0.139147 0.771813 -0.094202
v -0.123148 0.766718 -0.098794
v -0.137004 0.769265 -0.096498
v -0.131147 0.767401 -0.098179
v -0.039494 1.024302 -0.211031
v -0.139147 1.019207 -0.277706
v -0.131147 1.023619 -0.284611
v -0.137004 1.021755 -0.281692
v -0.123148 0.819253 0.256678
v -0.139147 0.821682 0.243793
v -0.131147 0.819579 0.254952
v -0.137004 0.820468 0.250235
v -0.123148 0.819253 -0.256678
v -0.139147 0.821682 -0.243793
v -0.131147 0.819579 -0.254952
v -0.137004 0.820468 -0.250235
v -0.139147 0.796617 -0.195512
v -0.123148 0.792986 -0.206083
v -0.137004 0.794801 -0.200798
v -0.131147 0.793472 -0.204667
v -0.139147 0.796617 0.195512
v -0.123148 0.792986 0.206083
v -0.137004 0.794801 0.200798
v -0.131147 0.793472 0.204667
v -0.123148 0.921777 0.347213
v -0.139147 0.922579 0.332815
v -0.131147 0.921885 0.345284
v -0.137004 0.922178 0.340014
v -0.123148 0.921777 -0.347213
v -0.139147 0.922579 -0.332815
v -0.131147 0.921885 -0.345284
v -0.137004 0.922178 -0.340014
v -0.123148 0.870515 -0.317980
v -0.139147 0.872011 -0.303979
v -0.131147 0.870716 -0.316104
v -0.137004 0.871263 -0.310979
v -0.139147 0.872011 0.303979
v -0.123148 0.870515 0.317980
v -0.137004 0.871263 0.310979
v -0.131147 0.870716 0.316104
v -0.139147 0.846850 -0.273889
v -0.123148 0.844884 -0.287329
v -0.137004 0.845867 -0.280609
v -0.131147 0.845147 -0.285529
v -0.139147 0.846850 0.273889
v -0.123148 0.844884 0.287329
v -0.137004 0.845867 0.280609
v -0.131147 0.845147 0.285529
v -0.123148 0.973040 0.353671
v -0.139147 0.972102 0.339180
v -0.131147 0.972914 0.351729
v -0.137004 0.972571 0.346425
v -0.123148 0.973040 -0.353671
v -0.139147 0.972102 -0.339180
v -0.131147 0.972914 -0.351729
v -0.137004 0.972571 -0.346425
v -0.139147 1.001675 0.309782
v -0.123148 1.003915 0.322978
v -0.137004 1.002795 0.316380
v -0.131147 1.003615 0.321210
v -0.139147 1.001675 -0.309782
v -0.123148 1.003915 -0.322978
v -0.137004 1.002795 -0.316380
v -0.131147 1.003615 -0.321210
v -0.139147 0.947632 -0.341370
v -0.123148 0.947409 -0.355965
v -0.137004 0.947520 -0.348667
v -0.131147 0.947439 -0.354010
v -0.139147 0.947632 0.341370
v -0.123148 0.947409 0.355965
v -0.137004 0.947520 0.348667
v -0.131147 0.947439 0.354010
v 0.247701 1.024302 -0.285679
v 0.247701 1.024302 0.285679
v -0.123148 1.024302 0.285679
v -0.123148 1.024302 -0.285679
v 0.235178 0.910578 -0.211031
v 0.211909 0.903169 -0.189845
v 0.233406 0.907743 -0.209419
v 0.228362 0.905339 -0.204826
v 0.220814 0.903733 -0.197953
v 0.211909 0.903169 0.189845
v 0.235178 0.910578 0.211031
v 0.220814 0.903733 0.197953
v 0.228362 0.905339 0.204826
v 0.233406 0.907743 0.209419
v -0.039494 0.910578 0.211031
v -0.016226 0.903169 0.189845
v -0.037723 0.907743 0.209419
v -0.032679 0.905339 0.204826
v -0.025130 0.903733 0.197953
v -0.016226 0.903169 -0.189845
v -0.039494 0.910578 -0.211031
v -0.025130 0.903733 -0.197953
v -0.032679 0.905339 -0.204826
v -0.037723 0.907743 -0.209419
v -0.081321 1.024302 -0.022500
v -0.081321 1.077524 -0.012096
v -0.065411 1.024302 -0.015910
v -0.072768 1.077524 -0.008553
v -0.058821 1.024302 0.000000
v -0.069225 1.077524 0.000000
v -0.065411 1.024302 0.015910
v -0.072768 1.077524 0.008553
v -0.081321 1.024302 0.022500
v -0.081321 1.077524 0.012096
v -0.097231 1.024302 0.015910
v -0.089874 1.077524 0.008553
v -0.103821 1.024302 0.000000
v -0.093416 1.077524 0.000000
v -0.097231 1.024302 -0.015910
v -0.089874 1.077524 -0.008553
v -0.065411 1.077524 -0.015910
v -0.081321 1.077524 -0.022500
v -0.058821 1.077524 0.000000
v -0.065411 1.077524 0.015910
v -0.081321 1.077524 0.022500
v -0.097231 1.077524 0.015910
v -0.103821 1.077524 0.000000
v -0.097231 1.077524 -0.015910
v -0.072768 1.136802 -0.008553
v -0.081321 1.136802 -0.012096
v -0.069225 1.136802 0.000000
v -0.072768 1.136802 0.008553
v -0.081321 1.136802 0.012096
v -0.089874 1.136802 0.008553
v -0.093416 1.136802 0.000000
v -0.089874 1.136802 -0.008553
v -0.068989 1.158471 -0.008553
v -0.077037 1.161366 -0.012096
v -0.065655 1.157272 0.000000
v -0.068989 1.158471 0.008553
v -0.077037 1.161366 0.012096
v -0.085085 1.164261 0.008553
v -0.088419 1.165460 0.000000
v -0.085085 1.164261 -0.008553
v -0.058099 1.177582 -0.008553
v -0.064692 1.183030 -0.012096
v -0.055368 1.175325 0.000000
v -0.058099 1.177582 0.008553
v -0.064692 1.183030 0.012096
v -0.071285 1.188478 0.008553
v -0.074016 1.190735 0.000000
v -0.071285 1.188478 -0.008553
v -0.041382 1.191878 -0.008553
v -0.045742 1.199236 -0.012096
v -0.039577 1.188830 0.000000
v -0.041382 1.191878 0.008553
v -0.045742 1.199236 0.012096
v -0.050102 1.206595 0.008553
v -0.051908 1.209643 0.000000
v -0.050102 1.206595 -0.008553
v -0.020814 1.199672 -0.008553
v -0.022425 1.208072 -0.012096
v -0.020146 1.196193 0.000000
v -0.020814 1.199672 0.008553
v -0.022425 1.208072 0.012096
v -0.024037 1.216472 0.008553
v -0.024705 1.219951 0.000000
v -0.024037 1.216472 -0.008553
v 0.001179 1.200044 -0.008553
v 0.002506 1.208494 -0.012096
v 0.000630 1.196545 0.000000
v 0.001179 1.200044 0.008553
v 0.002506 1.208494 0.012096
v 0.003832 1.216943 0.008553
v 0.004382 1.220443 0.000000
v 0.003832 1.216943 -0.008553
v 0.022000 1.192950 -0.008553
v 0.026108 1.200452 -0.012096
v 0.020298 1.189843 0.000000
v 0.022000 1.192950 0.008553
v 0.026108 1.200452 0.012096
v 0.030216 1.207953 0.008553
v 0.031918 1.211061 0.000000
v 0.030216 1.207953 -0.008553
v 0.039190 1.179227 -0.008553
v 0.045595 1.184896 -0.012096
v 0.036537 1.176880 0.000000
v 0.039190 1.179227 0.008553
v 0.045595 1.184896 0.012096
v 0.052000 1.190564 0.008553
v 0.054653 1.192912 0.000000
v 0.052000 1.190564 -0.008553
v 0.052950 1.161384 -0.006233
v 0.058666 1.163661 -0.008781
v 0.050552 1.160429 0.000000
v 0.052950 1.161384 0.006233
v 0.058666 1.163661 0.008781
v 0.064382 1.165939 0.006233
v 0.066780 1.166894 0.000000
v 0.064382 1.165939 -0.006233
v 0.050721 1.160496 -0.008553
v 0.058666 1.163661 -0.012096
v 0.047429 1.159185 0.000000
v 0.050721 1.160496 0.008553
v 0.058666 1.163661 0.012096
v 0.066612 1.166827 0.008553
v 0.069903 1.168138 0.000000
v 0.066612 1.166827 -0.008553
v 0.041066 1.180434 -0.006233
v 0.045521 1.184678 -0.008781
v 0.039197 1.178653 -0.000000
v 0.041066 1.180434 0.006233
v 0.045521 1.184678 0.008781
v 0.049976 1.188922 0.006233
v 0.051845 1.190703 -0.000000
v 0.049976 1.188922 -0.006233
v 0.022571 1.195423 -0.006233
v 0.025608 1.200774 -0.008781
v 0.021296 1.193178 0.000000
v 0.022571 1.195423 0.006233
v 0.025608 1.200774 0.008781
v 0.028646 1.206125 0.006233
v 0.029920 1.208370 0.000000
v 0.028646 1.206125 -0.006233
v 0.000808 1.203438 -0.006233
v 0.001707 1.209524 -0.008781
v 0.000431 1.200884 0.000000
v 0.000808 1.203438 0.006233
v 0.001707 1.209524 0.008781
v 0.002606 1.215611 0.006233
v 0.002983 1.218165 0.000000
v 0.002606 1.215611 -0.006233
vn -0.9994 0.0353 -0.0000
vn -0.9987 0.0513 -0.0000
vn -1.0000 -0.0000 -0.0000
vn -0.9999 0.0133 -0.0000
vn 0.9943 0.0429 -0.0973
vn 0.9944 0.0387 -0.0981
vn 0.9234 0.0634 -0.3785
vn 0.9233 0.0660 -0.3785
vn 0.7084 0.0804 -0.7012
vn 0.7064 0.0715 -0.7042
vn 0.3862 0.0853 -0.9185
vn 0.3810 0.0659 -0.9222
vn 0.1002 0.0802 -0.9917
vn 0.0967 0.0551 -0.9938
vn 0.0967 0.0551 0.9938
vn 0.1003 0.0802 0.9917
vn 0.3863 0.0852 0.9184
vn 0.3809 0.0659 0.9223
vn 0.7088 0.0802 0.7008
vn 0.7063 0.0714 0.7043
vn 0.9237 0.0631 0.3778
vn 0.9233 0.0660 0.3784
vn 0.9945 0.0385 0.0977
vn 0.9943 0.0429 0.0972
vn 0.0994 -0.3083 0.9461
vn 0.0995 -0.7236 0.6830
vn 0.3813 -0.6722 0.6346
vn 0.3813 -0.2865 0.8790
vn 0.7022 -0.5178 0.4887
vn 0.7022 -0.2206 0.6769
vn 0.9170 -0.2900 0.2738
vn 0.9172 -0.1234 0.3789
vn 0.9947 -0.0693 0.0756
vn 0.9943 -0.0231 0.1044
vn 0.0978 0.0061 -0.9952
vn 0.3800 0.0057 -0.9250
vn 0.7029 0.0043 -0.7113
vn 0.9205 0.0022 -0.3907
vn 0.9946 0.0128 -0.1030
vn 0.0978 0.0061 0.9952
vn 0.3802 0.0057 0.9249
vn 0.7034 0.0044 0.7107
vn 0.9210 0.0024 0.3895
vn 0.9947 0.0129 0.1022
vn 0.0994 -0.3083 -0.9461
vn 0.3811 -0.2865 -0.8790
vn 0.7019 -0.2208 -0.6772
vn 0.9169 -0.1238 -0.3795
vn 0.9942 -0.0234 -0.1048
vn 0.0995 -0.7236 -0.6830
vn 0.3813 -0.6722 -0.6346
vn 0.7022 -0.5178 -0.4887
vn 0.9170 -0.2900 -0.2738
vn 0.9947 -0.0693 -0.0756
vn 0.0995 -0.9634 0.2487
vn 0.0995 -0.9634 -0.2487
vn 0.3814 -0.8951 -0.2311
vn 0.3814 -0.8951 0.2311
vn 0.7022 -0.6894 -0.1780
vn 0.7022 -0.6894 0.1780
vn 0.9170 -0.3862 -0.0997
vn 0.9170 -0.3862 0.0997
vn 0.9950 -0.0959 -0.0276
vn 0.9950 -0.0959 0.0276
vn 0.9950 0.0183 0.0979
vn 0.9256 0.0079 0.3785
vn 0.7090 0.0010 0.7052
vn 0.3832 -0.0061 0.9237
vn 0.0975 -0.0109 0.9952
vn 0.9951 0.0184 -0.0975
vn 0.9258 0.0080 -0.3779
vn 0.7093 0.0010 -0.7049
vn 0.3833 -0.0061 -0.9236
vn 0.0975 -0.0109 -0.9952
vn 0.0984 -0.0977 -0.9903
vn 0.3853 -0.0906 -0.9183
vn 0.7110 -0.0691 -0.6998
vn 0.9266 -0.0371 -0.3742
vn 0.9953 0.0032 -0.0966
vn 0.0984 -0.0977 0.9903
vn 0.3851 -0.0906 0.9184
vn 0.7106 -0.0691 0.7002
vn 0.9262 -0.0371 0.3751
vn 0.9953 0.0032 0.0972
vn 0.0905 0.9959 -0.0000
vn 0.3299 0.9440 -0.0000
vn 0.7871 0.4034 0.4666
vn 0.7873 0.4033 -0.4664
vn 0.9424 0.2187 0.2529
vn 0.9426 0.2186 -0.2525
vn 0.9947 0.0709 0.0751
vn 0.9947 0.0707 -0.0748
vn 0.3299 -0.1367 0.9340
vn 0.0905 -0.1442 0.9854
vn 0.3301 -0.1367 -0.9340
vn 0.0906 -0.1442 -0.9854
vn -0.0000 0.0513 0.9987
vn -0.0000 0.0769 0.9970
vn -0.0000 0.0062 1.0000
vn -0.0000 -0.0119 0.9999
vn -0.0000 0.0769 -0.9970
vn -0.0000 0.0062 -1.0000
vn -0.0000 0.0513 -0.9987
vn -0.0000 -0.0119 -0.9999
vn -0.0000 -0.7272 0.6864
vn -0.0000 -0.9683 0.2500
vn -0.0000 -0.3099 0.9508
vn -0.0000 -0.7272 -0.6864
vn -0.0000 -0.9683 -0.2500
vn -0.0000 -0.3099 -0.9508
vn -0.0000 -0.0982 0.9952
vn -0.0000 -0.0982 -0.9952
vn -0.0000 -0.1448 0.9895
vn -0.0000 -0.1448 -0.9895
vn -0.0000 1.0000 -0.0000
vn 0.9703 -0.2318 -0.0691
vn 0.9597 -0.2801 -0.0207
vn 0.6858 -0.7229 -0.0840
vn 0.7516 -0.6213 -0.2215
vn 0.3480 -0.9303 -0.1159
vn 0.4261 -0.8455 -0.3219
vn 0.1492 -0.9812 -0.1222
vn 0.1895 -0.9165 -0.3524
vn 0.0348 -0.9920 -0.1215
vn 0.0444 -0.9338 -0.3552
vn 0.0348 -0.9920 0.1215
vn 0.1492 -0.9812 0.1222
vn 0.3480 -0.9303 0.1159
vn 0.6858 -0.7229 0.0840
vn 0.9597 -0.2801 0.0207
vn 0.0382 0.9868 -0.1571
vn 0.0350 0.9869 0.1573
vn 0.1835 0.9497 0.2539
vn 0.1835 0.9497 -0.2539
vn 0.4125 0.8817 0.2290
vn 0.4125 0.8817 -0.2290
vn 0.7297 0.6683 0.1448
vn 0.7297 0.6683 -0.1448
vn 0.9604 0.2769 0.0313
vn 0.9604 0.2769 -0.0313
vn 0.0444 -0.9338 0.3552
vn 0.1895 -0.9165 0.3524
vn 0.4261 -0.8455 0.3219
vn 0.7516 -0.6213 0.2215
vn 0.9703 -0.2318 0.0691
vn 0.9884 -0.1163 -0.0973
vn 0.9822 -0.1623 -0.0949
vn 0.8153 -0.4878 -0.3120
vn 0.8481 -0.4064 -0.3399
vn 0.5106 -0.7147 -0.4780
vn 0.5475 -0.6420 -0.5368
vn 0.2386 -0.8045 -0.5440
vn 0.2597 -0.7408 -0.6195
vn 0.0569 -0.8287 -0.5568
vn 0.0626 -0.7656 -0.6402
vn 0.0626 -0.7656 0.6402
vn 0.0569 -0.8287 0.5568
vn 0.2386 -0.8045 0.5440
vn 0.2597 -0.7408 0.6195
vn 0.5106 -0.7147 0.4780
vn 0.5475 -0.6420 0.5368
vn 0.8153 -0.4878 0.3120
vn 0.8481 -0.4064 0.3399
vn 0.9822 -0.1623 0.0949
vn 0.9884 -0.1163 0.0973
vn 0.9925 -0.0166 -0.1209
vn 0.9923 -0.0536 -0.1117
vn 0.8940 -0.1880 -0.4067
vn 0.9003 -0.0554 -0.4317
vn 0.6432 -0.3151 -0.6978
vn 0.6621 -0.0907 -0.7439
vn 0.3299 -0.3856 -0.8617
vn 0.3463 -0.1108 -0.9315
vn 0.0825 -0.4080 -0.9092
vn 0.0882 -0.1180 -0.9891
vn 0.0882 -0.1180 0.9891
vn 0.0825 -0.4080 0.9092
vn 0.3299 -0.3856 0.8617
vn 0.3463 -0.1108 0.9315
vn 0.6432 -0.3151 0.6978
vn 0.6621 -0.0907 0.7439
vn 0.8940 -0.1880 0.4067
vn 0.9003 -0.0554 0.4317
vn 0.9923 -0.0536 0.1117
vn 0.9925 -0.0166 0.1209
vn 0.9879 -0.1082 -0.1110
vn 0.8615 -0.3380 -0.3790
vn 0.5910 -0.5192 -0.6173
vn 0.2933 -0.6074 -0.7382
vn 0.0721 -0.6357 -0.7685
vn 0.0721 -0.6357 0.7685
vn 0.2933 -0.6074 0.7382
vn 0.5910 -0.5192 0.6173
vn 0.8615 -0.3380 0.3790
vn 0.9879 -0.1082 0.1110
vn 0.9829 0.1553 -0.0992
vn 0.9891 0.0768 -0.1256
vn 0.8778 0.2265 -0.4220
vn 0.8246 0.4614 -0.3274
vn 0.6302 0.3373 -0.6994
vn 0.5295 0.6780 -0.5099
vn 0.3248 0.3932 -0.8602
vn 0.2513 0.7689 -0.5879
vn 0.0822 0.4149 -0.9061
vn 0.0603 0.7950 -0.6036
vn 0.0603 0.7950 0.6036
vn 0.0822 0.4149 0.9061
vn 0.3248 0.3932 0.8602
vn 0.2513 0.7689 0.5879
vn 0.6302 0.3373 0.6994
vn 0.5295 0.6780 0.5099
vn 0.8778 0.2265 0.4220
vn 0.8246 0.4614 0.3274
vn 0.9891 0.0768 0.1256
vn 0.9829 0.1553 0.0992
vn -0.0468 -0.9914 -0.1221
vn -0.0468 -0.9914 0.1221
vn -0.2134 -0.9693 0.1222
vn -0.2134 -0.9693 -0.1222
vn -0.5800 -0.8086 0.0990
vn -0.5800 -0.8086 -0.0990
vn -0.9368 -0.3487 0.0271
vn -0.9368 -0.3487 -0.0271
vn -0.0810 0.7929 0.6040
vn -0.0473 0.9860 0.1601
vn -0.2598 0.9321 0.2522
vn -0.3469 0.7444 0.5705
vn -0.6339 0.7522 0.1802
vn -0.7376 0.5462 0.3971
vn -0.9377 0.3449 0.0419
vn -0.9710 0.2013 0.1292
vn -0.0473 0.9860 -0.1601
vn -0.2598 0.9321 -0.2522
vn -0.6339 0.7522 -0.1802
vn -0.9377 0.3449 -0.0419
vn -0.0598 -0.9325 -0.3561
vn -0.2687 -0.8983 -0.3476
vn -0.6547 -0.7091 -0.2616
vn -0.9519 -0.2932 -0.0884
vn -0.0598 -0.9325 0.3561
vn -0.0765 -0.8269 0.5571
vn -0.3315 -0.7809 0.5295
vn -0.2687 -0.8983 0.3476
vn -0.7259 -0.5762 0.3757
vn -0.6547 -0.7091 0.2616
vn -0.9699 -0.2100 0.1234
vn -0.9519 -0.2932 0.0884
vn -0.0839 -0.7644 -0.6392
vn -0.0765 -0.8269 -0.5571
vn -0.3315 -0.7809 -0.5295
vn -0.3581 -0.7163 -0.5989
vn -0.7259 -0.5762 -0.3757
vn -0.7627 -0.4962 -0.4149
vn -0.9699 -0.2100 -0.1234
vn -0.9800 -0.1525 -0.1276
vn -0.0964 -0.6332 0.7680
vn -0.1101 -0.4064 0.9071
vn -0.4397 -0.3668 0.8198
vn -0.3965 -0.5831 0.7090
vn -0.8229 -0.2368 0.5165
vn -0.7816 -0.4099 0.4702
vn -0.9865 -0.0709 0.1479
vn -0.9791 -0.1417 0.1459
vn -0.1172 -0.1173 -0.9862
vn -0.1101 -0.4064 -0.9071
vn -0.4397 -0.3668 -0.8198
vn -0.4557 -0.1053 -0.8839
vn -0.8229 -0.2368 -0.5165
vn -0.8308 -0.0696 -0.5522
vn -0.9865 -0.0709 -0.1479
vn -0.9868 -0.0220 -0.1604
vn -0.0964 -0.6332 -0.7680
vn -0.3965 -0.5831 -0.7090
vn -0.7816 -0.4099 -0.4702
vn -0.9791 -0.1417 -0.1459
vn -0.0839 -0.7644 0.6392
vn -0.3581 -0.7163 0.5989
vn -0.7627 -0.4962 0.4149
vn -0.9800 -0.1525 0.1276
vn -0.1172 -0.1173 0.9862
vn -0.1093 0.4121 0.9046
vn -0.4293 0.3769 0.8208
vn -0.4557 -0.1053 0.8839
vn -0.8016 0.2737 0.5315
vn -0.8308 -0.0696 0.5522
vn -0.9810 0.1007 0.1659
vn -0.9868 -0.0220 0.1604
vn -0.0810 0.7929 -0.6040
vn -0.1093 0.4121 -0.9046
vn -0.4293 0.3769 -0.8208
vn -0.3469 0.7444 -0.5705
vn -0.8016 0.2737 -0.5315
vn -0.7376 0.5462 -0.3971
vn -0.9810 0.1007 -0.1659
vn -0.9710 0.2013 -0.1292
vn -0.0233 0.9994 0.0266
vn -0.0233 0.9994 -0.0266
vn -0.0857 0.9917 -0.0960
vn -0.0857 0.9917 0.0960
vn -0.1937 0.9578 -0.2123
vn -0.1937 0.9578 0.2123
vn -0.7462 0.6657 -0.0000
vn -0.9734 0.2293 -0.0000
vn 0.0233 0.9994 -0.0266
vn 0.0233 0.9994 0.0266
vn 0.0857 0.9917 0.0960
vn 0.0857 0.9917 -0.0960
vn 0.1937 0.9578 0.2123
vn 0.1937 0.9578 -0.2123
vn 0.7462 0.6657 -0.0000
vn 0.9734 0.2293 -0.0000
vn -0.0000 0.6238 -0.7816
vn -0.0000 0.2073 -0.9783
vn -0.0000 0.2073 0.9783
vn -0.0000 0.6238 0.7816
vn -0.0000 -0.0000 1.0000
vn -0.0000 -0.0000 -1.0000
vn 1.0000 -0.0000 -0.0000
vn 0.7071 -0.0000 -0.7071
vn 0.7071 -0.0000 0.7071
vn -0.7071 -0.0000 0.7071
vn -0.0210 0.0037 0.9998
vn -0.7155 0.0621 0.6958
vn -0.7071 -0.0000 -0.7071
vn -0.0000 -1.0000 -0.0000
vn 0.6947 -0.0603 -0.7168
vn -0.0210 0.0037 -0.9998
vn -0.0395 0.0142 -0.9991
vn 0.6444 -0.2318 -0.7287
vn 0.9961 -0.0881 -0.0000
vn 0.6947 -0.0603 0.7168
vn -0.7155 0.0621 -0.6958
vn -0.9964 0.0845 -0.0000
vn -0.9410 0.3385 -0.0000
vn -0.6840 0.2460 0.6867
vn -0.5603 0.4630 0.6867
vn -0.7709 0.6370 -0.0000
vn -0.6840 0.2460 -0.6867
vn 0.6444 -0.2318 0.7287
vn -0.0395 0.0142 0.9991
vn 0.9410 -0.3385 -0.0000
vn 0.5279 -0.4363 -0.7287
vn -0.0324 0.0267 -0.9991
vn -0.0056 -0.0031 -1.0000
vn 0.3491 -0.5892 -0.7287
vn 0.5279 -0.4363 0.7287
vn -0.0324 0.0267 0.9991
vn 0.7709 -0.6370 -0.0000
vn -0.5603 0.4630 -0.6867
vn -0.3705 0.6254 -0.6867
vn -0.5097 0.8603 -0.0000
vn -0.1884 0.9821 -0.0000
vn -0.1370 0.7139 -0.6867
vn -0.3705 0.6254 0.6867
vn 0.3491 -0.5892 0.7287
vn 0.0006 -0.0000 1.0000
vn 0.5097 -0.8603 -0.0000
vn 0.1884 -0.9821 -0.0000
vn 0.1290 -0.6726 -0.7287
vn -0.1062 -0.6766 -0.7287
vn -0.1551 -0.9879 -0.0000
vn -0.0026 0.0011 1.0000
vn -0.1370 0.7139 0.6867
vn 0.1290 -0.6726 0.7287
vn -0.0029 0.0011 -1.0000
vn 0.0022 0.0013 -1.0000
vn 0.1127 0.7181 -0.6867
vn 0.3492 0.6376 -0.6867
vn 0.0006 -0.0004 -1.0000
vn 0.1551 0.9879 -0.0000
vn 0.0022 0.0013 1.0000
vn 0.1127 0.7181 0.6867
vn -0.1062 -0.6766 0.7287
vn -0.3290 -0.6007 0.7287
vn -0.4803 -0.8771 -0.0000
vn -0.7489 -0.6627 -0.0000
vn -0.5129 -0.4539 0.7287
vn 0.3492 0.6376 0.6867
vn 0.4803 0.8771 -0.0000
vn 0.0006 -0.0004 1.0000
vn -0.3290 -0.6007 -0.7287
vn 0.5444 0.4817 -0.6867
vn 0.7489 0.6627 -0.0000
vn 0.8516 0.5242 -0.0000
vn 0.6234 0.3837 -0.6813
vn 0.0314 0.0278 -0.9991
vn -0.5129 -0.4539 -0.7287
vn 0.5444 0.4817 0.6867
vn 0.0314 0.0278 0.9991
vn -0.6218 -0.3898 0.6793
vn -0.8472 -0.5313 -0.0000
vn -0.7468 -0.6651 -0.0000
vn -0.5433 -0.4821 0.6873
vn 0.0363 0.0223 0.9991
vn 0.6234 0.3837 0.6813
vn -0.8516 -0.5242 -0.0000
vn -0.5878 -0.3619 0.7235
vn 0.0363 0.0223 -0.9991
vn -0.5878 -0.3619 -0.7235
vn 0.3701 -0.9290 -0.0000
vn -0.4915 -0.8709 -0.0000
vn -0.3569 -0.6324 0.6875
vn -0.6218 -0.3898 -0.6793
vn -0.0376 -0.0238 -0.9990
vn -0.0311 -0.0259 -0.9992
vn -0.5433 -0.4821 -0.6873
vn 0.5858 0.3655 -0.7234
vn 0.8486 0.5291 -0.0000
vn 0.7506 0.6608 -0.0000
vn 0.5141 0.4541 -0.7276
vn 0.5858 0.3655 0.7234
vn -0.0376 -0.0238 0.9990
vn -0.0311 -0.0259 0.9992
vn 0.5141 0.4541 0.7276
vn 0.4945 0.8692 -0.0000
vn 0.3390 0.5966 0.7274
vn 0.2374 0.6447 0.7266
vn 0.3460 0.9382 -0.0000
vn -0.0041 0.0034 -1.0000
vn -0.3569 -0.6324 -0.6875
vn 0.3390 0.5966 -0.7274
vn -0.0046 0.0036 1.0000
vn 0.9893 -0.1461 -0.0000
vn -0.3420 -0.9397 -0.0000
vn -0.2520 -0.6918 0.6766
vn -0.0070 -0.0122 -0.9999
vn -0.2520 -0.6918 -0.6766
vn 0.2374 0.6447 -0.7266
vn -0.0070 -0.0122 0.9999
vt 0.302674 0.760670
vt 0.311665 0.639900
vt 0.414517 0.639900
vt 0.423508 0.760670
vt 0.300482 0.854411
vt 0.425699 0.854411
vt 0.413971 0.872995
vt 0.312210 0.872995
vt 0.428116 0.818499
vt 0.298066 0.818499
vt 0.388542 0.887062
vt 0.337639 0.887062
vt 0.314415 0.537484
vt 0.411766 0.537484
vt 0.415387 0.467026
vt 0.310795 0.467026
vt 0.301913 0.406336
vt 0.424268 0.406336
vt 0.459140 0.636269
vt 0.450129 0.756747
vt 0.444931 0.756399
vt 0.453934 0.635984
vt 0.440525 0.756197
vt 0.449521 0.635836
vt 0.867330 0.238201
vt 0.875773 0.358525
vt 0.871256 0.358159
vt 0.862813 0.237871
vt 0.866009 0.358028
vt 0.857567 0.237753
vt 0.022144 0.684468
vt 0.013702 0.804743
vt 0.008455 0.804874
vt 0.016898 0.684586
vt 0.003938 0.805240
vt 0.012383 0.684917
vt 0.544408 0.635836
vt 0.553402 0.756197
vt 0.548996 0.756399
vt 0.539998 0.635985
vt 0.543799 0.756747
vt 0.534795 0.636269
vt 0.013970 0.898276
vt 0.013637 0.917397
vt 0.008400 0.916657
vt 0.008726 0.897996
vt 0.003911 0.914545
vt 0.004214 0.897194
vt 0.555659 0.848270
vt 0.545017 0.865118
vt 0.541885 0.861672
vt 0.551326 0.846727
vt 0.538191 0.857716
vt 0.546213 0.845017
vt 0.865740 0.415573
vt 0.870987 0.415632
vt 0.875505 0.415794
vt 0.435939 0.813691
vt 0.440369 0.813586
vt 0.445596 0.813572
vt 0.013971 0.862288
vt 0.008728 0.862347
vt 0.004220 0.862509
vt 0.557989 0.813692
vt 0.553558 0.813588
vt 0.548332 0.813574
vt 0.865741 0.451561
vt 0.870985 0.451281
vt 0.875497 0.450479
vt 0.438268 0.848270
vt 0.442602 0.846727
vt 0.447714 0.845017
vt 0.866075 0.470681
vt 0.871311 0.469942
vt 0.875800 0.467830
vt 0.448910 0.865118
vt 0.452042 0.861672
vt 0.455736 0.857716
vt 0.914935 0.757528
vt 0.864032 0.757528
vt 0.864300 0.752236
vt 0.914667 0.752236
vt 0.865062 0.747538
vt 0.913905 0.747538
vt 0.521385 0.878178
vt 0.472542 0.878178
vt 0.473683 0.873631
vt 0.520245 0.873631
vt 0.475029 0.868378
vt 0.518899 0.868378
vt 0.940364 0.756096
vt 0.939629 0.750830
vt 0.937537 0.746207
vt 0.838603 0.756096
vt 0.839338 0.750830
vt 0.841430 0.746207
vt 0.532007 0.532981
vt 0.537224 0.533108
vt 0.541646 0.533309
vt 0.014830 0.582410
vt 0.019341 0.582313
vt 0.024586 0.582276
vt 0.461916 0.532982
vt 0.456700 0.533109
vt 0.452279 0.533309
vt 0.864878 0.135695
vt 0.860369 0.135597
vt 0.855125 0.135561
vt 0.855161 0.065009
vt 0.860403 0.064960
vt 0.864905 0.064813
vt 0.448642 0.462591
vt 0.453044 0.462026
vt 0.458238 0.461470
vt 0.024550 0.511725
vt 0.019306 0.511675
vt 0.014797 0.511528
vt 0.545284 0.462591
vt 0.540882 0.462026
vt 0.535689 0.461468
vt 0.893345 0.287491
vt 0.893345 0.409846
vt 0.888108 0.408647
vt 0.888108 0.288691
vt 0.883622 0.405230
vt 0.883622 0.292107
vt 0.440402 0.406336
vt 0.553525 0.406336
vt 0.548412 0.410619
vt 0.445514 0.410619
vt 0.542381 0.415780
vt 0.451545 0.415780
vt 0.014934 0.454889
vt 0.019454 0.451775
vt 0.024702 0.450679
vt 0.864777 0.008174
vt 0.860257 0.005060
vt 0.855009 0.003964
vt 0.111324 0.684412
vt 0.120854 0.804676
vt 0.121124 0.862221
vt 0.108268 0.582224
vt 0.758857 0.357961
vt 0.758587 0.415506
vt 0.768387 0.237697
vt 0.771443 0.135508
vt 0.940364 0.862748
vt 0.914935 0.864180
vt 0.121124 0.898209
vt 0.120791 0.917329
vt 0.838603 0.862748
vt 0.864032 0.864180
vt 0.758587 0.451494
vt 0.758920 0.470614
vt 0.108233 0.511672
vt 0.771478 0.064957
vt 0.108385 0.450627
vt 0.771326 0.003911
vt 0.977049 0.287491
vt 0.977049 0.409846
vt 0.612114 0.557586
vt 0.600516 0.605005
vt 0.594103 0.599375
vt 0.607493 0.544627
vt 0.584863 0.094245
vt 0.583498 0.148994
vt 0.571906 0.144221
vt 0.573426 0.083260
vt 0.555004 0.141032
vt 0.556628 0.075919
vt 0.535366 0.139912
vt 0.537026 0.073341
vt 0.535366 0.262512
vt 0.555004 0.261392
vt 0.571906 0.258203
vt 0.583498 0.253431
vt 0.594103 0.703812
vt 0.600516 0.698182
vt 0.051638 0.046099
vt 0.051638 0.400616
vt 0.032001 0.398672
vt 0.032001 0.048043
vt 0.015298 0.393135
vt 0.015298 0.053580
vt 0.004070 0.384848
vt 0.004070 0.061867
vt 0.733640 0.490103
vt 0.733640 0.813084
vt 0.727575 0.803310
vt 0.727575 0.499878
vt 0.537026 0.329083
vt 0.556628 0.326506
vt 0.573426 0.319165
vt 0.584863 0.308179
vt 0.607493 0.758561
vt 0.612114 0.745602
vt 0.638955 0.516364
vt 0.624551 0.533606
vt 0.621402 0.517810
vt 0.636374 0.499889
vt 0.618384 0.504419
vt 0.633837 0.485921
vt 0.576546 0.035540
vt 0.574971 0.054038
vt 0.558258 0.045090
vt 0.559865 0.026207
vt 0.538685 0.041948
vt 0.540305 0.022930
vt 0.540305 0.379495
vt 0.538685 0.360476
vt 0.558258 0.357334
vt 0.559865 0.376218
vt 0.574971 0.348387
vt 0.576546 0.366885
vt 0.633837 0.817266
vt 0.618384 0.798768
vt 0.621402 0.785377
vt 0.636374 0.803299
vt 0.624551 0.769581
vt 0.638955 0.786823
vt 0.586280 0.067429
vt 0.586280 0.334996
vt 0.696931 0.477477
vt 0.682893 0.482276
vt 0.681737 0.464626
vt 0.696483 0.459586
vt 0.680409 0.449663
vt 0.695755 0.444417
vt 0.899881 0.004573
vt 0.915475 0.004429
vt 0.915556 0.021368
vt 0.899555 0.021515
vt 0.915584 0.041083
vt 0.899440 0.041232
vt 0.177724 0.757652
vt 0.161580 0.757503
vt 0.161609 0.737787
vt 0.177609 0.737935
vt 0.161689 0.720849
vt 0.177283 0.720993
vt 0.695755 0.858769
vt 0.680409 0.853524
vt 0.681737 0.838562
vt 0.696483 0.843602
vt 0.682893 0.820912
vt 0.696931 0.825710
vt 0.653339 0.499146
vt 0.651333 0.481981
vt 0.649284 0.467430
vt 0.947440 0.003911
vt 0.948015 0.020841
vt 0.948217 0.040554
vt 0.128947 0.756974
vt 0.129149 0.737261
vt 0.129724 0.720331
vt 0.649284 0.835757
vt 0.651333 0.821206
vt 0.653339 0.804042
vt 0.578120 0.017048
vt 0.561473 0.007325
vt 0.541924 0.003911
vt 0.541924 0.398513
vt 0.561473 0.395099
vt 0.578120 0.385376
vt 0.724073 0.493465
vt 0.709103 0.478568
vt 0.710077 0.460804
vt 0.726642 0.477287
vt 0.710555 0.445743
vt 0.728472 0.463573
vt 0.015071 0.035337
vt 0.014665 0.017508
vt 0.031303 0.007445
vt 0.031730 0.026173
vt 0.050917 0.003911
vt 0.051351 0.022956
vt 0.051351 0.423760
vt 0.050917 0.442804
vt 0.031303 0.439270
vt 0.031730 0.420542
vt 0.014665 0.429208
vt 0.015071 0.411378
vt 0.728472 0.839614
vt 0.710555 0.857444
vt 0.710077 0.842384
vt 0.726642 0.825900
vt 0.709103 0.824620
vt 0.724073 0.809723
vt 0.003911 0.049051
vt 0.003911 0.397664
vt 0.885147 0.004508
vt 0.884018 0.021447
vt 0.883622 0.041163
vt 0.193542 0.757582
vt 0.193146 0.737867
vt 0.192017 0.720928
vt 0.306457 0.139912
vt 0.306457 0.262512
vt 0.301563 0.262131
vt 0.301563 0.140294
vt 0.298066 0.261088
vt 0.298066 0.141337
vt 0.750764 0.160378
vt 0.750764 0.280128
vt 0.749174 0.278703
vt 0.749174 0.161803
vt 0.281397 0.423760
vt 0.281684 0.400616
vt 0.286637 0.399954
vt 0.286355 0.422663
vt 0.290243 0.398143
vt 0.289976 0.419665
vt 0.605866 0.416561
vt 0.594103 0.395038
vt 0.595674 0.392564
vt 0.606552 0.412467
vt 0.281684 0.046099
vt 0.286637 0.046762
vt 0.290243 0.048573
vt 0.594103 0.045468
vt 0.595674 0.047942
vt 0.308117 0.073341
vt 0.303210 0.074220
vt 0.299679 0.076621
vt 0.734920 0.095662
vt 0.733785 0.098941
vt 0.308117 0.329083
vt 0.309777 0.360476
vt 0.304859 0.359405
vt 0.303210 0.328205
vt 0.301301 0.356479
vt 0.299679 0.325804
vt 0.734920 0.344844
vt 0.718995 0.375520
vt 0.718232 0.371522
vt 0.733785 0.341565
vt 0.311396 0.022930
vt 0.309777 0.041948
vt 0.304859 0.043019
vt 0.306475 0.024047
vt 0.301301 0.045946
vt 0.302905 0.027099
vt 0.703235 0.046140
vt 0.718995 0.064987
vt 0.718232 0.068984
vt 0.702616 0.050310
vt 0.128947 0.986962
vt 0.161580 0.987491
vt 0.161590 0.992414
vt 0.129016 0.991886
vt 0.161616 0.995942
vt 0.129204 0.995416
vt 0.687478 0.413210
vt 0.655887 0.431226
vt 0.655629 0.426759
vt 0.687005 0.408866
vt 0.899440 0.271220
vt 0.915584 0.271071
vt 0.915574 0.275994
vt 0.899479 0.276143
vt 0.915548 0.279522
vt 0.899586 0.279669
vt 0.640163 0.003911
vt 0.655887 0.009280
vt 0.655629 0.013747
vt 0.640084 0.008439
vt 0.948217 0.270542
vt 0.948148 0.275466
vt 0.947960 0.278997
vt 0.687478 0.027296
vt 0.687005 0.031640
vt 0.311396 0.379495
vt 0.313016 0.398513
vt 0.308090 0.397349
vt 0.306475 0.378378
vt 0.304510 0.394169
vt 0.302905 0.375325
vt 0.703235 0.394366
vt 0.702616 0.390196
vt 0.313016 0.003911
vt 0.308090 0.005075
vt 0.304510 0.008255
vt 0.177724 0.987640
vt 0.193542 0.987570
vt 0.193407 0.992493
vt 0.177685 0.992562
vt 0.193038 0.996021
vt 0.177578 0.996089
vt 0.640163 0.436595
vt 0.624620 0.435204
vt 0.624901 0.430708
vt 0.640084 0.432067
vt 0.281397 0.022956
vt 0.280962 0.003911
vt 0.285923 0.005116
vt 0.286355 0.024053
vt 0.289551 0.008407
vt 0.289976 0.027050
vt 0.605866 0.023945
vt 0.624620 0.005303
vt 0.624901 0.009798
vt 0.606552 0.028039
vt 0.280962 0.442804
vt 0.285923 0.441599
vt 0.289551 0.438308
vt 0.883622 0.271151
vt 0.883757 0.276074
vt 0.884126 0.279601
vt 0.059407 0.092417
vt 0.059407 0.354299
vt 0.229791 0.354299
vt 0.229791 0.092417
vt 0.771857 0.490649
vt 0.771857 0.726240
vt 0.766342 0.731270
vt 0.766342 0.485618
vt 0.761682 0.735535
vt 0.761682 0.481353
vt 0.758587 0.738385
vt 0.758587 0.478504
vt 0.201261 0.451627
vt 0.201261 0.711508
vt 0.199509 0.712509
vt 0.199509 0.450626
vt 0.913374 0.726240
vt 0.913374 0.490649
vt 0.918906 0.485618
vt 0.918906 0.731270
vt 0.923611 0.481353
vt 0.923611 0.735535
vt 0.926774 0.478504
vt 0.926774 0.738385
vt 0.209083 0.711508
vt 0.209083 0.451627
vt 0.210792 0.450627
vt 0.210792 0.712509
vt 0.281285 0.721571
vt 0.281285 0.889716
vt 0.279575 0.890780
vt 0.279575 0.720438
vt 0.760296 0.746314
vt 0.760296 0.916656
vt 0.758587 0.915592
vt 0.758587 0.747447
vt 0.128947 0.712509
vt 0.128947 0.450626
vt 0.830780 0.746207
vt 0.830780 0.916549
vt 0.209091 0.890673
vt 0.209091 0.720331
vt 0.281285 0.450626
vt 0.281285 0.712509
vt 0.575548 0.898046
vt 0.575548 0.865060
vt 0.585545 0.865239
vt 0.585545 0.898225
vt 0.729242 0.899765
vt 0.729242 0.866774
vt 0.739114 0.866592
vt 0.739114 0.899583
vt 0.748985 0.866774
vt 0.748985 0.899765
vt 0.565811 0.857207
vt 0.565811 0.824221
vt 0.575808 0.824042
vt 0.575808 0.857028
vt 0.585545 0.824251
vt 0.585545 0.857237
vt 0.883622 0.450719
vt 0.883622 0.417696
vt 0.893494 0.417669
vt 0.893494 0.450691
vt 0.667389 0.978552
vt 0.664656 0.974087
vt 0.695575 0.954242
vt 0.698308 0.958708
vt 0.903366 0.417696
vt 0.903366 0.450719
vt 0.565811 0.898255
vt 0.565811 0.865269
vt 0.879738 0.872003
vt 0.890376 0.872042
vt 0.897898 0.879620
vt 0.897898 0.890297
vt 0.890376 0.897819
vt 0.879738 0.897780
vt 0.872216 0.890202
vt 0.872216 0.879525
vt 0.848627 0.877967
vt 0.844566 0.882028
vt 0.838603 0.879557
vt 0.846157 0.872003
vt 0.844566 0.887772
vt 0.838603 0.890242
vt 0.848627 0.891835
vt 0.846157 0.897798
vt 0.854370 0.891836
vt 0.856840 0.897800
vt 0.858430 0.887775
vt 0.864393 0.890246
vt 0.858430 0.882031
vt 0.864393 0.879561
vt 0.854370 0.877968
vt 0.856840 0.872005
vt 0.622931 0.949771
vt 0.619947 0.954242
vt 0.608566 0.943781
vt 0.612892 0.940543
vt 0.576425 0.634372
vt 0.571118 0.634274
vt 0.571118 0.597530
vt 0.576425 0.597628
vt 0.653850 0.969616
vt 0.650866 0.974087
vt 0.648133 0.978553
vt 0.617215 0.958708
vt 0.571118 0.564106
vt 0.565811 0.564121
vt 0.565811 0.527341
vt 0.571118 0.527327
vt 0.661672 0.969616
vt 0.692591 0.949771
vt 0.565811 0.634372
vt 0.565811 0.597628
vt 0.576425 0.564121
vt 0.576425 0.527341
vt 0.571118 0.509566
vt 0.565811 0.510324
vt 0.565811 0.495356
vt 0.571118 0.493944
vt 0.604493 0.947014
vt 0.702630 0.940543
vt 0.706956 0.943781
vt 0.565811 0.584091
vt 0.571118 0.584742
vt 0.576425 0.510324
vt 0.711030 0.947014
vt 0.576425 0.584091
vt 0.606563 0.928456
vt 0.601392 0.930079
vt 0.599272 0.914754
vt 0.604693 0.914937
vt 0.708959 0.928456
vt 0.714130 0.930079
vt 0.565811 0.571944
vt 0.571118 0.573267
vt 0.576425 0.495356
vt 0.719049 0.931697
vt 0.576425 0.571944
vt 0.596473 0.931697
vt 0.565811 0.420947
vt 0.571118 0.419784
vt 0.571118 0.436514
vt 0.565811 0.436977
vt 0.594103 0.914565
vt 0.571118 0.406336
vt 0.576425 0.408062
vt 0.576425 0.420947
vt 0.710829 0.914937
vt 0.716250 0.914754
vt 0.571118 0.700807
vt 0.565811 0.702350
vt 0.565811 0.691129
vt 0.571118 0.690207
vt 0.565811 0.408062
vt 0.721419 0.914565
vt 0.576425 0.702350
vt 0.576425 0.691129
vt 0.571118 0.677748
vt 0.565811 0.677940
vt 0.565811 0.664342
vt 0.571118 0.664902
vt 0.713066 0.899615
vt 0.717861 0.897642
vt 0.576425 0.677940
vt 0.602456 0.899615
vt 0.607501 0.901582
vt 0.597662 0.897642
vt 0.576425 0.436977
vt 0.708021 0.901582
vt 0.610568 0.886449
vt 0.606730 0.882925
vt 0.620236 0.872151
vt 0.622650 0.876811
vt 0.571118 0.454550
vt 0.565811 0.454258
vt 0.704955 0.886449
vt 0.708793 0.882924
vt 0.576425 0.664342
vt 0.614657 0.889968
vt 0.576425 0.454258
vt 0.700865 0.889968
vt 0.576425 0.651938
vt 0.571118 0.653185
vt 0.571118 0.643980
vt 0.576425 0.642194
vt 0.576425 0.470751
vt 0.571118 0.471763
vt 0.690207 0.881466
vt 0.692872 0.876811
vt 0.565811 0.651938
vt 0.565811 0.470751
vt 0.695286 0.872151
vt 0.625315 0.881466
vt 0.457173 0.887529
vt 0.462480 0.886000
vt 0.462480 0.900934
vt 0.457173 0.901838
vt 0.637276 0.871838
vt 0.638218 0.877079
vt 0.636586 0.866592
vt 0.576425 0.484509
vt 0.571118 0.486121
vt 0.677304 0.877079
vt 0.678246 0.871838
vt 0.565811 0.642194
vt 0.565811 0.484509
vt 0.678936 0.866592
vt 0.749197 0.529794
vt 0.745330 0.529212
vt 0.745330 0.514377
vt 0.749197 0.515474
vt 0.662802 0.872118
vt 0.661672 0.866905
vt 0.475610 0.886000
vt 0.480917 0.887446
vt 0.480917 0.898471
vt 0.475610 0.897671
vt 0.652720 0.872118
vt 0.651841 0.877326
vt 0.653850 0.866905
vt 0.467787 0.887529
vt 0.467787 0.901838
vt 0.663681 0.877326
vt 0.486224 0.886000
vt 0.486224 0.897671
vt 0.440628 0.898034
vt 0.444625 0.897924
vt 0.445423 0.899792
vt 0.439867 0.899944
vt 0.447487 0.894902
vt 0.449351 0.895644
vt 0.447487 0.890739
vt 0.449351 0.889932
vt 0.444661 0.887911
vt 0.445423 0.886000
vt 0.440665 0.888021
vt 0.439867 0.886153
vt 0.437802 0.891043
vt 0.435939 0.890301
vt 0.437802 0.895206
vt 0.435939 0.896013
vt 0.741463 0.445684
vt 0.745330 0.444417
vt 0.745330 0.456834
vt 0.741463 0.457763
vt 0.572463 0.816219
vt 0.569110 0.814432
vt 0.574139 0.799923
vt 0.577951 0.800338
vt 0.749197 0.549096
vt 0.745330 0.549755
vt 0.745330 0.538773
vt 0.749197 0.537617
vt 0.577951 0.755537
vt 0.574652 0.757497
vt 0.569623 0.742988
vt 0.573380 0.742401
vt 0.571299 0.759285
vt 0.565811 0.743403
vt 0.741463 0.529794
vt 0.741463 0.515474
vt 0.565811 0.812472
vt 0.570382 0.799335
vt 0.741463 0.549096
vt 0.741463 0.537617
vt 0.745330 0.494111
vt 0.741463 0.494870
vt 0.741463 0.481257
vt 0.745330 0.481059
vt 0.574157 0.784059
vt 0.577951 0.783360
vt 0.749197 0.506554
vt 0.745330 0.505420
vt 0.749197 0.494870
vt 0.569605 0.727125
vt 0.573345 0.727651
vt 0.565811 0.726426
vt 0.749197 0.445684
vt 0.749197 0.457763
vt 0.570417 0.784586
vt 0.741463 0.506554
vt 0.890645 0.468602
vt 0.886531 0.468617
vt 0.883622 0.465708
vt 0.883622 0.461525
vt 0.886569 0.458557
vt 0.890683 0.458541
vt 0.893592 0.461450
vt 0.893592 0.465633
vt 0.745330 0.472843
vt 0.741463 0.473237
vt 0.569074 0.769125
vt 0.572390 0.767107
vt 0.749197 0.481257
vt 0.574688 0.712190
vt 0.577951 0.714034
vt 0.571372 0.710173
vt 0.749197 0.473237
vt 0.565811 0.770969
s 1
usemtl sink
f 1/1/1 2/2/2 4/3/2 3/4/1
f 9/5/3 10/6/3 6/7/3 5/8/3
f 1/1/1 3/4/1 8/9/3 7/10/3
f 7/10/3 8/9/3 10/6/3 9/5/3
f 5/8/3 6/7/3 12/11/3 11/12/3
f 4/3/2 2/2/2 13/13/4 14/14/4
f 16/15/3 15/16/3 17/17/3 18/18/3
f 14/14/4 13/13/4 15/16/3 16/15/3
f 34/19/5 29/20/6 31/21/7 36/22/8
f 36/22/8 31/21/7 32/23/9 37/24/10
f 37/25/10 32/26/9 33/27/11 38/28/12
f 38/28/12 33/27/11 30/29/13 35/30/14
f 25/31/15 20/32/16 23/33/17 28/34/18
f 28/34/18 23/33/17 22/35/19 27/36/20
f 27/37/20 22/38/19 21/39/21 26/40/22
f 26/40/22 21/39/21 19/41/23 24/42/24
f 60/43/25 40/44/26 43/45/27 63/46/28
f 63/46/28 43/45/27 42/47/29 62/48/30
f 62/49/30 42/50/29 41/51/31 61/52/32
f 61/52/32 41/51/31 39/53/33 59/54/34
f 55/55/35 30/29/13 33/27/11 58/56/36
f 58/56/36 33/27/11 32/26/9 57/57/37
f 57/58/37 32/23/9 31/21/7 56/59/38
f 56/59/38 31/21/7 29/20/6 54/60/39
f 20/32/16 50/61/40 53/62/41 23/33/17
f 23/33/17 53/62/41 52/63/42 22/35/19
f 22/38/19 52/64/42 51/65/43 21/39/21
f 21/39/21 51/65/43 49/66/44 19/41/23
f 65/67/45 55/55/35 58/56/36 68/68/46
f 68/68/46 58/56/36 57/57/37 67/69/47
f 67/70/47 57/58/37 56/59/38 66/71/48
f 66/71/48 56/59/38 54/60/39 64/72/49
f 50/61/40 60/43/25 63/46/28 53/62/41
f 53/62/41 63/46/28 62/48/30 52/63/42
f 52/64/42 62/49/30 61/52/32 51/65/43
f 51/65/43 61/52/32 59/54/34 49/66/44
f 45/73/50 65/67/45 68/68/46 48/74/51
f 48/74/51 68/68/46 67/69/47 47/75/52
f 47/76/52 67/70/47 66/71/48 46/77/53
f 46/77/53 66/71/48 64/72/49 44/78/54
f 70/79/55 75/80/56 78/81/57 73/82/58
f 73/82/58 78/81/57 77/83/59 72/84/60
f 72/85/60 77/86/59 76/87/61 71/88/62
f 71/88/62 76/87/61 74/89/63 69/90/64
f 40/91/26 70/79/55 73/82/58 43/92/27
f 43/92/27 73/82/58 72/84/60 42/93/29
f 42/50/29 72/85/60 71/88/62 41/51/31
f 41/51/31 71/88/62 69/90/64 39/53/33
f 75/80/56 45/94/50 48/95/51 78/81/57
f 78/81/57 48/95/51 47/96/52 77/83/59
f 77/86/59 47/76/52 46/77/53 76/87/61
f 76/87/61 46/77/53 44/78/54 74/89/63
f 24/42/24 79/97/65 81/98/66 26/40/22
f 26/40/22 81/98/66 82/99/67 27/37/20
f 27/36/20 82/100/67 83/101/68 28/34/18
f 28/34/18 83/101/68 80/102/69 25/31/15
f 84/103/70 34/19/5 36/22/8 86/104/71
f 86/104/71 36/22/8 37/24/10 87/105/72
f 87/106/72 37/25/10 38/28/12 88/107/73
f 88/107/73 38/28/12 35/30/14 85/108/74
f 85/108/74 95/109/75 98/110/76 88/107/73
f 88/107/73 98/110/76 97/111/77 87/106/72
f 87/105/72 97/112/77 96/113/78 86/104/71
f 86/104/71 96/113/78 94/114/79 84/103/70
f 90/115/80 80/102/69 83/101/68 93/116/81
f 93/116/81 83/101/68 82/100/67 92/117/82
f 92/118/82 82/99/67 81/98/66 91/119/83
f 91/119/83 81/98/66 79/97/65 89/120/84
f 105/121/85 100/122/85 103/123/86 108/124/86
f 108/124/86 103/123/86 102/125/87 107/126/88
f 107/127/88 102/128/87 101/129/89 106/130/90
f 106/130/90 101/129/89 99/131/91 104/132/92
f 89/120/84 99/131/91 101/129/89 91/119/83
f 91/119/83 101/129/89 102/128/87 92/118/82
f 92/117/82 102/133/87 103/134/93 93/116/81
f 93/116/81 103/134/93 100/135/94 90/115/80
f 104/132/92 94/114/79 96/113/78 106/130/90
f 106/130/90 96/113/78 97/112/77 107/127/88
f 107/136/88 97/111/77 98/110/76 108/137/95
f 108/137/95 98/110/76 95/109/75 105/138/96
f 19/41/23 49/66/44 59/54/34 39/53/33 69/90/64 74/89/63 44/78/54 64/72/49 54/60/39 29/20/6 34/19/5 84/103/70 94/114/79 104/132/92 99/131/91 89/120/84 79/97/65 24/42/24
f 20/32/16 25/31/15 2/139/97 1/140/98
f 20/32/16 1/140/98 7/141/99 50/61/40
f 2/139/97 25/31/15 80/102/69 13/142/100
f 3/143/101 30/29/13 55/55/35 8/144/102
f 3/143/101 4/145/103 35/30/14 30/29/13
f 35/30/14 4/145/103 14/146/104 85/108/74
f 40/91/26 5/147/105 11/148/106 70/79/55
f 60/43/25 9/149/107 5/150/105 40/44/26
f 6/151/108 45/94/50 75/80/56 12/152/109
f 10/153/110 65/67/45 45/73/50 6/154/108
f 50/61/40 7/141/99 9/149/107 60/43/25
f 8/144/102 55/55/35 65/67/45 10/153/110
f 12/152/109 75/80/56 70/79/55 11/148/106
f 13/142/100 80/102/69 90/115/80 15/155/111
f 85/108/74 14/146/104 16/156/112 95/109/75
f 15/155/111 90/115/80 100/135/94 17/157/113
f 95/109/75 16/156/112 18/158/114 105/138/96
f 105/121/85 18/159/115 17/160/115 100/122/85
f 140/161/116 119/162/117 121/163/118 143/164/119
f 143/165/119 121/166/118 122/167/120 142/168/121
f 142/168/121 122/167/120 123/169/122 141/170/123
f 141/170/123 123/169/122 120/171/124 139/172/125
f 110/173/126 120/171/124 123/169/122 113/174/127
f 113/174/127 123/169/122 122/167/120 112/175/128
f 112/175/128 122/167/120 121/166/118 111/176/129
f 111/177/129 121/163/118 119/162/117 109/178/130
f 289/179/131 290/180/132 118/181/133 128/182/134
f 128/182/134 118/181/133 117/183/135 127/184/136
f 127/184/136 117/183/135 116/185/137 126/186/138
f 126/187/138 116/188/137 114/189/139 124/190/140
f 145/191/141 110/173/126 113/174/127 148/192/142
f 148/192/142 113/174/127 112/175/128 147/193/143
f 147/193/143 112/175/128 111/176/129 146/194/144
f 146/195/144 111/177/129 109/178/130 144/196/145
f 170/197/146 129/198/147 131/199/148 173/200/149
f 173/200/149 131/199/148 132/201/150 172/202/151
f 172/203/151 132/204/150 133/205/152 171/206/153
f 171/206/153 133/205/152 130/207/154 169/208/155
f 175/209/156 135/210/157 138/211/158 178/212/159
f 178/212/159 138/211/158 137/213/160 177/214/161
f 177/215/161 137/216/160 136/217/162 176/218/163
f 176/218/163 136/217/162 134/219/164 174/220/165
f 129/198/147 140/161/116 143/164/119 131/199/148
f 131/221/148 143/165/119 142/168/121 132/204/150
f 132/204/150 142/168/121 141/170/123 133/205/152
f 133/205/152 141/170/123 139/172/125 130/207/154
f 135/210/157 145/191/141 148/192/142 138/211/158
f 138/211/158 148/192/142 147/193/143 137/213/160
f 137/213/160 147/193/143 146/194/144 136/222/162
f 136/217/162 146/195/144 144/196/145 134/219/164
f 200/223/166 149/224/167 151/225/168 203/226/169
f 203/226/169 151/225/168 152/227/170 202/228/171
f 202/229/171 152/230/170 153/231/172 201/232/173
f 201/232/173 153/231/172 150/233/174 199/234/175
f 205/235/176 155/236/177 158/237/178 208/238/179
f 208/238/179 158/237/178 157/239/180 207/240/181
f 207/241/181 157/242/180 156/243/182 206/244/183
f 206/244/183 156/243/182 154/245/184 204/246/185
f 149/224/167 159/247/186 161/248/187 151/225/168
f 151/225/168 161/248/187 162/249/188 152/227/170
f 152/230/170 162/250/188 163/251/189 153/231/172
f 153/231/172 163/251/189 160/252/190 150/233/174
f 155/236/177 165/253/191 168/254/192 158/237/178
f 158/237/178 168/254/192 167/255/193 157/239/180
f 157/242/180 167/256/193 166/257/194 156/243/182
f 156/243/182 166/257/194 164/258/195 154/245/184
f 159/247/186 170/197/146 173/200/149 161/248/187
f 161/248/187 173/200/149 172/202/151 162/249/188
f 162/259/188 172/203/151 171/206/153 163/260/189
f 163/260/189 171/206/153 169/208/155 160/261/190
f 165/262/191 175/209/156 178/212/159 168/263/192
f 168/263/192 178/212/159 177/214/161 167/264/193
f 167/256/193 177/215/161 176/218/163 166/257/194
f 166/257/194 176/218/163 174/220/165 164/258/195
f 190/265/196 179/266/197 181/267/198 193/268/199
f 193/268/199 181/267/198 182/269/200 192/270/201
f 192/271/201 182/272/200 183/273/202 191/274/203
f 191/274/203 183/273/202 180/275/204 189/276/205
f 195/277/206 185/278/207 188/279/208 198/280/209
f 198/280/209 188/279/208 187/281/210 197/282/211
f 197/283/211 187/284/210 186/285/212 196/286/213
f 196/286/213 186/285/212 184/287/214 194/288/215
f 124/190/140 190/265/196 193/268/199 126/187/138
f 126/186/138 193/289/199 192/271/201 127/184/136
f 127/184/136 192/271/201 191/274/203 128/182/134
f 128/182/134 191/274/203 189/276/205 289/179/131
f 290/180/132 195/277/206 198/280/209 118/181/133
f 118/181/133 198/280/209 197/282/211 117/183/135
f 117/183/135 197/282/211 196/290/213 116/185/137
f 116/188/137 196/286/213 194/288/215 114/189/139
f 179/266/197 200/223/166 203/226/169 181/267/198
f 181/267/198 203/226/169 202/228/171 182/269/200
f 182/291/200 202/229/171 201/232/173 183/292/202
f 183/292/202 201/232/173 199/234/175 180/293/204
f 185/294/207 205/235/176 208/238/179 188/295/208
f 188/295/208 208/238/179 207/240/181 187/296/210
f 187/284/210 207/241/181 206/244/183 186/285/212
f 186/285/212 206/244/183 204/246/185 184/287/214
f 179/266/197 190/265/196 124/190/140 114/189/139 194/288/215 184/287/214 204/246/185 154/245/184 164/258/195 174/220/165 134/219/164 144/196/145 109/178/130 119/162/117 140/161/116 129/198/147 170/197/146 159/247/186 149/224/167 200/223/166
f 218/297/216 209/298/217 211/299/218 220/300/219
f 220/300/219 211/299/218 212/301/220 219/302/221
f 219/303/221 212/304/220 210/305/222 217/306/223
f 274/307/224 291/308/225 215/309/226 276/310/227
f 276/310/227 215/309/226 216/311/228 275/312/229
f 275/313/229 216/314/228 214/315/230 273/316/231
f 291/308/225 292/317/232 223/318/233 215/309/226
f 215/309/226 223/318/233 224/319/234 216/311/228
f 216/314/228 224/320/234 222/321/235 214/315/230
f 234/322/236 218/297/216 220/300/219 236/323/237
f 236/323/237 220/300/219 219/302/221 235/324/238
f 235/325/238 219/303/221 217/306/223 233/326/239
f 238/327/240 225/328/241 227/329/242 240/330/243
f 240/330/243 227/329/242 228/331/244 239/332/245
f 239/333/245 228/334/244 226/335/246 237/336/247
f 258/337/248 229/338/249 231/339/250 260/340/251
f 260/340/251 231/339/250 232/341/252 259/342/253
f 259/343/253 232/344/252 230/345/254 257/346/255
f 229/338/249 234/322/236 236/323/237 231/339/250
f 231/339/250 236/323/237 235/324/238 232/341/252
f 232/344/252 235/325/238 233/326/239 230/345/254
f 209/298/217 238/327/240 240/330/243 211/299/218
f 211/299/218 240/330/243 239/332/245 212/301/220
f 212/304/220 239/333/245 237/336/247 210/305/222
f 254/347/256 241/348/257 243/349/258 256/350/259
f 256/350/259 243/349/258 244/351/260 255/352/261
f 255/353/261 244/354/260 242/355/262 253/356/263
f 282/357/264 245/358/265 247/359/266 284/360/267
f 284/360/267 247/359/266 248/361/268 283/362/269
f 283/363/269 248/364/268 246/365/270 281/366/271
f 245/358/265 249/367/272 251/368/273 247/359/266
f 247/359/266 251/368/273 252/369/274 248/361/268
f 248/364/268 252/370/274 250/371/275 246/365/270
f 262/372/276 254/373/256 256/374/259 264/375/277
f 264/375/277 256/374/259 255/376/261 263/377/278
f 263/378/278 255/353/261 253/356/263 261/379/279
f 249/380/272 258/337/248 260/340/251 251/381/273
f 251/381/273 260/340/251 259/342/253 252/382/274
f 252/370/274 259/343/253 257/346/255 250/371/275
f 225/328/241 262/372/276 264/375/277 227/329/242
f 227/329/242 264/375/277 263/377/278 228/331/244
f 228/334/244 263/378/278 261/379/279 226/335/246
f 286/383/280 265/384/281 267/385/282 288/386/283
f 288/386/283 267/385/282 268/387/284 287/388/285
f 287/389/285 268/390/284 266/391/286 285/392/287
f 278/393/288 269/394/289 271/395/290 280/396/291
f 280/396/291 271/395/290 272/397/292 279/398/293
f 279/399/293 272/400/292 270/401/294 277/402/295
f 265/403/281 274/307/224 276/310/227 267/404/282
f 267/404/282 276/310/227 275/312/229 268/405/284
f 268/390/284 275/313/229 273/316/231 266/391/286
f 292/317/232 278/393/288 280/396/291 223/318/233
f 223/318/233 280/396/291 279/398/293 224/319/234
f 224/320/234 279/399/293 277/402/295 222/321/235
f 269/406/289 282/357/264 284/360/267 271/407/290
f 271/407/290 284/360/267 283/362/269 272/408/292
f 272/400/292 283/363/269 281/366/271 270/401/294
f 241/348/257 286/383/280 288/386/283 243/349/258
f 243/349/258 288/386/283 287/388/285 244/351/260
f 244/354/260 287/389/285 285/392/287 242/355/262
f 218/297/216 120/171/124 110/173/126 209/298/217
f 266/391/286 273/316/231 214/315/230 222/321/235 277/402/295 270/401/294 281/366/271 246/365/270 250/371/275 257/346/255 230/345/254 233/326/239 217/306/223 210/305/222 237/336/247 226/335/246 261/379/279 253/356/263 242/355/262 285/392/287
f 110/173/126 145/191/141 238/327/240 209/298/217
f 195/277/206 290/180/132 291/308/225 274/307/224
f 218/297/216 234/322/236 139/172/125 120/171/124
f 278/393/288 292/317/232 289/179/131 189/276/205
f 145/191/141 135/210/157 225/328/241 238/327/240
f 135/210/157 175/209/156 262/372/276 225/328/241
f 229/338/249 258/337/248 169/208/155 130/207/154
f 234/322/236 229/338/249 130/207/154 139/172/125
f 165/253/191 155/236/177 241/348/257 254/347/256
f 155/236/177 205/235/176 286/383/280 241/348/257
f 245/358/265 282/357/264 199/234/175 150/233/174
f 249/367/272 245/358/265 150/233/174 160/252/190
f 258/337/248 249/380/272 160/261/190 169/208/155
f 175/209/156 165/262/191 254/373/256 262/372/276
f 205/235/176 185/294/207 265/384/281 286/383/280
f 185/278/207 195/277/206 274/307/224 265/403/281
f 269/394/289 278/393/288 189/276/205 180/275/204
f 282/357/264 269/406/289 180/293/204 199/234/175
f 125/409/115 115/410/115 290/180/132 289/179/131
f 213/411/115 221/412/115 292/317/232 291/308/225
f 115/410/115 213/411/115 291/308/225 290/180/132
f 221/412/115 125/409/115 289/179/131 292/317/232
f 294/413/296 298/414/297 300/415/298 297/416/299
f 297/416/299 300/415/298 301/417/300 296/418/301
f 296/418/301 301/417/300 302/419/302 295/420/302
f 295/421/302 302/422/302 299/423/303 293/424/303
f 304/425/304 308/426/305 310/427/306 307/428/307
f 307/428/307 310/427/306 311/429/308 306/430/309
f 306/430/309 311/429/308 312/431/310 305/432/310
f 305/433/310 312/434/310 309/435/311 303/436/311
f 298/414/297 304/425/304 307/428/307 300/415/298
f 300/415/298 307/428/307 306/430/309 301/417/300
f 301/417/300 306/430/309 305/432/312 302/419/312
f 302/437/312 305/438/312 303/439/313 299/440/313
f 293/441/314 309/442/314 312/443/315 295/444/315
f 295/420/315 312/431/315 311/429/308 296/418/301
f 296/418/301 311/429/308 310/427/306 297/416/299
f 297/416/299 310/427/306 308/426/305 294/413/296
f 115/445/3 125/446/3 293/424/303 299/423/303
f 294/413/296 308/426/305 304/425/304 298/414/297
f 125/447/316 221/448/316 309/442/314 293/441/314
f 213/449/317 115/450/317 299/440/313 303/439/313
f 221/451/318 213/452/318 303/436/311 309/435/311
f 313/453/317 330/454/317 329/455/319 315/456/319
f 315/457/319 329/458/319 331/459/318 317/460/318
f 317/460/318 331/459/318 332/461/320 319/462/320
f 319/463/320 332/464/320 333/465/316 321/466/316
f 321/466/316 333/465/316 334/467/321 323/468/321
f 323/469/321 334/470/321 335/471/3 325/472/3
f 324/473/321 322/474/316 341/475/322 342/476/323
f 325/472/3 335/471/3 336/477/324 327/478/324
f 327/479/324 336/480/324 330/454/317 313/453/317
f 313/481/325 315/482/325 317/483/325 319/484/325 321/485/325 323/486/325 325/487/325 327/488/325
f 314/489/115 316/490/115 329/491/115 330/492/115
f 316/490/115 318/493/115 331/494/115 329/491/115
f 318/493/115 320/495/115 332/496/115 331/494/115
f 320/495/115 322/497/115 333/498/115 332/496/115
f 322/497/115 324/499/115 334/500/115 333/498/115
f 324/499/115 326/501/115 335/502/115 334/500/115
f 326/501/115 328/503/115 336/504/115 335/502/115
f 328/503/115 314/489/115 330/492/115 336/504/115
f 337/505/326 338/506/327 346/507/328 345/508/329
f 320/509/320 318/510/318 339/511/330 340/512/331
f 316/513/319 314/514/317 338/506/327 337/505/326
f 314/514/317 328/515/324 344/516/332 338/506/327
f 326/517/3 324/518/321 342/519/323 343/520/333
f 322/474/316 320/521/320 340/522/331 341/475/322
f 318/510/318 316/523/319 337/524/326 339/511/330
f 328/525/324 326/517/3 343/520/333 344/526/332
f 351/527/334 350/528/335 358/529/336 359/530/337
f 338/506/327 344/516/332 352/531/338 346/507/328
f 343/520/333 342/519/323 350/528/335 351/527/334
f 341/475/322 340/522/331 348/532/339 349/533/340
f 339/511/330 337/524/326 345/534/329 347/535/341
f 344/526/332 343/520/333 351/527/334 352/536/338
f 342/476/323 341/475/322 349/533/340 350/537/335
f 340/512/331 339/511/330 347/535/341 348/538/339
f 353/539/342 354/540/343 362/541/344 361/542/345
f 349/533/340 348/532/339 356/543/346 357/544/347
f 347/535/341 345/534/329 353/545/342 355/546/348
f 352/536/338 351/527/334 359/530/337 360/547/349
f 350/537/335 349/533/340 357/544/347 358/548/336
f 348/538/339 347/535/341 355/546/348 356/549/346
f 345/508/329 346/507/328 354/540/343 353/539/342
f 346/507/328 352/531/338 360/550/349 354/540/343
f 368/551/350 367/552/351 375/553/352 376/554/353
f 354/540/343 360/550/349 368/555/350 362/541/344
f 359/556/337 358/557/336 366/558/354 367/552/351
f 357/544/347 356/543/346 364/559/355 365/560/356
f 355/561/348 353/562/342 361/563/345 363/564/357
f 360/565/349 359/556/337 367/552/351 368/551/350
f 358/548/336 357/544/347 365/560/356 366/566/354
f 356/567/346 355/561/348 363/564/357 364/568/355
f 371/569/358 369/570/359 377/571/360 379/572/361
f 366/566/354 365/560/356 373/573/362 374/574/363
f 364/568/355 363/564/357 371/569/358 372/575/364
f 361/542/345 362/541/344 370/576/365 369/577/359
f 362/541/344 368/555/350 376/578/353 370/576/365
f 367/552/351 366/558/354 374/579/363 375/553/352
f 365/560/356 364/559/355 372/580/364 373/573/362
f 363/564/357 361/563/345 369/570/359 371/569/358
f 378/581/366 384/582/367 392/583/368 386/584/369
f 376/554/353 375/553/352 383/585/370 384/586/367
f 374/574/363 373/573/362 381/587/371 382/588/372
f 372/575/364 371/569/358 379/572/361 380/589/373
f 369/577/359 370/576/365 378/581/366 377/590/360
f 370/576/365 376/578/353 384/582/367 378/581/366
f 375/553/352 374/579/363 382/591/372 383/585/370
f 373/573/362 372/580/364 380/592/373 381/587/371
f 388/593/374 387/594/375 395/595/376 396/596/377
f 383/585/370 382/591/372 390/597/378 391/598/379
f 381/587/371 380/592/373 388/599/374 389/600/380
f 379/572/361 377/571/360 385/601/381 387/594/375
f 384/586/367 383/585/370 391/598/379 392/602/368
f 382/588/372 381/587/371 389/600/380 390/603/378
f 380/589/373 379/572/361 387/594/375 388/593/374
f 377/590/360 378/581/366 386/584/369 385/604/381
f 400/605/382 399/606/383 415/607/384 416/608/385
f 385/604/381 386/584/369 394/609/386 393/610/387
f 386/584/369 392/583/368 400/611/382 394/609/386
f 391/598/379 390/597/378 398/612/388 399/613/383
f 389/600/380 388/599/374 396/614/377 397/615/389
f 387/594/375 385/601/381 393/616/387 395/595/376
f 392/602/368 391/598/379 399/613/383 400/617/382
f 390/603/378 389/600/380 397/615/389 398/618/388
f 408/619/390 407/620/391 423/621/392 424/622/393
f 398/618/388 397/615/389 413/623/394 414/624/395
f 396/625/377 395/626/376 411/627/396 412/628/397
f 393/610/387 394/609/386 410/629/398 409/630/399
f 394/609/386 400/611/382 416/631/385 410/629/398
f 399/606/383 398/632/388 414/633/395 415/607/384
f 397/615/389 396/614/377 412/634/397 413/623/394
f 395/626/376 393/635/387 409/636/399 411/627/396
f 402/637/400 401/638/400 409/639/400 410/640/400
f 401/638/400 403/641/400 411/642/400 409/639/400
f 403/641/400 404/643/400 412/644/400 411/642/400
f 404/643/400 405/645/400 413/646/400 412/644/400
f 405/645/400 406/647/400 414/648/400 413/646/400
f 406/647/400 407/649/400 415/650/400 414/648/400
f 407/649/400 408/651/400 416/652/400 415/650/400
f 408/651/400 402/637/400 410/640/400 416/652/400
f 424/653/393 423/654/392 431/655/401 432/656/402
f 406/657/403 405/658/404 421/659/405 422/660/406
f 404/661/407 403/662/408 419/663/409 420/664/410
f 401/665/411 402/666/412 418/667/413 417/668/414
f 402/666/412 408/669/390 424/670/393 418/667/413
f 407/620/391 406/671/403 422/672/406 423/621/392
f 405/658/404 404/673/407 420/674/410 421/659/405
f 403/662/408 401/675/411 417/676/414 419/663/409
f 427/677/415 425/678/416 433/679/417 435/680/418
f 422/660/406 421/659/405 429/681/419 430/682/420
f 420/683/410 419/684/409 427/677/415 428/685/421
f 417/668/414 418/667/413 426/686/422 425/687/416
f 418/667/413 424/670/393 432/688/402 426/686/422
f 423/654/392 422/689/406 430/690/420 431/655/401
f 421/659/405 420/674/410 428/691/421 429/681/419
f 419/684/409 417/692/414 425/678/416 427/677/415
f 433/693/423 434/694/423 440/695/423 439/696/423 438/697/423 437/698/423 436/699/423 435/700/423
f 432/656/402 431/655/401 439/701/424 440/702/425
f 430/682/420 429/681/419 437/703/426 438/704/427
f 428/685/421 427/677/415 435/680/418 436/705/428
f 425/687/416 426/686/422 434/706/429 433/707/417
f 426/686/422 432/688/402 440/708/425 434/706/429
f 431/655/401 430/690/420 438/709/427 439/701/424
f 429/681/419 428/691/421 436/710/428 437/703/426
