# Blender 5.0.0
# www.blender.org
mtllib gas_cylinder.mtl
o gas_cylinder
v -0.006869 0.655548 -0.102044
v 0.064018 0.655548 -0.072682
v 0.093381 0.655548 -0.001794
v 0.064018 0.655548 0.069093
v -0.006869 0.655548 0.098456
v -0.077756 0.655548 0.069093
v -0.107119 0.655548 -0.001794
v -0.077756 0.655548 -0.072682
v -0.006869 0.705081 -0.039961
v 0.020119 0.705081 -0.028782
v 0.031298 0.705081 -0.001794
v 0.020119 0.705081 0.025194
v -0.006869 0.705081 0.036373
v -0.033857 0.705081 0.025194
v -0.045036 0.705081 -0.001794
v -0.033857 0.705081 -0.028782
v 0.057094 0.672059 0.062168
v 0.048924 0.688570 0.053999
v -0.006869 0.688570 0.077109
v -0.006869 0.672059 0.088663
v -0.097326 0.672059 -0.001794
v -0.085772 0.688570 -0.001794
v -0.062662 0.688570 -0.057587
v -0.070832 0.672059 -0.065757
v 0.057094 0.672059 -0.065757
v 0.048924 0.688570 -0.057587
v 0.072034 0.688570 -0.001794
v 0.083588 0.672059 -0.001794
v -0.062662 0.688570 0.053999
v -0.070832 0.672059 0.062168
v -0.006869 0.688570 -0.080697
v -0.006869 0.672059 -0.092251
v -0.006869 -0.000000 -0.070304
v -0.006869 0.010836 -0.095406
v -0.006869 0.003174 -0.084221
v 0.059325 0.010836 -0.067988
v 0.041575 -0.000000 -0.050238
v 0.051416 0.003174 -0.060079
v 0.086743 0.010836 -0.001794
v 0.061641 -0.000000 -0.001794
v 0.075558 0.003174 -0.001794
v 0.059325 0.010836 0.064399
v 0.041575 -0.000000 0.046649
v 0.051416 0.003174 0.056490
v -0.006869 0.010836 0.091818
v -0.006869 -0.000000 0.066715
v -0.006869 0.003174 0.080633
v -0.073063 0.010836 0.064399
v -0.055313 -0.000000 0.046649
v -0.065154 0.003174 0.056490
v -0.100481 0.010836 -0.001794
v -0.075378 -0.000000 -0.001794
v -0.089296 0.003174 -0.001794
v -0.073063 0.010836 -0.067988
v -0.055313 -0.000000 -0.050238
v -0.065154 0.003174 -0.060079
v 0.024280 0.705081 -0.032944
v -0.006869 0.705081 -0.045846
v 0.037183 0.705081 -0.001794
v 0.024280 0.705081 0.029355
v -0.006869 0.705081 0.042258
v -0.038018 0.705081 0.029355
v -0.050921 0.705081 -0.001794
v -0.038018 0.705081 -0.032944
v -0.006869 0.721423 -0.039961
v 0.020119 0.721423 -0.028782
v 0.031298 0.721423 -0.001794
v 0.020119 0.721423 0.025194
v -0.006869 0.721423 0.036373
v -0.033857 0.721423 0.025194
v -0.045036 0.721423 -0.001794
v -0.033857 0.721423 -0.028782
v -0.006869 0.729326 -0.016526
v 0.003548 0.729326 -0.012211
v 0.007863 0.729326 -0.001794
v 0.003548 0.729326 0.008623
v -0.006869 0.729326 0.012937
v -0.017286 0.729326 0.008623
v -0.021601 0.729326 -0.001794
v -0.017286 0.729326 -0.012211
v 0.017259 0.729326 -0.025922
v -0.006869 0.729326 -0.035916
v 0.027253 0.729326 -0.001794
v 0.017259 0.729326 0.022334
v -0.006869 0.729326 0.032328
v -0.030997 0.729326 0.022334
v -0.040991 0.729326 -0.001794
v -0.030997 0.729326 -0.025922
v -0.006869 0.758393 -0.015618
v 0.002906 0.758393 -0.011569
v 0.006955 0.758393 -0.001794
v 0.002906 0.758393 0.007980
v -0.006869 0.758393 0.012029
v -0.016644 0.758393 0.007980
v -0.020692 0.758393 -0.001794
v -0.016644 0.758393 -0.011569
v 0.003548 0.758393 -0.012211
v -0.006869 0.758393 -0.016526
v 0.007863 0.758393 -0.001794
v 0.003548 0.758393 0.008623
v -0.006869 0.758393 0.012937
v -0.017286 0.758393 0.008623
v -0.021601 0.758393 -0.001794
v -0.017286 0.758393 -0.012211
v -0.006869 0.792474 -0.004137
v -0.005212 0.792474 -0.003451
v -0.004526 0.792474 -0.001794
v -0.005212 0.792474 -0.000137
v -0.006869 0.792474 0.000549
v -0.008526 0.792474 -0.000137
v -0.009212 0.792474 -0.001794
v -0.008526 0.792474 -0.003451
v -0.006869 0.798493 -0.002925
v -0.006069 0.798493 -0.002594
v -0.005738 0.798493 -0.001794
v -0.006069 0.798493 -0.000995
v -0.006869 0.798493 -0.000663
v -0.007669 0.798493 -0.000995
v -0.008000 0.798493 -0.001794
v -0.007669 0.798493 -0.002594
v -0.005212 0.798493 -0.003451
v -0.006869 0.798493 -0.004137
v -0.004526 0.798493 -0.001794
v -0.005212 0.798493 -0.000137
v -0.006869 0.798493 0.000549
v -0.008526 0.798493 -0.000137
v -0.009212 0.798493 -0.001794
v -0.008526 0.798493 -0.003451
v -0.006869 0.800000 -0.002925
v -0.006069 0.800000 -0.002594
v -0.005738 0.800000 -0.001794
v -0.006069 0.800000 -0.000995
v -0.006869 0.800000 -0.000663
v -0.007669 0.800000 -0.000995
v -0.008000 0.800000 -0.001794
v -0.007669 0.800000 -0.002594
v -0.016644 0.792474 0.007980
v -0.020692 0.792474 -0.001794
v 0.002906 0.792474 0.007980
v -0.006869 0.792474 0.012029
v 0.002906 0.792474 -0.011569
v 0.006955 0.792474 -0.001794
v -0.016644 0.792474 -0.011569
v -0.006869 0.792474 -0.015618
v -0.006869 0.792474 -0.008824
v -0.001898 0.792474 -0.006765
v 0.000161 0.792474 -0.001794
v -0.001898 0.792474 0.003177
v -0.006869 0.792474 0.005236
v -0.011840 0.792474 0.003177
v -0.013899 0.792474 -0.001794
v -0.011840 0.792474 -0.006765
v 0.022455 0.792474 -0.031118
v -0.006869 0.792474 -0.043265
v 0.034601 0.792474 -0.001794
v 0.022455 0.792474 0.027530
v -0.006869 0.792474 0.039676
v -0.036193 0.792474 0.027530
v -0.048339 0.792474 -0.001794
v -0.036193 0.792474 -0.031118
v -0.036193 0.783403 0.027530
v -0.048339 0.783403 -0.001794
v 0.022455 0.783403 0.027530
v -0.006869 0.783403 0.039676
v 0.022455 0.783403 -0.031118
v 0.034601 0.783403 -0.001794
v -0.036193 0.783403 -0.031118
v -0.006869 0.783403 -0.043265
v -0.006869 0.792474 -0.034654
v 0.016367 0.792474 -0.025030
v 0.025991 0.792474 -0.001794
v 0.016367 0.792474 0.021442
v -0.006869 0.792474 0.031066
v -0.030105 0.792474 0.021442
v -0.039729 0.792474 -0.001794
v -0.030105 0.792474 -0.025030
v -0.006869 0.783403 -0.036353
v 0.017568 0.783403 -0.026231
v -0.031306 0.783403 -0.026231
v -0.041428 0.783403 -0.001794
v -0.031306 0.783403 0.022642
v -0.006869 0.783403 0.032764
v 0.017568 0.783403 0.022642
v 0.027690 0.783403 -0.001794
v 0.027314 0.792474 0.015800
v 0.029743 0.792474 0.009935
v 0.029743 0.783403 0.009935
v 0.027314 0.783403 0.015800
v 0.020217 0.792474 0.012147
v 0.022141 0.792474 0.007500
v 0.023641 0.783403 0.007980
v 0.021617 0.783403 0.012868
v -0.024463 0.792474 0.032388
v -0.018599 0.792474 0.034818
v -0.018599 0.783403 0.034818
v -0.024463 0.783403 0.032388
v -0.020810 0.792474 0.025291
v -0.016163 0.792474 0.027216
v -0.016644 0.783403 0.028716
v -0.021531 0.783403 0.026691
v -0.041052 0.792474 -0.019389
v -0.043481 0.792474 -0.013524
v -0.043481 0.783403 -0.013524
v -0.041052 0.783403 -0.019389
v -0.033954 0.792474 -0.015736
v -0.035879 0.792474 -0.011088
v -0.037379 0.783403 -0.011569
v -0.035354 0.783403 -0.016456
v 0.010725 0.792474 -0.035977
v 0.004861 0.792474 -0.038406
v 0.004861 0.783403 -0.038406
v 0.010725 0.783403 -0.035977
v 0.007072 0.792474 -0.028880
v 0.002425 0.792474 -0.030805
v 0.002906 0.783403 -0.032304
v 0.007793 0.783403 -0.030280
v -0.020692 0.786292 -0.001794
v -0.006869 0.786292 0.012029
v 0.006955 0.786292 -0.001794
v -0.016644 0.786292 -0.011569
v -0.016644 0.786292 0.007980
v 0.002906 0.786292 0.007980
v 0.002906 0.786292 -0.011569
v -0.006869 0.786292 -0.015618
v -0.003611 0.792474 -0.014268
v -0.000352 0.792474 -0.012918
v -0.003611 0.786292 -0.014268
v -0.000352 0.786292 -0.012918
v 0.083593 0.655548 0.021835
v 0.032882 0.705081 0.008589
v 0.074757 0.672059 0.019527
v 0.064331 0.688570 0.016803
v 0.077604 0.010836 0.020270
v 0.067510 0.003174 0.017634
v 0.054952 -0.000000 0.014354
v 0.027572 0.705081 0.007202
v 0.027572 0.721423 0.007202
v 0.023922 0.729326 0.006248
v 0.006424 0.729326 0.001678
v 0.006424 0.758393 0.001678
v 0.005605 0.758393 0.001464
v 0.005605 0.792474 0.001464
v 0.004255 0.792474 0.004722
v 0.005605 0.786292 0.001464
v 0.004255 0.786292 0.004722
v -0.010127 0.792474 0.010680
v -0.013385 0.792474 0.009330
v -0.010127 0.786292 0.010680
v -0.013385 0.786292 0.009330
v -0.019343 0.792474 -0.005052
v -0.017993 0.792474 -0.008311
v -0.019343 0.786292 -0.005052
v -0.017993 0.786292 -0.008311
v -0.006869 0.057727 -0.102044
v -0.006869 0.019498 -0.097491
v -0.006869 0.038533 -0.100710
v 0.060799 0.019498 -0.069462
v 0.064018 0.057727 -0.072682
v 0.063075 0.038533 -0.071739
v 0.093381 0.057727 -0.001794
v 0.088827 0.019498 -0.001794
v 0.092047 0.038533 -0.001794
v 0.060799 0.019498 0.065873
v 0.064018 0.057727 0.069093
v 0.063075 0.038533 0.068150
v -0.006869 0.057727 0.098456
v -0.006869 0.019498 0.093902
v -0.006869 0.038533 0.097122
v -0.074537 0.019498 0.065873
v -0.077756 0.057727 0.069093
v -0.076813 0.038533 0.068150
v -0.107119 0.057727 -0.001794
v -0.102565 0.019498 -0.001794
v -0.105785 0.038533 -0.001794
v -0.074537 0.019498 -0.069462
v -0.077756 0.057727 -0.072682
v -0.076813 0.038533 -0.071739
v 0.083593 0.057727 0.021835
v 0.079484 0.019498 0.020762
v 0.082390 0.038533 0.021521
vn 0.7071 -0.0000 0.7071
vn 0.9239 -0.0000 0.3827
vn -0.0000 0.7338 0.6793
vn 0.4804 0.7338 0.4804
vn 0.1911 0.9628 0.1911
vn -0.0000 0.9628 0.2702
vn 1.0000 -0.0000 -0.0000
vn 0.9750 0.2223 -0.0000
vn 0.9014 0.2191 0.3734
vn 0.6793 0.7338 -0.0000
vn 0.4804 0.7338 -0.4804
vn 0.1911 0.9628 -0.1911
vn 0.2702 0.9628 -0.0000
vn -0.0000 0.7338 -0.6793
vn -0.4804 0.7338 -0.4804
vn -0.1911 0.9628 -0.1911
vn -0.0000 0.9628 -0.2702
vn 0.6198 0.7416 0.2567
vn 0.2168 0.9721 0.0898
vn -0.6793 0.7338 -0.0000
vn -0.4804 0.7338 0.4804
vn -0.1911 0.9628 0.1911
vn -0.2702 0.9628 -0.0000
vn -0.9684 0.2494 -0.0000
vn -0.6848 0.2494 0.6848
vn -0.5961 0.5380 0.5961
vn -0.8430 0.5380 -0.0000
vn 0.8950 0.2480 0.3707
vn 0.9684 0.2494 -0.0000
vn 0.8430 0.5380 -0.0000
vn 0.7936 0.5121 0.3287
vn -0.0000 0.2494 -0.9684
vn -0.6848 0.2494 -0.6848
vn -0.5961 0.5380 -0.5961
vn -0.0000 0.5380 -0.8430
vn 0.6848 0.2494 -0.6848
vn 0.5961 0.5380 -0.5961
vn -0.0000 0.2494 0.9684
vn 0.6848 0.2494 0.6848
vn 0.5961 0.5380 0.5961
vn -0.0000 0.5380 0.8430
vn 0.5998 -0.5296 -0.5998
vn 0.8483 -0.5296 -0.0000
vn 0.4384 -0.8988 -0.0000
vn 0.3100 -0.8988 -0.3100
vn 0.1393 -0.9903 -0.0000
vn 0.0985 -0.9903 -0.0985
vn 0.7749 -0.5445 0.3210
vn 0.5998 -0.5296 0.5998
vn 0.3100 -0.8988 0.3100
vn 0.3935 -0.9047 0.1630
vn -0.0000 -0.5296 0.8483
vn -0.0000 -0.8988 0.4384
vn -0.0000 -0.9903 0.1393
vn 0.0985 -0.9903 0.0985
vn -0.5998 -0.5296 0.5998
vn -0.8483 -0.5296 -0.0000
vn -0.4384 -0.8988 -0.0000
vn -0.3100 -0.8988 0.3100
vn -0.1393 -0.9903 -0.0000
vn -0.0985 -0.9903 0.0985
vn -0.5998 -0.5296 -0.5998
vn -0.0000 -0.5296 -0.8483
vn -0.0000 -0.8988 -0.4384
vn -0.3100 -0.8988 -0.3100
vn -0.0000 -0.9903 -0.1393
vn -0.0985 -0.9903 -0.0985
vn 0.1115 -0.9927 0.0462
vn -0.0000 1.0000 -0.0000
vn -0.0000 -0.0000 -1.0000
vn -0.7071 -0.0000 -0.7071
vn -0.6894 0.2223 -0.6894
vn -0.0000 0.2223 -0.9750
vn -1.0000 -0.0000 -0.0000
vn -0.7071 -0.0000 0.7071
vn -0.6894 0.2223 0.6894
vn -0.9750 0.2223 -0.0000
vn -0.0000 -0.0000 1.0000
vn 0.6894 0.2223 0.6894
vn -0.0000 0.2223 0.9750
vn 0.7071 -0.0000 -0.7071
vn 0.6894 0.2223 -0.6894
vn 0.8902 0.4556 -0.0000
vn 0.8352 0.4275 0.3460
vn -0.6295 0.4556 -0.6295
vn -0.0000 0.4556 -0.8902
vn -0.6295 0.4556 0.6295
vn -0.8902 0.4556 -0.0000
vn 0.6295 0.4556 0.6295
vn -0.0000 0.4556 0.8902
vn 0.6295 0.4556 -0.6295
vn -0.0000 -1.0000 -0.0000
vn -0.0000 -0.1840 0.9829
vn -0.3771 -0.1704 0.9104
vn 0.6950 -0.1840 0.6950
vn 0.9104 -0.1704 0.3771
vn 0.6950 -0.1840 -0.6950
vn 0.3771 -0.1704 -0.9104
vn 0.3827 -0.0000 -0.9239
vn -0.3827 -0.0000 0.9239
vn -0.9239 -0.0000 -0.3827
vn 0.0451 -0.9988 0.0187
vn 0.0187 -0.9988 -0.0451
vn -0.0451 -0.9988 -0.0187
vn -0.0187 -0.9988 0.0451
vn 0.9829 -0.1840 -0.0000
vn -0.9829 -0.1840 -0.0000
vn -0.6950 -0.1840 0.6950
vn -0.0000 -0.1840 -0.9829
vn -0.6950 -0.1840 -0.6950
vn -0.9104 -0.1704 -0.3771
vn -0.1378 -0.9888 -0.0571
vn 0.0571 -0.9888 -0.1378
vn 0.1378 -0.9888 0.0571
vn -0.0571 -0.9888 0.1378
vn 0.9061 0.0040 0.4230
vn -0.9398 0.0040 -0.3416
vn -0.4230 0.0040 0.9061
vn 0.3416 0.0040 -0.9398
vn -0.9061 0.0040 -0.4230
vn 0.9398 0.0040 0.3416
vn 0.4230 0.0040 -0.9061
vn -0.3416 0.0040 0.9398
vn 0.7067 -0.0344 -0.7067
vn 0.9994 -0.0344 -0.0000
vn 0.9932 -0.1168 -0.0000
vn 0.7023 -0.1168 -0.7023
vn 0.9800 -0.1989 -0.0000
vn 0.6930 -0.1989 -0.6930
vn 0.7067 -0.0344 0.7067
vn -0.0000 -0.0344 0.9994
vn -0.0000 -0.1168 0.9932
vn 0.7023 -0.1168 0.7023
vn -0.0000 -0.1989 0.9800
vn 0.6930 -0.1989 0.6930
vn -0.7067 -0.0344 0.7067
vn -0.9994 -0.0344 -0.0000
vn -0.9932 -0.1168 -0.0000
vn -0.7023 -0.1168 0.7023
vn -0.9800 -0.1989 -0.0000
vn -0.6930 -0.1989 0.6930
vn -0.7067 -0.0344 -0.7067
vn -0.0000 -0.0344 -0.9994
vn -0.0000 -0.1168 -0.9932
vn -0.7023 -0.1168 -0.7023
vn -0.0000 -0.1989 -0.9800
vn -0.6930 -0.1989 -0.6930
vn 0.9234 -0.0320 0.3825
vn 0.9183 -0.1093 0.3804
vn 0.9078 -0.1858 0.3760
vt 0.962395 0.036342
vt 0.954103 0.036342
vt 0.954103 0.003694
vt 0.958249 0.003694
vt 0.962395 0.003694
vt 0.734422 0.381427
vt 0.684226 0.331228
vt 0.722276 0.315549
vt 0.750301 0.343576
vt 0.676845 0.270426
vt 0.676845 0.281873
vt 0.657722 0.281873
vt 0.657722 0.270426
vt 0.684226 0.260235
vt 0.734422 0.210036
vt 0.750301 0.247887
vt 0.722276 0.275914
vt 0.805411 0.210036
vt 0.855608 0.260235
vt 0.817960 0.275914
vt 0.789935 0.247887
vt 0.684226 0.283899
vt 0.722276 0.289125
vt 0.855608 0.331228
vt 0.805411 0.381427
vt 0.789935 0.343576
vt 0.817960 0.315549
vt 0.224900 0.045080
vt 0.161120 0.039510
vt 0.171756 0.019790
vt 0.229306 0.024816
vt 0.184304 0.000000
vt 0.234504 0.004384
vt 0.410003 0.045652
vt 0.379937 0.045652
vt 0.384342 0.025314
vt 0.411472 0.025314
vt 0.389540 0.004795
vt 0.413204 0.004795
vt 0.063781 0.045080
vt -0.000000 0.039510
vt 0.010636 0.019790
vt 0.068186 0.024816
vt 0.023184 0.000000
vt 0.073384 0.004384
vt 0.316156 0.039560
vt 0.326792 0.019818
vt 0.339341 0.000000
vt 0.533917 0.039560
vt 0.470136 0.045652
vt 0.465730 0.025314
vt 0.523280 0.019818
vt 0.460533 0.004795
vt 0.510732 0.000000
vt 0.702978 0.207628
vt 0.643439 0.148071
vt 0.655804 0.143039
vt 0.708230 0.195480
vt 0.671007 0.136778
vt 0.714581 0.180365
vt 0.643439 0.119995
vt 0.643439 0.063844
vt 0.655804 0.068876
vt 0.655804 0.118318
vt 0.702978 0.004286
vt 0.708230 0.016434
vt 0.714581 0.031550
vt 0.671007 0.075137
vt 0.787179 0.004286
vt 0.846719 0.063844
vt 0.834796 0.068876
vt 0.782370 0.016434
vt 0.819777 0.075137
vt 0.776203 0.031550
vt 0.846719 0.148071
vt 0.787179 0.207628
vt 0.782370 0.195480
vt 0.834796 0.143039
vt 0.776203 0.180365
vt 0.819777 0.136778
vt 0.671007 0.116231
vt 0.752949 0.254279
vt 0.728668 0.278561
vt 0.728668 0.312902
vt 0.752949 0.337184
vt 0.787287 0.337184
vt 0.811568 0.312902
vt 0.811568 0.278561
vt 0.787287 0.254279
vt 0.884671 0.121012
vt 0.881810 0.097926
vt 0.900063 0.097266
vt 0.902923 0.120352
vt 0.935534 0.041281
vt 0.936553 0.064455
vt 0.918236 0.064455
vt 0.917217 0.041281
vt 0.936553 0.097229
vt 0.935534 0.120404
vt 0.917217 0.120404
vt 0.918236 0.097229
vt 0.856103 0.121012
vt 0.853243 0.097926
vt 0.871495 0.097266
vt 0.874356 0.120352
vt 0.648054 0.280053
vt 0.648054 0.269819
vt 0.870311 0.064514
vt 0.871495 0.041281
vt 0.880626 0.045146
vt 0.879566 0.065917
vt 0.898878 0.064514
vt 0.900063 0.041281
vt 0.909193 0.045146
vt 0.908134 0.065916
vt 0.655403 0.223250
vt 0.657722 0.247532
vt 0.648054 0.249352
vt 0.645981 0.227643
vt 0.655403 0.306155
vt 0.645981 0.301762
vt 0.764291 0.279445
vt 0.754919 0.288817
vt 0.733861 0.280094
vt 0.755569 0.258385
vt 0.754919 0.302072
vt 0.764291 0.311444
vt 0.755569 0.332504
vt 0.733861 0.310795
vt 0.777546 0.311444
vt 0.786918 0.302072
vt 0.807976 0.310795
vt 0.786268 0.332504
vt 0.786918 0.288817
vt 0.777546 0.279445
vt 0.786268 0.258385
vt 0.807976 0.280094
vt 0.830801 0.039554
vt 0.826383 0.039554
vt 0.826383 0.005539
vt 0.830801 0.005539
vt 0.945498 0.074549
vt 0.936553 0.073768
vt 0.936553 0.041281
vt 0.945498 0.042062
vt 0.997633 0.073861
vt 0.988688 0.074254
vt 0.988688 0.041674
vt 0.997633 0.041281
vt 0.976038 0.074254
vt 0.967093 0.073861
vt 0.967093 0.041281
vt 0.976038 0.041674
vt 0.967093 0.073768
vt 0.958148 0.074549
vt 0.958148 0.042062
vt 0.967093 0.041281
vt 0.855248 0.004680
vt 0.846453 0.013475
vt 0.845467 0.013066
vt 0.854839 0.003694
vt 0.839637 0.039554
vt 0.839637 0.005539
vt 0.846453 0.025913
vt 0.855248 0.034707
vt 0.854839 0.035694
vt 0.845467 0.026321
vt 0.867685 0.034707
vt 0.876479 0.025913
vt 0.877465 0.026321
vt 0.868093 0.035694
vt 0.876479 0.013475
vt 0.867685 0.004680
vt 0.868093 0.003694
vt 0.877465 0.013066
vt 0.891337 0.983742
vt 0.913319 0.961759
vt 0.920825 0.964868
vt 0.894445 0.991248
vt 0.784674 0.943670
vt 0.783184 0.945161
vt 0.778095 0.943053
vt 0.782566 0.938581
vt 0.913319 0.930670
vt 0.891337 0.908687
vt 0.894445 0.901181
vt 0.920825 0.927561
vt 0.860249 0.908687
vt 0.838266 0.930670
vt 0.830761 0.927561
vt 0.857140 0.901181
vt 0.788273 0.945161
vt 0.786782 0.943670
vt 0.788890 0.938581
vt 0.793362 0.943053
vt 0.838266 0.961759
vt 0.860249 0.983742
vt 0.857140 0.991248
vt 0.830761 0.964868
vt 0.979258 0.892542
vt 0.979202 0.880106
vt 0.989851 0.879905
vt 0.989904 0.891730
vt 0.846453 0.017621
vt 0.845467 0.017485
vt 0.786782 0.948759
vt 0.788273 0.947269
vt 0.793362 0.949376
vt 0.788890 0.953848
vt 0.938488 0.982004
vt 0.939252 0.971461
vt 0.951076 0.971461
vt 0.950923 0.982004
vt 0.955341 0.947526
vt 0.965918 0.948515
vt 0.965668 0.960337
vt 0.955078 0.959959
vt 0.783184 0.947269
vt 0.784674 0.948759
vt 0.782566 0.953848
vt 0.778095 0.949376
vt 0.976173 0.010742
vt 0.974683 0.010872
vt 0.974683 0.003824
vt 0.976173 0.003694
vt 0.967485 0.010762
vt 0.965994 0.010828
vt 0.965994 0.003760
vt 0.967485 0.003694
vt 0.963885 0.010828
vt 0.962395 0.010762
vt 0.962395 0.003694
vt 0.963885 0.003760
vt 0.979772 0.010742
vt 0.978282 0.010872
vt 0.978282 0.003824
vt 0.979772 0.003694
vt 0.970538 0.007467
vt 0.971257 0.006748
vt 0.972574 0.007293
vt 0.971083 0.008784
vt 0.971257 0.005730
vt 0.970538 0.005011
vt 0.971083 0.003694
vt 0.972574 0.005185
vt 0.969521 0.005011
vt 0.968801 0.005730
vt 0.967485 0.005185
vt 0.968975 0.003694
vt 0.968801 0.006748
vt 0.969521 0.007467
vt 0.968975 0.008784
vt 0.967485 0.007293
vt 0.643712 0.216855
vt 0.643712 0.211297
vt 0.647642 0.207367
vt 0.653200 0.207367
vt 0.657130 0.211297
vt 0.657130 0.216855
vt 0.653200 0.220785
vt 0.647642 0.220785
vt 0.647488 0.188037
vt 0.647145 0.184106
vt 0.656787 0.184106
vt 0.657131 0.188037
vt 0.657130 0.207194
vt 0.653200 0.207366
vt 0.653200 0.197697
vt 0.657130 0.197524
vt 0.647642 0.207366
vt 0.643712 0.207194
vt 0.643712 0.197524
vt 0.647642 0.197697
vt 0.647487 0.197525
vt 0.647144 0.193594
vt 0.656787 0.193594
vt 0.657130 0.197525
vt 0.970759 0.879095
vt 0.971051 0.870302
vt 0.978314 0.870302
vt 0.978022 0.879095
vt 0.970759 0.883241
vt 0.978022 0.883241
vt 0.978480 0.902587
vt 0.974335 0.902587
vt 0.974335 0.895332
vt 0.978480 0.895332
vt 0.956471 0.924430
vt 0.956471 0.920285
vt 0.963737 0.920285
vt 0.963737 0.924430
vt 0.970912 0.852547
vt 0.966766 0.852547
vt 0.966766 0.845285
vt 0.970912 0.845285
vt 0.965436 0.903254
vt 0.965144 0.894461
vt 0.972407 0.894461
vt 0.972698 0.903254
vt 0.956533 0.911491
vt 0.963800 0.911491
vt 0.995407 0.924248
vt 0.986614 0.924310
vt 0.986614 0.917044
vt 0.995407 0.916982
vt 0.977429 0.755218
vt 0.977616 0.781598
vt 0.966953 0.781598
vt 0.966766 0.755218
vt 0.977616 0.818905
vt 0.977429 0.845285
vt 0.966766 0.845285
vt 0.966953 0.818905
vt 0.966794 0.995140
vt 0.965918 0.968761
vt 0.976575 0.968761
vt 0.977451 0.995140
vt 0.913319 0.949324
vt 0.920825 0.949945
vt 0.878901 0.908687
vt 0.879523 0.901181
vt 0.838266 0.943106
vt 0.830761 0.942484
vt 0.872684 0.983742
vt 0.872062 0.991248
vt 0.965918 0.931454
vt 0.966794 0.905074
vt 0.977451 0.905074
vt 0.976575 0.931454
vt 0.965918 0.953838
vt 0.976575 0.953838
vt 0.800508 0.981898
vt 0.821411 0.960995
vt 0.804381 0.991248
vt 0.988261 0.792525
vt 0.988261 0.807448
vt 0.977616 0.807448
vt 0.977616 0.792525
vt 0.821411 0.931434
vt 0.800508 0.910531
vt 0.804381 0.901181
vt 0.830761 0.927561
vt 0.977616 0.796521
vt 0.966953 0.796521
vt 0.770948 0.910531
vt 0.750045 0.931434
vt 0.740696 0.927561
vt 0.767075 0.901181
vt 0.988273 0.755218
vt 0.988273 0.770141
vt 0.977616 0.770141
vt 0.977616 0.755218
vt 0.750045 0.960995
vt 0.770948 0.981898
vt 0.767075 0.991248
vt 0.740696 0.964868
vt 0.989851 0.912633
vt 0.979202 0.914525
vt 0.750045 0.943258
vt 0.740696 0.942484
vt 0.955078 0.925533
vt 0.965668 0.927602
vt 0.782772 0.981898
vt 0.781998 0.991248
vt 0.979255 0.878013
vt 0.979202 0.857109
vt 0.989848 0.857922
vt 0.989904 0.879905
vt 0.821411 0.949171
vt 0.830761 0.949945
vt 0.955077 0.983319
vt 0.955328 0.962406
vt 0.965918 0.960337
vt 0.965655 0.982330
vt 0.788684 0.910531
vt 0.789459 0.901181
vt 0.791946 0.961226
vt 0.800739 0.952432
vt 0.770717 0.952432
vt 0.779510 0.961226
vt 0.779510 0.931203
vt 0.770717 0.939997
vt 0.800739 0.939997
vt 0.791946 0.931203
vt 0.938488 0.950270
vt 0.950312 0.950270
vt 0.951076 0.960866
vt 0.938641 0.960866
vt 0.860755 0.944142
vt 0.860755 0.948287
vt 0.838266 0.949324
vt 0.821411 0.943258
vt 0.830761 0.942484
vt 0.988261 0.814909
vt 0.988261 0.829832
vt 0.977616 0.829832
vt 0.977616 0.814909
vt 0.830761 0.949945
vt 0.965918 0.994763
vt 0.955328 0.995140
vt 0.877838 0.931203
vt 0.873693 0.931203
vt 0.872684 0.908687
vt 0.782772 0.910531
vt 0.781998 0.901181
vt 0.977616 0.803982
vt 0.966953 0.803982
vt 0.872062 0.901181
vt 0.938641 0.992546
vt 0.950312 0.982004
vt 0.951076 0.992546
vt 0.890776 0.948287
vt 0.890776 0.944142
vt 0.913319 0.943106
vt 0.750045 0.949171
vt 0.740696 0.949945
vt 0.988273 0.777602
vt 0.988273 0.792525
vt 0.977616 0.792525
vt 0.977616 0.777602
vt 0.920825 0.942484
vt 0.989904 0.845486
vt 0.979255 0.845285
vt 0.873693 0.961226
vt 0.877838 0.961226
vt 0.878901 0.983742
vt 0.788684 0.981898
vt 0.789459 0.991248
vt 0.965918 0.946377
vt 0.976575 0.946377
vt 0.879523 0.991248
vt 0.939252 0.960866
vt 0.951076 0.960866
vt 0.950923 0.971461
vt 0.938488 0.971461
vt 0.937519 0.036460
vt 0.928725 0.036846
vt 0.928725 0.004080
vt 0.937519 0.003694
vt 0.916287 0.036846
vt 0.907492 0.036460
vt 0.907492 0.003694
vt 0.916287 0.004080
vt 0.907492 0.036366
vt 0.898698 0.037134
vt 0.898698 0.004462
vt 0.907492 0.003694
vt 0.949957 0.036342
vt 0.949957 0.003694
vt 0.886260 0.037134
vt 0.877465 0.036366
vt 0.877465 0.003694
vt 0.886260 0.004462
vt 0.890406 0.004462
vt 0.894552 0.004462
vt 0.787801 0.961226
vt 0.783656 0.961226
vt 0.965144 0.890315
vt 0.972407 0.890315
vt 0.951076 0.928970
vt 0.951059 0.936225
vt 0.928534 0.939620
vt 0.930404 0.928970
vt 0.976173 0.010872
vt 0.976173 0.003824
vt 0.647144 0.188037
vt 0.656787 0.188037
vt 0.880626 0.095198
vt 0.852058 0.065174
vt 0.149574 0.024816
vt 0.144377 0.004384
vt 0.153980 0.045080
vt 0.955085 0.884800
vt 0.962347 0.884790
vt 0.962347 0.905463
vt 0.951688 0.907322
vt 0.800739 0.944142
vt 0.800739 0.948287
vt 0.979202 0.892577
vt 0.975057 0.892577
vt 0.975057 0.885322
vt 0.979202 0.885322
vt 0.980019 0.970381
vt 0.987285 0.970383
vt 0.990682 0.992901
vt 0.980019 0.991053
vt 0.647495 0.178548
vt 0.647495 0.172991
vt 0.657131 0.172991
vt 0.657131 0.178548
vt 0.661620 0.189277
vt 0.659511 0.189277
vt 0.659511 0.182234
vt 0.661620 0.182234
vt 0.754919 0.293235
vt 0.733861 0.290328
vt 0.728668 0.290008
vt 0.676845 0.247532
vt 0.949988 0.910312
vt 0.949998 0.917574
vt 0.929326 0.917574
vt 0.927467 0.906915
vt 0.920433 0.004080
vt 0.924579 0.004080
vt 0.783656 0.931203
vt 0.787801 0.931203
vt 0.982468 0.924310
vt 0.982468 0.917044
vt 0.980019 0.925317
vt 0.987281 0.925327
vt 0.990678 0.947849
vt 0.980019 0.945989
vt 0.909193 0.095493
vt 0.909193 0.066192
vt 0.632934 0.019943
vt 0.551546 0.019943
vt 0.556744 0.000000
vt 0.627736 0.000000
vt 0.637340 0.039801
vt 0.547140 0.039801
vt 0.951059 0.943015
vt 0.951076 0.950270
vt 0.930404 0.950270
vt 0.928534 0.939620
vt 0.949957 0.036366
vt 0.937519 0.036366
vt 0.937519 0.003694
vt 0.941665 0.003694
vt 0.945811 0.003694
vt 0.949957 0.003694
vt 0.770717 0.948287
vt 0.770717 0.944142
vt 0.979202 0.852547
vt 0.975057 0.852547
vt 0.975057 0.845285
vt 0.979202 0.845285
vt 0.980019 0.947849
vt 0.987281 0.947859
vt 0.990678 0.970381
vt 0.980019 0.968521
vt 0.647145 0.178548
vt 0.656787 0.178548
vt 0.972574 0.010872
vt 0.972574 0.003824
vt 0.675025 0.216274
vt 0.661770 0.216274
vt 0.661770 0.182234
vt 0.675025 0.182234
vt 0.880626 0.065174
vt 0.909193 0.095198
vt 0.310694 0.024816
vt 0.305497 0.004384
vt 0.315100 0.045080
vt 0.951074 0.921704
vt 0.928556 0.918307
vt 0.093076 0.751637
vt 0.156856 0.746067
vt 0.155408 0.768492
vt 0.092476 0.773988
vt 0.151911 0.790657
vt 0.091027 0.795975
vt 0.420860 0.754727
vt 0.484640 0.757529
vt 0.485240 0.780008
vt 0.422308 0.777243
vt 0.486689 0.802210
vt 0.425805 0.799535
vt 0.574840 0.757529
vt 0.638620 0.754727
vt 0.637172 0.777243
vt 0.574240 0.780008
vt 0.633675 0.799535
vt 0.572791 0.802210
vt 0.252666 0.753966
vt 0.316446 0.748396
vt 0.314998 0.770822
vt 0.252066 0.776318
vt 0.311501 0.792987
vt 0.250617 0.798304
vt 0.002876 0.751637
vt 0.003476 0.773988
vt 0.004925 0.795975
vt 0.324130 0.753033
vt 0.354196 0.753033
vt 0.354396 0.775356
vt 0.324730 0.775356
vt 0.354879 0.797297
vt 0.326178 0.797297
vt 0.414329 0.753033
vt 0.413729 0.775356
vt 0.412280 0.797297
vt 0.162466 0.753966
vt 0.163066 0.776318
vt 0.164515 0.798304
vt 0.002876 0.051540
vt 0.093076 0.051540
vt 0.252666 0.053869
vt 0.316446 0.048299
vt 0.309237 0.803049
vt 0.249679 0.808250
vt 0.090089 0.805921
vt 0.005862 0.805921
vt 0.156856 0.045970
vt 0.149647 0.800719
vt 0.355191 0.807217
vt 0.327116 0.807217
vt 0.324130 0.053464
vt 0.354196 0.053464
vt 0.414329 0.053464
vt 0.420860 0.052624
vt 0.484640 0.055426
vt 0.487627 0.812283
vt 0.428069 0.809666
vt 0.411343 0.807217
vt 0.571853 0.812283
vt 0.574840 0.055426
vt 0.638620 0.052624
vt 0.631411 0.809666
vt 0.165453 0.808250
vt 0.162466 0.053869
s 1
usemtl gas_cylinder
f 92/1/1 241/2/2 244/3/2 245/4/2 222/5/1
f 19/6/3 18/7/4 60/8/5 61/9/6
f 236/10/2 11/11/7 67/12/8 237/13/9
f 27/14/10 26/15/11 57/16/12 59/17/13
f 31/18/14 23/19/15 64/20/16 58/21/17
f 232/22/18 27/14/10 59/17/13 230/23/19
f 22/24/20 29/25/21 62/26/22 63/27/23
f 7/28/24 6/29/25 30/30/26 21/31/27
f 21/31/27 30/30/26 29/32/21 22/33/20
f 229/34/28 3/35/29 28/36/30 231/37/31
f 231/37/31 28/36/30 27/38/10 232/39/18
f 1/40/32 8/41/33 24/42/34 32/43/35
f 32/43/35 24/42/34 23/44/15 31/45/14
f 3/35/29 2/46/36 25/47/37 28/36/30
f 28/36/30 25/47/37 26/48/11 27/38/10
f 5/49/38 4/50/39 17/51/40 20/52/41
f 20/52/41 17/51/40 18/53/4 19/54/3
f 36/55/42 39/56/43 41/57/44 38/58/45
f 38/58/45 41/57/44 40/59/46 37/60/47
f 17/51/40 231/37/31 232/39/18 18/53/4
f 233/61/48 42/62/49 44/63/50 234/64/51
f 42/62/49 45/65/52 47/66/53 44/63/50
f 44/63/50 47/66/53 46/67/54 43/68/55
f 48/69/56 51/70/57 53/71/58 50/72/59
f 50/72/59 53/71/58 52/73/60 49/74/61
f 54/75/62 34/76/63 35/77/64 56/78/65
f 56/78/65 35/77/64 33/79/66 55/80/67
f 33/79/66 37/60/47 40/59/46 235/81/68 43/68/55 46/67/54 49/74/61 52/73/60 55/80/67
f 234/64/51 44/63/50 43/68/55 235/81/68
f 10/82/69 11/83/69 59/17/13 57/16/12
f 12/84/69 13/85/69 61/9/6 60/8/5
f 14/86/69 15/87/69 63/27/23 62/26/22
f 16/88/69 9/89/69 58/21/17 64/20/16
f 9/90/70 16/91/71 72/92/72 65/93/73
f 15/94/74 14/95/75 70/96/76 71/97/77
f 13/98/78 12/99/1 68/100/79 69/101/80
f 11/102/7 10/103/81 66/104/82 67/105/8
f 237/13/9 67/12/8 83/106/83 238/107/84
f 65/108/73 72/109/72 88/110/85 82/111/86
f 71/112/77 70/113/76 86/114/87 87/115/88
f 69/116/80 68/117/79 84/118/89 85/119/90
f 67/12/8 66/120/82 81/121/91 83/106/83
f 74/122/69 75/123/69 83/124/69 81/125/69
f 68/117/79 237/13/9 238/107/84 84/118/89
f 76/126/69 77/127/69 85/128/69 84/129/69
f 78/130/69 79/131/69 87/132/69 86/133/69
f 80/134/69 73/135/69 82/136/69 88/137/69
f 239/138/2 75/139/7 99/140/7 240/141/2
f 73/142/70 80/143/71 104/144/71 98/145/70
f 79/146/74 78/147/75 102/148/75 103/149/74
f 77/150/78 76/151/1 100/152/1 101/153/78
f 75/154/7 74/155/81 97/156/81 99/157/7
f 90/158/69 91/159/69 99/160/69 97/161/69
f 76/162/1 239/138/2 240/141/2 100/163/1
f 92/164/69 93/165/69 101/166/69 100/167/69
f 94/168/69 95/169/69 103/170/69 102/171/69
f 96/172/69 89/173/69 98/174/69 104/175/69
f 177/176/92 179/177/92 167/178/92 168/179/92
f 110/180/69 111/181/69 151/182/69 150/183/69
f 180/184/92 181/185/92 161/186/92 162/187/92
f 182/188/92 183/189/92 163/190/92 164/191/92
f 108/192/69 109/193/69 149/194/69 148/195/69
f 184/196/92 178/197/92 165/198/92 166/199/92
f 177/200/93 215/201/94 214/202/94 169/203/93
f 241/204/69 92/164/69 100/167/69 240/205/69
f 106/206/69 107/207/69 147/208/69 146/209/69
f 179/210/95 176/211/95 205/212/96 208/213/96
f 181/214/97 174/215/97 197/216/98 200/217/98
f 112/218/69 105/219/69 145/220/69 152/221/69
f 105/222/70 112/223/71 128/224/71 122/225/70
f 111/226/74 110/227/75 126/228/75 127/229/74
f 109/230/78 108/231/1 124/232/1 125/233/78
f 107/234/7 106/235/81 121/236/81 123/237/7
f 114/238/69 115/239/69 123/240/69 121/241/69
f 116/242/69 117/243/69 125/244/69 124/245/69
f 118/246/69 119/247/69 127/248/69 126/249/69
f 120/250/69 113/251/69 122/252/69 128/253/69
f 130/254/69 129/255/69 136/256/69 135/257/69 134/258/69 133/259/69 132/260/69 131/261/69
f 113/262/70 120/263/71 136/264/71 129/265/70
f 119/266/74 118/267/75 134/268/75 135/269/74
f 117/270/78 116/271/1 132/272/1 133/273/78
f 115/274/7 114/275/81 130/276/81 131/277/7
f 224/278/70 220/279/71 143/280/71 144/281/70
f 227/282/99 224/278/70 144/281/70 225/283/99
f 244/284/2 219/285/7 142/286/7 242/287/2
f 248/288/100 218/289/78 140/290/78 246/291/100
f 252/292/101 217/293/74 138/294/74 250/295/101
f 219/296/7 223/297/81 141/298/81 142/299/7
f 218/289/78 222/300/1 139/301/1 140/290/78
f 217/302/74 221/303/75 137/304/75 138/305/74
f 162/306/74 161/307/75 158/308/75 159/309/74
f 164/310/78 163/311/1 156/312/1 157/313/78
f 166/314/7 165/315/81 153/316/81 155/317/7
f 179/177/92 208/318/102 204/319/92 167/178/92
f 181/185/92 200/320/103 196/321/92 161/186/92
f 183/189/92 192/322/104 188/323/92 163/190/92
f 178/197/92 216/324/105 212/325/92 165/198/92
f 168/326/70 167/327/71 160/328/71 154/329/70
f 165/315/81 212/330/99 209/331/99 153/316/81
f 170/332/69 171/333/69 155/199/69 153/334/69
f 163/335/1 188/336/2 185/337/2 156/338/1
f 172/339/69 173/340/69 157/341/69 156/342/69
f 161/307/75 196/343/100 193/344/100 158/308/75
f 174/345/69 175/346/69 159/347/69 158/348/69
f 167/349/71 204/350/101 201/351/101 160/352/71
f 176/353/69 169/354/69 154/355/69 160/356/69
f 177/200/93 169/203/93 176/357/95 179/358/95
f 175/346/69 206/359/69 202/360/69 159/347/69
f 181/214/97 180/361/106 175/362/106 174/215/97
f 169/354/69 214/363/69 210/364/69 154/355/69
f 171/365/107 170/366/108 178/367/108 184/368/107
f 171/333/69 190/369/69 186/370/69 155/199/69
f 173/371/109 172/372/110 183/373/110 182/374/109
f 173/340/69 198/375/69 194/376/69 157/341/69
f 141/377/69 146/209/69 147/208/69 142/378/69
f 143/379/69 152/221/69 145/220/69 144/380/69
f 137/381/69 150/183/69 151/182/69 138/382/69
f 139/383/69 148/195/69 149/194/69 140/384/69
f 190/385/111 171/386/107 184/387/107 191/388/111
f 245/389/112 244/390/112 191/391/104 192/322/104
f 189/392/69 172/339/69 156/342/69 185/393/69
f 190/369/69 189/392/69 185/393/69 186/370/69
f 187/394/2 166/395/7 155/396/7 186/397/2
f 188/336/2 187/394/2 186/397/2 185/337/2
f 191/391/104 184/196/92 166/199/92 187/398/92
f 192/322/104 191/391/104 187/398/92 188/323/92
f 199/399/98 198/400/98 173/371/109 182/374/109
f 249/401/113 248/402/113 199/403/103 200/320/103
f 197/404/69 174/345/69 158/348/69 193/405/69
f 198/375/69 197/404/69 193/405/69 194/376/69
f 195/406/100 164/310/78 157/313/78 194/407/100
f 196/343/100 195/406/100 194/407/100 193/344/100
f 199/403/103 182/188/92 164/191/92 195/408/92
f 200/320/103 199/403/103 195/408/92 196/321/92
f 207/409/96 206/210/96 175/410/106 180/411/106
f 253/412/114 252/413/114 207/414/102 208/318/102
f 205/415/69 176/353/69 160/356/69 201/416/69
f 206/359/69 205/415/69 201/416/69 202/360/69
f 203/417/101 162/418/74 159/419/74 202/420/101
f 204/350/101 203/417/101 202/420/101 201/351/101
f 207/414/102 180/184/92 162/187/92 203/421/92
f 208/318/102 207/414/102 203/421/92 204/319/92
f 216/422/94 178/367/108 170/366/108 213/423/94
f 228/424/115 227/425/115 215/426/105 216/324/105
f 213/427/69 170/332/69 153/334/69 209/428/69
f 214/363/69 213/427/69 209/428/69 210/364/69
f 211/429/99 168/326/70 154/329/70 210/430/99
f 212/330/99 211/429/99 210/430/99 209/331/99
f 215/426/105 177/176/92 168/179/92 211/431/92
f 216/324/105 215/426/105 211/431/92 212/325/92
f 172/432/110 189/433/111 192/434/111 183/435/110
f 95/436/74 94/437/75 221/438/75 217/439/74
f 93/440/78 92/441/1 222/442/1 218/443/78
f 91/444/7 90/445/81 223/446/81 219/447/7
f 241/2/2 91/448/7 219/449/7 244/3/2
f 89/450/70 96/451/71 220/452/71 224/453/70
f 90/445/81 89/450/70 224/453/70 227/454/99 228/455/99 223/446/81
f 145/220/69 146/209/69 141/377/69 226/456/69 225/457/69 144/380/69
f 223/297/81 228/458/99 226/459/99 141/298/81
f 226/460/116 228/461/116 216/462/116 213/463/116
f 113/251/69 114/238/69 121/241/69 122/252/69
f 106/235/81 105/464/70 122/465/70 121/236/81
f 114/275/81 113/466/70 129/467/70 130/276/81
f 105/219/69 106/206/69 146/209/69 145/220/69
f 89/173/69 90/158/69 97/161/69 98/174/69
f 74/155/81 73/142/70 98/145/70 97/156/81
f 73/135/69 74/122/69 81/125/69 82/136/69
f 66/104/82 65/108/73 82/111/86 81/468/91
f 10/103/81 9/469/70 65/108/73 66/104/82
f 9/89/69 10/82/69 57/16/12 58/21/17
f 35/77/64 38/58/45 37/60/47 33/79/66
f 34/76/63 36/55/42 38/58/45 35/77/64
f 25/470/37 32/43/35 31/45/14 26/471/11
f 2/472/36 1/40/32 32/43/35 25/470/37
f 26/15/11 31/18/14 58/21/17 57/16/12
f 227/473/117 225/474/117 214/475/117 215/476/117
f 225/457/69 226/456/69 213/427/69 214/363/69
f 147/208/69 148/195/69 139/383/69 243/477/69 242/478/69 142/378/69
f 222/479/1 245/480/2 243/481/2 139/482/1
f 243/483/118 245/484/118 192/485/118 189/486/118
f 116/487/1 115/488/7 131/489/7 132/490/1
f 115/239/69 116/242/69 124/245/69 123/240/69
f 108/491/1 107/492/7 123/493/7 124/494/1
f 107/207/69 108/192/69 148/195/69 147/208/69
f 91/159/69 241/204/69 240/205/69 99/160/69
f 239/495/69 76/126/69 84/129/69 238/496/69
f 75/123/69 239/495/69 238/496/69 83/124/69
f 236/497/69 12/84/69 60/8/5 230/23/19
f 11/83/69 236/497/69 230/23/19 59/17/13
f 41/57/44 234/64/51 235/81/68 40/59/46
f 39/56/43 233/61/48 234/64/51 41/57/44
f 4/50/39 229/34/28 231/37/31 17/51/40
f 18/7/4 232/22/18 230/23/19 60/8/5
f 12/498/1 236/10/2 237/13/9 68/117/79
f 244/499/119 242/500/119 190/501/119 191/502/119
f 242/478/69 243/477/69 189/392/69 190/369/69
f 94/437/75 93/440/78 218/443/78 248/503/100 249/504/100 221/438/75
f 149/194/69 150/183/69 137/381/69 247/505/69 246/506/69 140/384/69
f 221/303/75 249/507/100 247/508/100 137/304/75
f 247/509/120 249/510/120 200/511/120 197/512/120
f 118/267/75 117/270/78 133/273/78 134/268/75
f 117/243/69 118/246/69 126/249/69 125/244/69
f 110/227/75 109/230/78 125/233/78 126/228/75
f 109/193/69 110/180/69 150/183/69 149/194/69
f 93/165/69 94/168/69 102/171/69 101/166/69
f 78/147/75 77/150/78 101/153/78 102/148/75
f 77/127/69 78/130/69 86/133/69 85/128/69
f 70/96/76 69/101/80 85/513/90 86/514/87
f 14/95/75 13/98/78 69/101/80 70/96/76
f 13/85/69 14/86/69 62/26/22 61/9/6
f 47/66/53 50/72/59 49/74/61 46/67/54
f 45/65/52 48/69/56 50/72/59 47/66/53
f 30/515/26 20/516/41 19/517/3 29/518/21
f 6/519/25 5/520/38 20/516/41 30/515/26
f 29/25/21 19/6/3 61/9/6 62/26/22
f 248/521/121 246/522/121 198/523/121 199/524/121
f 246/506/69 247/505/69 197/404/69 198/375/69
f 96/525/71 95/526/74 217/527/74 252/528/101 253/529/101 220/530/71
f 151/182/69 152/221/69 143/379/69 251/531/69 250/532/69 138/382/69
f 220/533/71 253/534/101 251/535/101 143/536/71
f 251/537/122 253/538/122 208/539/122 205/540/122
f 120/263/71 119/541/74 135/542/74 136/264/71
f 119/247/69 120/250/69 128/253/69 127/248/69
f 111/181/69 112/218/69 152/221/69 151/182/69
f 112/223/71 111/543/74 127/544/74 128/224/71
f 95/169/69 96/172/69 104/175/69 103/170/69
f 79/131/69 80/134/69 88/137/69 87/132/69
f 80/545/71 79/546/74 103/547/74 104/548/71
f 16/91/71 15/549/74 71/112/77 72/92/72
f 72/92/72 71/112/77 87/115/88 88/550/85
f 15/87/69 16/88/69 64/20/16 63/27/23
f 53/71/58 56/78/65 55/80/67 52/73/60
f 51/70/57 54/75/62 56/78/65 53/71/58
f 24/551/34 21/31/27 22/33/20 23/552/15
f 8/553/33 7/28/24 21/31/27 24/551/34
f 23/19/15 22/24/20 63/27/23 64/20/16
f 252/554/123 250/460/123 206/463/123 207/555/123
f 250/532/69 251/531/69 205/415/69 206/359/69
f 258/556/124 260/557/125 262/558/126 259/559/127
f 259/559/127 262/558/126 261/560/128 257/561/129
f 264/562/130 266/563/131 268/564/132 265/565/133
f 265/565/133 268/564/132 267/566/134 263/567/135
f 270/568/136 272/569/137 274/570/138 271/571/139
f 271/571/139 274/570/138 273/572/140 269/573/141
f 276/574/142 254/575/143 256/576/144 277/577/145
f 277/577/145 256/576/144 255/578/146 275/579/147
f 254/580/143 258/556/124 259/559/127 256/581/144
f 256/581/144 259/559/127 257/561/129 255/582/146
f 260/583/125 278/584/148 280/585/149 262/586/126
f 262/586/126 280/585/149 279/587/150 261/588/128
f 278/584/148 264/589/130 265/590/133 280/585/149
f 280/585/149 265/590/133 263/591/135 279/587/150
f 266/563/131 270/568/136 271/571/139 268/564/132
f 268/564/132 271/571/139 269/573/141 267/566/134
f 272/592/137 276/574/142 277/577/145 274/593/138
f 274/593/138 277/577/145 275/579/147 273/594/140
f 1/595/32 2/596/36 258/556/124 254/580/143
f 276/574/142 8/597/33 1/598/32 254/575/143
f 275/579/147 255/578/146 34/599/63 54/600/62
f 255/582/146 257/561/129 36/601/42 34/602/63
f 258/556/124 2/596/36 3/603/29 260/557/125
f 257/561/129 261/560/128 39/604/43 36/601/42
f 261/588/128 279/587/150 233/605/48 39/606/43
f 260/583/125 3/607/29 229/608/28 278/584/148
f 278/584/148 229/608/28 4/609/39 264/589/130
f 264/562/130 4/610/39 5/611/38 266/563/131
f 263/567/135 267/566/134 45/612/52 42/613/49
f 279/587/150 263/591/135 42/614/49 233/605/48
f 267/566/134 269/573/141 48/615/56 45/612/52
f 5/611/38 6/616/25 270/568/136 266/563/131
f 270/568/136 6/616/25 7/617/24 272/569/137
f 269/573/141 273/572/140 51/618/57 48/615/56
f 273/594/140 275/579/147 54/600/62 51/619/57
f 7/620/24 8/597/33 276/574/142 272/592/137
