# Blender 5.0.0
# www.blender.org
mtllib box.mtl
o box
v -0.200000 0.000000 0.200000
v -0.200000 0.400000 0.200000
v -0.200000 0.000000 -0.200000
v -0.200000 0.400000 -0.200000
v 0.200000 0.000000 0.200000
v 0.200000 0.400000 0.200000
v 0.200000 0.000000 -0.200000
v 0.200000 0.400000 -0.200000
v -0.200000 0.030000 0.170000
v -0.200000 0.370000 0.170000
v -0.200000 0.370000 -0.170000
v -0.200000 0.030000 -0.170000
v -0.170000 0.030000 -0.200000
v -0.170000 0.370000 -0.200000
v 0.170000 0.370000 -0.200000
v 0.170000 0.030000 -0.200000
v 0.200000 0.030000 -0.170000
v 0.200000 0.370000 -0.170000
v 0.200000 0.370000 0.170000
v 0.200000 0.030000 0.170000
v 0.170000 0.030000 0.200000
v 0.170000 0.370000 0.200000
v -0.170000 0.370000 0.200000
v -0.170000 0.030000 0.200000
v -0.170000 0.000000 -0.170000
v 0.170000 0.000000 -0.170000
v 0.170000 0.000000 0.170000
v -0.170000 0.000000 0.170000
v 0.170000 0.400000 -0.170000
v -0.170000 0.400000 -0.170000
v -0.170000 0.400000 0.170000
v 0.170000 0.400000 0.170000
v -0.185000 0.030000 0.170000
v -0.185000 0.370000 0.170000
v -0.185000 0.030000 -0.170000
v -0.185000 0.370000 -0.170000
v -0.170000 0.370000 -0.185000
v -0.170000 0.030000 -0.185000
v 0.170000 0.030000 -0.185000
v 0.170000 0.370000 -0.185000
v 0.185000 0.370000 -0.170000
v 0.185000 0.030000 -0.170000
v 0.185000 0.030000 0.170000
v 0.185000 0.370000 0.170000
v 0.170000 0.370000 0.185000
v 0.170000 0.030000 0.185000
v -0.170000 0.030000 0.185000
v -0.170000 0.370000 0.185000
v 0.170000 0.015000 -0.170000
v -0.170000 0.015000 -0.170000
v -0.170000 0.015000 0.170000
v 0.170000 0.015000 0.170000
v -0.170000 0.385000 -0.170000
v 0.170000 0.385000 -0.170000
v 0.170000 0.385000 0.170000
v -0.170000 0.385000 0.170000
vn -1.0000 -0.0000 -0.0000
vn -0.0000 1.0000 -0.0000
vn -0.0000 -0.0000 1.0000
vn 1.0000 -0.0000 -0.0000
vn -0.0000 -0.0000 -1.0000
vn -0.0000 -1.0000 -0.0000
vt 0.891892 0.229730
vt 0.891892 0.000000
vt 0.902027 0.000000
vt 0.902027 0.229730
vt 0.820946 0.000000
vt 0.820946 0.229730
vt 0.810811 0.229730
vt 0.810811 0.000000
vt 0.912162 0.000000
vt 0.912162 0.229730
vt 0.922297 0.000000
vt 0.922297 0.229730
vt 0.922297 0.229730
vt 0.922297 0.000000
vt 0.932432 0.000000
vt 0.932432 0.229730
vt 0.942567 0.000000
vt 0.942567 0.229730
vt 0.270270 0.270270
vt 0.000000 0.270270
vt 0.020270 0.250000
vt 0.250000 0.250000
vt 0.000000 0.000000
vt 0.020270 0.020270
vt 0.270270 0.000000
vt 0.250000 0.020270
vt 0.270270 0.540541
vt 0.000000 0.540540
vt 0.020270 0.520270
vt 0.250000 0.520270
vt 0.000000 0.270270
vt 0.020270 0.290541
vt 0.270270 0.270270
vt 0.250000 0.290541
vt 0.540541 0.270270
vt 0.270270 0.270270
vt 0.290541 0.250000
vt 0.520270 0.250000
vt 0.270270 0.000000
vt 0.290541 0.020270
vt 0.540541 0.000000
vt 0.520270 0.020270
vt 0.540541 0.540541
vt 0.270270 0.540541
vt 0.290541 0.520270
vt 0.520270 0.520270
vt 0.290541 0.290541
vt 0.540541 0.270270
vt 0.520270 0.290541
vt 0.270270 0.810811
vt 0.250000 0.790541
vt 0.250000 0.560811
vt -0.000000 0.810811
vt 0.020270 0.790540
vt 0.000000 0.540541
vt 0.020270 0.560811
vt 0.810811 0.000000
vt 0.810811 0.270270
vt 0.790541 0.250000
vt 0.790541 0.020270
vt 0.540541 0.270270
vt 0.560811 0.250000
vt 0.540541 0.000000
vt 0.560811 0.020270
vt 0.500000 0.770270
vt 0.270270 0.770270
vt 0.500000 0.540541
vt 0.770270 0.500000
vt 0.540541 0.500000
vt 0.540541 0.270270
vt 0.770270 0.270270
vt 0.729730 0.770270
vt 0.500000 0.770270
vt 0.500000 0.540541
vt 0.729730 0.540541
vt 0.959459 0.770270
vt 0.729730 0.770270
vt 0.729730 0.540541
vt 0.959459 0.540541
vt 0.500000 1.000000
vt 0.270270 1.000000
vt 0.270270 0.770270
vt 1.000000 0.270270
vt 1.000000 0.500000
vt 0.770270 0.500000
vt 0.770270 0.270270
vt 0.952703 0.000000
vt 0.952703 0.229730
vt 0.962838 0.000000
vt 0.962838 0.229730
vt 0.861486 0.000000
vt 0.861486 0.229730
vt 0.851351 0.229730
vt 0.851351 0.000000
vt 0.831081 0.000000
vt 0.831081 0.229730
vt 0.820946 0.000000
vt 0.841216 0.000000
vt 0.841216 0.229730
vt 0.983108 0.229730
vt 0.983108 0.000000
vt 0.993243 0.000000
vt 0.993243 0.229730
vt 0.969595 0.540541
vt 0.969595 0.770270
vt 0.959459 0.770270
vt 0.959459 0.540541
vt 0.972973 0.000000
vt 0.972973 0.229730
vt 0.871622 -0.000000
vt 0.871622 0.229730
vt 0.861486 -0.000000
vt 0.979730 0.540541
vt 0.979730 0.770270
vt 0.841216 0.000000
vt 0.851351 0.000000
vt 0.500000 1.000000
vt 0.500000 0.770270
vt 0.510135 0.770270
vt 0.510135 1.000000
vt 0.983108 0.000000
vt 0.983108 0.229730
vt 0.881757 -0.000000
vt 0.881757 0.229730
vt 0.871622 -0.000000
vt 0.989865 0.540541
vt 0.989865 0.770270
vt 0.520270 0.770270
vt 0.520270 1.000000
vt 0.891892 -0.000000
vt 0.881757 -0.000000
vt 0.530405 0.770270
vt 0.530405 1.000000
s 0
usemtl box
f 21/1/1 22/2/1 45/3/1 46/4/1
f 16/5/2 13/6/2 38/7/2 39/8/2
f 17/4/3 18/3/3 41/9/3 42/10/3
f 12/10/2 9/9/2 33/11/2 35/12/2
f 13/13/4 14/14/4 37/15/4 38/16/4
f 9/16/5 10/15/5 34/17/5 33/18/5
f 1/19/1 2/20/1 10/21/1 9/22/1
f 2/20/1 4/23/1 11/24/1 10/21/1
f 4/23/1 3/25/1 12/26/1 11/24/1
f 3/25/1 1/19/1 9/22/1 12/26/1
f 3/27/5 4/28/5 14/29/5 13/30/5
f 4/28/5 8/31/5 15/32/5 14/29/5
f 8/31/5 7/33/5 16/34/5 15/32/5
f 7/33/5 3/27/5 13/30/5 16/34/5
f 7/35/4 8/36/4 18/37/4 17/38/4
f 8/36/4 6/39/4 19/40/4 18/37/4
f 6/39/4 5/41/4 20/42/4 19/40/4
f 5/41/4 7/35/4 17/38/4 20/42/4
f 5/43/3 6/44/3 22/45/3 21/46/3
f 6/44/3 2/33/3 23/47/3 22/45/3
f 2/33/3 1/48/3 24/49/3 23/47/3
f 1/48/3 5/43/3 21/46/3 24/49/3
f 3/27/6 7/50/6 26/51/6 25/52/6
f 7/50/6 5/53/6 27/54/6 26/51/6
f 5/53/6 1/55/6 28/56/6 27/54/6
f 1/55/6 3/27/6 25/52/6 28/56/6
f 8/57/2 4/58/2 30/59/2 29/60/2
f 4/58/2 2/61/2 31/62/2 30/59/2
f 2/61/2 6/63/2 32/64/2 31/62/2
f 6/63/2 8/57/2 29/60/2 32/64/2
f 33/65/1 34/66/1 36/44/1 35/67/1
f 38/68/5 37/69/5 40/70/5 39/71/5
f 42/72/4 41/73/4 44/74/4 43/75/4
f 46/76/3 45/77/3 48/78/3 47/79/3
f 50/73/6 49/80/6 52/81/6 51/82/6
f 54/83/2 53/84/2 56/85/2 55/86/2
f 10/87/6 11/88/6 36/18/6 34/17/6
f 20/89/2 17/90/2 42/88/2 43/87/2
f 25/91/3 26/92/3 49/93/3 50/94/3
f 14/95/6 15/96/6 40/6/6 37/97/6
f 24/96/2 21/95/2 46/98/2 47/99/2
f 29/100/3 30/101/3 53/102/3 54/103/3
f 11/104/3 12/105/3 35/106/3 36/107/3
f 18/90/6 19/89/6 44/108/6 41/109/6
f 28/110/4 25/111/4 50/92/4 51/112/4
f 15/113/1 16/114/1 39/105/1 40/104/1
f 22/99/6 23/115/6 48/116/6 45/93/6
f 32/117/1 29/118/1 54/119/1 55/120/1
f 19/121/5 20/122/5 43/109/5 44/108/5
f 26/123/1 27/124/1 52/111/1 49/125/1
f 23/126/4 24/127/4 47/114/4 48/113/4
f 30/120/4 31/119/4 56/128/4 53/129/4
f 27/130/5 28/1/5 51/124/5 52/131/5
f 31/129/5 32/128/5 55/132/5 56/133/5
