# Blender 5.0.0
# www.blender.org
mtllib board.mtl
o board
v 0.187500 0.020000 -0.037500
v 0.187500 0.070000 -0.037500
v 0.262500 0.020000 -0.037500
v 0.262500 0.070000 -0.037500
v 0.187500 0.020000 0.037500
v 0.187500 0.070000 0.037500
v 0.262500 0.020000 0.037500
v 0.262500 0.070000 0.037500
v 0.048989 0.070000 -0.375000
v 0.048989 0.090000 -0.375000
v 0.048989 0.070000 0.375000
v 0.048989 0.090000 0.375000
v -0.051489 0.070000 -0.375000
v -0.051489 0.090000 -0.375000
v -0.051489 0.070000 0.375000
v -0.051489 0.090000 0.375000
v 0.262506 0.070000 -0.375000
v 0.262506 0.090000 -0.375000
v 0.262506 0.070000 0.375000
v 0.262506 0.090000 0.375000
v 0.162027 0.070000 -0.375000
v 0.162027 0.090000 -0.375000
v 0.162027 0.070000 0.375000
v 0.162027 0.090000 0.375000
v 0.154491 0.070000 -0.375000
v 0.154491 0.090000 -0.375000
v 0.154492 0.070000 0.375000
v 0.154492 0.090000 0.375000
v 0.054013 0.070000 -0.375000
v 0.054013 0.090000 -0.375000
v 0.054013 0.070000 0.375000
v 0.054013 0.090000 0.375000
v -0.056513 0.070000 -0.375000
v -0.056513 0.090000 -0.375000
v -0.056513 0.070000 0.375000
v -0.056513 0.090000 0.375000
v -0.156992 0.070000 -0.375000
v -0.156992 0.090000 -0.375000
v -0.156992 0.070000 0.375000
v -0.156992 0.090000 0.375000
v -0.162016 0.070000 -0.375000
v -0.162016 0.090000 -0.375000
v -0.162016 0.070000 0.375000
v -0.162016 0.090000 0.375000
v -0.262494 0.070000 -0.375000
v -0.262494 0.090000 -0.375000
v -0.262494 0.070000 0.375000
v -0.262494 0.090000 0.375000
v -0.262500 0.000000 -0.037500
v -0.262500 0.020000 -0.037500
v 0.262500 0.000000 -0.037500
v 0.262500 0.020000 -0.037500
v -0.262500 0.000000 0.037500
v -0.262500 0.020000 0.037500
v 0.262500 0.000000 0.037500
v 0.262500 0.020000 0.037500
v -0.262500 -0.000000 0.300000
v -0.262500 0.020000 0.300000
v 0.262500 -0.000000 0.300000
v 0.262500 0.020000 0.300000
v -0.262500 -0.000000 0.375000
v -0.262500 0.020000 0.375000
v 0.262500 0.000000 0.375000
v 0.262500 0.020000 0.375000
v -0.262500 0.000000 -0.375000
v -0.262500 0.020000 -0.375000
v 0.262500 0.000000 -0.375000
v 0.262500 0.020000 -0.375000
v -0.262500 0.000000 -0.300000
v -0.262500 0.020000 -0.300000
v 0.262500 0.000000 -0.300000
v 0.262500 0.020000 -0.300000
v -0.262500 0.020000 -0.037500
v -0.262500 0.070000 -0.037500
v -0.187500 0.020000 -0.037500
v -0.187500 0.070000 -0.037500
v -0.262500 0.020000 0.037500
v -0.262500 0.070000 0.037500
v -0.187500 0.020000 0.037500
v -0.187500 0.070000 0.037500
v -0.262500 0.020000 -0.375000
v -0.262500 0.070000 -0.375000
v -0.187500 0.020000 -0.375000
v -0.187500 0.070000 -0.375000
v -0.262500 0.020000 -0.300000
v -0.262500 0.070000 -0.300000
v -0.187500 0.020000 -0.300000
v -0.187500 0.070000 -0.300000
v -0.262500 0.020000 0.300000
v -0.262500 0.070000 0.300000
v -0.187500 0.020000 0.300000
v -0.187500 0.070000 0.300000
v -0.262500 0.020000 0.375000
v -0.262500 0.070000 0.375000
v -0.187500 0.020000 0.375000
v -0.187500 0.070000 0.375000
v 0.187500 0.020000 -0.375000
v 0.187500 0.070000 -0.375000
v 0.262500 0.020000 -0.375000
v 0.262500 0.070000 -0.375000
v 0.187500 0.020000 -0.300000
v 0.187500 0.070000 -0.300000
v 0.262500 0.020000 -0.300000
v 0.262500 0.070000 -0.300000
v 0.187500 0.020000 0.300000
v 0.187500 0.070000 0.300000
v 0.262500 0.020000 0.300000
v 0.262500 0.070000 0.300000
v 0.187500 0.020000 0.375000
v 0.187500 0.070000 0.375000
v 0.262500 0.020000 0.375000
v 0.262500 0.070000 0.375000
vn -0.0000 -0.0000 -1.0000
vn 1.0000 -0.0000 -0.0000
vn -0.0000 -0.0000 1.0000
vn -1.0000 -0.0000 -0.0000
vn -0.0000 -1.0000 -0.0000
vn -0.0000 1.0000 -0.0000
vt 0.647954 0.577009
vt 0.612984 0.577009
vt 0.612984 0.524554
vt 0.647954 0.524554
vt 0.123400 0.681920
vt 0.088430 0.681920
vt 0.088430 0.629465
vt 0.123400 0.629465
vt 0.630469 0.629465
vt 0.595499 0.629465
vt 0.595499 0.577009
vt 0.630469 0.577009
vt 0.245796 0.681920
vt 0.210826 0.681920
vt 0.210826 0.629465
vt 0.245796 0.629465
vt 0.420647 0.524554
vt 0.473103 0.524554
vt 0.473103 0.577009
vt 0.420647 0.577009
vt 0.525558 0.577009
vt 0.473103 0.577009
vt 0.473103 0.524554
vt 0.525558 0.524554
vt 1.000000 0.524554
vt 0.986012 0.524554
vt 0.986012 -0.000000
vt 1.000000 -0.000000
vt 0.623475 0.699740
vt 0.609487 0.699740
vt 0.609487 0.629465
vt 0.623475 0.629465
vt 0.986012 0.524554
vt 0.972024 0.524554
vt 0.972024 0.000000
vt 0.986012 0.000000
vt 0.693416 0.647285
vt 0.679427 0.647285
vt 0.679427 0.577009
vt 0.693416 0.577009
vt 0.140550 -0.000000
vt 0.210826 -0.000000
vt 0.210826 0.524554
vt 0.140550 0.524554
vt 0.351376 -0.000000
vt 0.421651 -0.000000
vt 0.421651 0.524554
vt 0.351376 0.524554
vt 0.874106 0.524554
vt 0.860118 0.524554
vt 0.860118 0.000000
vt 0.874106 0.000000
vt 0.679427 0.647285
vt 0.665439 0.647285
vt 0.665439 0.577009
vt 0.679427 0.577009
vt 0.888094 0.524554
vt 0.874106 0.524554
vt 0.874106 0.000000
vt 0.888094 0.000000
vt 0.585008 0.699740
vt 0.571020 0.699740
vt 0.571020 0.629465
vt 0.585008 0.629465
vt 0.000000 0.000000
vt 0.070275 0.000000
vt 0.070275 0.524554
vt 0.000000 0.524554
vt 0.070275 0.000000
vt 0.140550 0.000000
vt 0.140550 0.524554
vt 0.070275 0.524554
vt 0.902083 0.524554
vt 0.888095 0.524554
vt 0.888095 0.000000
vt 0.902083 0.000000
vt 0.210826 0.699740
vt 0.196837 0.699740
vt 0.196837 0.629465
vt 0.210826 0.629465
vt 0.916071 0.524554
vt 0.902083 0.524554
vt 0.902083 0.000000
vt 0.916071 0.000000
vt 0.469606 0.699740
vt 0.455618 0.699740
vt 0.455618 0.629465
vt 0.469606 0.629465
vt 0.210826 -0.000000
vt 0.281101 0.000000
vt 0.281101 0.524554
vt 0.210826 0.524554
vt 0.281101 -0.000000
vt 0.351376 -0.000000
vt 0.351376 0.524554
vt 0.930059 0.524554
vt 0.916071 0.524554
vt 0.916071 -0.000000
vt 0.930059 -0.000000
vt 0.571020 0.699740
vt 0.557031 0.699740
vt 0.557031 0.629465
vt 0.571020 0.629465
vt 0.944047 0.524554
vt 0.930059 0.524554
vt 0.930059 -0.000000
vt 0.944047 -0.000000
vt 0.609487 0.699740
vt 0.595499 0.699740
vt 0.595499 0.629465
vt 0.609487 0.629465
vt 0.421651 0.000000
vt 0.491926 0.000000
vt 0.491926 0.524554
vt 0.421651 0.524554
vt 0.491926 0.000000
vt 0.562201 -0.000000
vt 0.562201 0.524554
vt 0.491926 0.524554
vt 0.958035 0.524554
vt 0.944047 0.524554
vt 0.944047 -0.000000
vt 0.958035 -0.000000
vt 0.665439 0.699740
vt 0.651451 0.699740
vt 0.651451 0.629465
vt 0.665439 0.629465
vt 0.972024 0.524554
vt 0.958035 0.524554
vt 0.958035 -0.000000
vt 0.972024 -0.000000
vt 0.557031 0.699740
vt 0.543043 0.699740
vt 0.543043 0.629465
vt 0.557031 0.629465
vt 0.562201 0.000000
vt 0.632477 0.000000
vt 0.632477 0.524554
vt 0.562201 0.524554
vt 0.632477 0.000000
vt 0.702752 -0.000000
vt 0.702752 0.524554
vt 0.632477 0.524554
vt 0.055953 0.891742
vt 0.041964 0.891742
vt 0.041964 0.524554
vt 0.055953 0.524554
vt 0.158370 0.629465
vt 0.144382 0.629465
vt 0.144382 0.577009
vt 0.158370 0.577009
vt 0.041964 0.891742
vt 0.027976 0.891742
vt 0.027976 0.524554
vt 0.041964 0.524554
vt 0.315736 0.629465
vt 0.301748 0.629465
vt 0.301748 0.577009
vt 0.315736 0.577009
vt 0.755207 -0.000000
vt 0.807663 -0.000000
vt 0.807663 0.367188
vt 0.755207 0.367188
vt 0.860118 0.367188
vt 0.807663 0.367188
vt 0.807663 0.000000
vt 0.860118 -0.000000
vt 0.013988 0.524554
vt 0.027976 0.524554
vt 0.027976 0.891742
vt 0.013988 0.891742
vt 0.354204 0.577009
vt 0.368192 0.577009
vt 0.368192 0.629465
vt 0.354204 0.629465
vt 0.013988 0.891742
vt 0.000000 0.891742
vt 0.000000 0.524554
vt 0.013988 0.524554
vt 0.196837 0.524554
vt 0.210826 0.524554
vt 0.210826 0.577009
vt 0.196837 0.577009
vt 0.755207 0.367188
vt 0.702752 0.367188
vt 0.702752 -0.000000
vt 0.755207 -0.000000
vt 0.755207 0.734376
vt 0.702752 0.734376
vt 0.702752 0.367188
vt 0.755207 0.367188
vt 0.083929 0.891742
vt 0.069941 0.891742
vt 0.069941 0.524554
vt 0.083929 0.524554
vt 0.661942 0.577009
vt 0.647954 0.577009
vt 0.647954 0.524554
vt 0.661942 0.524554
vt 0.069941 0.891742
vt 0.055953 0.891742
vt 0.055953 0.524554
vt 0.069941 0.524554
vt 0.525558 0.629465
vt 0.511570 0.629465
vt 0.511570 0.577009
vt 0.525558 0.577009
vt 0.755207 0.367188
vt 0.807663 0.367188
vt 0.807663 0.734376
vt 0.860118 0.734376
vt 0.807663 0.734376
vt 0.860118 0.367188
vt 0.385677 0.681920
vt 0.350707 0.681920
vt 0.350707 0.629465
vt 0.385677 0.629465
vt 0.508073 0.629465
vt 0.473103 0.629465
vt 0.508073 0.577009
vt 0.455618 0.681920
vt 0.420647 0.681920
vt 0.420647 0.629465
vt 0.455618 0.629465
vt 0.560528 0.629465
vt 0.525558 0.629465
vt 0.525558 0.577009
vt 0.560528 0.577009
vt 0.578013 0.524554
vt 0.578013 0.577009
vt 0.136384 0.577009
vt 0.136384 0.629465
vt 0.083929 0.629465
vt 0.083929 0.577009
vt 0.158370 0.681920
vt 0.123400 0.681920
vt 0.123400 0.629465
vt 0.158370 0.629465
vt 0.508073 0.681920
vt 0.473103 0.681920
vt 0.473103 0.629465
vt 0.508073 0.629465
vt 0.280766 0.681920
vt 0.245796 0.681920
vt 0.245796 0.629465
vt 0.280766 0.629465
vt 0.263281 0.629465
vt 0.210826 0.629465
vt 0.210826 0.577009
vt 0.263281 0.577009
vt 0.263281 0.524554
vt 0.315736 0.524554
vt 0.315736 0.577009
vt 0.263281 0.577009
vt 0.350707 0.629465
vt 0.315736 0.629465
vt 0.350707 0.577009
vt 0.578013 0.524554
vt 0.612984 0.524554
vt 0.612984 0.577009
vt 0.543043 0.681920
vt 0.508073 0.681920
vt 0.508073 0.629465
vt 0.543043 0.629465
vt 0.263281 0.577009
vt 0.298251 0.577009
vt 0.298251 0.629465
vt 0.263281 0.629465
vt 0.263281 0.524554
vt 0.263281 0.577009
vt 0.368192 0.524554
vt 0.368192 0.577009
vt 0.350707 0.681920
vt 0.315736 0.681920
vt 0.315736 0.629465
vt 0.350707 0.629465
vt 0.438132 0.629465
vt 0.438132 0.577009
vt 0.438132 0.629465
vt 0.403162 0.629465
vt 0.403162 0.577009
vt 0.315736 0.681920
vt 0.315736 0.629465
vt 0.420647 0.577009
vt 0.368192 0.577009
vt 0.368192 0.524554
vt 0.420647 0.524554
vt 0.083929 0.524554
vt 0.136384 0.524554
vt 0.136384 0.577009
vt 0.083929 0.577009
vt 0.420647 0.681920
vt 0.385677 0.681920
vt 0.385677 0.629465
vt 0.420647 0.629465
vt 0.665439 0.577009
vt 0.665439 0.629465
vt 0.368192 0.629465
vt 0.368192 0.577009
vt 0.193340 0.629465
vt 0.193340 0.681920
vt 0.188840 0.577009
vt 0.136384 0.577009
vt 0.136384 0.524554
vt 0.188840 0.524554
vt 0.158370 0.577009
vt 0.210826 0.577009
vt 0.210826 0.629465
vt 0.158370 0.629465
s 0
usemtl wood_1
f 1/1/1 2/2/1 4/3/1 3/4/1
f 3/5/2 4/6/2 8/7/2 7/8/2
f 7/9/3 8/10/3 6/11/3 5/12/3
f 5/13/4 6/14/4 2/15/4 1/16/4
f 3/17/5 7/18/5 5/19/5 1/20/5
f 8/21/6 4/22/6 2/23/6 6/24/6
f 9/25/2 10/26/2 12/27/2 11/28/2
f 11/29/3 12/30/3 16/31/3 15/32/3
f 15/33/4 16/34/4 14/35/4 13/36/4
f 13/37/1 14/38/1 10/39/1 9/40/1
f 11/41/5 15/42/5 13/43/5 9/44/5
f 16/45/6 12/46/6 10/47/6 14/48/6
f 17/49/2 18/50/2 20/51/2 19/52/2
f 19/53/3 20/54/3 24/55/3 23/56/3
f 23/57/4 24/58/4 22/59/4 21/60/4
f 21/61/1 22/62/1 18/63/1 17/64/1
f 19/65/5 23/66/5 21/67/5 17/68/5
f 24/69/6 20/70/6 18/71/6 22/72/6
f 25/73/2 26/74/2 28/75/2 27/76/2
f 27/77/3 28/78/3 32/79/3 31/80/3
f 31/81/4 32/82/4 30/83/4 29/84/4
f 29/85/1 30/86/1 26/87/1 25/88/1
f 27/89/5 31/90/5 29/91/5 25/92/5
f 32/93/6 28/94/6 26/95/6 30/91/6
f 33/96/2 34/97/2 36/98/2 35/99/2
f 35/100/3 36/101/3 40/102/3 39/103/3
f 39/104/4 40/105/4 38/106/4 37/107/4
f 37/108/1 38/109/1 34/110/1 33/111/1
f 35/112/5 39/113/5 37/114/5 33/115/5
f 40/116/6 36/117/6 34/118/6 38/119/6
f 41/120/2 42/121/2 44/122/2 43/123/2
f 43/124/3 44/125/3 48/126/3 47/127/3
f 47/128/4 48/129/4 46/130/4 45/131/4
f 45/132/1 46/133/1 42/134/1 41/135/1
f 43/136/5 47/137/5 45/138/5 41/139/5
f 48/140/6 44/141/6 42/142/6 46/143/6
f 49/144/1 50/145/1 52/146/1 51/147/1
f 51/148/2 52/149/2 56/150/2 55/151/2
f 55/152/3 56/153/3 54/154/3 53/155/3
f 53/156/4 54/157/4 50/158/4 49/159/4
f 51/160/5 55/161/5 53/162/5 49/163/5
f 56/164/6 52/165/6 50/166/6 54/167/6
f 57/168/1 58/169/1 60/170/1 59/171/1
f 59/172/2 60/173/2 64/174/2 63/175/2
f 63/176/3 64/177/3 62/178/3 61/179/3
f 61/180/4 62/181/4 58/182/4 57/183/4
f 59/184/5 63/185/5 61/186/5 57/187/5
f 64/188/6 60/189/6 58/190/6 62/191/6
f 65/192/1 66/193/1 68/194/1 67/195/1
f 67/196/2 68/197/2 72/198/2 71/199/2
f 71/200/3 72/201/3 70/202/3 69/203/3
f 69/204/4 70/205/4 66/206/4 65/207/4
f 67/208/5 71/209/5 69/210/5 65/188/5
f 72/211/6 68/212/6 66/165/6 70/213/6
f 73/214/1 74/215/1 76/216/1 75/217/1
f 75/218/2 76/219/2 80/19/2 79/220/2
f 79/221/3 80/222/3 78/223/3 77/224/3
f 77/225/4 78/226/4 74/227/4 73/228/4
f 75/21/5 79/24/5 77/229/5 73/230/5
f 80/231/6 76/232/6 74/233/6 78/234/6
f 81/10/1 82/225/1 84/228/1 83/11/1
f 83/235/2 84/236/2 88/237/2 87/238/2
f 87/239/3 88/240/3 86/241/3 85/242/3
f 85/243/4 86/244/4 82/245/4 81/246/4
f 83/247/5 87/248/5 85/249/5 81/250/5
f 88/251/6 84/252/6 82/253/6 86/254/6
f 89/255/1 90/256/1 92/253/1 91/257/1
f 91/258/2 92/259/2 96/260/2 95/230/2
f 95/261/3 96/262/3 94/263/3 93/264/3
f 93/265/4 94/266/4 90/267/4 89/268/4
f 91/182/5 95/181/5 93/269/5 89/270/5
f 96/252/6 92/271/6 90/272/6 94/253/6
f 97/273/1 98/274/1 100/275/1 99/276/1
f 99/219/2 100/277/2 104/278/2 103/19/2
f 103/279/3 104/280/3 102/281/3 101/278/3
f 101/282/4 102/243/4 98/246/4 97/283/4
f 99/284/5 103/285/5 101/286/5 97/287/5
f 104/288/6 100/289/6 98/290/6 102/291/6
f 105/292/1 106/293/1 108/294/1 107/295/1
f 107/12/2 108/296/2 112/297/2 111/9/2
f 111/280/3 112/298/3 110/299/3 109/281/3
f 109/238/4 110/300/4 106/301/4 105/235/4
f 107/302/5 111/303/5 109/304/5 105/305/5
f 112/306/6 108/307/6 106/308/6 110/309/6
