# Blender 5.0.0
# www.blender.org
mtllib blue_tile.mtl
o blue_tile
v -0.025000 0.000000 0.500000
v -0.025000 1.800000 0.500000
v -0.025000 0.000000 -0.500000
v -0.025000 1.800000 -0.500000
v 0.025000 0.000000 0.500000
v 0.025000 1.800000 0.500000
v 0.025000 0.000000 -0.500000
v 0.025000 1.800000 -0.500000
vn -1.0000 -0.0000 -0.0000
vn -0.0000 -0.0000 -1.0000
vn 1.0000 -0.0000 -0.0000
vn -0.0000 -0.0000 1.0000
vn -0.0000 -1.0000 -0.0000
vn -0.0000 1.0000 -0.0000
vt 0.000000 0.837209
vt 0.000000 0.000000
vt 0.465116 0.000000
vt 0.465116 0.837209
vt 0.930233 0.837209
vt 0.930233 0.000000
vt 0.953489 0.000000
vt 0.953489 0.837209
vt 0.930233 0.000000
vt 0.930233 0.837209
vt 0.953488 0.837209
vt 0.953488 0.000000
vt 0.976744 0.000000
vt 0.976744 0.837209
vt 1.000000 0.465116
vt 0.976744 0.465116
vt 1.000000 0.000000
vt 1.000000 0.930233
vt 0.976744 0.930233
s 0
usemtl Blue_tiles
f 1/1/1 2/2/1 4/3/1 3/4/1
f 3/5/2 4/6/2 8/7/2 7/8/2
f 7/4/3 8/3/3 6/9/3 5/10/3
f 5/11/4 6/12/4 2/13/4 1/14/4
f 3/15/5 7/16/5 5/13/5 1/17/5
f 8/18/6 4/19/6 2/16/6 6/15/6
