# Blender 5.0.0
# www.blender.org
mtllib workbench.mtl
o workbench
v -0.435000 0.000000 -0.765000
v -0.435000 0.700000 -0.765000
v -0.435000 0.000000 -0.835000
v -0.435000 0.700000 -0.835000
v -0.365000 0.000000 -0.765000
v -0.365000 0.700000 -0.765000
v -0.365000 0.000000 -0.835000
v -0.365000 0.700000 -0.835000
v -0.500000 0.700000 1.000000
v -0.500000 0.780000 1.000000
v -0.500000 0.700000 -1.000000
v -0.500000 0.780000 -1.000000
v 0.500000 0.700000 1.000000
v 0.500000 0.780000 1.000000
v 0.500000 0.700000 -1.000000
v 0.500000 0.780000 -1.000000
v -0.500000 0.810000 1.000000
v -0.500000 0.810000 -1.000000
v 0.500000 0.810000 -1.000000
v 0.500000 0.810000 1.000000
v 0.580000 0.780000 -1.000000
v 0.580000 0.780000 1.000000
v 0.580000 0.810000 -1.000000
v 0.580000 0.810000 1.000000
v -0.475000 0.700000 -1.000000
v -0.475000 0.780000 -1.000000
v -0.475000 0.700000 1.000000
v -0.475000 0.780000 1.000000
v -0.475000 0.810000 -1.000000
v -0.475000 0.810000 1.000000
v -0.500000 1.610000 1.000000
v -0.500000 1.610000 -1.000000
v -0.475000 1.610000 1.000000
v -0.475000 1.610000 -1.000000
v 0.365000 0.000000 0.835000
v 0.365000 0.700000 0.835000
v 0.365000 0.000000 0.765000
v 0.365000 0.700000 0.765000
v 0.435000 0.000000 0.835000
v 0.435000 0.700000 0.835000
v 0.435000 0.000000 0.765000
v 0.435000 0.700000 0.765000
v -0.387500 0.140000 0.800000
v -0.387500 0.160000 0.800000
v -0.387500 0.140000 -0.800000
v -0.387500 0.160000 -0.800000
v 0.412500 0.140000 0.800000
v 0.412500 0.160000 0.800000
v 0.412500 0.140000 -0.800000
v 0.412500 0.160000 -0.800000
v -0.435000 0.000000 0.835000
v -0.435000 0.700000 0.835000
v -0.435000 0.000000 0.765000
v -0.435000 0.700000 0.765000
v -0.365000 0.000000 0.835000
v -0.365000 0.700000 0.835000
v -0.365000 0.000000 0.765000
v -0.365000 0.700000 0.765000
v 0.365000 0.000000 -0.765000
v 0.365000 0.700000 -0.765000
v 0.365000 0.000000 -0.835000
v 0.365000 0.700000 -0.835000
v 0.435000 0.000000 -0.765000
v 0.435000 0.700000 -0.765000
v 0.435000 0.000000 -0.835000
v 0.435000 0.700000 -0.835000
v -0.387500 0.440000 0.800000
v -0.387500 0.460000 0.800000
v -0.387500 0.440000 -0.800000
v -0.387500 0.460000 -0.800000
v 0.412500 0.440000 0.800000
v 0.412500 0.460000 0.800000
v 0.412500 0.440000 -0.800000
v 0.412500 0.460000 -0.800000
vn -1.0000 -0.0000 -0.0000
vn -0.0000 -0.0000 -1.0000
vn 1.0000 -0.0000 -0.0000
vn -0.0000 -0.0000 1.0000
vn -0.0000 -1.0000 -0.0000
vn -0.0000 1.0000 -0.0000
vt 0.393896 0.160923
vt 0.393896 0.003423
vt 0.409646 0.003423
vt 0.409646 0.160923
vt 0.393896 0.318423
vt 0.393896 0.160923
vt 0.409646 0.160923
vt 0.409646 0.318423
vt 0.425396 0.003423
vt 0.425396 0.160923
vt 0.425396 0.160923
vt 0.425396 0.318423
vt 0.425396 0.412923
vt 0.425396 0.428673
vt 0.409646 0.428673
vt 0.409646 0.412923
vt 0.425396 0.428673
vt 0.425396 0.444423
vt 0.409646 0.444423
vt 0.409646 0.428673
vt 0.427224 0.284673
vt 0.415974 0.284673
vt 0.415974 0.003423
vt 0.427224 0.003423
vt 0.299396 0.222798
vt 0.281396 0.222798
vt 0.281396 0.003423
vt 0.299396 0.003423
vt 0.275593 0.453949
vt 0.257592 0.453949
vt 0.257593 0.003949
vt 0.275593 0.003949
vt 0.299396 0.234048
vt 0.281396 0.234048
vt 0.281396 0.228423
vt 0.299396 0.228423
vt 0.243696 0.457463
vt 0.024321 0.457463
vt 0.024321 0.007463
vt 0.243696 0.007463
vt 0.729406 0.683593
vt 0.729406 0.371093
vt 0.741906 0.371093
vt 0.741906 0.683593
vt 0.232899 0.486624
vt 0.232899 0.986624
vt 0.032899 0.986624
vt 0.032899 0.486624
vt 0.724718 0.683593
vt 0.724718 0.371093
vt 0.729406 0.683593
vt 0.715343 0.679686
vt 0.715343 0.527343
vt 0.720031 0.527343
vt 0.720031 0.679686
vt 0.715343 0.349999
vt 0.715343 0.346093
vt 0.720031 0.346093
vt 0.720031 0.349999
vt 0.720031 0.683593
vt 0.720031 0.371093
vt 0.715343 0.514843
vt 0.720031 0.514843
vt 0.715343 0.502343
vt 0.720031 0.502343
vt 0.731638 0.998796
vt 0.731638 0.686296
vt 0.744138 0.686296
vt 0.744138 0.998796
vt 0.715343 0.683593
vt 0.579294 0.998796
vt 0.579294 0.686296
vt 0.249321 0.457463
vt 0.249321 0.007463
vt 0.299396 0.453423
vt 0.281396 0.453423
vt 0.439149 0.986624
vt 0.432899 0.986624
vt 0.432899 0.486624
vt 0.439149 0.486624
vt 0.432899 0.486624
vt 0.432899 0.986624
vt 0.232899 0.486624
vt 0.455475 0.783511
vt 0.449225 0.783511
vt 0.449225 0.583511
vt 0.455475 0.583511
vt 0.455475 0.983511
vt 0.449225 0.983511
vt 0.455475 0.783511
vt 0.330896 0.160923
vt 0.330896 0.003423
vt 0.346646 0.003423
vt 0.346646 0.160923
vt 0.330896 0.318423
vt 0.330896 0.160923
vt 0.346646 0.160923
vt 0.346646 0.318423
vt 0.346646 0.160923
vt 0.346646 0.003423
vt 0.362396 0.003423
vt 0.362396 0.160923
vt 0.346646 0.318423
vt 0.346646 0.160923
vt 0.362396 0.160923
vt 0.362396 0.318423
vt 0.425396 0.349923
vt 0.425396 0.365673
vt 0.409646 0.365673
vt 0.409646 0.349923
vt 0.425396 0.365673
vt 0.425396 0.381423
vt 0.409646 0.381423
vt 0.409646 0.365673
vt 0.712218 0.433593
vt 0.715343 0.433593
vt 0.712218 0.683593
vt 0.689156 0.683931
vt 0.686031 0.683931
vt 0.686031 0.558931
vt 0.689156 0.558931
vt 0.709093 0.433593
vt 0.709093 0.683593
vt 0.692281 0.683931
vt 0.692281 0.558931
vt 0.870061 0.748618
vt 0.745061 0.748618
vt 0.745061 0.498618
vt 0.870061 0.498618
vt 0.995061 0.748618
vt 0.995061 0.498618
vt 0.378146 0.003423
vt 0.378146 0.160923
vt 0.378146 0.160923
vt 0.378146 0.318423
vt 0.393896 0.003423
vt 0.393896 0.160923
vt 0.393896 0.160923
vt 0.393896 0.318423
vt 0.425396 0.397173
vt 0.409646 0.397173
vt 0.425396 0.397173
vt 0.425396 0.412923
vt 0.409646 0.412923
vt 0.409646 0.397173
vt 0.299396 0.160923
vt 0.315146 0.003423
vt 0.315146 0.160923
vt 0.299396 0.318423
vt 0.299396 0.160923
vt 0.315146 0.160923
vt 0.315146 0.318423
vt 0.425396 0.318423
vt 0.425396 0.334173
vt 0.409646 0.334173
vt 0.409646 0.318423
vt 0.425396 0.334173
vt 0.425396 0.349923
vt 0.409646 0.349923
vt 0.409646 0.334173
vt 0.705968 0.433593
vt 0.705968 0.683593
vt 0.695406 0.683931
vt 0.695406 0.558931
vt 0.702843 0.433593
vt 0.702843 0.683593
vt 0.698531 0.683931
vt 0.695406 0.683931
vt 0.698531 0.558931
vt 0.870061 0.998618
vt 0.745061 0.998618
vt 0.995061 0.998618
s 0
usemtl workbench
f 1/1/1 2/2/1 4/3/1 3/4/1
f 3/5/2 4/6/2 8/7/2 7/8/2
f 7/4/3 8/3/3 6/9/3 5/10/3
f 5/8/4 6/7/4 2/11/4 1/12/4
f 3/13/5 7/14/5 5/15/5 1/16/5
f 8/17/6 4/18/6 2/19/6 6/20/6
f 9/21/1 10/22/1 12/23/1 11/24/1
f 25/25/2 26/26/2 16/27/2 15/28/2
f 15/29/3 16/30/3 14/31/3 13/32/3
f 27/33/4 28/34/4 10/35/4 9/36/4
f 25/37/5 15/38/5 13/39/5 27/40/5
f 14/41/5 16/42/5 21/43/5 22/44/5
f 30/45/3 29/46/3 34/47/3 33/48/3
f 12/49/1 10/50/1 17/42/1 18/51/1
f 28/52/4 14/53/4 20/54/4 30/55/4
f 26/56/2 12/57/2 18/58/2 29/59/2
f 22/60/3 21/61/3 23/50/3 24/49/3
f 20/54/4 14/53/4 22/62/4 24/63/4
f 16/64/2 19/65/2 23/63/2 21/62/2
f 19/66/6 20/67/6 24/68/6 23/69/6
f 16/64/2 26/56/2 29/59/2 19/65/2
f 10/70/4 28/52/4 30/55/4 17/60/4
f 19/66/6 29/71/6 30/72/6 20/67/6
f 11/73/5 25/37/5 27/40/5 9/74/5
f 13/75/4 14/76/4 28/34/4 27/33/4
f 11/36/2 12/35/2 26/26/2 25/25/2
f 34/77/6 32/78/6 31/79/6 33/80/6
f 18/81/1 17/82/1 31/46/1 32/83/1
f 29/84/2 18/85/2 32/86/2 34/87/2
f 17/88/4 30/89/4 33/85/4 31/90/4
f 35/91/1 36/92/1 38/93/1 37/94/1
f 37/95/2 38/96/2 42/97/2 41/98/2
f 41/99/3 42/100/3 40/101/3 39/102/3
f 39/103/4 40/104/4 36/105/4 35/106/4
f 37/107/5 41/108/5 39/109/5 35/110/5
f 42/111/6 38/112/6 36/113/6 40/114/6
f 43/115/1 44/116/1 46/70/1 45/117/1
f 45/118/2 46/119/2 50/120/2 49/121/2
f 49/122/3 50/115/3 48/117/3 47/123/3
f 47/124/4 48/118/4 44/121/4 43/125/4
f 45/126/5 49/127/5 47/128/5 43/129/5
f 50/130/6 46/126/6 44/129/6 48/131/6
f 51/102/1 52/101/1 54/132/1 53/133/1
f 53/106/2 54/105/2 58/134/2 57/135/2
f 57/133/3 58/132/3 56/136/3 55/137/3
f 55/135/4 56/134/4 52/138/4 51/139/4
f 53/112/5 57/140/5 55/141/5 51/113/5
f 58/142/6 54/143/6 52/144/6 56/145/6
f 59/146/1 60/28/1 62/147/1 61/148/1
f 61/149/2 62/150/2 66/151/2 65/152/2
f 65/148/3 66/147/3 64/92/3 63/91/3
f 63/152/4 64/151/4 60/96/4 59/95/4
f 61/153/5 65/154/5 63/155/5 59/156/5
f 66/157/6 62/158/6 60/159/6 64/160/6
f 67/161/1 68/122/1 70/123/1 69/162/1
f 69/163/2 70/124/2 74/125/2 73/164/2
f 73/165/3 74/161/3 72/162/3 71/166/3
f 71/167/4 72/168/4 68/164/4 67/169/4
f 69/170/5 73/171/5 71/127/5 67/126/5
f 74/172/6 70/170/6 68/126/6 72/130/6
