# Blender 5.0.0
# www.blender.org
mtllib desk_lamp.mtl
o desk_lamp
v -0.000000 0.000000 -0.140000
v 0.098995 0.000000 -0.098995
v 0.140000 0.000000 0.000000
v 0.098995 0.000000 0.098995
v -0.000000 0.000000 0.140000
v -0.098995 0.000000 0.098995
v -0.140000 0.000000 0.000000
v -0.098995 0.000000 -0.098995
v -0.057177 0.021000 -0.014572
v -0.000000 0.010320 -0.140000
v -0.000000 0.017872 -0.136614
v -0.046873 0.021000 -0.010304
v 0.098995 0.010320 -0.098995
v 0.096601 0.017872 -0.096601
v -0.042605 0.021000 0.000000
v 0.140000 0.010320 0.000000
v 0.136614 0.017872 0.000000
v -0.046873 0.021000 0.010304
v 0.098995 0.010320 0.098995
v 0.096601 0.017872 0.096601
v -0.057177 0.021000 0.014572
v -0.000000 0.010320 0.140000
v -0.000000 0.017872 0.136614
v -0.067481 0.021000 0.010304
v -0.098995 0.010320 0.098995
v -0.096601 0.017872 0.096601
v -0.071749 0.021000 -0.000000
v -0.140000 0.010320 0.000000
v -0.136614 0.017872 0.000000
v -0.067481 0.021000 -0.010304
v -0.098995 0.010320 -0.098995
v -0.096601 0.017872 -0.096601
v -0.000000 0.021000 -0.128440
v 0.090821 0.021000 -0.090821
v 0.128440 0.021000 0.000000
v 0.090821 0.021000 0.090821
v -0.000000 0.021000 0.128440
v -0.090821 0.021000 0.090821
v -0.128440 0.021000 0.000000
v -0.090821 0.021000 -0.090821
v -0.057177 0.161000 -0.014572
v -0.046873 0.161000 -0.010304
v -0.042605 0.161000 0.000000
v -0.046873 0.161000 0.010304
v -0.057177 0.161000 0.014572
v -0.067481 0.161000 0.010304
v -0.071749 0.161000 -0.000000
v -0.067481 0.161000 -0.010304
v -0.051642 0.219388 -0.014572
v -0.041690 0.215684 -0.010304
v -0.037567 0.214150 0.000000
v -0.041690 0.215684 0.010304
v -0.051642 0.219388 0.014572
v -0.061595 0.223092 0.010304
v -0.065718 0.224626 -0.000000
v -0.061595 0.223092 -0.010304
v -0.035416 0.273796 -0.014572
v -0.026492 0.266641 -0.010304
v -0.022796 0.263677 0.000000
v -0.026492 0.266641 0.010304
v -0.035416 0.273796 0.014572
v -0.044339 0.280952 0.010304
v -0.048035 0.283916 -0.000000
v -0.044339 0.280952 -0.010304
v -0.009603 0.320518 -0.014572
v -0.002317 0.310399 -0.010304
v 0.000701 0.306207 0.000000
v -0.002317 0.310399 0.010304
v -0.009603 0.320518 0.014572
v -0.016889 0.330637 0.010304
v -0.019907 0.334829 -0.000000
v -0.016889 0.330637 -0.010304
v 0.044990 0.307826 -0.029572
v -0.025909 0.344646 -0.021795
v 0.054627 0.326383 -0.020910
v -0.018806 0.358323 -0.015411
v 0.058619 0.334070 -0.000000
v -0.015864 0.363988 -0.000000
v 0.054627 0.326383 0.020910
v -0.018806 0.358323 0.015411
v 0.044990 0.307826 0.029572
v -0.025909 0.344646 0.021795
v 0.035352 0.289269 0.020910
v -0.033011 0.330969 0.015411
v 0.031360 0.281583 -0.000000
v -0.035953 0.325304 -0.000000
v 0.035352 0.289269 -0.020910
v -0.033011 0.330969 -0.015411
v -0.016271 0.363203 -0.020910
v -0.025909 0.344646 -0.029572
v -0.012279 0.370890 -0.000000
v -0.016271 0.363203 0.020910
v -0.025909 0.344646 0.029572
v -0.035546 0.326089 0.020910
v -0.039538 0.318402 -0.000000
v -0.035546 0.326089 -0.020910
v -0.026763 0.358188 -0.011624
v -0.020627 0.359268 -0.015411
v -0.024243 0.359897 -0.014302
v -0.027730 0.345592 -0.021795
v -0.032121 0.347872 -0.016439
v -0.030835 0.347204 -0.020226
v -0.024544 0.362461 -0.000000
v -0.017685 0.364934 -0.000000
v -0.021513 0.365154 -0.000000
v -0.026763 0.358188 0.011624
v -0.020627 0.359268 0.015411
v -0.024243 0.359897 0.014302
v -0.032121 0.347872 0.016439
v -0.027730 0.345592 0.021795
v -0.030835 0.347204 0.020226
v -0.037478 0.337556 0.011624
v -0.034833 0.331915 0.015411
v -0.037426 0.334512 0.014302
v -0.039697 0.333283 -0.000000
v -0.037775 0.326250 -0.000000
v -0.040157 0.329254 -0.000000
v -0.037478 0.337556 -0.011624
v -0.034833 0.331915 -0.015411
v -0.037426 0.334512 -0.014302
v 0.099105 0.279722 -0.046446
v 0.114242 0.308868 -0.032842
v 0.120511 0.320941 -0.000000
v 0.114242 0.308868 0.032842
v 0.099105 0.279722 0.046446
v 0.083969 0.250576 0.032842
v 0.077699 0.238503 -0.000000
v 0.083969 0.250576 -0.032842
v 0.099105 0.279722 -0.048268
v 0.096785 0.280927 -0.050318
v 0.098425 0.280075 -0.050103
v 0.113183 0.312503 -0.035580
v 0.114836 0.310012 -0.034131
v 0.114754 0.311516 -0.035428
v 0.119975 0.325582 -0.000000
v 0.121351 0.322558 -0.000000
v 0.121517 0.324539 -0.000000
v 0.113183 0.312503 0.035580
v 0.114836 0.310012 0.034131
v 0.114754 0.311516 0.035428
v 0.096785 0.280927 0.050318
v 0.099105 0.279722 0.048268
v 0.098425 0.280075 0.050103
v 0.080386 0.249351 0.035580
v 0.083375 0.249432 0.034131
v 0.082097 0.248634 0.035428
v 0.073594 0.236272 -0.000000
v 0.076859 0.236886 -0.000000
v 0.075334 0.235611 -0.000000
v 0.080386 0.249351 -0.035580
v 0.083375 0.249432 -0.034131
v 0.082097 0.248634 -0.035428
v 0.080730 0.289265 -0.026986
v 0.089748 0.284582 -0.042468
v 0.089524 0.306199 -0.019082
v 0.103588 0.311231 -0.030029
v 0.071935 0.272331 -0.019082
v 0.075908 0.257932 -0.030029
v 0.093167 0.313214 -0.000000
v 0.109321 0.322270 -0.000000
v 0.089524 0.306199 0.019082
v 0.103588 0.311231 0.030029
v 0.080730 0.289265 0.026986
v 0.089748 0.284582 0.042468
v 0.071935 0.272331 0.019082
v 0.075908 0.257932 0.030029
v 0.068292 0.265317 -0.000000
v 0.070175 0.246893 -0.000000
vn -0.0000 -1.0000 -0.0000
vn 0.6929 0.1994 -0.6929
vn -0.0000 0.1994 -0.9799
vn -0.0000 0.6824 -0.7310
vn 0.5169 0.6824 -0.5169
vn -0.0000 0.9744 -0.2248
vn 0.1590 0.9744 -0.1590
vn 0.9799 0.1994 -0.0000
vn 0.7310 0.6824 -0.0000
vn 0.2248 0.9744 -0.0000
vn 0.6929 0.1994 0.6929
vn 0.5169 0.6824 0.5169
vn 0.1590 0.9744 0.1590
vn -0.0000 0.1994 0.9799
vn -0.0000 0.6824 0.7310
vn -0.0000 0.9744 0.2248
vn -0.6929 0.1994 0.6929
vn -0.5169 0.6824 0.5169
vn -0.1590 0.9744 0.1590
vn -0.9799 0.1994 -0.0000
vn -0.7310 0.6824 -0.0000
vn -0.2248 0.9744 -0.0000
vn -0.6929 0.1994 -0.6929
vn -0.5169 0.6824 -0.5169
vn -0.1590 0.9744 -0.1590
vn -0.7071 -0.0000 -0.7071
vn -1.0000 -0.0000 -0.0000
vn -0.9989 0.0467 -0.0000
vn -0.7122 0.0337 -0.7011
vn -0.0000 -0.0000 -1.0000
vn 0.7071 -0.0000 -0.7071
vn 1.0000 -0.0000 -0.0000
vn 0.7071 -0.0000 0.7071
vn -0.0000 -0.0000 1.0000
vn -0.7071 -0.0000 0.7071
vn -0.0000 1.0000 -0.0000
vn -0.7122 0.0337 0.7011
vn -0.0115 0.0011 0.9999
vn -0.0243 0.0008 0.9997
vn -0.7014 0.1360 0.6996
vn 0.9989 -0.0478 -0.0000
vn 0.7008 -0.0332 0.7126
vn -0.0115 0.0011 -0.9999
vn 0.7008 -0.0332 -0.7126
vn -0.0243 0.0008 -0.9997
vn -0.7014 0.1360 -0.6996
vn -0.6493 0.2711 -0.7106
vn -0.0271 0.0038 -0.9996
vn 0.9824 -0.1869 -0.0000
vn 0.6780 -0.1316 0.7232
vn 0.6780 -0.1316 -0.7232
vn -0.9808 0.1948 -0.0000
vn -0.6493 0.2711 0.7106
vn -0.0271 0.0038 0.9996
vn -0.0875 0.0483 0.9950
vn -0.6516 0.3600 0.6676
vn -0.9192 0.3939 -0.0000
vn 0.6244 -0.2615 0.7360
vn 0.6244 -0.2615 -0.7360
vn 0.9253 -0.3794 -0.0000
vn 0.8115 0.5843 -0.0000
vn 0.8753 -0.4836 -0.0000
vn 0.5497 -0.3037 0.7782
vn -0.0875 0.0483 -0.9950
vn 0.5497 -0.3037 -0.7782
vn -0.6516 0.3600 -0.6676
vn -0.8753 0.4836 -0.0000
vn -0.1574 0.0817 -0.9842
vn 0.3259 0.6275 -0.7071
vn 0.1634 0.6993 -0.6959
vn 0.4609 0.8875 -0.0000
vn 0.2962 0.9551 -0.0000
vn 0.3259 0.6275 0.7071
vn 0.1634 0.6993 0.6959
vn -0.1574 0.0817 0.9842
vn -0.3259 -0.6275 0.7071
vn -0.4781 -0.5359 0.6959
vn -0.4609 -0.8875 -0.0000
vn -0.6109 -0.7917 -0.0000
vn -0.3259 -0.6275 -0.7071
vn -0.4781 -0.5359 -0.6959
vn -0.8875 0.4609 -0.0000
vn 0.1423 0.7068 -0.6929
vn -0.1770 0.0919 -0.9799
vn -0.6056 0.3145 -0.7310
vn -0.3674 0.7732 -0.5169
vn -0.8647 0.4491 -0.2248
vn -0.7915 0.5902 -0.1590
vn 0.2746 0.9616 -0.0000
vn -0.2687 0.9632 -0.0000
vn -0.7611 0.6486 -0.0000
vn 0.1423 0.7068 0.6929
vn -0.3674 0.7732 0.5169
vn -0.7915 0.5902 0.1590
vn -0.1770 0.0919 0.9799
vn -0.6056 0.3145 0.7310
vn -0.8647 0.4491 0.2248
vn -0.4963 -0.5230 0.6929
vn -0.8438 -0.1442 0.5169
vn -0.9380 0.3080 0.1590
vn -0.6286 -0.7777 -0.0000
vn -0.9425 -0.3342 -0.0000
vn -0.9684 0.2496 -0.0000
vn -0.4963 -0.5230 -0.6929
vn -0.8438 -0.1442 -0.5169
vn -0.9380 0.3080 -0.1590
vn -0.0948 0.0492 -0.9943
vn 0.2292 0.6732 -0.7031
vn 0.4263 0.5700 -0.7024
vn 0.1026 -0.0533 -0.9933
vn 0.8189 -0.4253 -0.3853
vn 0.9445 -0.1835 -0.2725
vn 0.9400 -0.2948 -0.1716
vn 0.8609 -0.4471 -0.2427
vn 0.3634 0.9316 -0.0000
vn 0.5604 0.8282 -0.0000
vn 0.9965 -0.0834 -0.0000
vn 0.9728 -0.2318 -0.0000
vn 0.2292 0.6732 0.7031
vn 0.4263 0.5700 0.7024
vn 0.9445 -0.1835 0.2724
vn 0.9400 -0.2948 0.1716
vn -0.0948 0.0492 0.9943
vn 0.1026 -0.0533 0.9933
vn 0.8189 -0.4253 0.3853
vn 0.8609 -0.4471 0.2427
vn -0.4189 -0.5747 0.7031
vn -0.2211 -0.6766 0.7024
vn 0.6934 -0.6671 0.2725
vn 0.7818 -0.5994 0.1716
vn -0.5531 -0.8331 -0.0000
vn -0.3552 -0.9348 -0.0000
vn 0.6414 -0.7672 -0.0000
vn 0.7491 -0.6625 -0.0000
vn -0.4189 -0.5747 -0.7031
vn -0.2211 -0.6766 -0.7024
vn 0.6934 -0.6671 -0.2725
vn 0.7818 -0.5994 -0.1716
vn 0.8875 -0.4609 -0.0000
vn 0.9454 -0.2128 0.2468
vn 0.9925 -0.1221 -0.0000
vn 0.8960 0.4440 -0.0000
vn 0.7871 0.2343 0.5707
vn 0.9454 -0.2128 -0.2468
vn 0.7871 0.2343 -0.5707
vn 0.8316 -0.4319 -0.3491
vn 0.5241 -0.2722 -0.8070
vn 0.7179 -0.6509 -0.2468
vn 0.2610 -0.7786 -0.5707
vn 0.6707 -0.7417 -0.0000
vn 0.1521 -0.9884 -0.0000
vn 0.7179 -0.6509 0.2468
vn 0.2610 -0.7786 0.5707
vn 0.8316 -0.4319 0.3491
vn 0.5241 -0.2722 0.8070
vn 0.3133 -0.1627 0.9356
vn 0.0084 -0.7498 0.6616
vn 0.6182 0.4244 0.6616
vn -0.1179 -0.9930 -0.0000
vn 0.7445 0.6676 -0.0000
vn 0.0084 -0.7498 -0.6616
vn 0.3133 -0.1627 -0.9356
vn 0.6182 0.4244 -0.6616
vt 0.312780 0.450367
vt 0.129558 0.448036
vt -0.000000 0.315161
vt -0.000000 0.129579
vt 0.129558 -0.000000
vt 0.312780 0.002331
vt 0.442337 0.135206
vt 0.442337 0.320789
vt 0.901448 0.999970
vt 0.898546 0.858758
vt 0.911776 0.856907
vt 0.914607 0.994704
vt 0.442337 0.128383
vt 0.570687 0.000000
vt 0.576215 0.013073
vt 0.455544 0.133775
vt 0.431631 0.631662
vt 0.409991 0.450367
vt 0.421220 0.453029
vt 0.442337 0.629939
vt 0.442360 0.309943
vt 0.455566 0.304472
vt 0.409991 0.788572
vt 0.421220 0.783054
vt 0.570743 0.438325
vt 0.576267 0.425173
vt 0.930668 0.858758
vt 0.927767 0.999970
vt 0.914607 0.994704
vt 0.917438 0.856907
vt 0.752280 0.438325
vt 0.746943 0.425173
vt 0.930668 0.673235
vt 0.917438 0.675870
vt 0.880630 0.309943
vt 0.867613 0.304472
vt 0.927767 0.552077
vt 0.914607 0.557642
vt 0.880607 0.128382
vt 0.867591 0.133775
vt 0.898546 0.673235
vt 0.901448 0.552077
vt 0.911776 0.675870
vt 0.752224 -0.000000
vt 0.746890 0.013073
vt 0.496162 0.988898
vt 0.483638 0.990402
vt 0.448478 0.749912
vt 0.461002 0.748407
vt 0.880630 0.858788
vt 0.883531 1.000000
vt 0.880630 0.673265
vt 0.392917 0.451346
vt 0.414558 0.632641
vt 0.392917 0.789551
vt 0.945683 1.000000
vt 0.948585 0.858788
vt 0.948585 0.673265
vt 0.945683 0.552107
vt 0.883531 0.552107
vt 0.743603 0.157752
vt 0.729913 0.171446
vt 0.729915 0.190812
vt 0.743609 0.204506
vt 0.762973 0.204506
vt 0.776663 0.190812
vt 0.776660 0.171446
vt 0.762967 0.157752
vt 0.949405 0.310082
vt 0.930293 0.307321
vt 0.935929 0.205637
vt 0.955398 0.201948
vt 0.914245 0.550572
vt 0.895133 0.547811
vt 0.852579 0.941795
vt 0.836318 0.939082
vt 0.829590 0.707194
vt 0.845851 0.709907
vt 0.529777 0.983736
vt 0.515274 0.986136
vt 0.480114 0.745646
vt 0.494618 0.743246
vt 0.926769 0.552077
vt 0.961929 0.311587
vt 0.880630 0.545410
vt 0.915789 0.304920
vt 0.817392 0.940800
vt 0.810664 0.708912
vt 0.474479 0.643962
vt 0.455009 0.640273
vt 0.468626 0.536559
vt 0.487283 0.546435
vt 0.828608 0.616544
vt 0.844842 0.616641
vt 0.489340 0.648012
vt 0.968070 0.200780
vt 0.921067 0.209687
vt 0.809654 0.615646
vt 0.442337 0.639106
vt 0.941781 0.098234
vt 0.923124 0.108110
vt 0.892752 0.021386
vt 0.909482 0.006009
vt 0.954117 0.094504
vt 0.909075 0.118347
vt 0.811949 0.523354
vt 0.830839 0.526841
vt 0.456290 0.532829
vt 0.847136 0.524349
vt 0.501332 0.556672
vt 0.270099 0.725697
vt 0.255532 0.729057
vt 0.245232 0.718222
vt 0.245232 0.699539
vt 0.255532 0.683952
vt 0.270099 0.680592
vt 0.280400 0.691427
vt 0.280400 0.710110
vt 0.836129 0.444199
vt 0.852579 0.439320
vt 0.517655 0.459712
vt 0.529777 0.475450
vt 0.500925 0.444334
vt 0.921020 0.000000
vt 0.880630 0.037125
vt 0.817392 0.438325
vt 0.489387 0.438325
vt 0.063690 0.587535
vt 0.068645 0.454705
vt 0.102892 0.450367
vt 0.097938 0.583197
vt 0.559616 0.600602
vt 0.564958 0.476413
vt 0.600948 0.484644
vt 0.595606 0.608833
vt 0.637511 0.479534
vt 0.632169 0.603723
vt 0.147294 0.583197
vt 0.142340 0.450367
vt 0.176587 0.454705
vt 0.181541 0.587535
vt 0.214401 0.450367
vt 0.219356 0.583197
vt 0.270705 0.587603
vt 0.270705 0.454666
vt 0.307016 0.450367
vt 0.307016 0.583304
vt 0.343326 0.454666
vt 0.343326 0.587603
vt 0.025876 0.583197
vt 0.030831 0.450367
vt 0.564117 0.460242
vt 0.574681 0.472588
vt 0.550625 0.459661
vt 0.601206 0.478654
vt 0.628153 0.474888
vt 0.639738 0.463495
vt 0.653231 0.464075
vt 0.629175 0.451149
vt 0.638897 0.447324
vt 0.602650 0.445082
vt 0.602907 0.439092
vt 0.575702 0.448849
vt 0.566344 0.444203
vt 0.710535 0.665818
vt 0.716587 0.690530
vt 0.710040 0.691387
vt 0.704423 0.668454
vt 0.705840 0.692563
vt 0.701275 0.673924
vt 0.601343 0.475464
vt 0.574818 0.469398
vt 0.577013 0.463187
vt 0.601629 0.468817
vt 0.581844 0.459072
vt 0.601851 0.463648
vt 0.628291 0.471698
vt 0.626637 0.465322
vt 0.622177 0.460807
vt 0.704680 0.624781
vt 0.710732 0.600069
vt 0.716844 0.602706
vt 0.711227 0.625639
vt 0.719992 0.608175
vt 0.715427 0.626815
vt 0.704680 0.652833
vt 0.711227 0.651672
vt 0.715427 0.647974
vt 0.386399 0.704368
vt 0.383231 0.677607
vt 0.388502 0.679533
vt 0.391443 0.704368
vt 0.716844 0.665555
vt 0.719992 0.659258
vt 0.383231 0.731129
vt 0.388502 0.729203
vt 0.710040 0.717421
vt 0.704423 0.731304
vt 0.701275 0.725006
vt 0.705840 0.713722
vt 0.716587 0.718582
vt 0.713939 0.665555
vt 0.719992 0.690267
vt 0.573876 0.449760
vt 0.582614 0.441166
vt 0.602940 0.438325
vt 0.622947 0.442901
vt 0.630915 0.452213
vt 0.719992 0.718319
vt 0.701275 0.624519
vt 0.707328 0.599807
vt 0.701275 0.652571
vt 0.382984 0.704368
vt 0.379816 0.677607
vt 0.379816 0.731129
vt 0.064343 0.694964
vt 0.122616 0.687584
vt 0.122208 0.690582
vt 0.064184 0.697931
vt 0.653230 0.553818
vt 0.653230 0.487471
vt 0.656400 0.488738
vt 0.656400 0.552656
vt 0.529778 0.701533
vt 0.591016 0.715539
vt 0.590899 0.718248
vt 0.529923 0.704302
vt 0.699046 0.439633
vt 0.700539 0.442651
vt 0.653231 0.706844
vt 0.652848 0.709589
vt 0.763838 0.438325
vt 0.762959 0.441391
vt 0.122616 0.687584
vt 0.180889 0.694964
vt 0.181048 0.697931
vt 0.123024 0.690582
vt 0.809654 0.484314
vt 0.807097 0.485697
vt 0.245232 0.687584
vt 0.245116 0.690582
vt 0.809654 0.550661
vt 0.807097 0.549614
vt 0.245232 0.677440
vt 0.307016 0.670125
vt 0.307016 0.673308
vt 0.245496 0.680592
vt 0.763838 0.598499
vt 0.762959 0.595702
vt 0.368799 0.677440
vt 0.368535 0.680592
vt 0.699046 0.599807
vt 0.700539 0.596961
vt -0.000000 0.687584
vt 0.000116 0.690582
vt 0.659245 0.489887
vt 0.659245 0.551392
vt 0.701717 0.594025
vt 0.701717 0.445540
vt 0.761781 0.444328
vt 0.804253 0.486961
vt 0.804253 0.548465
vt 0.761781 0.592812
vt 0.388854 0.500000
vt 0.347455 0.500000
vt 0.270208 0.500000
vt 0.207872 0.500000
vt 0.421723 0.500000
vt 0.385365 0.500000
vt 0.514481 0.500000
vt 0.503252 0.500000
vt 0.610519 0.500000
vt 0.621748 0.500000
vt 0.703277 0.500000
vt 0.739635 0.500000
vt 0.777545 0.500000
vt 0.854792 0.500000
vt 0.736146 0.500000
vt 0.917128 0.500000
vt 0.685736 0.659199
vt 0.678924 0.599807
vt 0.695046 0.603421
vt 0.701275 0.657726
vt 0.678924 0.712988
vt 0.695046 0.706908
vt 0.672172 0.599807
vt 0.678924 0.656836
vt 0.659404 0.656836
vt 0.653231 0.604692
vt 0.379578 0.507397
vt 0.369091 0.450367
vt 0.383328 0.455252
vt 0.392917 0.507397
vt 0.672172 0.713866
vt 0.653231 0.708981
vt 0.391443 0.564426
vt 0.384630 0.623818
vt 0.369091 0.622345
vt 0.375320 0.568040
vt 0.391443 0.677607
vt 0.375320 0.671527
vt 0.369091 0.564426
vt 0.383328 0.559542
s 1
usemtl green_metal
f 1/1/1 2/2/1 3/3/1 4/4/1 5/5/1 6/6/1 7/7/1 8/8/1
f 13/9/2 10/10/3 11/11/4 14/12/5
f 14/13/5 11/14/4 33/15/6 34/16/7
f 16/17/8 13/18/2 14/19/5 17/20/9
f 17/21/9 14/13/5 34/16/7 35/22/10
f 19/23/11 16/17/8 17/20/9 20/24/12
f 20/25/12 17/21/9 35/22/10 36/26/13
f 22/27/14 19/28/11 20/29/12 23/30/15
f 23/31/15 20/25/12 36/26/13 37/32/16
f 25/33/17 22/27/14 23/30/15 26/34/18
f 26/35/18 23/31/15 37/32/16 38/36/19
f 28/37/20 25/33/17 26/34/18 29/38/21
f 29/39/21 26/35/18 38/36/19 39/40/22
f 31/41/23 28/42/20 29/38/21 32/43/24
f 32/44/24 29/39/21 39/40/22 40/45/25
f 10/10/3 31/41/23 32/43/24 11/11/4
f 11/14/4 32/44/24 40/45/25 33/15/6
f 30/46/26 27/47/27 47/48/28 48/49/29
f 1/50/30 10/10/3 13/9/2 2/51/31
f 8/52/26 31/41/23 10/10/3 1/50/30
f 2/53/31 13/18/2 16/17/8 3/54/32
f 3/54/32 16/17/8 19/23/11 4/55/33
f 4/56/33 19/28/11 22/27/14 5/57/34
f 5/57/34 22/27/14 25/33/17 6/58/35
f 6/58/35 25/33/17 28/37/20 7/59/27
f 7/60/27 28/42/20 31/41/23 8/52/26
f 9/61/36 12/62/36 34/16/7 33/15/6
f 12/62/36 15/63/36 35/22/10 34/16/7
f 15/63/36 18/64/36 36/26/13 35/22/10
f 18/64/36 21/65/36 37/32/16 36/26/13
f 21/65/36 24/66/36 38/36/19 37/32/16
f 24/66/36 27/67/36 39/40/22 38/36/19
f 27/67/36 30/68/36 40/45/25 39/40/22
f 30/68/36 9/61/36 33/15/6 40/45/25
f 46/69/37 45/70/38 53/71/39 54/72/40
f 24/73/35 21/74/34 45/70/38 46/69/37
f 18/75/33 15/76/32 43/77/41 44/78/42
f 12/79/31 9/80/30 41/81/43 42/82/44
f 9/80/30 30/46/26 48/49/29 41/81/43
f 27/83/27 24/73/35 46/69/37 47/84/28
f 21/74/34 18/85/33 44/86/42 45/70/38
f 15/76/32 12/87/31 42/88/44 43/77/41
f 49/89/45 56/90/46 64/91/47 57/92/48
f 44/78/42 43/77/41 51/93/49 52/94/50
f 42/82/44 41/81/43 49/89/45 50/95/51
f 41/81/43 48/49/29 56/90/46 49/89/45
f 47/84/28 46/69/37 54/72/40 55/96/52
f 45/70/38 44/86/42 52/97/50 53/71/39
f 43/77/41 42/88/44 50/98/51 51/93/49
f 48/49/29 47/48/28 55/99/52 56/90/46
f 62/100/53 61/101/54 69/102/55 70/103/56
f 55/96/52 54/72/40 62/100/53 63/104/57
f 53/71/39 52/97/50 60/105/58 61/101/54
f 51/93/49 50/98/51 58/106/59 59/107/60
f 56/90/46 55/99/52 63/108/57 64/91/47
f 54/72/40 53/71/39 61/101/54 62/100/53
f 52/94/50 51/93/49 59/107/60 60/109/58
f 50/95/51 49/89/45 57/92/48 58/110/59
f 66/111/61 65/112/61 72/113/61 71/114/61 70/115/61 69/116/61 68/117/61 67/118/61
f 60/109/58 59/107/60 67/119/62 68/120/63
f 58/110/59 57/92/48 65/121/64 66/122/65
f 57/92/48 64/91/47 72/123/66 65/121/64
f 63/104/57 62/100/53 70/103/56 71/124/67
f 61/101/54 60/105/58 68/125/63 69/102/55
f 59/107/60 58/106/59 66/126/65 67/119/62
f 64/91/47 63/108/57 71/127/67 72/123/66
f 73/128/68 90/129/30 89/130/69 75/131/70
f 75/132/70 89/133/69 91/134/71 77/135/72
f 77/135/72 91/134/71 92/136/73 79/137/74
f 79/138/74 92/139/73 93/140/34 81/141/75
f 81/141/75 93/140/34 94/142/76 83/143/77
f 83/144/77 94/145/76 95/146/78 85/147/79
f 85/147/79 95/146/78 96/148/80 87/149/81
f 87/150/81 96/151/80 90/129/30 73/128/68
f 74/152/82 76/153/82 89/133/82 90/154/82
f 76/153/82 78/155/82 91/134/82 89/133/82
f 78/155/82 80/156/82 92/136/82 91/134/82
f 80/156/82 82/157/82 93/158/82 92/136/82
f 82/157/82 84/159/82 94/160/82 93/158/82
f 84/159/82 86/161/82 95/162/82 94/160/82
f 86/161/82 88/163/82 96/164/82 95/162/82
f 88/163/82 74/152/82 90/154/82 96/164/82
f 98/165/83 100/166/84 102/167/85 99/168/86
f 99/168/86 102/167/85 101/169/87 97/170/88
f 104/171/89 98/172/83 99/173/86 105/174/90
f 105/174/90 99/173/86 97/175/88 103/176/91
f 107/177/92 104/171/89 105/174/90 108/178/93
f 108/178/93 105/174/90 103/176/91 106/179/94
f 110/180/95 107/181/92 108/182/93 111/183/96
f 111/183/96 108/182/93 106/184/94 109/185/97
f 113/186/98 110/180/95 111/183/96 114/187/99
f 114/187/99 111/183/96 109/185/97 112/188/100
f 116/189/101 113/190/98 114/191/99 117/192/102
f 117/193/102 114/187/99 112/188/100 115/194/103
f 119/195/104 116/189/101 117/192/102 120/196/105
f 120/197/105 117/198/102 115/199/103 118/200/106
f 100/166/84 119/201/104 120/197/105 102/167/85
f 102/167/85 120/197/105 118/200/106 101/169/87
f 76/202/69 74/203/30 100/166/84 98/165/83
f 97/175/88 101/204/87 118/205/106 115/206/103 112/207/100 109/208/97 106/179/94 103/176/91
f 78/155/71 76/153/69 98/172/83 104/171/89
f 74/203/30 88/209/80 119/201/104 100/166/84
f 80/156/73 78/155/71 104/171/89 107/177/92
f 82/210/34 80/211/73 107/181/92 110/180/95
f 84/212/76 82/210/34 110/180/95 113/186/98
f 86/213/78 84/214/76 113/190/98 116/189/101
f 88/215/80 86/213/78 116/189/101 119/195/104
f 130/216/107 132/217/108 134/218/109 131/219/110
f 131/220/111 134/221/112 133/222/113 129/223/114
f 132/224/108 135/225/115 137/226/116 134/227/109
f 134/221/112 137/228/117 136/229/118 133/222/113
f 135/225/115 138/230/119 140/231/120 137/226/116
f 137/228/117 140/232/121 139/233/122 136/229/118
f 138/234/119 141/235/123 143/236/124 140/237/120
f 140/232/121 143/238/125 142/239/126 139/233/122
f 141/235/123 144/240/127 146/241/128 143/236/124
f 143/238/125 146/242/129 145/243/130 142/239/126
f 144/244/127 147/245/131 149/246/132 146/247/128
f 146/242/129 149/248/133 148/249/134 145/243/130
f 147/245/131 150/250/135 152/251/136 149/246/132
f 149/248/133 152/252/137 151/253/138 148/249/134
f 150/254/135 130/216/107 131/219/110 152/255/136
f 152/252/137 131/220/111 129/223/114 151/253/138
f 122/256/139 121/257/139 129/223/114 133/222/113
f 87/150/81 73/128/68 130/216/107 150/254/135
f 73/128/68 75/131/70 132/217/108 130/216/107
f 121/257/139 128/258/139 151/253/138 129/223/114
f 123/259/139 122/256/139 133/222/113 136/229/118
f 75/132/70 77/135/72 135/225/115 132/224/108
f 124/260/139 123/259/139 136/229/118 139/233/122
f 77/135/72 79/137/74 138/230/119 135/225/115
f 125/261/139 124/260/139 139/233/122 142/239/126
f 79/138/74 81/141/75 141/235/123 138/234/119
f 126/262/139 125/261/139 142/239/126 145/243/130
f 81/141/75 83/143/77 144/240/127 141/235/123
f 127/263/139 126/262/139 145/243/130 148/249/134
f 83/144/77 85/147/79 147/245/131 144/244/127
f 128/258/139 127/263/139 148/249/134 151/253/138
f 85/147/79 87/149/81 150/250/135 147/245/131
f 121/280/156 122/281/157 156/282/153 154/283/155
f 128/284/158 121/280/156 154/283/155 158/285/143
f 122/286/157 123/287/159 160/288/151 156/289/153
f 127/290/160 128/291/158 158/292/143 168/293/142
f 123/287/159 124/294/161 162/295/149 160/288/151
f 124/296/161 125/297/162 164/298/147 162/299/149
f 125/297/162 126/300/163 166/301/145 164/298/147
f 126/302/163 127/290/160 168/293/142 166/303/145
usemtl light
f 157/264/140 167/265/141 168/266/142 158/267/143
f 167/265/141 165/268/144 166/269/145 168/266/142
f 165/268/144 163/270/146 164/271/147 166/269/145
f 163/270/146 161/272/148 162/273/149 164/271/147
f 161/272/148 159/274/150 160/275/151 162/273/149
f 159/274/150 155/276/152 156/277/153 160/275/151
f 153/278/154 157/264/140 158/267/143 154/279/155
f 155/276/152 153/278/154 154/279/155 156/277/153
f 157/264/140 153/278/154 155/276/152 159/274/150 161/272/148 163/270/146 165/268/144 167/265/141
