# Blender 5.0.1
# www.blender.org
mtllib single_stand.mtl
o single_stand
v -0.300000 0.720000 -0.300000
v -0.300000 0.000000 -0.300000
v 0.300000 0.720000 -0.300000
v 0.300000 0.000000 -0.300000
v -0.300000 0.720000 0.300000
v -0.300000 0.000000 0.300000
v 0.300000 0.720000 0.300000
v 0.300000 0.000000 0.300000
v -0.300000 0.696000 -0.300000
v -0.300000 0.024000 -0.300000
v 0.300000 0.024000 0.300000
v 0.300000 0.696000 0.300000
v 0.300000 0.696000 -0.300000
v 0.300000 0.024000 -0.300000
v -0.300000 0.696000 0.300000
v -0.300000 0.024000 0.300000
v -0.294000 0.696000 -0.294000
v -0.294000 0.024000 -0.294000
v 0.294000 0.024000 0.294000
v 0.294000 0.696000 0.294000
v 0.294000 0.696000 -0.294000
v 0.294000 0.024000 -0.294000
v -0.294000 0.696000 0.294000
v -0.294000 0.024000 0.294000
v -0.294000 0.472000 -0.294000
v -0.294000 0.248000 -0.294000
v 0.294000 0.248000 0.294000
v 0.294000 0.472000 0.294000
v 0.294000 0.472000 -0.294000
v 0.294000 0.248000 -0.294000
v -0.294000 0.472000 0.294000
v -0.294000 0.248000 0.294000
v 0.294000 0.479200 -0.286560
v 0.294000 0.688800 -0.286560
v 0.294000 0.688800 0.286560
v 0.294000 0.479200 0.286560
v 0.294000 0.031200 -0.286560
v 0.294000 0.240800 -0.286560
v 0.294000 0.240800 0.286560
v 0.294000 0.031200 0.286560
v 0.294000 0.255200 -0.286560
v 0.294000 0.464800 -0.286560
v 0.294000 0.464800 0.286560
v 0.294000 0.255200 0.286560
v -0.066000 0.464800 0.286560
v -0.066000 0.255200 0.286560
v -0.066000 0.255200 -0.286560
v -0.066000 0.464800 -0.286560
v -0.066000 0.240800 0.286560
v -0.066000 0.031200 0.286560
v -0.066000 0.031200 -0.286560
v -0.066000 0.240800 -0.286560
v -0.066000 0.688800 0.286560
v -0.066000 0.479200 0.286560
v -0.066000 0.479200 -0.286560
v -0.066000 0.688800 -0.286560
vn -0.0000 1.0000 -0.0000
vn 1.0000 -0.0000 -0.0000
vn -0.0000 -0.0000 1.0000
vn -0.0000 -1.0000 -0.0000
vn -0.0000 -0.0000 -1.0000
vn -1.0000 -0.0000 -0.0000
vt 0.239476 0.518875
vt 0.239476 0.747827
vt 0.010524 0.747827
vt 0.010524 0.518875
vt 0.476060 0.747827
vt 0.468428 0.747827
vt 0.468428 0.518875
vt 0.476060 0.518875
vt 0.476060 0.976779
vt 0.468428 0.976779
vt 0.468428 0.747827
vt 0.476060 0.747827
vt 0.239476 0.747827
vt 0.239476 0.976779
vt 0.010524 0.976779
vt 0.010524 0.747827
vt 0.483692 0.747827
vt 0.476060 0.747827
vt 0.476060 0.518875
vt 0.483692 0.518875
vt 0.483692 0.976779
vt 0.476060 0.976779
vt 0.498955 0.747827
vt 0.491323 0.747827
vt 0.491323 0.518875
vt 0.498955 0.518875
vt 0.468428 0.518875
vt 0.468428 0.747827
vt 0.466139 0.745537
vt 0.466139 0.521164
vt 0.498955 0.976779
vt 0.491323 0.976779
vt 0.491323 0.747827
vt 0.498955 0.747827
vt 0.239476 0.518875
vt 0.241765 0.521164
vt 0.483692 0.747827
vt 0.483692 0.976779
vt 0.241765 0.745537
vt 0.042229 0.116078
vt 0.008577 0.116078
vt 0.008577 0.010074
vt 0.042229 0.010074
vt 0.143185 0.116078
vt 0.109533 0.116078
vt 0.109533 0.010074
vt 0.143185 0.010074
vt 0.042229 0.222082
vt 0.008577 0.222082
vt 0.239476 0.976779
vt 0.241765 0.750116
vt 0.241765 0.974489
vt 0.468428 0.747827
vt 0.466139 0.750116
vt 0.468428 0.976779
vt 0.466139 0.974489
vt 0.109533 0.222082
vt 0.075881 0.222082
vt 0.075881 0.116078
vt 0.109533 0.116078
vt 0.210489 0.116078
vt 0.176837 0.116078
vt 0.176837 0.010074
vt 0.210489 0.010074
vt 0.075881 0.010074
vt 0.109533 0.010074
vt 0.143185 0.222082
vt 0.109533 0.222082
vt 0.110615 0.220741
vt 0.142104 0.220741
vt 0.110615 0.117419
vt 0.142104 0.117419
vt 0.210489 0.222082
vt 0.176837 0.222082
vt 0.177919 0.220741
vt 0.209408 0.220741
vt 0.177919 0.117419
vt 0.209408 0.117419
vt 0.144267 0.220741
vt 0.175756 0.220741
vt 0.144267 0.117419
vt 0.175756 0.117419
vt 0.490788 0.237731
vt 0.459299 0.237731
vt 0.459299 0.172831
vt 0.490788 0.172831
vt 0.210489 0.113395
vt 0.210489 0.010074
vt 0.275390 0.010074
vt 0.275390 0.113395
vt 0.210489 0.219400
vt 0.275390 0.116078
vt 0.275390 0.219400
vt 0.338368 0.421993
vt 0.369856 0.421993
vt 0.369856 0.486894
vt 0.338368 0.486894
vt 0.241978 0.486694
vt 0.210489 0.486694
vt 0.210489 0.421794
vt 0.241978 0.421794
vt 0.210489 0.322721
vt 0.275390 0.219400
vt 0.275390 0.322721
vt 0.008577 0.325404
vt 0.008577 0.222082
vt 0.073477 0.222082
vt 0.073477 0.325404
vt 0.306879 0.421993
vt 0.338368 0.421993
vt 0.338368 0.486894
vt 0.306879 0.486894
vt 0.273467 0.486694
vt 0.241978 0.421794
vt 0.273467 0.421794
vt 0.103043 0.325404
vt 0.103043 0.428725
vt 0.071554 0.428725
vt 0.071554 0.325404
vt 0.040065 0.428725
vt 0.040065 0.325404
vt 0.071554 0.325404
vt 0.071554 0.428725
vt 0.138378 0.222082
vt 0.138378 0.325404
vt 0.138378 0.325404
vt 0.138378 0.222082
vt 0.203278 0.222082
vt 0.203278 0.325404
vt 0.275390 0.421993
vt 0.306879 0.486894
vt 0.275390 0.486894
vt 0.008577 0.428725
s 0
usemtl stand
f 1/1/1 5/2/1 7/3/1 3/4/1
f 13/5/2 3/6/2 7/7/2 12/8/2
f 12/9/3 7/10/3 5/11/3 15/12/3
f 6/13/4 2/14/4 4/15/4 8/16/4
f 9/17/5 1/18/5 3/19/5 13/20/5
f 15/21/6 5/22/6 1/18/6 9/17/6
f 6/23/6 16/24/6 10/25/6 2/26/6
f 10/27/1 16/28/1 24/29/1 18/30/1
f 2/31/5 10/32/5 14/33/5 4/34/5
f 14/35/1 10/27/1 18/30/1 22/36/1
f 8/37/3 11/33/3 16/32/3 6/38/3
f 16/28/1 11/2/1 19/39/1 24/29/1
f 4/20/2 14/25/2 11/33/2 8/37/2
f 11/2/1 14/35/1 22/36/1 19/39/1
f 31/40/6 23/41/6 17/42/6 25/43/6
f 25/44/5 17/45/5 21/46/5 29/47/5
f 28/48/3 20/49/3 23/41/3 31/40/3
f 13/50/4 12/13/4 20/51/4 21/52/4
f 12/13/4 15/53/4 23/54/4 20/51/4
f 9/55/4 13/50/4 21/52/4 17/56/4
f 15/53/4 9/55/4 17/56/4 23/54/4
f 19/57/3 27/58/3 32/59/3 24/60/3
f 27/58/3 28/48/3 31/40/3 32/59/3
f 18/61/5 26/62/5 30/63/5 22/64/5
f 26/62/5 25/44/5 29/47/5 30/63/5
f 24/60/6 32/59/6 26/65/6 18/66/6
f 32/59/6 31/40/6 25/43/6 26/65/6
f 29/67/2 21/68/2 34/69/2 33/70/2
f 21/68/2 20/45/2 35/71/2 34/69/2
f 20/45/2 28/44/2 36/72/2 35/71/2
f 28/44/2 29/67/2 33/70/2 36/72/2
f 22/73/2 30/74/2 38/75/2 37/76/2
f 30/74/2 27/62/2 39/77/2 38/75/2
f 27/62/2 19/61/2 40/78/2 39/77/2
f 19/61/2 22/73/2 37/76/2 40/78/2
f 30/74/2 29/67/2 42/79/2 41/80/2
f 29/67/2 28/44/2 43/81/2 42/79/2
f 28/44/2 27/62/2 44/82/2 43/81/2
f 27/62/2 30/74/2 41/80/2 44/82/2
f 41/83/3 42/84/3 48/85/3 47/86/3
f 40/87/1 37/88/1 51/89/1 50/90/1
f 34/91/4 35/61/4 53/92/4 56/93/4
f 43/94/5 44/95/5 46/96/5 45/97/5
f 37/98/3 38/99/3 52/100/3 51/101/3
f 36/102/1 33/91/1 55/103/1 54/104/1
f 42/105/4 43/106/4 45/107/4 48/108/4
f 39/109/5 40/110/5 50/111/5 49/112/5
f 33/113/3 34/98/3 56/114/3 55/115/3
f 48/116/2 45/117/2 46/118/2 47/119/2
f 52/120/2 49/121/2 50/122/2 51/123/2
f 44/108/1 41/107/1 47/124/1 46/125/1
f 38/126/4 39/127/4 49/128/4 52/129/4
f 35/130/5 36/109/5 54/131/5 53/132/5
f 54/121/2 55/120/2 56/133/2 53/105/2
o latch_1
v -0.066000 0.480280 0.286837
v -0.066000 0.480280 -0.286837
v -0.066000 0.687720 -0.286837
v -0.066000 0.687720 0.286837
v 0.294000 0.480280 -0.286837
v 0.294000 0.480280 0.286837
v 0.294000 0.687720 0.286837
v 0.294000 0.687720 -0.286837
v -0.054000 0.687720 -0.274775
v -0.054000 0.687720 0.274775
v 0.282000 0.687720 0.274775
v 0.282000 0.687720 -0.274776
v -0.054000 0.519720 -0.274775
v -0.054000 0.519720 0.274775
v 0.282000 0.519720 -0.274776
v 0.282000 0.519720 0.274775
v 0.294000 0.498280 0.260889
v 0.294000 0.498280 -0.260890
v 0.294000 0.669720 -0.260890
v 0.294000 0.669720 0.260889
v 0.294000 0.509080 0.244288
v 0.294000 0.509080 -0.244288
v 0.294000 0.658920 -0.244288
v 0.294000 0.658920 0.244288
v 0.291000 0.498280 -0.260890
v 0.291000 0.498280 0.260889
v 0.291000 0.669720 0.260889
v 0.291000 0.669720 -0.260890
v 0.291000 0.509080 -0.244288
v 0.291000 0.509080 0.244288
v 0.291000 0.658920 0.244288
v 0.291000 0.658920 -0.244288
v 0.319872 0.576800 0.050926
v 0.319872 0.591200 0.050926
v 0.305472 0.576800 0.050926
v 0.305472 0.591200 0.050926
v 0.319223 0.576800 0.057356
v 0.319223 0.591200 0.057356
v 0.305184 0.576800 0.053777
v 0.305184 0.591200 0.053777
v 0.317310 0.576800 0.063463
v 0.317310 0.591200 0.063463
v 0.304336 0.576800 0.056485
v 0.304336 0.591200 0.056485
v 0.314227 0.576800 0.068941
v 0.314227 0.591200 0.068941
v 0.302969 0.576800 0.058914
v 0.302969 0.591200 0.058914
v 0.310131 0.576800 0.073516
v 0.310131 0.591200 0.073516
v 0.301153 0.576800 0.060943
v 0.301153 0.591200 0.060943
v 0.305225 0.576800 0.076958
v 0.305225 0.591200 0.076958
v 0.298977 0.576800 0.062469
v 0.298977 0.591200 0.062469
v 0.299757 0.576800 0.079095
v 0.299757 0.591200 0.079095
v 0.296553 0.576800 0.063417
v 0.296553 0.591200 0.063417
v 0.294000 0.576800 0.079820
v 0.294000 0.591200 0.079820
v 0.294000 0.576800 0.063738
v 0.294000 0.591200 0.063738
v 0.319872 0.576800 -0.050926
v 0.319872 0.591200 -0.050926
v 0.305472 0.576800 -0.050926
v 0.305472 0.591200 -0.050926
v 0.319223 0.576800 -0.057356
v 0.319223 0.591200 -0.057356
v 0.305184 0.576800 -0.053777
v 0.305184 0.591200 -0.053777
v 0.317310 0.576800 -0.063463
v 0.317310 0.591200 -0.063463
v 0.304336 0.576800 -0.056485
v 0.304336 0.591200 -0.056485
v 0.314227 0.576800 -0.068941
v 0.314227 0.591200 -0.068941
v 0.302969 0.576800 -0.058914
v 0.302969 0.591200 -0.058914
v 0.310131 0.576800 -0.073516
v 0.310131 0.591200 -0.073516
v 0.301152 0.576800 -0.060943
v 0.301152 0.591200 -0.060943
v 0.305225 0.576800 -0.076959
v 0.305225 0.591200 -0.076959
v 0.298977 0.576800 -0.062469
v 0.298977 0.591200 -0.062469
v 0.299757 0.576800 -0.079096
v 0.299757 0.591200 -0.079096
v 0.296553 0.576800 -0.063417
v 0.296553 0.591200 -0.063417
v 0.294000 0.576800 -0.079820
v 0.294000 0.591200 -0.079820
v 0.294000 0.576800 -0.063738
v 0.294000 0.591200 -0.063738
vn -0.0000 -1.0000 -0.0000
vn 1.0000 -0.0000 -0.0000
vn -0.0000 -0.0000 1.0000
vn -0.0000 -0.0000 -1.0000
vn -0.0000 1.0000 -0.0000
vn -1.0000 -0.0000 -0.0000
vn -0.9987 -0.0000 -0.0503
vn -0.9796 -0.0000 -0.2007
vn -0.9987 -0.0000 0.0503
vn 0.9987 -0.0000 0.0502
vn 0.9987 -0.0000 -0.0502
vn 0.9796 -0.0000 0.2007
vn -0.9179 -0.0000 -0.3968
vn 0.9179 -0.0000 0.3968
vn -0.8131 -0.0000 -0.5822
vn -0.6640 -0.0000 -0.7477
vn 0.8131 -0.0000 0.5822
vn 0.6640 -0.0000 0.7477
vn -0.4726 -0.0000 -0.8813
vn 0.4726 -0.0000 0.8813
vn -0.2463 -0.0000 -0.9692
vn -0.1248 -0.0000 -0.9922
vn 0.2463 -0.0000 0.9692
vn 0.1248 -0.0000 0.9922
vn -0.9796 -0.0000 0.2007
vn 0.9796 -0.0000 -0.2007
vn -0.9179 -0.0000 0.3968
vn 0.9179 -0.0000 -0.3968
vn -0.8131 -0.0000 0.5822
vn -0.6640 -0.0000 0.7477
vn 0.8131 -0.0000 -0.5822
vn 0.6640 -0.0000 -0.7477
vn -0.4726 -0.0000 0.8813
vn 0.4726 -0.0000 -0.8813
vn -0.2463 -0.0000 0.9692
vn -0.1248 -0.0000 0.9922
vn 0.2463 -0.0000 -0.9692
vn 0.1248 -0.0000 -0.9922
vt 0.275390 0.322921
vt 0.275390 0.219499
vt 0.339960 0.219499
vt 0.339960 0.322921
vt 0.159980 0.335429
vt 0.159980 0.418428
vt 0.138768 0.418428
vt 0.138768 0.335429
vt 0.404529 0.208219
vt 0.404529 0.109146
vt 0.429768 0.109146
vt 0.429768 0.208219
vt 0.147951 0.119227
vt 0.173354 0.119227
vt 0.173354 0.171859
vt 0.147951 0.171859
vt 0.206892 0.173401
vt 0.181029 0.173401
vt 0.181029 0.119816
vt 0.206892 0.119816
vt 0.404529 0.010074
vt 0.404529 0.113495
vt 0.402377 0.111321
vt 0.402377 0.012248
vt 0.339960 0.113495
vt 0.342112 0.111321
vt 0.339960 0.010074
vt 0.342112 0.012248
vt 0.335655 0.322921
vt 0.335655 0.421993
vt 0.275390 0.421993
vt 0.275390 0.322921
vt 0.404529 0.307292
vt 0.404529 0.208219
vt 0.429768 0.208219
vt 0.429768 0.307292
vt 0.033816 0.488991
vt 0.033816 0.428725
vt 0.059055 0.428725
vt 0.059055 0.488991
vt 0.084294 0.428725
vt 0.084294 0.488991
vt 0.134207 0.325404
vt 0.134207 0.428825
vt 0.131503 0.424148
vt 0.131503 0.330082
vt 0.103043 0.428825
vt 0.105747 0.424148
vt 0.103043 0.325404
vt 0.105747 0.330082
vt 0.204893 0.222082
vt 0.204893 0.316148
vt 0.204354 0.316148
vt 0.204354 0.222082
vt 0.206507 0.332673
vt 0.206507 0.310162
vt 0.207045 0.310162
vt 0.207045 0.332673
vt 0.205431 0.222082
vt 0.205431 0.316148
vt 0.207583 0.310162
vt 0.207583 0.222082
vt 0.208121 0.222082
vt 0.208121 0.310162
vt 0.455524 0.203212
vt 0.455524 0.297278
vt 0.453902 0.294285
vt 0.453902 0.206205
vt 0.429768 0.297278
vt 0.431391 0.294285
vt 0.429768 0.203212
vt 0.431391 0.206205
vt 0.210273 0.273594
vt 0.210273 0.299350
vt 0.209735 0.299350
vt 0.209735 0.273594
vt 0.209197 0.310162
vt 0.209197 0.332673
vt 0.208659 0.332673
vt 0.208659 0.310162
vt 0.208659 0.222082
vt 0.209735 0.325106
vt 0.210273 0.299350
vt 0.210273 0.325106
vt 0.503534 0.982193
vt 0.508113 0.982193
vt 0.508113 0.983280
vt 0.503534 0.983280
vt 0.508113 0.943327
vt 0.503534 0.943327
vt 0.503310 0.529900
vt 0.508777 0.529900
vt 0.508777 0.568766
vt 0.503310 0.568766
vt 0.503534 0.892650
vt 0.503534 0.931378
vt 0.498955 0.931378
vt 0.498955 0.892650
vt 0.499201 0.632135
vt 0.504531 0.630770
vt 0.504853 0.631803
vt 0.499928 0.634466
vt 0.498955 0.890227
vt 0.503534 0.890227
vt 0.498955 0.629682
vt 0.504422 0.629682
vt 0.508531 0.571219
vt 0.503201 0.569853
vt 0.505372 0.632730
vt 0.501098 0.636556
vt 0.507804 0.573549
vt 0.502879 0.570887
vt 0.508113 0.984314
vt 0.503534 0.984314
vt 0.498955 0.887966
vt 0.503534 0.887966
vt 0.069077 0.976779
vt 0.069077 0.981358
vt 0.068298 0.981358
vt 0.068298 0.976779
vt 0.506634 0.575640
vt 0.502360 0.571814
vt 0.508113 0.985241
vt 0.503534 0.985241
vt 0.498955 0.885981
vt 0.503534 0.885981
vt 0.502653 0.638302
vt 0.506062 0.633504
vt 0.506887 0.634087
vt 0.504515 0.639616
vt 0.498955 0.884373
vt 0.503534 0.884373
vt 0.505079 0.577386
vt 0.501670 0.572588
vt 0.500845 0.573170
vt 0.503217 0.578699
vt 0.501141 0.579515
vt 0.499924 0.573532
vt 0.067407 0.981358
vt 0.067407 0.976779
vt 0.042577 0.982561
vt 0.037998 0.982561
vt 0.037998 0.980874
vt 0.042577 0.980874
vt 0.066449 0.976779
vt 0.066449 0.981358
vt 0.065472 0.981358
vt 0.065472 0.976779
vt 0.037998 0.978914
vt 0.042577 0.978914
vt 0.507808 0.634448
vt 0.506592 0.640431
vt 0.028840 0.982916
vt 0.024261 0.982916
vt 0.024261 0.976779
vt 0.028840 0.976779
vt 0.037998 0.976779
vt 0.042577 0.976779
vt 0.508777 0.634571
vt 0.508777 0.640707
vt 0.498955 0.579791
vt 0.498955 0.573654
vt 0.503534 0.942239
vt 0.508113 0.942239
vt 0.499201 0.588363
vt 0.499928 0.586033
vt 0.504853 0.588695
vt 0.504531 0.589728
vt 0.503534 0.933843
vt 0.498955 0.933843
vt 0.498955 0.590816
vt 0.504422 0.590816
vt 0.503201 0.528812
vt 0.508531 0.527447
vt 0.501098 0.583942
vt 0.505372 0.587768
vt 0.502879 0.527779
vt 0.507804 0.525116
vt 0.503534 0.941206
vt 0.508113 0.941206
vt 0.503534 0.936226
vt 0.498955 0.936226
vt 0.069857 0.976779
vt 0.069857 0.981358
vt 0.502360 0.526852
vt 0.506634 0.523026
vt 0.503534 0.940279
vt 0.508113 0.940279
vt 0.503534 0.938408
vt 0.498955 0.938408
vt 0.502653 0.582196
vt 0.504515 0.580883
vt 0.506887 0.586412
vt 0.506062 0.586994
vt 0.498955 0.940279
vt 0.501670 0.526078
vt 0.505079 0.521280
vt 0.500845 0.525495
vt 0.499924 0.525134
vt 0.501141 0.519151
vt 0.503217 0.519966
vt 0.070748 0.976779
vt 0.070748 0.981358
vt 0.047156 0.976779
vt 0.047156 0.978466
vt 0.042577 0.978466
vt 0.071706 0.976779
vt 0.072682 0.976779
vt 0.072682 0.981358
vt 0.071706 0.981358
vt 0.047156 0.980426
vt 0.042577 0.980426
vt 0.506592 0.580067
vt 0.507808 0.586050
vt 0.015103 0.976779
vt 0.015103 0.982916
vt 0.010524 0.982916
vt 0.010524 0.976779
vt 0.047156 0.982561
vt 0.508777 0.579791
vt 0.508777 0.585928
vt 0.498955 0.525011
vt 0.498955 0.518875
s 0
usemtl stand.001
f 57/134/7 58/135/7 61/136/7 62/137/7
f 77/138/8 78/139/8 79/140/8 80/141/8
f 65/142/8 66/143/8 70/144/8 69/145/8
f 60/146/9 57/147/9 62/148/9 63/149/9
f 58/150/10 59/151/10 64/152/10 61/153/10
f 59/154/11 60/155/11 66/156/11 65/157/11
f 60/155/11 63/158/11 67/159/11 66/156/11
f 63/158/11 64/160/11 68/161/11 67/159/11
f 64/160/11 59/154/11 65/157/11 68/161/11
f 69/162/11 70/163/11 72/164/11 71/165/11
f 67/166/12 68/167/12 71/168/12 72/169/12
f 68/170/9 65/171/9 69/172/9 71/173/9
f 66/173/10 67/172/10 72/174/10 70/175/10
f 62/176/8 61/177/8 74/178/8 73/179/8
f 61/177/8 64/180/8 75/181/8 74/178/8
f 64/180/8 63/182/8 76/183/8 75/181/8
f 63/182/8 62/176/8 73/179/8 76/183/8
f 75/184/7 76/185/7 83/186/7 84/187/7
f 77/188/9 80/189/9 87/190/9 86/191/9
f 73/185/11 74/184/11 81/192/11 82/193/11
f 80/194/11 79/195/11 88/196/11 87/197/11
f 82/198/8 81/199/8 85/200/8 86/201/8
f 81/199/8 84/202/8 88/203/8 85/200/8
f 84/202/8 83/204/8 87/205/8 88/203/8
f 83/204/8 82/198/8 86/201/8 87/205/8
f 76/206/10 73/207/10 82/208/10 83/209/10
f 79/210/10 78/211/10 85/212/10 88/213/10
f 78/214/7 77/213/7 86/197/7 85/196/7
f 74/215/9 75/208/9 84/216/9 81/217/9
s 1
usemtl stand
f 92/218/13 91/219/13 95/220/14 96/221/14
f 123/222/15 91/219/13 92/218/13 124/223/15
f 123/224/7 121/225/7 89/226/7 91/227/7
f 89/228/16 121/229/17 122/230/17 90/231/16
f 94/232/11 96/233/11 100/234/11 98/235/11
f 89/228/16 90/231/16 94/236/18 93/237/18
f 90/238/11 92/239/11 96/233/11 94/232/11
f 91/227/7 89/226/7 93/240/7 95/241/7
f 98/235/11 100/234/11 104/242/11 102/243/11
f 95/241/7 93/240/7 97/244/7 99/245/7
f 96/221/14 95/220/14 99/246/19 100/247/19
f 93/237/18 94/236/18 98/248/20 97/249/20
f 104/250/21 103/251/21 107/252/22 108/253/22
f 99/245/7 97/244/7 101/254/7 103/255/7
f 100/247/19 99/246/19 103/256/21 104/257/21
f 97/249/20 98/248/20 102/258/23 101/259/23
f 106/260/11 108/261/11 112/262/11 110/263/11
f 101/259/23 102/258/23 106/264/24 105/265/24
f 102/243/11 104/242/11 108/261/11 106/260/11
f 103/255/7 101/254/7 105/266/7 107/267/7
f 111/268/7 109/269/7 113/270/7 115/271/7
f 107/267/7 105/266/7 109/269/7 111/268/7
f 108/253/22 107/252/22 111/272/25 112/273/25
f 105/274/24 106/275/24 110/276/26 109/277/26
f 116/278/27 115/279/27 119/280/28 120/281/28
f 112/273/25 111/272/25 115/279/27 116/278/27
f 109/277/26 110/276/26 114/282/29 113/283/29
f 110/263/11 112/262/11 116/284/11 114/285/11
f 117/286/12 118/287/12 120/288/12 119/289/12
f 113/283/29 114/282/29 118/290/30 117/291/30
f 114/285/11 116/284/11 120/292/11 118/293/11
f 115/271/7 113/270/7 117/294/7 119/295/7
f 124/223/15 128/296/31 127/297/31 123/222/15
f 126/298/11 130/299/11 132/300/11 128/301/11
f 121/229/17 125/302/32 126/303/32 122/230/17
f 122/304/11 126/298/11 128/301/11 124/305/11
f 123/224/7 127/306/7 125/307/7 121/225/7
f 130/299/11 134/308/11 136/309/11 132/300/11
f 127/306/7 131/310/7 129/311/7 125/307/7
f 128/296/31 132/312/33 131/313/33 127/297/31
f 125/302/32 129/314/34 130/315/34 126/303/32
f 136/250/35 140/316/36 139/317/36 135/251/35
f 131/310/7 135/318/7 133/319/7 129/311/7
f 132/312/33 136/320/35 135/321/35 131/313/33
f 129/314/34 133/322/37 134/323/37 130/315/34
f 138/324/11 142/325/11 144/326/11 140/327/11
f 133/322/37 137/320/38 138/328/38 134/323/37
f 134/308/11 138/324/11 140/327/11 136/309/11
f 135/318/7 139/329/7 137/330/7 133/319/7
f 143/331/7 147/332/7 145/333/7 141/334/7
f 139/329/7 143/331/7 141/334/7 137/330/7
f 140/316/36 144/335/39 143/336/39 139/317/36
f 137/337/38 141/338/40 142/339/40 138/291/38
f 148/340/41 152/341/42 151/342/42 147/343/41
f 144/335/39 148/340/41 147/343/41 143/336/39
f 141/338/40 145/344/43 146/345/43 142/339/40
f 142/325/11 146/346/11 148/347/11 144/326/11
f 149/348/12 151/349/12 152/350/12 150/351/12
f 145/344/43 149/352/44 150/274/44 146/345/43
f 146/346/11 150/353/11 152/354/11 148/347/11
f 147/332/7 151/355/7 149/356/7 145/333/7
f 90/238/11 122/304/11 124/305/11 92/239/11
o latch_2
v -0.066000 0.032280 0.286837
v -0.066000 0.032280 -0.286837
v -0.066000 0.239720 -0.286837
v -0.066000 0.239720 0.286837
v 0.294000 0.032280 -0.286837
v 0.294000 0.032280 0.286837
v 0.294000 0.239720 0.286837
v 0.294000 0.239720 -0.286837
v -0.054000 0.239720 -0.274775
v -0.054000 0.239720 0.274775
v 0.282000 0.239720 0.274775
v 0.282000 0.239720 -0.274776
v -0.054000 0.071720 -0.274775
v -0.054000 0.071720 0.274775
v 0.282000 0.071720 -0.274776
v 0.282000 0.071720 0.274775
v 0.294000 0.050280 0.260889
v 0.294000 0.050280 -0.260890
v 0.294000 0.221720 -0.260890
v 0.294000 0.221720 0.260889
v 0.294000 0.061080 0.244288
v 0.294000 0.061080 -0.244288
v 0.294000 0.210920 -0.244288
v 0.294000 0.210920 0.244288
v 0.291000 0.050280 -0.260890
v 0.291000 0.050280 0.260889
v 0.291000 0.221720 0.260889
v 0.291000 0.221720 -0.260890
v 0.291000 0.061080 -0.244288
v 0.291000 0.061080 0.244288
v 0.291000 0.210920 0.244288
v 0.291000 0.210920 -0.244288
v 0.319872 0.128800 0.050926
v 0.319872 0.143200 0.050926
v 0.305472 0.128800 0.050926
v 0.305472 0.143200 0.050926
v 0.319223 0.128800 0.057356
v 0.319223 0.143200 0.057356
v 0.305184 0.128800 0.053777
v 0.305184 0.143200 0.053777
v 0.317310 0.128800 0.063463
v 0.317310 0.143200 0.063463
v 0.304336 0.128800 0.056485
v 0.304336 0.143200 0.056485
v 0.314227 0.128800 0.068941
v 0.314227 0.143200 0.068941
v 0.302969 0.128800 0.058914
v 0.302969 0.143200 0.058914
v 0.310131 0.128800 0.073516
v 0.310131 0.143200 0.073516
v 0.301153 0.128800 0.060943
v 0.301153 0.143200 0.060943
v 0.305225 0.128800 0.076958
v 0.305225 0.143200 0.076958
v 0.298977 0.128800 0.062469
v 0.298977 0.143200 0.062469
v 0.299757 0.128800 0.079095
v 0.299757 0.143200 0.079095
v 0.296553 0.128800 0.063417
v 0.296553 0.143200 0.063417
v 0.294000 0.128800 0.079820
v 0.294000 0.143200 0.079820
v 0.294000 0.128800 0.063738
v 0.294000 0.143200 0.063738
v 0.319872 0.128800 -0.050926
v 0.319872 0.143200 -0.050926
v 0.305472 0.128800 -0.050926
v 0.305472 0.143200 -0.050926
v 0.319223 0.128800 -0.057356
v 0.319223 0.143200 -0.057356
v 0.305184 0.128800 -0.053777
v 0.305184 0.143200 -0.053777
v 0.317310 0.128800 -0.063463
v 0.317310 0.143200 -0.063463
v 0.304336 0.128800 -0.056485
v 0.304336 0.143200 -0.056485
v 0.314227 0.128800 -0.068941
v 0.314227 0.143200 -0.068941
v 0.302969 0.128800 -0.058914
v 0.302969 0.143200 -0.058914
v 0.310131 0.128800 -0.073516
v 0.310131 0.143200 -0.073516
v 0.301152 0.128800 -0.060943
v 0.301152 0.143200 -0.060943
v 0.305225 0.128800 -0.076959
v 0.305225 0.143200 -0.076959
v 0.298977 0.128800 -0.062469
v 0.298977 0.143200 -0.062469
v 0.299757 0.128800 -0.079096
v 0.299757 0.143200 -0.079096
v 0.296553 0.128800 -0.063417
v 0.296553 0.143200 -0.063417
v 0.294000 0.128800 -0.079820
v 0.294000 0.143200 -0.079820
v 0.294000 0.128800 -0.063738
v 0.294000 0.143200 -0.063738
vn -0.0000 -1.0000 -0.0000
vn 1.0000 -0.0000 -0.0000
vn -0.0000 -0.0000 1.0000
vn -0.0000 -0.0000 -1.0000
vn -0.0000 1.0000 -0.0000
vn -1.0000 -0.0000 -0.0000
vn -0.9987 -0.0000 -0.0503
vn -0.9796 -0.0000 -0.2007
vn -0.9987 -0.0000 0.0503
vn 0.9987 -0.0000 0.0502
vn 0.9987 -0.0000 -0.0502
vn 0.9796 -0.0000 0.2007
vn -0.9179 -0.0000 -0.3968
vn 0.9179 -0.0000 0.3968
vn -0.8131 -0.0000 -0.5822
vn -0.6640 -0.0000 -0.7477
vn 0.8131 -0.0000 0.5822
vn 0.6640 -0.0000 0.7477
vn -0.4726 -0.0000 -0.8813
vn 0.4726 -0.0000 0.8813
vn -0.2463 -0.0000 -0.9692
vn -0.1248 -0.0000 -0.9922
vn 0.2463 -0.0000 0.9692
vn 0.1248 -0.0000 0.9922
vn -0.9796 -0.0000 0.2007
vn 0.9796 -0.0000 -0.2007
vn -0.9179 -0.0000 0.3968
vn 0.9179 -0.0000 -0.3968
vn -0.8131 -0.0000 0.5822
vn -0.6640 -0.0000 0.7477
vn 0.8131 -0.0000 -0.5822
vn 0.6640 -0.0000 -0.7477
vn -0.4726 -0.0000 0.8813
vn 0.4726 -0.0000 -0.8813
vn -0.2463 -0.0000 0.9692
vn -0.1248 -0.0000 0.9922
vn 0.2463 -0.0000 -0.9692
vn 0.1248 -0.0000 -0.9922
vt 0.339960 0.219499
vt 0.339960 0.116078
vt 0.404529 0.116078
vt 0.404529 0.219499
vt 0.129231 0.335465
vt 0.129231 0.417555
vt 0.108251 0.417555
vt 0.108251 0.335465
vt 0.427084 0.421993
vt 0.427084 0.322921
vt 0.452323 0.322921
vt 0.452323 0.421993
vt 0.165372 0.424476
vt 0.196536 0.424476
vt 0.196536 0.489046
vt 0.165372 0.489046
vt 0.427084 0.490912
vt 0.395920 0.490912
vt 0.395920 0.426342
vt 0.427084 0.426342
vt 0.404529 0.322921
vt 0.402377 0.320746
vt 0.402377 0.221674
vt 0.339960 0.322921
vt 0.342112 0.320746
vt 0.342112 0.221674
vt 0.395920 0.322921
vt 0.395920 0.421993
vt 0.335655 0.421993
vt 0.335655 0.322921
vt 0.429768 0.109146
vt 0.429768 0.010074
vt 0.455007 0.010074
vt 0.455007 0.109146
vt 0.103043 0.489090
vt 0.103043 0.428825
vt 0.128282 0.428825
vt 0.128282 0.489090
vt 0.153521 0.428825
vt 0.153521 0.489090
vt 0.165372 0.325404
vt 0.165372 0.428825
vt 0.162667 0.424148
vt 0.162667 0.330082
vt 0.134207 0.428825
vt 0.136911 0.424148
vt 0.134207 0.325404
vt 0.136911 0.330082
vt 0.205969 0.222082
vt 0.205969 0.316148
vt 0.205431 0.316148
vt 0.205431 0.222082
vt 0.204893 0.338659
vt 0.204893 0.316148
vt 0.205431 0.316148
vt 0.205431 0.338659
vt 0.206507 0.222082
vt 0.206507 0.316148
vt 0.208659 0.310162
vt 0.208659 0.222082
vt 0.209197 0.222082
vt 0.209197 0.310162
vt 0.478079 0.322921
vt 0.478079 0.416987
vt 0.476457 0.413994
vt 0.476457 0.325914
vt 0.452323 0.416987
vt 0.453946 0.413994
vt 0.452323 0.322921
vt 0.453946 0.325914
vt 0.209735 0.310162
vt 0.209735 0.335918
vt 0.209197 0.335918
vt 0.204354 0.338659
vt 0.204354 0.316148
vt 0.209735 0.222082
vt 0.207045 0.335918
vt 0.207045 0.310162
vt 0.207583 0.310162
vt 0.207583 0.335918
vt 0.508113 0.926287
vt 0.512692 0.926287
vt 0.512692 0.927374
vt 0.508113 0.927374
vt 0.512692 0.887421
vt 0.508113 0.887421
vt 0.503310 0.651733
vt 0.508777 0.651733
vt 0.508777 0.690598
vt 0.503310 0.690598
vt 0.503534 0.948556
vt 0.503534 0.987284
vt 0.498955 0.987284
vt 0.498955 0.948556
vt 0.499201 0.753968
vt 0.504531 0.752603
vt 0.504853 0.753636
vt 0.499928 0.756299
vt 0.498955 0.946133
vt 0.503534 0.946133
vt 0.498955 0.751515
vt 0.504422 0.751515
vt 0.508531 0.693052
vt 0.503201 0.691686
vt 0.505372 0.754563
vt 0.501098 0.758389
vt 0.507804 0.695382
vt 0.502879 0.692720
vt 0.512692 0.928408
vt 0.508113 0.928408
vt 0.498955 0.943872
vt 0.503534 0.943872
vt 0.076287 0.976779
vt 0.076287 0.981358
vt 0.075508 0.981358
vt 0.075508 0.976779
vt 0.506634 0.697473
vt 0.502360 0.693646
vt 0.512692 0.929335
vt 0.508113 0.929335
vt 0.498955 0.941887
vt 0.503534 0.941887
vt 0.502653 0.760135
vt 0.506062 0.755337
vt 0.506887 0.755919
vt 0.504515 0.761448
vt 0.498955 0.940279
vt 0.503534 0.940279
vt 0.505079 0.699218
vt 0.501670 0.694421
vt 0.500845 0.695003
vt 0.503217 0.700532
vt 0.501141 0.701347
vt 0.499924 0.695365
vt 0.074617 0.981358
vt 0.074617 0.976779
vt 0.051735 0.982561
vt 0.047156 0.982561
vt 0.047156 0.980874
vt 0.051735 0.980874
vt 0.073659 0.976779
vt 0.073659 0.981358
vt 0.072682 0.981358
vt 0.072682 0.976779
vt 0.047156 0.978914
vt 0.051735 0.978914
vt 0.507808 0.756281
vt 0.506592 0.762264
vt 0.033419 0.982916
vt 0.028840 0.982916
vt 0.028840 0.976779
vt 0.033419 0.976779
vt 0.047156 0.976779
vt 0.051735 0.976779
vt 0.508777 0.756404
vt 0.508777 0.762540
vt 0.498955 0.701624
vt 0.498955 0.695487
vt 0.508113 0.886333
vt 0.512692 0.886333
vt 0.499201 0.710196
vt 0.499928 0.707866
vt 0.504853 0.710528
vt 0.504531 0.711561
vt 0.503534 0.989749
vt 0.498955 0.989749
vt 0.498955 0.712649
vt 0.504422 0.712649
vt 0.503201 0.650645
vt 0.508531 0.649279
vt 0.501098 0.705775
vt 0.505372 0.709601
vt 0.502879 0.649612
vt 0.507804 0.646949
vt 0.508113 0.885300
vt 0.512692 0.885300
vt 0.503534 0.992132
vt 0.498955 0.992132
vt 0.077067 0.976779
vt 0.077067 0.981358
vt 0.502360 0.648685
vt 0.506634 0.644859
vt 0.508113 0.884373
vt 0.512692 0.884373
vt 0.503534 0.994314
vt 0.498955 0.994314
vt 0.502653 0.704029
vt 0.504515 0.702716
vt 0.506887 0.708245
vt 0.506062 0.708827
vt 0.503534 0.996185
vt 0.498955 0.996185
vt 0.501670 0.647911
vt 0.505079 0.643113
vt 0.500845 0.647328
vt 0.499924 0.646967
vt 0.501141 0.640984
vt 0.503217 0.641799
vt 0.077958 0.976779
vt 0.077958 0.981358
vt 0.056314 0.976779
vt 0.056314 0.978466
vt 0.051735 0.978466
vt 0.078916 0.976779
vt 0.079892 0.976779
vt 0.079892 0.981358
vt 0.078916 0.981358
vt 0.056314 0.980426
vt 0.051735 0.980426
vt 0.506592 0.701900
vt 0.507808 0.707883
vt 0.019682 0.976779
vt 0.019682 0.982916
vt 0.015103 0.982916
vt 0.015103 0.976779
vt 0.056314 0.982561
vt 0.508777 0.701624
vt 0.508777 0.707760
vt 0.498955 0.646844
vt 0.498955 0.640707
s 0
usemtl stand.001
f 153/357/45 154/358/45 157/359/45 158/360/45
f 173/361/46 174/362/46 175/363/46 176/364/46
f 161/365/46 162/366/46 166/367/46 165/368/46
f 156/369/47 153/370/47 158/371/47 159/372/47
f 154/373/48 155/374/48 160/375/48 157/376/48
f 155/360/49 156/377/49 162/378/49 161/379/49
f 156/377/49 159/380/49 163/381/49 162/378/49
f 159/380/49 160/357/49 164/382/49 163/381/49
f 160/357/49 155/360/49 161/379/49 164/382/49
f 165/383/49 166/384/49 168/385/49 167/386/49
f 163/387/50 164/388/50 167/389/50 168/390/50
f 164/391/47 161/392/47 165/393/47 167/394/47
f 162/394/48 163/393/48 168/395/48 166/396/48
f 158/397/46 157/398/46 170/399/46 169/400/46
f 157/398/46 160/401/46 171/402/46 170/399/46
f 160/401/46 159/403/46 172/404/46 171/402/46
f 159/403/46 158/397/46 169/400/46 172/404/46
f 171/405/45 172/406/45 179/407/45 180/408/45
f 173/409/47 176/410/47 183/411/47 182/412/47
f 169/406/49 170/405/49 177/413/49 178/414/49
f 176/415/49 175/416/49 184/417/49 183/418/49
f 178/419/46 177/420/46 181/421/46 182/422/46
f 177/420/46 180/423/46 184/424/46 181/421/46
f 180/423/46 179/425/46 183/426/46 184/424/46
f 179/425/46 178/419/46 182/422/46 183/426/46
f 172/427/48 169/428/48 178/429/48 179/418/48
f 175/410/48 174/409/48 181/430/48 184/431/48
f 174/432/45 173/427/45 182/418/45 181/417/45
f 170/433/47 171/434/47 180/435/47 177/436/47
s 1
usemtl stand
f 188/437/51 187/438/51 191/439/52 192/440/52
f 219/441/53 187/438/51 188/437/51 220/442/53
f 219/443/45 217/444/45 185/445/45 187/446/45
f 185/447/54 217/448/55 218/449/55 186/450/54
f 190/451/49 192/452/49 196/453/49 194/454/49
f 185/447/54 186/450/54 190/455/56 189/456/56
f 186/457/49 188/458/49 192/452/49 190/451/49
f 187/446/45 185/445/45 189/459/45 191/460/45
f 194/454/49 196/453/49 200/461/49 198/462/49
f 191/460/45 189/459/45 193/463/45 195/464/45
f 192/440/52 191/439/52 195/465/57 196/466/57
f 189/456/56 190/455/56 194/467/58 193/468/58
f 200/469/59 199/470/59 203/471/60 204/472/60
f 195/464/45 193/463/45 197/473/45 199/474/45
f 196/466/57 195/465/57 199/475/59 200/476/59
f 193/468/58 194/467/58 198/477/61 197/478/61
f 202/479/49 204/480/49 208/481/49 206/482/49
f 197/478/61 198/477/61 202/483/62 201/484/62
f 198/462/49 200/461/49 204/480/49 202/479/49
f 199/474/45 197/473/45 201/485/45 203/486/45
f 207/487/45 205/488/45 209/489/45 211/490/45
f 203/486/45 201/485/45 205/488/45 207/487/45
f 204/472/60 203/471/60 207/491/63 208/492/63
f 201/493/62 202/494/62 206/495/64 205/496/64
f 212/497/65 211/498/65 215/499/66 216/500/66
f 208/492/63 207/491/63 211/498/65 212/497/65
f 205/496/64 206/495/64 210/501/67 209/502/67
f 206/482/49 208/481/49 212/503/49 210/504/49
f 213/505/50 214/506/50 216/507/50 215/508/50
f 209/502/67 210/501/67 214/509/68 213/510/68
f 210/504/49 212/503/49 216/511/49 214/512/49
f 211/490/45 209/489/45 213/513/45 215/514/45
f 220/442/53 224/515/69 223/516/69 219/441/53
f 222/517/49 226/518/49 228/519/49 224/520/49
f 217/448/55 221/521/70 222/522/70 218/449/55
f 218/523/49 222/517/49 224/520/49 220/524/49
f 219/443/45 223/525/45 221/526/45 217/444/45
f 226/518/49 230/527/49 232/528/49 228/519/49
f 223/525/45 227/529/45 225/530/45 221/526/45
f 224/515/69 228/531/71 227/532/71 223/516/69
f 221/521/70 225/533/72 226/534/72 222/522/70
f 232/469/73 236/535/74 235/536/74 231/470/73
f 227/529/45 231/537/45 229/538/45 225/530/45
f 228/531/71 232/539/73 231/540/73 227/532/71
f 225/533/72 229/541/75 230/542/75 226/534/72
f 234/543/49 238/544/49 240/545/49 236/546/49
f 229/541/75 233/547/76 234/548/76 230/542/75
f 230/527/49 234/543/49 236/546/49 232/528/49
f 231/537/45 235/549/45 233/550/45 229/538/45
f 239/551/45 243/552/45 241/553/45 237/554/45
f 235/549/45 239/551/45 237/554/45 233/550/45
f 236/535/74 240/555/77 239/556/77 235/536/74
f 233/557/76 237/558/78 238/559/78 234/510/76
f 244/560/79 248/561/80 247/562/80 243/563/79
f 240/555/77 244/560/79 243/563/79 239/556/77
f 237/558/78 241/564/81 242/565/81 238/559/78
f 238/544/49 242/566/49 244/567/49 240/545/49
f 245/568/50 247/569/50 248/570/50 246/571/50
f 241/564/81 245/572/82 246/493/82 242/565/81
f 242/566/49 246/573/49 248/574/49 244/567/49
f 243/552/45 247/575/45 245/576/45 241/553/45
f 186/457/49 218/523/49 220/524/49 188/458/49
o latch_3
v -0.066000 0.256280 0.286837
v -0.066000 0.256280 -0.286837
v -0.066000 0.463720 -0.286837
v -0.066000 0.463720 0.286837
v 0.294000 0.256280 -0.286837
v 0.294000 0.256280 0.286837
v 0.294000 0.463720 0.286837
v 0.294000 0.463720 -0.286837
v -0.054000 0.463720 -0.274775
v -0.054000 0.463720 0.274775
v 0.282000 0.463720 0.274775
v 0.282000 0.463720 -0.274776
v -0.054000 0.295720 -0.274775
v -0.054000 0.295720 0.274775
v 0.282000 0.295720 -0.274776
v 0.282000 0.295720 0.274775
v 0.294000 0.274280 0.260889
v 0.294000 0.274280 -0.260890
v 0.294000 0.445720 -0.260890
v 0.294000 0.445720 0.260889
v 0.294000 0.285080 0.244288
v 0.294000 0.285080 -0.244288
v 0.294000 0.434920 -0.244288
v 0.294000 0.434920 0.244288
v 0.291000 0.274280 -0.260890
v 0.291000 0.274280 0.260889
v 0.291000 0.445720 0.260889
v 0.291000 0.445720 -0.260890
v 0.291000 0.285080 -0.244288
v 0.291000 0.285080 0.244288
v 0.291000 0.434920 0.244288
v 0.291000 0.434920 -0.244288
v 0.319872 0.352800 0.050926
v 0.319872 0.367200 0.050926
v 0.305472 0.352800 0.050926
v 0.305472 0.367200 0.050926
v 0.319223 0.352800 0.057356
v 0.319223 0.367200 0.057356
v 0.305184 0.352800 0.053777
v 0.305184 0.367200 0.053777
v 0.317310 0.352800 0.063463
v 0.317310 0.367200 0.063463
v 0.304336 0.352800 0.056485
v 0.304336 0.367200 0.056485
v 0.314227 0.352800 0.068941
v 0.314227 0.367200 0.068941
v 0.302969 0.352800 0.058914
v 0.302969 0.367200 0.058914
v 0.310131 0.352800 0.073516
v 0.310131 0.367200 0.073516
v 0.301153 0.352800 0.060943
v 0.301153 0.367200 0.060943
v 0.305225 0.352800 0.076958
v 0.305225 0.367200 0.076958
v 0.298977 0.352800 0.062469
v 0.298977 0.367200 0.062469
v 0.299757 0.352800 0.079095
v 0.299757 0.367200 0.079095
v 0.296553 0.352800 0.063417
v 0.296553 0.367200 0.063417
v 0.294000 0.352800 0.079820
v 0.294000 0.367200 0.079820
v 0.294000 0.352800 0.063738
v 0.294000 0.367200 0.063738
v 0.319872 0.352800 -0.050926
v 0.319872 0.367200 -0.050926
v 0.305472 0.352800 -0.050926
v 0.305472 0.367200 -0.050926
v 0.319223 0.352800 -0.057356
v 0.319223 0.367200 -0.057356
v 0.305184 0.352800 -0.053777
v 0.305184 0.367200 -0.053777
v 0.317310 0.352800 -0.063463
v 0.317310 0.367200 -0.063463
v 0.304336 0.352800 -0.056485
v 0.304336 0.367200 -0.056485
v 0.314227 0.352800 -0.068941
v 0.314227 0.367200 -0.068941
v 0.302969 0.352800 -0.058914
v 0.302969 0.367200 -0.058914
v 0.310131 0.352800 -0.073516
v 0.310131 0.367200 -0.073516
v 0.301152 0.352800 -0.060943
v 0.301152 0.367200 -0.060943
v 0.305225 0.352800 -0.076959
v 0.305225 0.367200 -0.076959
v 0.298977 0.352800 -0.062469
v 0.298977 0.367200 -0.062469
v 0.299757 0.352800 -0.079096
v 0.299757 0.367200 -0.079096
v 0.296553 0.352800 -0.063417
v 0.296553 0.367200 -0.063417
v 0.294000 0.352800 -0.079820
v 0.294000 0.367200 -0.079820
v 0.294000 0.352800 -0.063738
v 0.294000 0.367200 -0.063738
vn -0.0000 -1.0000 -0.0000
vn 1.0000 -0.0000 -0.0000
vn -0.0000 -0.0000 1.0000
vn -0.0000 -0.0000 -1.0000
vn -0.0000 1.0000 -0.0000
vn -1.0000 -0.0000 -0.0000
vn -0.9987 -0.0000 -0.0503
vn -0.9796 -0.0000 -0.2007
vn -0.9987 -0.0000 0.0503
vn 0.9987 -0.0000 0.0502
vn 0.9987 -0.0000 -0.0502
vn 0.9796 -0.0000 0.2007
vn -0.9179 -0.0000 -0.3968
vn 0.9179 -0.0000 0.3968
vn -0.8131 -0.0000 -0.5822
vn -0.6640 -0.0000 -0.7477
vn 0.8131 -0.0000 0.5822
vn 0.6640 -0.0000 0.7477
vn -0.4726 -0.0000 -0.8813
vn 0.4726 -0.0000 0.8813
vn -0.2463 -0.0000 -0.9692
vn -0.1248 -0.0000 -0.9922
vn 0.2463 -0.0000 0.9692
vn 0.1248 -0.0000 0.9922
vn -0.9796 -0.0000 0.2007
vn 0.9796 -0.0000 -0.2007
vn -0.9179 -0.0000 0.3968
vn 0.9179 -0.0000 -0.3968
vn -0.8131 -0.0000 0.5822
vn -0.6640 -0.0000 0.7477
vn 0.8131 -0.0000 -0.5822
vn 0.6640 -0.0000 -0.7477
vn -0.4726 -0.0000 0.8813
vn 0.4726 -0.0000 -0.8813
vn -0.2463 -0.0000 0.9692
vn -0.1248 -0.0000 0.9922
vn 0.2463 -0.0000 -0.9692
vn 0.1248 -0.0000 -0.9922
vt 0.275390 0.113495
vt 0.275390 0.010074
vt 0.339960 0.010074
vt 0.339960 0.113495
vt 0.480438 0.080315
vt 0.480438 0.168395
vt 0.457927 0.168395
vt 0.457927 0.080315
vt 0.165372 0.424476
vt 0.165372 0.325404
vt 0.190611 0.325404
vt 0.190611 0.424476
vt 0.455007 0.010074
vt 0.486172 0.010074
vt 0.486172 0.074643
vt 0.455007 0.074643
vt 0.139400 0.172831
vt 0.113549 0.172831
vt 0.113549 0.119271
vt 0.139400 0.119271
vt 0.339960 0.116078
vt 0.339960 0.219499
vt 0.337807 0.217325
vt 0.337807 0.118252
vt 0.275390 0.219499
vt 0.277542 0.217325
vt 0.275390 0.116078
vt 0.277542 0.118252
vt 0.270754 0.322721
vt 0.270754 0.421794
vt 0.210489 0.421794
vt 0.210489 0.322721
vt 0.404529 0.109146
vt 0.404529 0.010074
vt 0.429768 0.010074
vt 0.429768 0.109146
vt 0.427084 0.482258
vt 0.427084 0.421993
vt 0.452323 0.421993
vt 0.452323 0.482258
vt 0.008577 0.488990
vt 0.008577 0.428725
vt 0.033816 0.428725
vt 0.033816 0.488991
vt 0.427084 0.322921
vt 0.427084 0.426342
vt 0.424380 0.421665
vt 0.424380 0.327599
vt 0.395920 0.426342
vt 0.398624 0.421665
vt 0.395920 0.322921
vt 0.398624 0.327599
vt 0.203816 0.222082
vt 0.203816 0.316148
vt 0.203278 0.316148
vt 0.203278 0.222082
vt 0.207583 0.332673
vt 0.207583 0.310162
vt 0.208121 0.310162
vt 0.208121 0.332673
vt 0.204354 0.222082
vt 0.204354 0.316148
vt 0.206507 0.310162
vt 0.206507 0.222082
vt 0.207045 0.222082
vt 0.207045 0.310162
vt 0.455524 0.109146
vt 0.455524 0.203212
vt 0.453902 0.200219
vt 0.453902 0.112139
vt 0.429768 0.203212
vt 0.431391 0.200219
vt 0.431391 0.112139
vt 0.210273 0.222082
vt 0.210273 0.247838
vt 0.209735 0.247838
vt 0.209735 0.222082
vt 0.208659 0.310162
vt 0.208659 0.332673
vt 0.207583 0.222082
vt 0.209735 0.273594
vt 0.210273 0.247838
vt 0.210273 0.273594
vt 0.508113 0.971249
vt 0.512692 0.971249
vt 0.512692 0.972336
vt 0.508113 0.972336
vt 0.512692 0.932383
vt 0.508113 0.932383
vt 0.503310 0.773566
vt 0.508777 0.773566
vt 0.508777 0.812431
vt 0.503310 0.812431
vt 0.508113 0.892650
vt 0.508113 0.931378
vt 0.503534 0.931378
vt 0.503534 0.892650
vt 0.499201 0.875801
vt 0.504531 0.874435
vt 0.504853 0.875469
vt 0.499928 0.878131
vt 0.503534 0.890227
vt 0.508113 0.890227
vt 0.498955 0.873347
vt 0.504422 0.873347
vt 0.508531 0.814885
vt 0.503201 0.813519
vt 0.505372 0.876396
vt 0.501098 0.880222
vt 0.507804 0.817215
vt 0.502879 0.814552
vt 0.512692 0.973370
vt 0.508113 0.973370
vt 0.503534 0.887966
vt 0.508113 0.887966
vt 0.083498 0.976779
vt 0.083498 0.981358
vt 0.082718 0.981358
vt 0.082718 0.976779
vt 0.506634 0.819306
vt 0.502360 0.815479
vt 0.512692 0.974297
vt 0.508113 0.974297
vt 0.503534 0.885981
vt 0.508113 0.885981
vt 0.502653 0.881968
vt 0.506062 0.877170
vt 0.506887 0.877752
vt 0.504515 0.883281
vt 0.503534 0.884373
vt 0.508113 0.884373
vt 0.505079 0.821051
vt 0.501670 0.816253
vt 0.500845 0.816836
vt 0.503217 0.822365
vt 0.501141 0.823180
vt 0.499924 0.817197
vt 0.081827 0.981358
vt 0.081827 0.976779
vt 0.060893 0.982561
vt 0.056314 0.982561
vt 0.056314 0.980874
vt 0.060893 0.980874
vt 0.080869 0.976779
vt 0.080869 0.981358
vt 0.079892 0.981358
vt 0.079892 0.976779
vt 0.056314 0.978914
vt 0.060893 0.978914
vt 0.507808 0.878114
vt 0.506592 0.884097
vt 0.037998 0.982916
vt 0.033419 0.982916
vt 0.033419 0.976779
vt 0.037998 0.976779
vt 0.056314 0.976779
vt 0.060893 0.976779
vt 0.508777 0.878236
vt 0.508777 0.884373
vt 0.498955 0.823457
vt 0.498955 0.817320
vt 0.508113 0.931295
vt 0.512692 0.931295
vt 0.499201 0.832029
vt 0.499928 0.829698
vt 0.504853 0.832361
vt 0.504531 0.833394
vt 0.508113 0.933843
vt 0.503534 0.933843
vt 0.498955 0.834482
vt 0.504422 0.834482
vt 0.503201 0.772478
vt 0.508531 0.771112
vt 0.501098 0.827608
vt 0.505372 0.831434
vt 0.502879 0.771445
vt 0.507804 0.768782
vt 0.508113 0.930262
vt 0.512692 0.930262
vt 0.508113 0.936226
vt 0.503534 0.936226
vt 0.084277 0.976779
vt 0.084277 0.981358
vt 0.502360 0.770518
vt 0.506634 0.766691
vt 0.508113 0.929335
vt 0.512692 0.929335
vt 0.508113 0.938408
vt 0.503534 0.938408
vt 0.502653 0.825862
vt 0.504515 0.824548
vt 0.506887 0.830077
vt 0.506062 0.830660
vt 0.508113 0.940279
vt 0.503534 0.940279
vt 0.501670 0.769743
vt 0.505079 0.764946
vt 0.500845 0.769161
vt 0.499924 0.768799
vt 0.501141 0.762817
vt 0.503217 0.763632
vt 0.085168 0.976779
vt 0.085168 0.981358
vt 0.065472 0.976779
vt 0.065472 0.978466
vt 0.060893 0.978466
vt 0.086126 0.976779
vt 0.087103 0.976779
vt 0.087103 0.981358
vt 0.086126 0.981358
vt 0.065472 0.980426
vt 0.060893 0.980426
vt 0.506592 0.823733
vt 0.507808 0.829716
vt 0.024261 0.976779
vt 0.024261 0.982916
vt 0.019682 0.982916
vt 0.019682 0.976779
vt 0.065472 0.982561
vt 0.508777 0.823457
vt 0.508777 0.829593
vt 0.498955 0.768677
vt 0.498955 0.762540
s 0
usemtl stand
f 249/577/83 250/578/83 253/579/83 254/580/83
f 269/581/84 270/582/84 271/583/84 272/584/84
f 257/585/84 258/586/84 262/587/84 261/588/84
f 252/589/85 249/590/85 254/591/85 255/592/85
f 250/593/86 251/594/86 256/595/86 253/596/86
f 251/597/87 252/598/87 258/599/87 257/600/87
f 252/598/87 255/601/87 259/602/87 258/599/87
f 255/601/87 256/603/87 260/604/87 259/602/87
f 256/603/87 251/597/87 257/600/87 260/604/87
f 261/605/87 262/606/87 264/607/87 263/608/87
f 259/609/88 260/610/88 263/611/88 264/612/88
f 260/613/85 257/614/85 261/615/85 263/616/85
f 258/617/86 259/618/86 264/619/86 262/620/86
f 254/621/84 253/622/84 266/623/84 265/624/84
f 253/622/84 256/625/84 267/626/84 266/623/84
f 256/625/84 255/627/84 268/628/84 267/626/84
f 255/627/84 254/621/84 265/624/84 268/628/84
f 267/629/83 268/630/83 275/631/83 276/632/83
f 269/633/85 272/634/85 279/635/85 278/636/85
f 265/630/87 266/629/87 273/637/87 274/638/87
f 272/639/87 271/640/87 280/641/87 279/642/87
f 274/643/84 273/644/84 277/645/84 278/646/84
f 273/644/84 276/647/84 280/648/84 277/645/84
f 276/647/84 275/612/84 279/649/84 280/648/84
f 275/612/84 274/643/84 278/646/84 279/649/84
f 268/650/86 265/651/86 274/652/86 275/653/86
f 271/654/86 270/655/86 277/636/86 280/635/86
f 270/656/83 269/634/83 278/642/83 277/641/83
f 266/657/85 267/652/85 276/658/85 273/659/85
s 1
f 284/660/89 283/661/89 287/662/90 288/663/90
f 315/664/91 283/661/89 284/660/89 316/665/91
f 315/666/83 313/667/83 281/668/83 283/669/83
f 281/670/92 313/671/93 314/672/93 282/673/92
f 286/674/87 288/675/87 292/676/87 290/677/87
f 281/670/92 282/673/92 286/678/94 285/679/94
f 282/680/87 284/681/87 288/675/87 286/674/87
f 283/669/83 281/668/83 285/682/83 287/683/83
f 290/677/87 292/676/87 296/684/87 294/685/87
f 287/683/83 285/682/83 289/686/83 291/687/83
f 288/663/90 287/662/90 291/688/95 292/689/95
f 285/679/94 286/678/94 290/690/96 289/691/96
f 296/692/97 295/693/97 299/694/98 300/695/98
f 291/687/83 289/686/83 293/696/83 295/697/83
f 292/689/95 291/688/95 295/698/97 296/699/97
f 289/691/96 290/690/96 294/700/99 293/701/99
f 298/702/87 300/703/87 304/704/87 302/705/87
f 293/701/99 294/700/99 298/706/100 297/707/100
f 294/685/87 296/684/87 300/703/87 298/702/87
f 295/697/83 293/696/83 297/708/83 299/709/83
f 303/710/83 301/711/83 305/712/83 307/713/83
f 299/709/83 297/708/83 301/711/83 303/710/83
f 300/695/98 299/694/98 303/714/101 304/715/101
f 297/716/100 298/717/100 302/718/102 301/719/102
f 308/720/103 307/721/103 311/722/104 312/723/104
f 304/715/101 303/714/101 307/721/103 308/720/103
f 301/719/102 302/718/102 306/724/105 305/725/105
f 302/705/87 304/704/87 308/726/87 306/727/87
f 309/728/88 310/729/88 312/730/88 311/731/88
f 305/725/105 306/724/105 310/732/106 309/733/106
f 306/727/87 308/726/87 312/734/87 310/735/87
f 307/713/83 305/712/83 309/736/83 311/737/83
f 316/665/91 320/738/107 319/739/107 315/664/91
f 318/740/87 322/741/87 324/742/87 320/743/87
f 313/671/93 317/744/108 318/745/108 314/672/93
f 314/746/87 318/740/87 320/743/87 316/747/87
f 315/666/83 319/748/83 317/749/83 313/667/83
f 322/741/87 326/750/87 328/751/87 324/742/87
f 319/748/83 323/752/83 321/753/83 317/749/83
f 320/738/107 324/754/109 323/755/109 319/739/107
f 317/744/108 321/756/110 322/757/110 318/745/108
f 328/692/111 332/758/112 331/759/112 327/693/111
f 323/752/83 327/760/83 325/761/83 321/753/83
f 324/754/109 328/762/111 327/763/111 323/755/109
f 321/756/110 325/764/113 326/765/113 322/757/110
f 330/766/87 334/767/87 336/768/87 332/769/87
f 325/764/113 329/770/114 330/771/114 326/765/113
f 326/750/87 330/766/87 332/769/87 328/751/87
f 327/760/83 331/772/83 329/773/83 325/761/83
f 335/774/83 339/775/83 337/776/83 333/777/83
f 331/772/83 335/774/83 333/777/83 329/773/83
f 332/758/112 336/778/115 335/779/115 331/759/112
f 329/780/114 333/781/116 334/782/116 330/733/114
f 340/783/117 344/784/118 343/785/118 339/786/117
f 336/778/115 340/783/117 339/786/117 335/779/115
f 333/781/116 337/787/119 338/788/119 334/782/116
f 334/767/87 338/789/87 340/790/87 336/768/87
f 341/791/88 343/792/88 344/793/88 342/794/88
f 337/787/119 341/795/120 342/716/120 338/788/119
f 338/789/87 342/796/87 344/797/87 340/790/87
f 339/775/83 343/798/83 341/799/83 337/776/83
f 282/680/87 314/746/87 316/747/87 284/681/87
