# Blender 5.0.0
# www.blender.org
mtllib jerrycan.mtl
o jerrycan
v -0.011585 0.256414 -0.130626
v 0.011585 0.256414 -0.130626
v 0.011585 0.256414 0.130626
v -0.011585 0.256414 0.130626
v 0.011585 0.000000 -0.103913
v -0.011585 0.000000 -0.103913
v -0.011585 0.003579 -0.117270
v 0.011585 0.003579 -0.117270
v -0.011585 0.013357 -0.127048
v 0.011585 0.013357 -0.127048
v -0.011585 0.026713 -0.130626
v 0.011585 0.026713 -0.130626
v -0.011585 0.000000 0.103913
v 0.011585 0.000000 0.103913
v 0.011585 0.003579 0.117270
v -0.011585 0.003579 0.117270
v 0.011585 0.013357 0.127048
v -0.011585 0.013357 0.127048
v 0.011585 0.026713 0.130626
v -0.011585 0.026713 0.130626
v -0.011585 0.315301 -0.130626
v 0.011585 0.315301 -0.130626
v 0.011585 0.312120 0.070170
v -0.011585 0.312120 0.070170
v -0.011585 0.315301 -0.020452
v 0.011585 0.315301 -0.020452
v 0.011585 0.319905 -0.030918
v -0.011585 0.319905 -0.030918
v 0.011585 0.325737 -0.040358
v -0.011585 0.325737 -0.040358
v 0.011585 0.332182 -0.049139
v -0.011585 0.332182 -0.049139
v 0.011585 0.339132 -0.057280
v -0.011585 0.339132 -0.057280
v 0.011585 0.346604 -0.064648
v -0.011585 0.346604 -0.064648
v 0.011585 0.354889 -0.084920
v -0.011585 0.354889 -0.084920
v -0.011585 0.352463 -0.072994
v 0.011585 0.352463 -0.072994
v -0.011585 0.354889 -0.109377
v 0.011585 0.354889 -0.109377
v 0.011585 0.352042 -0.120002
v -0.011585 0.352042 -0.120002
v 0.011585 0.344265 -0.127780
v -0.011585 0.344265 -0.127780
v 0.011585 0.333640 -0.130626
v -0.011585 0.333640 -0.130626
v -0.011585 0.315301 0.060060
v 0.011585 0.315301 0.060060
v -0.011585 0.296199 -0.130626
v 0.011585 0.296199 -0.130626
v 0.011585 0.296199 0.098808
v -0.011585 0.296199 0.098808
v 0.011585 0.276307 0.127922
v -0.011585 0.276307 0.127922
v -0.011585 0.276307 -0.130626
v 0.011585 0.276307 -0.130626
v 0.011585 0.286304 0.115836
v -0.011585 0.286304 0.115836
v -0.011585 0.286304 -0.130626
v 0.011585 0.286304 -0.130626
v -0.011585 0.266361 -0.130626
v 0.011585 0.266361 -0.130626
v 0.011585 0.266361 0.130388
v -0.011585 0.266361 0.130388
v -0.011585 0.281305 -0.130626
v 0.011585 0.281305 -0.130626
v 0.011585 0.281305 0.123311
v -0.011585 0.281305 0.123311
v 0.011585 0.354889 0.027108
v -0.011585 0.354889 0.027108
v 0.011585 0.351299 0.034474
v -0.011585 0.351299 0.034474
v 0.011585 0.347156 0.038433
v -0.011585 0.347156 0.038433
v 0.011585 0.315301 0.057394
v -0.011585 0.315301 0.057394
v 0.011585 0.315301 0.035010
v -0.011585 0.315301 0.035010
v 0.011585 0.335653 0.022990
v -0.011585 0.335653 0.022990
v -0.011585 0.335657 -0.053209
v 0.011585 0.335657 -0.053209
v -0.000000 0.305265 0.082519
v -0.000000 0.309756 0.085112
v 0.008560 0.303492 0.085590
v 0.008560 0.307983 0.088183
v 0.012106 0.299212 0.093003
v 0.012106 0.303703 0.095596
v 0.008560 0.294931 0.100417
v 0.008560 0.299423 0.103010
v -0.000000 0.293159 0.103487
v -0.000000 0.297650 0.106081
v -0.008560 0.294931 0.100417
v -0.008560 0.299423 0.103010
v -0.012106 0.299212 0.093003
v -0.012106 0.303703 0.095596
v -0.008560 0.303492 0.085590
v -0.008560 0.307983 0.088183
v -0.000000 0.311911 0.081379
v 0.011608 0.309507 0.085543
v 0.016416 0.303703 0.095596
v 0.011608 0.297899 0.105649
v -0.000000 0.295495 0.109813
v -0.011608 0.297899 0.105649
v -0.016416 0.303703 0.095596
v -0.011608 0.309507 0.085543
v -0.000000 0.321600 0.086973
v -0.000000 0.319905 0.091950
v -0.000000 0.321696 0.087827
v -0.000000 0.321076 0.089648
v 0.007961 0.318256 0.094806
v 0.011608 0.319196 0.091137
v 0.009785 0.319050 0.093158
v 0.011119 0.319394 0.091816
v 0.011259 0.314276 0.101700
v 0.016416 0.313392 0.101190
v 0.013838 0.314157 0.101632
v 0.015725 0.313834 0.101445
v 0.007961 0.310295 0.108595
v 0.011608 0.307588 0.111243
v 0.009785 0.309265 0.110106
v 0.011119 0.308274 0.111075
v 0.000000 0.308646 0.111451
v -0.000000 0.305184 0.115407
v -0.000000 0.307239 0.113616
v -0.000000 0.305971 0.115064
v -0.007961 0.310295 0.108595
v -0.011608 0.307588 0.111243
v -0.009785 0.309265 0.110106
v -0.011119 0.308274 0.111075
v -0.011259 0.314276 0.101700
v -0.016416 0.313392 0.101190
v -0.013838 0.314157 0.101632
v -0.015725 0.313834 0.101445
v -0.007961 0.318256 0.094806
v -0.011608 0.319196 0.091137
v -0.009785 0.319050 0.093158
v -0.011119 0.319394 0.091816
v -0.034755 0.256408 0.124555
v -0.031267 0.256414 0.130626
v -0.034288 0.256411 0.127591
v -0.033011 0.256414 0.129813
v -0.034755 0.256414 -0.124555
v -0.031267 0.256414 -0.130626
v -0.034288 0.256414 -0.127591
v -0.033011 0.256414 -0.129813
v 0.034755 0.256408 0.124555
v 0.031267 0.256414 0.130626
v 0.034288 0.256411 0.127591
v 0.033011 0.256414 0.129813
v 0.034755 0.256414 -0.124555
v 0.031267 0.256414 -0.130626
v 0.034288 0.256414 -0.127591
v 0.033011 0.256414 -0.129813
v -0.034755 0.006071 0.103114
v -0.031267 0.000000 0.103913
v -0.034288 0.003036 0.103514
v -0.033011 0.000813 0.103806
v -0.034755 0.027512 0.124555
v -0.031267 0.026713 0.130626
v -0.034288 0.027113 0.127591
v -0.033011 0.026820 0.129813
v -0.034755 0.009022 0.114127
v -0.031267 0.003579 0.117270
v -0.034288 0.006300 0.115699
v -0.033011 0.004308 0.116849
v -0.034755 0.016499 0.121604
v -0.031267 0.013357 0.127048
v -0.034288 0.014928 0.124326
v -0.033011 0.013778 0.126318
v -0.034755 0.027512 -0.124555
v -0.031267 0.026713 -0.130626
v -0.034288 0.027113 -0.127591
v -0.033011 0.026820 -0.129813
v -0.034755 0.006071 -0.103114
v -0.031267 0.000000 -0.103913
v -0.034288 0.003036 -0.103514
v -0.033011 0.000813 -0.103806
v -0.034755 0.016499 -0.121604
v -0.031267 0.013357 -0.127048
v -0.034288 0.014928 -0.124326
v -0.033011 0.013778 -0.126318
v -0.034755 0.009022 -0.114127
v -0.031267 0.003579 -0.117270
v -0.034288 0.006300 -0.115699
v -0.033011 0.004308 -0.116849
v 0.034755 0.027512 0.124555
v 0.031267 0.026713 0.130626
v 0.034288 0.027113 0.127591
v 0.033011 0.026820 0.129813
v 0.034755 0.006071 0.103114
v 0.031267 0.000000 0.103913
v 0.034288 0.003036 0.103514
v 0.033011 0.000813 0.103806
v 0.034755 0.016499 0.121604
v 0.031267 0.013357 0.127048
v 0.034288 0.014928 0.124326
v 0.033011 0.013778 0.126318
v 0.034755 0.009022 0.114127
v 0.031267 0.003579 0.117270
v 0.034288 0.006300 0.115699
v 0.033011 0.004308 0.116849
v 0.034755 0.006071 -0.103114
v 0.031267 0.000000 -0.103913
v 0.034288 0.003036 -0.103514
v 0.033011 0.000813 -0.103806
v 0.034755 0.027512 -0.124555
v 0.031267 0.026713 -0.130626
v 0.034288 0.027113 -0.127591
v 0.033011 0.026820 -0.129813
v 0.034755 0.009022 -0.114127
v 0.031267 0.003579 -0.117270
v 0.034288 0.006300 -0.115699
v 0.033011 0.004308 -0.116849
v 0.034755 0.016499 -0.121604
v 0.031267 0.013357 -0.127048
v 0.034288 0.014928 -0.124326
v 0.033011 0.013778 -0.126318
v -0.034755 0.306514 0.067760
v -0.031267 0.312120 0.070170
v -0.034288 0.309317 0.068965
v -0.033011 0.311368 0.069847
v -0.031267 0.315301 -0.130626
v -0.034755 0.315301 -0.124555
v -0.033011 0.315301 -0.129813
v -0.034288 0.315301 -0.127591
v 0.031267 0.312120 0.070170
v 0.034755 0.306514 0.067760
v 0.033011 0.311368 0.069847
v 0.034288 0.309317 0.068965
v 0.034755 0.315301 -0.124555
v 0.031267 0.315301 -0.130626
v 0.034288 0.315301 -0.127591
v 0.033011 0.315301 -0.129813
v -0.031267 0.315301 -0.020452
v -0.034755 0.309230 -0.021728
v -0.033011 0.314488 -0.020623
v -0.034288 0.312266 -0.021090
v 0.034755 0.309230 -0.021728
v 0.031267 0.315301 -0.020452
v 0.034288 0.312266 -0.021090
v 0.033011 0.314488 -0.020623
v -0.034755 0.314518 -0.033750
v -0.031267 0.319905 -0.030918
v -0.034288 0.317212 -0.032334
v -0.033011 0.319184 -0.031298
v -0.034755 0.320699 -0.043755
v -0.031267 0.325737 -0.040358
v -0.034288 0.323218 -0.042056
v -0.033011 0.325062 -0.040813
v -0.034755 0.327419 -0.052911
v -0.031267 0.332182 -0.049139
v -0.034288 0.329801 -0.051025
v -0.033011 0.331544 -0.049644
v -0.034755 0.334684 -0.061420
v -0.031267 0.339132 -0.057280
v -0.034288 0.336908 -0.059350
v -0.033011 0.338536 -0.057835
v -0.034755 0.341950 -0.068585
v -0.031267 0.346604 -0.064648
v -0.034288 0.344277 -0.066616
v -0.033011 0.345981 -0.065175
v 0.034755 0.341950 -0.068585
v 0.031267 0.346604 -0.064648
v 0.034288 0.344277 -0.066616
v 0.033011 0.345981 -0.065175
v 0.034755 0.334684 -0.061420
v 0.031267 0.339132 -0.057280
v 0.034288 0.336908 -0.059350
v 0.033011 0.338536 -0.057835
v 0.034755 0.327419 -0.052911
v 0.031267 0.332182 -0.049139
v 0.034288 0.329801 -0.051025
v 0.033011 0.331544 -0.049644
v 0.034755 0.320699 -0.043755
v 0.031267 0.325737 -0.040358
v 0.034288 0.323218 -0.042056
v 0.033011 0.325062 -0.040813
v 0.031267 0.319905 -0.030918
v 0.034755 0.314518 -0.033750
v 0.033011 0.319184 -0.031298
v 0.034288 0.317212 -0.032334
v -0.034755 0.348818 -0.085532
v -0.031267 0.354889 -0.084920
v -0.034288 0.351854 -0.085226
v -0.033011 0.354076 -0.085002
v -0.034755 0.346766 -0.075446
v -0.031267 0.352463 -0.072994
v -0.034288 0.349614 -0.074220
v -0.033011 0.351699 -0.073323
v 0.034755 0.348818 -0.085532
v 0.031267 0.354889 -0.084920
v 0.034288 0.351854 -0.085226
v 0.033011 0.354076 -0.085002
v 0.034755 0.346766 -0.075446
v 0.031267 0.352463 -0.072994
v 0.034288 0.349614 -0.074220
v 0.033011 0.351699 -0.073323
v -0.034755 0.348818 -0.108578
v -0.031267 0.354889 -0.109377
v -0.034288 0.351854 -0.108978
v -0.033011 0.354076 -0.109270
v -0.034755 0.332841 -0.124555
v -0.031267 0.333640 -0.130626
v -0.034288 0.333241 -0.127591
v -0.033011 0.333533 -0.129813
v -0.034755 0.346599 -0.116859
v -0.031267 0.352042 -0.120002
v -0.034288 0.349321 -0.118431
v -0.033011 0.351313 -0.119581
v -0.034755 0.341122 -0.122336
v -0.031267 0.344265 -0.127780
v -0.034288 0.342693 -0.125058
v -0.033011 0.343844 -0.127050
v 0.034755 0.332841 -0.124555
v 0.031267 0.333640 -0.130626
v 0.034288 0.333241 -0.127591
v 0.033011 0.333533 -0.129813
v 0.034755 0.348818 -0.108578
v 0.031267 0.354889 -0.109377
v 0.034288 0.351854 -0.108978
v 0.033011 0.354076 -0.109270
v 0.034755 0.341122 -0.122336
v 0.031267 0.344265 -0.127780
v 0.034288 0.342693 -0.125058
v 0.033011 0.343844 -0.127050
v 0.034755 0.346599 -0.116859
v 0.031267 0.352042 -0.120002
v 0.034288 0.349321 -0.118431
v 0.033011 0.351313 -0.119581
v 0.034755 0.309230 0.059127
v 0.031267 0.315301 0.060060
v 0.034288 0.312266 0.059593
v 0.033011 0.314488 0.059935
v -0.034755 0.309230 0.059127
v -0.031267 0.315301 0.060060
v -0.034288 0.312266 0.059593
v -0.033011 0.314488 0.059935
v 0.034755 0.296199 -0.124555
v 0.031267 0.296199 -0.130626
v 0.034288 0.296199 -0.127591
v 0.033011 0.296199 -0.129813
v 0.031267 0.296199 0.098808
v 0.034755 0.290914 0.095820
v 0.033011 0.295491 0.098407
v 0.034288 0.293556 0.097314
v -0.034755 0.290914 0.095820
v -0.031267 0.296199 0.098808
v -0.034288 0.293556 0.097314
v -0.033011 0.295491 0.098407
v -0.031267 0.296199 -0.130626
v -0.034755 0.296199 -0.124555
v -0.033011 0.296199 -0.129813
v -0.034288 0.296199 -0.127591
v 0.031267 0.276307 0.127922
v 0.034755 0.273335 0.122404
v 0.033011 0.275909 0.127183
v 0.034288 0.274821 0.125163
v -0.031267 0.276307 -0.130626
v -0.034755 0.276307 -0.124555
v -0.033011 0.276307 -0.129813
v -0.034288 0.276307 -0.127591
v 0.034755 0.276307 -0.124555
v 0.031267 0.276307 -0.130626
v 0.034288 0.276307 -0.127591
v 0.033011 0.276307 -0.129813
v -0.034755 0.273335 0.122404
v -0.031267 0.276307 0.127922
v -0.034288 0.274821 0.125163
v -0.033011 0.275909 0.127183
v 0.034755 0.286304 -0.124555
v 0.031267 0.286304 -0.130626
v 0.034288 0.286304 -0.127591
v 0.033011 0.286304 -0.129813
v -0.034755 0.281151 0.112620
v -0.031267 0.286304 0.115836
v -0.034288 0.283727 0.114228
v -0.033011 0.285613 0.115405
v 0.031267 0.286304 0.115836
v 0.034755 0.281151 0.112620
v 0.033011 0.285613 0.115405
v 0.034288 0.283727 0.114228
v -0.031267 0.286304 -0.130626
v -0.034755 0.286304 -0.124555
v -0.033011 0.286304 -0.129813
v -0.034288 0.286304 -0.127591
v 0.034755 0.265548 0.124334
v 0.031267 0.266361 0.130388
v 0.034288 0.265954 0.127361
v 0.033011 0.266252 0.129577
v -0.034755 0.266361 -0.124555
v -0.031267 0.266361 -0.130626
v -0.034288 0.266361 -0.127591
v -0.033011 0.266361 -0.129813
v 0.034755 0.266361 -0.124555
v 0.031267 0.266361 -0.130626
v 0.034288 0.266361 -0.127591
v 0.033011 0.266361 -0.129813
v -0.034755 0.265548 0.124334
v -0.031267 0.266361 0.130388
v -0.034288 0.265954 0.127361
v -0.033011 0.266252 0.129577
v 0.034755 0.276659 0.119337
v 0.031267 0.281305 0.123311
v 0.034288 0.278982 0.121324
v 0.033011 0.280683 0.122778
v -0.034755 0.281305 -0.124555
v -0.031267 0.281305 -0.130626
v -0.034288 0.281305 -0.127591
v -0.033011 0.281305 -0.129813
v 0.034755 0.281305 -0.124555
v 0.031267 0.281305 -0.130626
v 0.034288 0.281305 -0.127591
v 0.033011 0.281305 -0.129813
v -0.034755 0.276659 0.119337
v -0.031267 0.281305 0.123311
v -0.034288 0.278982 0.121324
v -0.033011 0.280683 0.122778
v -0.034755 0.309230 0.057394
v -0.031267 0.315301 0.057394
v -0.034288 0.312266 0.057394
v -0.033011 0.314488 0.057394
v 0.034755 0.309230 0.057394
v 0.031267 0.315301 0.057394
v 0.034288 0.312266 0.057394
v 0.033011 0.314488 0.057394
v -0.034755 0.309230 0.035010
v -0.031267 0.315301 0.035010
v -0.034288 0.312266 0.035010
v -0.033011 0.314488 0.035010
v 0.034755 0.309230 0.035010
v 0.031267 0.315301 0.035010
v 0.034288 0.312266 0.035010
v 0.033011 0.314488 0.035010
v -0.031267 0.335657 -0.053209
v -0.034755 0.331039 -0.057151
v -0.033011 0.335038 -0.053737
v -0.034288 0.333348 -0.055180
v 0.031267 0.335657 -0.053209
v 0.034755 0.331039 -0.057151
v 0.033011 0.335038 -0.053737
v 0.034288 0.333348 -0.055180
vn -0.0000 0.4742 0.8804
vn -0.0000 0.7600 0.6500
vn -0.0000 -0.0000 -1.0000
vn -0.0000 0.0120 0.9999
vn -0.0000 0.1331 0.9911
vn -0.0000 0.8484 0.5294
vn -0.0000 0.8694 0.4942
vn -0.0000 1.0000 -0.0000
vn -0.0000 0.9884 0.1519
vn -0.0000 0.1305 -0.9914
vn -0.0000 0.9914 -0.1305
vn -0.0000 0.9978 0.0668
vn -0.0000 0.5000 -0.8660
vn -0.0000 0.8660 -0.5000
vn -0.0000 0.9186 0.3953
vn -0.0000 0.7634 0.6459
vn -0.0000 0.9799 0.1994
vn -0.0000 0.7320 0.6813
vn -0.0000 0.7606 0.6493
vn -0.0000 0.8291 0.5591
vn -0.0000 0.7839 0.6209
vn -0.0000 0.8852 0.4652
vn -0.0000 0.9786 0.2057
vn -0.0000 0.9187 0.3951
vn -0.0000 -0.1305 -0.9914
vn -0.0000 -0.1305 0.9914
vn -0.0000 -0.9914 -0.1305
vn -0.0000 -0.9914 0.1305
vn -0.0000 -0.5000 0.8660
vn -0.0000 -0.8660 0.5000
vn -0.0000 -0.5000 -0.8660
vn -0.0000 -0.8660 -0.5000
vn -0.0000 0.9744 0.2249
vn -0.0000 0.8075 0.5898
vn -0.0000 0.6050 0.7962
vn -0.0000 0.5115 0.8593
vn -0.0000 -0.5086 -0.8610
vn -0.0000 -1.0000 -0.0001
vn 1.0000 -0.0000 -0.0000
vn -1.0000 -0.0000 -0.0000
vn 0.7071 0.3536 -0.6124
vn 0.7071 -0.3536 0.6124
vn -0.7071 -0.3536 0.6124
vn -0.7071 0.3536 -0.6124
vn 0.4201 0.9067 0.0384
vn -0.0000 0.9937 -0.1123
vn -0.0000 0.9982 0.0597
vn 0.3163 0.9327 0.1732
vn -0.0000 0.9280 0.3726
vn 0.0999 0.9073 0.4085
vn -0.0000 0.8821 0.4711
vn 0.0234 0.8773 0.4795
vn 0.5941 0.6966 0.4022
vn 0.4474 0.7745 0.4472
vn 0.1413 0.8573 0.4950
vn 0.0331 0.8656 0.4997
vn 0.4201 0.4866 0.7660
vn 0.3164 0.6163 0.7211
vn 0.0999 0.8074 0.5815
vn 0.0234 0.8538 0.5200
vn -0.0000 0.3996 0.9167
vn -0.0000 0.5508 0.8346
vn -0.0000 0.7867 0.6173
vn -0.0000 0.8490 0.5284
vn -0.4201 0.4866 0.7660
vn -0.3164 0.6163 0.7211
vn -0.0999 0.8074 0.5815
vn -0.0234 0.8538 0.5200
vn -0.5941 0.6966 0.4022
vn -0.4474 0.7745 0.4472
vn -0.1413 0.8573 0.4950
vn -0.0331 0.8656 0.4997
vn -0.4201 0.9067 0.0384
vn -0.3164 0.9327 0.1732
vn -0.0999 0.9073 0.4085
vn -0.0234 0.8773 0.4795
vn 0.9963 -0.0744 -0.0430
vn 0.9966 -0.0812 -0.0107
vn 0.9398 -0.3389 -0.0446
vn 0.9377 -0.3010 -0.1738
vn 0.6666 -0.7390 -0.0973
vn 0.6626 -0.6486 -0.3745
vn 0.2143 -0.9684 -0.1275
vn 0.2154 -0.8457 -0.4883
vn -0.9966 -0.0812 -0.0107
vn -0.9963 -0.0744 -0.0430
vn -0.9377 -0.3010 -0.1738
vn -0.9398 -0.3389 -0.0446
vn -0.6626 -0.6486 -0.3745
vn -0.6666 -0.7390 -0.0973
vn -0.2154 -0.8457 -0.4883
vn -0.2143 -0.9684 -0.1275
vn 0.9963 -0.0430 -0.0744
vn 0.9377 -0.1738 -0.3010
vn 0.6626 -0.3745 -0.6486
vn 0.2154 -0.4883 -0.8457
vn -0.9963 -0.0430 -0.0744
vn -0.9377 -0.1738 -0.3010
vn -0.6626 -0.3745 -0.6486
vn -0.2154 -0.4883 -0.8457
vn 0.9966 -0.0107 -0.0812
vn 0.9398 -0.0446 -0.3389
vn 0.6666 -0.0973 -0.7390
vn 0.2143 -0.1275 -0.9684
vn -0.9966 -0.0107 -0.0812
vn -0.9398 -0.0446 -0.3389
vn -0.6666 -0.0973 -0.7390
vn -0.2143 -0.1275 -0.9684
vn -0.9963 -0.0744 0.0430
vn -0.9966 -0.0812 0.0107
vn -0.9398 -0.3389 0.0446
vn -0.9377 -0.3010 0.1738
vn -0.6666 -0.7390 0.0973
vn -0.6626 -0.6486 0.3745
vn -0.2143 -0.9684 0.1275
vn -0.2154 -0.8457 0.4883
vn 0.9966 -0.0812 0.0107
vn 0.9963 -0.0744 0.0430
vn 0.9377 -0.3010 0.1738
vn 0.9398 -0.3389 0.0446
vn 0.6626 -0.6486 0.3745
vn 0.6666 -0.7390 0.0973
vn 0.2154 -0.8457 0.4883
vn 0.2143 -0.9684 0.1275
vn -0.9963 -0.0430 0.0744
vn -0.9377 -0.1738 0.3010
vn -0.6626 -0.3745 0.6486
vn -0.2154 -0.4883 0.8457
vn 0.9963 -0.0430 0.0744
vn 0.9377 -0.1738 0.3010
vn 0.6626 -0.3745 0.6486
vn 0.2154 -0.4883 0.8457
vn -0.9966 -0.0107 0.0812
vn -0.9398 -0.0446 0.3389
vn -0.6666 -0.0973 0.7390
vn -0.2143 -0.1275 0.9684
vn 0.9966 -0.0107 0.0812
vn 0.9398 -0.0446 0.3389
vn 0.6666 -0.0973 0.7390
vn 0.2143 -0.1275 0.9684
vn -0.2161 0.0117 0.9763
vn -0.6752 0.0089 0.7376
vn -0.9433 0.0040 0.3320
vn -0.9970 0.0009 0.0769
vn -0.2164 -0.0000 -0.9763
vn -0.6763 -0.0000 -0.7366
vn -0.9437 -0.0000 -0.3308
vn -0.9971 -0.0000 -0.0763
vn 0.9970 0.0009 0.0769
vn 0.9433 0.0040 0.3320
vn 0.6752 0.0089 0.7376
vn 0.2161 0.0117 0.9763
vn 0.9971 -0.0000 -0.0763
vn 0.9437 -0.0000 -0.3308
vn 0.6763 -0.0000 -0.7366
vn 0.2164 -0.0000 -0.9763
vn 0.2142 0.9655 0.1483
vn 0.2145 0.8973 0.3859
vn 0.6683 0.6833 0.2939
vn 0.6656 0.7377 0.1133
vn 0.9405 0.3122 0.1342
vn 0.9393 0.3392 0.0521
vn 0.9967 0.0742 0.0319
vn 0.9966 0.0818 0.0126
vn 0.2144 0.1300 0.9681
vn 0.6678 0.0991 0.7377
vn 0.9403 0.0453 0.3374
vn 0.9967 0.0108 0.0804
vn -0.2162 0.8488 0.4825
vn -0.2145 0.8973 0.3859
vn -0.6683 0.6833 0.2939
vn -0.6754 0.6411 0.3644
vn -0.9405 0.3122 0.1342
vn -0.9434 0.2884 0.1640
vn -0.9967 0.0742 0.0319
vn -0.9970 0.0667 0.0379
vn -0.2164 0.9763 -0.0000
vn -0.2270 0.9531 0.2003
vn -0.7032 0.6958 0.1463
vn -0.6763 0.7366 -0.0000
vn -0.9529 0.2968 0.0624
vn -0.9437 0.3308 -0.0000
vn -0.9972 0.0732 0.0154
vn -0.9971 0.0763 -0.0000
vn -0.9971 0.0632 0.0426
vn -0.9971 0.0674 0.0354
vn -0.9464 0.2858 0.1502
vn -0.9452 0.2707 0.1825
vn -0.6838 0.6459 0.3395
vn -0.6804 0.6076 0.4097
vn -0.2189 0.8637 0.4539
vn -0.2178 0.8092 0.5457
vn 0.9971 0.0674 0.0354
vn 0.9971 0.0632 0.0426
vn 0.9452 0.2707 0.1825
vn 0.9464 0.2858 0.1502
vn 0.6804 0.6076 0.4097
vn 0.6838 0.6459 0.3395
vn 0.2178 0.8092 0.5457
vn 0.2189 0.8637 0.4539
vn -0.9971 0.0598 0.0474
vn -0.9451 0.2562 0.2029
vn -0.6801 0.5747 0.4552
vn -0.2176 0.7651 0.6060
vn 0.9971 0.0598 0.0474
vn 0.9451 0.2562 0.2029
vn 0.6801 0.5747 0.4552
vn 0.2176 0.7651 0.6060
vn -0.9971 0.0580 0.0495
vn -0.9437 0.2516 0.2148
vn -0.6763 0.5602 0.4782
vn -0.2164 0.7425 0.6339
vn 0.9971 0.0580 0.0495
vn 0.9971 0.0558 0.0520
vn 0.9453 0.2387 0.2222
vn 0.9437 0.2516 0.2148
vn 0.6807 0.5362 0.4991
vn 0.6763 0.5602 0.4782
vn 0.2179 0.7144 0.6649
vn 0.2164 0.7425 0.6339
vn -0.9968 0.0613 0.0519
vn -0.9971 0.0558 0.0520
vn -0.9453 0.2387 0.2222
vn -0.9408 0.2588 0.2190
vn -0.6807 0.5362 0.4991
vn -0.6691 0.5674 0.4801
vn -0.2179 0.7144 0.6649
vn -0.2146 0.7456 0.6309
vn 0.9968 0.0613 0.0519
vn 0.9408 0.2588 0.2190
vn 0.6691 0.5674 0.4801
vn 0.2146 0.7456 0.6309
vn 0.9964 0.0776 0.0334
vn 0.9967 0.0803 0.0081
vn 0.9405 0.3380 0.0340
vn 0.9383 0.3176 0.1367
vn 0.6684 0.7401 0.0745
vn 0.6636 0.6871 0.2957
vn 0.2145 0.9718 0.0979
vn 0.2145 0.8972 0.3861
vn -0.9967 0.0803 0.0081
vn -0.9964 0.0776 0.0334
vn -0.9383 0.3176 0.1367
vn -0.9405 0.3380 0.0340
vn -0.6636 0.6871 0.2957
vn -0.6684 0.7401 0.0745
vn -0.2145 0.8972 0.3861
vn -0.2145 0.9718 0.0979
vn 0.9972 0.0732 0.0154
vn 0.9529 0.2968 0.0624
vn 0.7032 0.6958 0.1463
vn 0.2270 0.9531 0.2003
vn -0.9963 0.0744 -0.0430
vn -0.9966 0.0812 -0.0107
vn -0.9398 0.3389 -0.0446
vn -0.9377 0.3010 -0.1738
vn -0.6666 0.7390 -0.0973
vn -0.6626 0.6486 -0.3745
vn -0.2143 0.9684 -0.1275
vn -0.2154 0.8457 -0.4883
vn 0.9966 0.0812 -0.0107
vn 0.9963 0.0744 -0.0430
vn 0.9377 0.3010 -0.1738
vn 0.9398 0.3389 -0.0446
vn 0.6626 0.6486 -0.3745
vn 0.6666 0.7390 -0.0973
vn 0.2154 0.8457 -0.4883
vn 0.2143 0.9684 -0.1275
vn -0.9963 0.0430 -0.0744
vn -0.9377 0.1738 -0.3010
vn -0.6626 0.3745 -0.6486
vn -0.2154 0.4883 -0.8457
vn 0.9963 0.0430 -0.0744
vn 0.9377 0.1738 -0.3010
vn 0.6626 0.3745 -0.6486
vn 0.2154 0.4883 -0.8457
vn -0.9966 0.0107 -0.0812
vn -0.9398 0.0446 -0.3389
vn -0.6666 0.0973 -0.7390
vn -0.2143 0.1275 -0.9684
vn 0.9966 0.0107 -0.0812
vn 0.9398 0.0446 -0.3389
vn 0.6666 0.0973 -0.7390
vn 0.2143 0.1275 -0.9684
vn 0.2164 0.9763 -0.0000
vn 0.6763 0.7366 -0.0000
vn 0.9437 0.3308 -0.0000
vn 0.9971 0.0763 -0.0000
vn -0.2142 0.9655 0.1483
vn -0.6656 0.7377 0.1133
vn -0.9393 0.3392 0.0521
vn -0.9966 0.0818 0.0126
vn 0.2162 0.8488 0.4825
vn 0.6754 0.6411 0.3644
vn 0.9434 0.2884 0.1640
vn 0.9970 0.0667 0.0379
vn -0.2156 0.8284 0.5170
vn -0.6735 0.6271 0.3913
vn -0.9426 0.2833 0.1768
vn -0.9970 0.0660 0.0412
vn 0.2144 0.7423 0.6349
vn 0.2152 0.4631 0.8598
vn 0.6627 0.3551 0.6593
vn 0.6673 0.5660 0.4841
vn 0.9378 0.1647 0.3057
vn 0.9401 0.2592 0.2216
vn 0.9963 0.0406 0.0754
vn 0.9967 0.0619 0.0529
vn -0.2144 0.1300 0.9681
vn -0.2152 0.4631 0.8598
vn -0.6627 0.3551 0.6593
vn -0.6678 0.0991 0.7377
vn -0.9378 0.1647 0.3057
vn -0.9403 0.0453 0.3374
vn -0.9963 0.0406 0.0754
vn -0.9967 0.0108 0.0804
vn -0.2144 0.7423 0.6349
vn -0.6673 0.5660 0.4841
vn -0.9401 0.2592 0.2216
vn -0.9967 0.0619 0.0529
vn 0.2156 0.8284 0.5170
vn 0.6735 0.6271 0.3913
vn 0.9426 0.2833 0.1768
vn 0.9970 0.0660 0.0412
vt 0.701186 1.000000
vt 0.663214 1.000000
vt 0.663214 0.990076
vt 0.701186 0.990076
vt 0.923646 0.125154
vt 0.885675 0.125154
vt 0.885675 0.116992
vt 0.923646 0.116992
vt 0.923646 0.585126
vt 0.885675 0.585126
vt 0.885675 0.569200
vt 0.923646 0.569200
vt 0.923646 0.157632
vt 0.885675 0.157632
vt 0.885675 0.141393
vt 0.923646 0.141393
vt 0.885675 0.108831
vt 0.923646 0.108831
vt 0.663214 0.975749
vt 0.701186 0.975749
vt 0.885675 0.553972
vt 0.923646 0.553972
vt 0.663214 0.943957
vt 0.701186 0.943957
vt 0.885675 0.092675
vt 0.923646 0.092675
vt 0.663214 0.869450
vt 0.701186 0.869450
vt 0.701186 0.873548
vt 0.663214 0.873548
vt 0.923646 0.061486
vt 0.885675 0.061486
vt 0.885675 0.031544
vt 0.923646 0.031544
vt 0.663214 0.590574
vt 0.701186 0.590574
vt 0.701186 0.628181
vt 0.663214 0.628181
vt 0.885675 0.013796
vt 0.923646 0.013796
vt 0.885675 0.000000
vt 0.923646 0.000000
vt 0.663214 0.575851
vt 0.701186 0.575851
vt 0.663214 0.647894
vt 0.701186 0.647894
vt 0.701186 0.664049
vt 0.663214 0.664049
vt 0.701186 0.679613
vt 0.663214 0.679613
vt 0.701186 0.687842
vt 0.663214 0.687842
vt 0.701186 0.713226
vt 0.663214 0.713226
vt 0.663214 0.696072
vt 0.701186 0.696072
vt 0.701186 0.731047
vt 0.663214 0.731047
vt 0.701186 0.749751
vt 0.663214 0.749751
vt 0.663214 0.890899
vt 0.701186 0.890899
vt 0.885675 0.532669
vt 0.923646 0.532669
vt 0.885675 0.954636
vt 0.923646 0.954636
vt 0.771411 0.618497
vt 0.809383 0.618497
vt 0.809383 0.944300
vt 0.771411 0.944300
vt 0.923646 0.977242
vt 0.885675 0.977242
vt 0.923646 0.996030
vt 0.885675 0.996030
vt 0.809383 0.963529
vt 0.771411 0.963529
vt 0.809383 0.595849
vt 0.771411 0.595849
vt 0.771411 0.575851
vt 0.809383 0.575851
vt 0.701186 0.800440
vt 0.663214 0.800440
vt 0.701186 0.813801
vt 0.663214 0.813801
vt 0.701186 0.822237
vt 0.663214 0.822237
vt 0.663214 0.835031
vt 0.701186 0.835031
vt 0.617739 0.943875
vt 0.617739 0.981847
vt 0.586207 0.981847
vt 0.586207 0.943875
vt 0.622407 0.940867
vt 0.584436 0.940867
vt 0.584436 0.821410
vt 0.622407 0.821410
vt 0.619738 0.770325
vt 0.614607 0.778158
vt 0.570949 0.820057
vt 0.562743 0.784304
vt 0.590670 0.757685
vt 0.562743 0.635973
vt 0.566772 0.628204
vt 0.575942 0.613713
vt 0.582190 0.598245
vt 0.581674 0.578312
vt 0.622743 0.757251
vt 0.510623 0.777954
vt 0.505467 0.770109
vt 0.502447 0.757033
vt 0.543718 0.578312
vt 0.543199 0.598233
vt 0.549478 0.613712
vt 0.558694 0.628224
vt 0.562743 0.636002
vt 0.534678 0.757565
vt 0.562743 0.784256
vt 0.554496 0.819966
vt 0.088013 0.918014
vt 0.095711 0.918014
vt 0.093250 0.932043
vt 0.085551 0.932043
vt 0.106156 0.903986
vt 0.114621 0.904025
vt 0.114104 0.918336
vt 0.105639 0.918297
vt 0.114621 0.932045
vt 0.106156 0.932005
vt 0.103748 0.932043
vt 0.095711 0.932043
vt 0.097603 0.918014
vt 0.105639 0.918014
vt 0.095711 0.903986
vt 0.103748 0.903986
vt 0.123279 0.932036
vt 0.114784 0.932028
vt 0.114621 0.918200
vt 0.123117 0.918208
vt 0.085297 0.952984
vt 0.070449 0.953259
vt 0.067806 0.946807
vt 0.087940 0.946434
vt 0.114784 0.903986
vt 0.123279 0.903993
vt 0.085551 0.903986
vt 0.093250 0.903986
vt 0.091921 0.965996
vt 0.091921 0.977862
vt 0.083686 0.986100
vt 0.072040 0.985884
vt 0.063804 0.977341
vt 0.063804 0.965475
vt 0.072040 0.957237
vt 0.083686 0.957453
vt 0.085297 0.989506
vt 0.095796 0.978614
vt 0.102176 0.981189
vt 0.087940 0.995958
vt 0.059950 0.964150
vt 0.059950 0.979278
vt 0.053569 0.982089
vt 0.053569 0.961576
vt 0.095796 0.963486
vt 0.102176 0.960676
vt 0.070449 0.989781
vt 0.067806 0.996331
vt 0.039190 0.946644
vt 0.053569 0.961321
vt 0.052405 0.961797
vt 0.038631 0.947737
vt 0.049486 0.962988
vt 0.037366 0.950616
vt 0.045595 0.964576
vt 0.035733 0.954510
vt 0.018855 0.946434
vt 0.019152 0.947536
vt 0.020225 0.950439
vt 0.021787 0.954366
vt 0.004476 0.960815
vt 0.005378 0.961311
vt 0.008104 0.962561
vt 0.011925 0.964229
vt 0.010758 0.923009
vt 0.008194 0.942032
vt 0.007142 0.941231
vt 0.009599 0.923009
vt 0.005378 0.980994
vt 0.008104 0.979881
vt 0.011925 0.978321
vt 0.008194 0.903986
vt 0.007142 0.904786
vt 0.019152 0.995053
vt 0.020225 0.992253
vt 0.021787 0.988387
vt 0.039190 0.996249
vt 0.025007 0.983120
vt 0.038631 0.995254
vt 0.037366 0.992429
vt 0.035733 0.988531
vt 0.053569 0.981868
vt 0.052405 0.981479
vt 0.049486 0.980308
vt 0.045595 0.978669
vt 0.028094 0.942032
vt 0.031432 0.923009
vt 0.048041 0.923009
vt 0.044703 0.942032
vt 0.028094 0.903986
vt 0.044703 0.903986
vt 0.048041 0.923392
vt 0.048742 0.903985
vt 0.067004 0.904070
vt 0.066303 0.923476
vt 0.048742 0.941980
vt 0.067004 0.942065
vt 0.028094 0.923009
vt 0.025530 0.942032
vt 0.025530 0.903986
vt 0.085331 0.923277
vt 0.085551 0.942028
vt 0.067224 0.942011
vt 0.067004 0.923260
vt 0.085551 0.904002
vt 0.067224 0.903986
vt 0.450794 0.562766
vt 0.468843 0.567575
vt 0.468187 0.572444
vt 0.448219 0.567123
vt 0.467706 0.575851
vt 0.446332 0.570156
vt 0.844496 0.596161
vt 0.844496 0.618276
vt 0.841637 0.618497
vt 0.841637 0.595849
vt 0.381250 0.570275
vt 0.399282 0.565434
vt 0.401888 0.569899
vt 0.381937 0.575256
vt 0.403860 0.573179
vt 0.382506 0.578913
vt 0.736299 0.618276
vt 0.736299 0.596161
vt 0.739157 0.595849
vt 0.739157 0.618497
vt 0.438541 0.550578
vt 0.434080 0.553061
vt 0.430814 0.554721
vt 0.844496 0.576793
vt 0.841637 0.575851
vt 0.411524 0.553177
vt 0.416013 0.555756
vt 0.419365 0.557656
vt 0.736299 0.576793
vt 0.739157 0.575851
vt 0.433705 0.532626
vt 0.428730 0.533199
vt 0.425087 0.533461
vt 0.958759 0.532380
vt 0.958759 0.553182
vt 0.955900 0.553972
vt 0.955900 0.532669
vt 0.416356 0.535127
vt 0.421359 0.535786
vt 0.425087 0.536280
vt 0.850562 0.553182
vt 0.850562 0.532380
vt 0.853420 0.532669
vt 0.853420 0.553972
vt 0.025560 0.565555
vt 0.043592 0.570385
vt 0.042970 0.575365
vt 0.023020 0.570021
vt 0.042581 0.579023
vt 0.021226 0.573303
vt 0.736299 0.962521
vt 0.736299 0.943743
vt 0.739157 0.944300
vt 0.739157 0.963529
vt 0.806809 0.567552
vt 0.824858 0.562740
vt 0.827432 0.567098
vt 0.807464 0.572421
vt 0.829316 0.570130
vt 0.807942 0.575828
vt 0.844496 0.943743
vt 0.844496 0.962521
vt 0.841637 0.963529
vt 0.841637 0.944300
vt 0.013318 0.553305
vt 0.008895 0.555888
vt 0.005722 0.557790
vt 0.958759 0.976793
vt 0.958759 0.994989
vt 0.955900 0.996030
vt 0.955900 0.977242
vt 0.837111 0.550551
vt 0.841571 0.553033
vt 0.844835 0.554693
vt 0.850562 0.994989
vt 0.850562 0.976793
vt 0.853420 0.977242
vt 0.853420 0.996030
vt 0.008486 0.535259
vt 0.003549 0.535922
vt 0.000000 0.536418
vt 0.958759 0.954718
vt 0.955900 0.954636
vt 0.841947 0.532598
vt 0.846921 0.533171
vt 0.850562 0.533432
vt 0.850562 0.954718
vt 0.853420 0.954636
vt 0.955900 0.585126
vt 0.958759 0.585381
vt 0.000000 0.160171
vt 0.003549 0.160158
vt 0.008487 0.160155
vt 0.853420 0.157632
vt 0.850562 0.157517
vt 0.425087 0.160032
vt 0.421359 0.160017
vt 0.416356 0.160013
vt 0.841947 0.159478
vt 0.846921 0.159394
vt 0.850562 0.159174
vt 0.850562 0.585381
vt 0.853420 0.585126
vt 0.433705 0.159496
vt 0.428730 0.159417
vt 0.425087 0.159202
vt 0.958759 0.157517
vt 0.955900 0.157632
vt 0.630960 0.873548
vt 0.630960 0.890899
vt 0.628101 0.890828
vt 0.628101 0.873817
vt 0.736045 0.064516
vt 0.752290 0.069600
vt 0.750845 0.073160
vt 0.735487 0.068354
vt 0.748870 0.077808
vt 0.734723 0.073381
vt 0.955900 0.092675
vt 0.955900 0.061486
vt 0.958759 0.061372
vt 0.958759 0.092560
vt 0.425087 0.094349
vt 0.425087 0.063211
vt 0.428730 0.063426
vt 0.428730 0.094565
vt 0.433705 0.063505
vt 0.433705 0.094643
vt 0.853420 0.569200
vt 0.850562 0.569629
vt 0.850175 0.143137
vt 0.846545 0.143838
vt 0.841585 0.144580
vt 0.733440 0.943957
vt 0.733440 0.890899
vt 0.736299 0.890828
vt 0.736299 0.943742
vt 0.051421 0.096116
vt 0.098182 0.070082
vt 0.099537 0.073428
vt 0.053122 0.099270
vt 0.101478 0.078015
vt 0.055535 0.103594
vt 0.853420 0.141393
vt 0.850562 0.141278
vt 0.425087 0.143733
vt 0.421359 0.143718
vt 0.416356 0.143714
vt 0.733440 0.835031
vt 0.733440 0.749751
vt 0.736299 0.749949
vt 0.736299 0.835492
vt 0.155221 0.064951
vt 0.246309 0.064922
vt 0.246984 0.068547
vt 0.155132 0.068577
vt 0.247996 0.073516
vt 0.155099 0.073546
vt 0.284061 0.054709
vt 0.267680 0.064844
vt 0.265395 0.060436
vt 0.281313 0.050588
vt 0.263787 0.057221
vt 0.279367 0.047583
vt 0.736299 0.712909
vt 0.736299 0.730872
vt 0.733440 0.731047
vt 0.733440 0.713226
vt 0.582517 0.064771
vt 0.566121 0.054696
vt 0.568904 0.050511
vt 0.584836 0.060301
vt 0.570940 0.047290
vt 0.586533 0.056872
vt 0.628101 0.730872
vt 0.628101 0.712909
vt 0.630960 0.713226
vt 0.630960 0.731047
vt 0.299052 0.043692
vt 0.295997 0.039796
vt 0.293825 0.036956
vt 0.736299 0.695656
vt 0.733440 0.696072
vt 0.551116 0.043743
vt 0.554207 0.039783
vt 0.556468 0.036726
vt 0.628101 0.695656
vt 0.630960 0.696072
vt 0.305995 0.037757
vt 0.302801 0.033980
vt 0.300528 0.031227
vt 0.736299 0.687381
vt 0.733440 0.687842
vt 0.544167 0.037843
vt 0.537171 0.031902
vt 0.540563 0.028198
vt 0.547396 0.034000
vt 0.543045 0.025328
vt 0.549759 0.031030
vt 0.628101 0.687381
vt 0.628101 0.679098
vt 0.630960 0.679613
vt 0.630960 0.687842
vt 0.324715 0.019871
vt 0.312985 0.031782
vt 0.309628 0.028145
vt 0.321525 0.016064
vt 0.307236 0.025493
vt 0.319255 0.013290
vt 0.736299 0.663591
vt 0.736299 0.679098
vt 0.733440 0.679613
vt 0.733440 0.664049
vt 0.525429 0.020058
vt 0.528655 0.016186
vt 0.531015 0.013194
vt 0.628101 0.663591
vt 0.630960 0.664049
vt 0.514186 0.012209
vt 0.497657 0.008865
vt 0.498158 0.003838
vt 0.516194 0.007487
vt 0.498523 0.000000
vt 0.517663 0.003873
vt 0.628101 0.647821
vt 0.628101 0.628516
vt 0.630960 0.628181
vt 0.630960 0.647894
vt 0.352462 0.008607
vt 0.335949 0.011976
vt 0.333975 0.007314
vt 0.351994 0.003639
vt 0.332595 0.003914
vt 0.351717 0.000013
vt 0.736299 0.628516
vt 0.736299 0.647821
vt 0.733440 0.647894
vt 0.733440 0.628181
vt 0.602219 0.073390
vt 0.603264 0.068363
vt 0.604028 0.064525
vt 0.628101 0.749949
vt 0.630960 0.749751
vt 0.403755 0.012227
vt 0.390196 0.008595
vt 0.390883 0.003626
vt 0.406361 0.007772
vt 0.391452 0.000000
vt 0.408333 0.004522
vt 0.736299 0.576912
vt 0.736299 0.591200
vt 0.733440 0.590574
vt 0.733440 0.575851
vt 0.459888 0.008868
vt 0.446317 0.012486
vt 0.443742 0.007970
vt 0.459233 0.003841
vt 0.441855 0.004507
vt 0.458752 0.000003
vt 0.628101 0.591200
vt 0.628101 0.576912
vt 0.630960 0.575851
vt 0.630960 0.590574
vt 0.412723 0.021200
vt 0.417212 0.018629
vt 0.420563 0.016759
vt 0.850562 0.014380
vt 0.850562 0.001131
vt 0.853420 0.000000
vt 0.853420 0.013796
vt 0.437341 0.021414
vt 0.432881 0.018774
vt 0.429614 0.016684
vt 0.958759 0.001131
vt 0.958759 0.014380
vt 0.955900 0.013796
vt 0.955900 0.000000
vt 0.416356 0.034769
vt 0.421359 0.034118
vt 0.425087 0.033654
vt 0.850562 0.031604
vt 0.853420 0.031544
vt 0.433705 0.034914
vt 0.428730 0.034184
vt 0.425087 0.033491
vt 0.958759 0.031604
vt 0.955900 0.031544
vt 0.416356 0.063512
vt 0.421359 0.063516
vt 0.425087 0.063531
vt 0.850562 0.061372
vt 0.853420 0.061486
vt 0.630960 0.869450
vt 0.628101 0.869911
vt 0.731882 0.064516
vt 0.731883 0.068354
vt 0.731884 0.073381
vt 0.733440 0.873548
vt 0.736299 0.873817
vt 0.114412 0.064964
vt 0.114882 0.068590
vt 0.115613 0.073558
vt 0.955900 0.108831
vt 0.958759 0.108717
vt 0.425087 0.110480
vt 0.428730 0.110695
vt 0.433705 0.110773
vt 0.630960 0.943957
vt 0.628101 0.943742
vt 0.799094 0.095478
vt 0.797303 0.098847
vt 0.794855 0.103234
vt 0.733440 0.975749
vt 0.736299 0.975478
vt 0.023591 0.112312
vt 0.025428 0.115387
vt 0.028028 0.119602
vt 0.853420 0.092675
vt 0.850562 0.092560
vt 0.425087 0.094835
vt 0.421359 0.094820
vt 0.416356 0.094816
vt 0.630960 0.990076
vt 0.630960 1.000000
vt 0.628101 0.999089
vt 0.628101 0.989610
vt 0.839033 0.119614
vt 0.846251 0.127396
vt 0.842942 0.129385
vt 0.836651 0.122602
vt 0.838421 0.131887
vt 0.833395 0.126468
vt 0.853420 0.116992
vt 0.853420 0.125154
vt 0.850562 0.125039
vt 0.850562 0.116878
vt 0.425087 0.119242
vt 0.425087 0.127434
vt 0.421359 0.127419
vt 0.421359 0.119228
vt 0.416356 0.127415
vt 0.416356 0.119223
vt 0.955900 0.141393
vt 0.955900 0.125154
vt 0.958759 0.125039
vt 0.958759 0.141278
vt 0.425087 0.142989
vt 0.425087 0.126776
vt 0.428730 0.126991
vt 0.428730 0.143204
vt 0.433705 0.127069
vt 0.433705 0.143282
vt 0.955900 0.569200
vt 0.958759 0.554844
vt 0.958759 0.569629
vt 0.000387 0.144049
vt 0.004307 0.128222
vt 0.007524 0.129988
vt 0.003925 0.144519
vt 0.012009 0.132416
vt 0.008848 0.145178
vt 0.955900 0.116992
vt 0.958759 0.116878
vt 0.425087 0.118628
vt 0.428730 0.118843
vt 0.433705 0.118921
vt 0.733440 0.990076
vt 0.736299 0.989610
vt 0.011518 0.120396
vt 0.013810 0.123166
vt 0.017031 0.126966
vt 0.630960 0.975749
vt 0.628101 0.975478
vt 0.826950 0.111578
vt 0.825022 0.114868
vt 0.822388 0.119147
vt 0.853420 0.108831
vt 0.850562 0.108717
vt 0.425087 0.111051
vt 0.421359 0.111036
vt 0.416356 0.111032
vt 0.850562 0.554844
vt 0.733440 1.000000
vt 0.736299 0.999089
vt 0.733440 0.869450
vt 0.736299 0.869911
vt 0.118571 0.064963
vt 0.118482 0.068589
vt 0.118449 0.073558
vt 0.630960 0.835031
vt 0.628101 0.835492
vt 0.695199 0.064518
vt 0.695200 0.068356
vt 0.695201 0.073383
s 1
usemtl jerrycan
f 56/1/1 55/2/1 69/3/2 70/4/2
f 58/5/3 57/6/3 67/7/3 68/8/3
f 4/9/4 3/10/4 65/11/5 66/12/5
f 2/13/3 1/14/3 63/15/3 64/16/3
f 68/8/3 67/7/3 61/17/3 62/18/3
f 70/4/2 69/3/2 59/19/6 60/20/6
f 64/16/3 63/15/3 57/6/3 58/5/3
f 66/12/5 65/11/5 55/21/1 56/22/1
f 60/20/6 59/19/6 53/23/7 54/24/7
f 62/18/3 61/17/3 51/25/3 52/26/3
f 77/27/8 78/28/8 49/29/9 50/30/9
f 22/31/3 21/32/3 48/33/10 47/34/10
f 42/35/11 41/36/11 38/37/12 37/38/12
f 46/39/13 45/40/13 47/34/10 48/33/10
f 44/41/14 43/42/14 45/40/13 46/39/13
f 41/36/11 42/35/11 43/43/14 44/44/14
f 40/45/15 39/46/15 36/47/16 35/48/16
f 37/38/17 38/37/17 39/46/15 40/45/15
f 34/49/18 33/50/18 35/48/16 36/47/16
f 83/51/19 84/52/19 33/50/18 34/49/18
f 30/53/20 29/54/20 31/55/21 32/56/21
f 28/57/22 27/58/22 29/54/20 30/53/20
f 25/59/23 26/60/23 27/58/22 28/57/22
f 52/26/3 51/25/3 21/32/3 22/31/3
f 54/24/7 53/23/7 23/61/24 24/62/24
f 50/30/9 49/29/9 24/62/24 23/61/24
f 11/63/25 1/14/3 2/13/3 12/64/25
f 19/65/26 3/10/4 4/9/4 20/66/26
f 6/67/27 5/68/27 14/69/28 13/70/28
f 18/71/29 17/72/29 19/65/26 20/66/26
f 16/73/30 15/74/30 17/72/29 18/71/29
f 13/70/28 14/69/28 15/75/30 16/76/30
f 10/22/31 9/21/31 11/63/25 12/64/25
f 8/77/32 7/78/32 9/79/31 10/80/31
f 5/68/27 6/67/27 7/78/32 8/77/32
f 37/38/8 38/37/8 72/81/33 71/82/33
f 71/82/33 72/81/33 74/83/34 73/84/34
f 73/84/34 74/83/34 76/85/35 75/86/35
f 79/87/8 80/88/8 78/28/8 77/27/8
f 76/85/35 78/28/36 77/27/36 75/86/35
f 26/60/23 25/59/23 80/88/8 79/87/8
f 79/89/37 80/90/37 82/91/37 81/92/37
f 32/56/21 31/55/21 84/52/19 83/51/19
f 81/93/38 82/94/38 83/95/38 84/96/38
f 73/97/39 75/98/39 77/99/39 79/100/39 81/101/39 84/102/39 33/103/39 35/104/39 40/105/39 37/106/39 71/107/39
f 76/108/40 74/109/40 72/110/40 38/111/40 39/112/40 36/113/40 34/114/40 83/115/40 82/116/40 80/117/40 78/118/40
f 85/119/13 86/120/13 88/121/41 87/122/41
f 87/123/41 88/124/41 90/125/39 89/126/39
f 89/126/39 90/125/39 92/127/42 91/128/42
f 91/129/42 92/130/42 94/131/29 93/132/29
f 93/132/29 94/131/29 96/133/43 95/134/43
f 95/135/43 96/136/43 98/137/40 97/138/40
f 90/139/32 88/140/32 102/141/32 103/142/32
f 97/138/40 98/137/40 100/143/44 99/144/44
f 99/145/44 100/146/44 86/120/13 85/119/13
f 85/147/32 87/148/32 89/149/32 91/150/32 93/151/32 95/152/32 97/153/32 99/154/32
f 96/155/32 94/156/32 105/157/32 106/158/32
f 86/159/32 100/160/32 108/161/32 101/162/32
f 88/140/32 86/159/32 101/162/32 102/141/32
f 92/163/32 90/139/32 103/142/32 104/164/32
f 98/165/32 96/155/32 106/158/32 107/166/32
f 94/156/32 92/163/32 104/164/32 105/157/32
f 100/160/32 98/165/32 107/166/32 108/161/32
f 114/167/45 109/168/46 111/169/47 116/170/48
f 116/170/48 111/169/47 112/171/49 115/172/50
f 115/172/50 112/171/49 110/173/51 113/174/52
f 118/175/53 114/167/45 116/170/48 120/176/54
f 120/176/54 116/170/48 115/172/50 119/177/55
f 119/177/55 115/172/50 113/174/52 117/178/56
f 122/179/57 118/175/53 120/176/54 124/180/58
f 124/180/58 120/176/54 119/177/55 123/181/59
f 123/181/59 119/177/55 117/178/56 121/182/60
f 126/183/61 122/184/57 124/185/58 128/186/62
f 128/187/62 124/180/58 123/181/59 127/188/63
f 127/188/63 123/181/59 121/182/60 125/189/64
f 130/190/65 126/183/61 128/186/62 132/191/66
f 132/192/66 128/187/62 127/188/63 131/193/67
f 131/193/67 127/188/63 125/189/64 129/194/68
f 134/195/69 130/196/65 132/192/66 136/197/70
f 136/197/70 132/192/66 131/193/67 135/198/71
f 135/198/71 131/193/67 129/194/68 133/199/72
f 138/200/73 134/195/69 136/197/70 140/201/74
f 140/201/74 136/197/70 135/198/71 139/202/75
f 139/202/75 135/198/71 133/199/72 137/203/76
f 109/168/46 138/200/73 140/201/74 111/169/47
f 111/169/47 140/201/74 139/202/75 112/171/49
f 112/171/49 139/202/75 137/203/76 110/173/51
f 102/204/41 101/205/13 109/206/13 114/207/41
f 113/174/52 110/173/51 137/203/76 133/199/72 129/194/68 125/189/64 121/182/60 117/178/56
f 101/205/13 108/208/44 138/209/44 109/206/13
f 103/210/39 102/211/41 114/212/41 118/213/39
f 104/214/42 103/210/39 118/213/39 122/215/42
f 105/216/29 104/217/42 122/184/42 126/183/29
f 106/218/43 105/216/29 126/183/29 130/190/43
f 107/219/40 106/220/43 130/221/43 134/222/40
f 108/223/44 107/219/40 134/222/40 138/224/44
f 213/225/77 205/226/78 207/227/79 215/228/80
f 215/228/80 207/227/79 208/229/81 216/230/82
f 216/231/82 208/232/81 206/233/83 214/234/84
f 177/235/85 185/236/86 187/237/87 179/238/88
f 179/238/88 187/237/87 188/239/89 180/240/90
f 180/241/90 188/242/89 186/243/91 178/244/92
f 217/245/93 213/225/77 215/228/80 219/246/94
f 219/246/94 215/228/80 216/230/82 220/247/95
f 220/248/95 216/231/82 214/234/84 218/249/96
f 185/236/86 181/250/97 183/251/98 187/237/87
f 187/237/87 183/251/98 184/252/99 188/239/89
f 188/242/89 184/253/99 182/254/100 186/243/91
f 209/255/101 217/245/93 219/246/94 211/256/102
f 211/256/102 219/246/94 220/247/95 212/257/103
f 212/258/103 220/259/95 218/260/96 210/261/104
f 181/250/97 173/262/105 175/263/106 183/251/98
f 183/251/98 175/263/106 176/264/107 184/252/99
f 184/265/99 176/266/107 174/267/108 182/268/100
f 165/269/109 157/270/110 159/271/111 167/272/112
f 167/272/112 159/271/111 160/273/113 168/274/114
f 168/275/114 160/276/113 158/277/115 166/278/116
f 193/279/117 201/280/118 203/281/119 195/282/120
f 195/282/120 203/281/119 204/283/121 196/284/122
f 196/285/122 204/286/121 202/287/123 194/288/124
f 169/289/125 165/269/109 167/272/112 171/290/126
f 171/290/126 167/272/112 168/274/114 172/291/127
f 172/292/127 168/293/114 166/294/116 170/295/128
f 201/280/118 197/296/129 199/297/130 203/281/119
f 203/281/119 199/297/130 200/298/131 204/283/121
f 204/299/121 200/300/131 198/301/132 202/302/123
f 161/303/133 169/289/125 171/290/126 163/304/134
f 163/304/134 171/290/126 172/291/127 164/305/135
f 164/306/135 172/292/127 170/295/128 162/307/136
f 197/296/129 189/308/137 191/309/138 199/297/130
f 199/297/130 191/309/138 192/310/139 200/298/131
f 200/300/131 192/311/139 190/312/140 198/301/132
f 157/270/110 177/235/85 179/238/88 159/271/111
f 159/271/111 179/238/88 180/240/90 160/273/113
f 160/276/113 180/241/90 178/244/92 158/277/115
f 205/226/78 193/279/117 195/282/120 207/227/79
f 207/227/79 195/282/120 196/284/122 208/229/81
f 208/232/81 196/285/122 194/288/124 206/233/83
f 162/307/136 142/313/141 144/314/142 164/306/135
f 164/305/135 144/315/142 143/316/143 163/304/134
f 163/304/134 143/316/143 141/317/144 161/303/133
f 146/318/145 174/267/108 176/266/107 148/319/146
f 148/320/146 176/264/107 175/263/106 147/321/147
f 147/321/147 175/263/106 173/262/105 145/322/148
f 189/308/137 149/323/149 151/324/150 191/309/138
f 191/309/138 151/324/150 152/325/151 192/310/139
f 192/311/139 152/326/151 150/327/152 190/312/140
f 153/328/153 209/255/101 211/256/102 155/329/154
f 155/329/154 211/256/102 212/257/103 156/330/155
f 156/331/155 212/258/103 210/261/104 154/332/156
f 334/333/157 229/334/158 231/335/159 336/336/160
f 336/337/160 231/338/159 232/339/161 335/340/162
f 335/340/162 232/339/161 230/341/163 333/342/164
f 342/343/156 234/344/156 236/345/155 344/346/155
f 344/347/155 236/348/155 235/349/154 343/350/154
f 343/350/154 235/349/154 233/351/153 341/352/153
f 390/353/165 150/327/152 152/326/151 392/354/166
f 392/355/166 152/325/151 151/324/150 391/356/167
f 391/356/167 151/324/150 149/323/149 389/357/168
f 350/358/169 222/359/170 224/360/171 352/361/172
f 352/362/172 224/363/171 223/364/173 351/365/174
f 351/365/174 223/364/173 221/366/175 349/367/176
f 394/368/145 146/318/145 148/319/146 396/369/146
f 396/370/146 148/320/146 147/321/147 395/371/147
f 395/371/147 147/321/147 145/322/148 393/372/148
f 430/373/177 237/374/178 239/375/179 432/376/180
f 432/377/180 239/378/179 240/379/181 431/380/182
f 431/380/182 240/379/181 238/381/183 429/382/184
f 249/383/185 245/384/186 247/385/187 251/386/188
f 251/386/188 247/385/187 248/387/189 252/388/190
f 252/389/190 248/390/189 246/391/191 250/392/192
f 282/393/193 277/394/194 279/395/195 284/396/196
f 284/396/196 279/395/195 280/397/197 283/398/198
f 283/399/198 280/400/197 278/401/199 281/402/200
f 253/403/201 249/383/185 251/386/188 255/404/202
f 255/404/202 251/386/188 252/388/190 256/405/203
f 256/406/203 252/389/190 250/392/192 254/407/204
f 277/394/194 273/408/205 275/409/206 279/395/195
f 279/395/195 275/409/206 276/410/207 280/397/197
f 280/400/197 276/411/207 274/412/208 278/401/199
f 438/413/209 253/403/201 255/404/202 440/414/210
f 440/414/210 255/404/202 256/405/203 439/415/211
f 439/416/211 256/406/203 254/407/204 437/417/212
f 442/418/213 269/419/214 271/420/215 444/421/216
f 444/421/216 271/420/215 272/422/217 443/423/218
f 443/424/218 272/425/217 270/426/219 441/427/220
f 261/428/221 257/429/222 259/430/223 263/431/224
f 263/431/224 259/430/223 260/432/225 264/433/226
f 264/434/226 260/435/225 258/436/227 262/437/228
f 269/419/214 265/438/229 267/439/230 271/420/215
f 271/420/215 267/439/230 268/440/231 272/422/217
f 272/425/217 268/441/231 266/442/232 270/426/219
f 245/384/186 238/381/183 240/379/181 247/385/187
f 247/385/187 240/379/181 239/378/179 248/387/189
f 248/390/189 239/375/179 237/374/178 246/391/191
f 297/443/233 293/444/234 295/445/235 299/446/236
f 299/446/236 295/445/235 296/447/237 300/448/238
f 300/449/238 296/450/237 294/451/239 298/452/240
f 285/453/241 289/454/242 291/455/243 287/456/244
f 287/456/244 291/455/243 292/457/245 288/458/246
f 288/459/246 292/460/245 290/461/247 286/462/248
f 265/438/229 297/443/233 299/446/236 267/439/230
f 267/439/230 299/446/236 300/448/238 268/440/231
f 268/441/231 300/449/238 298/452/240 266/442/232
f 289/454/242 261/428/221 263/431/224 291/455/243
f 291/455/243 263/431/224 264/433/226 292/457/245
f 292/460/245 264/434/226 262/437/228 290/461/247
f 241/463/249 282/393/193 284/396/196 243/464/250
f 243/464/250 284/396/196 283/398/198 244/465/251
f 244/466/251 283/399/198 281/402/200 242/467/252
f 309/468/253 301/469/254 303/470/255 311/471/256
f 311/471/256 303/470/255 304/472/257 312/473/258
f 312/474/258 304/475/257 302/476/259 310/477/260
f 321/478/261 329/479/262 331/480/263 323/481/264
f 323/481/264 331/480/263 332/482/265 324/483/266
f 324/484/266 332/485/265 330/486/267 322/487/268
f 313/488/269 309/468/253 311/471/256 315/489/270
f 315/489/270 311/471/256 312/473/258 316/490/271
f 316/491/271 312/492/258 310/493/260 314/494/272
f 329/479/262 325/495/273 327/496/274 331/480/263
f 331/480/263 327/496/274 328/497/275 332/482/265
f 332/498/265 328/499/275 326/500/276 330/501/267
f 305/502/277 313/488/269 315/489/270 307/503/278
f 307/503/278 315/489/270 316/490/271 308/504/279
f 308/505/279 316/491/271 314/494/272 306/506/280
f 325/495/273 317/507/281 319/508/282 327/496/274
f 327/496/274 319/508/282 320/509/283 328/497/275
f 328/499/275 320/510/283 318/511/284 326/500/276
f 293/444/234 321/478/261 323/481/264 295/445/235
f 295/445/235 323/481/264 324/483/266 296/447/237
f 296/450/237 324/484/266 322/487/268 294/451/239
f 301/469/254 285/453/241 287/456/244 303/470/255
f 303/470/255 287/456/244 288/458/246 304/472/257
f 304/475/257 288/459/246 286/462/248 302/476/259
f 317/507/281 233/351/153 235/349/154 319/508/282
f 319/508/282 235/349/154 236/348/155 320/509/283
f 320/510/283 236/345/155 234/344/156 318/511/284
f 226/512/148 305/502/277 307/503/278 228/513/147
f 228/513/147 307/503/278 308/504/279 227/514/146
f 227/515/146 308/505/279 306/506/280 225/516/145
f 426/517/285 334/333/157 336/336/160 428/518/286
f 428/519/286 336/337/160 335/340/162 427/520/287
f 427/520/287 335/340/162 333/342/164 425/521/288
f 222/359/170 338/522/289 340/523/290 224/360/171
f 224/363/171 340/524/290 339/525/291 223/364/173
f 223/364/173 339/525/291 337/526/292 221/366/175
f 374/527/156 342/343/156 344/346/155 376/528/155
f 376/529/155 344/347/155 343/350/154 375/530/154
f 375/530/154 343/350/154 341/352/153 373/531/153
f 229/334/158 345/532/293 347/533/294 231/335/159
f 231/338/159 347/534/294 348/535/295 232/339/161
f 232/339/161 348/535/295 346/536/296 230/341/163
f 378/537/297 350/358/169 352/361/172 380/538/298
f 380/539/298 352/362/172 351/365/174 379/540/299
f 379/540/299 351/365/174 349/367/176 377/541/300
f 225/516/145 353/542/145 355/543/146 227/515/146
f 227/514/146 355/544/146 356/545/147 228/513/147
f 228/513/147 356/545/147 354/546/148 226/512/148
f 406/547/301 357/548/302 359/549/303 408/550/304
f 408/551/304 359/552/303 360/553/305 407/554/306
f 407/554/306 360/553/305 358/555/307 405/556/308
f 410/557/145 361/558/145 363/559/146 412/560/146
f 412/561/146 363/562/146 364/563/147 411/564/147
f 411/564/147 364/563/147 362/565/148 409/566/148
f 398/567/156 366/568/156 368/569/155 400/570/155
f 400/571/155 368/572/155 367/573/154 399/574/154
f 399/574/154 367/573/154 365/575/153 397/576/153
f 402/577/309 370/260/310 372/578/311 404/579/312
f 404/580/312 372/581/311 371/582/313 403/583/314
f 403/583/314 371/582/313 369/584/315 401/585/316
f 414/586/156 374/527/156 376/528/155 416/587/155
f 416/588/155 376/529/155 375/530/154 415/589/154
f 415/589/154 375/530/154 373/531/153 413/590/153
f 418/591/317 378/537/297 380/538/298 420/592/318
f 420/593/318 380/539/298 379/540/299 419/594/319
f 419/594/319 379/540/299 377/541/300 417/595/320
f 345/532/293 381/596/321 383/597/322 347/533/294
f 347/534/294 383/598/322 384/599/323 348/535/295
f 348/535/295 384/599/323 382/600/324 346/536/296
f 353/542/145 385/601/145 387/602/146 355/543/146
f 355/544/146 387/603/146 388/604/147 356/545/147
f 356/545/147 388/604/147 386/605/148 354/546/148
f 357/268/302 390/353/165 392/354/166 359/606/303
f 359/552/303 392/355/166 391/356/167 360/553/305
f 360/553/305 391/356/167 389/357/168 358/555/307
f 361/558/145 394/368/145 396/369/146 363/559/146
f 363/562/146 396/370/146 395/371/147 364/563/147
f 364/563/147 395/371/147 393/372/148 362/565/148
f 154/332/156 398/567/156 400/570/155 156/331/155
f 156/330/155 400/571/155 399/574/154 155/329/154
f 155/329/154 399/574/154 397/576/153 153/328/153
f 142/313/141 402/577/309 404/579/312 144/314/142
f 144/315/142 404/580/312 403/583/314 143/316/143
f 143/316/143 403/583/314 401/585/316 141/317/144
f 381/596/321 406/547/301 408/550/304 383/597/322
f 383/598/322 408/551/304 407/554/306 384/599/323
f 384/599/323 407/554/306 405/556/308 382/600/324
f 385/601/145 410/557/145 412/560/146 387/602/146
f 387/603/146 412/561/146 411/564/147 388/604/147
f 388/604/147 411/564/147 409/566/148 386/605/148
f 366/568/156 414/586/156 416/587/155 368/569/155
f 368/572/155 416/588/155 415/589/154 367/573/154
f 367/573/154 415/589/154 413/590/153 365/575/153
f 370/607/310 418/591/317 420/592/318 372/608/311
f 372/581/311 420/593/318 419/594/319 371/582/313
f 371/582/313 419/594/319 417/595/320 369/584/315
f 338/522/289 422/609/177 424/610/180 340/523/290
f 340/524/290 424/611/180 423/612/182 339/525/291
f 339/525/291 423/612/182 421/613/184 337/526/292
f 434/614/285 426/517/285 428/518/286 436/615/286
f 436/616/286 428/519/286 427/520/287 435/617/287
f 435/617/287 427/520/287 425/521/288 433/618/288
f 422/609/177 430/373/177 432/376/180 424/610/180
f 424/611/180 432/377/180 431/380/182 423/612/182
f 423/612/182 431/380/182 429/382/184 421/613/184
f 242/467/252 434/614/285 436/615/286 244/466/251
f 244/465/251 436/616/286 435/617/287 243/464/250
f 243/464/250 435/617/287 433/618/288 241/463/249
f 257/429/222 438/413/209 440/414/210 259/430/223
f 259/430/223 440/414/210 439/415/211 260/432/225
f 260/435/225 439/416/211 437/417/212 258/436/227
f 273/408/205 442/418/213 444/421/216 275/409/206
f 275/409/206 444/421/216 443/423/218 276/410/207
f 276/411/207 443/424/218 441/427/220 274/412/208
f 142/313/141 4/9/4 66/12/5 402/577/309
f 20/66/26 4/9/4 142/313/141 162/307/136
f 401/585/316 369/584/315 417/595/320 377/541/300 349/367/176 221/366/175 337/526/292 421/613/184 429/382/184 238/381/183 245/384/186 249/383/185 253/403/201 438/413/209 257/429/222 261/428/221 289/454/242 285/453/241 301/469/254 309/468/253 313/488/269 305/502/277 226/512/148 354/546/148 386/605/148 409/566/148 362/565/148 393/372/148 145/322/148 173/262/105 181/250/97 185/236/86 177/235/85 157/270/110 165/269/109 169/289/125 161/303/133 141/317/144
f 174/267/108 146/318/145 1/14/3 11/63/25
f 1/14/3 146/318/145 394/368/145 63/15/3
f 190/312/140 150/327/152 3/10/4 19/65/26
f 405/556/308 358/555/307 389/357/168 149/323/149 189/308/137 197/296/129 201/280/118 193/279/117 205/226/78 213/225/77 217/245/93 209/255/101 153/328/153 397/576/153 365/575/153 413/590/153 373/531/153 341/352/153 233/351/153 317/507/281 325/495/273 329/479/262 321/478/261 293/444/234 297/443/233 265/438/229 269/419/214 442/418/213 273/408/205 277/394/194 282/393/193 241/463/249 433/618/288 425/521/288 333/342/164 230/341/163 346/536/296 382/600/324
f 3/10/4 150/327/152 390/353/165 65/11/5
f 154/332/156 2/13/3 64/16/3 398/567/156
f 12/64/25 2/13/3 154/332/156 210/261/104
f 158/277/115 13/70/28 16/76/30 166/278/116
f 178/244/92 6/67/27 13/70/28 158/277/115
f 170/295/128 18/71/29 20/66/26 162/307/136
f 166/294/116 16/73/30 18/71/29 170/295/128
f 9/21/31 182/268/100 174/267/108 11/63/25
f 6/67/27 178/244/92 186/243/91 7/78/32
f 7/78/32 186/243/91 182/254/100 9/79/31
f 17/72/29 198/301/132 190/312/140 19/65/26
f 5/68/27 206/233/83 194/288/124 14/69/28
f 14/69/28 194/288/124 202/287/123 15/75/30
f 15/74/30 202/302/123 198/301/132 17/72/29
f 206/233/83 5/68/27 8/77/32 214/234/84
f 218/260/96 10/22/31 12/64/25 210/261/104
f 214/234/84 8/77/32 10/80/31 218/249/96
f 350/358/169 54/24/7 24/62/24 222/359/170
f 49/29/9 338/522/289 222/359/170 24/62/24
f 51/25/3 353/542/145 225/516/145 21/32/3
f 21/32/3 225/516/145 306/506/280 48/33/10
f 334/333/157 50/30/9 23/61/24 229/334/158
f 53/23/7 345/532/293 229/334/158 23/61/24
f 342/343/156 52/26/3 22/31/3 234/344/156
f 234/344/156 22/31/3 47/34/10 318/511/284
f 25/59/23 237/374/178 430/373/177 80/88/8
f 237/374/178 25/59/23 28/57/22 246/391/191
f 242/467/252 26/60/23 79/87/8 434/614/285
f 26/60/23 242/467/252 281/402/200 27/58/22
f 246/391/191 28/57/22 30/53/20 250/392/192
f 250/392/192 30/53/20 32/56/21 254/407/204
f 254/407/204 32/56/21 83/51/19 437/417/212
f 437/417/212 83/51/19 34/49/18 258/436/227
f 258/436/227 34/49/18 36/47/16 262/437/228
f 39/46/15 290/461/247 262/437/228 36/47/16
f 298/452/240 40/45/15 35/48/16 266/442/232
f 33/50/18 270/426/219 266/442/232 35/48/16
f 84/52/19 441/427/220 270/426/219 33/50/18
f 29/54/20 278/401/199 274/412/208 31/55/21
f 31/55/21 274/412/208 441/427/220 84/52/19
f 27/58/22 281/402/200 278/401/199 29/54/20
f 41/36/11 302/476/259 286/462/248 38/37/12
f 38/37/12 286/462/248 290/461/247 39/46/15
f 294/451/239 37/38/12 40/45/15 298/452/240
f 322/487/268 42/35/11 37/38/12 294/451/239
f 302/476/259 41/36/11 44/44/14 310/477/260
f 314/494/272 46/39/13 48/33/10 306/506/280
f 310/493/260 44/41/14 46/39/13 314/494/272
f 45/40/13 326/500/276 318/511/284 47/34/10
f 42/35/11 322/487/268 330/486/267 43/43/14
f 43/42/14 330/501/267 326/500/276 45/40/13
f 426/517/285 77/27/8 50/30/9 334/333/157
f 78/28/8 422/609/177 338/522/289 49/29/9
f 374/527/156 62/18/3 52/26/3 342/343/156
f 59/19/6 381/596/321 345/532/293 53/23/7
f 378/537/297 60/20/6 54/24/7 350/358/169
f 61/17/3 385/601/145 353/542/145 51/25/3
f 55/2/1 357/548/302 406/547/301 69/3/2
f 65/11/5 390/353/165 357/268/302 55/21/1
f 57/6/3 361/558/145 410/557/145 67/7/3
f 63/15/3 394/368/145 361/558/145 57/6/3
f 398/567/156 64/16/3 58/5/3 366/568/156
f 366/568/156 58/5/3 68/8/3 414/586/156
f 402/577/309 66/12/5 56/22/1 370/260/310
f 370/607/310 56/1/1 70/4/2 418/591/317
f 414/586/156 68/8/3 62/18/3 374/527/156
f 418/591/317 70/4/2 60/20/6 378/537/297
f 69/3/2 406/547/301 381/596/321 59/19/6
f 67/7/3 410/557/145 385/601/145 61/17/3
f 80/88/8 430/373/177 422/609/177 78/28/8
f 434/614/285 79/87/8 77/27/8 426/517/285
