# Blender 5.0.0
# www.blender.org
mtllib toolbox.mtl
o toolbox
v 0.113850 0.101156 -0.148189
v 0.090981 0.101156 -0.171914
v 0.112109 0.101156 -0.157268
v 0.107152 0.101156 -0.164965
v 0.099733 0.101156 -0.170108
v 0.093635 0.101156 -0.175979
v 0.116543 0.101156 -0.152094
v 0.102402 0.101156 -0.174161
v 0.109833 0.101156 -0.168984
v 0.114799 0.101156 -0.161235
v 0.105953 0.123526 -0.152154
v 0.093213 0.123526 -0.165747
v 0.104822 0.123526 -0.158074
v 0.102254 0.123526 -0.162075
v 0.098572 0.123526 -0.164637
v 0.090254 0.078348 -0.170680
v 0.113033 0.078348 -0.147134
v 0.098971 0.078348 -0.168887
v 0.106361 0.078348 -0.163783
v 0.111299 0.078348 -0.156145
v 0.086692 0.000000 -0.160600
v 0.087458 0.005490 -0.166416
v 0.086999 0.000736 -0.163392
v 0.087279 0.002745 -0.165521
v 0.104500 0.000000 -0.142087
v 0.110209 0.005491 -0.142924
v 0.107278 0.000736 -0.142392
v 0.109368 0.002746 -0.142698
v 0.093754 0.000000 -0.159150
v 0.096164 0.005490 -0.164627
v 0.094883 0.000736 -0.161773
v 0.095765 0.002745 -0.163778
v 0.099314 0.000000 -0.155314
v 0.103545 0.005490 -0.159535
v 0.101353 0.000736 -0.157310
v 0.102902 0.002745 -0.158854
v 0.103070 0.000000 -0.149510
v 0.108477 0.005491 -0.151914
v 0.105697 0.000736 -0.150597
v 0.107676 0.002745 -0.151477
v 0.109368 0.002746 -0.118233
v 0.107278 0.000736 -0.118233
v 0.104500 0.000000 -0.118232
v 0.113033 0.078348 -0.118233
v 0.113850 0.101156 -0.118233
v 0.116543 0.101156 -0.118233
v 0.105953 0.123526 -0.118233
v 0.110209 0.005491 -0.118233
v 0.023409 0.101156 -0.175979
v 0.023592 0.123526 -0.165747
v 0.021864 0.005490 -0.166416
v 0.022745 0.101156 -0.171914
v 0.021820 0.002745 -0.165521
v 0.021750 0.000736 -0.163392
v 0.021673 0.000000 -0.160600
v 0.021673 0.000000 -0.118232
v 0.113850 0.101156 0.148189
v 0.090981 0.101156 0.171914
v 0.112109 0.101156 0.157268
v 0.107152 0.101156 0.164965
v 0.099733 0.101156 0.170108
v 0.093635 0.101156 0.175979
v 0.116543 0.101156 0.152094
v 0.102402 0.101156 0.174161
v 0.109833 0.101156 0.168984
v 0.114799 0.101156 0.161235
v 0.105953 0.123526 0.152154
v 0.093213 0.123526 0.165747
v 0.104822 0.123526 0.158074
v 0.102254 0.123526 0.162075
v 0.098572 0.123526 0.164637
v 0.090254 0.078348 0.170680
v 0.113033 0.078348 0.147134
v 0.098971 0.078348 0.168887
v 0.106361 0.078348 0.163783
v 0.111299 0.078348 0.156145
v 0.086692 0.000000 0.160600
v 0.087458 0.005490 0.166416
v 0.086999 0.000736 0.163392
v 0.087279 0.002745 0.165521
v 0.104500 0.000000 0.142087
v 0.110209 0.005491 0.142924
v 0.107278 0.000736 0.142392
v 0.109368 0.002746 0.142698
v 0.093754 0.000000 0.159150
v 0.096164 0.005490 0.164627
v 0.094883 0.000736 0.161773
v 0.095765 0.002745 0.163778
v 0.099314 0.000000 0.155314
v 0.103545 0.005490 0.159535
v 0.101353 0.000736 0.157310
v 0.102902 0.002745 0.158854
v 0.103070 0.000000 0.149510
v 0.108477 0.005491 0.151914
v 0.105697 0.000736 0.150597
v 0.107676 0.002745 0.151477
v 0.109368 0.002746 0.118233
v 0.107278 0.000736 0.118233
v 0.104500 0.000000 0.118232
v 0.113033 0.078348 0.118233
v 0.113850 0.101156 0.118233
v 0.116543 0.101156 0.118233
v 0.105953 0.123526 0.118233
v 0.110209 0.005491 0.118233
v 0.023409 0.101156 0.175979
v 0.023592 0.123526 0.165747
v 0.021864 0.005490 0.166416
v 0.022745 0.101156 0.171914
v 0.021820 0.002745 0.165521
v 0.021750 0.000736 0.163392
v 0.021673 0.000000 0.160600
v 0.021673 0.000000 0.118232
v 0.104709 0.005491 -0.118233
v 0.103868 0.002746 -0.118233
v 0.101778 0.000736 -0.118233
v 0.099000 0.000000 -0.118232
v 0.104709 0.005491 0.118233
v 0.103868 0.002746 0.118233
v 0.101778 0.000736 0.118233
v 0.099000 0.000000 0.118232
v 0.112692 0.069562 -0.112030
v 0.112109 0.054520 -0.118233
v 0.112791 0.072113 -0.118233
v 0.112526 0.065262 -0.115131
v 0.112312 0.059756 -0.117402
v 0.113033 0.078348 -0.094501
v 0.112791 0.072105 -0.109503
v 0.113033 0.078348 -0.112101
v 0.113000 0.077511 -0.099732
v 0.112912 0.075227 -0.105223
v 0.107291 0.072105 -0.109503
v 0.107533 0.078348 -0.094501
v 0.107412 0.075227 -0.105223
v 0.107500 0.077511 -0.099732
v 0.106609 0.054520 -0.118233
v 0.107192 0.069562 -0.112030
v 0.106812 0.059756 -0.117402
v 0.107026 0.065262 -0.115131
v 0.112109 0.054520 0.118233
v 0.112692 0.069562 0.112030
v 0.112791 0.072113 0.118233
v 0.112312 0.059756 0.117402
v 0.112526 0.065262 0.115131
v 0.112791 0.072105 0.109503
v 0.113033 0.078348 0.094501
v 0.113033 0.078348 0.112101
v 0.112912 0.075227 0.105223
v 0.113000 0.077511 0.099732
v 0.107533 0.078348 0.094501
v 0.107291 0.072105 0.109503
v 0.107500 0.077511 0.099732
v 0.107412 0.075227 0.105223
v 0.107192 0.069562 0.112030
v 0.106609 0.054520 0.118233
v 0.107026 0.065262 0.115131
v 0.106812 0.059756 0.117402
v -0.113850 0.101156 -0.148189
v -0.090981 0.101156 -0.171914
v -0.112109 0.101156 -0.157268
v -0.107152 0.101156 -0.164965
v -0.099733 0.101156 -0.170108
v -0.093635 0.101156 -0.175979
v -0.116543 0.101156 -0.152094
v -0.102402 0.101156 -0.174161
v -0.109833 0.101156 -0.168984
v -0.114799 0.101156 -0.161235
v -0.105953 0.123526 -0.152154
v -0.093213 0.123526 -0.165747
v -0.104822 0.123526 -0.158074
v -0.102254 0.123526 -0.162075
v -0.098572 0.123526 -0.164637
v -0.090254 0.078348 -0.170680
v -0.113033 0.078348 -0.147134
v -0.098971 0.078348 -0.168887
v -0.106361 0.078348 -0.163783
v -0.111299 0.078348 -0.156145
v -0.086692 0.000000 -0.160600
v -0.087458 0.005490 -0.166416
v -0.086999 0.000736 -0.163392
v -0.087279 0.002745 -0.165521
v -0.104500 0.000000 -0.142087
v -0.110209 0.005491 -0.142924
v -0.107278 0.000736 -0.142392
v -0.109368 0.002746 -0.142698
v -0.093754 0.000000 -0.159150
v -0.096164 0.005490 -0.164627
v -0.094883 0.000736 -0.161773
v -0.095765 0.002745 -0.163778
v -0.099314 0.000000 -0.155314
v -0.103545 0.005490 -0.159535
v -0.101353 0.000736 -0.157310
v -0.102902 0.002745 -0.158854
v -0.103070 0.000000 -0.149510
v -0.108477 0.005491 -0.151914
v -0.105697 0.000736 -0.150597
v -0.107676 0.002745 -0.151477
v -0.109368 0.002746 -0.118233
v -0.107278 0.000736 -0.118233
v -0.104500 0.000000 -0.118232
v -0.113033 0.078348 -0.118233
v -0.113850 0.101156 -0.118233
v -0.116543 0.101156 -0.118233
v -0.105953 0.123526 -0.118233
v -0.110209 0.005491 -0.118233
v -0.023409 0.101156 -0.175979
v -0.023592 0.123526 -0.165747
v -0.021864 0.005490 -0.166416
v -0.022745 0.101156 -0.171914
v -0.021820 0.002745 -0.165521
v -0.021750 0.000736 -0.163392
v -0.021673 0.000000 -0.160600
v -0.021673 0.000000 -0.118232
v -0.113850 0.101156 0.148189
v -0.090981 0.101156 0.171914
v -0.112109 0.101156 0.157268
v -0.107152 0.101156 0.164965
v -0.099733 0.101156 0.170108
v -0.093635 0.101156 0.175979
v -0.116543 0.101156 0.152094
v -0.102402 0.101156 0.174161
v -0.109833 0.101156 0.168984
v -0.114799 0.101156 0.161235
v -0.105953 0.123526 0.152154
v -0.093213 0.123526 0.165747
v -0.104822 0.123526 0.158074
v -0.102254 0.123526 0.162075
v -0.098572 0.123526 0.164637
v -0.090254 0.078348 0.170680
v -0.113033 0.078348 0.147134
v -0.098971 0.078348 0.168887
v -0.106361 0.078348 0.163783
v -0.111299 0.078348 0.156145
v -0.086692 0.000000 0.160600
v -0.087458 0.005490 0.166416
v -0.086999 0.000736 0.163392
v -0.087279 0.002745 0.165521
v -0.104500 0.000000 0.142087
v -0.110209 0.005491 0.142924
v -0.107278 0.000736 0.142392
v -0.109368 0.002746 0.142698
v -0.093754 0.000000 0.159150
v -0.096164 0.005490 0.164627
v -0.094883 0.000736 0.161773
v -0.095765 0.002745 0.163778
v -0.099314 0.000000 0.155314
v -0.103545 0.005490 0.159535
v -0.101353 0.000736 0.157310
v -0.102902 0.002745 0.158854
v -0.103070 0.000000 0.149510
v -0.108477 0.005491 0.151914
v -0.105697 0.000736 0.150597
v -0.107676 0.002745 0.151477
v -0.109368 0.002746 0.118233
v -0.107278 0.000736 0.118233
v -0.104500 0.000000 0.118232
v -0.113033 0.078348 0.118233
v -0.113850 0.101156 0.118233
v -0.116543 0.101156 0.118233
v -0.105953 0.123526 0.118233
v -0.110209 0.005491 0.118233
v -0.023409 0.101156 0.175979
v -0.023592 0.123526 0.165747
v -0.021864 0.005490 0.166416
v -0.022745 0.101156 0.171914
v -0.021820 0.002745 0.165521
v -0.021750 0.000736 0.163392
v -0.021673 0.000000 0.160600
v -0.021673 0.000000 0.118232
v -0.104709 0.005491 -0.118233
v -0.103868 0.002746 -0.118233
v -0.101778 0.000736 -0.118233
v -0.099000 0.000000 -0.118232
v -0.104709 0.005491 0.118233
v -0.103868 0.002746 0.118233
v -0.101778 0.000736 0.118233
v -0.099000 0.000000 0.118232
v -0.112692 0.069562 -0.112030
v -0.112109 0.054520 -0.118233
v -0.112791 0.072113 -0.118233
v -0.112526 0.065262 -0.115131
v -0.112312 0.059756 -0.117402
v -0.113033 0.078348 -0.094501
v -0.112791 0.072105 -0.109503
v -0.113033 0.078348 -0.112101
v -0.113000 0.077511 -0.099732
v -0.112912 0.075227 -0.105223
v -0.107291 0.072105 -0.109503
v -0.107533 0.078348 -0.094501
v -0.107412 0.075227 -0.105223
v -0.107500 0.077511 -0.099732
v -0.106609 0.054520 -0.118233
v -0.107192 0.069562 -0.112030
v -0.106812 0.059756 -0.117402
v -0.107026 0.065262 -0.115131
v -0.112109 0.054520 0.118233
v -0.112692 0.069562 0.112030
v -0.112791 0.072113 0.118233
v -0.112312 0.059756 0.117402
v -0.112526 0.065262 0.115131
v -0.112791 0.072105 0.109503
v -0.113033 0.078348 0.094501
v -0.113033 0.078348 0.112101
v -0.112912 0.075227 0.105223
v -0.113000 0.077511 0.099732
v -0.107533 0.078348 0.094501
v -0.107291 0.072105 0.109503
v -0.107500 0.077511 0.099732
v -0.107412 0.075227 0.105223
v -0.107192 0.069562 0.112030
v -0.106609 0.054520 0.118233
v -0.107026 0.065262 0.115131
v -0.106812 0.059756 0.117402
v 0.021820 0.002745 0.160021
v 0.021750 0.000736 0.157892
v 0.021673 0.000000 0.155100
v 0.021864 0.005490 0.160916
v -0.021820 0.002745 0.160021
v -0.021750 0.000736 0.157892
v -0.021673 0.000000 0.155100
v -0.021864 0.005490 0.160916
v 0.021820 0.002745 -0.160021
v 0.021750 0.000736 -0.157892
v 0.021673 0.000000 -0.155100
v 0.021864 0.005490 -0.160916
v -0.021820 0.002745 -0.160021
v -0.021750 0.000736 -0.157892
v -0.021673 0.000000 -0.155100
v -0.021864 0.005490 -0.160916
v 0.022511 0.072848 -0.170358
v 0.017064 0.078348 -0.170680
v 0.022607 0.083840 -0.170977
v 0.028064 0.078348 -0.170680
v 0.022112 0.074953 -0.170481
v 0.020937 0.076737 -0.170585
v 0.019164 0.077929 -0.170655
v -0.017064 0.078348 -0.170680
v -0.022511 0.072848 -0.170358
v -0.028064 0.078348 -0.170680
v -0.022607 0.083840 -0.170977
v -0.019164 0.077929 -0.170655
v -0.020937 0.076737 -0.170585
v -0.022112 0.074953 -0.170481
v 0.017064 0.078348 -0.165180
v 0.022511 0.072848 -0.164858
v 0.019164 0.077929 -0.165155
v 0.020937 0.076737 -0.165085
v 0.022112 0.074953 -0.164981
v -0.022511 0.072848 -0.164858
v -0.017064 0.078348 -0.165180
v -0.022112 0.074953 -0.164981
v -0.020937 0.076737 -0.165085
v -0.019164 0.077929 -0.165155
v 0.017064 0.078348 0.170680
v 0.022511 0.072848 0.170358
v 0.028064 0.078348 0.170680
v 0.022607 0.083840 0.170977
v 0.019164 0.077929 0.170655
v 0.020937 0.076737 0.170585
v 0.022112 0.074953 0.170481
v -0.022511 0.072848 0.170358
v -0.017064 0.078348 0.170680
v -0.022607 0.083840 0.170977
v -0.028064 0.078348 0.170680
v -0.022112 0.074953 0.170481
v -0.020937 0.076737 0.170585
v -0.019164 0.077929 0.170655
v 0.022511 0.072848 0.164858
v 0.017064 0.078348 0.165180
v 0.022112 0.074953 0.164981
v 0.020937 0.076737 0.165085
v 0.019164 0.077929 0.165155
v -0.017064 0.078348 0.165180
v -0.022511 0.072848 0.164858
v -0.019164 0.077929 0.165155
v -0.020937 0.076737 0.165085
v -0.022112 0.074953 0.164981
v 0.094370 0.123526 -0.177036
v 0.103123 0.123526 -0.175223
v 0.110543 0.123526 -0.170061
v 0.115501 0.123526 -0.162336
v 0.117242 0.123526 -0.153223
v 0.023592 0.123526 -0.177036
v 0.117242 0.123526 -0.118233
v 0.094370 0.123526 0.177036
v 0.103123 0.123526 0.175223
v 0.110543 0.123526 0.170061
v 0.115501 0.123526 0.162336
v 0.117242 0.123526 0.153223
v 0.023592 0.123526 0.177036
v 0.117242 0.123526 0.118233
v -0.094370 0.123526 -0.177036
v -0.103123 0.123526 -0.175223
v -0.110543 0.123526 -0.170061
v -0.115501 0.123526 -0.162336
v -0.117242 0.123526 -0.153223
v -0.023592 0.123526 -0.177036
v -0.117242 0.123526 -0.118233
v -0.094370 0.123526 0.177036
v -0.103123 0.123526 0.175223
v -0.110543 0.123526 0.170061
v -0.115501 0.123526 0.162336
v -0.117242 0.123526 0.153223
v -0.023592 0.123526 0.177036
v -0.117242 0.123526 0.118233
v 0.088098 0.004677 -0.156652
v 0.093163 0.004677 -0.155603
v 0.096643 0.004677 -0.153182
v 0.099070 0.004677 -0.149401
v 0.100139 0.004677 -0.143805
v 0.022298 0.004677 -0.156652
v 0.100139 0.004677 -0.111745
v 0.088098 0.004677 0.156652
v 0.093163 0.004677 0.155603
v 0.096643 0.004677 0.153182
v 0.099070 0.004677 0.149401
v 0.100139 0.004677 0.143805
v 0.022298 0.004677 0.156652
v 0.100139 0.004677 0.111745
v -0.088098 0.004677 -0.156652
v -0.093163 0.004677 -0.155603
v -0.096643 0.004677 -0.153182
v -0.099070 0.004677 -0.149401
v -0.100139 0.004677 -0.143805
v -0.022298 0.004677 -0.156652
v -0.100139 0.004677 -0.111745
v -0.088098 0.004677 0.156652
v -0.093163 0.004677 0.155603
v -0.096643 0.004677 0.153182
v -0.099070 0.004677 0.149401
v -0.100139 0.004677 0.143805
v -0.022298 0.004677 0.156652
v -0.100139 0.004677 0.111745
vn -0.0000 -1.0000 -0.0000
vn 0.1001 -0.0503 -0.9937
vn 0.1037 -0.0504 -0.9933
vn 0.3958 -0.0563 -0.9166
vn 0.3933 -0.0563 -0.9177
vn 0.7182 -0.0562 -0.6936
vn 0.7204 -0.0562 -0.6913
vn 0.9263 -0.0474 -0.3738
vn 0.9294 -0.0472 -0.3661
vn 0.9946 -0.0360 -0.0969
vn 0.9952 -0.0357 -0.0913
vn 0.9945 -0.0402 -0.0972
vn 0.9946 -0.0421 -0.0951
vn 0.9265 -0.0544 -0.3723
vn 0.9255 -0.0515 -0.3753
vn 0.7165 -0.0645 -0.6946
vn 0.7160 -0.0608 -0.6955
vn 0.3922 -0.0654 -0.9175
vn 0.3936 -0.0621 -0.9172
vn 0.1013 -0.0594 -0.9931
vn 0.1029 -0.0569 -0.9931
vn 0.9995 -0.0313 -0.0000
vn 0.1354 -0.9907 -0.0128
vn 0.1312 -0.9900 -0.0526
vn 0.4667 -0.8646 -0.1863
vn 0.4968 -0.8666 -0.0466
vn 0.7892 -0.5267 -0.3157
vn 0.8495 -0.5214 -0.0802
vn 0.9121 -0.1842 -0.3662
vn 0.9808 -0.1714 -0.0933
vn 0.1014 -0.9900 -0.0983
vn 0.3592 -0.8660 -0.3480
vn 0.6076 -0.5328 -0.5890
vn 0.7041 -0.1940 -0.6831
vn 0.0554 -0.9899 -0.1301
vn 0.1959 -0.8659 -0.4603
vn 0.3315 -0.5331 -0.7784
vn 0.3848 -0.1945 -0.9023
vn 0.0137 -0.9907 -0.1351
vn 0.0496 -0.8688 -0.4927
vn 0.0851 -0.5316 -0.8427
vn 0.0992 -0.1881 -0.9771
vn -0.0000 -0.1867 -0.9824
vn -0.0000 -0.5378 -0.8431
vn -0.0000 -0.8761 -0.4821
vn -0.0000 -0.9919 -0.1273
vn 0.1291 -0.9916 -0.0000
vn -0.0000 -0.0546 -0.9985
vn -0.0000 -0.0545 -0.9985
vn -0.0000 -0.0540 -0.9985
vn -0.0978 -0.9952 -0.0000
vn 0.0978 -0.9952 -0.0000
vn 0.0986 -0.9951 -0.0000
vn -0.0986 -0.9951 -0.0000
vn -0.0000 0.0004 1.0000
vn -0.0000 -0.0000 1.0000
vn -0.0000 0.0003 1.0000
vn 0.9994 -0.0358 -0.0000
vn 0.9993 -0.0373 -0.0000
vn 0.9859 -0.1673 -0.0000
vn 0.8519 -0.5236 -0.0000
vn 0.4903 -0.8716 -0.0000
vn 0.9994 -0.0359 -0.0000
vn -0.0000 -0.0472 -0.9989
vn 0.9998 0.0216 -0.0000
vn 0.9999 0.0125 -0.0000
vn 0.9999 0.0133 -0.0000
vn 0.9996 0.0284 -0.0000
vn -0.9999 0.0125 -0.0000
vn -0.9998 0.0216 -0.0000
vn -0.9996 0.0284 -0.0000
vn -0.9999 0.0133 -0.0000
vn 0.9991 0.0416 -0.0000
vn 0.9960 0.0895 -0.0000
vn 0.1001 -0.0503 0.9937
vn 0.3933 -0.0563 0.9177
vn 0.3958 -0.0563 0.9166
vn 0.1037 -0.0504 0.9933
vn 0.7204 -0.0562 0.6913
vn 0.7182 -0.0562 0.6936
vn 0.9294 -0.0472 0.3661
vn 0.9263 -0.0474 0.3738
vn 0.9952 -0.0357 0.0913
vn 0.9946 -0.0360 0.0969
vn 0.9945 -0.0402 0.0972
vn 0.9255 -0.0515 0.3753
vn 0.9265 -0.0544 0.3723
vn 0.9946 -0.0421 0.0951
vn 0.7160 -0.0608 0.6955
vn 0.7165 -0.0645 0.6946
vn 0.3936 -0.0621 0.9172
vn 0.3922 -0.0654 0.9175
vn 0.1029 -0.0569 0.9931
vn 0.1013 -0.0594 0.9931
vn 0.1354 -0.9907 0.0128
vn 0.4968 -0.8666 0.0466
vn 0.4667 -0.8646 0.1863
vn 0.1312 -0.9900 0.0526
vn 0.8495 -0.5214 0.0802
vn 0.7892 -0.5267 0.3157
vn 0.9808 -0.1714 0.0933
vn 0.9121 -0.1842 0.3662
vn 0.3592 -0.8660 0.3480
vn 0.1014 -0.9900 0.0983
vn 0.6076 -0.5328 0.5890
vn 0.7041 -0.1940 0.6831
vn 0.1959 -0.8659 0.4603
vn 0.0554 -0.9899 0.1301
vn 0.3315 -0.5331 0.7784
vn 0.3848 -0.1945 0.9023
vn 0.0496 -0.8688 0.4927
vn 0.0137 -0.9907 0.1351
vn 0.0851 -0.5316 0.8427
vn 0.0992 -0.1881 0.9771
vn -0.0000 -0.1867 0.9824
vn -0.0000 -0.5378 0.8431
vn -0.0000 -0.8761 0.4821
vn -0.0000 -0.9919 0.1273
vn -0.0000 -0.0540 0.9985
vn -0.0000 -0.0545 0.9985
vn -0.0000 -0.0546 0.9985
vn -0.0000 -0.0584 0.9983
vn -0.0000 -0.1847 0.9828
vn -0.0000 -0.0000 -1.0000
vn -0.0000 0.0004 -1.0000
vn -0.0000 0.0003 -1.0000
vn -0.0000 -0.0472 0.9989
vn -0.0000 -0.9968 0.0793
vn -0.0000 -0.9968 -0.0793
vn -0.0000 -0.9969 -0.0790
vn -0.0000 -0.9969 0.0790
vn 0.9992 -0.0387 -0.0000
vn -0.0000 -0.0767 0.9971
vn -0.0000 -0.0805 0.9968
vn -0.0000 -0.2735 0.9619
vn -0.0000 -0.2682 0.9634
vn -0.0000 -0.4886 0.8725
vn -0.0000 -0.4842 0.8750
vn -0.0000 -0.6480 0.7616
vn -0.0000 -0.6458 0.7635
vn -0.0000 -0.7580 0.6523
vn -0.0000 -0.7596 0.6504
vn -0.0000 -0.8724 0.4888
vn -0.0000 -0.8710 0.4913
vn -0.0000 -0.9623 0.2722
vn -0.0000 -0.9618 0.2737
vn -0.0000 -0.6458 -0.7635
vn -0.0000 -0.6480 -0.7616
vn -0.0000 -0.4886 -0.8725
vn -0.0000 -0.4842 -0.8750
vn -0.0000 -0.2735 -0.9619
vn -0.0000 -0.2682 -0.9634
vn -0.0000 -0.0805 -0.9968
vn -0.0000 -0.0767 -0.9971
vn -0.0000 -0.9623 -0.2722
vn -0.0000 -0.9618 -0.2737
vn -0.0000 -0.8724 -0.4888
vn -0.0000 -0.8710 -0.4913
vn -0.0000 -0.7596 -0.6504
vn -0.0000 -0.7580 -0.6523
vn -0.1001 -0.0503 -0.9937
vn -0.3933 -0.0563 -0.9177
vn -0.3958 -0.0563 -0.9166
vn -0.1037 -0.0504 -0.9933
vn -0.7204 -0.0562 -0.6913
vn -0.7182 -0.0562 -0.6936
vn -0.9294 -0.0472 -0.3661
vn -0.9263 -0.0474 -0.3738
vn -0.9952 -0.0357 -0.0913
vn -0.9946 -0.0360 -0.0969
vn -0.9945 -0.0402 -0.0972
vn -0.9255 -0.0515 -0.3753
vn -0.9265 -0.0544 -0.3723
vn -0.9946 -0.0421 -0.0951
vn -0.7160 -0.0608 -0.6955
vn -0.7165 -0.0645 -0.6946
vn -0.3936 -0.0621 -0.9172
vn -0.3922 -0.0654 -0.9175
vn -0.1029 -0.0569 -0.9931
vn -0.1013 -0.0594 -0.9931
vn -0.9995 -0.0313 -0.0000
vn -0.1354 -0.9907 -0.0128
vn -0.4968 -0.8666 -0.0466
vn -0.4667 -0.8646 -0.1863
vn -0.1312 -0.9900 -0.0526
vn -0.8495 -0.5214 -0.0802
vn -0.7892 -0.5267 -0.3157
vn -0.9808 -0.1714 -0.0933
vn -0.9121 -0.1842 -0.3662
vn -0.3592 -0.8660 -0.3480
vn -0.1014 -0.9900 -0.0983
vn -0.6076 -0.5328 -0.5890
vn -0.7041 -0.1940 -0.6831
vn -0.1959 -0.8659 -0.4603
vn -0.0554 -0.9899 -0.1301
vn -0.3315 -0.5331 -0.7784
vn -0.3848 -0.1945 -0.9023
vn -0.0496 -0.8688 -0.4927
vn -0.0137 -0.9907 -0.1351
vn -0.0851 -0.5316 -0.8427
vn -0.0992 -0.1881 -0.9771
vn -0.1291 -0.9916 -0.0000
vn -0.9993 -0.0373 -0.0000
vn -0.9994 -0.0358 -0.0000
vn -0.8519 -0.5236 -0.0000
vn -0.9859 -0.1673 -0.0000
vn -0.4903 -0.8716 -0.0000
vn -0.9994 -0.0359 -0.0000
vn -0.9991 0.0416 -0.0000
vn -0.9960 0.0895 -0.0000
vn 0.9946 0.1038 -0.0000
vn -0.9946 0.1038 -0.0000
vn -0.1001 -0.0503 0.9937
vn -0.1037 -0.0504 0.9933
vn -0.3958 -0.0563 0.9166
vn -0.3933 -0.0563 0.9177
vn -0.7182 -0.0562 0.6936
vn -0.7204 -0.0562 0.6913
vn -0.9263 -0.0474 0.3738
vn -0.9294 -0.0472 0.3661
vn -0.9946 -0.0360 0.0969
vn -0.9952 -0.0357 0.0913
vn -0.9945 -0.0402 0.0972
vn -0.9946 -0.0421 0.0951
vn -0.9265 -0.0544 0.3723
vn -0.9255 -0.0515 0.3753
vn -0.7165 -0.0645 0.6946
vn -0.7160 -0.0608 0.6955
vn -0.3922 -0.0654 0.9175
vn -0.3936 -0.0621 0.9172
vn -0.1013 -0.0594 0.9931
vn -0.1029 -0.0569 0.9931
vn -0.1354 -0.9907 0.0128
vn -0.1312 -0.9900 0.0526
vn -0.4667 -0.8646 0.1863
vn -0.4968 -0.8666 0.0466
vn -0.7892 -0.5267 0.3157
vn -0.8495 -0.5214 0.0802
vn -0.9121 -0.1842 0.3662
vn -0.9808 -0.1714 0.0933
vn -0.1014 -0.9900 0.0983
vn -0.3592 -0.8660 0.3480
vn -0.6076 -0.5328 0.5890
vn -0.7041 -0.1940 0.6831
vn -0.0554 -0.9899 0.1301
vn -0.1959 -0.8659 0.4603
vn -0.3315 -0.5331 0.7784
vn -0.3848 -0.1945 0.9023
vn -0.0137 -0.9907 0.1351
vn -0.0496 -0.8688 0.4927
vn -0.0851 -0.5316 0.8427
vn -0.0992 -0.1881 0.9771
vn -0.1038 0.0803 0.9913
vn -0.0000 0.0763 0.9971
vn -0.0993 0.0802 0.9918
vn -0.9992 -0.0387 -0.0000
vn -0.0000 -0.5324 0.8465
vn -0.0000 -0.8722 0.4892
vn -0.0000 -0.1847 -0.9828
vn -0.0000 -0.0584 -0.9983
vn -0.0000 -0.8722 -0.4892
vn -0.0000 -0.5324 -0.8465
vn -0.0000 -0.9916 -0.1295
vn -0.0000 -0.9916 0.1295
vn -0.0000 -0.0577 -0.9983
vn -0.0000 -0.0559 -0.9984
vn -0.0000 -0.0561 -0.9984
vn 0.3868 -0.9222 -0.0000
vn 0.3816 -0.9243 -0.0000
vn 0.7141 -0.7000 -0.0000
vn 0.7068 -0.7074 -0.0000
vn 0.9294 -0.3691 -0.0000
vn 0.9243 -0.3816 -0.0000
vn 0.9964 -0.0850 -0.0000
vn 0.9957 -0.0923 -0.0000
vn -0.3816 -0.9243 -0.0000
vn -0.3868 -0.9222 -0.0000
vn -0.7068 -0.7074 -0.0000
vn -0.7141 -0.7000 -0.0000
vn -0.9243 -0.3816 -0.0000
vn -0.9294 -0.3691 -0.0000
vn -0.9957 -0.0923 -0.0000
vn -0.9964 -0.0850 -0.0000
vn -0.0000 -0.0559 0.9984
vn -0.0000 -0.0577 0.9983
vn -0.0000 -0.0561 0.9984
vn -0.0000 1.0000 -0.0000
vn 0.9936 0.0555 0.0980
vn 0.9988 0.0489 -0.0000
vn 0.9944 0.0550 0.0902
vn -0.9988 0.0489 -0.0000
vn -0.9936 0.0555 0.0980
vn -0.9944 0.0550 0.0902
vn -0.1038 0.0803 -0.9913
vn -0.3948 0.0875 -0.9146
vn -0.3920 0.0874 -0.9158
vn -0.0993 0.0802 -0.9918
vn 0.3948 0.0875 -0.9146
vn 0.1038 0.0803 -0.9913
vn 0.0993 0.0802 -0.9918
vn 0.3920 0.0874 -0.9158
vn -0.7157 0.0857 -0.6931
vn -0.7193 0.0855 -0.6894
vn 0.7157 0.0857 -0.6931
vn 0.7193 0.0855 -0.6894
vn -0.9242 0.0721 -0.3751
vn -0.9286 0.0715 -0.3640
vn 0.9242 0.0721 -0.3751
vn 0.9286 0.0715 -0.3640
vn -0.9936 0.0555 -0.0980
vn -0.9944 0.0550 -0.0902
vn 0.9936 0.0555 -0.0980
vn 0.9944 0.0550 -0.0902
vn -0.0000 0.0763 -0.9971
vn 0.1038 0.0803 0.9913
vn 0.3948 0.0875 0.9146
vn 0.3920 0.0874 0.9158
vn 0.0993 0.0802 0.9918
vn -0.3948 0.0875 0.9146
vn -0.3920 0.0874 0.9158
vn 0.7157 0.0857 0.6931
vn 0.7193 0.0855 0.6894
vn -0.7157 0.0857 0.6931
vn -0.7193 0.0855 0.6894
vn 0.9242 0.0721 0.3751
vn 0.9286 0.0715 0.3640
vn -0.9242 0.0721 0.3751
vn -0.9286 0.0715 0.3640
vt 0.778935 0.975303
vt 0.781424 0.971693
vt 0.783033 0.980085
vt 0.780547 0.983752
vt 0.787615 0.987200
vt 0.785137 0.990914
vt 0.794473 0.991953
vt 0.792006 0.995700
vt 0.802563 0.993623
vt 0.800109 0.997381
vt 0.690256 0.334002
vt 0.669569 0.333323
vt 0.669708 0.325233
vt 0.690395 0.325899
vt 0.670103 0.318374
vt 0.690792 0.319030
vt 0.747777 0.624771
vt 0.727091 0.625767
vt 0.726886 0.618626
vt 0.747571 0.617609
vt 0.726814 0.610203
vt 0.747499 0.609160
vt 0.689112 0.293595
vt 0.710207 0.292619
vt 0.710279 0.300948
vt 0.689184 0.301987
vt 0.710483 0.308009
vt 0.689389 0.309101
vt 0.332583 0.796652
vt 0.353683 0.797382
vt 0.353293 0.804213
vt 0.332189 0.803509
vt 0.353155 0.812271
vt 0.332051 0.811599
vt 0.781424 0.944004
vt 0.778935 0.944004
vt 0.747499 0.577861
vt 0.726814 0.577861
vt 0.699956 0.785709
vt 0.706817 0.784387
vt 0.707822 0.786815
vt 0.700237 0.788277
vt 0.708635 0.788645
vt 0.700520 0.790208
vt 0.780170 0.288519
vt 0.780240 0.296634
vt 0.777672 0.297038
vt 0.777600 0.288728
vt 0.712182 0.780915
vt 0.714026 0.782800
vt 0.715454 0.784232
vt 0.780438 0.303453
vt 0.777877 0.304082
vt 0.715727 0.775776
vt 0.718152 0.776820
vt 0.720005 0.777635
vt 0.423702 0.800580
vt 0.423325 0.807176
vt 0.420732 0.806808
vt 0.421121 0.799985
vt 0.717068 0.769248
vt 0.719649 0.769532
vt 0.721616 0.769791
vt 0.423192 0.815020
vt 0.420595 0.814856
vt 0.420595 0.875485
vt 0.423192 0.875526
vt 0.425206 0.815280
vt 0.425206 0.875591
vt 0.719649 0.709221
vt 0.717068 0.709150
vt 0.677906 0.709150
vt 0.677906 0.785709
vt 0.353155 0.879923
vt 0.353155 0.911467
vt 0.348074 0.916592
vt 0.332051 0.916719
vt 0.332051 0.874671
vt 0.348074 0.874798
vt 0.932303 0.521563
vt 0.932303 0.490018
vt 0.937386 0.490018
vt 0.937386 0.521563
vt 0.898092 0.553962
vt 0.895618 0.552997
vt 0.900669 0.553574
vt 0.903143 0.554539
vt 0.689112 0.265905
vt 0.710207 0.265905
vt 0.777600 0.265905
vt 0.780170 0.265905
vt 0.782112 0.265905
vt 0.782112 0.288236
vt 0.677906 0.788277
vt 0.778935 0.725432
vt 0.781424 0.725432
vt 0.710207 0.047334
vt 0.710207 0.053001
vt 0.710207 0.069270
vt 0.710207 0.243969
vt 0.710207 0.260238
vt 0.689112 0.047334
vt 0.865635 0.993623
vt 0.865021 0.997381
vt 0.690256 0.398914
vt 0.669569 0.398745
vt 0.449540 0.965930
vt 0.449047 0.963312
vt 0.454089 0.963968
vt 0.454581 0.966587
vt 0.525047 0.961025
vt 0.524554 0.963643
vt 0.519513 0.964299
vt 0.520006 0.961681
vt 0.451252 0.968021
vt 0.456293 0.968678
vt 0.778935 0.694133
vt 0.780547 0.685685
vt 0.783033 0.689351
vt 0.781424 0.697743
vt 0.785137 0.678522
vt 0.787615 0.682237
vt 0.792006 0.673736
vt 0.794473 0.677483
vt 0.800109 0.672056
vt 0.802563 0.675814
vt 0.711478 0.507102
vt 0.711617 0.515204
vt 0.690930 0.515871
vt 0.690792 0.507780
vt 0.712014 0.522074
vt 0.691325 0.522730
vt 0.747777 0.312379
vt 0.747571 0.319541
vt 0.726886 0.318524
vt 0.727092 0.311383
vt 0.747499 0.327990
vt 0.726814 0.326947
vt 0.689112 0.019644
vt 0.689184 0.011252
vt 0.710279 0.012291
vt 0.710207 0.020620
vt 0.689389 0.004138
vt 0.710483 0.005230
vt 0.796812 0.588637
vt 0.796418 0.581779
vt 0.817521 0.581075
vt 0.817912 0.587906
vt 0.796280 0.573689
vt 0.817384 0.573018
vt 0.747499 0.359289
vt 0.726814 0.359289
vt 0.743666 0.713649
vt 0.743947 0.711081
vt 0.751532 0.712542
vt 0.750527 0.714971
vt 0.744230 0.709150
vt 0.752345 0.710713
vt 0.780170 0.024720
vt 0.777600 0.024511
vt 0.777672 0.016201
vt 0.780240 0.016605
vt 0.757736 0.716558
vt 0.755892 0.718443
vt 0.759164 0.715126
vt 0.777877 0.009157
vt 0.780438 0.009786
vt 0.761862 0.722538
vt 0.759437 0.723582
vt 0.763715 0.721723
vt 0.887931 0.584708
vt 0.885350 0.585303
vt 0.884961 0.578480
vt 0.887554 0.578112
vt 0.763359 0.729826
vt 0.760778 0.730110
vt 0.765326 0.729567
vt 0.884824 0.570433
vt 0.887421 0.570268
vt 0.884824 0.509803
vt 0.887421 0.509762
vt 0.889435 0.509697
vt 0.889435 0.570009
vt 0.763359 0.790137
vt 0.760778 0.790208
vt 0.721616 0.790208
vt 0.721616 0.713649
vt 0.796280 0.510617
vt 0.796280 0.468569
vt 0.812303 0.468697
vt 0.817384 0.473821
vt 0.817384 0.505365
vt 0.812303 0.510490
vt 0.076593 0.229484
vt 0.108138 0.229484
vt 0.110080 0.229871
vt 0.111718 0.230975
vt 0.112805 0.232627
vt 0.113173 0.234575
vt 0.112575 0.296923
vt 0.072156 0.296923
vt 0.071558 0.234575
vt 0.071927 0.232627
vt 0.073013 0.230975
vt 0.074651 0.229871
vt 0.893909 0.550939
vt 0.898960 0.551516
vt 0.893423 0.548338
vt 0.898474 0.548915
vt 0.780170 0.047334
vt 0.777600 0.047334
vt 0.782112 0.025003
vt 0.782112 0.047334
vt 0.721616 0.711081
vt 0.910669 0.552997
vt 0.908194 0.553962
vt 0.903143 0.554539
vt 0.905618 0.553574
vt 0.865021 0.672056
vt 0.865635 0.675814
vt 0.690792 0.442359
vt 0.711478 0.442189
vt 0.459259 0.965930
vt 0.458766 0.963312
vt 0.463807 0.963968
vt 0.464300 0.966587
vt 0.290024 0.338763
vt 0.291966 0.338763
vt 0.291966 0.557335
vt 0.290024 0.557335
vt 0.287454 0.338763
vt 0.287454 0.557335
vt 0.712237 0.506941
vt 0.712237 0.332241
vt 0.717321 0.332241
vt 0.717321 0.506941
vt 0.912863 0.548338
vt 0.912377 0.550939
vt 0.907327 0.551516
vt 0.907812 0.548915
vt 0.718334 0.260172
vt 0.722311 0.263039
vt 0.715974 0.265905
vt 0.727404 0.265137
vt 0.732248 0.265905
vt 0.710980 0.248805
vt 0.713094 0.253880
vt 0.715981 0.257837
vt 0.901855 0.503844
vt 0.896804 0.503267
vt 0.897172 0.498390
vt 0.902223 0.498967
vt 0.897572 0.493156
vt 0.902623 0.493733
vt 0.897895 0.488967
vt 0.902946 0.489544
vt 0.951835 0.266160
vt 0.946751 0.266160
vt 0.946640 0.262204
vt 0.951723 0.262204
vt 0.946558 0.257128
vt 0.951641 0.257128
vt 0.946528 0.252293
vt 0.951612 0.252293
vt 0.898092 0.486438
vt 0.903143 0.487015
vt 0.242102 0.557335
vt 0.237258 0.556567
vt 0.232165 0.554468
vt 0.228188 0.551602
vt 0.225835 0.549266
vt 0.222948 0.545310
vt 0.220835 0.540234
vt 0.220061 0.535399
vt 0.220061 0.360699
vt 0.220835 0.355864
vt 0.222948 0.350788
vt 0.225835 0.346832
vt 0.228188 0.344496
vt 0.232165 0.341630
vt 0.237258 0.339531
vt 0.242102 0.338763
vt 0.237343 0.028139
vt 0.239911 0.028139
vt 0.239911 0.246710
vt 0.237343 0.246710
vt 0.732248 0.047334
vt 0.727404 0.048102
vt 0.715974 0.047334
vt 0.722311 0.050200
vt 0.718334 0.053067
vt 0.715981 0.055402
vt 0.713094 0.059359
vt 0.710980 0.064434
vt 0.903341 0.489544
vt 0.908392 0.488967
vt 0.908715 0.493156
vt 0.903664 0.493733
vt 0.909114 0.498390
vt 0.904063 0.498967
vt 0.909483 0.503267
vt 0.904432 0.503844
vt 0.951612 0.077593
vt 0.946528 0.077593
vt 0.946558 0.072758
vt 0.951641 0.072758
vt 0.946640 0.067682
vt 0.951723 0.067682
vt 0.946751 0.063726
vt 0.951835 0.063726
vt 0.908194 0.486438
vt 0.903143 0.487015
vt 0.994382 0.975303
vt 0.992771 0.983752
vt 0.990284 0.980085
vt 0.991893 0.971693
vt 0.988181 0.990914
vt 0.985702 0.987200
vt 0.981312 0.995700
vt 0.978844 0.991953
vt 0.973209 0.997381
vt 0.970755 0.993623
vt 0.690256 0.507102
vt 0.690395 0.515204
vt 0.669708 0.515871
vt 0.669569 0.507780
vt 0.690792 0.522074
vt 0.670103 0.522730
vt 0.772622 0.312460
vt 0.772417 0.319623
vt 0.751732 0.318605
vt 0.751937 0.311464
vt 0.772344 0.328072
vt 0.751659 0.327029
vt 0.899075 0.025223
vt 0.899147 0.016831
vt 0.920242 0.017870
vt 0.920170 0.026198
vt 0.899353 0.009717
vt 0.920447 0.010809
vt 0.332583 0.994738
vt 0.332189 0.987881
vt 0.353293 0.987177
vt 0.353683 0.994008
vt 0.332051 0.979791
vt 0.353155 0.979120
vt 0.991893 0.944004
vt 0.994382 0.944004
vt 0.772344 0.359371
vt 0.751659 0.359371
vt 0.238656 0.916811
vt 0.238937 0.914243
vt 0.246521 0.915705
vt 0.245517 0.918133
vt 0.239220 0.912312
vt 0.247335 0.913875
vt 0.990133 0.030299
vt 0.987563 0.030090
vt 0.987635 0.021780
vt 0.990203 0.022184
vt 0.252726 0.919720
vt 0.250882 0.921605
vt 0.254154 0.918288
vt 0.987840 0.014736
vt 0.990401 0.015365
vt 0.256852 0.925700
vt 0.254427 0.926744
vt 0.258705 0.924885
vt 0.423702 0.990810
vt 0.421121 0.991405
vt 0.420732 0.984582
vt 0.423325 0.984213
vt 0.258348 0.932988
vt 0.255767 0.933272
vt 0.260316 0.932729
vt 0.420595 0.976534
vt 0.423192 0.976370
vt 0.420595 0.915905
vt 0.423192 0.915864
vt 0.425206 0.915799
vt 0.425206 0.976111
vt 0.258348 0.993300
vt 0.255767 0.993370
vt 0.216606 0.993370
vt 0.216606 0.916811
vt 0.917914 0.553962
vt 0.912863 0.554539
vt 0.915337 0.553574
vt 0.920388 0.552997
vt 0.920170 0.052913
vt 0.899075 0.052913
vt 0.990133 0.052913
vt 0.987563 0.052913
vt 0.992076 0.030582
vt 0.992076 0.052913
vt 0.216606 0.914243
vt 0.991893 0.725432
vt 0.994382 0.725432
vt 0.920170 0.271484
vt 0.899075 0.271484
vt 0.920170 0.058580
vt 0.920170 0.074848
vt 0.920170 0.249548
vt 0.920170 0.265816
vt 0.908296 0.997381
vt 0.907683 0.993623
vt 0.669569 0.442359
vt 0.690256 0.442189
vt 0.522842 0.965734
vt 0.517801 0.966391
vt 0.453724 0.969025
vt 0.458766 0.969682
vt 0.520370 0.966738
vt 0.515329 0.967394
vt 0.994382 0.694133
vt 0.991893 0.697743
vt 0.990284 0.689351
vt 0.992771 0.685685
vt 0.985702 0.682237
vt 0.988181 0.678522
vt 0.978844 0.677483
vt 0.981312 0.673736
vt 0.970755 0.675814
vt 0.973209 0.672056
vt 0.711478 0.334002
vt 0.690792 0.333323
vt 0.690930 0.325233
vt 0.711617 0.325899
vt 0.691325 0.318374
vt 0.712014 0.319030
vt 0.772622 0.624853
vt 0.751937 0.625849
vt 0.751732 0.618708
vt 0.772417 0.617690
vt 0.751659 0.610284
vt 0.772344 0.609241
vt 0.899075 0.299173
vt 0.920170 0.298198
vt 0.920242 0.306527
vt 0.899147 0.307565
vt 0.920447 0.313588
vt 0.899353 0.314680
vt 0.796812 0.390550
vt 0.817912 0.391281
vt 0.817521 0.398111
vt 0.796418 0.397408
vt 0.817384 0.406169
vt 0.796280 0.405497
vt 0.772344 0.577942
vt 0.751659 0.577942
vt 0.282366 0.988871
vt 0.289227 0.987549
vt 0.290232 0.989978
vt 0.282647 0.991439
vt 0.291045 0.991807
vt 0.282930 0.993370
vt 0.990133 0.294098
vt 0.990203 0.302213
vt 0.987635 0.302616
vt 0.987563 0.294307
vt 0.294592 0.984077
vt 0.296436 0.985962
vt 0.297864 0.987394
vt 0.990401 0.309032
vt 0.987840 0.309661
vt 0.298137 0.978938
vt 0.300562 0.979982
vt 0.302415 0.980797
vt 0.887931 0.394478
vt 0.887554 0.401075
vt 0.884961 0.400706
vt 0.885350 0.393883
vt 0.299477 0.972410
vt 0.302058 0.972694
vt 0.304026 0.972953
vt 0.887421 0.408919
vt 0.884824 0.408754
vt 0.884824 0.469383
vt 0.887421 0.469425
vt 0.889435 0.409178
vt 0.889435 0.469489
vt 0.302058 0.912383
vt 0.299477 0.912312
vt 0.260316 0.912312
vt 0.260316 0.988871
vt 0.917046 0.551516
vt 0.922097 0.550939
vt 0.917532 0.548915
vt 0.922583 0.548338
vt 0.987563 0.271484
vt 0.990133 0.271484
vt 0.992076 0.271484
vt 0.992076 0.293815
vt 0.260316 0.991439
vt 0.924777 0.552997
vt 0.929828 0.553574
vt 0.932303 0.554539
vt 0.927252 0.553962
vt 0.907683 0.675814
vt 0.908296 0.672056
vt 0.711478 0.398914
vt 0.690792 0.398745
vt 0.534765 0.961025
vt 0.534272 0.963643
vt 0.529231 0.964299
vt 0.529724 0.961681
vt 0.460970 0.968021
vt 0.466012 0.968678
vt 0.532560 0.965734
vt 0.527519 0.966391
vt 0.463443 0.969025
vt 0.468484 0.969681
vt 0.530088 0.966738
vt 0.525047 0.967394
vt 0.366900 0.558622
vt 0.366900 0.340050
vt 0.368843 0.340050
vt 0.368843 0.558622
vt 0.364330 0.558622
vt 0.364330 0.340050
vt 0.664801 0.983289
vt 0.664802 0.918937
vt 0.773583 0.917740
vt 0.773583 0.978562
vt 0.922583 0.548338
vt 0.927634 0.548915
vt 0.928119 0.551516
vt 0.923068 0.550939
vt 0.928297 0.058646
vt 0.925937 0.052913
vt 0.932275 0.055779
vt 0.937368 0.053681
vt 0.942211 0.052913
vt 0.920944 0.070013
vt 0.923057 0.064938
vt 0.925945 0.060981
vt 0.914151 0.503844
vt 0.913783 0.498967
vt 0.918834 0.498390
vt 0.919202 0.503267
vt 0.913384 0.493733
vt 0.918435 0.493156
vt 0.913060 0.489544
vt 0.918111 0.488967
vt 0.712014 0.520808
vt 0.712126 0.516851
vt 0.717209 0.516851
vt 0.717098 0.520808
vt 0.712207 0.511776
vt 0.717291 0.511776
vt 0.912863 0.487015
vt 0.917914 0.486438
vt 0.318978 0.558622
vt 0.314135 0.557854
vt 0.309042 0.555755
vt 0.305064 0.552889
vt 0.302711 0.550553
vt 0.299824 0.546597
vt 0.297711 0.541521
vt 0.296937 0.536686
vt 0.296937 0.361986
vt 0.297711 0.357151
vt 0.299824 0.352075
vt 0.302712 0.348119
vt 0.305064 0.345783
vt 0.309042 0.342917
vt 0.314135 0.340818
vt 0.318978 0.340050
vt 0.425495 0.028139
vt 0.425495 0.246710
vt 0.422927 0.246710
vt 0.422927 0.028139
vt 0.942211 0.271484
vt 0.925937 0.271484
vt 0.937368 0.270716
vt 0.932275 0.268617
vt 0.928297 0.265751
vt 0.925945 0.263415
vt 0.923057 0.259459
vt 0.920944 0.254383
vt 0.932105 0.489544
vt 0.931782 0.493733
vt 0.926731 0.493156
vt 0.927054 0.488967
vt 0.931383 0.498967
vt 0.926332 0.498390
vt 0.931014 0.503844
vt 0.925963 0.503267
vt 0.712207 0.327406
vt 0.717291 0.327406
vt 0.712126 0.322330
vt 0.717209 0.322330
vt 0.712014 0.318374
vt 0.717098 0.318374
vt 0.927252 0.486437
vt 0.932303 0.487015
vt 0.072197 0.299521
vt 0.112534 0.299521
vt 0.112469 0.301534
vt 0.072262 0.301534
vt 0.243123 0.317584
vt 0.243123 0.277165
vt 0.305472 0.276567
vt 0.307420 0.276936
vt 0.309071 0.278022
vt 0.310175 0.279660
vt 0.310562 0.281602
vt 0.310562 0.313147
vt 0.310175 0.315089
vt 0.309071 0.316727
vt 0.307420 0.317814
vt 0.305472 0.318182
vt 0.238512 0.317478
vt 0.238512 0.277271
vt 0.240526 0.277206
vt 0.240526 0.317543
vt 0.313200 0.277018
vt 0.347278 0.277018
vt 0.347278 0.317083
vt 0.313200 0.317083
vt 0.386517 0.317083
vt 0.352440 0.317083
vt 0.352440 0.277017
vt 0.386517 0.277017
vt 0.358246 0.874888
vt 0.356298 0.875256
vt 0.354647 0.876342
vt 0.353543 0.877981
vt 0.353155 0.869755
vt 0.353543 0.913409
vt 0.354647 0.915048
vt 0.356298 0.916134
vt 0.358246 0.916502
vt 0.353155 0.921635
vt 0.942645 0.490018
vt 0.937561 0.490018
vt 0.937538 0.488076
vt 0.942622 0.488076
vt 0.937474 0.486438
vt 0.942557 0.486438
vt 0.453724 0.897538
vt 0.458766 0.898194
vt 0.458642 0.899888
vt 0.453601 0.899232
vt 0.458502 0.901847
vt 0.453461 0.901190
vt 0.937561 0.521563
vt 0.942645 0.521563
vt 0.942622 0.523504
vt 0.937538 0.523504
vt 0.942557 0.525143
vt 0.937474 0.525143
vt 0.515329 0.895907
vt 0.520370 0.895250
vt 0.520493 0.896945
vt 0.515452 0.897601
vt 0.520633 0.898903
vt 0.515592 0.899559
vt 0.349859 0.276946
vt 0.349859 0.317154
vt 0.817772 0.507307
vt 0.818875 0.508946
vt 0.820527 0.510032
vt 0.822475 0.510401
vt 0.817384 0.515533
vt 0.822475 0.468786
vt 0.820527 0.469154
vt 0.818875 0.470240
vt 0.817772 0.471879
vt 0.817384 0.463653
vt 0.468220 0.901847
vt 0.463179 0.901190
vt 0.463319 0.899232
vt 0.468360 0.899888
vt 0.463443 0.897538
vt 0.468484 0.898194
vt 0.932390 0.525143
vt 0.932325 0.523504
vt 0.937409 0.523504
vt 0.530352 0.898903
vt 0.525310 0.899559
vt 0.525170 0.897601
vt 0.530212 0.896945
vt 0.525047 0.895907
vt 0.530088 0.895250
vt 0.932390 0.486438
vt 0.937409 0.488076
vt 0.932325 0.488076
vt 0.349859 0.317154
vt 0.972909 0.658171
vt 0.977862 0.657145
vt 0.982069 0.666931
vt 0.973979 0.668606
vt 0.981266 0.654777
vt 0.988928 0.662159
vt 0.983640 0.651079
vt 0.993511 0.655018
vt 0.984685 0.645607
vt 0.995120 0.646595
vt 0.908557 0.658171
vt 0.908557 0.668606
vt 0.984685 0.614253
vt 0.995120 0.614253
vt 0.977862 0.352788
vt 0.972909 0.351763
vt 0.973979 0.341327
vt 0.982069 0.343003
vt 0.981266 0.355156
vt 0.988928 0.347774
vt 0.983640 0.358855
vt 0.993511 0.354915
vt 0.984685 0.364327
vt 0.995120 0.363339
vt 0.908557 0.351763
vt 0.908557 0.341327
vt 0.984685 0.395681
vt 0.995120 0.395681
vt 0.795637 0.657145
vt 0.800591 0.658171
vt 0.799521 0.668606
vt 0.791431 0.666931
vt 0.792234 0.654777
vt 0.784572 0.662159
vt 0.789860 0.651079
vt 0.779989 0.655018
vt 0.788815 0.645607
vt 0.778379 0.646595
vt 0.864943 0.658171
vt 0.864943 0.668606
vt 0.788815 0.614253
vt 0.778379 0.614253
vt 0.800591 0.351763
vt 0.795637 0.352788
vt 0.791431 0.343003
vt 0.799521 0.341327
vt 0.792234 0.355156
vt 0.784572 0.347774
vt 0.789860 0.358855
vt 0.779989 0.354915
vt 0.788815 0.364327
vt 0.778379 0.363339
vt 0.864943 0.351763
vt 0.864943 0.341327
vt 0.788815 0.395681
vt 0.778379 0.395681
vt 0.971938 0.983842
vt 0.911117 0.983842
vt 0.869896 0.983842
vt 0.809075 0.983842
vt 0.804393 0.982873
vt 0.801176 0.980635
vt 0.798933 0.977139
vt 0.797945 0.971967
vt 0.797945 0.942334
vt 0.797945 0.735755
vt 0.797945 0.706121
vt 0.798933 0.700949
vt 0.801176 0.697454
vt 0.804393 0.695216
vt 0.809075 0.694246
vt 0.869896 0.694246
vt 0.911117 0.694246
vt 0.971938 0.694246
vt 0.976620 0.695216
vt 0.979837 0.697454
vt 0.982080 0.700949
vt 0.983068 0.706121
vt 0.983068 0.735755
vt 0.983068 0.942334
vt 0.983068 0.971967
vt 0.982080 0.977139
vt 0.979837 0.980635
vt 0.976620 0.982873
vt 0.660887 0.705366
vt 0.660887 0.736721
vt 0.551383 0.742717
vt 0.551383 0.713083
vt 0.789572 0.050242
vt 0.789572 0.018887
vt 0.899075 0.026604
vt 0.899075 0.056238
vt 0.664802 0.875323
vt 0.773583 0.876519
vt 0.430590 0.714575
vt 0.430505 0.709622
vt 0.539292 0.714621
vt 0.539372 0.719302
vt 0.430505 0.891847
vt 0.430590 0.886894
vt 0.539372 0.882166
vt 0.539292 0.886847
vt 0.430309 0.706218
vt 0.539107 0.711404
vt 0.430309 0.895250
vt 0.539106 0.890064
vt 0.789418 0.309338
vt 0.789525 0.305640
vt 0.899031 0.297622
vt 0.898930 0.301118
vt 0.660934 0.992119
vt 0.661040 0.995817
vt 0.551528 0.987597
vt 0.551428 0.984101
vt 0.789572 0.300167
vt 0.899075 0.292450
vt 0.660887 0.986646
vt 0.551383 0.978929
vt 0.430590 0.778927
vt 0.539372 0.780123
vt 0.430590 0.822541
vt 0.539372 0.821345
vt 0.789572 0.268813
vt 0.899075 0.262817
vt 0.660887 0.955292
vt 0.551383 0.949296
vt 0.664802 0.810970
vt 0.664717 0.806017
vt 0.773503 0.811017
vt 0.773583 0.815698
vt 0.664717 0.988242
vt 0.773503 0.983243
vt 0.664521 0.802613
vt 0.773318 0.807800
vt 0.664521 0.991646
vt 0.773318 0.986460
vt 0.661040 0.696196
vt 0.660934 0.699894
vt 0.551428 0.707911
vt 0.551528 0.704416
vt 0.789525 0.013415
vt 0.789418 0.009717
vt 0.898930 0.017937
vt 0.899031 0.021432
s 1
usemtl toolbox
f 7/1/1 1/2/1 3/3/1 10/4/1
f 10/4/1 3/3/1 4/5/1 9/6/1
f 9/6/1 4/5/1 5/7/1 8/8/1
f 8/8/1 5/7/1 2/9/1 6/10/1
f 6/11/2 377/12/3 378/13/4 8/14/5
f 8/14/5 378/13/4 379/15/6 9/16/7
f 9/17/7 379/18/6 380/19/8 10/20/9
f 10/20/9 380/19/8 381/21/10 7/22/11
f 1/23/12 17/24/13 20/25/14 3/26/15
f 3/26/15 20/25/14 19/27/16 4/28/17
f 4/29/17 19/30/16 18/31/18 5/32/19
f 5/32/19 18/31/18 16/33/20 2/34/21
f 45/35/1 1/2/1 7/1/1 46/36/1
f 46/37/22 7/22/11 381/21/10 383/38/22
f 25/39/23 37/40/24 39/41/25 27/42/26
f 27/42/26 39/41/25 40/43/27 28/44/28
f 28/45/28 40/46/27 38/47/29 26/48/30
f 37/40/24 33/49/31 35/50/32 39/41/25
f 39/41/25 35/50/32 36/51/33 40/43/27
f 40/46/27 36/52/33 34/53/34 38/47/29
f 33/49/31 29/54/35 31/55/36 35/50/32
f 35/50/32 31/55/36 32/56/37 36/51/33
f 36/57/33 32/58/37 30/59/38 34/60/34
f 29/54/35 21/61/39 23/62/40 31/55/36
f 31/55/36 23/62/40 24/63/41 32/56/37
f 32/58/37 24/64/41 22/65/42 30/59/38
f 51/66/43 22/65/42 24/64/41 53/67/44
f 53/67/44 24/64/41 23/68/40 54/69/45
f 54/70/45 23/62/40 21/61/39 55/71/46
f 56/72/1 55/71/46 21/61/39 29/54/35 33/49/31 37/40/24 25/39/23 43/73/47
f 18/31/18 30/59/38 22/65/42 16/33/20
f 17/24/13 26/48/30 38/47/29 20/25/14
f 19/30/16 34/60/34 30/59/38 18/31/18
f 20/25/14 38/47/29 34/53/34 19/27/16
f 330/74/48 336/75/48 339/76/49 208/77/50 52/78/50 331/79/49
f 353/80/51 361/81/52 372/82/53 368/83/54
f 43/84/55 42/85/56 115/86/57 116/87/55
f 17/24/13 1/23/12 45/88/58 44/89/59
f 26/48/30 48/90/60 41/91/61 28/45/28
f 28/45/28 41/91/61 42/92/62 27/93/26
f 27/42/26 42/94/62 43/73/47 25/39/23
f 46/36/1 102/95/1 101/96/1 45/35/1
f 100/97/59 146/98/59 145/99/63 126/100/63 128/101/59 44/89/59 45/88/58 101/102/58
f 2/9/1 52/103/1 49/104/1 6/10/1
f 6/11/2 49/105/64 382/106/64 377/12/3
f 209/107/65 207/108/66 328/109/67 325/110/68
f 51/111/69 53/112/70 321/113/71 324/114/72
f 210/115/73 209/107/65 325/110/68 326/116/74
f 63/117/1 66/118/1 59/119/1 57/120/1
f 66/118/1 65/121/1 60/122/1 59/119/1
f 65/121/1 64/123/1 61/124/1 60/122/1
f 64/123/1 62/125/1 58/126/1 61/124/1
f 62/127/75 64/128/76 385/129/77 384/130/78
f 64/128/76 65/131/79 386/132/80 385/129/77
f 65/133/79 66/134/81 387/135/82 386/136/80
f 66/134/81 63/137/83 388/138/84 387/135/82
f 57/139/85 59/140/86 76/141/87 73/142/88
f 59/140/86 60/143/89 75/144/90 76/141/87
f 60/145/89 61/146/91 74/147/92 75/148/90
f 61/146/91 58/149/93 72/150/94 74/147/92
f 101/96/1 102/95/1 63/117/1 57/120/1
f 102/151/22 390/152/22 388/138/84 63/137/83
f 81/153/95 83/154/96 95/155/97 93/156/98
f 83/154/96 84/157/99 96/158/100 95/155/97
f 84/159/99 82/160/101 94/161/102 96/162/100
f 93/156/98 95/155/97 91/163/103 89/164/104
f 95/155/97 96/158/100 92/165/105 91/163/103
f 96/162/100 94/161/102 90/166/106 92/167/105
f 89/164/104 91/163/103 87/168/107 85/169/108
f 91/163/103 92/165/105 88/170/109 87/168/107
f 92/171/105 90/172/106 86/173/110 88/174/109
f 85/169/108 87/168/107 79/175/111 77/176/112
f 87/168/107 88/170/109 80/177/113 79/175/111
f 88/174/109 86/173/110 78/178/114 80/179/113
f 107/180/115 109/181/116 80/179/113 78/178/114
f 109/181/116 110/182/117 79/183/111 80/179/113
f 110/184/117 111/185/118 77/176/112 79/175/111
f 112/186/1 99/187/47 81/153/95 93/156/98 89/164/104 85/169/108 77/176/112 111/185/118
f 74/147/92 72/150/94 78/178/114 86/173/110
f 73/142/88 76/141/87 94/161/102 82/160/101
f 75/148/90 74/147/92 86/173/110 90/172/106
f 76/141/87 75/144/90 90/166/106 94/161/102
f 108/188/119 264/189/119 362/190/120 361/191/121 353/192/121 356/193/120
f 368/194/122 372/195/122 374/196/122 375/197/122 376/198/122 373/199/122 320/200/123 316/201/123 367/202/122 369/203/122 370/204/122 371/205/122
f 42/85/56 41/206/56 114/207/56 115/86/57
f 41/206/56 48/208/56 113/209/56 114/207/56
f 73/142/88 100/97/59 101/102/58 57/139/85
f 82/160/101 84/159/99 97/210/61 104/211/60
f 84/159/99 83/212/96 98/213/62 97/210/61
f 83/154/96 81/153/95 99/187/47 98/214/62
f 98/215/124 99/216/125 120/217/125 119/218/126
f 58/126/1 62/125/1 105/219/1 108/220/1
f 62/127/75 384/130/78 389/221/127 105/222/127
f 109/223/70 107/224/69 316/225/72 313/226/71
f 118/227/61 119/228/62 115/229/62 114/230/61
f 117/231/60 118/227/61 114/230/61 113/232/60
f 288/233/128 305/234/129 301/235/130 282/236/131
f 104/237/124 97/238/124 118/239/124 117/240/124
f 97/238/124 98/215/124 119/218/126 118/239/124
f 121/241/132 124/242/132 123/243/132
f 124/242/132 125/244/132 123/243/132
f 125/244/132 122/245/132 123/243/132
f 126/100/63 129/246/132 128/101/59
f 129/246/132 130/247/132 128/101/59
f 130/247/132 127/248/132 128/101/59
f 135/249/133 122/250/134 125/251/135 137/252/136
f 137/252/136 125/251/135 124/253/137 138/254/138
f 138/254/138 124/253/137 121/255/139 136/256/140
f 131/257/141 127/258/142 130/259/143 133/260/144
f 133/260/144 130/259/143 129/261/145 134/262/146
f 134/262/146 129/261/145 126/263/131 132/264/128
f 121/255/139 127/265/142 131/266/141 136/256/140
f 48/208/56 122/250/134 135/249/133 113/209/56
f 26/48/30 17/24/13 44/89/59 123/243/132 122/245/132 48/90/60
f 128/101/59 127/248/132 121/241/132 123/243/132 44/89/59
f 383/38/22 390/152/22 102/151/22 46/37/22
f 117/231/60 113/232/60 135/267/132 137/268/132 138/269/132 136/270/132 131/271/132 133/272/132 134/273/132 132/274/132 149/275/132 151/276/132 152/277/132 150/278/132 153/279/132 155/280/132 156/281/132 154/282/132
f 119/283/62 120/284/47 116/285/47 115/286/62
f 139/287/132 142/288/132 141/289/132
f 142/288/132 143/290/132 141/289/132
f 143/290/132 140/291/132 141/289/132
f 144/292/132 147/293/132 146/98/59
f 147/293/132 148/294/132 146/98/59
f 148/294/132 145/99/63 146/98/59
f 153/295/147 140/296/148 143/297/149 155/298/150
f 155/298/150 143/297/149 142/299/151 156/300/152
f 156/300/152 142/299/151 139/301/153 154/302/154
f 149/303/129 145/304/130 148/305/155 151/306/156
f 151/306/156 148/305/155 147/307/157 152/308/158
f 152/308/158 147/307/157 144/309/159 150/310/160
f 144/311/159 140/296/148 153/295/147 150/312/160
f 139/301/153 104/237/124 117/240/124 154/302/154
f 82/160/101 104/211/60 139/287/132 141/289/132 100/97/59 73/142/88
f 144/292/132 146/98/59 100/97/59 141/289/132 140/291/132
f 163/313/1 166/314/1 159/315/1 157/316/1
f 166/314/1 165/317/1 160/318/1 159/315/1
f 165/317/1 164/319/1 161/320/1 160/318/1
f 164/319/1 162/321/1 158/322/1 161/320/1
f 162/323/161 164/324/162 392/325/163 391/326/164
f 164/324/162 165/327/165 393/328/166 392/325/163
f 165/329/165 166/330/167 394/331/168 393/332/166
f 166/330/167 163/333/169 395/334/170 394/331/168
f 157/335/171 159/336/172 176/337/173 173/338/174
f 159/336/172 160/339/175 175/340/176 176/337/173
f 160/341/175 161/342/177 174/343/178 175/344/176
f 161/342/177 158/345/179 172/346/180 174/343/178
f 201/347/1 202/348/1 163/313/1 157/316/1
f 202/349/181 397/350/181 395/334/170 163/333/169
f 181/351/182 183/352/183 195/353/184 193/354/185
f 183/352/183 184/355/186 196/356/187 195/353/184
f 184/357/186 182/358/188 194/359/189 196/360/187
f 193/354/185 195/353/184 191/361/190 189/362/191
f 195/353/184 196/356/187 192/363/192 191/361/190
f 196/360/187 194/359/189 190/364/193 192/365/192
f 189/362/191 191/361/190 187/366/194 185/367/195
f 191/361/190 192/363/192 188/368/196 187/366/194
f 192/369/192 190/370/193 186/371/197 188/372/196
f 185/367/195 187/366/194 179/373/198 177/374/199
f 187/366/194 188/368/196 180/375/200 179/373/198
f 188/372/196 186/371/197 178/376/201 180/377/200
f 207/378/43 209/379/44 180/377/200 178/376/201
f 209/379/44 210/380/45 179/381/198 180/377/200
f 210/382/45 211/383/46 177/374/199 179/373/198
f 212/384/1 199/385/202 181/351/182 193/354/185 189/362/191 185/367/195 177/374/199 211/383/46
f 174/343/178 172/346/180 178/376/201 186/371/197
f 173/338/174 176/337/173 194/359/189 182/358/188
f 175/344/176 174/343/178 186/371/197 190/370/193
f 176/337/173 175/340/176 190/364/193 194/359/189
f 199/386/55 272/387/55 271/388/57 198/389/56
f 173/338/174 200/390/203 201/391/204 157/335/171
f 182/358/188 184/357/186 197/392/205 204/393/206
f 184/357/186 183/394/183 198/395/207 197/392/205
f 183/352/183 181/351/182 199/385/202 198/396/207
f 201/347/1 257/397/1 258/398/1 202/348/1
f 256/399/203 257/400/204 201/391/204 200/390/203 284/401/203 282/402/208 301/403/208 302/404/203
f 158/322/1 162/321/1 205/405/1 208/406/1
f 162/323/161 391/326/164 396/407/64 205/408/64
f 53/112/70 54/409/209 322/410/210 321/113/71
f 211/411/211 210/115/73 326/116/74 327/412/211
f 54/409/209 55/413/212 323/414/212 322/410/210
f 219/415/1 213/416/1 215/417/1 222/418/1
f 222/418/1 215/417/1 216/419/1 221/420/1
f 221/420/1 216/419/1 217/421/1 220/422/1
f 220/422/1 217/421/1 214/423/1 218/424/1
f 218/425/213 398/426/214 399/427/215 220/428/216
f 220/428/216 399/427/215 400/429/217 221/430/218
f 221/431/218 400/432/217 401/433/219 222/434/220
f 222/434/220 401/433/219 402/435/221 219/436/222
f 213/437/223 229/438/224 232/439/225 215/440/226
f 215/440/226 232/439/225 231/441/227 216/442/228
f 216/443/228 231/444/227 230/445/229 217/446/230
f 217/446/230 230/445/229 228/447/231 214/448/232
f 257/397/1 213/416/1 219/415/1 258/398/1
f 258/449/181 219/436/222 402/435/221 404/450/181
f 237/451/233 249/452/234 251/453/235 239/454/236
f 239/454/236 251/453/235 252/455/237 240/456/238
f 240/457/238 252/458/237 250/459/239 238/460/240
f 249/452/234 245/461/241 247/462/242 251/453/235
f 251/453/235 247/462/242 248/463/243 252/455/237
f 252/458/237 248/464/243 246/465/244 250/459/239
f 245/461/241 241/466/245 243/467/246 247/462/242
f 247/462/242 243/467/246 244/468/247 248/463/243
f 248/469/243 244/470/247 242/471/248 246/472/244
f 241/466/245 233/473/249 235/474/250 243/467/246
f 243/467/246 235/474/250 236/475/251 244/468/247
f 244/470/247 236/476/251 234/477/252 242/471/248
f 263/478/115 234/477/252 236/476/251 265/479/116
f 265/479/116 236/476/251 235/480/250 266/481/117
f 266/482/117 235/474/250 233/473/249 267/483/118
f 268/484/1 267/483/118 233/473/249 241/466/245 245/461/241 249/452/234 237/451/233 255/485/202
f 230/445/229 242/471/248 234/477/252 228/447/231
f 229/438/224 238/460/240 250/459/239 232/439/225
f 231/444/227 246/472/244 242/471/248 230/445/229
f 232/439/225 250/459/239 246/465/244 231/441/227
f 198/389/56 271/388/57 270/486/56 197/487/56
f 197/487/56 270/486/56 269/488/56 204/489/56
f 229/438/224 213/437/223 257/400/204 256/399/203
f 238/460/240 260/490/206 253/491/205 240/457/238
f 240/457/238 253/491/205 254/492/207 239/493/236
f 239/454/236 254/494/207 255/485/202 237/451/233
f 254/495/124 275/496/126 276/497/125 255/498/125
f 214/423/1 264/499/1 261/500/1 218/424/1
f 218/425/213 261/501/127 403/502/127 398/426/214
f 263/503/66 265/504/65 317/505/68 320/506/67
f 110/507/209 109/223/70 313/226/71 314/508/210
f 265/504/65 266/509/73 318/510/74 317/505/68
f 111/511/212 110/507/209 314/508/210 315/512/212
f 266/509/73 267/513/211 319/514/211 318/510/74
f 274/515/205 270/516/205 271/517/207 275/518/207
f 273/519/206 269/520/206 270/516/205 274/515/205
f 12/521/253 50/522/254 410/523/254 405/524/255
f 260/525/124 273/526/124 274/527/124 253/528/124
f 253/528/124 274/527/124 275/496/126 254/495/124
f 277/529/256 279/530/256 280/531/256
f 280/531/256 279/530/256 281/532/256
f 281/532/256 279/530/256 278/533/256
f 282/402/208 284/401/203 285/534/256
f 285/534/256 284/401/203 286/535/256
f 286/535/256 284/401/203 283/536/256
f 291/537/133 293/538/136 281/539/135 278/540/134
f 293/538/136 294/541/138 280/542/137 281/539/135
f 294/541/138 292/543/140 277/544/139 280/542/137
f 287/545/141 289/546/144 286/547/143 283/548/142
f 289/546/144 290/549/146 285/550/145 286/547/143
f 290/549/146 288/233/128 282/236/131 285/550/145
f 277/544/139 292/543/140 287/551/141 283/552/142
f 204/489/56 269/488/56 291/537/133 278/540/134
f 182/358/188 204/393/206 278/533/256 279/530/256 200/390/203 173/338/174
f 284/401/203 200/390/203 279/530/256 277/529/256 283/536/256
f 202/349/181 258/449/181 404/450/181 397/350/181
f 273/519/206 310/553/256 312/554/256 311/555/256 309/556/256 306/557/256 308/558/256 307/559/256 305/560/256 288/561/256 290/562/256 289/563/256 287/564/256 292/565/256 294/566/256 293/567/256 291/568/256 269/520/206
f 275/569/207 271/570/207 272/571/202 276/572/202
f 295/573/256 297/574/256 298/575/256
f 298/575/256 297/574/256 299/576/256
f 299/576/256 297/574/256 296/577/256
f 300/578/256 302/404/203 303/579/256
f 303/579/256 302/404/203 304/580/256
f 304/580/256 302/404/203 301/403/208
f 309/581/147 311/582/150 299/583/149 296/584/148
f 311/582/150 312/585/152 298/586/151 299/583/149
f 312/585/152 310/587/154 295/588/153 298/586/151
f 305/234/129 307/589/156 304/590/155 301/235/130
f 307/589/156 308/591/158 303/592/157 304/590/155
f 308/591/158 306/593/160 300/594/159 303/592/157
f 300/595/159 306/596/160 309/581/147 296/584/148
f 295/588/153 310/587/154 273/526/124 260/525/124
f 238/460/240 229/438/224 256/399/203 297/574/256 295/573/256 260/490/206
f 300/578/256 296/577/256 297/574/256 256/399/203 302/404/203
f 313/597/257 317/598/257 318/599/258 314/600/258
f 316/201/123 320/200/123 317/598/257 313/597/257
f 324/601/259 328/602/259 348/603/260 350/604/260 351/605/260 352/606/260 349/607/260 343/608/260 345/609/260 346/610/260 347/611/260 344/612/260
f 322/613/261 326/614/261 325/615/262 321/616/262
f 321/616/262 325/615/262 328/602/259 324/601/259
f 212/617/1 327/618/263 323/619/263 56/620/1
f 112/621/1 315/622/264 319/623/264 268/624/1
f 116/285/47 120/284/47 276/572/202 272/571/202
f 329/625/265 333/626/266 334/627/266 335/628/266 330/74/48 331/79/49 332/629/267
f 336/75/48 340/630/266 341/631/266 342/632/266 337/633/265 338/634/267 339/76/49
f 336/635/52 349/636/53 352/637/268 340/638/269
f 340/638/269 352/637/268 351/639/270 341/640/271
f 341/641/271 351/642/270 350/643/272 342/644/273
f 342/644/273 350/643/272 348/645/274 337/646/275
f 343/647/54 330/648/51 335/649/276 345/650/277
f 345/650/277 335/649/276 334/651/278 346/652/279
f 346/653/279 334/654/278 333/655/280 347/656/281
f 347/656/281 333/655/280 329/657/282 344/658/283
f 51/66/43 329/625/265 332/629/267 16/33/20 22/65/42
f 208/406/1 205/405/1 49/104/1 52/103/1
f 329/657/282 51/111/69 324/114/72 344/658/283
f 332/629/267 331/79/49 52/78/50 2/34/21 16/33/20
f 205/408/64 396/407/64 382/106/64 49/105/64
f 207/378/43 178/376/201 172/346/180 338/634/267 337/633/265
f 339/76/49 338/634/267 172/346/180 158/345/179 208/77/50
f 207/108/66 337/646/275 348/645/274 328/109/67
f 323/619/263 327/618/263 326/659/261 322/660/261
f 353/192/121 357/661/284 358/662/284 359/663/284 354/664/285 355/665/286 356/193/120
f 360/666/285 364/667/284 365/668/284 366/669/284 361/191/121 362/190/120 363/670/286
f 367/671/283 354/672/282 359/673/280 369/674/281
f 369/674/281 359/673/280 358/675/278 370/676/279
f 370/652/279 358/677/278 357/678/276 371/679/277
f 371/679/277 357/678/276 353/80/51 368/83/54
f 360/680/275 373/681/274 376/682/272 364/683/273
f 364/683/273 376/682/272 375/684/270 365/685/271
f 365/686/271 375/639/270 374/687/268 366/688/269
f 366/688/269 374/687/268 372/82/53 361/81/52
f 107/180/115 78/178/114 72/150/94 355/665/286 354/664/285
f 264/499/1 108/220/1 105/219/1 261/500/1
f 356/193/120 355/665/286 72/150/94 58/149/93 108/188/119
f 107/224/69 354/672/282 367/671/283 316/225/72
f 261/501/127 105/222/127 389/221/127 403/502/127
f 360/680/275 263/503/66 320/506/67 373/681/274
f 363/670/286 362/190/120 264/189/119 214/448/232 228/447/231
f 263/478/115 360/666/285 363/670/286 228/447/231 234/477/252
f 314/689/258 318/659/258 319/623/264 315/622/264
f 336/635/52 330/648/51 343/647/54 349/636/53
f 126/263/131 145/304/130 149/303/129 132/264/128
f 12/690/287 15/691/287 378/692/287 377/693/287
f 15/691/287 14/694/287 379/695/287 378/692/287
f 14/694/287 13/696/287 380/697/287 379/695/287
f 13/696/287 11/698/287 381/699/287 380/697/287
f 50/700/287 12/690/287 377/693/287 382/701/287
f 11/698/287 47/702/287 383/703/287 381/699/287
f 71/704/287 68/705/287 384/706/287 385/707/287
f 70/708/287 71/704/287 385/707/287 386/709/287
f 69/710/287 70/708/287 386/709/287 387/711/287
f 67/712/287 69/710/287 387/711/287 388/713/287
f 68/705/287 106/714/287 389/715/287 384/706/287
f 47/702/287 103/716/287 390/717/287 383/703/287
f 103/716/287 67/712/287 388/713/287 390/717/287
f 171/718/287 168/719/287 391/720/287 392/721/287
f 170/722/287 171/718/287 392/721/287 393/723/287
f 169/724/287 170/722/287 393/723/287 394/725/287
f 167/726/287 169/724/287 394/725/287 395/727/287
f 168/719/287 206/728/287 396/729/287 391/720/287
f 203/730/287 167/726/287 395/727/287 397/731/287
f 206/728/287 50/700/287 382/701/287 396/729/287
f 224/732/287 227/733/287 399/734/287 398/735/287
f 227/733/287 226/736/287 400/737/287 399/734/287
f 226/736/287 225/738/287 401/739/287 400/737/287
f 225/738/287 223/740/287 402/741/287 401/739/287
f 262/742/287 224/732/287 398/735/287 403/743/287
f 259/744/287 203/730/287 397/731/287 404/745/287
f 223/740/287 259/744/287 404/745/287 402/741/287
f 106/714/287 262/742/287 403/743/287 389/715/287
f 405/746/287 410/747/287 424/748/287 419/749/287 420/750/287 421/751/287 422/752/287 423/753/287 425/754/287 432/755/287 430/756/287 429/757/287 428/758/287 427/759/287 426/760/287 431/761/287 417/762/287 412/763/287 413/764/287 414/765/287 415/766/287 416/767/287 418/768/287 411/769/287 409/770/287 408/771/287 407/772/287 406/773/287
f 167/774/288 203/775/289 425/776/289 423/777/290
f 47/778/291 11/779/292 409/780/293 411/781/291
f 50/522/254 206/782/254 424/783/254 410/523/254
f 68/784/294 71/785/295 413/786/296 412/787/297
f 227/788/298 224/789/299 426/790/300 427/791/301
f 71/785/295 70/792/302 414/793/303 413/786/296
f 226/794/304 227/788/298 427/791/301 428/795/305
f 70/796/302 69/797/306 415/798/307 414/799/303
f 225/800/308 226/801/304 428/802/305 429/803/309
f 69/797/306 67/804/310 416/805/311 415/798/307
f 223/806/312 225/800/308 429/803/309 430/807/313
f 106/808/314 68/784/294 412/787/297 417/809/314
f 224/789/299 262/810/314 431/811/314 426/790/300
f 103/812/291 47/778/291 411/781/291 418/813/291
f 203/775/289 259/814/289 432/815/289 425/776/289
f 67/804/310 103/812/291 418/813/291 416/805/311
f 259/814/289 223/806/312 430/807/313 432/815/289
f 168/816/315 171/817/316 420/818/317 419/819/318
f 15/820/319 12/521/253 405/524/255 406/821/320
f 262/810/314 106/808/314 417/809/314 431/811/314
f 171/817/316 170/822/321 421/823/322 420/818/317
f 14/824/323 15/820/319 406/821/320 407/825/324
f 170/826/321 169/827/325 422/828/326 421/829/322
f 13/830/327 14/831/323 407/832/324 408/833/328
f 169/827/325 167/774/288 423/777/290 422/828/326
f 11/779/292 13/830/327 408/833/328 409/780/293
f 206/782/254 168/816/315 419/819/318 424/783/254
o lid_toolbox
v -0.041985 0.145868 -0.169365
v -0.037626 0.145868 -0.169365
v 0.037626 0.145868 -0.169365
v 0.041986 0.145868 -0.169365
v 0.041986 0.145868 0.169365
v 0.037626 0.145868 0.169365
v -0.037626 0.145868 0.169365
v -0.041985 0.145868 0.169365
v -0.094515 0.112029 0.175786
v -0.115300 0.112029 0.155001
v -0.102645 0.112029 0.174169
v -0.109261 0.112029 0.169748
v -0.113683 0.112029 0.163131
v -0.115300 0.112029 -0.155001
v -0.094515 0.112029 -0.175786
v -0.113683 0.112029 -0.163131
v -0.109261 0.112029 -0.169748
v -0.102645 0.112029 -0.174169
v 0.115301 0.112029 0.155001
v 0.094516 0.112029 0.175786
v 0.113683 0.112029 0.163131
v 0.109262 0.112029 0.169748
v 0.102645 0.112029 0.174169
v 0.094516 0.112029 -0.175786
v 0.115301 0.112029 -0.155001
v 0.102645 0.112029 -0.174169
v 0.109262 0.112029 -0.169748
v 0.113683 0.112029 -0.163131
v -0.085146 0.133247 0.169365
v -0.108976 0.133247 0.145534
v -0.094265 0.133247 0.167551
v -0.101996 0.133247 0.162385
v -0.107162 0.133247 0.154654
v -0.108976 0.133247 -0.145534
v -0.085146 0.133247 -0.169365
v -0.107162 0.133247 -0.154654
v -0.101996 0.133247 -0.162385
v -0.094265 0.133247 -0.167551
v 0.085146 0.133247 -0.169365
v 0.108977 0.133247 -0.145534
v 0.094266 0.133247 -0.167551
v 0.101997 0.133247 -0.162385
v 0.107163 0.133247 -0.154654
v 0.108977 0.133247 0.145534
v 0.085146 0.133247 0.169365
v 0.107163 0.133247 0.154654
v 0.101997 0.133247 0.162385
v 0.094266 0.133247 0.167551
v -0.094579 0.131746 0.178798
v -0.118409 0.131746 0.154967
v -0.103698 0.131746 0.176984
v -0.111429 0.131746 0.171818
v -0.116595 0.131746 0.164087
v -0.118409 0.131746 -0.154967
v -0.094579 0.131746 -0.178798
v -0.116595 0.131746 -0.164087
v -0.111429 0.131746 -0.171818
v -0.103698 0.131746 -0.176984
v 0.094579 0.131746 -0.178798
v 0.118410 0.131746 -0.154967
v 0.103699 0.131746 -0.176984
v 0.111430 0.131746 -0.171818
v 0.116596 0.131746 -0.164087
v 0.118410 0.131746 0.154967
v 0.094579 0.131746 0.178798
v 0.116596 0.131746 0.164087
v 0.111430 0.131746 0.171818
v 0.103699 0.131746 0.176984
v 0.044736 0.156868 -0.166615
v 0.041986 0.154118 -0.169365
v 0.043361 0.156500 -0.167990
v 0.042354 0.155493 -0.168997
v 0.041986 0.154118 0.169365
v 0.044736 0.156868 0.166615
v 0.042354 0.155493 0.168997
v 0.043361 0.156500 0.167990
v 0.037626 0.154118 -0.169365
v 0.011740 0.159141 -0.057161
v 0.037258 0.155493 -0.168997
v 0.036251 0.156500 -0.167990
v 0.011740 0.159141 0.057161
v 0.037626 0.154118 0.169365
v 0.036251 0.156500 0.167990
v 0.037258 0.155493 0.168997
v -0.011739 0.159141 -0.057161
v -0.037626 0.154118 -0.169365
v -0.036251 0.156500 -0.167990
v -0.037257 0.155493 -0.168997
v -0.037626 0.154118 0.169365
v -0.011739 0.159141 0.057161
v -0.037257 0.155493 0.168997
v -0.036251 0.156500 0.167990
v -0.041985 0.154118 -0.169365
v -0.044735 0.156868 -0.166615
v -0.042353 0.155493 -0.168997
v -0.043360 0.156500 -0.167990
v -0.044735 0.156868 0.166615
v -0.041985 0.154118 0.169365
v -0.043360 0.156500 0.167990
v -0.042353 0.155493 0.168997
v 0.108977 0.154118 0.145605
v 0.106227 0.156868 0.145334
v 0.108608 0.155493 0.145568
v 0.107602 0.156500 0.145469
v 0.104578 0.156868 0.153624
v 0.107168 0.154118 0.154697
v 0.105873 0.156500 0.154161
v 0.106821 0.155493 0.154554
v 0.100035 0.156868 0.160423
v 0.102018 0.154118 0.162406
v 0.101026 0.156500 0.161415
v 0.101752 0.155493 0.162140
v 0.093236 0.156868 0.164966
v 0.094309 0.154118 0.167556
v 0.093773 0.156500 0.166261
v 0.094165 0.155493 0.167209
v 0.084946 0.156868 0.166615
v 0.085217 0.154118 0.169365
v 0.085081 0.156500 0.167990
v 0.085180 0.155493 0.168997
v -0.107167 0.154118 0.154697
v -0.104577 0.156868 0.153624
v -0.106820 0.155493 0.154554
v -0.105872 0.156500 0.154161
v -0.106226 0.156868 0.145334
v -0.108976 0.154118 0.145605
v -0.107601 0.156500 0.145469
v -0.108607 0.155493 0.145568
v -0.102017 0.154118 0.162406
v -0.100034 0.156868 0.160423
v -0.101751 0.155493 0.162140
v -0.101025 0.156500 0.161415
v -0.094309 0.154118 0.167556
v -0.093235 0.156868 0.164966
v -0.094165 0.155493 0.167209
v -0.093772 0.156500 0.166261
v -0.085216 0.154118 0.169365
v -0.084945 0.156868 0.166615
v -0.085180 0.155493 0.168997
v -0.085081 0.156500 0.167990
v -0.108976 0.154118 -0.145605
v -0.106226 0.156868 -0.145334
v -0.108607 0.155493 -0.145568
v -0.107601 0.156500 -0.145469
v -0.104577 0.156868 -0.153624
v -0.107167 0.154118 -0.154697
v -0.105872 0.156500 -0.154161
v -0.106820 0.155493 -0.154554
v -0.100034 0.156868 -0.160423
v -0.102017 0.154118 -0.162406
v -0.101025 0.156500 -0.161415
v -0.101751 0.155493 -0.162140
v -0.093235 0.156868 -0.164966
v -0.094309 0.154118 -0.167556
v -0.093772 0.156500 -0.166261
v -0.094165 0.155493 -0.167209
v -0.084945 0.156868 -0.166615
v -0.085216 0.154118 -0.169365
v -0.085081 0.156500 -0.167990
v -0.085180 0.155493 -0.168997
v 0.107168 0.154118 -0.154697
v 0.104578 0.156868 -0.153624
v 0.106821 0.155493 -0.154554
v 0.105873 0.156500 -0.154161
v 0.106227 0.156868 -0.145334
v 0.108977 0.154118 -0.145605
v 0.107602 0.156500 -0.145469
v 0.108608 0.155493 -0.145568
v 0.102018 0.154118 -0.162406
v 0.100035 0.156868 -0.160423
v 0.101752 0.155493 -0.162140
v 0.101026 0.156500 -0.161415
v 0.094309 0.154118 -0.167556
v 0.093236 0.156868 -0.164966
v 0.094165 0.155493 -0.167209
v 0.093773 0.156500 -0.166261
v 0.085217 0.154118 -0.169365
v 0.084946 0.156868 -0.166615
v 0.085180 0.155493 -0.168997
v 0.085081 0.156500 -0.167990
v 0.034876 0.156868 -0.166615
v 0.034876 0.156868 0.166615
v -0.034876 0.156868 0.166615
v -0.034876 0.156868 -0.166615
v 0.011740 0.165030 -0.057161
v 0.011740 0.182170 -0.040021
v 0.011740 0.173865 -0.054794
v 0.011740 0.179803 -0.048856
v 0.011740 0.182170 0.040021
v 0.011740 0.165030 0.057161
v 0.011740 0.179803 0.048856
v 0.011740 0.173865 0.054794
v -0.011739 0.165030 0.057161
v -0.011739 0.182170 0.040021
v -0.011739 0.173865 0.054794
v -0.011739 0.179803 0.048856
v -0.011739 0.182170 -0.040021
v -0.011739 0.165030 -0.057161
v -0.011739 0.179803 -0.048856
v -0.011739 0.173865 -0.054794
v 0.011740 0.156868 -0.062661
v 0.011740 0.156868 0.062661
v -0.011739 0.156868 0.062661
v -0.011739 0.156868 -0.062661
v -0.011739 0.184734 -0.051703
v -0.011739 0.187670 -0.040745
v 0.011740 0.187670 -0.040745
v 0.011740 0.184734 -0.051703
v -0.011739 0.176712 -0.059725
v 0.011740 0.176712 -0.059725
v -0.011739 0.165754 -0.062661
v 0.011740 0.165754 -0.062661
v 0.011740 0.184734 0.051703
v 0.011740 0.187670 0.040745
v -0.011739 0.187670 0.040745
v -0.011739 0.184734 0.051703
v 0.011740 0.176712 0.059725
v -0.011739 0.176712 0.059725
v 0.011740 0.165754 0.062661
v -0.011739 0.165754 0.062661
v 0.116792 0.112029 0.164418
v 0.118601 0.112029 0.155326
v 0.111641 0.112029 0.172127
v 0.103933 0.112029 0.177278
v 0.094841 0.112029 0.179086
v -0.118600 0.112029 0.155326
v -0.116791 0.112029 0.164418
v -0.111641 0.112029 0.172127
v -0.103932 0.112029 0.177278
v -0.094840 0.112029 0.179086
v -0.116791 0.112029 -0.164418
v -0.118600 0.112029 -0.155326
v -0.111641 0.112029 -0.172127
v -0.103932 0.112029 -0.177278
v -0.094840 0.112029 -0.179086
v 0.118601 0.112029 -0.155326
v 0.116792 0.112029 -0.164418
v 0.111641 0.112029 -0.172127
v 0.103933 0.112029 -0.177278
v 0.094841 0.112029 -0.179086
v 0.113683 0.130429 0.163131
v 0.115301 0.130429 0.155001
v 0.109262 0.130429 0.169748
v 0.102645 0.130429 0.174169
v 0.094516 0.130429 0.175786
v -0.115300 0.130429 0.155001
v -0.113683 0.130429 0.163131
v -0.109261 0.130429 0.169748
v -0.102645 0.130429 0.174169
v -0.094515 0.130429 0.175786
v -0.113683 0.130429 -0.163131
v -0.115300 0.130429 -0.155001
v -0.109261 0.130429 -0.169748
v -0.102645 0.130429 -0.174169
v -0.094515 0.130429 -0.175786
v 0.115301 0.130429 -0.155001
v 0.113683 0.130429 -0.163131
v 0.109262 0.130429 -0.169748
v 0.102645 0.130429 -0.174169
v 0.094516 0.130429 -0.175786
vn -0.0000 1.0000 -0.0000
vn 0.0077 0.9887 0.1496
vn -0.0077 0.9887 0.1496
vn -0.0191 0.9902 0.1385
vn 0.0191 0.9902 0.1385
vn -0.0077 0.9887 -0.1496
vn 0.0077 0.9887 -0.1496
vn 0.0191 0.9902 -0.1385
vn -0.0191 0.9902 -0.1385
vn 0.0987 0.0158 -0.9950
vn -0.0987 0.0158 -0.9950
vn -0.0973 0.0158 -0.9951
vn 0.0973 0.0158 -0.9951
vn -0.0987 0.0158 0.9950
vn 0.0987 0.0158 0.9950
vn 0.0973 0.0158 0.9951
vn -0.0973 0.0158 0.9951
vn 0.9950 0.0114 0.0991
vn 0.9952 0.0114 0.0969
vn 0.9243 0.0156 0.3813
vn 0.9232 0.0156 0.3840
vn 0.7073 0.0186 0.7067
vn 0.7067 0.0187 0.7073
vn 0.3820 0.0183 0.9240
vn 0.3832 0.0183 0.9235
vn -0.9952 0.0114 0.0969
vn -0.9950 0.0114 0.0991
vn -0.9232 0.0156 0.3840
vn -0.9243 0.0156 0.3813
vn -0.7067 0.0186 0.7073
vn -0.7073 0.0186 0.7067
vn -0.3832 0.0183 0.9235
vn -0.3820 0.0183 0.9240
vn -0.9950 0.0114 -0.0991
vn -0.9952 0.0114 -0.0969
vn -0.9243 0.0156 -0.3813
vn -0.9232 0.0156 -0.3840
vn -0.7073 0.0186 -0.7067
vn -0.7067 0.0186 -0.7073
vn -0.3820 0.0183 -0.9240
vn -0.3832 0.0183 -0.9235
vn 0.9952 0.0114 -0.0969
vn 0.9950 0.0114 -0.0991
vn 0.9232 0.0156 -0.3840
vn 0.9243 0.0156 -0.3813
vn 0.7067 0.0187 -0.7073
vn 0.7073 0.0186 -0.7067
vn 0.3832 0.0183 -0.9235
vn 0.3820 0.0183 -0.9240
vn -0.0407 0.9923 0.1173
vn -0.0500 0.9929 0.1080
vn -0.0791 0.9937 0.0791
vn -0.1173 0.9923 0.0407
vn -0.1080 0.9929 0.0500
vn -0.1496 0.9887 0.0077
vn -0.1385 0.9902 0.0191
vn -0.0500 0.9929 -0.1080
vn -0.0407 0.9923 -0.1173
vn -0.0791 0.9937 -0.0791
vn -0.1080 0.9929 -0.0500
vn -0.1173 0.9923 -0.0407
vn -0.1385 0.9902 -0.0191
vn -0.1496 0.9887 -0.0077
vn 0.1496 0.9887 -0.0077
vn 0.1385 0.9902 -0.0191
vn 0.1080 0.9929 -0.0500
vn 0.1173 0.9923 -0.0407
vn 0.0791 0.9937 -0.0791
vn 0.0500 0.9929 -0.1080
vn 0.0407 0.9923 -0.1173
vn 0.0500 0.9929 0.1080
vn 0.0407 0.9923 0.1173
vn 0.0791 0.9937 0.0791
vn 0.1080 0.9929 0.0500
vn 0.1173 0.9923 0.0407
vn 0.1385 0.9902 0.0191
vn 0.1496 0.9887 0.0077
vn 0.9240 -0.0017 0.3823
vn 0.9159 0.1307 0.3794
vn 0.7010 0.1307 0.7010
vn 0.7071 -0.0022 0.7071
vn 0.3794 0.1307 0.9159
vn 0.3823 -0.0018 0.9240
vn 0.0973 0.1299 0.9867
vn 0.0976 -0.0006 0.9952
vn -0.9240 -0.0016 0.3823
vn -0.9159 0.1307 0.3794
vn -0.9867 0.1299 0.0973
vn -0.9952 -0.0003 0.0978
vn -0.7071 -0.0022 0.7071
vn -0.7010 0.1308 0.7010
vn -0.3824 -0.0016 0.9240
vn -0.3794 0.1309 0.9159
vn -0.0976 -0.0006 0.9952
vn -0.0973 0.1299 0.9867
vn -0.9952 -0.0003 -0.0978
vn -0.9867 0.1299 -0.0973
vn -0.9159 0.1307 -0.3794
vn -0.9240 -0.0017 -0.3823
vn -0.7010 0.1307 -0.7010
vn -0.7071 -0.0022 -0.7071
vn -0.3794 0.1307 -0.9159
vn -0.3823 -0.0018 -0.9240
vn -0.0973 0.1299 -0.9867
vn -0.0976 -0.0006 -0.9952
vn 0.9240 -0.0016 -0.3823
vn 0.9159 0.1307 -0.3794
vn 0.9867 0.1299 -0.0973
vn 0.9952 -0.0003 -0.0978
vn 0.7071 -0.0022 -0.7071
vn 0.7010 0.1308 -0.7010
vn 0.3824 -0.0016 -0.9240
vn 0.3794 0.1309 -0.9159
vn 0.0976 -0.0006 -0.9952
vn 0.0971 0.1302 -0.9867
vn -0.0000 0.1191 0.9929
vn -0.0000 -0.0000 1.0000
vn 0.9952 -0.0003 0.0978
vn 0.9867 0.1299 0.0973
vn -0.9929 0.1191 -0.0000
vn -0.8660 0.5000 -0.0000
vn -0.3332 0.8820 0.3332
vn -0.3332 0.8820 -0.3332
vn -0.0984 0.9903 0.0984
vn -0.0984 0.9903 -0.0984
vn 0.0984 0.9903 -0.0984
vn 0.0984 0.9903 0.0984
vn 0.3332 0.8820 0.3332
vn 0.3332 0.8820 -0.3332
vn 0.9047 0.4260 -0.0000
vn 0.9929 0.1191 -0.0000
vn -0.9047 0.4260 -0.0000
vn -0.0000 0.5000 -0.8660
vn -0.0000 0.1191 -0.9929
vn -0.0000 0.4260 0.9047
vn 0.1372 0.9904 0.0135
vn 0.1329 0.9896 0.0550
vn 0.4561 0.8696 0.1889
vn 0.5079 0.8600 0.0500
vn 0.7967 0.5063 0.3300
vn 0.8649 0.4947 0.0852
vn 0.1017 0.9896 0.1017
vn 0.3491 0.8696 0.3491
vn 0.6098 0.5063 0.6098
vn 0.0550 0.9896 0.1329
vn 0.1889 0.8696 0.4561
vn 0.3330 0.4926 0.8040
vn 0.0135 0.9904 0.1372
vn 0.0500 0.8600 0.5079
vn 0.0852 0.4947 0.8649
vn -0.1329 0.9896 0.0550
vn -0.1372 0.9904 0.0135
vn -0.5079 0.8600 0.0500
vn -0.4561 0.8696 0.1889
vn -0.8649 0.4947 0.0852
vn -0.7967 0.5063 0.3300
vn -0.1017 0.9896 0.1017
vn -0.3491 0.8696 0.3491
vn -0.6098 0.5063 0.6098
vn -0.0550 0.9896 0.1329
vn -0.1889 0.8696 0.4561
vn -0.3330 0.4926 0.8040
vn -0.0135 0.9904 0.1372
vn -0.0500 0.8600 0.5079
vn -0.0852 0.4947 0.8649
vn -0.1372 0.9904 -0.0135
vn -0.1329 0.9896 -0.0550
vn -0.4561 0.8696 -0.1889
vn -0.5079 0.8600 -0.0500
vn -0.7967 0.5063 -0.3300
vn -0.8649 0.4947 -0.0852
vn -0.1017 0.9896 -0.1017
vn -0.3491 0.8696 -0.3491
vn -0.6098 0.5063 -0.6098
vn -0.0550 0.9896 -0.1329
vn -0.1889 0.8696 -0.4561
vn -0.3330 0.4926 -0.8040
vn -0.0135 0.9904 -0.1372
vn -0.0500 0.8600 -0.5079
vn -0.0852 0.4947 -0.8649
vn 0.1329 0.9896 -0.0550
vn 0.1372 0.9904 -0.0135
vn 0.5079 0.8600 -0.0500
vn 0.4561 0.8696 -0.1889
vn 0.8649 0.4947 -0.0852
vn 0.7967 0.5063 -0.3300
vn 0.1017 0.9896 -0.1017
vn 0.3491 0.8696 -0.3491
vn 0.6098 0.5063 -0.6098
vn 0.0550 0.9896 -0.1329
vn 0.1889 0.8696 -0.4561
vn 0.3330 0.4926 -0.8040
vn 0.0135 0.9904 -0.1372
vn 0.0500 0.8600 -0.5079
vn 0.0852 0.4947 -0.8649
vn -0.0000 0.4260 -0.9047
vn -0.0000 0.5000 0.8660
vn -1.0000 -0.0000 -0.0000
vn 1.0000 -0.0000 -0.0000
vn -0.0000 -0.0000 -1.0000
vn -0.0000 0.9914 -0.1305
vn -0.0000 0.8660 -0.5000
vn -0.0000 0.1305 -0.9914
vn -0.0000 0.9914 0.1305
vn -0.0000 0.8660 0.5000
vn -0.0000 0.1305 0.9914
vn -0.0000 -0.1305 -0.9914
vn -0.0000 -0.5000 -0.8660
vn -0.0000 -0.8660 -0.5000
vn -0.0000 -0.9914 -0.1305
vn -0.0000 -0.9914 0.1305
vn -0.0000 -0.8660 0.5000
vn -0.0000 -0.5000 0.8660
vn -0.0000 -0.1305 0.9914
vn -0.0980 -0.0000 0.9952
vn -0.3827 -0.0000 0.9239
vn -0.0000 -1.0000 -0.0000
vn -0.7071 -0.0000 -0.7071
vn -0.3827 -0.0000 -0.9239
vn 0.9952 -0.0000 -0.0980
vn 0.9952 -0.0000 0.0980
vn -0.0980 -0.0000 -0.9952
vn 0.9239 -0.0000 -0.3827
vn 0.7071 -0.0000 -0.7071
vn 0.3827 -0.0000 -0.9239
vn -0.9952 -0.0000 0.0980
vn -0.9952 -0.0000 -0.0980
vn 0.0980 -0.0000 -0.9952
vn 0.0980 -0.0000 0.9952
vn 0.9239 -0.0000 0.3827
vn 0.7071 -0.0000 0.7071
vn 0.3827 -0.0000 0.9239
vn -0.9239 -0.0000 0.3827
vn -0.7071 -0.0000 0.7071
vn -0.9239 -0.0000 -0.3827
vt 0.478619 0.633945
vt 0.474589 0.633945
vt 0.474589 0.320848
vt 0.478619 0.320848
vt 0.474589 0.007750
vt 0.478619 0.007750
vt 0.410604 0.014463
vt 0.253199 0.014463
vt 0.244479 0.005743
vt 0.419323 0.005743
vt 0.253199 0.327560
vt 0.410604 0.327560
vt 0.419323 0.336280
vt 0.244479 0.336280
vt 0.557107 0.021426
vt 0.557107 0.196753
vt 0.538911 0.196512
vt 0.538911 0.021668
vt 0.089168 0.032274
vt 0.089168 0.207601
vt 0.070971 0.207359
vt 0.070971 0.032515
vt 0.525560 0.341602
vt 0.507350 0.341933
vt 0.507264 0.333504
vt 0.525473 0.333197
vt 0.507017 0.326358
vt 0.525227 0.326072
vt 0.088705 0.223130
vt 0.070507 0.222935
vt 0.070851 0.215789
vt 0.089048 0.216005
vt 0.152577 0.030096
vt 0.134368 0.029765
vt 0.134454 0.021360
vt 0.152664 0.021666
vt 0.134700 0.014235
vt 0.152911 0.014520
vt 0.070507 0.016940
vt 0.088705 0.016744
vt 0.089048 0.023869
vt 0.070851 0.024086
vt 0.134368 0.316908
vt 0.152577 0.316577
vt 0.152664 0.325006
vt 0.134454 0.325313
vt 0.152911 0.332153
vt 0.134700 0.332438
vt 0.556645 0.212283
vt 0.538447 0.212087
vt 0.538790 0.204941
vt 0.556987 0.205157
vt 0.507350 0.628414
vt 0.525560 0.628746
vt 0.525473 0.637150
vt 0.507264 0.636844
vt 0.525227 0.644276
vt 0.507017 0.643990
vt 0.538447 0.006092
vt 0.556645 0.005897
vt 0.556987 0.013022
vt 0.538790 0.013238
vt 0.244769 0.016139
vt 0.236050 0.007420
vt 0.237623 0.020914
vt 0.228904 0.012195
vt 0.232848 0.028061
vt 0.224129 0.019341
vt 0.231172 0.036490
vt 0.222452 0.027771
vt 0.236050 0.334603
vt 0.244769 0.325884
vt 0.228904 0.329828
vt 0.237623 0.321109
vt 0.224129 0.322682
vt 0.232848 0.313962
vt 0.222452 0.314252
vt 0.231172 0.305533
vt 0.432631 0.305533
vt 0.441351 0.314252
vt 0.439674 0.322682
vt 0.430954 0.313962
vt 0.434899 0.329828
vt 0.426180 0.321109
vt 0.427753 0.334603
vt 0.419034 0.325884
vt 0.427753 0.007420
vt 0.419034 0.016139
vt 0.434899 0.012195
vt 0.426180 0.020914
vt 0.439674 0.019341
vt 0.430954 0.028061
vt 0.441351 0.027771
vt 0.432631 0.036490
vt 0.502762 0.312753
vt 0.483496 0.312713
vt 0.483250 0.305588
vt 0.502515 0.305607
vt 0.238359 0.273285
vt 0.238340 0.254045
vt 0.245465 0.254387
vt 0.245505 0.273629
vt 0.253869 0.254507
vt 0.253934 0.273749
vt 0.501930 0.298243
vt 0.482664 0.298283
vt 0.482751 0.289878
vt 0.502016 0.289813
vt 0.501683 0.305389
vt 0.482418 0.305408
vt 0.419769 0.273629
vt 0.419809 0.254387
vt 0.426934 0.254045
vt 0.426915 0.273285
vt 0.411340 0.273749
vt 0.411405 0.254507
vt 0.502016 0.020771
vt 0.482751 0.020705
vt 0.482664 0.012301
vt 0.501930 0.012341
vt 0.482418 0.005176
vt 0.501683 0.005195
vt 0.114041 0.203680
vt 0.094800 0.203699
vt 0.095143 0.196574
vt 0.114384 0.196534
vt 0.095263 0.188170
vt 0.114505 0.188105
vt 0.502762 0.598655
vt 0.483496 0.598695
vt 0.483582 0.590290
vt 0.502848 0.590225
vt 0.502515 0.605801
vt 0.483250 0.605820
vt 0.114384 0.022270
vt 0.095143 0.022230
vt 0.094800 0.015105
vt 0.114041 0.015124
vt 0.114505 0.030699
vt 0.095263 0.030634
vt 0.293829 0.254507
vt 0.293829 0.262114
vt 0.297858 0.262114
vt 0.367416 0.262114
vt 0.371445 0.262114
vt 0.371445 0.254507
vt 0.502848 0.321183
vt 0.483582 0.321118
vt 0.446042 0.321609
vt 0.446042 0.634706
vt 0.444755 0.634366
vt 0.444755 0.321949
vt 0.443777 0.633435
vt 0.443778 0.322879
vt 0.155848 0.326531
vt 0.155848 0.015975
vt 0.157119 0.017246
vt 0.157119 0.325260
vt 0.439355 0.646852
vt 0.439355 0.338838
vt 0.440626 0.337567
vt 0.440626 0.648123
vt 0.454758 0.633826
vt 0.454758 0.323270
vt 0.455735 0.322340
vt 0.455735 0.634756
vt 0.457022 0.321999
vt 0.457022 0.635097
vt 0.446042 0.008511
vt 0.446042 0.321608
vt 0.444755 0.321268
vt 0.444755 0.008851
vt 0.443778 0.320338
vt 0.443778 0.009782
vt 0.373610 0.648123
vt 0.373610 0.337567
vt 0.374881 0.338838
vt 0.374881 0.646852
vt 0.068554 0.323812
vt 0.068554 0.015798
vt 0.069825 0.014527
vt 0.069825 0.325083
vt 0.506500 0.316798
vt 0.506500 0.006242
vt 0.507478 0.005312
vt 0.507478 0.317728
vt 0.508765 0.004971
vt 0.508765 0.318069
vt 0.092976 0.142910
vt 0.092976 0.075894
vt 0.093971 0.074964
vt 0.093971 0.143840
vt 0.095263 0.074623
vt 0.095263 0.144181
vt 0.299129 0.252220
vt 0.366145 0.252221
vt 0.367076 0.253215
vt 0.298199 0.253215
vt 0.367416 0.254507
vt 0.297858 0.254507
vt 0.213957 0.036917
vt 0.212433 0.029254
vt 0.213630 0.028758
vt 0.215228 0.036792
vt 0.481318 0.321243
vt 0.481236 0.313209
vt 0.482210 0.312846
vt 0.482296 0.321151
vt 0.208234 0.022969
vt 0.209150 0.022053
vt 0.209821 0.021382
vt 0.214506 0.028395
vt 0.481968 0.305833
vt 0.201950 0.018770
vt 0.202446 0.017573
vt 0.202809 0.016697
vt 0.238585 0.252760
vt 0.245598 0.253097
vt 0.194287 0.017246
vt 0.194412 0.015975
vt 0.245961 0.252106
vt 0.253995 0.252220
vt 0.253903 0.253215
vt 0.013240 0.027805
vt 0.011716 0.035469
vt 0.010445 0.035343
vt 0.012043 0.027310
vt 0.480404 0.297787
vt 0.480486 0.289753
vt 0.481464 0.289845
vt 0.481378 0.298150
vt 0.017439 0.021521
vt 0.016523 0.020605
vt 0.011167 0.026947
vt 0.015852 0.019934
vt 0.481136 0.305163
vt 0.023723 0.017322
vt 0.023228 0.016125
vt 0.022865 0.015249
vt 0.419677 0.253097
vt 0.426689 0.252760
vt 0.031387 0.015798
vt 0.031261 0.014527
vt 0.411280 0.252221
vt 0.419314 0.252106
vt 0.411371 0.253215
vt 0.011716 0.304141
vt 0.013240 0.311804
vt 0.012043 0.312300
vt 0.010445 0.304266
vt 0.480486 0.020831
vt 0.480404 0.012797
vt 0.481378 0.012434
vt 0.481464 0.020739
vt 0.017439 0.318088
vt 0.016523 0.319005
vt 0.015852 0.319675
vt 0.011167 0.312663
vt 0.481136 0.005421
vt 0.023723 0.322287
vt 0.023228 0.323485
vt 0.022865 0.324361
vt 0.093515 0.203454
vt 0.093852 0.196442
vt 0.031387 0.323812
vt 0.031261 0.325083
vt 0.092861 0.196079
vt 0.092976 0.188045
vt 0.093971 0.188136
vt 0.212433 0.313252
vt 0.213957 0.305589
vt 0.215228 0.305714
vt 0.213630 0.313748
vt 0.481236 0.598199
vt 0.481318 0.590165
vt 0.482296 0.590257
vt 0.482210 0.598562
vt 0.208234 0.319537
vt 0.209150 0.320453
vt 0.214506 0.314111
vt 0.209821 0.321124
vt 0.481968 0.605575
vt 0.201950 0.323736
vt 0.202446 0.324933
vt 0.202809 0.325809
vt 0.093852 0.022363
vt 0.093515 0.015350
vt 0.194287 0.325260
vt 0.194412 0.326531
vt 0.092976 0.030759
vt 0.092861 0.022726
vt 0.093971 0.030668
vt 0.372716 0.252221
vt 0.371786 0.253215
vt 0.092976 0.149481
vt 0.093971 0.148551
vt 0.095263 0.148210
vt 0.092976 0.069323
vt 0.093971 0.070254
vt 0.095263 0.070594
vt 0.292558 0.252220
vt 0.293489 0.253215
vt 0.453657 0.321609
vt 0.453657 0.634706
vt 0.464637 0.321999
vt 0.464637 0.635097
vt 0.102869 0.074623
vt 0.102869 0.144181
vt 0.453657 0.008511
vt 0.453657 0.321608
vt 0.102869 0.148210
vt 0.102869 0.070594
vt 0.516380 0.004971
vt 0.516380 0.318069
vt 0.417969 0.550764
vt 0.417969 0.434926
vt 0.396267 0.434926
vt 0.396267 0.550764
vt 0.493626 0.980703
vt 0.515329 0.980703
vt 0.515329 0.990832
vt 0.493626 0.990832
vt 0.820036 0.357081
vt 0.841739 0.357081
vt 0.841739 0.365010
vt 0.820036 0.365010
vt 0.841739 0.375307
vt 0.820036 0.375307
vt 0.515329 0.905379
vt 0.493626 0.905379
vt 0.493626 0.895250
vt 0.515329 0.895250
vt 0.798334 0.357081
vt 0.798334 0.365010
vt 0.798334 0.375307
vt 0.841739 0.383500
vt 0.820036 0.383500
vt 0.798334 0.383500
vt 0.868574 0.357081
vt 0.868574 0.378784
vt 0.863144 0.378784
vt 0.863144 0.357081
vt 0.922061 0.471938
vt 0.922061 0.366267
vt 0.924159 0.361183
vt 0.924159 0.477022
vt 0.950495 0.471938
vt 0.950495 0.366267
vt 0.952592 0.361183
vt 0.952592 0.477022
vt 0.931421 0.373943
vt 0.929236 0.382109
vt 0.924159 0.381440
vt 0.926870 0.371311
vt 0.900803 0.456095
vt 0.902988 0.464261
vt 0.898436 0.466893
vt 0.895726 0.456764
vt 0.936902 0.368455
vt 0.934274 0.363897
vt 0.908469 0.469750
vt 0.905841 0.474308
vt 0.945058 0.366267
vt 0.944389 0.361183
vt 0.916625 0.471938
vt 0.915956 0.477022
vt 0.902988 0.373943
vt 0.900803 0.382109
vt 0.895726 0.381440
vt 0.898436 0.371311
vt 0.929236 0.456095
vt 0.931421 0.464261
vt 0.926869 0.466893
vt 0.924159 0.456764
vt 0.908469 0.368455
vt 0.905841 0.363897
vt 0.936902 0.469750
vt 0.934274 0.474308
vt 0.916625 0.366267
vt 0.915956 0.361183
vt 0.945058 0.471938
vt 0.944389 0.477022
vt 0.855156 0.378784
vt 0.855156 0.357081
vt 0.471924 0.895250
vt 0.493627 0.895250
vt 0.493627 0.900739
vt 0.471924 0.900739
vt 0.493627 0.908905
vt 0.471924 0.908905
vt 0.493627 0.982891
vt 0.471924 0.982891
vt 0.493627 0.991057
vt 0.471924 0.991057
vt 0.493627 0.996545
vt 0.471924 0.996545
vt 0.849726 0.357081
vt 0.849726 0.378784
vt 0.841739 0.378784
vt 0.855156 0.378784
vt 0.326705 0.992592
vt 0.305002 0.992592
vt 0.305002 0.886921
vt 0.326705 0.886921
vt 0.131468 0.203462
vt 0.131575 0.210976
vt 0.114612 0.210976
vt 0.114505 0.203462
vt 0.025464 0.333762
vt 0.200190 0.333762
vt 0.200490 0.336812
vt 0.025163 0.336812
vt 0.200190 0.008794
vt 0.025464 0.008794
vt 0.025163 0.005743
vt 0.200490 0.005743
vt 0.007746 0.020491
vt 0.006252 0.028006
vt 0.003201 0.027706
vt 0.004873 0.019301
vt 0.011833 0.014375
vt 0.009634 0.012176
vt 0.017949 0.010288
vt 0.016759 0.007415
vt 0.219402 0.028006
vt 0.217907 0.020491
vt 0.220781 0.019301
vt 0.222452 0.027706
vt 0.213821 0.014375
vt 0.216020 0.012176
vt 0.207705 0.010288
vt 0.208895 0.007415
vt 0.217907 0.322064
vt 0.219402 0.314549
vt 0.222452 0.314849
vt 0.220781 0.323254
vt 0.213821 0.328180
vt 0.216020 0.330379
vt 0.207705 0.332267
vt 0.208895 0.335140
vt 0.006252 0.314549
vt 0.007746 0.322064
vt 0.004873 0.323254
vt 0.003201 0.314849
vt 0.011833 0.328180
vt 0.009634 0.330379
vt 0.017949 0.332267
vt 0.016759 0.335140
vt 0.023484 0.665086
vt 0.015969 0.663591
vt 0.009853 0.659504
vt 0.005766 0.653388
vt 0.004271 0.645873
vt 0.004271 0.359330
vt 0.005766 0.351815
vt 0.009853 0.345699
vt 0.015969 0.341612
vt 0.023484 0.340118
vt 0.198210 0.340118
vt 0.205724 0.341612
vt 0.211840 0.345699
vt 0.215927 0.351815
vt 0.217422 0.359330
vt 0.217422 0.645873
vt 0.215927 0.653388
vt 0.211840 0.659504
vt 0.205724 0.663591
vt 0.198210 0.665086
vt 0.574472 0.005897
vt 0.574178 0.012013
vt 0.557215 0.012013
vt 0.557509 0.005897
vt 0.471512 0.020613
vt 0.471512 0.307156
vt 0.454527 0.307156
vt 0.454527 0.020613
vt 0.574071 0.019527
vt 0.557107 0.019527
vt 0.471589 0.013098
vt 0.454605 0.013098
vt 0.471800 0.006982
vt 0.454816 0.006982
vt 0.574178 0.201768
vt 0.574472 0.207884
vt 0.557509 0.207884
vt 0.557215 0.201768
vt 0.538158 0.019528
vt 0.538158 0.306071
vt 0.521174 0.306071
vt 0.521174 0.019528
vt 0.574071 0.194253
vt 0.557107 0.194253
vt 0.114505 0.028736
vt 0.131468 0.028736
vt 0.471589 0.314671
vt 0.454605 0.314671
vt 0.471800 0.320787
vt 0.454816 0.320787
vt 0.131869 0.015105
vt 0.131575 0.021221
vt 0.114612 0.021221
vt 0.114906 0.015105
vt 0.538235 0.012013
vt 0.521251 0.012013
vt 0.538447 0.005897
vt 0.521462 0.005897
vt 0.538235 0.313586
vt 0.521251 0.313586
vt 0.131869 0.217092
vt 0.114906 0.217092
vt 0.538447 0.319702
vt 0.521462 0.319702
s 1
usemtl toolbox
f 436/834/329 435/835/329 438/836/329 437/837/329
f 434/837/329 433/836/329 440/838/329 439/839/329
f 477/840/330 461/841/331 481/842/332 497/843/333
f 467/844/334 471/845/335 491/846/336 487/847/337
f 672/848/338 667/849/339 487/850/340 491/851/341
f 662/852/342 657/853/343 497/854/344 481/855/345
f 654/856/346 496/857/347 498/858/348 653/859/349
f 653/859/349 498/858/348 499/860/350 655/861/351
f 655/862/351 499/863/350 500/864/352 656/865/353
f 656/865/353 500/864/352 497/854/344 657/853/343
f 482/866/354 658/867/355 659/868/356 485/869/357
f 485/869/357 659/868/356 660/870/358 484/871/359
f 484/872/359 660/873/358 661/874/360 483/875/361
f 483/875/361 661/874/360 662/852/342 481/855/345
f 664/876/362 486/877/363 488/878/364 663/879/365
f 663/879/365 488/878/364 489/880/366 665/881/367
f 665/882/367 489/883/366 490/884/368 666/885/369
f 666/885/369 490/884/368 487/850/340 667/849/339
f 492/886/370 668/887/371 669/888/372 495/889/373
f 495/889/373 669/888/372 670/890/374 494/891/375
f 494/892/375 670/893/374 671/894/376 493/895/377
f 493/895/377 671/894/376 672/848/338 491/851/341
f 481/842/332 461/841/331 463/896/378 483/897/379
f 483/897/379 463/896/378 464/898/380 484/899/380
f 484/899/380 464/898/380 465/900/381 485/901/382
f 485/901/382 465/900/381 462/902/383 482/903/384
f 467/844/334 487/847/337 490/904/385 470/905/386
f 470/905/386 490/904/385 489/906/387 469/907/387
f 469/907/387 489/906/387 488/908/388 468/909/389
f 468/909/389 488/908/388 486/910/390 466/911/391
f 472/912/392 492/913/393 495/914/394 475/915/395
f 475/915/395 495/914/394 494/916/396 474/917/396
f 474/917/396 494/916/396 493/918/397 473/919/398
f 473/919/398 493/918/397 491/846/336 471/845/335
f 477/840/330 497/843/333 500/920/399 480/921/400
f 480/921/400 500/920/399 499/922/401 479/923/401
f 479/923/401 499/922/401 498/924/402 478/925/403
f 478/925/403 498/924/402 496/926/404 476/927/405
f 478/928/406 538/929/407 542/930/408 479/931/409
f 479/932/409 542/933/408 546/934/410 480/935/411
f 480/935/411 546/934/410 550/936/412 477/937/413
f 465/938/414 553/939/415 558/940/416 462/941/417
f 464/942/418 561/943/419 553/939/415 465/938/414
f 463/944/420 565/945/421 561/946/419 464/947/418
f 461/948/422 569/949/423 565/945/421 463/944/420
f 466/950/424 573/951/425 578/952/426 468/953/427
f 468/953/427 578/952/426 582/954/428 469/955/429
f 469/956/429 582/957/428 586/958/430 470/959/431
f 470/959/431 586/958/430 590/960/432 467/961/433
f 475/962/434 593/963/435 598/964/436 472/965/437
f 474/966/438 601/967/439 593/963/435 475/962/434
f 473/968/440 605/969/441 601/970/439 474/971/438
f 471/972/442 609/973/443 605/969/441 473/968/440
f 462/941/417 558/940/416 573/951/425 466/950/424
f 664/876/362 658/867/355 482/866/354 486/877/363
f 654/856/346 668/887/371 492/886/370 496/857/347
f 462/902/383 466/911/391 486/910/390 482/903/384
f 472/912/392 476/927/405 496/926/404 492/913/393
f 461/948/422 477/937/413 550/936/412 505/974/444 437/975/445 438/976/445 439/977/445 440/978/445 530/979/444 569/949/423
f 476/980/446 533/981/447 538/929/407 478/928/406
f 502/982/448 505/983/448 507/984/449 504/985/449
f 504/985/449 507/984/449 508/986/450 503/987/451
f 503/988/451 508/989/450 506/990/452 501/991/453
f 613/992/454 614/993/455 515/994/456 512/995/457
f 512/996/457 515/997/456 516/998/458 511/999/458
f 511/999/458 516/998/458 514/1000/459 509/1001/459
f 518/1002/448 521/1003/448 523/1004/460 520/1005/460
f 520/1005/460 523/1004/460 524/1006/450 519/1007/451
f 519/1008/451 524/1009/450 615/1010/452 616/1011/453
f 526/1012/454 529/1013/455 531/1014/456 528/1015/457
f 528/1016/457 531/1017/456 532/1018/458 527/1019/458
f 527/1019/458 532/1018/458 530/1020/459 525/1021/459
f 616/1011/453 613/992/454 512/995/457 519/1008/451
f 519/1022/451 512/1023/457 511/1024/461 520/1025/461
f 520/1025/461 511/1024/461 509/1026/462 518/1027/462
f 614/993/455 615/1010/452 524/1009/450 515/994/456
f 515/1028/456 524/1029/450 523/1030/463 516/1031/463
f 516/1031/463 523/1030/463 521/1032/444 514/1033/444
f 534/1034/464 537/1035/465 539/1036/466 536/1037/467
f 536/1038/467 539/1039/466 540/1040/468 535/1041/469
f 535/1041/469 540/1040/468 538/929/407 533/981/447
f 537/1035/465 541/1042/470 543/1043/471 539/1036/466
f 539/1036/466 543/1043/471 544/1044/472 540/1045/468
f 540/1040/468 544/1046/472 542/930/408 538/929/407
f 541/1042/470 545/1047/473 547/1048/474 543/1043/471
f 543/1043/471 547/1048/474 548/1049/475 544/1044/472
f 544/1050/472 548/1051/475 546/934/410 542/933/408
f 545/1047/473 549/1052/476 551/1053/477 547/1048/474
f 547/1054/474 551/1055/477 552/1056/478 548/1051/475
f 548/1051/475 552/1056/478 550/936/412 546/934/410
f 554/1057/479 557/1058/480 559/1059/481 556/1060/482
f 556/1061/482 559/1062/481 560/1063/483 555/1064/484
f 555/1064/484 560/1063/483 558/940/416 553/939/415
f 562/1065/485 554/1057/479 556/1060/482 564/1066/486
f 564/1066/486 556/1060/482 555/1067/484 563/1068/487
f 563/1069/487 555/1064/484 553/939/415 561/943/419
f 566/1070/488 562/1065/485 564/1066/486 568/1071/489
f 568/1071/489 564/1066/486 563/1068/487 567/1072/490
f 567/1073/490 563/1074/487 561/946/419 565/945/421
f 570/1075/491 566/1070/488 568/1071/489 572/1076/492
f 572/1077/492 568/1078/489 567/1073/490 571/1079/493
f 571/1079/493 567/1073/490 565/945/421 569/949/423
f 574/1080/494 577/1081/495 579/1082/496 576/1083/497
f 576/1084/497 579/1085/496 580/1086/498 575/1087/499
f 575/1087/499 580/1086/498 578/952/426 573/951/425
f 577/1081/495 581/1088/500 583/1089/501 579/1082/496
f 579/1082/496 583/1089/501 584/1090/502 580/1091/498
f 580/1086/498 584/1092/502 582/954/428 578/952/426
f 581/1088/500 585/1093/503 587/1094/504 583/1089/501
f 583/1089/501 587/1094/504 588/1095/505 584/1090/502
f 584/1096/502 588/1097/505 586/958/430 582/957/428
f 585/1093/503 589/1098/506 591/1099/507 587/1094/504
f 587/1100/504 591/1101/507 592/1102/508 588/1097/505
f 588/1097/505 592/1102/508 590/960/432 586/958/430
f 594/1103/509 597/1104/510 599/1105/511 596/1106/512
f 596/1107/512 599/1108/511 600/1109/513 595/1110/514
f 595/1110/514 600/1109/513 598/964/436 593/963/435
f 602/1111/515 594/1103/509 596/1106/512 604/1112/516
f 604/1112/516 596/1106/512 595/1113/514 603/1114/517
f 603/1115/517 595/1110/514 593/963/435 601/967/439
f 606/1116/518 602/1111/515 604/1112/516 608/1117/519
f 608/1117/519 604/1112/516 603/1114/517 607/1118/520
f 607/1119/520 603/1120/517 601/970/439 605/969/441
f 610/1121/521 606/1116/518 608/1117/519 612/1122/522
f 612/1123/522 608/1124/519 607/1119/520 611/1125/523
f 611/1125/523 607/1119/520 605/969/441 609/973/443
f 557/1058/480 574/1080/494 576/1083/497 559/1059/481
f 559/1062/481 576/1084/497 575/1087/499 560/1063/483
f 560/1063/483 575/1087/499 573/951/425 558/940/416
f 529/1013/455 570/1075/491 572/1076/492 531/1014/456
f 531/1126/456 572/1077/492 571/1079/493 532/1127/463
f 532/1127/463 571/1079/493 569/949/423 530/979/444
f 589/1098/506 526/1012/454 528/1015/457 591/1099/507
f 591/1101/507 528/1128/457 527/1129/524 592/1102/508
f 592/1102/508 527/1129/524 525/1130/462 590/960/432
f 501/991/453 610/1121/521 612/1122/522 503/988/451
f 503/1131/451 612/1123/522 611/1125/523 504/1132/461
f 504/1132/461 611/1125/523 609/973/443 502/1133/462
f 597/1104/510 534/1034/464 536/1037/467 599/1105/511
f 599/1108/511 536/1038/467 535/1041/469 600/1109/513
f 600/1109/513 535/1041/469 533/981/447 598/964/436
f 549/1052/476 506/990/452 508/989/450 551/1053/477
f 551/1055/477 508/1134/450 507/1135/525 552/1056/478
f 552/1056/478 507/1135/525 505/974/444 550/936/412
f 436/1136/526 437/1137/526 505/983/448 502/982/448
f 597/1104/510 594/1103/509 602/1111/515 606/1116/518 610/1121/521 501/991/453 506/990/452 549/1052/476 545/1047/473 541/1042/470 537/1035/465 534/1034/464
f 472/965/437 598/964/436 533/981/447 476/980/446
f 438/1138/527 435/1139/527 509/1001/459 514/1000/459
f 435/1140/528 434/1141/528 518/1027/462 509/1026/462
f 439/977/445 438/976/445 514/1033/444 521/1032/444
f 434/1142/526 439/1143/526 521/1003/448 518/1002/448
f 526/1012/454 589/1098/506 585/1093/503 581/1088/500 577/1081/495 574/1080/494 557/1058/480 554/1057/479 562/1065/485 566/1070/488 570/1075/491 529/1013/455
f 471/972/442 467/961/433 590/960/432 525/1130/462 433/1144/528 434/1141/528 435/1140/528 436/1145/528 502/1133/462 609/973/443
f 440/1146/527 433/1147/527 525/1021/459 530/1020/459
f 633/1148/329 634/1149/329 614/993/455 613/992/454
f 635/1150/329 636/1151/329 616/1011/453 615/1010/452
f 636/1151/329 633/1148/329 613/992/454 616/1011/453
f 634/1149/329 635/1150/329 615/1010/452 614/993/455
f 638/1152/529 639/1153/529 640/1154/530 637/1155/530
f 637/1156/530 640/1157/530 642/1158/461 641/1159/461
f 641/1159/461 642/1158/461 644/1160/531 643/1161/531
f 646/1162/532 647/1163/532 648/1164/533 645/1165/533
f 645/1166/533 648/1156/533 650/1159/525 649/1167/525
f 649/1167/525 650/1159/525 652/1161/534 651/1168/534
f 639/1153/529 638/1152/529 647/1163/532 646/1162/532
f 633/1169/528 636/1170/528 643/1161/531 644/1160/531
f 635/1170/445 634/1171/445 651/1168/534 652/1161/534
f 513/1172/528 522/1173/528 625/1174/535 622/1175/535
f 510/1176/527 513/1177/527 634/1178/527 633/1179/527
f 522/1180/526 517/1181/526 636/1182/526 635/1183/526
f 631/1184/526 629/1185/526 638/1186/526 637/1187/526
f 618/1188/527 620/1189/527 640/1190/527 639/1191/527
f 632/1192/526 631/1184/526 637/1187/526 641/1193/526
f 620/1189/527 619/1194/527 642/1195/527 640/1190/527
f 630/1196/526 632/1192/526 641/1193/526 643/1197/526
f 619/1194/527 617/1198/527 644/1199/527 642/1195/527
f 623/1200/527 621/1201/527 646/1202/527 645/1203/527
f 626/1204/526 628/1205/526 648/1206/526 647/1207/526
f 624/1208/527 623/1200/527 645/1203/527 649/1209/527
f 628/1205/526 627/1210/526 650/1211/526 648/1206/526
f 622/1212/527 624/1208/527 649/1209/527 651/1213/527
f 627/1210/526 625/1214/526 652/1215/526 650/1211/526
f 513/1177/527 622/1212/527 651/1213/527 634/1178/527
f 617/1198/527 510/1176/527 633/1179/527 644/1199/527
f 621/1201/527 618/1188/527 639/1191/527 646/1202/527
f 629/1185/526 626/1204/526 647/1207/526 638/1186/526
f 517/1181/526 630/1196/526 643/1197/526 636/1182/526
f 625/1214/526 522/1180/526 635/1183/526 652/1215/526
f 622/1175/535 625/1174/535 627/1216/536 624/1217/536
f 624/1218/536 627/1219/536 628/1220/537 623/1221/537
f 623/1221/537 628/1220/537 626/1222/538 621/1223/538
f 621/1223/538 626/1222/538 629/1224/539 618/1225/539
f 631/1226/540 620/1227/540 618/1225/539 629/1224/539
f 632/1228/541 619/1229/541 620/1227/540 631/1226/540
f 630/1230/542 617/1231/542 619/1232/541 632/1157/541
f 617/1231/542 630/1230/542 517/1217/445 510/1233/445
f 510/1234/329 517/1235/329 522/1236/329 513/1237/329
f 456/1238/543 458/1239/544 691/1240/544 692/1241/543
f 456/1242/545 447/1243/545 667/1244/545 672/1245/545
f 441/1246/545 452/1247/545 657/1248/545 662/1249/545
f 453/1250/545 451/1251/545 654/1252/545 653/1253/545
f 454/1254/545 453/1250/545 653/1253/545 655/1255/545
f 455/1256/545 454/1254/545 655/1255/545 656/1257/545
f 452/1247/545 455/1256/545 656/1257/545 657/1248/545
f 442/1258/545 445/1259/545 659/1260/545 658/1261/545
f 445/1259/545 444/1262/545 660/1263/545 659/1260/545
f 444/1262/545 443/1264/545 661/1265/545 660/1263/545
f 443/1264/545 441/1246/545 662/1249/545 661/1265/545
f 448/1266/545 446/1267/545 664/1268/545 663/1269/545
f 449/1270/545 448/1266/545 663/1269/545 665/1271/545
f 450/1272/545 449/1270/545 665/1271/545 666/1273/545
f 447/1243/545 450/1272/545 666/1273/545 667/1244/545
f 457/1274/545 460/1275/545 669/1276/545 668/1277/545
f 460/1275/545 459/1278/545 670/1279/545 669/1276/545
f 459/1278/545 458/1280/545 671/1281/545 670/1279/545
f 458/1280/545 456/1242/545 672/1245/545 671/1281/545
f 446/1267/545 442/1258/545 658/1261/545 664/1268/545
f 451/1251/545 457/1274/545 668/1277/545 654/1252/545
f 692/1282/545 691/1283/545 690/1284/545 689/1285/545 688/1286/545 674/1287/545 673/1288/545 675/1289/545 676/1290/545 677/1291/545 682/1292/545 681/1293/545 680/1294/545 679/1295/545 678/1296/545 684/1297/545 683/1298/545 685/1299/545 686/1300/545 687/1301/545
f 454/1302/546 455/1303/547 676/1304/547 675/1305/546
f 442/1306/548 446/1307/549 684/1308/549 678/1309/548
f 455/1303/547 452/1310/550 677/1311/550 676/1304/547
f 445/1312/551 442/1306/548 678/1309/548 679/1313/551
f 444/1314/552 445/1312/551 679/1313/551 680/1315/552
f 443/1316/553 444/1317/552 680/1318/552 681/1319/553
f 457/1320/554 451/1321/555 674/1322/555 688/1323/554
f 441/1324/556 443/1316/553 681/1319/553 682/1325/556
f 456/1238/543 692/1241/543 687/1326/557 447/1327/557
f 446/1307/549 448/1328/558 683/1329/558 684/1308/549
f 448/1328/558 449/1330/559 685/1331/559 683/1329/558
f 449/1332/559 450/1333/560 686/1334/560 685/1335/559
f 450/1333/560 447/1327/557 687/1326/557 686/1334/560
f 460/1336/561 457/1320/554 688/1323/554 689/1337/561
f 441/1324/556 682/1325/556 677/1311/550 452/1310/550
f 459/1338/562 460/1336/561 689/1337/561 690/1339/562
f 451/1321/555 453/1340/563 673/1341/563 674/1322/555
f 458/1239/544 459/1342/562 690/1343/562 691/1240/544
f 453/1340/563 454/1344/546 675/1345/546 673/1341/563
