# Blender 5.0.1
# www.blender.org
mtllib bunker_door.mtl
o bunker_door
v 0.060000 0.000000 -0.900000
v 0.060000 0.000000 0.900000
v 0.060000 2.052000 -0.900000
v 0.060000 2.052000 0.900000
v 0.010000 1.026000 -0.225000
v 0.060000 1.026000 -0.166766
v 0.010000 0.913500 -0.194856
v 0.060000 0.942617 -0.144423
v 0.010000 0.831144 -0.112500
v 0.060000 0.881577 -0.083383
v 0.010000 0.801000 -0.000000
v 0.060000 0.859234 -0.000000
v 0.010000 0.831144 0.112500
v 0.060000 0.881577 0.083383
v 0.010000 0.913500 0.194856
v 0.060000 0.942617 0.144423
v 0.010000 1.026000 0.225000
v 0.060000 1.026000 0.166766
v 0.010000 1.138500 0.194856
v 0.060000 1.109383 0.144423
v 0.010000 1.220856 0.112500
v 0.060000 1.170423 0.083383
v 0.010000 1.251000 -0.000000
v 0.060000 1.192766 -0.000000
v 0.010000 1.220856 -0.112500
v 0.060000 1.170423 -0.083383
v 0.010000 1.138500 -0.194856
v 0.060000 1.109383 -0.144423
v 0.060000 0.913500 -0.194856
v 0.060000 1.026000 -0.225000
v 0.060000 0.831144 -0.112500
v 0.060000 0.801000 -0.000000
v 0.060000 0.831144 0.112500
v 0.060000 0.913500 0.194856
v 0.060000 1.026000 0.225000
v 0.060000 1.138500 0.194856
v 0.060000 1.220856 0.112500
v 0.060000 1.251000 -0.000000
v 0.060000 1.220856 -0.112500
v 0.060000 1.138500 -0.194856
v 0.036938 0.990255 -0.048872
v 0.028750 1.026000 -0.061944
v 0.036938 0.977128 -0.035745
v 0.028750 0.964056 -0.000000
v 0.036938 0.977128 0.035745
v 0.036937 0.990255 0.048872
v 0.028750 1.026000 0.061944
v 0.036937 1.061745 0.048872
v 0.036937 1.074872 0.035745
v 0.028750 1.087944 0.000000
v 0.036937 1.074872 -0.035745
v 0.036937 1.061745 -0.048872
v 0.028750 0.942617 -0.144423
v 0.028750 1.026000 -0.166766
v 0.028750 0.881577 -0.083383
v 0.028750 0.859234 -0.000000
v 0.028750 0.881577 0.083383
v 0.028750 0.942617 0.144423
v 0.028750 1.026000 0.166766
v 0.028750 1.109383 0.144423
v 0.028750 1.170423 0.083383
v 0.028750 1.192766 -0.000000
v 0.028750 1.170423 -0.083383
v 0.028750 1.109383 -0.144423
v 0.051812 0.990255 -0.048872
v 0.060000 1.026000 -0.061944
v 0.051813 0.977128 -0.035745
v 0.060000 0.964056 -0.000000
v 0.051813 0.977128 0.035745
v 0.051812 0.990255 0.048872
v 0.060000 1.026000 0.061944
v 0.051812 1.061745 0.048872
v 0.051812 1.074872 0.035745
v 0.060000 1.087944 0.000000
v 0.051812 1.074872 -0.035745
v 0.051812 1.061745 -0.048872
v 0.028750 0.972355 -0.030972
v 0.028750 0.995028 -0.053645
v 0.028750 0.995028 0.053645
v 0.028750 0.972355 0.030972
v 0.028750 1.079645 0.030972
v 0.028750 1.056972 0.053645
v 0.028750 1.056972 -0.053645
v 0.028750 1.079645 -0.030972
v 0.060000 0.972355 -0.030972
v 0.060000 0.995028 -0.053645
v 0.060000 0.995028 0.053645
v 0.060000 0.972355 0.030972
v 0.060000 1.079645 0.030972
v 0.060000 1.056972 0.053645
v 0.060000 1.056972 -0.053645
v 0.060000 1.079645 -0.030972
v 0.057000 1.128475 -0.125331
v 0.057000 1.151331 -0.102475
v 0.031750 1.151331 -0.102475
v 0.031750 1.128475 -0.125331
v 0.057000 1.151331 0.102475
v 0.057000 1.128475 0.125331
v 0.031750 1.128475 0.125331
v 0.031750 1.151331 0.102475
v 0.057000 0.900669 -0.102475
v 0.057000 0.923525 -0.125331
v 0.031750 0.923525 -0.125331
v 0.031750 0.900669 -0.102475
v 0.057000 0.923525 0.125331
v 0.057000 0.900669 0.102475
v 0.031750 0.900669 0.102475
v 0.031750 0.923525 0.125331
v 0.060000 1.952000 -0.750000
v 0.060000 1.902000 -0.800000
v 0.060000 1.987355 -0.835355
v 0.060000 1.945301 -0.775000
v 0.060000 1.927000 -0.793301
v 0.060000 1.902000 0.800000
v 0.060000 1.952000 0.750000
v 0.060000 1.987355 0.835355
v 0.060000 1.927000 0.793301
v 0.060000 1.945301 0.775000
v 0.060000 0.100000 0.750000
v 0.060000 0.150000 0.800000
v 0.060000 0.064645 0.835355
v 0.060000 0.106699 0.775000
v 0.060000 0.125000 0.793301
v 0.060000 0.150000 -0.800000
v 0.060000 0.100000 -0.750000
v 0.060000 0.064645 -0.835355
v 0.060000 0.125000 -0.793301
v 0.060000 0.106699 -0.775000
v 0.010000 0.350000 -0.600000
v 0.010000 0.300000 -0.550000
v 0.010000 0.264645 -0.635355
v 0.010000 0.325000 -0.593301
v 0.010000 0.306699 -0.575000
v 0.010000 0.300000 0.550000
v 0.010000 0.350000 0.600000
v 0.010000 0.264645 0.635355
v 0.010000 0.306699 0.575000
v 0.010000 0.325000 0.593301
v 0.010000 1.752000 -0.550000
v 0.010000 1.702000 -0.600000
v 0.010000 1.787355 -0.635355
v 0.010000 1.745301 -0.575000
v 0.010000 1.727000 -0.593301
v 0.010000 1.702000 0.600000
v 0.010000 1.752000 0.550000
v 0.010000 1.787355 0.635355
v 0.010000 1.727000 0.593301
v 0.010000 1.745301 0.575000
v 0.010000 0.100000 -0.750000
v 0.010000 0.150000 -0.800000
v 0.010000 0.135355 -0.764645
v 0.010000 0.106699 -0.775000
v 0.010000 0.125000 -0.793301
v 0.010000 0.150000 0.800000
v 0.010000 0.100000 0.750000
v 0.010000 0.135355 0.764645
v 0.010000 0.125000 0.793301
v 0.010000 0.106699 0.775000
v 0.010000 1.902000 -0.800000
v 0.010000 1.952000 -0.750000
v 0.010000 1.916645 -0.764645
v 0.010000 1.927000 -0.793301
v 0.010000 1.945301 -0.775000
v 0.010000 1.952000 0.750000
v 0.010000 1.902000 0.800000
v 0.010000 1.916645 0.764645
v 0.010000 1.945301 0.775000
v 0.010000 1.927000 0.793301
v 0.060000 0.450000 -0.500000
v 0.060000 0.400000 -0.450000
v 0.060000 0.364645 -0.535355
v 0.060000 0.425000 -0.493301
v 0.060000 0.406699 -0.475000
v 0.060000 0.400000 0.450000
v 0.060000 0.450000 0.500000
v 0.060000 0.364645 0.535355
v 0.060000 0.406699 0.475000
v 0.060000 0.425000 0.493301
v 0.060000 1.652000 -0.450000
v 0.060000 1.602000 -0.500000
v 0.060000 1.687355 -0.535355
v 0.060000 1.645301 -0.475000
v 0.060000 1.627000 -0.493301
v 0.060000 1.602000 0.500000
v 0.060000 1.652000 0.450000
v 0.060000 1.687355 0.535355
v 0.060000 1.627000 0.493301
v 0.060000 1.645301 0.475000
v 0.060000 0.300000 -0.550000
v 0.060000 0.350000 -0.600000
v 0.060000 0.335355 -0.564645
v 0.060000 0.306699 -0.575000
v 0.060000 0.325000 -0.593301
v 0.060000 0.350000 0.600000
v 0.060000 0.300000 0.550000
v 0.060000 0.335355 0.564645
v 0.060000 0.325000 0.593301
v 0.060000 0.306699 0.575000
v 0.060000 1.702000 -0.600000
v 0.060000 1.752000 -0.550000
v 0.060000 1.716645 -0.564645
v 0.060000 1.727000 -0.593301
v 0.060000 1.745301 -0.575000
v 0.060000 1.752000 0.550000
v 0.060000 1.702000 0.600000
v 0.060000 1.716645 0.564645
v 0.060000 1.745301 0.575000
v 0.060000 1.727000 0.593301
v 0.010000 0.400000 -0.450000
v 0.010000 0.450000 -0.500000
v 0.010000 0.406699 -0.475000
v 0.010000 0.425000 -0.493301
v 0.010000 0.450000 0.500000
v 0.010000 0.400000 0.450000
v 0.010000 0.425000 0.493301
v 0.010000 0.406699 0.475000
v 0.010000 1.602000 -0.500000
v 0.010000 1.652000 -0.450000
v 0.010000 1.627000 -0.493301
v 0.010000 1.645301 -0.475000
v 0.010000 1.652000 0.450000
v 0.010000 1.602000 0.500000
v 0.010000 1.645301 0.475000
v 0.010000 1.627000 0.493301
v -0.060000 0.000000 -0.900000
v -0.060000 0.000000 0.900000
v -0.060000 2.052000 -0.900000
v -0.060000 2.052000 0.900000
v -0.010000 1.026000 -0.225000
v -0.060000 1.026000 -0.166766
v -0.010000 0.913500 -0.194856
v -0.060000 0.942617 -0.144423
v -0.010000 0.831144 -0.112500
v -0.060000 0.881577 -0.083383
v -0.010000 0.801000 0.000000
v -0.060000 0.859234 0.000000
v -0.010000 0.831144 0.112500
v -0.060000 0.881577 0.083383
v -0.010000 0.913500 0.194856
v -0.060000 0.942617 0.144423
v -0.010000 1.026000 0.225000
v -0.060000 1.026000 0.166766
v -0.010000 1.138500 0.194856
v -0.060000 1.109383 0.144423
v -0.010000 1.220856 0.112500
v -0.060000 1.170423 0.083383
v -0.010000 1.251000 0.000000
v -0.060000 1.192766 0.000000
v -0.010000 1.220856 -0.112500
v -0.060000 1.170423 -0.083383
v -0.010000 1.138500 -0.194856
v -0.060000 1.109383 -0.144423
v -0.060000 0.913500 -0.194856
v -0.060000 1.026000 -0.225000
v -0.060000 0.831144 -0.112500
v -0.060000 0.801000 0.000000
v -0.060000 0.831144 0.112500
v -0.060000 0.913500 0.194856
v -0.060000 1.026000 0.225000
v -0.060000 1.138500 0.194856
v -0.060000 1.220856 0.112500
v -0.060000 1.251000 0.000000
v -0.060000 1.220856 -0.112500
v -0.060000 1.138500 -0.194856
v -0.036938 0.990255 -0.048872
v -0.028750 1.026000 -0.061944
v -0.036938 0.977128 -0.035745
v -0.028750 0.964056 0.000000
v -0.036937 0.977128 0.035745
v -0.036937 0.990255 0.048872
v -0.028750 1.026000 0.061944
v -0.036937 1.061745 0.048872
v -0.036937 1.074872 0.035745
v -0.028750 1.087944 0.000000
v -0.036938 1.074872 -0.035745
v -0.036938 1.061745 -0.048872
v -0.028750 0.942617 -0.144423
v -0.028750 1.026000 -0.166766
v -0.028750 0.881577 -0.083383
v -0.028750 0.859234 0.000000
v -0.028750 0.881577 0.083383
v -0.028750 0.942617 0.144423
v -0.028750 1.026000 0.166766
v -0.028750 1.109383 0.144423
v -0.028750 1.170423 0.083383
v -0.028750 1.192766 0.000000
v -0.028750 1.170423 -0.083383
v -0.028750 1.109383 -0.144423
v -0.051813 0.990255 -0.048872
v -0.060000 1.026000 -0.061944
v -0.051813 0.977128 -0.035745
v -0.060000 0.964056 0.000000
v -0.051812 0.977128 0.035745
v -0.051812 0.990255 0.048872
v -0.060000 1.026000 0.061944
v -0.051812 1.061745 0.048872
v -0.051812 1.074872 0.035745
v -0.060000 1.087944 0.000000
v -0.051813 1.074872 -0.035745
v -0.051813 1.061745 -0.048872
v -0.028750 0.972355 -0.030972
v -0.028750 0.995028 -0.053645
v -0.028750 0.995028 0.053645
v -0.028750 0.972355 0.030972
v -0.028750 1.079645 0.030972
v -0.028750 1.056972 0.053645
v -0.028750 1.056972 -0.053645
v -0.028750 1.079645 -0.030972
v -0.060000 0.972355 -0.030972
v -0.060000 0.995028 -0.053645
v -0.060000 0.995028 0.053645
v -0.060000 0.972355 0.030972
v -0.060000 1.079645 0.030972
v -0.060000 1.056972 0.053645
v -0.060000 1.056972 -0.053645
v -0.060000 1.079645 -0.030972
v -0.057000 1.128475 -0.125331
v -0.057000 1.151331 -0.102475
v -0.031750 1.151331 -0.102475
v -0.031750 1.128475 -0.125331
v -0.057000 1.151331 0.102475
v -0.057000 1.128475 0.125331
v -0.031750 1.128475 0.125331
v -0.031750 1.151331 0.102475
v -0.057000 0.900669 -0.102475
v -0.057000 0.923525 -0.125331
v -0.031750 0.923525 -0.125331
v -0.031750 0.900669 -0.102475
v -0.057000 0.923525 0.125331
v -0.057000 0.900669 0.102475
v -0.031750 0.900669 0.102475
v -0.031750 0.923525 0.125331
v -0.060000 1.952000 -0.750000
v -0.060000 1.902000 -0.800000
v -0.060000 1.987355 -0.835355
v -0.060000 1.945301 -0.775000
v -0.060000 1.927000 -0.793301
v -0.060000 1.902000 0.800000
v -0.060000 1.952000 0.750000
v -0.060000 1.987355 0.835355
v -0.060000 1.927000 0.793301
v -0.060000 1.945301 0.775000
v -0.060000 0.100000 0.750000
v -0.060000 0.150000 0.800000
v -0.060000 0.064645 0.835355
v -0.060000 0.106699 0.775000
v -0.060000 0.125000 0.793301
v -0.060000 0.150000 -0.800000
v -0.060000 0.100000 -0.750000
v -0.060000 0.064645 -0.835355
v -0.060000 0.125000 -0.793301
v -0.060000 0.106699 -0.775000
v -0.010000 0.350000 -0.600000
v -0.010000 0.300000 -0.550000
v -0.010000 0.264645 -0.635355
v -0.010000 0.325000 -0.593301
v -0.010000 0.306699 -0.575000
v -0.010000 0.300000 0.550000
v -0.010000 0.350000 0.600000
v -0.010000 0.264645 0.635355
v -0.010000 0.306699 0.575000
v -0.010000 0.325000 0.593301
v -0.010000 1.752000 -0.550000
v -0.010000 1.702000 -0.600000
v -0.010000 1.787355 -0.635355
v -0.010000 1.745301 -0.575000
v -0.010000 1.727000 -0.593301
v -0.010000 1.702000 0.600000
v -0.010000 1.752000 0.550000
v -0.010000 1.787355 0.635355
v -0.010000 1.727000 0.593301
v -0.010000 1.745301 0.575000
v -0.010000 0.100000 -0.750000
v -0.010000 0.150000 -0.800000
v -0.010000 0.135355 -0.764645
v -0.010000 0.106699 -0.775000
v -0.010000 0.125000 -0.793301
v -0.010000 0.150000 0.800000
v -0.010000 0.100000 0.750000
v -0.010000 0.135355 0.764645
v -0.010000 0.125000 0.793301
v -0.010000 0.106699 0.775000
v -0.010000 1.902000 -0.800000
v -0.010000 1.952000 -0.750000
v -0.010000 1.916645 -0.764645
v -0.010000 1.927000 -0.793301
v -0.010000 1.945301 -0.775000
v -0.010000 1.952000 0.750000
v -0.010000 1.902000 0.800000
v -0.010000 1.916645 0.764645
v -0.010000 1.945301 0.775000
v -0.010000 1.927000 0.793301
v -0.060000 0.450000 -0.500000
v -0.060000 0.400000 -0.450000
v -0.060000 0.364645 -0.535355
v -0.060000 0.425000 -0.493301
v -0.060000 0.406699 -0.475000
v -0.060000 0.400000 0.450000
v -0.060000 0.450000 0.500000
v -0.060000 0.364645 0.535355
v -0.060000 0.406699 0.475000
v -0.060000 0.425000 0.493301
v -0.060000 1.652000 -0.450000
v -0.060000 1.602000 -0.500000
v -0.060000 1.687355 -0.535355
v -0.060000 1.645301 -0.475000
v -0.060000 1.627000 -0.493301
v -0.060000 1.602000 0.500000
v -0.060000 1.652000 0.450000
v -0.060000 1.687355 0.535355
v -0.060000 1.627000 0.493301
v -0.060000 1.645301 0.475000
v -0.060000 0.300000 -0.550000
v -0.060000 0.350000 -0.600000
v -0.060000 0.335355 -0.564645
v -0.060000 0.306699 -0.575000
v -0.060000 0.325000 -0.593301
v -0.060000 0.350000 0.600000
v -0.060000 0.300000 0.550000
v -0.060000 0.335355 0.564645
v -0.060000 0.325000 0.593301
v -0.060000 0.306699 0.575000
v -0.060000 1.702000 -0.600000
v -0.060000 1.752000 -0.550000
v -0.060000 1.716645 -0.564645
v -0.060000 1.727000 -0.593301
v -0.060000 1.745301 -0.575000
v -0.060000 1.752000 0.550000
v -0.060000 1.702000 0.600000
v -0.060000 1.716645 0.564645
v -0.060000 1.745301 0.575000
v -0.060000 1.727000 0.593301
v -0.010000 0.400000 -0.450000
v -0.010000 0.450000 -0.500000
v -0.010000 0.406699 -0.475000
v -0.010000 0.425000 -0.493301
v -0.010000 0.450000 0.500000
v -0.010000 0.400000 0.450000
v -0.010000 0.425000 0.493301
v -0.010000 0.406699 0.475000
v -0.010000 1.602000 -0.500000
v -0.010000 1.652000 -0.450000
v -0.010000 1.627000 -0.493301
v -0.010000 1.645301 -0.475000
v -0.010000 1.652000 0.450000
v -0.010000 1.602000 0.500000
v -0.010000 1.645301 0.475000
v -0.010000 1.627000 0.493301
vn -0.0000 -0.0000 1.0000
vn -0.0000 -0.0000 -1.0000
vn -0.0000 1.0000 -0.0000
vn -0.0000 -0.5000 -0.8660
vn -0.0000 -0.8660 -0.5000
vn -0.0000 -1.0000 -0.0000
vn -0.0000 -0.8660 0.5000
vn -0.0000 -0.5000 0.8660
vn -0.0000 0.5000 0.8660
vn -0.0000 0.8660 0.5000
vn -0.0000 0.8660 -0.5000
vn -0.0000 0.5000 -0.8660
vn -1.0000 -0.0000 -0.0000
vn 1.0000 -0.0000 -0.0000
vn 0.9987 -0.0362 0.0362
vn 0.9987 -0.0362 -0.0362
vn 0.9987 0.0362 -0.0362
vn 0.9987 0.0362 0.0362
vn -0.0000 -0.7534 -0.6575
vn -0.0000 0.6575 -0.7534
vn -0.0000 0.7534 0.6575
vn -0.0000 -0.6575 0.7534
vn -0.0000 -0.7071 -0.7071
vn -0.0000 -0.7071 0.7071
vn -0.0000 0.7071 0.7071
vn -0.0000 0.7071 -0.7071
vn -0.0000 -0.6575 -0.7534
vn -0.9987 0.0362 -0.0362
vn -0.0000 0.7534 -0.6575
vn -0.9987 0.0362 0.0362
vn -0.0000 0.6575 0.7534
vn -0.9987 -0.0362 0.0362
vn -0.0000 -0.7534 0.6575
vn -0.9987 -0.0362 -0.0362
vn -0.0000 -0.1305 -0.9914
vn -0.0000 -0.9914 -0.1305
vn -0.0000 -0.1305 0.9914
vn -0.0000 -0.9914 0.1305
vn -0.0000 0.9914 0.1305
vn -0.0000 0.1305 0.9914
vn -0.0000 0.9914 -0.1305
vn -0.0000 0.1305 -0.9914
vt 0.923196 0.397983
vt 0.923196 0.719486
vt 0.899922 0.719486
vt 0.899922 0.397983
vt 0.853375 0.770529
vt 0.853375 0.397983
vt 0.876648 0.397983
vt 0.876648 0.770529
vt 0.876648 0.724778
vt 0.876648 0.397983
vt 0.899922 0.397983
vt 0.899922 0.724778
vt 0.782519 0.299982
vt 0.792216 0.299982
vt 0.792216 0.322463
vt 0.782519 0.322463
vt 0.792216 0.343034
vt 0.782519 0.343034
vt 0.792216 0.356182
vt 0.782519 0.356182
vt 0.811611 0.343328
vt 0.801914 0.343328
vt 0.801914 0.323765
vt 0.811611 0.323765
vt 0.801914 0.301176
vt 0.811611 0.301176
vt 0.801914 0.281614
vt 0.811611 0.281614
vt 0.811611 0.386718
vt 0.801914 0.386718
vt 0.801914 0.365646
vt 0.811611 0.365646
vt 0.801914 0.343328
vt 0.811611 0.343328
vt 0.821309 0.281614
vt 0.831006 0.281614
vt 0.831006 0.299982
vt 0.821309 0.299982
vt 0.831006 0.322463
vt 0.821309 0.322463
vt 0.846764 0.378537
vt 0.846764 0.392151
vt 0.840703 0.392151
vt 0.840703 0.378537
vt 0.831006 0.343034
vt 0.821309 0.343034
vt 0.782519 0.281614
vt 0.792216 0.281614
vt 0.331698 0.841479
vt 0.309109 0.841479
vt 0.289546 0.830185
vt 0.278252 0.810622
vt 0.278252 0.788033
vt 0.289546 0.768471
vt 0.309109 0.757176
vt 0.331698 0.757176
vt 0.351260 0.768471
vt 0.362555 0.788033
vt 0.362555 0.810622
vt 0.351260 0.830185
vt 0.709125 0.315394
vt 0.709125 0.332136
vt 0.698216 0.335060
vt 0.698216 0.312471
vt 0.717497 0.346636
vt 0.709510 0.354622
vt 0.731996 0.355007
vt 0.729073 0.365917
vt 0.748738 0.355007
vt 0.751662 0.365917
vt 0.763238 0.346636
vt 0.771224 0.354622
vt 0.771609 0.332136
vt 0.782519 0.335060
vt 0.771609 0.315394
vt 0.782519 0.312471
vt 0.763238 0.300895
vt 0.771224 0.292908
vt 0.748738 0.292523
vt 0.751662 0.281614
vt 0.731996 0.292523
vt 0.729073 0.281614
vt 0.717497 0.300895
vt 0.709510 0.292908
vt 0.527941 0.831264
vt 0.527941 0.836650
vt 0.521880 0.836650
vt 0.521880 0.831264
vt 0.839491 0.374943
vt 0.839491 0.388557
vt 0.833430 0.388557
vt 0.833430 0.374943
vt 0.821309 0.357533
vt 0.821309 0.343034
vt 0.827370 0.343034
vt 0.827370 0.357533
vt 0.846764 0.361874
vt 0.840703 0.361874
vt 0.839491 0.358280
vt 0.833430 0.358280
vt 0.794641 0.356182
vt 0.800910 0.356182
vt 0.799575 0.375819
vt 0.795975 0.375819
vt 0.788580 0.371800
vt 0.788580 0.356182
vt 0.794641 0.356182
vt 0.794641 0.371800
vt 0.794641 0.375819
vt 0.800910 0.375819
vt 0.799575 0.395457
vt 0.795975 0.395456
vt 0.521880 0.839297
vt 0.515611 0.839297
vt 0.516945 0.819660
vt 0.520546 0.819660
vt 0.821309 0.388775
vt 0.821309 0.374276
vt 0.827370 0.374276
vt 0.827370 0.388775
vt 0.487902 0.839297
vt 0.481632 0.839297
vt 0.482967 0.819660
vt 0.486567 0.819660
vt 0.846764 0.336882
vt 0.846764 0.346627
vt 0.840703 0.346627
vt 0.840703 0.336882
vt 0.469605 0.796913
vt 0.474990 0.800023
vt 0.469729 0.819660
vt 0.455229 0.811289
vt 0.481209 0.800023
vt 0.486471 0.819660
vt 0.486595 0.796913
vt 0.500971 0.811289
vt 0.489705 0.791527
vt 0.509342 0.796789
vt 0.489705 0.785309
vt 0.509342 0.780047
vt 0.486595 0.779923
vt 0.500971 0.765547
vt 0.481209 0.776813
vt 0.486471 0.757176
vt 0.474990 0.776813
vt 0.469729 0.757176
vt 0.469605 0.779923
vt 0.455229 0.765547
vt 0.466495 0.785309
vt 0.446858 0.780047
vt 0.466495 0.791527
vt 0.446858 0.796789
vt 0.706711 0.389126
vt 0.701325 0.386016
vt 0.698216 0.380631
vt 0.698216 0.374412
vt 0.701325 0.369026
vt 0.706711 0.365917
vt 0.712930 0.365917
vt 0.718315 0.369026
vt 0.721425 0.374412
vt 0.721425 0.380631
vt 0.718315 0.386016
vt 0.712930 0.389126
vt 0.847556 0.787996
vt 0.852453 0.787996
vt 0.851447 0.805327
vt 0.848562 0.805327
vt 0.744634 0.377163
vt 0.744634 0.370974
vt 0.750695 0.370974
vt 0.750695 0.377163
vt 0.847556 0.753333
vt 0.852453 0.753333
vt 0.851447 0.770664
vt 0.848562 0.770664
vt 0.851662 0.365940
vt 0.846765 0.365940
vt 0.847771 0.346745
vt 0.850656 0.346745
vt 0.744634 0.365917
vt 0.750695 0.365917
vt 0.551021 0.839297
vt 0.546124 0.839297
vt 0.547130 0.819660
vt 0.550015 0.819660
vt 0.534002 0.824717
vt 0.534002 0.819660
vt 0.540063 0.819660
vt 0.540063 0.824717
vt 0.527941 0.819660
vt 0.527941 0.825046
vt 0.521880 0.825046
vt 0.521880 0.819660
vt 0.744634 0.386446
vt 0.744634 0.382826
vt 0.750695 0.382826
vt 0.750695 0.386446
vt 0.534002 0.830906
vt 0.540063 0.830906
vt 0.762817 0.391698
vt 0.762817 0.397500
vt 0.756756 0.397500
vt 0.756756 0.391698
vt 0.746222 0.378355
vt 0.746222 0.381634
vt 0.526353 0.829955
vt 0.526353 0.826355
vt 0.761229 0.390405
vt 0.761229 0.386847
vt 0.762817 0.385554
vt 0.535590 0.832098
vt 0.535590 0.835377
vt 0.534002 0.836569
vt 0.749107 0.381634
vt 0.749107 0.378355
vt 0.523468 0.826355
vt 0.523468 0.829955
vt 0.758344 0.386847
vt 0.758344 0.390405
vt 0.756756 0.385554
vt 0.538475 0.835377
vt 0.538475 0.832098
vt 0.540063 0.836569
vt 0.821890 0.362770
vt 0.821890 0.369039
vt 0.826788 0.362770
vt 0.826788 0.369039
vt 0.846183 0.357105
vt 0.846183 0.351396
vt 0.841285 0.357105
vt 0.841285 0.351396
vt 0.788580 0.388342
vt 0.789162 0.376974
vt 0.789162 0.383168
vt 0.794059 0.376974
vt 0.794641 0.388342
vt 0.794059 0.383168
vt 0.839491 0.343034
vt 0.838910 0.353512
vt 0.838910 0.347802
vt 0.834012 0.353512
vt 0.833430 0.343034
vt 0.834012 0.347802
vt 0.852453 0.734899
vt 0.847556 0.734899
vt 0.848562 0.716465
vt 0.851447 0.716465
vt 0.494171 0.839297
vt 0.487902 0.839297
vt 0.489236 0.819660
vt 0.492837 0.819660
vt 0.852453 0.716465
vt 0.847556 0.716465
vt 0.848562 0.698031
vt 0.851447 0.698031
vt 0.481632 0.839297
vt 0.475363 0.839297
vt 0.476698 0.819660
vt 0.480298 0.819660
vt 0.565713 0.819660
vt 0.570610 0.819660
vt 0.569604 0.839268
vt 0.566719 0.839268
vt 0.763025 0.365917
vt 0.769294 0.365917
vt 0.767960 0.385554
vt 0.764359 0.385554
vt 0.555918 0.819660
vt 0.560816 0.819660
vt 0.559809 0.839297
vt 0.556924 0.839297
vt 0.456555 0.819660
vt 0.462825 0.819660
vt 0.461490 0.839297
vt 0.457890 0.839297
vt 0.029092 0.019395
vt 0.024244 0.020694
vt 0.012538 0.012538
vt 0.020694 0.024244
vt 0.019395 0.029092
vt 0.329713 0.029092
vt 0.328414 0.024244
vt 0.336570 0.012538
vt 0.324864 0.020694
vt 0.320015 0.019395
vt 0.320015 0.378588
vt 0.324864 0.377289
vt 0.336570 0.385445
vt 0.328414 0.373739
vt 0.329713 0.368891
vt 0.019395 0.368891
vt 0.020694 0.373739
vt 0.012538 0.385445
vt 0.024244 0.377289
vt 0.029092 0.378588
vt 0.038790 0.708689
vt 0.040089 0.713538
vt 0.031933 0.725243
vt 0.043638 0.717087
vt 0.048487 0.718386
vt 0.261831 0.718386
vt 0.266680 0.717087
vt 0.278385 0.725243
vt 0.270229 0.713538
vt 0.271528 0.708689
vt 0.048487 0.436773
vt 0.043638 0.438072
vt 0.031933 0.429916
vt 0.040089 0.441621
vt 0.038790 0.446470
vt 0.271528 0.446470
vt 0.270229 0.441621
vt 0.278385 0.429916
vt 0.266680 0.438072
vt 0.261831 0.436773
vt 0.009697 0.757176
vt 0.004849 0.755877
vt 0.006857 0.750319
vt 0.001299 0.752327
vt 0.000000 0.747479
vt 0.310318 0.747479
vt 0.309019 0.752327
vt 0.303461 0.750319
vt 0.305469 0.755877
vt 0.300621 0.757176
vt 0.000000 0.407680
vt 0.001299 0.402832
vt 0.006857 0.404840
vt 0.004849 0.399282
vt 0.009697 0.397983
vt 0.300621 0.397983
vt 0.305469 0.399282
vt 0.303461 0.404840
vt 0.309019 0.402832
vt 0.310318 0.407680
vt 0.640031 0.650504
vt 0.641330 0.655353
vt 0.633174 0.667059
vt 0.644880 0.658903
vt 0.649728 0.660202
vt 0.824282 0.660202
vt 0.829131 0.658903
vt 0.840837 0.667059
vt 0.832681 0.655353
vt 0.833980 0.650504
vt 0.649728 0.417378
vt 0.644880 0.418677
vt 0.633174 0.410521
vt 0.641330 0.422227
vt 0.640031 0.427075
vt 0.833980 0.427075
vt 0.832681 0.422227
vt 0.840837 0.410521
vt 0.829131 0.418677
vt 0.824282 0.417378
vt 0.630334 0.679597
vt 0.625485 0.678297
vt 0.627493 0.672739
vt 0.621935 0.674748
vt 0.620636 0.669899
vt 0.853375 0.669899
vt 0.852075 0.674748
vt 0.846518 0.672739
vt 0.848526 0.678297
vt 0.843677 0.679597
vt 0.620636 0.407680
vt 0.621935 0.402832
vt 0.627493 0.404840
vt 0.625485 0.399282
vt 0.630334 0.397983
vt 0.843677 0.397983
vt 0.848526 0.399282
vt 0.846518 0.404840
vt 0.852075 0.402832
vt 0.853375 0.407680
vt 0.932894 0.410472
vt 0.923196 0.410472
vt 0.923196 0.405476
vt 0.932894 0.405476
vt 0.923196 0.400905
vt 0.932894 0.400905
vt 0.923196 0.397983
vt 0.932894 0.397983
vt 0.932894 0.952062
vt 0.923196 0.952062
vt 0.923196 0.947715
vt 0.932894 0.947715
vt 0.923196 0.942695
vt 0.932894 0.942695
vt 0.923196 0.938348
vt 0.932894 0.938348
vt 0.932894 0.679879
vt 0.942591 0.679879
vt 0.942591 0.683961
vt 0.932894 0.683961
vt 0.952289 0.682124
vt 0.942591 0.682124
vt 0.942591 0.677165
vt 0.952289 0.677165
vt 0.942591 0.672482
vt 0.952289 0.672482
vt 0.942591 0.407550
vt 0.932894 0.407550
vt 0.932894 0.402554
vt 0.942591 0.402554
vt 0.932894 0.397983
vt 0.942591 0.397983
vt 0.932894 0.732634
vt 0.923196 0.732634
vt 0.923196 0.728552
vt 0.932894 0.728552
vt 0.886346 0.734421
vt 0.876648 0.734421
vt 0.876648 0.729738
vt 0.886346 0.729738
vt 0.876648 0.724778
vt 0.886346 0.724778
vt 0.952289 0.397983
vt 0.961986 0.397983
vt 0.961986 0.402065
vt 0.952289 0.402065
vt 0.847556 0.683678
vt 0.837859 0.683678
vt 0.837859 0.679597
vt 0.847556 0.679597
vt 0.961986 0.611340
vt 0.952289 0.611340
vt 0.952289 0.606769
vt 0.961986 0.606769
vt 0.952289 0.601773
vt 0.961986 0.601773
vt 0.847556 0.941627
vt 0.837859 0.941627
vt 0.837859 0.938705
vt 0.847556 0.938705
vt 0.837859 0.934134
vt 0.847556 0.934134
vt 0.837859 0.929138
vt 0.847556 0.929138
vt 0.620636 0.770890
vt 0.610939 0.770890
vt 0.610939 0.766543
vt 0.620636 0.766543
vt 0.610939 0.761523
vt 0.620636 0.761523
vt 0.610939 0.757176
vt 0.620636 0.757176
vt 0.600918 0.766743
vt 0.591220 0.766743
vt 0.591220 0.761747
vt 0.600918 0.761747
vt 0.591220 0.757176
vt 0.600918 0.757176
vt 0.909620 0.945205
vt 0.899922 0.945205
vt 0.899922 0.941123
vt 0.909620 0.941123
vt 0.899922 0.719486
vt 0.909620 0.719486
vt 0.909620 0.722407
vt 0.899922 0.722407
vt 0.909620 0.726979
vt 0.899922 0.726979
vt 0.909620 0.731974
vt 0.899922 0.731974
vt 0.571826 0.937669
vt 0.581523 0.937669
vt 0.581523 0.942351
vt 0.571826 0.942351
vt 0.581523 0.947311
vt 0.571826 0.947311
vt 0.600918 0.934223
vt 0.591220 0.934223
vt 0.591220 0.930141
vt 0.600918 0.930141
vt 0.872770 0.907672
vt 0.863072 0.907672
vt 0.863072 0.903325
vt 0.872770 0.903325
vt 0.863072 0.898305
vt 0.872770 0.898305
vt 0.863072 0.893958
vt 0.872770 0.893958
vt 0.942591 0.397983
vt 0.952289 0.397983
vt 0.000000 0.397983
vt 0.000000 0.000000
vt 0.923196 0.732634
vt 0.932894 0.732634
vt 0.349108 0.000000
vt 0.349108 0.397983
vt 0.620636 0.921747
vt 0.610939 0.921747
vt 0.886346 0.946249
vt 0.876648 0.946249
vt 0.571826 0.757176
vt 0.581523 0.757176
vt 0.863072 0.770529
vt 0.872770 0.770529
vt 0.814585 0.912723
vt 0.813286 0.917572
vt 0.809736 0.921121
vt 0.804887 0.922421
vt 0.630334 0.922421
vt 0.625485 0.921121
vt 0.621935 0.917572
vt 0.620636 0.912723
vt 0.620636 0.689294
vt 0.621935 0.684445
vt 0.625485 0.680896
vt 0.804887 0.679597
vt 0.809736 0.680896
vt 0.813286 0.684445
vt 0.814585 0.689294
vt 0.801914 0.299982
vt 0.801914 0.322463
vt 0.792216 0.322463
vt 0.792216 0.299982
vt 0.801914 0.343034
vt 0.792216 0.343034
vt 0.801914 0.356182
vt 0.792216 0.356182
vt 0.811611 0.343328
vt 0.811611 0.323765
vt 0.821308 0.323765
vt 0.821308 0.343328
vt 0.811611 0.301176
vt 0.821308 0.301176
vt 0.811611 0.281614
vt 0.821308 0.281614
vt 0.811611 0.386718
vt 0.811611 0.365646
vt 0.821309 0.365646
vt 0.821309 0.386718
vt 0.811611 0.343328
vt 0.821309 0.343328
vt 0.840704 0.281614
vt 0.840704 0.299982
vt 0.831006 0.299982
vt 0.831006 0.281614
vt 0.840704 0.322463
vt 0.831006 0.322463
vt 0.840704 0.323268
vt 0.846765 0.323268
vt 0.846765 0.336882
vt 0.840704 0.336882
vt 0.840704 0.343034
vt 0.831006 0.343034
vt 0.801914 0.281614
vt 0.792216 0.281614
vt 0.393412 0.757176
vt 0.416001 0.757176
vt 0.435563 0.768471
vt 0.446858 0.788033
vt 0.446858 0.810622
vt 0.435563 0.830185
vt 0.416001 0.841479
vt 0.393412 0.841479
vt 0.373849 0.830185
vt 0.362555 0.810622
vt 0.362555 0.788033
vt 0.373849 0.768470
vt 0.267342 0.807699
vt 0.278252 0.810622
vt 0.266957 0.830185
vt 0.258971 0.822198
vt 0.247395 0.841479
vt 0.244472 0.830569
vt 0.224806 0.841479
vt 0.227729 0.830569
vt 0.205243 0.830185
vt 0.213230 0.822198
vt 0.193949 0.810622
vt 0.204858 0.807699
vt 0.193949 0.788033
vt 0.204858 0.790956
vt 0.205243 0.768470
vt 0.213230 0.776457
vt 0.224806 0.757176
vt 0.227729 0.768086
vt 0.247395 0.757176
vt 0.244472 0.768086
vt 0.266957 0.768470
vt 0.258971 0.776457
vt 0.278252 0.788033
vt 0.267342 0.790956
vt 0.527941 0.831264
vt 0.534002 0.831264
vt 0.534002 0.836650
vt 0.846764 0.313523
vt 0.852825 0.313523
vt 0.852825 0.327137
vt 0.846764 0.327137
vt 0.833430 0.357533
vt 0.827369 0.357533
vt 0.827369 0.343034
vt 0.833430 0.343034
vt 0.840704 0.306605
vt 0.846765 0.306605
vt 0.846764 0.296860
vt 0.852825 0.296860
vt 0.509342 0.819660
vt 0.508007 0.839297
vt 0.504407 0.839297
vt 0.503073 0.819660
vt 0.788580 0.371800
vt 0.782519 0.371800
vt 0.782519 0.356182
vt 0.788580 0.356182
vt 0.763025 0.365917
vt 0.761691 0.385554
vt 0.758090 0.385554
vt 0.756756 0.365917
vt 0.462825 0.839297
vt 0.464159 0.819660
vt 0.467760 0.819660
vt 0.469094 0.839297
vt 0.833430 0.388775
vt 0.827369 0.388775
vt 0.827369 0.374276
vt 0.833430 0.374276
vt 0.494171 0.839297
vt 0.495505 0.819660
vt 0.499106 0.819660
vt 0.500440 0.839297
vt 0.840704 0.281614
vt 0.846765 0.281614
vt 0.846765 0.291359
vt 0.840704 0.291359
vt 0.549079 0.796913
vt 0.563454 0.811289
vt 0.548955 0.819660
vt 0.543693 0.800023
vt 0.532212 0.819660
vt 0.537474 0.800023
vt 0.517713 0.811289
vt 0.532088 0.796913
vt 0.509342 0.796789
vt 0.528979 0.791527
vt 0.509342 0.780047
vt 0.528979 0.785309
vt 0.517713 0.765547
vt 0.532088 0.779923
vt 0.532212 0.757176
vt 0.537474 0.776813
vt 0.548955 0.757176
vt 0.543693 0.776813
vt 0.563454 0.765547
vt 0.549079 0.779923
vt 0.571826 0.780047
vt 0.552188 0.785309
vt 0.571826 0.796789
vt 0.552188 0.791527
vt 0.744634 0.374412
vt 0.744634 0.380631
vt 0.741525 0.386017
vt 0.736139 0.389126
vt 0.729920 0.389126
vt 0.724534 0.386017
vt 0.721425 0.380631
vt 0.721425 0.374412
vt 0.724534 0.369026
vt 0.729920 0.365917
vt 0.736139 0.365917
vt 0.741525 0.369026
vt 0.852453 0.805327
vt 0.851447 0.822659
vt 0.848562 0.822659
vt 0.847556 0.805327
vt 0.756756 0.377163
vt 0.750695 0.377163
vt 0.750695 0.370974
vt 0.756756 0.370974
vt 0.852453 0.770664
vt 0.851447 0.787996
vt 0.848562 0.787996
vt 0.847556 0.770664
vt 0.846765 0.385136
vt 0.847771 0.365940
vt 0.850656 0.365940
vt 0.851662 0.385136
vt 0.750695 0.365917
vt 0.552027 0.819660
vt 0.554912 0.819660
vt 0.555918 0.839297
vt 0.546124 0.824717
vt 0.540063 0.824717
vt 0.540063 0.819660
vt 0.546124 0.819660
vt 0.527941 0.819660
vt 0.534002 0.819660
vt 0.534002 0.825046
vt 0.756756 0.386446
vt 0.750695 0.386446
vt 0.750695 0.382826
vt 0.756756 0.382826
vt 0.546124 0.830906
vt 0.540063 0.830906
vt 0.762817 0.391698
vt 0.768878 0.391698
vt 0.768878 0.397500
vt 0.755168 0.378355
vt 0.755168 0.381634
vt 0.529529 0.829955
vt 0.529529 0.826355
vt 0.764405 0.390405
vt 0.762817 0.385554
vt 0.764405 0.386848
vt 0.544536 0.832098
vt 0.546124 0.836569
vt 0.544536 0.835377
vt 0.752283 0.381634
vt 0.752283 0.378355
vt 0.532414 0.826355
vt 0.532414 0.829955
vt 0.767290 0.386848
vt 0.768878 0.385554
vt 0.767290 0.390405
vt 0.541651 0.835377
vt 0.540063 0.836569
vt 0.541651 0.832098
vt 0.832848 0.369039
vt 0.832848 0.362770
vt 0.827951 0.362770
vt 0.827951 0.369039
vt 0.841285 0.296127
vt 0.841285 0.301837
vt 0.846183 0.301837
vt 0.846183 0.296127
vt 0.788580 0.388342
vt 0.787998 0.383168
vt 0.787998 0.376974
vt 0.783101 0.376974
vt 0.783101 0.383168
vt 0.782519 0.388342
vt 0.846764 0.281614
vt 0.847346 0.286382
vt 0.847346 0.292092
vt 0.852243 0.292092
vt 0.852243 0.286382
vt 0.852825 0.281614
vt 0.848562 0.734899
vt 0.851447 0.734899
vt 0.852453 0.753333
vt 0.509342 0.839297
vt 0.510676 0.819660
vt 0.514277 0.819660
vt 0.515611 0.839297
vt 0.847556 0.698031
vt 0.848562 0.679597
vt 0.851447 0.679597
vt 0.852454 0.698031
vt 0.769294 0.385554
vt 0.770629 0.365917
vt 0.774229 0.365917
vt 0.775563 0.385554
vt 0.851662 0.327137
vt 0.847771 0.346745
vt 0.846765 0.327137
vt 0.781833 0.365917
vt 0.780498 0.385554
vt 0.776898 0.385554
vt 0.775564 0.365917
vt 0.565713 0.819660
vt 0.564707 0.839297
vt 0.561822 0.839297
vt 0.475363 0.819660
vt 0.474029 0.839297
vt 0.470428 0.839297
vt 0.469094 0.819660
vt 0.669123 0.019395
vt 0.685678 0.012538
vt 0.673972 0.020694
vt 0.677522 0.024244
vt 0.678821 0.029092
vt 0.368503 0.029092
vt 0.361646 0.012538
vt 0.369802 0.024244
vt 0.373351 0.020694
vt 0.378200 0.019395
vt 0.378200 0.378588
vt 0.361646 0.385445
vt 0.373351 0.377289
vt 0.369802 0.373739
vt 0.368503 0.368891
vt 0.678821 0.368891
vt 0.685678 0.385445
vt 0.677522 0.373739
vt 0.673972 0.377289
vt 0.669123 0.378588
vt 0.581846 0.708689
vt 0.588703 0.725243
vt 0.580547 0.713538
vt 0.576998 0.717087
vt 0.572149 0.718386
vt 0.358805 0.718386
vt 0.342251 0.725243
vt 0.353957 0.717087
vt 0.350407 0.713538
vt 0.349108 0.708689
vt 0.572149 0.436773
vt 0.588703 0.429916
vt 0.576998 0.438072
vt 0.580547 0.441621
vt 0.581846 0.446470
vt 0.349108 0.446470
vt 0.342251 0.429916
vt 0.350407 0.441621
vt 0.353957 0.438072
vt 0.358805 0.436773
vt 0.610939 0.757176
vt 0.613779 0.750319
vt 0.615787 0.755877
vt 0.619337 0.752327
vt 0.620636 0.747479
vt 0.317175 0.750319
vt 0.311617 0.752327
vt 0.315167 0.755877
vt 0.320015 0.757176
vt 0.620636 0.407680
vt 0.613779 0.404840
vt 0.619337 0.402832
vt 0.615787 0.399282
vt 0.610939 0.397983
vt 0.320015 0.397983
vt 0.317175 0.404840
vt 0.315167 0.399282
vt 0.311617 0.402832
vt 0.911559 0.252521
vt 0.918416 0.269076
vt 0.910260 0.257370
vt 0.906711 0.260920
vt 0.901862 0.262219
vt 0.727308 0.262219
vt 0.710753 0.269076
vt 0.722459 0.260920
vt 0.718910 0.257370
vt 0.717610 0.252521
vt 0.901862 0.019395
vt 0.918416 0.012538
vt 0.906711 0.020694
vt 0.910260 0.024244
vt 0.911559 0.029092
vt 0.717610 0.029092
vt 0.710753 0.012538
vt 0.718910 0.024244
vt 0.722459 0.020694
vt 0.727308 0.019395
vt 0.921257 0.281614
vt 0.924097 0.274757
vt 0.926105 0.280314
vt 0.929655 0.276765
vt 0.930954 0.271916
vt 0.698216 0.271916
vt 0.705073 0.274757
vt 0.699515 0.276765
vt 0.703064 0.280314
vt 0.707913 0.281614
vt 0.930954 0.009697
vt 0.924097 0.006857
vt 0.929655 0.004849
vt 0.926105 0.001299
vt 0.921257 0.000000
vt 0.707913 0.000000
vt 0.705073 0.006857
vt 0.703064 0.001299
vt 0.699515 0.004849
vt 0.698216 0.009697
vt 0.930954 0.012489
vt 0.930954 0.007493
vt 0.940652 0.007493
vt 0.940652 0.012489
vt 0.930954 0.002922
vt 0.940652 0.002922
vt 0.930954 0.000000
vt 0.940652 0.000000
vt 0.942591 0.901552
vt 0.942591 0.897205
vt 0.952289 0.897205
vt 0.952289 0.901552
vt 0.942591 0.892185
vt 0.952289 0.892185
vt 0.942591 0.887838
vt 0.952289 0.887838
vt 0.950349 0.281897
vt 0.950349 0.285978
vt 0.940652 0.285978
vt 0.940652 0.281897
vt 0.950349 0.284142
vt 0.950349 0.279182
vt 0.960047 0.279182
vt 0.960047 0.284142
vt 0.950349 0.274499
vt 0.960047 0.274499
vt 0.940652 0.009567
vt 0.940652 0.004571
vt 0.950349 0.004571
vt 0.950349 0.009567
vt 0.950349 0.000000
vt 0.930954 0.334651
vt 0.930954 0.330570
vt 0.940652 0.330570
vt 0.940652 0.334651
vt 0.886346 0.734421
vt 0.886346 0.729738
vt 0.896043 0.729738
vt 0.896043 0.734421
vt 0.886346 0.724778
vt 0.896043 0.724778
vt 0.961986 0.611340
vt 0.961986 0.615422
vt 0.952289 0.615422
vt 0.952289 0.611340
vt 0.932894 0.688043
vt 0.932894 0.683961
vt 0.942591 0.683961
vt 0.942591 0.688043
vt 0.952289 0.824697
vt 0.952289 0.820126
vt 0.961986 0.820126
vt 0.961986 0.824697
vt 0.952289 0.815130
vt 0.961986 0.815130
vt 0.932894 0.945991
vt 0.932894 0.943070
vt 0.942591 0.943070
vt 0.942591 0.945991
vt 0.932894 0.938498
vt 0.942591 0.938498
vt 0.932894 0.933502
vt 0.942591 0.933502
vt 0.853375 0.784244
vt 0.853375 0.779896
vt 0.863072 0.779896
vt 0.863072 0.784244
vt 0.853375 0.774877
vt 0.863072 0.774877
vt 0.853375 0.770529
vt 0.610615 0.761747
vt 0.610615 0.766743
vt 0.610615 0.757176
vt 0.919317 0.941123
vt 0.919317 0.945205
vt 0.919317 0.719486
vt 0.919317 0.722407
vt 0.919317 0.726979
vt 0.919317 0.731974
vt 0.591220 0.937669
vt 0.591220 0.942351
vt 0.581523 0.942351
vt 0.581523 0.937669
vt 0.591220 0.947311
vt 0.581523 0.947311
vt 0.610615 0.930141
vt 0.610615 0.934223
vt 0.446858 0.956802
vt 0.446858 0.952455
vt 0.456555 0.952455
vt 0.456555 0.956802
vt 0.446858 0.947435
vt 0.456555 0.947435
vt 0.446858 0.943088
vt 0.456555 0.943088
vt 0.950349 0.000000
vt 0.960047 0.000000
vt 0.698216 0.000000
vt 0.698216 0.397983
vt 0.942591 0.682124
vt 0.952289 0.682124
vt 0.863072 0.935100
vt 0.853375 0.935100
vt 0.896043 0.946249
vt 0.886346 0.946249
vt 0.581523 0.757176
vt 0.591220 0.757176
vt 0.446858 0.819660
vt 0.456555 0.819660
vt 0.000000 0.990303
vt 0.000000 0.766874
vt 0.001299 0.762025
vt 0.004849 0.758475
vt 0.184251 0.757176
vt 0.189100 0.758475
vt 0.192650 0.762025
vt 0.193949 0.766874
vt 0.193949 0.990303
vt 0.192650 0.995151
vt 0.189100 0.998701
vt 0.184251 1.000000
vt 0.009697 1.000000
vt 0.004849 0.998701
vt 0.001299 0.995151
vt 0.837859 0.679597
vt 0.837859 0.926453
vt 0.814585 0.926453
vt 0.814585 0.679597
s 1
usemtl bunker_door
f 228/1/1 226/2/1 2/3/1 4/4/1
f 225/5/2 227/6/2 3/7/2 1/8/2
f 227/9/3 228/10/3 4/11/3 3/12/3
f 5/13/2 30/14/2 29/15/4 7/16/4
f 7/16/4 29/15/4 31/17/5 9/18/5
f 9/18/5 31/17/5 32/19/6 11/20/6
f 11/21/6 32/22/6 33/23/7 13/24/7
f 13/24/7 33/23/7 34/25/8 15/26/8
f 15/26/8 34/25/8 35/27/1 17/28/1
f 17/29/1 35/30/1 36/31/9 19/32/9
f 19/32/9 36/31/9 37/33/10 21/34/10
f 21/35/10 37/36/10 38/37/3 23/38/3
f 23/38/3 38/37/3 39/39/11 25/40/11
f 18/41/2 16/42/12 58/43/12 59/44/2
f 25/40/11 39/39/11 40/45/12 27/46/12
f 27/47/12 40/48/12 30/14/2 5/13/2
f 5/49/13 7/50/13 9/51/13 11/52/13 13/53/13 15/54/13 17/55/13 19/56/13 21/57/13 23/58/13 25/59/13 27/60/13
f 6/61/14 8/62/14 29/63/14 30/64/14
f 8/62/14 10/65/14 31/66/14 29/63/14
f 10/65/14 12/67/14 32/68/14 31/66/14
f 12/67/14 14/69/14 33/70/14 32/68/14
f 14/69/14 16/71/14 34/72/14 33/70/14
f 16/71/14 18/73/14 35/74/14 34/72/14
f 18/73/14 20/75/14 36/76/14 35/74/14
f 20/75/14 22/77/14 37/78/14 36/76/14
f 22/77/14 24/79/14 38/80/14 37/78/14
f 24/79/14 26/81/14 39/82/14 38/80/14
f 26/81/14 28/83/14 40/84/14 39/82/14
f 28/83/14 6/61/14 30/64/14 40/84/14
f 80/85/7 44/86/6 68/87/6 88/88/7
f 12/89/3 10/90/10 55/91/10 56/92/3
f 26/93/7 24/94/6 62/95/6 63/96/7
f 20/97/4 18/41/2 59/44/2 60/98/4
f 14/99/11 12/89/3 56/92/3 57/100/11
f 93/101/15 94/102/15 75/103/15 76/104/15
f 8/105/9 6/106/1 54/107/1 53/108/9
f 97/109/16 98/110/16 72/111/16 73/112/16
f 105/113/17 106/114/17 69/115/17 70/116/17
f 6/117/1 28/118/8 64/119/8 54/120/1
f 101/121/18 102/122/18 65/123/18 67/124/18
f 24/125/6 22/126/5 61/127/5 62/128/6
f 42/129/14 78/130/14 53/131/14 54/132/14
f 78/130/14 77/133/14 55/134/14 53/131/14
f 77/133/14 44/135/14 56/136/14 55/134/14
f 44/135/14 80/137/14 57/138/14 56/136/14
f 80/137/14 79/139/14 58/140/14 57/138/14
f 79/139/14 47/141/14 59/142/14 58/140/14
f 47/141/14 82/143/14 60/144/14 59/142/14
f 82/143/14 81/145/14 61/146/14 60/144/14
f 81/145/14 50/147/14 62/148/14 61/146/14
f 50/147/14 84/149/14 63/150/14 62/148/14
f 84/149/14 83/151/14 64/152/14 63/150/14
f 83/151/14 42/129/14 54/132/14 64/152/14
f 86/153/14 66/154/14 91/155/14 92/156/14 74/157/14 89/158/14 90/159/14 71/160/14 87/161/14 88/162/14 68/163/14 85/164/14
f 96/165/19 93/166/19 76/167/19 52/168/19
f 78/169/4 42/170/2 66/171/2 86/172/4
f 100/173/20 97/174/20 73/175/20 49/176/20
f 108/177/21 105/178/21 70/179/21 46/180/21
f 42/170/2 83/181/12 91/182/12 66/171/2
f 104/183/22 101/184/22 67/185/22 43/186/22
f 50/187/3 81/188/10 89/189/10 74/190/3
f 47/191/1 79/192/8 87/193/8 71/194/1
f 44/195/6 77/196/5 85/197/5 68/198/6
f 84/199/11 50/187/3 74/190/3 92/200/11
f 82/201/9 47/202/1 71/203/1 90/204/9
f 41/205/23 43/206/23 77/196/5 78/169/4
f 45/207/24 46/208/24 79/192/8 80/85/7
f 48/209/25 49/210/25 81/211/10 82/201/9
f 51/212/26 52/213/26 83/214/12 84/199/11
f 67/215/23 65/216/23 86/172/4 85/197/5
f 70/217/24 69/218/24 88/88/7 87/193/8
f 73/219/25 72/220/25 90/204/9 89/221/10
f 76/222/26 75/223/26 92/200/11 91/224/12
f 69/218/24 45/207/24 80/85/7 88/88/7
f 75/223/26 51/212/26 84/199/11 92/200/11
f 52/213/26 76/222/26 91/224/12 83/214/12
f 65/216/23 41/205/23 78/169/4 86/172/4
f 72/220/25 48/209/25 82/201/9 90/204/9
f 49/210/25 73/219/25 89/221/10 81/211/10
f 46/208/24 70/217/24 87/193/8 79/192/8
f 43/206/23 67/215/23 85/197/5 77/196/5
f 28/118/8 26/93/7 94/225/24 93/226/24
f 26/93/7 63/96/7 95/227/24 94/225/24
f 63/96/7 64/119/8 96/228/24 95/227/24
f 64/119/8 28/118/8 93/226/24 96/228/24
f 22/126/5 20/97/4 98/229/23 97/230/23
f 20/97/4 60/98/4 99/231/23 98/229/23
f 60/98/4 61/127/5 100/232/23 99/231/23
f 61/127/5 22/126/5 97/230/23 100/232/23
f 10/233/10 8/105/9 102/234/25 101/235/25
f 8/105/9 53/108/9 103/236/25 102/234/25
f 53/108/9 55/237/10 104/238/25 103/236/25
f 55/237/10 10/233/10 101/235/25 104/238/25
f 16/239/12 14/99/11 106/240/26 105/241/26
f 14/99/11 57/100/11 107/242/26 106/240/26
f 57/100/11 58/243/12 108/244/26 107/242/26
f 58/243/12 16/239/12 105/241/26 108/244/26
f 106/245/27 107/246/27 45/247/27 69/248/27
f 107/249/28 108/250/28 46/251/28 45/252/28
f 102/253/29 103/254/29 41/255/29 65/256/29
f 103/257/30 104/258/30 43/259/30 41/260/30
f 94/261/31 95/262/31 51/263/31 75/264/31
f 95/265/32 96/266/32 52/267/32 51/268/32
f 98/269/33 99/270/33 48/271/33 72/272/33
f 99/273/34 100/274/34 49/275/34 48/276/34
f 109/277/14 112/278/14 111/279/14
f 112/278/14 113/280/14 111/279/14
f 113/280/14 110/281/14 111/279/14
f 114/282/14 117/283/14 116/284/14
f 117/283/14 118/285/14 116/284/14
f 118/285/14 115/286/14 116/284/14
f 119/287/14 122/288/14 121/289/14
f 122/288/14 123/290/14 121/289/14
f 123/290/14 120/291/14 121/289/14
f 124/292/14 127/293/14 126/294/14
f 127/293/14 128/295/14 126/294/14
f 128/295/14 125/296/14 126/294/14
f 129/297/14 132/298/14 131/299/14
f 132/298/14 133/300/14 131/299/14
f 133/300/14 130/301/14 131/299/14
f 134/302/14 137/303/14 136/304/14
f 137/303/14 138/305/14 136/304/14
f 138/305/14 135/306/14 136/304/14
f 139/307/14 142/308/14 141/309/14
f 142/308/14 143/310/14 141/309/14
f 143/310/14 140/311/14 141/309/14
f 144/312/14 147/313/14 146/314/14
f 147/313/14 148/315/14 146/314/14
f 148/315/14 145/316/14 146/314/14
f 149/317/14 152/318/14 151/319/14
f 152/318/14 153/320/14 151/319/14
f 153/320/14 150/321/14 151/319/14
f 154/322/14 157/323/14 156/324/14
f 157/323/14 158/325/14 156/324/14
f 158/325/14 155/326/14 156/324/14
f 159/327/14 162/328/14 161/329/14
f 162/328/14 163/330/14 161/329/14
f 163/330/14 160/331/14 161/329/14
f 164/332/14 167/333/14 166/334/14
f 167/333/14 168/335/14 166/334/14
f 168/335/14 165/336/14 166/334/14
f 169/337/14 172/338/14 171/339/14
f 172/338/14 173/340/14 171/339/14
f 173/340/14 170/341/14 171/339/14
f 174/342/14 177/343/14 176/344/14
f 177/343/14 178/345/14 176/344/14
f 178/345/14 175/346/14 176/344/14
f 179/347/14 182/348/14 181/349/14
f 182/348/14 183/350/14 181/349/14
f 183/350/14 180/351/14 181/349/14
f 184/352/14 187/353/14 186/354/14
f 187/353/14 188/355/14 186/354/14
f 188/355/14 185/356/14 186/354/14
f 189/357/14 192/358/14 191/359/14
f 192/358/14 193/360/14 191/359/14
f 193/360/14 190/361/14 191/359/14
f 194/362/14 197/363/14 196/364/14
f 197/363/14 198/365/14 196/364/14
f 198/365/14 195/366/14 196/364/14
f 199/367/14 202/368/14 201/369/14
f 202/368/14 203/370/14 201/369/14
f 203/370/14 200/371/14 201/369/14
f 204/372/14 207/373/14 206/374/14
f 207/373/14 208/375/14 206/374/14
f 208/375/14 205/376/14 206/374/14
f 114/377/35 165/378/35 168/379/4 117/380/4
f 117/380/4 168/379/4 167/381/5 118/382/5
f 118/382/5 167/381/5 164/383/36 115/384/36
f 159/385/37 110/386/37 113/387/8 162/388/8
f 162/388/8 113/387/8 112/389/7 163/390/7
f 163/390/7 112/389/7 109/391/38 160/392/38
f 149/393/39 125/394/39 128/395/10 152/396/10
f 152/397/10 128/398/10 127/399/9 153/400/9
f 153/400/9 127/399/9 124/401/40 150/402/40
f 119/403/41 155/404/41 158/405/11 122/406/11
f 122/406/11 158/405/11 157/407/12 123/408/12
f 123/409/12 157/410/12 154/411/42 120/412/42
f 144/413/40 205/414/40 208/415/9 147/416/9
f 147/416/9 208/415/9 207/417/10 148/418/10
f 148/419/10 207/420/10 204/421/39 145/422/39
f 199/423/42 140/424/42 143/425/12 202/426/12
f 202/427/12 143/428/12 142/429/11 203/430/11
f 203/430/11 142/429/11 139/431/41 200/432/41
f 189/433/36 130/434/36 133/435/5 192/436/5
f 192/436/5 133/435/5 132/437/4 193/438/4
f 193/438/4 132/437/4 129/439/35 190/440/35
f 134/441/38 195/442/38 198/443/7 137/444/7
f 137/444/7 198/443/7 197/445/8 138/446/8
f 138/446/8 197/445/8 194/447/37 135/448/37
f 174/449/41 214/450/41 216/451/11 177/452/11
f 177/452/11 216/451/11 215/453/12 178/454/12
f 178/455/12 215/456/12 213/457/42 175/458/42
f 221/459/36 185/460/36 188/461/5 223/462/5
f 223/462/5 188/461/5 187/463/4 224/464/4
f 224/464/4 187/463/4 184/465/35 222/466/35
f 169/467/40 210/468/40 212/469/9 172/470/9
f 172/470/9 212/469/9 211/471/10 173/472/10
f 173/473/10 211/474/10 209/475/39 170/476/39
f 217/477/37 180/478/37 183/479/8 219/480/8
f 219/480/8 183/479/8 182/481/7 220/482/7
f 220/482/7 182/481/7 179/483/38 218/484/38
f 124/401/40 110/485/37 159/486/37 150/402/40
f 111/279/14 110/281/14 124/292/14 126/294/14 1/487/14 3/488/14
f 109/391/38 115/489/36 164/490/36 160/392/38
f 116/284/14 115/286/14 109/277/14 111/279/14 3/488/14 4/491/14
f 114/377/35 120/412/42 154/411/42 165/378/35
f 121/289/14 120/291/14 114/282/14 116/284/14 4/491/14 2/492/14
f 119/403/41 125/394/39 149/393/39 155/404/41
f 126/294/14 125/296/14 119/287/14 121/289/14 2/492/14 1/487/14
f 134/441/38 130/493/36 189/494/36 195/442/38
f 131/299/14 130/301/14 134/302/14 136/304/14 156/324/14 155/326/14 149/317/14 151/319/14
f 129/439/35 140/424/42 199/423/42 190/440/35
f 141/309/14 140/311/14 129/297/14 131/299/14 151/319/14 150/321/14 159/327/14 161/329/14
f 136/304/14 135/306/14 144/312/14 146/314/14 166/334/14 165/336/14 154/322/14 156/324/14
f 144/413/40 135/495/37 194/496/37 205/414/40
f 139/431/41 145/422/39 204/421/39 200/432/41
f 146/314/14 145/316/14 139/307/14 141/309/14 161/329/14 160/331/14 164/332/14 166/334/14
f 174/449/41 170/476/39 209/475/39 214/450/41
f 171/339/14 170/341/14 174/342/14 176/344/14 196/364/14 195/366/14 189/357/14 191/359/14
f 169/467/40 180/497/37 217/498/37 210/468/40
f 181/349/14 180/351/14 169/337/14 171/339/14 191/359/14 190/361/14 199/367/14 201/369/14
f 176/344/14 175/346/14 184/352/14 186/354/14 206/374/14 205/376/14 194/362/14 196/364/14
f 184/465/35 175/458/42 213/457/42 222/466/35
f 179/483/38 185/499/36 221/500/36 218/484/38
f 186/354/14 185/356/14 179/347/14 181/349/14 201/369/14 200/371/14 204/372/14 206/374/14
f 213/501/14 215/502/14 216/503/14 214/504/14 209/505/14 211/506/14 212/507/14 210/508/14 217/509/14 219/510/14 220/511/14 218/357/14 221/512/14 223/513/14 224/514/14 222/515/14
f 229/516/2 231/517/4 253/518/4 254/519/2
f 231/517/4 233/520/5 255/521/5 253/518/4
f 233/520/5 235/522/6 256/523/6 255/521/5
f 235/524/6 237/525/7 257/526/7 256/527/6
f 237/525/7 239/528/8 258/529/8 257/526/7
f 239/528/8 241/530/1 259/531/1 258/529/8
f 241/532/1 243/533/9 260/534/9 259/535/1
f 243/533/9 245/536/10 261/537/10 260/534/9
f 245/538/10 247/539/3 262/540/3 261/541/10
f 247/539/3 249/542/11 263/543/11 262/540/3
f 242/544/2 283/545/2 282/546/12 240/547/12
f 249/542/11 251/548/12 264/549/12 263/543/11
f 251/550/12 229/516/2 254/519/2 264/551/12
f 229/552/14 251/553/14 249/554/14 247/555/14 245/556/14 243/557/14 241/558/14 239/559/14 237/560/14 235/561/14 233/562/14 231/563/14
f 230/564/13 254/565/13 253/566/13 232/567/13
f 232/567/13 253/566/13 255/568/13 234/569/13
f 234/569/13 255/568/13 256/570/13 236/571/13
f 236/571/13 256/570/13 257/572/13 238/573/13
f 238/573/13 257/572/13 258/574/13 240/575/13
f 240/575/13 258/574/13 259/576/13 242/577/13
f 242/577/13 259/576/13 260/578/13 244/579/13
f 244/579/13 260/578/13 261/580/13 246/581/13
f 246/581/13 261/580/13 262/582/13 248/583/13
f 248/583/13 262/582/13 263/584/13 250/585/13
f 250/585/13 263/584/13 264/586/13 252/587/13
f 252/587/13 264/586/13 254/565/13 230/564/13
f 304/588/7 312/589/7 292/590/6 268/86/6
f 236/591/3 280/592/3 279/593/10 234/594/10
f 250/595/7 287/596/7 286/597/6 248/598/6
f 244/599/4 284/600/4 283/545/2 242/544/2
f 238/601/11 281/602/11 280/592/3 236/591/3
f 317/603/32 300/604/32 299/605/32 318/606/32
f 232/607/9 277/608/9 278/609/1 230/610/1
f 321/611/34 297/612/34 296/613/34 322/614/34
f 329/615/28 294/616/28 293/617/28 330/618/28
f 230/619/1 278/620/1 288/621/8 252/622/8
f 325/623/30 291/624/30 289/625/30 326/626/30
f 248/627/6 286/628/6 285/629/5 246/630/5
f 266/631/13 278/632/13 277/633/13 302/634/13
f 302/634/13 277/633/13 279/635/13 301/636/13
f 301/636/13 279/635/13 280/637/13 268/638/13
f 268/638/13 280/637/13 281/639/13 304/640/13
f 304/640/13 281/639/13 282/641/13 303/642/13
f 303/642/13 282/641/13 283/643/13 271/644/13
f 271/644/13 283/643/13 284/645/13 306/646/13
f 306/646/13 284/645/13 285/647/13 305/648/13
f 305/648/13 285/647/13 286/649/13 274/650/13
f 274/650/13 286/649/13 287/651/13 308/652/13
f 308/652/13 287/651/13 288/653/13 307/654/13
f 307/654/13 288/653/13 278/632/13 266/631/13
f 310/655/13 309/656/13 292/657/13 312/658/13 311/659/13 295/660/13 314/661/13 313/662/13 298/663/13 316/664/13 315/665/13 290/666/13
f 320/667/19 276/668/19 300/669/19 317/670/19
f 302/671/4 310/672/4 290/673/2 266/674/2
f 324/675/20 273/676/20 297/677/20 321/678/20
f 332/679/21 270/680/21 294/681/21 329/682/21
f 266/674/2 290/673/2 315/683/12 307/614/12
f 328/183/22 267/684/22 291/685/22 325/686/22
f 274/687/3 298/688/3 313/689/10 305/690/10
f 271/691/1 295/692/1 311/693/8 303/192/8
f 268/694/6 292/695/6 309/696/5 301/697/5
f 308/698/11 316/699/11 298/688/3 274/687/3
f 306/700/9 314/701/9 295/702/1 271/202/1
f 265/703/23 302/671/4 301/697/5 267/704/23
f 269/705/24 304/588/7 303/192/8 270/706/24
f 272/707/25 306/700/9 305/708/10 273/709/25
f 275/710/26 308/698/11 307/711/12 276/712/26
f 291/713/23 309/696/5 310/672/4 289/714/23
f 294/715/24 311/693/8 312/589/7 293/716/24
f 297/717/25 313/718/10 314/701/9 296/719/25
f 300/720/26 315/721/12 316/699/11 299/722/26
f 293/716/24 312/589/7 304/588/7 269/705/24
f 299/722/26 316/699/11 308/698/11 275/710/26
f 276/712/26 307/711/12 315/721/12 300/720/26
f 289/714/23 310/672/4 302/671/4 265/703/23
f 296/719/25 314/701/9 306/700/9 272/707/25
f 273/709/25 305/708/10 313/718/10 297/717/25
f 270/706/24 303/192/8 311/693/8 294/715/24
f 267/704/23 301/697/5 309/696/5 291/713/23
f 252/622/8 317/723/24 318/724/24 250/595/7
f 250/595/7 318/724/24 319/725/24 287/596/7
f 287/596/7 319/725/24 320/726/24 288/621/8
f 288/621/8 320/726/24 317/723/24 252/622/8
f 246/630/5 321/727/23 322/728/23 244/599/4
f 244/599/4 322/728/23 323/729/23 284/600/4
f 284/600/4 323/729/23 324/730/23 285/629/5
f 285/629/5 324/730/23 321/727/23 246/630/5
f 234/731/10 325/732/25 326/733/25 232/607/9
f 232/607/9 326/733/25 327/734/25 277/608/9
f 277/608/9 327/734/25 328/735/25 279/736/10
f 279/736/10 328/735/25 325/732/25 234/731/10
f 240/737/12 329/738/26 330/739/26 238/601/11
f 238/601/11 330/739/26 331/740/26 281/602/11
f 281/602/11 331/740/26 332/741/26 282/742/12
f 282/742/12 332/741/26 329/738/26 240/737/12
f 330/173/27 293/743/27 269/744/27 331/745/27
f 331/746/17 269/747/17 270/748/17 332/749/17
f 326/750/29 289/751/29 265/752/29 327/753/29
f 327/754/18 265/755/18 267/756/18 328/757/18
f 318/758/31 299/180/31 275/759/31 319/760/31
f 319/761/15 275/762/15 276/763/15 320/764/15
f 322/765/33 296/766/33 272/767/33 323/270/33
f 323/768/16 272/769/16 273/770/16 324/771/16
f 333/772/13 335/773/13 336/774/13
f 336/774/13 335/773/13 337/775/13
f 337/775/13 335/773/13 334/776/13
f 338/777/13 340/778/13 341/779/13
f 341/779/13 340/778/13 342/780/13
f 342/780/13 340/778/13 339/781/13
f 343/782/13 345/783/13 346/784/13
f 346/784/13 345/783/13 347/785/13
f 347/785/13 345/783/13 344/786/13
f 348/787/13 350/788/13 351/789/13
f 351/789/13 350/788/13 352/790/13
f 352/790/13 350/788/13 349/791/13
f 353/792/13 355/793/13 356/794/13
f 356/794/13 355/793/13 357/795/13
f 357/795/13 355/793/13 354/796/13
f 358/797/13 360/798/13 361/799/13
f 361/799/13 360/798/13 362/800/13
f 362/800/13 360/798/13 359/801/13
f 363/802/13 365/803/13 366/804/13
f 366/804/13 365/803/13 367/805/13
f 367/805/13 365/803/13 364/806/13
f 368/807/13 370/808/13 371/809/13
f 371/809/13 370/808/13 372/810/13
f 372/810/13 370/808/13 369/811/13
f 373/812/13 375/813/13 376/814/13
f 376/814/13 375/813/13 377/815/13
f 377/815/13 375/813/13 374/816/13
f 378/322/13 380/817/13 381/818/13
f 381/818/13 380/817/13 382/819/13
f 382/819/13 380/817/13 379/820/13
f 383/821/13 385/822/13 386/823/13
f 386/823/13 385/822/13 387/824/13
f 387/824/13 385/822/13 384/825/13
f 388/826/13 390/827/13 391/828/13
f 391/828/13 390/827/13 392/829/13
f 392/829/13 390/827/13 389/336/13
f 393/830/13 395/831/13 396/832/13
f 396/832/13 395/831/13 397/833/13
f 397/833/13 395/831/13 394/834/13
f 398/835/13 400/836/13 401/837/13
f 401/837/13 400/836/13 402/838/13
f 402/838/13 400/836/13 399/839/13
f 403/840/13 405/841/13 406/842/13
f 406/842/13 405/841/13 407/843/13
f 407/843/13 405/841/13 404/844/13
f 408/845/13 410/846/13 411/847/13
f 411/847/13 410/846/13 412/848/13
f 412/848/13 410/846/13 409/849/13
f 413/850/13 415/851/13 416/852/13
f 416/852/13 415/851/13 417/853/13
f 417/853/13 415/851/13 414/854/13
f 418/855/13 420/856/13 421/857/13
f 421/857/13 420/856/13 422/858/13
f 422/858/13 420/856/13 419/859/13
f 423/860/13 425/861/13 426/862/13
f 426/862/13 425/861/13 427/863/13
f 427/863/13 425/861/13 424/864/13
f 428/865/13 430/866/13 431/867/13
f 431/867/13 430/866/13 432/868/13
f 432/868/13 430/866/13 429/869/13
f 338/870/35 341/871/4 392/872/4 389/873/35
f 341/871/4 342/874/5 391/875/5 392/872/4
f 342/874/5 339/876/36 388/877/36 391/875/5
f 383/878/37 386/879/8 337/880/8 334/881/37
f 386/879/8 387/882/7 336/883/7 337/880/8
f 387/882/7 384/884/38 333/885/38 336/883/7
f 373/886/39 376/887/10 352/888/10 349/889/39
f 376/890/10 377/891/9 351/892/9 352/893/10
f 377/891/9 374/894/40 348/895/40 351/892/9
f 343/896/41 346/897/11 382/898/11 379/899/41
f 346/897/11 347/877/12 381/900/12 382/898/11
f 347/901/12 344/902/42 378/903/42 381/904/12
f 368/905/40 371/906/9 432/907/9 429/908/40
f 371/906/9 372/909/10 431/910/10 432/907/9
f 372/911/10 369/912/39 428/913/39 431/914/10
f 423/915/42 426/916/12 367/917/12 364/918/42
f 426/919/12 427/920/11 366/921/11 367/922/12
f 427/920/11 424/923/41 363/924/41 366/921/11
f 413/925/36 416/926/5 357/927/5 354/928/36
f 416/926/5 417/929/4 356/930/4 357/927/5
f 417/929/4 414/931/35 353/932/35 356/930/4
f 358/933/38 361/934/7 422/935/7 419/936/38
f 361/934/7 362/937/8 421/938/8 422/935/7
f 362/937/8 359/939/37 418/499/37 421/938/8
f 398/449/41 401/452/11 440/940/11 438/941/41
f 401/452/11 402/454/12 439/942/12 440/940/11
f 402/455/12 399/458/42 437/943/42 439/944/12
f 445/945/36 447/946/5 412/461/5 409/460/36
f 447/946/5 448/947/4 411/463/4 412/461/5
f 448/947/4 446/948/35 408/465/35 411/463/4
f 393/949/40 396/950/9 436/951/9 434/952/40
f 396/950/9 397/953/10 435/954/10 436/951/9
f 397/473/10 394/476/39 433/955/39 435/956/10
f 441/957/37 443/958/8 407/959/8 404/960/37
f 443/958/8 444/961/7 406/962/7 407/959/8
f 444/961/7 442/963/38 403/964/38 406/962/7
f 348/895/40 374/894/40 383/965/37 334/966/37
f 335/773/13 227/967/13 225/968/13 350/788/13 348/787/13 334/776/13
f 333/885/38 384/884/38 388/969/36 339/970/36
f 340/778/13 228/491/13 227/967/13 335/773/13 333/772/13 339/781/13
f 338/870/35 389/873/35 378/903/42 344/902/42
f 345/783/13 226/492/13 228/491/13 340/778/13 338/777/13 344/786/13
f 343/896/41 379/899/41 373/886/39 349/889/39
f 350/788/13 225/968/13 226/492/13 345/783/13 343/782/13 349/791/13
f 358/933/38 419/936/38 413/971/36 354/972/36
f 355/793/13 375/813/13 373/812/13 379/820/13 380/817/13 360/798/13 358/797/13 354/796/13
f 353/932/35 414/931/35 423/915/42 364/918/42
f 365/803/13 385/822/13 383/821/13 374/816/13 375/813/13 355/793/13 353/792/13 364/806/13
f 360/798/13 380/817/13 378/322/13 389/336/13 390/827/13 370/808/13 368/807/13 359/801/13
f 368/905/40 429/908/40 418/973/37 359/974/37
f 363/924/41 424/923/41 428/913/39 369/912/39
f 370/808/13 390/827/13 388/826/13 384/825/13 385/822/13 365/803/13 363/802/13 369/811/13
f 398/449/41 438/941/41 433/955/39 394/476/39
f 395/831/13 415/851/13 413/850/13 419/859/13 420/856/13 400/836/13 398/835/13 394/834/13
f 393/949/40 434/952/40 441/975/37 404/976/37
f 405/841/13 425/861/13 423/860/13 414/854/13 415/851/13 395/831/13 393/830/13 404/844/13
f 400/836/13 420/856/13 418/855/13 429/869/13 430/866/13 410/846/13 408/845/13 399/839/13
f 408/465/35 446/948/35 437/943/42 399/458/42
f 403/964/38 442/963/38 445/977/36 409/978/36
f 410/846/13 430/866/13 428/865/13 424/864/13 425/861/13 405/841/13 403/840/13 409/849/13
f 437/979/13 446/980/13 448/981/13 447/982/13 445/317/13 442/983/13 444/984/13 443/985/13 441/986/13 434/987/13 436/988/13 435/989/13 433/990/13 438/991/13 440/992/13 439/993/13
f 226/994/6 225/995/6 1/996/6 2/997/6
