# Blender 5.0.1
# www.blender.org
mtllib wall_cabinet.mtl
o wall_cabinet
v 0.250000 0.487650 -0.485000
v 0.250000 0.012350 -0.485000
v -0.250000 0.500000 -0.500000
v -0.250000 0.000000 -0.500000
v 0.250000 0.500000 0.000000
v 0.250000 0.000000 0.000000
v 0.250000 0.500000 -0.500000
v 0.250000 0.000000 -0.500000
v -0.100000 0.487650 -0.015000
v 0.250000 0.012350 -0.015000
v 0.250000 0.487650 -0.015000
v -0.100000 0.012350 -0.015000
v -0.100000 0.487650 -0.485000
v -0.100000 0.012350 -0.485000
v 0.241250 0.487650 -0.015000
v 0.241250 0.487650 -0.485000
v 0.241250 0.012350 -0.485000
v 0.241250 0.012350 -0.015000
v 0.250000 0.487650 0.485000
v 0.250000 0.012350 0.485000
v -0.250000 0.500000 0.500000
v -0.250000 0.000000 0.500000
v 0.250000 0.500000 0.500000
v 0.250000 0.000000 0.500000
v -0.100000 0.487650 0.015000
v 0.250000 0.012350 0.015000
v 0.250000 0.487650 0.015000
v -0.100000 0.012350 0.015000
v -0.100000 0.487650 0.485000
v -0.100000 0.012350 0.485000
v 0.241250 0.487650 0.015000
v 0.241250 0.487650 0.485000
v 0.241250 0.012350 0.485000
v 0.241250 0.012350 0.015000
v -0.250000 0.500000 0.000000
v -0.250000 0.000000 0.000000
vn -0.0000 1.0000 -0.0000
vn -0.0000 -0.0000 -1.0000
vn -0.0000 -1.0000 -0.0000
vn -1.0000 -0.0000 -0.0000
vn 1.0000 -0.0000 -0.0000
vn -0.0000 -0.0000 1.0000
vt 0.120740 0.026793
vt 0.219959 0.026793
vt 0.219959 0.225231
vt 0.120740 0.225231
vt 0.418398 0.225231
vt 0.219959 0.225231
vt 0.219959 0.026793
vt 0.418398 0.026793
vt 0.313225 0.747739
vt 0.219959 0.747739
vt 0.219959 0.612305
vt 0.313225 0.612305
vt 0.418398 0.324451
vt 0.418398 0.423670
vt 0.219959 0.423670
vt 0.219959 0.324450
vt 0.616836 0.126012
vt 0.611934 0.128989
vt 0.423299 0.128989
vt 0.418398 0.126012
vt 0.423299 0.222255
vt 0.611934 0.222255
vt 0.616836 0.225231
vt 0.557304 0.602502
vt 0.557304 0.413867
vt 0.650570 0.413867
vt 0.650570 0.602502
vt 0.421870 0.413867
vt 0.421870 0.225231
vt 0.557304 0.225231
vt 0.557304 0.413867
vt 0.553832 0.413867
vt 0.553832 0.602502
vt 0.418398 0.602502
vt 0.418398 0.413867
vt 0.021521 0.625580
vt 0.114787 0.625580
vt 0.114787 0.761015
vt 0.021521 0.761015
vt 0.021521 0.622108
vt 0.114787 0.622108
vt 0.418398 0.413867
vt 0.313225 0.751212
vt 0.219959 0.751212
vt 0.219959 0.423670
vt 0.219959 0.622108
vt 0.021521 0.423670
vt 0.114787 0.757542
vt 0.208053 0.622108
vt 0.208053 0.757542
vt 0.423299 0.029770
vt 0.616836 0.026793
vt 0.611934 0.029770
vt 0.611934 0.123036
vt 0.423299 0.123036
vt 0.710102 0.215429
vt 0.616836 0.215429
vt 0.710102 0.026793
vt 0.355393 0.612305
vt 0.219959 0.423670
vt 0.355393 0.423670
vt 0.560777 0.225231
vt 0.696211 0.225231
vt 0.696211 0.413867
vt 0.560777 0.413867
vt 0.406491 0.615778
vt 0.406491 0.751212
vt 0.313225 0.751212
vt 0.313225 0.615778
vt 0.406491 0.612305
vt 0.313225 0.612305
vt 0.358866 0.612305
vt 0.358866 0.423670
vt 0.208053 0.761015
vt 0.120740 0.225231
vt 0.219959 0.225231
vt 0.219959 0.423670
vt 0.120740 0.423670
vt 0.418398 0.225231
vt 0.021521 0.026793
vt 0.021521 0.225231
vt 0.021521 0.225231
vt 0.021521 0.423670
s 0
usemtl wall_cabinet
f 5/1/1 7/2/1 3/3/1 35/4/1
f 4/5/2 3/6/2 7/7/2 8/8/2
f 16/9/3 15/10/3 9/11/3 13/12/3
f 36/13/4 22/14/4 21/15/4 35/16/4
f 6/17/5 10/18/5 11/19/5 5/20/5
f 1/21/5 2/22/5 8/23/5 7/5/5
f 2/22/5 10/18/5 6/17/5 8/23/5
f 11/19/5 1/21/5 7/5/5 5/20/5
f 14/24/5 13/25/5 9/26/5 12/27/5
f 17/28/6 16/29/6 13/30/6 14/31/6
f 15/32/2 18/33/2 12/34/2 9/35/2
f 18/36/1 17/37/1 14/38/1 12/39/1
f 10/40/1 2/41/1 17/37/1 18/36/1
f 11/25/2 10/24/2 18/33/2 15/32/2
f 2/42/6 1/5/6 16/29/6 17/28/6
f 1/43/3 11/44/3 15/10/3 16/9/3
f 22/45/6 24/46/6 23/40/6 21/47/6
f 32/48/3 29/41/3 25/49/3 31/50/3
f 19/51/5 23/8/5 24/52/5 20/53/5
f 20/53/5 24/52/5 6/17/5 26/54/5
f 27/55/5 5/20/5 23/8/5 19/51/5
f 30/56/5 28/57/5 25/52/5 29/58/5
f 33/59/2 30/11/2 29/60/2 32/61/2
f 31/62/6 25/63/6 28/64/6 34/65/6
f 34/66/1 28/67/1 30/68/1 33/69/1
f 26/70/1 34/66/1 33/69/1 20/71/1
f 27/30/6 31/62/6 34/65/6 26/31/6
f 20/72/2 33/59/2 32/61/2 19/73/2
f 19/38/3 32/48/3 31/50/3 27/74/3
f 36/75/3 4/76/3 8/77/3 6/78/3
f 26/54/5 6/17/5 5/20/5 27/55/5
f 4/79/4 36/13/4 35/16/4 3/6/4
f 23/80/1 5/1/1 35/4/1 21/81/1
f 22/82/3 36/75/3 6/78/3 24/83/3
o hatch_1
v 0.250000 0.433010 0.435000
v 0.250000 0.066990 0.435000
v 0.250000 0.066990 0.065000
v 0.250000 0.433010 0.065000
v 0.241250 0.487650 0.015000
v 0.241250 0.487650 0.485000
v 0.241250 0.012350 0.485000
v 0.241250 0.012350 0.015000
v 0.250000 0.487650 0.015000
v 0.250000 0.012350 0.015000
v 0.250000 0.487650 0.485000
v 0.250000 0.012350 0.485000
v 0.250000 0.448135 0.050000
v 0.250000 0.051865 0.050000
v 0.250000 0.448135 0.450000
v 0.250000 0.051865 0.450000
v 0.242500 0.448135 0.050000
v 0.242500 0.051865 0.050000
v 0.242500 0.448135 0.450000
v 0.242500 0.051865 0.450000
v 0.242500 0.433010 0.065000
v 0.242500 0.066990 0.065000
v 0.242500 0.433010 0.435000
v 0.242500 0.066990 0.435000
v 0.267248 0.216049 0.027700
v 0.267248 0.216049 0.037300
v 0.257648 0.216049 0.027700
v 0.257648 0.216049 0.037300
v 0.266815 0.211763 0.027700
v 0.266815 0.211763 0.037300
v 0.257456 0.214149 0.027700
v 0.257456 0.214149 0.037300
v 0.265540 0.207691 0.027700
v 0.265540 0.207691 0.037300
v 0.256890 0.212343 0.027700
v 0.256890 0.212343 0.037300
v 0.263485 0.204039 0.027700
v 0.263485 0.204039 0.037300
v 0.255979 0.210724 0.027700
v 0.255979 0.210724 0.037300
v 0.260754 0.200989 0.027700
v 0.260754 0.200989 0.037300
v 0.254768 0.209371 0.027700
v 0.254768 0.209371 0.037300
v 0.257484 0.198694 0.027700
v 0.257484 0.198694 0.037300
v 0.253318 0.208354 0.027700
v 0.253318 0.208354 0.037300
v 0.253838 0.197270 0.027700
v 0.253838 0.197270 0.037300
v 0.251702 0.207722 0.027700
v 0.251702 0.207722 0.037300
v 0.250000 0.196787 0.027700
v 0.250000 0.196787 0.037300
v 0.250000 0.207508 0.027700
v 0.250000 0.207508 0.037300
v 0.267248 0.283951 0.027700
v 0.267248 0.283951 0.037300
v 0.257648 0.283951 0.027700
v 0.257648 0.283951 0.037300
v 0.266815 0.288237 0.027700
v 0.266815 0.288237 0.037300
v 0.257456 0.285851 0.027700
v 0.257456 0.285851 0.037300
v 0.265540 0.292309 0.027700
v 0.265540 0.292309 0.037300
v 0.256890 0.287657 0.027700
v 0.256890 0.287657 0.037300
v 0.263485 0.295961 0.027700
v 0.263485 0.295961 0.037300
v 0.255979 0.289276 0.027700
v 0.255979 0.289276 0.037300
v 0.260754 0.299011 0.027700
v 0.260754 0.299011 0.037300
v 0.254768 0.290629 0.027700
v 0.254768 0.290629 0.037300
v 0.257484 0.301306 0.027700
v 0.257484 0.301306 0.037300
v 0.253318 0.291646 0.027700
v 0.253318 0.291646 0.037300
v 0.253838 0.302730 0.027700
v 0.253838 0.302730 0.037300
v 0.251702 0.292278 0.027700
v 0.251702 0.292278 0.037300
v 0.250000 0.303213 0.027700
v 0.250000 0.303213 0.037300
v 0.250000 0.292492 0.027700
v 0.250000 0.292492 0.037300
vn -1.0000 -0.0000 -0.0000
vn 1.0000 -0.0000 -0.0000
vn -0.0000 -0.0000 -1.0000
vn -0.0000 1.0000 -0.0000
vn -0.0000 -0.0000 1.0000
vn -0.0000 -1.0000 -0.0000
vn -0.9987 0.0503 -0.0000
vn -0.9796 0.2007 -0.0000
vn -0.9987 -0.0503 -0.0000
vn 0.9987 -0.0503 -0.0000
vn 0.9987 0.0503 -0.0000
vn 0.9796 -0.2007 -0.0000
vn -0.9179 0.3968 -0.0000
vn 0.9179 -0.3968 -0.0000
vn -0.8131 0.5822 -0.0000
vn -0.6640 0.7477 -0.0000
vn 0.8131 -0.5822 -0.0000
vn 0.6640 -0.7477 -0.0000
vn -0.4726 0.8813 -0.0000
vn 0.4726 -0.8813 -0.0000
vn -0.2463 0.9692 -0.0000
vn -0.1249 0.9922 -0.0000
vn 0.2463 -0.9692 -0.0000
vn 0.1248 -0.9922 -0.0000
vn -0.9796 -0.2007 -0.0000
vn 0.9796 0.2007 -0.0000
vn -0.9179 -0.3968 -0.0000
vn 0.9179 0.3968 -0.0000
vn -0.8131 -0.5822 -0.0000
vn -0.6640 -0.7477 -0.0000
vn 0.8131 0.5822 -0.0000
vn 0.6640 0.7477 -0.0000
vn -0.4726 -0.8813 -0.0000
vn 0.4726 0.8813 -0.0000
vn -0.2463 -0.9692 -0.0000
vn -0.1248 -0.9922 -0.0000
vn 0.2463 0.9692 -0.0000
vn 0.1248 0.9922 -0.0000
vt 0.650570 0.602502
vt 0.650570 0.413867
vt 0.743836 0.413867
vt 0.743836 0.602502
vt 0.710102 0.026793
vt 0.783524 0.026793
vt 0.783524 0.172058
vt 0.710102 0.172058
vt 0.362339 0.423670
vt 0.362339 0.612305
vt 0.358866 0.612305
vt 0.358866 0.423670
vt 0.400042 0.423670
vt 0.400042 0.516935
vt 0.396569 0.516935
vt 0.396569 0.423670
vt 0.365811 0.612305
vt 0.365811 0.423670
vt 0.369284 0.423670
vt 0.369284 0.612305
vt 0.400042 0.516935
vt 0.400042 0.423670
vt 0.403515 0.423670
vt 0.403515 0.516935
vt 0.425343 0.775455
vt 0.418398 0.791137
vt 0.418398 0.602502
vt 0.425343 0.618185
vt 0.504718 0.618185
vt 0.511664 0.602502
vt 0.511664 0.791137
vt 0.504718 0.775455
vt 0.387640 0.568934
vt 0.384663 0.568934
vt 0.384663 0.423670
vt 0.387640 0.423670
vt 0.406987 0.596311
vt 0.409964 0.596311
vt 0.409964 0.669733
vt 0.406987 0.669733
vt 0.375733 0.580940
vt 0.372757 0.580940
vt 0.372757 0.423670
vt 0.375733 0.423670
vt 0.406987 0.516936
vt 0.409964 0.516936
vt 0.699188 0.376499
vt 0.696211 0.382502
vt 0.696211 0.225231
vt 0.699188 0.231234
vt 0.772610 0.231234
vt 0.775586 0.225231
vt 0.775586 0.382502
vt 0.772610 0.376499
vt 0.406987 0.596311
vt 0.404011 0.596311
vt 0.404011 0.516936
vt 0.406987 0.516936
vt 0.211030 0.695530
vt 0.208053 0.695530
vt 0.208053 0.622108
vt 0.211030 0.622108
vt 0.375733 0.423670
vt 0.378710 0.423670
vt 0.378710 0.580940
vt 0.375733 0.580940
vt 0.390616 0.423670
vt 0.390616 0.568934
vt 0.956798 0.979384
vt 0.959192 0.979384
vt 0.959192 0.980332
vt 0.956798 0.980332
vt 0.959192 0.945518
vt 0.956798 0.945518
vt 0.974254 0.781507
vt 0.979042 0.781507
vt 0.979042 0.815373
vt 0.974254 0.815373
vt 0.977921 0.972519
vt 0.977921 0.938653
vt 0.980315 0.938653
vt 0.980315 0.972519
vt 0.970655 0.870592
vt 0.975323 0.869402
vt 0.975606 0.870302
vt 0.971292 0.872622
vt 0.980315 0.974657
vt 0.977921 0.974657
vt 0.970440 0.868454
vt 0.975228 0.868454
vt 0.978826 0.817511
vt 0.974158 0.816321
vt 0.976060 0.871110
vt 0.972317 0.874444
vt 0.978190 0.819542
vt 0.973876 0.817222
vt 0.959192 0.981233
vt 0.956798 0.981233
vt 0.980315 0.976687
vt 0.977921 0.976687
vt 0.956798 0.982040
vt 0.959192 0.982040
vt 0.959192 0.982715
vt 0.956798 0.982715
vt 0.977165 0.821363
vt 0.973422 0.818029
vt 0.980315 0.978509
vt 0.977921 0.978509
vt 0.973679 0.875965
vt 0.976664 0.871784
vt 0.977387 0.872292
vt 0.975310 0.877110
vt 0.980315 0.980030
vt 0.977921 0.980030
vt 0.975803 0.822885
vt 0.972818 0.818704
vt 0.972095 0.819211
vt 0.974172 0.824029
vt 0.972354 0.824740
vt 0.971289 0.819526
vt 0.942793 0.959817
vt 0.942793 0.962211
vt 0.942070 0.962211
vt 0.942070 0.959817
vt 0.945203 0.959817
vt 0.942809 0.959817
vt 0.942809 0.958186
vt 0.945203 0.958186
vt 0.941263 0.959817
vt 0.941263 0.962211
vt 0.940415 0.962211
vt 0.940415 0.959817
vt 0.942809 0.956368
vt 0.945203 0.956368
vt 0.978193 0.872607
vt 0.977128 0.877820
vt 0.947597 0.959800
vt 0.945203 0.959800
vt 0.945203 0.954453
vt 0.947597 0.954453
vt 0.942809 0.954453
vt 0.945203 0.954453
vt 0.979042 0.872714
vt 0.979042 0.878061
vt 0.970440 0.824981
vt 0.970440 0.819633
vt 0.956798 0.944570
vt 0.959192 0.944570
vt 0.970655 0.832450
vt 0.971292 0.830419
vt 0.975606 0.832739
vt 0.975323 0.833640
vt 0.977921 0.936515
vt 0.980315 0.936515
vt 0.970440 0.834588
vt 0.975228 0.834588
vt 0.974158 0.780559
vt 0.978826 0.779369
vt 0.972317 0.828598
vt 0.976060 0.831932
vt 0.973876 0.779659
vt 0.978190 0.777339
vt 0.956798 0.943670
vt 0.959192 0.943670
vt 0.977921 0.934484
vt 0.980315 0.934484
vt 0.956798 0.942862
vt 0.956798 0.942188
vt 0.959192 0.942188
vt 0.959192 0.942862
vt 0.973422 0.778851
vt 0.977165 0.775517
vt 0.977921 0.932663
vt 0.980315 0.932663
vt 0.973679 0.827077
vt 0.975310 0.825932
vt 0.977387 0.830750
vt 0.976664 0.831257
vt 0.977921 0.931142
vt 0.980315 0.931142
vt 0.972818 0.778177
vt 0.975803 0.773996
vt 0.972095 0.777669
vt 0.971289 0.777354
vt 0.972354 0.772141
vt 0.974172 0.772851
vt 0.938037 0.959817
vt 0.938760 0.959817
vt 0.938760 0.962211
vt 0.938037 0.962211
vt 0.942809 0.956084
vt 0.940415 0.956084
vt 0.940415 0.954453
vt 0.939566 0.959817
vt 0.939566 0.962211
vt 0.942809 0.957903
vt 0.940415 0.957903
vt 0.977128 0.825221
vt 0.978193 0.830435
vt 0.950589 0.954453
vt 0.950589 0.959801
vt 0.948195 0.959801
vt 0.948195 0.954453
vt 0.979042 0.824981
vt 0.979042 0.830328
vt 0.970440 0.777247
vt 0.970440 0.771900
s 0
usemtl wall_cabinet
f 43/84/7 42/85/7 41/86/7 44/87/7
f 40/88/8 37/89/8 38/90/8 39/91/8
f 45/92/9 46/93/9 44/94/9 41/95/9
f 47/96/10 45/97/10 41/98/10 42/99/10
f 48/100/11 47/101/11 42/102/11 43/103/11
f 46/104/12 48/105/12 43/106/12 44/107/12
f 50/108/8 46/109/8 45/110/8 49/111/8
f 51/112/8 47/113/8 48/114/8 52/115/8
f 52/115/8 48/114/8 46/109/8 50/108/8
f 49/111/8 45/110/8 47/113/8 51/112/8
f 39/116/9 58/117/9 57/118/9 40/119/9
f 38/120/12 60/121/12 58/122/12 39/123/12
f 52/124/9 56/125/9 55/126/9 51/127/9
f 51/128/12 55/129/12 53/121/12 49/120/12
f 58/130/8 54/131/8 53/132/8 57/133/8
f 59/134/8 55/135/8 56/136/8 60/137/8
f 60/137/8 56/136/8 54/131/8 58/130/8
f 57/133/8 53/132/8 55/135/8 59/134/8
f 50/138/10 54/139/10 56/140/10 52/141/10
f 40/142/10 57/143/10 59/144/10 37/145/10
f 49/146/11 53/147/11 54/148/11 50/149/11
f 37/119/11 59/150/11 60/151/11 38/116/11
s 1
f 64/152/13 63/153/13 67/154/14 68/155/14
f 95/156/15 63/153/13 64/152/13 96/157/15
f 95/158/9 93/159/9 61/160/9 63/161/9
f 61/162/16 93/163/17 94/164/17 62/165/16
f 66/166/11 68/167/11 72/168/11 70/169/11
f 61/162/16 62/165/16 66/170/18 65/171/18
f 62/172/11 64/173/11 68/167/11 66/166/11
f 63/161/9 61/160/9 65/174/9 67/175/9
f 70/169/11 72/168/11 76/176/11 74/177/11
f 67/175/9 65/174/9 69/178/9 71/179/9
f 68/155/14 67/154/14 71/180/19 72/181/19
f 65/171/18 66/170/18 70/182/20 69/183/20
f 76/184/21 75/185/21 79/186/22 80/187/22
f 71/179/9 69/178/9 73/188/9 75/189/9
f 72/181/19 71/180/19 75/185/21 76/184/21
f 69/183/20 70/182/20 74/190/23 73/191/23
f 78/192/11 80/193/11 84/194/11 82/195/11
f 73/191/23 74/190/23 78/196/24 77/197/24
f 74/177/11 76/176/11 80/193/11 78/192/11
f 75/189/9 73/188/9 77/198/9 79/199/9
f 83/200/9 81/201/9 85/202/9 87/203/9
f 79/199/9 77/198/9 81/201/9 83/200/9
f 80/204/22 79/205/22 83/206/25 84/207/25
f 77/208/24 78/209/24 82/210/26 81/211/26
f 88/212/27 87/213/27 91/214/28 92/215/28
f 84/207/25 83/206/25 87/213/27 88/212/27
f 81/211/26 82/210/26 86/216/29 85/217/29
f 82/195/11 84/194/11 88/218/11 86/219/11
f 89/220/7 90/221/7 92/222/7 91/223/7
f 85/217/29 86/216/29 90/224/30 89/225/30
f 86/219/11 88/218/11 92/226/11 90/227/11
f 87/203/9 85/202/9 89/228/9 91/229/9
f 96/157/15 100/230/31 99/231/31 95/156/15
f 98/232/11 102/233/11 104/234/11 100/235/11
f 93/163/17 97/236/32 98/237/32 94/164/17
f 94/238/11 98/232/11 100/235/11 96/239/11
f 95/158/9 99/240/9 97/241/9 93/159/9
f 102/233/11 106/242/11 108/243/11 104/234/11
f 99/240/9 103/244/9 101/245/9 97/241/9
f 100/230/31 104/246/33 103/247/33 99/231/31
f 97/236/32 101/248/34 102/249/34 98/237/32
f 108/250/35 112/251/36 111/252/36 107/253/35
f 103/244/9 107/254/9 105/255/9 101/245/9
f 104/246/33 108/250/35 107/253/35 103/247/33
f 101/248/34 105/256/37 106/257/37 102/249/34
f 110/258/11 114/259/11 116/260/11 112/261/11
f 105/256/37 109/262/38 110/263/38 106/257/37
f 106/242/11 110/258/11 112/261/11 108/243/11
f 107/254/9 111/264/9 109/265/9 105/255/9
f 115/266/9 119/267/9 117/268/9 113/269/9
f 111/264/9 115/266/9 113/269/9 109/265/9
f 112/270/36 116/271/39 115/272/39 111/273/36
f 109/224/38 113/274/40 114/275/40 110/276/38
f 120/277/41 124/215/42 123/214/42 119/278/41
f 116/271/39 120/277/41 119/278/41 115/272/39
f 113/274/40 117/279/43 118/280/43 114/275/40
f 114/259/11 118/281/11 120/282/11 116/260/11
f 121/283/7 123/284/7 124/285/7 122/286/7
f 117/279/43 121/209/44 122/215/44 118/280/43
f 118/281/11 122/287/11 124/288/11 120/282/11
f 119/267/9 123/289/9 121/290/9 117/268/9
f 62/172/11 94/238/11 96/239/11 64/173/11
o hatch_2
v 0.250000 0.433010 -0.435000
v 0.250000 0.066990 -0.435000
v 0.250000 0.066990 -0.065000
v 0.250000 0.433010 -0.065000
v 0.241250 0.487650 -0.015000
v 0.241250 0.487650 -0.485000
v 0.241250 0.012350 -0.485000
v 0.241250 0.012350 -0.015000
v 0.250000 0.487650 -0.015000
v 0.250000 0.012350 -0.015000
v 0.250000 0.487650 -0.485000
v 0.250000 0.012350 -0.485000
v 0.250000 0.448135 -0.050000
v 0.250000 0.051865 -0.050000
v 0.250000 0.448135 -0.450000
v 0.250000 0.051865 -0.450000
v 0.242500 0.448135 -0.050000
v 0.242500 0.051865 -0.050000
v 0.242500 0.448135 -0.450000
v 0.242500 0.051865 -0.450000
v 0.242500 0.433010 -0.065000
v 0.242500 0.066990 -0.065000
v 0.242500 0.433010 -0.435000
v 0.242500 0.066990 -0.435000
v 0.267248 0.216049 -0.027700
v 0.267248 0.216049 -0.037300
v 0.257648 0.216049 -0.027700
v 0.257648 0.216049 -0.037300
v 0.266815 0.211763 -0.027700
v 0.266815 0.211763 -0.037300
v 0.257456 0.214149 -0.027700
v 0.257456 0.214149 -0.037300
v 0.265540 0.207691 -0.027700
v 0.265540 0.207691 -0.037300
v 0.256890 0.212343 -0.027700
v 0.256890 0.212343 -0.037300
v 0.263485 0.204039 -0.027700
v 0.263485 0.204039 -0.037300
v 0.255979 0.210724 -0.027700
v 0.255979 0.210724 -0.037300
v 0.260754 0.200989 -0.027700
v 0.260754 0.200989 -0.037300
v 0.254768 0.209371 -0.027700
v 0.254768 0.209371 -0.037300
v 0.257484 0.198694 -0.027700
v 0.257484 0.198694 -0.037300
v 0.253318 0.208354 -0.027700
v 0.253318 0.208354 -0.037300
v 0.253838 0.197270 -0.027700
v 0.253838 0.197270 -0.037300
v 0.251702 0.207722 -0.027700
v 0.251702 0.207722 -0.037300
v 0.250000 0.196787 -0.027700
v 0.250000 0.196787 -0.037300
v 0.250000 0.207508 -0.027700
v 0.250000 0.207508 -0.037300
v 0.267248 0.283951 -0.027700
v 0.267248 0.283951 -0.037300
v 0.257648 0.283951 -0.027700
v 0.257648 0.283951 -0.037300
v 0.266815 0.288237 -0.027700
v 0.266815 0.288237 -0.037300
v 0.257456 0.285851 -0.027700
v 0.257456 0.285851 -0.037300
v 0.265540 0.292309 -0.027700
v 0.265540 0.292309 -0.037300
v 0.256890 0.287657 -0.027700
v 0.256890 0.287657 -0.037300
v 0.263485 0.295961 -0.027700
v 0.263485 0.295961 -0.037300
v 0.255979 0.289276 -0.027700
v 0.255979 0.289276 -0.037300
v 0.260754 0.299011 -0.027700
v 0.260754 0.299011 -0.037300
v 0.254768 0.290629 -0.027700
v 0.254768 0.290629 -0.037300
v 0.257484 0.301306 -0.027700
v 0.257484 0.301306 -0.037300
v 0.253318 0.291646 -0.027700
v 0.253318 0.291646 -0.037300
v 0.253838 0.302730 -0.027700
v 0.253838 0.302730 -0.037300
v 0.251702 0.292278 -0.027700
v 0.251702 0.292278 -0.037300
v 0.250000 0.303213 -0.027700
v 0.250000 0.303213 -0.037300
v 0.250000 0.292492 -0.027700
v 0.250000 0.292492 -0.037300
vn -1.0000 -0.0000 -0.0000
vn 1.0000 -0.0000 -0.0000
vn -0.0000 -0.0000 1.0000
vn -0.0000 1.0000 -0.0000
vn -0.0000 -0.0000 -1.0000
vn -0.0000 -1.0000 -0.0000
vn -0.9987 0.0503 -0.0000
vn -0.9796 0.2007 -0.0000
vn -0.9987 -0.0503 -0.0000
vn 0.9987 -0.0503 -0.0000
vn 0.9987 0.0503 -0.0000
vn 0.9796 -0.2007 -0.0000
vn -0.9179 0.3968 -0.0000
vn 0.9179 -0.3968 -0.0000
vn -0.8131 0.5822 -0.0000
vn -0.6640 0.7477 -0.0000
vn 0.8131 -0.5822 -0.0000
vn 0.6640 -0.7477 -0.0000
vn -0.4726 0.8813 -0.0000
vn 0.4726 -0.8813 -0.0000
vn -0.2463 0.9692 -0.0000
vn -0.1249 0.9922 -0.0000
vn 0.2463 -0.9692 -0.0000
vn 0.1248 -0.9922 -0.0000
vn -0.9796 -0.2007 -0.0000
vn 0.9796 0.2007 -0.0000
vn -0.9179 -0.3968 -0.0000
vn 0.9179 0.3968 -0.0000
vn -0.8131 -0.5822 -0.0000
vn -0.6640 -0.7477 -0.0000
vn 0.8131 0.5822 -0.0000
vn 0.6640 0.7477 -0.0000
vn -0.4726 -0.8813 -0.0000
vn 0.4726 0.8813 -0.0000
vn -0.2463 -0.9692 -0.0000
vn -0.1248 -0.9922 -0.0000
vn 0.2463 0.9692 -0.0000
vn 0.1248 0.9922 -0.0000
vt 0.604929 0.791137
vt 0.511664 0.791137
vt 0.511664 0.602502
vt 0.604929 0.602502
vt 0.817258 0.413867
vt 0.817258 0.559131
vt 0.743836 0.559131
vt 0.743836 0.413867
vt 0.362339 0.423670
vt 0.365811 0.423670
vt 0.365811 0.612305
vt 0.362339 0.612305
vt 0.406987 0.516936
vt 0.403515 0.516936
vt 0.403515 0.423670
vt 0.406987 0.423670
vt 0.372757 0.612305
vt 0.369284 0.612305
vt 0.369284 0.423670
vt 0.372757 0.423670
vt 0.406987 0.423670
vt 0.410460 0.423670
vt 0.410460 0.516936
vt 0.406987 0.516936
vt 0.691250 0.775455
vt 0.691250 0.618185
vt 0.698195 0.602502
vt 0.698195 0.791137
vt 0.611875 0.618185
vt 0.611875 0.775455
vt 0.390616 0.568934
vt 0.390616 0.423670
vt 0.393593 0.423670
vt 0.393593 0.568934
vt 0.211030 0.695530
vt 0.211030 0.622108
vt 0.214006 0.622108
vt 0.214006 0.695530
vt 0.378710 0.580940
vt 0.378710 0.423670
vt 0.381687 0.423670
vt 0.381687 0.580940
vt 0.410460 0.629759
vt 0.410460 0.550384
vt 0.413437 0.550384
vt 0.413437 0.629759
vt 0.774594 0.753769
vt 0.774594 0.608505
vt 0.777571 0.602502
vt 0.777571 0.759772
vt 0.701172 0.608505
vt 0.701172 0.753769
vt 0.698196 0.759772
vt 0.698196 0.602502
vt 0.416413 0.550384
vt 0.416413 0.629759
vt 0.216983 0.622108
vt 0.216983 0.695530
vt 0.214006 0.695530
vt 0.214006 0.622108
vt 0.384663 0.423670
vt 0.384663 0.580940
vt 0.396569 0.423670
vt 0.396569 0.568934
vt 0.955377 0.979384
vt 0.955377 0.980332
vt 0.952983 0.980332
vt 0.952983 0.979384
vt 0.952983 0.945518
vt 0.955377 0.945518
vt 0.975228 0.887668
vt 0.975228 0.921534
vt 0.970440 0.921534
vt 0.970440 0.887668
vt 0.961586 0.983565
vt 0.959192 0.983565
vt 0.959192 0.949699
vt 0.961586 0.949699
vt 0.961370 0.934718
vt 0.960734 0.936749
vt 0.956420 0.934429
vt 0.956702 0.933528
vt 0.961586 0.985703
vt 0.959192 0.985703
vt 0.961586 0.932580
vt 0.956798 0.932580
vt 0.975323 0.922482
vt 0.970655 0.923672
vt 0.959709 0.938570
vt 0.955966 0.935236
vt 0.975606 0.923383
vt 0.971292 0.925703
vt 0.955377 0.981233
vt 0.952983 0.981233
vt 0.961586 0.987733
vt 0.959192 0.987733
vt 0.955377 0.982040
vt 0.955377 0.982715
vt 0.952983 0.982715
vt 0.952983 0.982040
vt 0.976060 0.924190
vt 0.972317 0.927524
vt 0.961586 0.989555
vt 0.959192 0.989555
vt 0.958347 0.940092
vt 0.956716 0.941236
vt 0.954638 0.936418
vt 0.955362 0.935911
vt 0.961586 0.991076
vt 0.959192 0.991076
vt 0.976664 0.924865
vt 0.973679 0.929046
vt 0.977387 0.925372
vt 0.978193 0.925688
vt 0.977128 0.930901
vt 0.975310 0.930190
vt 0.945187 0.962211
vt 0.944464 0.962211
vt 0.944464 0.959817
vt 0.945187 0.959817
vt 0.950589 0.959817
vt 0.950589 0.958186
vt 0.952983 0.958186
vt 0.952983 0.959817
vt 0.943658 0.962211
vt 0.942809 0.962211
vt 0.942809 0.959817
vt 0.943658 0.959817
vt 0.950589 0.956367
vt 0.952983 0.956367
vt 0.954898 0.941947
vt 0.953832 0.936733
vt 0.948195 0.965148
vt 0.948195 0.959801
vt 0.950589 0.959801
vt 0.950589 0.965148
vt 0.950589 0.954453
vt 0.952983 0.954453
vt 0.952983 0.942188
vt 0.952983 0.936840
vt 0.979042 0.925794
vt 0.979042 0.931142
vt 0.952983 0.944570
vt 0.955377 0.944570
vt 0.961370 0.896576
vt 0.956702 0.897766
vt 0.956420 0.896866
vt 0.960734 0.894546
vt 0.959192 0.947561
vt 0.961586 0.947561
vt 0.961586 0.898714
vt 0.956798 0.898714
vt 0.970655 0.885530
vt 0.975323 0.886720
vt 0.955966 0.896058
vt 0.959709 0.892724
vt 0.971292 0.883500
vt 0.975606 0.885820
vt 0.952983 0.943670
vt 0.955377 0.943670
vt 0.959192 0.945530
vt 0.961586 0.945530
vt 0.955377 0.942862
vt 0.952983 0.942862
vt 0.955377 0.942188
vt 0.972317 0.881678
vt 0.976060 0.885012
vt 0.959192 0.943709
vt 0.961586 0.943709
vt 0.958347 0.891203
vt 0.955362 0.895384
vt 0.954638 0.894876
vt 0.956716 0.890058
vt 0.959192 0.942188
vt 0.961586 0.942188
vt 0.973679 0.880157
vt 0.976664 0.884338
vt 0.977387 0.883830
vt 0.975310 0.879013
vt 0.977128 0.878302
vt 0.978193 0.883515
vt 0.950589 0.962211
vt 0.950589 0.959817
vt 0.951313 0.959817
vt 0.951313 0.962211
vt 0.938021 0.954453
vt 0.940415 0.954453
vt 0.940415 0.956084
vt 0.938021 0.956084
vt 0.952119 0.962211
vt 0.952119 0.959817
vt 0.952968 0.959817
vt 0.952968 0.962211
vt 0.940415 0.957903
vt 0.938021 0.957903
vt 0.953832 0.894561
vt 0.954898 0.889348
vt 0.945203 0.959801
vt 0.947597 0.959801
vt 0.947597 0.965148
vt 0.945203 0.965148
vt 0.940415 0.959817
vt 0.938021 0.959817
vt 0.952983 0.894454
vt 0.952983 0.889107
vt 0.979042 0.878061
vt 0.979042 0.883408
s 0
usemtl wall_cabinet
f 131/291/45 132/292/45 129/293/45 130/294/45
f 128/295/46 127/296/46 126/297/46 125/298/46
f 133/299/47 129/300/47 132/301/47 134/302/47
f 135/303/48 130/304/48 129/305/48 133/306/48
f 136/307/49 131/308/49 130/309/49 135/310/49
f 134/311/50 132/312/50 131/313/50 136/314/50
f 138/315/46 137/316/46 133/317/46 134/318/46
f 139/319/46 140/320/46 136/291/46 135/294/46
f 140/320/46 138/315/46 134/318/46 136/291/46
f 137/316/46 139/319/46 135/294/46 133/317/46
f 127/321/47 128/322/47 145/323/47 146/324/47
f 126/325/50 127/326/50 146/327/50 148/328/50
f 140/329/47 139/330/47 143/331/47 144/332/47
f 139/333/50 137/334/50 141/335/50 143/336/50
f 146/337/46 145/338/46 141/339/46 142/340/46
f 147/341/46 148/342/46 144/343/46 143/344/46
f 148/342/46 146/337/46 142/340/46 144/343/46
f 145/338/46 147/341/46 143/344/46 141/339/46
f 138/345/48 140/346/48 144/336/48 142/335/48
f 128/347/48 125/348/48 147/349/48 145/350/48
f 137/351/49 138/352/49 142/332/49 141/331/49
f 125/353/49 126/354/49 148/324/49 147/323/49
s 1
f 152/355/51 156/356/52 155/357/52 151/358/51
f 183/359/53 184/360/53 152/355/51 151/358/51
f 183/361/47 151/362/47 149/363/47 181/364/47
f 149/365/54 150/366/54 182/367/55 181/368/55
f 154/369/49 158/370/49 160/371/49 156/372/49
f 149/365/54 153/373/56 154/374/56 150/366/54
f 150/375/49 154/369/49 156/372/49 152/376/49
f 151/362/47 155/377/47 153/378/47 149/363/47
f 158/370/49 162/379/49 164/380/49 160/371/49
f 155/377/47 159/381/47 157/382/47 153/378/47
f 156/356/52 160/383/57 159/384/57 155/357/52
f 153/373/56 157/385/58 158/386/58 154/374/56
f 164/387/59 168/388/60 167/389/60 163/390/59
f 159/381/47 163/391/47 161/392/47 157/382/47
f 160/383/57 164/387/59 163/390/59 159/384/57
f 157/385/58 161/393/61 162/394/61 158/386/58
f 166/395/49 170/396/49 172/397/49 168/398/49
f 161/393/61 165/399/62 166/400/62 162/394/61
f 162/379/49 166/395/49 168/398/49 164/380/49
f 163/391/47 167/401/47 165/402/47 161/392/47
f 171/403/47 175/404/47 173/405/47 169/406/47
f 167/401/47 171/403/47 169/406/47 165/402/47
f 168/407/60 172/408/63 171/409/63 167/410/60
f 165/411/62 169/412/64 170/413/64 166/414/62
f 176/415/65 180/416/66 179/417/66 175/418/65
f 172/408/63 176/415/65 175/418/65 171/409/63
f 169/412/64 173/419/67 174/420/67 170/413/64
f 170/396/49 174/421/49 176/422/49 172/397/49
f 177/423/45 179/424/45 180/425/45 178/426/45
f 173/419/67 177/427/68 178/428/68 174/420/67
f 174/421/49 178/429/49 180/430/49 176/422/49
f 175/404/47 179/431/47 177/432/47 173/405/47
f 184/360/53 183/359/53 187/433/69 188/434/69
f 186/435/49 188/436/49 192/437/49 190/438/49
f 181/368/55 182/367/55 186/439/70 185/440/70
f 182/441/49 184/442/49 188/436/49 186/435/49
f 183/361/47 181/364/47 185/443/47 187/444/47
f 190/438/49 192/437/49 196/445/49 194/446/49
f 187/444/47 185/443/47 189/447/47 191/448/47
f 188/434/69 187/433/69 191/449/71 192/450/71
f 185/440/70 186/439/70 190/451/72 189/452/72
f 196/453/73 195/454/73 199/429/74 200/455/74
f 191/448/47 189/447/47 193/456/47 195/457/47
f 192/450/71 191/449/71 195/454/73 196/453/73
f 189/452/72 190/451/72 194/458/75 193/459/75
f 198/460/49 200/461/49 204/462/49 202/463/49
f 193/459/75 194/458/75 198/464/76 197/465/76
f 194/446/49 196/445/49 200/461/49 198/460/49
f 195/457/47 193/456/47 197/466/47 199/467/47
f 203/468/47 201/469/47 205/470/47 207/471/47
f 199/467/47 197/466/47 201/469/47 203/468/47
f 200/472/74 199/473/74 203/474/77 204/475/77
f 197/476/76 198/477/76 202/478/78 201/479/78
f 208/480/79 207/481/79 211/482/80 212/483/80
f 204/475/77 203/474/77 207/481/79 208/480/79
f 201/479/78 202/478/78 206/484/81 205/485/81
f 202/463/49 204/462/49 208/486/49 206/487/49
f 209/488/45 210/489/45 212/490/45 211/491/45
f 205/485/81 206/484/81 210/492/82 209/493/82
f 206/487/49 208/486/49 212/494/49 210/495/49
f 207/471/47 205/470/47 209/496/47 211/497/47
f 150/375/49 152/376/49 184/442/49 182/441/49
