# Blender 4.5.4 LTS
# www.blender.org
mtllib axe.mtl
o axe
v 0.004876 -0.161594 -0.026480
v 0.012273 -0.161594 -0.018884
v 0.008574 -0.161594 -0.025463
v 0.011282 -0.161594 -0.022682
v 0.012273 -0.184861 -0.015483
v 0.004889 -0.186114 -0.023029
v 0.011284 -0.185487 -0.019256
v 0.008581 -0.185946 -0.022018
v 0.012273 -0.161594 0.005459
v 0.004876 -0.161594 0.013246
v 0.011282 -0.161594 0.009353
v 0.008574 -0.161594 0.012203
v 0.004889 -0.179485 0.016892
v 0.012273 -0.180768 0.009164
v 0.008581 -0.179657 0.015857
v 0.011284 -0.180127 0.013028
v -0.012247 -0.161594 -0.018884
v -0.004851 -0.161594 -0.026480
v -0.011256 -0.161594 -0.022682
v -0.008549 -0.161594 -0.025463
v -0.004863 -0.186114 -0.023029
v -0.012247 -0.184861 -0.015483
v -0.008555 -0.185946 -0.022018
v -0.011258 -0.185487 -0.019256
v -0.004851 -0.161594 0.013246
v -0.012247 -0.161594 0.005459
v -0.008549 -0.161594 0.012203
v -0.011256 -0.161594 0.009353
v -0.012247 -0.180768 0.009164
v -0.004863 -0.179485 0.016892
v -0.011258 -0.180127 0.013028
v -0.008555 -0.179657 0.015857
v 0.004884 -0.174001 -0.025231
v 0.012273 -0.173203 -0.017669
v 0.008578 -0.173894 -0.024218
v 0.011283 -0.173602 -0.021450
v -0.012247 -0.170571 0.007266
v -0.004858 -0.169758 0.014970
v -0.011257 -0.170165 0.011118
v -0.008553 -0.169867 0.013938
v 0.012273 -0.170571 0.007266
v 0.004884 -0.169758 0.014970
v 0.011283 -0.170165 0.011118
v 0.008578 -0.169867 0.013938
v -0.012247 -0.173203 -0.017669
v -0.004858 -0.174001 -0.025231
v -0.011257 -0.173602 -0.021450
v -0.008553 -0.173894 -0.024218
v 0.012273 -0.192587 -0.014151
v 0.004892 -0.195066 -0.021589
v 0.011284 -0.193827 -0.017870
v 0.008582 -0.194734 -0.020593
v 0.004892 -0.182471 0.016210
v 0.012273 -0.185204 0.008008
v 0.008582 -0.182837 0.015111
v 0.011284 -0.183838 0.012109
v -0.004866 -0.195066 -0.021589
v -0.012247 -0.192587 -0.014151
v -0.008557 -0.194734 -0.020593
v -0.011258 -0.193827 -0.017870
v -0.012247 -0.185204 0.008008
v -0.004866 -0.182471 0.016210
v -0.011258 -0.183838 0.012109
v -0.008557 -0.182837 0.015111
v 0.004893 -0.197466 -0.016671
v 0.012273 -0.194651 -0.009757
v 0.008583 -0.197089 -0.015745
v 0.011284 -0.196059 -0.013214
v 0.012273 -0.188891 0.004395
v 0.004893 -0.185070 0.013784
v 0.011284 -0.186980 0.009089
v 0.008583 -0.185582 0.012526
v -0.012247 -0.194651 -0.009757
v -0.004867 -0.197466 -0.016671
v -0.011258 -0.196059 -0.013214
v -0.008557 -0.197089 -0.015745
v -0.004867 -0.185070 0.013784
v -0.012247 -0.188891 0.004395
v -0.008557 -0.185582 0.012526
v -0.011258 -0.186980 0.009089
v 0.004850 -0.136016 -0.028180
v 0.012273 -0.136016 -0.020627
v 0.008561 -0.136016 -0.027168
v 0.011278 -0.136016 -0.024404
v 0.012273 -0.136016 0.000396
v 0.004850 -0.136016 0.008062
v 0.011278 -0.136016 0.004229
v 0.008561 -0.136016 0.007035
v -0.012247 -0.136016 -0.020627
v -0.004824 -0.136016 -0.028180
v -0.011253 -0.136016 -0.024404
v -0.008536 -0.136016 -0.027168
v -0.004824 -0.136016 0.008062
v -0.012247 -0.136016 0.000396
v -0.008536 -0.136016 0.007035
v -0.011253 -0.136016 0.004229
v -0.004840 -0.148805 -0.027585
v -0.012247 -0.148805 -0.020018
v -0.008543 -0.148805 -0.026571
v -0.011255 -0.148805 -0.023802
v 0.004865 -0.148805 -0.027585
v 0.012273 -0.148805 -0.020018
v 0.008569 -0.148805 -0.026571
v 0.011280 -0.148805 -0.023802
v 0.004865 -0.148805 0.010272
v 0.012273 -0.148805 0.002554
v 0.008569 -0.148805 0.009238
v 0.011280 -0.148805 0.006413
v -0.004840 -0.148805 0.010272
v -0.012247 -0.148805 0.002554
v -0.008543 -0.148805 0.009238
v -0.011255 -0.148805 0.006413
v 0.004829 -0.113496 -0.028520
v 0.012273 -0.113496 -0.020966
v 0.008551 -0.113496 -0.027508
v 0.011276 -0.113496 -0.024743
v 0.012273 -0.113496 -0.002292
v 0.004829 -0.113496 0.005343
v 0.011276 -0.113496 0.001526
v 0.008551 -0.113496 0.004320
v -0.012247 -0.113496 -0.020966
v -0.004804 -0.113496 -0.028520
v -0.011250 -0.113496 -0.024743
v -0.008525 -0.113496 -0.027508
v -0.004804 -0.113496 0.005343
v -0.012247 -0.113496 -0.002292
v -0.008525 -0.113496 0.004320
v -0.011250 -0.113496 0.001526
v 0.004802 -0.088921 -0.027602
v 0.012273 -0.088921 -0.020031
v 0.008537 -0.088921 -0.026588
v 0.011272 -0.088921 -0.023816
v 0.012273 -0.088921 -0.004217
v 0.004802 -0.088921 0.003406
v 0.011272 -0.088921 -0.000406
v 0.008537 -0.088921 0.002384
v -0.012247 -0.088921 -0.020031
v -0.004776 -0.088921 -0.027602
v -0.011246 -0.088921 -0.023816
v -0.008512 -0.088921 -0.026588
v -0.004776 -0.088921 0.003406
v -0.012247 -0.088921 -0.004217
v -0.008512 -0.088921 0.002384
v -0.011246 -0.088921 -0.000406
v 0.004765 -0.068322 -0.026073
v 0.012273 -0.068322 -0.018468
v 0.008519 -0.068322 -0.025054
v 0.011267 -0.068322 -0.022270
v 0.012273 -0.068322 -0.004531
v 0.004765 -0.068322 0.003100
v 0.011267 -0.068322 -0.000715
v 0.008519 -0.068322 0.002077
v -0.012247 -0.068322 -0.018468
v -0.004740 -0.068322 -0.026073
v -0.011241 -0.068322 -0.022270
v -0.008493 -0.068322 -0.025054
v -0.004740 -0.068322 0.003100
v -0.012247 -0.068322 -0.004531
v -0.008493 -0.068322 0.002077
v -0.011241 -0.068322 -0.000715
v 0.002138 -0.046291 -0.020646
v 0.009694 -0.046881 -0.013059
v 0.005916 -0.046370 -0.019630
v 0.008682 -0.046586 -0.016853
v 0.009694 -0.047442 -0.005843
v 0.002138 -0.048033 0.001752
v 0.008682 -0.047738 -0.002045
v 0.005916 -0.047954 0.000735
v -0.009668 -0.046881 -0.013059
v -0.002112 -0.046291 -0.020646
v -0.008656 -0.046586 -0.016853
v -0.005890 -0.046370 -0.019630
v -0.002112 -0.048033 0.001752
v -0.009668 -0.047442 -0.005843
v -0.005890 -0.047954 0.000735
v -0.008656 -0.047738 -0.002045
v 0.012273 -0.047640 -0.003300
v 0.004716 -0.048233 0.004323
v 0.011260 -0.047936 0.000512
v 0.008495 -0.048153 0.003302
v -0.004691 -0.048233 0.004323
v -0.012247 -0.047640 -0.003300
v -0.008469 -0.048153 0.003302
v -0.011235 -0.047936 0.000512
v 0.004716 -0.046091 -0.023217
v 0.012273 -0.046681 -0.015637
v 0.008495 -0.046170 -0.022202
v 0.011260 -0.046386 -0.019427
v -0.012247 -0.046681 -0.015637
v -0.004691 -0.046091 -0.023217
v -0.011235 -0.046386 -0.019427
v -0.008469 -0.046170 -0.022202
v 0.009694 -0.011200 0.001078
v 0.002187 -0.011722 0.008624
v 0.008688 -0.011461 0.004851
v 0.005941 -0.011652 0.007613
v -0.002162 -0.011722 0.008624
v -0.009668 -0.011200 0.001078
v -0.005915 -0.011652 0.007613
v -0.008663 -0.011461 0.004851
v 0.002187 -0.009980 -0.016589
v 0.009694 -0.010502 -0.009037
v 0.005941 -0.010050 -0.015578
v 0.008688 -0.010241 -0.012813
v -0.009668 -0.010502 -0.009037
v -0.002162 -0.009980 -0.016589
v -0.008663 -0.010241 -0.012813
v -0.005915 -0.010050 -0.015578
v 0.009694 0.009219 0.004299
v 0.002224 0.008701 0.011797
v 0.008693 0.008960 0.008048
v 0.005959 0.008770 0.010792
v -0.002198 0.008701 0.011797
v -0.009668 0.009219 0.004299
v -0.005933 0.008770 0.010792
v -0.008668 0.008960 0.008048
v 0.002224 0.010443 -0.013417
v 0.009694 0.009923 -0.005891
v 0.005959 0.010373 -0.012408
v 0.008693 0.010183 -0.009654
v -0.009668 0.009923 -0.005891
v -0.002198 0.010443 -0.013417
v -0.008668 0.010183 -0.009654
v -0.005933 0.010373 -0.012408
v 0.009694 0.032183 0.007783
v 0.002273 0.031736 0.015223
v 0.008700 0.031959 0.011503
v 0.005983 0.031796 0.014227
v -0.002247 0.031736 0.015223
v -0.009668 0.032183 0.007783
v -0.005958 0.031796 0.014227
v -0.008674 0.031959 0.011503
v 0.002273 0.033478 -0.013783
v 0.009694 0.033027 -0.006274
v 0.005983 0.033417 -0.012777
v 0.008700 0.033252 -0.010029
v -0.009668 0.033027 -0.006274
v -0.002247 0.033478 -0.013783
v -0.008674 0.033252 -0.010029
v -0.005958 0.033417 -0.012777
v -0.009668 0.020703 0.006107
v -0.002226 0.020218 0.013571
v -0.008671 0.020461 0.009839
v -0.005947 0.020283 0.012571
v -0.009668 0.021472 -0.005720
v -0.002226 0.021960 -0.013233
v -0.008671 0.021716 -0.009476
v -0.005947 0.021895 -0.012226
v 0.002252 0.020218 0.013571
v 0.009694 0.020703 0.006107
v 0.005973 0.020283 0.012571
v 0.008697 0.020461 0.009839
v 0.002252 0.021960 -0.013233
v 0.009694 0.021472 -0.005720
v 0.005973 0.021895 -0.012226
v 0.008697 0.021716 -0.009476
v 0.009694 0.050796 0.009551
v 0.002301 0.050413 0.016957
v 0.008703 0.050605 0.013254
v 0.005997 0.050465 0.015964
v -0.002275 0.050413 0.016957
v -0.009668 0.050796 0.009551
v -0.005972 0.050465 0.015964
v -0.008678 0.050605 0.013254
v 0.002301 0.052155 -0.016700
v 0.009694 0.051766 -0.009193
v 0.005997 0.052103 -0.015694
v 0.008703 0.051961 -0.012946
v -0.009668 0.051766 -0.009193
v -0.002275 0.052155 -0.016700
v -0.008678 0.051961 -0.012946
v -0.005972 0.052103 -0.015694
v -0.009668 0.041488 0.008731
v -0.002263 0.041075 0.016151
v -0.008676 0.041281 0.012441
v -0.005966 0.041130 0.015157
v -0.009668 0.042398 -0.007611
v -0.002263 0.042816 -0.015119
v -0.008676 0.042607 -0.011365
v -0.005966 0.042760 -0.014113
v 0.002289 0.041075 0.016151
v 0.009694 0.041488 0.008731
v 0.005991 0.041130 0.015157
v 0.008702 0.041281 0.012441
v 0.002289 0.042816 -0.015119
v 0.009694 0.042398 -0.007611
v 0.005991 0.042760 -0.014113
v 0.008702 0.042607 -0.011365
v 0.009694 0.061401 0.010295
v 0.002309 0.061059 0.017691
v 0.008705 0.061230 0.013993
v 0.006002 0.061105 0.016700
v -0.002284 0.061059 0.017691
v -0.009668 0.061401 0.010295
v -0.005976 0.061105 0.016700
v -0.008679 0.061230 0.013993
v 0.002309 0.062801 -0.020004
v 0.009694 0.062455 -0.012519
v 0.006002 0.062755 -0.019001
v 0.008705 0.062628 -0.016262
v -0.009668 0.062455 -0.012519
v -0.002284 0.062801 -0.020004
v -0.008679 0.062628 -0.016262
v -0.005976 0.062755 -0.019001
v 0.009694 0.075003 0.010938
v 0.002321 0.074681 0.018320
v 0.008706 0.074842 0.014629
v 0.006007 0.074724 0.017331
v -0.002295 0.074681 0.018320
v -0.009668 0.075003 0.010938
v -0.005982 0.074724 0.017331
v -0.008681 0.074842 0.014629
v 0.002321 0.076423 -0.021577
v 0.009694 0.076098 -0.014138
v 0.006007 0.076379 -0.020581
v 0.008706 0.076260 -0.017858
v -0.009668 0.076098 -0.014138
v -0.002295 0.076423 -0.021577
v -0.008681 0.076260 -0.017858
v -0.005982 0.076379 -0.020581
v -0.009668 0.068199 0.010618
v -0.002290 0.067870 0.018006
v -0.008680 0.068034 0.014312
v -0.005979 0.067914 0.017016
v -0.009668 0.069280 -0.013697
v -0.002290 0.069612 -0.021158
v -0.008680 0.069446 -0.017428
v -0.005979 0.069567 -0.020158
v 0.002316 0.067870 0.018006
v 0.009694 0.068199 0.010618
v 0.006005 0.067914 0.017016
v 0.008706 0.068034 0.014312
v 0.002316 0.069612 -0.021158
v 0.009694 0.069280 -0.013697
v 0.006005 0.069567 -0.020158
v 0.008706 0.069446 -0.017428
v 0.009694 0.085939 0.011011
v 0.002324 0.085620 0.018390
v 0.008707 0.085780 0.014700
v 0.006009 0.085663 0.017401
v -0.002298 0.085620 0.018390
v -0.009668 0.085939 0.011011
v -0.005983 0.085663 0.017401
v -0.008681 0.085780 0.014700
v 0.002324 0.087362 -0.021916
v 0.009694 0.087041 -0.014493
v 0.006009 0.087319 -0.020921
v 0.008707 0.087202 -0.018204
v -0.009668 0.087041 -0.014493
v -0.002298 0.087362 -0.021916
v -0.008681 0.087202 -0.018204
v -0.005983 0.087319 -0.020921
v 0.009694 0.097847 0.010609
v 0.002326 0.097520 0.017986
v 0.008707 0.097683 0.014298
v 0.006010 0.097563 0.016998
v -0.002301 0.097520 0.017986
v -0.009668 0.097847 0.010609
v -0.005984 0.097563 0.016998
v -0.008681 0.097683 0.014298
v 0.002326 0.099261 -0.021299
v 0.009694 0.098933 -0.013888
v 0.006010 0.099217 -0.020306
v 0.008707 0.099097 -0.017594
v -0.009668 0.098933 -0.013888
v -0.002301 0.099261 -0.021299
v -0.008681 0.099097 -0.017594
v -0.005984 0.099217 -0.020306
v 0.009694 0.103805 0.010365
v 0.002327 0.103472 0.017740
v 0.008707 0.103639 0.014052
v 0.006011 0.103517 0.016752
v -0.002302 0.103472 0.017740
v -0.009668 0.103805 0.010365
v -0.005985 0.103517 0.016752
v -0.008681 0.103639 0.014052
v 0.002327 0.105214 -0.020832
v 0.009694 0.104879 -0.013427
v 0.006011 0.105169 -0.019840
v 0.008707 0.105047 -0.017129
v -0.009668 0.104879 -0.013427
v -0.002302 0.105214 -0.020832
v -0.008681 0.105047 -0.017129
v -0.005985 0.105169 -0.019840
v 0.002328 0.151148 0.018144
v 0.009694 0.151158 0.010761
v 0.006011 0.151149 0.017155
v 0.008707 0.151153 0.014453
v -0.009668 0.151158 0.010761
v -0.002302 0.151148 0.018144
v -0.008682 0.151153 0.014453
v -0.005985 0.151149 0.017155
v 0.009694 0.151188 -0.013057
v 0.002328 0.151198 -0.020467
v 0.008707 0.151193 -0.016762
v 0.006011 0.151197 -0.019475
v -0.002302 0.151198 -0.020467
v -0.009668 0.151188 -0.013057
v -0.005985 0.151197 -0.019475
v -0.008682 0.151193 -0.016762
v -0.010725 0.108937 0.020539
v -0.009585 0.152584 0.020539
v 0.010750 0.108937 0.020539
v 0.009610 0.152584 0.020539
v -0.007228 0.152584 0.032434
v 0.007254 0.152584 0.032434
v -0.008435 0.152584 0.026486
v 0.008461 0.152584 0.026486
v -0.007833 0.152584 0.029460
v 0.007859 0.152584 0.029460
v -0.002743 0.089848 0.064739
v -0.002308 0.154787 0.064739
v 0.002769 0.089848 0.064739
v 0.002334 0.154787 0.064739
v 0.005674 0.101302 0.048586
v -0.005648 0.101302 0.048586
v -0.004263 0.152658 0.048586
v 0.004289 0.152658 0.048586
v -0.001352 0.079128 0.079130
v -0.001275 0.158752 0.079130
v 0.001378 0.079128 0.079130
v 0.001300 0.158752 0.079130
v -0.000114 0.064004 0.099834
v -0.000114 0.165947 0.099834
v 0.000139 0.064004 0.099834
v 0.000139 0.165947 0.099834
v -0.000114 0.101634 0.102176
v -0.000114 0.128317 0.102176
v -0.000114 0.106409 0.102392
v -0.000114 0.112024 0.102505
v -0.000114 0.117927 0.102505
v -0.000114 0.123541 0.102392
v 0.000139 0.128317 0.102176
v 0.000139 0.101634 0.102176
v 0.000139 0.123541 0.102392
v 0.000139 0.117927 0.102505
v 0.000139 0.112024 0.102505
v 0.000139 0.106409 0.102392
v -0.009807 0.111012 0.029036
v -0.009623 0.111361 0.030537
v -0.009759 0.111653 0.029460
v -0.009770 0.111172 0.029392
v -0.009703 0.111299 0.029942
v 0.009649 0.111361 0.030537
v 0.009833 0.111012 0.029036
v 0.009784 0.111653 0.029460
v 0.009729 0.111299 0.029942
v 0.009796 0.111172 0.029392
v -0.009509 0.111392 0.031357
v -0.009248 0.111134 0.032911
v -0.009340 0.111767 0.032434
v -0.009418 0.111373 0.031959
v -0.009323 0.111278 0.032528
v 0.009274 0.111134 0.032911
v 0.009534 0.111392 0.031357
v 0.009366 0.111767 0.032434
v 0.009349 0.111278 0.032528
v 0.009444 0.111373 0.031959
v -0.010220 0.109097 0.024705
v -0.009950 0.109674 0.027188
v -0.009984 0.109718 0.026486
v -0.010104 0.109200 0.025689
v -0.010006 0.109411 0.026599
v 0.009975 0.109674 0.027188
v 0.010245 0.109097 0.024705
v 0.010009 0.109718 0.026486
v 0.010031 0.109411 0.026599
v 0.010130 0.109200 0.025689
v -0.012391 0.108841 -0.029036
v -0.009782 0.108835 -0.031735
v -0.012075 0.108838 -0.030385
v -0.011120 0.108836 -0.031373
v -0.009782 0.152482 -0.031735
v -0.012333 0.152487 -0.029039
v -0.011112 0.152483 -0.031374
v -0.012046 0.152485 -0.030387
v 0.009808 0.108835 -0.031735
v 0.012417 0.108841 -0.029036
v 0.011146 0.108836 -0.031373
v 0.012101 0.108838 -0.030385
v 0.012358 0.152487 -0.029039
v 0.009808 0.152482 -0.031735
v 0.012071 0.152485 -0.030387
v 0.011138 0.152483 -0.031374
v -0.004196 0.095575 0.056663
v 0.004221 0.095575 0.056663
v 0.003311 0.153427 0.056663
v -0.003286 0.153427 0.056663
v -0.007448 0.106218 0.040749
v 0.007474 0.106218 0.040749
v 0.005771 0.152522 0.040510
v -0.005746 0.152522 0.040510
v -0.006247 0.108930 0.016527
v -0.005985 0.108930 0.016790
v -0.002302 0.108932 0.017778
v 0.008707 0.108864 -0.017103
v 0.009694 0.108918 0.010400
v 0.009694 0.108871 -0.013399
v 0.008707 0.108925 0.014089
v 0.002327 0.108932 0.017778
v 0.006011 0.108930 0.016790
v -0.009668 0.108918 0.010400
v -0.009668 0.108871 -0.013399
v -0.008681 0.108864 -0.017103
v -0.008681 0.108925 0.014089
v 0.006011 0.108859 -0.019814
v 0.002327 0.108857 -0.020806
v -0.002302 0.108857 -0.020806
v -0.005985 0.108859 -0.019814
v -0.009668 0.152565 0.010702
v -0.009668 0.152518 -0.013100
v -0.008682 0.152572 0.014391
v -0.008682 0.152511 -0.016802
v 0.002328 0.152579 0.018079
v 0.006011 0.152577 0.017091
v -0.002302 0.152579 0.018079
v -0.005985 0.152577 0.017091
v 0.009694 0.152565 0.010702
v -0.005985 0.152506 -0.019513
v -0.002302 0.152504 -0.020505
v 0.008707 0.152511 -0.016802
v 0.009694 0.152518 -0.013100
v 0.008707 0.152572 0.014391
v 0.002328 0.152504 -0.020505
v 0.006011 0.152506 -0.019513
vn 0.9915 -0.0187 -0.1289
vn 0.9921 -0.0219 -0.1236
vn 0.8733 -0.0839 -0.4799
vn 0.8685 -0.0702 -0.4906
vn 0.5125 -0.1460 -0.8462
vn 0.5064 -0.1208 -0.8538
vn 0.1352 -0.1675 -0.9766
vn 0.1337 -0.1384 -0.9813
vn -0.1360 0.1980 0.9707
vn -0.1340 0.2143 0.9676
vn -0.5085 0.1854 0.8409
vn -0.5138 0.1703 0.8408
vn -0.8705 0.1054 0.4808
vn -0.8736 0.0954 0.4772
vn -0.9918 0.0273 0.1252
vn -0.9921 0.0243 0.1234
vn 0.1360 0.1980 0.9707
vn 0.1337 -0.0124 0.9909
vn 0.4991 -0.0144 0.8664
vn 0.5138 0.1703 0.8408
vn 0.8585 -0.0183 0.5125
vn 0.8736 0.0954 0.4772
vn 0.9896 -0.0090 0.1434
vn 0.9921 0.0243 0.1234
vn -0.1337 -0.1384 -0.9813
vn -0.1352 -0.1675 -0.9766
vn -0.5125 -0.1460 -0.8462
vn -0.5064 -0.1208 -0.8538
vn -0.8733 -0.0839 -0.4799
vn -0.8685 -0.0702 -0.4906
vn -0.9921 -0.0219 -0.1236
vn -0.9915 -0.0187 -0.1289
vn 0.9917 -0.0123 -0.1278
vn 0.8697 -0.0465 -0.4914
vn 0.5068 -0.0805 -0.8583
vn 0.1333 -0.0923 -0.9868
vn -0.1337 -0.0124 0.9909
vn -0.4991 -0.0144 0.8664
vn -0.8585 -0.0183 0.5125
vn -0.9896 -0.0090 0.1434
vn 0.1340 0.2143 0.9676
vn 0.5085 0.1854 0.8409
vn 0.8705 0.1054 0.4808
vn 0.9918 0.0273 0.1252
vn -0.1333 -0.0923 -0.9868
vn -0.5068 -0.0805 -0.8583
vn -0.8697 -0.0465 -0.4914
vn -0.9917 -0.0123 -0.1278
vn -0.1262 -0.1507 -0.9805
vn -0.4738 -0.5253 -0.7068
vn -0.8293 -0.3643 -0.4237
vn -0.9839 -0.1289 -0.1242
vn -0.1077 -0.4523 0.8853
vn -0.4279 -0.4192 0.8007
vn -0.7847 -0.3322 0.5233
vn -0.9737 -0.1425 0.1780
vn 0.1077 -0.4523 0.8853
vn 0.4279 -0.4192 0.8007
vn 0.7847 -0.3322 0.5233
vn 0.9737 -0.1425 0.1780
vn 0.1335 -0.1472 -0.9801
vn 0.4738 -0.5253 -0.7068
vn 0.8293 -0.3643 -0.4237
vn 0.9839 -0.1289 -0.1242
vn -0.9879 0.0947 0.1231
vn -0.5477 -0.7413 0.3879
vn -0.2225 -0.7659 0.6032
vn -0.0511 -0.7796 0.6242
vn 0.9857 0.0746 0.1510
vn 0.5291 -0.6855 0.5002
vn 0.2225 -0.7659 0.6032
vn 0.0511 -0.7796 0.6242
vn -0.0984 -0.8981 -0.4286
vn -0.0714 -0.9813 -0.1787
vn -0.3437 -0.9391 0.0068
vn -0.8071 -0.4980 -0.3172
vn -0.9646 -0.0966 -0.2454
vn 0.0714 -0.9813 -0.1787
vn 0.0912 -0.8996 -0.4270
vn 0.2236 -0.9746 0.0117
vn 0.8356 -0.4361 -0.3342
vn 0.9721 -0.0126 -0.2341
vn -0.9915 -0.0088 -0.1295
vn -0.9916 -0.0040 -0.1296
vn -0.8681 -0.0153 -0.4961
vn -0.8682 -0.0332 -0.4951
vn -0.5045 -0.0264 -0.8630
vn -0.5049 -0.0571 -0.8613
vn -0.1325 -0.0304 -0.9907
vn -0.1327 -0.0655 -0.9890
vn 0.9915 -0.0088 -0.1295
vn 0.8682 -0.0332 -0.4951
vn 0.5049 -0.0571 -0.8613
vn 0.1327 -0.0655 -0.9890
vn 0.9921 0.0241 0.1232
vn 0.9921 0.0178 0.1246
vn 0.8719 0.0703 0.4846
vn 0.8720 0.0959 0.4799
vn 0.5091 0.1250 0.8516
vn 0.5091 0.1708 0.8436
vn 0.1336 0.1441 0.9805
vn 0.1335 0.1971 0.9712
vn -0.9921 0.0241 0.1232
vn -0.8720 0.0959 0.4799
vn -0.5091 0.1708 0.8436
vn -0.1335 0.1971 0.9712
vn 0.9916 -0.0040 -0.1296
vn 0.8681 -0.0153 -0.4961
vn 0.5045 -0.0264 -0.8630
vn 0.1325 -0.0304 -0.9907
vn -0.9921 0.0178 0.1246
vn -0.8719 0.0703 0.4846
vn -0.5091 0.1250 0.8516
vn -0.1336 0.1441 0.9805
vn -0.9914 0.0016 -0.1308
vn -0.8670 0.0058 -0.4983
vn -0.5030 0.0099 -0.8642
vn -0.1321 0.0111 -0.9912
vn 0.9914 0.0016 -0.1308
vn 0.8670 0.0058 -0.4983
vn 0.5030 0.0099 -0.8642
vn 0.1321 0.0111 -0.9912
vn 0.1334 0.0986 0.9861
vn 0.5083 0.0857 0.8569
vn 0.8713 0.0485 0.4883
vn 0.9920 0.0123 0.1257
vn -0.1334 0.0986 0.9861
vn -0.5083 0.0857 0.8569
vn -0.8713 0.0485 0.4883
vn -0.9920 0.0123 0.1257
vn -0.9914 0.0075 -0.1304
vn -0.8670 0.0283 -0.4976
vn -0.5026 0.0486 -0.8631
vn -0.1319 0.0553 -0.9897
vn 0.9914 0.0075 -0.1304
vn 0.8670 0.0283 -0.4976
vn 0.5026 0.0486 -0.8631
vn 0.1319 0.0553 -0.9897
vn 0.1333 0.0466 0.9900
vn 0.5086 0.0407 0.8600
vn 0.8718 0.0230 0.4893
vn 0.9921 0.0058 0.1255
vn -0.1333 0.0466 0.9900
vn -0.5086 0.0407 0.8600
vn -0.8718 0.0230 0.4893
vn -0.9921 0.0058 0.1255
vn -0.1330 -0.0226 0.9909
vn -0.5081 -0.0193 0.8611
vn -0.8717 -0.0107 0.4899
vn -0.9921 -0.0027 0.1255
vn -0.1312 0.0999 -0.9863
vn -0.5007 0.0877 -0.8612
vn -0.8656 0.0514 -0.4981
vn -0.9913 0.0138 -0.1311
vn 0.9921 -0.0027 0.1255
vn 0.8717 -0.0107 0.4899
vn 0.5081 -0.0193 0.8611
vn 0.1330 -0.0226 0.9909
vn 0.9913 0.0138 -0.1311
vn 0.8656 0.0514 -0.4981
vn 0.5007 0.0877 -0.8612
vn 0.1312 0.0999 -0.9863
vn -0.1321 -0.0600 0.9894
vn -0.5053 -0.0517 0.8614
vn -0.8697 -0.0293 0.4927
vn -0.9918 -0.0075 0.1272
vn -0.1315 0.1266 -0.9832
vn -0.5050 0.1108 -0.8560
vn -0.8705 0.0635 -0.4881
vn -0.9921 0.0163 -0.1246
vn 0.9918 -0.0075 0.1272
vn 0.8697 -0.0293 0.4927
vn 0.5053 -0.0517 0.8614
vn 0.1321 -0.0600 0.9894
vn 0.9921 0.0163 -0.1246
vn 0.8705 0.0635 -0.4881
vn 0.5050 0.1108 -0.8560
vn 0.1315 0.1266 -0.9832
vn -0.0000 0.9970 0.0775
vn -0.9912 0.0145 -0.1315
vn -0.9913 0.0173 -0.1303
vn -0.8657 0.0658 -0.4962
vn -0.8650 0.0553 -0.4988
vn -0.5006 0.1139 -0.8582
vn -0.4998 0.0957 -0.8608
vn -0.1311 0.1309 -0.9827
vn -0.1309 0.1099 -0.9853
vn 0.9913 0.0173 -0.1303
vn 0.9912 0.0145 -0.1315
vn 0.8650 0.0553 -0.4988
vn 0.8657 0.0658 -0.4962
vn 0.4998 0.0957 -0.8608
vn 0.5006 0.1139 -0.8582
vn 0.1309 0.1099 -0.9853
vn 0.1311 0.1309 -0.9827
vn 0.1306 -0.1684 0.9770
vn 0.1318 -0.1845 0.9740
vn 0.5080 -0.1607 0.8462
vn 0.4996 -0.1475 0.8536
vn 0.8739 -0.0909 0.4775
vn 0.8653 -0.0859 0.4939
vn 0.9926 -0.0227 0.1192
vn 0.9913 -0.0227 0.1296
vn -0.1318 -0.1845 0.9740
vn -0.1306 -0.1684 0.9770
vn -0.4996 -0.1475 0.8536
vn -0.5080 -0.1607 0.8462
vn -0.8653 -0.0859 0.4939
vn -0.8739 -0.0909 0.4775
vn -0.9913 -0.0227 0.1296
vn -0.9926 -0.0227 0.1192
vn 0.1325 0.0840 -0.9876
vn 0.5082 0.0726 -0.8582
vn 0.8727 0.0408 -0.4865
vn 0.9923 0.0103 -0.1233
vn 0.1308 -0.1519 0.9797
vn 0.5007 -0.1332 0.8553
vn 0.8664 -0.0772 0.4933
vn 0.9915 -0.0203 0.1287
vn -0.1308 -0.1519 0.9797
vn -0.5007 -0.1332 0.8553
vn -0.8664 -0.0772 0.4933
vn -0.9915 -0.0203 0.1287
vn -0.1325 0.0840 -0.9876
vn -0.5082 0.0726 -0.8582
vn -0.8727 0.0408 -0.4865
vn -0.9923 0.0103 -0.1233
vn -0.1307 -0.1461 0.9806
vn -0.1306 -0.1196 0.9842
vn -0.4993 -0.1050 0.8601
vn -0.5002 -0.1282 0.8564
vn -0.8649 -0.0614 0.4981
vn -0.8659 -0.0746 0.4946
vn -0.9912 -0.0163 0.1310
vn -0.9914 -0.0196 0.1293
vn -0.1319 -0.0162 -0.9911
vn -0.5050 -0.0145 -0.8630
vn -0.8698 -0.0081 -0.4933
vn -0.9919 -0.0019 -0.1269
vn 0.9914 -0.0196 0.1293
vn 0.9912 -0.0163 0.1310
vn 0.8649 -0.0614 0.4981
vn 0.8659 -0.0746 0.4946
vn 0.4993 -0.1050 0.8601
vn 0.5002 -0.1282 0.8564
vn 0.1306 -0.1196 0.9842
vn 0.1307 -0.1461 0.9806
vn 0.9919 -0.0019 -0.1269
vn 0.8698 -0.0081 -0.4933
vn 0.5050 -0.0145 -0.8630
vn 0.1319 -0.0162 -0.9911
vn -0.1312 -0.0947 -0.9868
vn -0.5038 -0.0829 -0.8598
vn -0.9920 -0.0115 -0.1259
vn 0.9920 -0.0115 -0.1259
vn 0.5038 -0.0829 -0.8598
vn 0.1312 -0.0947 -0.9868
vn -0.1308 -0.0918 0.9871
vn -0.1308 -0.0768 0.9884
vn -0.5003 -0.0674 0.8632
vn -0.5005 -0.0806 0.8620
vn -0.8659 -0.0392 0.4987
vn -0.8661 -0.0469 0.4977
vn -0.9914 -0.0103 0.1305
vn -0.9914 -0.0124 0.1301
vn -0.1298 -0.1533 -0.9796
vn -0.4986 -0.1342 -0.8564
vn -0.8656 -0.0772 -0.4947
vn -0.9915 -0.0199 -0.1288
vn 0.9914 -0.0124 0.1301
vn 0.9914 -0.0103 0.1305
vn 0.8659 -0.0392 0.4987
vn 0.8661 -0.0469 0.4977
vn 0.5003 -0.0674 0.8632
vn 0.5005 -0.0806 0.8620
vn 0.1308 -0.0768 0.9884
vn 0.1308 -0.0918 0.9871
vn 0.9915 -0.0199 -0.1288
vn 0.8656 -0.0772 -0.4947
vn 0.4986 -0.1342 -0.8564
vn 0.1298 -0.1533 -0.9796
vn -0.1280 -0.2319 -0.9643
vn -0.4960 -0.2037 -0.8441
vn -0.8661 -0.1151 -0.4864
vn -0.9918 -0.0283 -0.1245
vn 0.9918 -0.0283 -0.1245
vn 0.8661 -0.1151 -0.4864
vn 0.4960 -0.2037 -0.8441
vn 0.1280 -0.2319 -0.9643
vn 0.9914 -0.0077 0.1309
vn 0.8657 -0.0292 0.4997
vn 0.5000 -0.0501 0.8646
vn 0.1307 -0.0571 0.9898
vn -0.9914 -0.0077 0.1309
vn -0.8657 -0.0292 0.4997
vn -0.5000 -0.0501 0.8646
vn -0.1307 -0.0571 0.9898
vn -0.9902 -0.0343 -0.1355
vn -0.8561 -0.1224 -0.5021
vn -0.4874 -0.2020 -0.8495
vn -0.1268 -0.2291 -0.9651
vn 0.9902 -0.0343 -0.1355
vn 0.8561 -0.1224 -0.5021
vn 0.4874 -0.2020 -0.8495
vn 0.1268 -0.2291 -0.9651
vn -0.1308 -0.0459 0.9903
vn -0.1306 -0.0261 0.9911
vn -0.4993 -0.0230 0.8662
vn -0.5008 -0.0403 0.8646
vn -0.8650 -0.0133 0.5016
vn -0.8665 -0.0234 0.4987
vn -0.9913 -0.0035 0.1319
vn -0.9915 -0.0061 0.1301
vn -0.1299 -0.1130 -0.9851
vn -0.4961 -0.0994 -0.8626
vn -0.8620 -0.0596 -0.5033
vn -0.9908 -0.0165 -0.1341
vn 0.9915 -0.0061 0.1301
vn 0.9913 -0.0035 0.1319
vn 0.8650 -0.0133 0.5016
vn 0.8665 -0.0234 0.4987
vn 0.4993 -0.0230 0.8662
vn 0.5008 -0.0403 0.8646
vn 0.1306 -0.0261 0.9911
vn 0.1308 -0.0459 0.9903
vn 0.9908 -0.0165 -0.1341
vn 0.8620 -0.0596 -0.5033
vn 0.4961 -0.0994 -0.8626
vn 0.1299 -0.1130 -0.9851
vn -0.1311 -0.0458 -0.9903
vn -0.5008 -0.0403 -0.8646
vn -0.8660 -0.0238 -0.4995
vn -0.9914 -0.0064 -0.1310
vn 0.9914 -0.0064 -0.1310
vn 0.8660 -0.0238 -0.4995
vn 0.5008 -0.0403 -0.8646
vn 0.1311 -0.0458 -0.9903
vn -0.1304 0.0135 0.9914
vn -0.4987 0.0118 0.8667
vn -0.8647 0.0069 0.5023
vn -0.9912 0.0019 0.1321
vn -0.1310 0.0104 -0.9913
vn -0.4995 0.0089 -0.8662
vn -0.8645 0.0048 -0.5026
vn -0.9911 0.0011 -0.1329
vn 0.9912 0.0019 0.1321
vn 0.8647 0.0069 0.5023
vn 0.4987 0.0118 0.8667
vn 0.1304 0.0135 0.9914
vn 0.9911 0.0011 -0.1329
vn 0.8645 0.0048 -0.5026
vn 0.4995 0.0089 -0.8662
vn 0.1310 0.0104 -0.9913
vn -0.1303 0.0372 0.9908
vn -0.4994 0.0325 0.8658
vn -0.8656 0.0188 0.5005
vn -0.9914 0.0049 0.1309
vn -0.1312 0.0644 -0.9893
vn -0.5013 0.0561 -0.8635
vn -0.8664 0.0323 -0.4984
vn -0.9914 0.0084 -0.1305
vn 0.9914 0.0049 0.1309
vn 0.8656 0.0188 0.5005
vn 0.4994 0.0325 0.8658
vn 0.1303 0.0372 0.9908
vn 0.9914 0.0084 -0.1305
vn 0.8664 0.0323 -0.4984
vn 0.5013 0.0561 -0.8635
vn 0.1312 0.0644 -0.9893
vn 0.9917 0.0020 0.1284
vn 0.8679 0.0080 0.4967
vn 0.5019 0.0143 0.8648
vn 0.1309 0.0164 0.9913
vn -0.9917 0.0020 0.1284
vn -0.8679 0.0080 0.4967
vn -0.5019 0.0143 0.8648
vn -0.1309 0.0164 0.9913
vn -0.9919 0.0054 -0.1268
vn -0.8697 0.0212 -0.4931
vn -0.5046 0.0372 -0.8625
vn -0.1317 0.0428 -0.9904
vn 0.9919 0.0054 -0.1268
vn 0.8697 0.0212 -0.4931
vn 0.5046 0.0372 -0.8625
vn 0.1317 0.0428 -0.9904
vn -0.1307 -0.0084 0.9914
vn -0.5001 -0.0073 0.8659
vn -0.8659 -0.0042 0.5003
vn -0.9914 -0.0011 0.1309
vn -0.1313 0.0079 -0.9913
vn -0.5023 0.0069 -0.8646
vn -0.8676 0.0040 -0.4973
vn -0.9916 0.0010 -0.1293
vn 0.9914 -0.0011 0.1309
vn 0.8659 -0.0042 0.5003
vn 0.5001 -0.0073 0.8659
vn 0.1307 -0.0084 0.9914
vn 0.9916 0.0010 -0.1293
vn 0.8676 0.0040 -0.4973
vn 0.5023 0.0069 -0.8646
vn 0.1313 0.0079 -0.9913
vn 0.0581 -0.8374 0.5436
vn -0.0196 -0.8803 0.4739
vn -0.0309 -0.8814 0.4714
vn -0.1232 -0.8504 0.5115
vn -0.0639 -0.9676 0.2441
vn 0.0905 -0.9617 0.2587
vn -0.0000 1.0000 0.0013
vn -0.0000 -0.8157 -0.5784
vn -0.0000 -0.8094 -0.5873
vn -0.0000 1.0000 -0.0000
vn -0.0000 1.0000 0.0034
vn -0.0000 1.0000 -0.0011
vn -0.9935 0.0067 0.1138
vn -0.9944 0.0058 0.1051
vn -0.9980 0.0013 0.0628
vn -0.9978 0.0017 0.0662
vn -0.0000 0.9918 -0.1278
vn -0.0000 0.9770 -0.2132
vn -0.9881 0.0154 0.1532
vn -0.9882 0.0139 0.1526
vn 0.9882 0.0139 0.1526
vn 0.9881 0.0154 0.1532
vn 0.9935 0.0067 0.1138
vn 0.9944 0.0058 0.1051
vn -0.0000 1.0000 -0.0031
vn -0.0000 0.9986 -0.0522
vn -0.0000 -0.8046 -0.5938
vn -0.0000 -0.8075 -0.5899
vn -0.0000 0.9552 -0.2959
vn 0.9978 0.0017 0.0662
vn 0.9980 0.0013 0.0628
vn -0.0000 0.9446 -0.3283
vn -0.0000 0.0536 0.9986
vn -0.0000 0.0327 0.9995
vn -0.0000 0.0101 0.9999
vn -0.0000 -0.0101 0.9999
vn -0.0000 -0.0327 0.9995
vn -0.0000 -0.0536 0.9986
vn -0.9986 0.0004 0.0535
vn -0.0000 -0.0621 0.9981
vn -0.0000 0.0621 0.9981
vn 0.9986 0.0004 0.0535
vn -0.9922 0.0360 0.1194
vn -0.9944 0.0096 0.1054
vn -0.9903 0.0343 0.1346
vn -0.9916 0.0187 0.1277
vn -0.9854 0.0457 0.1640
vn 0.9854 0.0457 0.1640
vn 0.9916 0.0187 0.1277
vn 0.9903 0.0343 0.1346
vn 0.9944 0.0096 0.1054
vn 0.9922 0.0360 0.1194
vn -0.0000 -0.9973 0.0737
vn -0.0000 -0.9854 0.1700
vn -0.0000 -0.9458 0.3246
vn -0.0000 -0.8635 0.5043
vn -0.9851 0.0451 0.1660
vn -0.9882 0.0117 0.1527
vn -0.9820 0.0301 0.1863
vn -0.9831 0.0004 0.1829
vn -0.9772 0.0313 0.2101
vn 0.9772 0.0313 0.2101
vn 0.9831 0.0004 0.1829
vn 0.9820 0.0301 0.1863
vn 0.9882 0.0117 0.1527
vn 0.9851 0.0451 0.1660
vn -0.0000 -1.0000 0.0063
vn -0.0000 -0.9958 -0.0917
vn -0.0000 -0.9685 -0.2489
vn -0.0000 -0.9012 -0.4334
vn -0.0000 -0.8471 -0.5314
vn -0.0000 -0.8334 -0.5526
vn -0.9763 0.0370 0.2133
vn -0.9763 0.0371 0.2132
vn -0.9845 0.0260 0.1737
vn -0.9827 0.0287 0.1830
vn -0.9807 0.0429 0.1910
vn -0.9882 0.0449 0.1462
vn 0.9763 0.0371 0.2132
vn 0.9763 0.0370 0.2133
vn 0.9827 0.0287 0.1830
vn 0.9845 0.0260 0.1737
vn 0.9882 0.0449 0.1462
vn 0.9807 0.0429 0.1910
vn -0.9879 0.0331 0.1514
vn -0.9920 0.0670 0.1067
vn -0.9919 0.0608 0.1115
vn -0.9930 0.0958 0.0690
vn -0.9924 0.0492 0.1125
vn 0.9924 0.0492 0.1125
vn 0.9930 0.0958 0.0690
vn 0.9919 0.0608 0.1115
vn 0.9920 0.0670 0.1067
vn 0.9879 0.0331 0.1514
vn -0.0000 -0.9977 0.0684
vn -0.0000 -0.9870 0.1607
vn -0.0000 -0.9498 0.3129
vn -0.0000 -0.8685 0.4956
vn -0.9896 0.0359 0.1393
vn -0.9947 0.0223 0.0999
vn -0.9948 0.0221 0.0990
vn -0.0000 -0.9998 0.0193
vn 0.9948 0.0221 0.0990
vn 0.9947 0.0223 0.0999
vn 0.9896 0.0359 0.1393
vn -0.9961 0.0074 -0.0879
vn -0.9961 0.0074 -0.0876
vn -0.8817 0.0007 -0.4719
vn -0.8815 0.0007 -0.4723
vn -0.5109 0.0002 -0.8596
vn -0.5106 0.0002 -0.8598
vn -0.1319 -0.0000 -0.9913
vn 0.1319 -0.0000 -0.9913
vn 0.5109 0.0002 -0.8596
vn 0.5106 0.0002 -0.8598
vn 0.8817 0.0007 -0.4719
vn 0.8815 0.0007 -0.4723
vn 0.9961 0.0074 -0.0876
vn 0.9961 0.0074 -0.0879
vn -0.0000 -1.0000 0.0020
vn -0.0000 -1.0000 0.0019
vn -0.0000 1.0000 -0.0020
vn 0.1308 0.0068 -0.9914
vn 0.5011 0.0060 -0.8654
vn 0.4999 0.0060 -0.8661
vn 0.1306 0.0068 -0.9914
vn 0.7076 0.0049 -0.7066
vn 0.8669 0.0034 -0.4984
vn 0.8657 0.0035 -0.5006
vn 0.9916 0.0009 -0.1296
vn 0.9914 0.0009 -0.1311
vn 0.5024 -0.0060 0.8646
vn 0.5011 -0.0060 0.8654
vn 0.1311 -0.0068 0.9913
vn 0.1313 -0.0068 0.9913
vn 0.8677 -0.0034 0.4972
vn 0.8664 -0.0034 0.4993
vn 0.9916 -0.0009 0.1291
vn 0.9914 -0.0009 0.1306
vn -0.9914 0.0009 -0.1311
vn -0.9916 0.0009 -0.1296
vn -0.8669 0.0034 -0.4984
vn -0.8657 0.0035 -0.5006
vn -0.5011 0.0060 -0.8654
vn -0.4999 0.0060 -0.8661
vn -0.1308 0.0068 -0.9914
vn -0.1306 0.0068 -0.9914
vn -0.8677 -0.0034 0.4972
vn -0.8664 -0.0034 0.4993
vn -0.9914 -0.0009 0.1306
vn -0.9916 -0.0009 0.1291
vn -0.5024 -0.0060 0.8646
vn -0.5011 -0.0060 0.8654
vn -0.1313 -0.0068 0.9913
vn -0.1311 -0.0068 0.9913
vt 0.155135 0.829324
vt 0.158490 0.866440
vt 0.146587 0.867295
vt 0.143275 0.829465
vt 0.138037 0.867961
vt 0.134755 0.829609
vt 0.327814 0.833366
vt 0.327822 0.871454
vt 0.316222 0.871870
vt 0.316206 0.833591
vt 0.564018 0.813939
vt 0.563993 0.788331
vt 0.575613 0.788357
vt 0.575626 0.814308
vt 0.006655 0.828386
vt 0.009609 0.801991
vt 0.018744 0.801087
vt 0.015783 0.828421
vt 0.030999 0.799906
vt 0.028029 0.828525
vt 0.533407 0.813939
vt 0.533391 0.844450
vt 0.521791 0.845017
vt 0.521799 0.814308
vt 0.255261 0.828386
vt 0.258340 0.859578
vt 0.249133 0.860149
vt 0.246133 0.828421
vt 0.236779 0.860984
vt 0.233887 0.828525
vt 0.285595 0.833591
vt 0.285579 0.871870
vt 0.273979 0.871454
vt 0.273987 0.833366
vt 0.127161 0.829609
vt 0.123880 0.867961
vt 0.115329 0.867295
vt 0.118642 0.829465
vt 0.103426 0.866440
vt 0.106781 0.829324
vt 0.154800 0.792651
vt 0.143006 0.791540
vt 0.134534 0.790766
vt 0.327802 0.794606
vt 0.316181 0.794494
vt 0.564034 0.844450
vt 0.575634 0.845017
vt 0.003576 0.859578
vt 0.012783 0.860149
vt 0.025137 0.860984
vt 0.533431 0.788331
vt 0.521811 0.788357
vt 0.252307 0.801991
vt 0.243172 0.801087
vt 0.230917 0.799906
vt 0.285619 0.794494
vt 0.273999 0.794606
vt 0.127382 0.790766
vt 0.118910 0.791539
vt 0.107116 0.792651
vt 0.285570 0.900139
vt 0.273974 0.899206
vt 0.122047 0.895873
vt 0.113485 0.893792
vt 0.101567 0.891004
vt 0.564043 0.853850
vt 0.575638 0.855028
vt 0.006856 0.869303
vt 0.016765 0.871482
vt 0.030078 0.874514
vt 0.533381 0.853850
vt 0.521786 0.855028
vt 0.255060 0.869303
vt 0.245152 0.871483
vt 0.231839 0.874515
vt 0.316231 0.900139
vt 0.327827 0.899206
vt 0.139870 0.895873
vt 0.148432 0.893792
vt 0.160350 0.891004
vt 0.042474 0.884970
vt 0.027144 0.880413
vt 0.584127 0.858248
vt 0.584127 0.868200
vt 0.575640 0.863717
vt 0.564046 0.862076
vt 0.219442 0.884970
vt 0.234772 0.880413
vt 0.513297 0.868200
vt 0.513297 0.858248
vt 0.521784 0.863717
vt 0.533378 0.862076
vt 0.789468 0.892963
vt 0.789471 0.877550
vt 0.801065 0.874633
vt 0.801063 0.889826
vt 0.809552 0.866664
vt 0.809552 0.881256
vt 0.099592 0.902161
vt 0.088444 0.898770
vt 0.758803 0.877550
vt 0.758806 0.892963
vt 0.747211 0.889826
vt 0.747209 0.874633
vt 0.738722 0.881256
vt 0.738722 0.866664
vt 0.162324 0.902161
vt 0.173472 0.898770
vt 0.106845 0.752311
vt 0.104932 0.712126
vt 0.116658 0.711021
vt 0.118594 0.751203
vt 0.265497 0.754628
vt 0.265504 0.714402
vt 0.274040 0.714098
vt 0.274017 0.754324
vt 0.285702 0.713986
vt 0.285654 0.754212
vt 0.155071 0.752311
vt 0.143323 0.751203
vt 0.336304 0.754628
vt 0.336308 0.794912
vt 0.327784 0.754324
vt 0.316147 0.754212
vt 0.225651 0.759038
vt 0.222718 0.718392
vt 0.234786 0.719554
vt 0.237798 0.760208
vt 0.243784 0.720446
vt 0.246854 0.761105
vt 0.521828 0.748250
vt 0.521852 0.708122
vt 0.533513 0.708096
vt 0.533466 0.748223
vt 0.036266 0.759038
vt 0.024118 0.760208
vt 0.015063 0.761105
vt 0.575596 0.748250
vt 0.563958 0.748223
vt 0.265493 0.794912
vt 0.156985 0.712126
vt 0.145258 0.711021
vt 0.336297 0.714402
vt 0.327761 0.714098
vt 0.316099 0.713986
vt 0.039198 0.718392
vt 0.027130 0.719554
vt 0.018132 0.720446
vt 0.575572 0.708122
vt 0.563911 0.708096
vt 0.099269 0.641589
vt 0.110997 0.640483
vt 0.265512 0.643651
vt 0.274073 0.643347
vt 0.285766 0.643235
vt 0.162647 0.641589
vt 0.150919 0.640483
vt 0.336289 0.643651
vt 0.327728 0.643347
vt 0.316035 0.643235
vt 0.533578 0.637411
vt 0.521884 0.637437
vt 0.242017 0.649200
vt 0.233055 0.648312
vt 0.221037 0.647154
vt 0.563846 0.637411
vt 0.575540 0.637437
vt 0.019899 0.649200
vt 0.028861 0.648312
vt 0.040880 0.647154
vt 0.089011 0.564998
vt 0.100766 0.563890
vt 0.265524 0.566581
vt 0.274116 0.566276
vt 0.285853 0.566165
vt 0.172906 0.564998
vt 0.161151 0.563890
vt 0.336277 0.566581
vt 0.327685 0.566276
vt 0.315948 0.566165
vt 0.533664 0.560244
vt 0.521927 0.560270
vt 0.243300 0.571754
vt 0.234351 0.570867
vt 0.222352 0.569711
vt 0.563760 0.560244
vt 0.575497 0.560270
vt 0.018616 0.571754
vt 0.027565 0.570867
vt 0.039564 0.569711
vt 0.563645 0.495531
vt 0.575439 0.495557
vt 0.013427 0.507234
vt 0.022385 0.506345
vt 0.034397 0.505188
vt 0.285968 0.501650
vt 0.274173 0.501762
vt 0.265539 0.502068
vt 0.089782 0.499921
vt 0.077975 0.501034
vt 0.227519 0.505188
vt 0.239531 0.506346
vt 0.248489 0.507234
vt 0.521985 0.495557
vt 0.533780 0.495531
vt 0.183941 0.501034
vt 0.172134 0.499922
vt 0.336262 0.502068
vt 0.327628 0.501762
vt 0.315833 0.501650
vt 0.563491 0.432381
vt 0.575363 0.432158
vt 0.003576 0.444516
vt 0.012464 0.442949
vt 0.024377 0.440866
vt 0.286121 0.432158
vt 0.274250 0.432517
vt 0.265560 0.433500
vt 0.074346 0.432157
vt 0.062667 0.434188
vt 0.237539 0.440866
vt 0.249452 0.442949
vt 0.258340 0.444516
vt 0.522062 0.432158
vt 0.533933 0.432381
vt 0.199249 0.434188
vt 0.187570 0.432158
vt 0.336241 0.433500
vt 0.327551 0.432517
vt 0.315680 0.432158
vt 0.343461 0.914595
vt 0.351563 0.906598
vt 0.354744 0.918542
vt 0.346642 0.926583
vt 0.363434 0.927286
vt 0.355332 0.935360
vt 0.375305 0.930486
vt 0.367203 0.938572
vt 0.412402 0.906598
vt 0.420504 0.914595
vt 0.417323 0.926583
vt 0.409221 0.918542
vt 0.408633 0.935360
vt 0.400531 0.927286
vt 0.396762 0.938572
vt 0.388660 0.930486
vt 0.367203 0.851954
vt 0.375305 0.860040
vt 0.363434 0.863237
vt 0.355332 0.855148
vt 0.354744 0.871971
vt 0.346642 0.863874
vt 0.351563 0.883902
vt 0.343461 0.875794
vt 0.388660 0.860040
vt 0.396762 0.851954
vt 0.408633 0.855148
vt 0.400531 0.863237
vt 0.417323 0.863874
vt 0.409221 0.871971
vt 0.420504 0.875794
vt 0.412402 0.883902
vt 0.753992 0.625920
vt 0.741495 0.511598
vt 0.753272 0.510806
vt 0.765824 0.625021
vt 0.897021 0.625045
vt 0.897001 0.511360
vt 0.905634 0.510456
vt 0.905711 0.624062
vt 0.917428 0.510125
vt 0.917582 0.623702
vt 0.806797 0.511598
vt 0.794300 0.625920
vt 0.782468 0.625021
vt 0.795019 0.510806
vt 0.951519 0.511360
vt 0.951498 0.625045
vt 0.942808 0.624062
vt 0.942885 0.510456
vt 0.930937 0.623702
vt 0.931092 0.510125
vt 0.970745 0.515551
vt 0.970899 0.629816
vt 0.959029 0.629593
vt 0.958952 0.515357
vt 0.859413 0.515190
vt 0.837947 0.629281
vt 0.828983 0.628579
vt 0.850507 0.514568
vt 0.816968 0.627654
vt 0.838572 0.513752
vt 0.984255 0.629816
vt 0.984409 0.515551
vt 0.996203 0.515357
vt 0.996126 0.629593
vt 0.710345 0.629281
vt 0.688879 0.515190
vt 0.697784 0.514568
vt 0.719309 0.628579
vt 0.709720 0.513752
vt 0.731323 0.627654
vt 0.931208 0.446345
vt 0.942943 0.446675
vt 0.951534 0.447575
vt 0.804867 0.446622
vt 0.816602 0.447411
vt 0.970629 0.451303
vt 0.958894 0.451111
vt 0.869321 0.451010
vt 0.860472 0.450392
vt 0.848613 0.449581
vt 0.984525 0.451303
vt 0.996261 0.451111
vt 0.678970 0.451010
vt 0.687820 0.450392
vt 0.699679 0.449581
vt 0.917312 0.446345
vt 0.905576 0.446675
vt 0.896985 0.447575
vt 0.743425 0.446622
vt 0.731690 0.447411
vt 0.984613 0.415070
vt 0.984679 0.378840
vt 0.996337 0.378678
vt 0.996305 0.414891
vt 0.673427 0.414827
vt 0.668271 0.378648
vt 0.677053 0.378112
vt 0.682238 0.414247
vt 0.688822 0.377413
vt 0.694045 0.413488
vt 0.917224 0.410198
vt 0.905532 0.410514
vt 0.896973 0.411378
vt 0.742911 0.410382
vt 0.731195 0.411122
vt 0.854247 0.413488
vt 0.859470 0.377413
vt 0.871239 0.378112
vt 0.866054 0.414247
vt 0.880020 0.378648
vt 0.874865 0.414827
vt 0.958850 0.414891
vt 0.958817 0.378678
vt 0.970476 0.378840
vt 0.970542 0.415070
vt 0.817097 0.411122
vt 0.805381 0.410382
vt 0.951546 0.411378
vt 0.942987 0.410514
vt 0.931295 0.410198
vt 0.917158 0.373971
vt 0.905499 0.374271
vt 0.896965 0.375092
vt 0.744689 0.374137
vt 0.732978 0.374818
vt 0.815314 0.374818
vt 0.803603 0.374137
vt 0.951555 0.375092
vt 0.943020 0.374271
vt 0.931361 0.373971
vt 0.984728 0.349475
vt 0.984765 0.320113
vt 0.996381 0.319977
vt 0.996362 0.349326
vt 0.665384 0.349316
vt 0.662883 0.319983
vt 0.671625 0.319520
vt 0.674143 0.348818
vt 0.683339 0.318921
vt 0.685881 0.348172
vt 0.917109 0.344499
vt 0.905475 0.344786
vt 0.896958 0.345569
vt 0.748921 0.344749
vt 0.737211 0.345379
vt 0.862411 0.348172
vt 0.864952 0.318921
vt 0.876667 0.319520
vt 0.874149 0.348818
vt 0.885408 0.319983
vt 0.882908 0.349316
vt 0.958792 0.349326
vt 0.958773 0.319977
vt 0.970389 0.320113
vt 0.970426 0.349475
vt 0.811080 0.345379
vt 0.799370 0.344749
vt 0.951562 0.345569
vt 0.943045 0.344786
vt 0.931411 0.344499
vt 0.917072 0.315001
vt 0.905456 0.315275
vt 0.896953 0.316024
vt 0.753923 0.315367
vt 0.742215 0.315949
vt 0.806076 0.315949
vt 0.794368 0.315366
vt 0.951567 0.316024
vt 0.943063 0.315275
vt 0.931448 0.315001
vt 0.867250 0.285598
vt 0.878949 0.286132
vt 0.887678 0.286547
vt 0.958760 0.286526
vt 0.970361 0.286644
vt 0.681042 0.285598
vt 0.669343 0.286132
vt 0.660613 0.286547
vt 0.996395 0.286526
vt 0.984793 0.286644
vt 0.752704 0.282378
vt 0.764376 0.281862
vt 0.896949 0.282162
vt 0.905442 0.281463
vt 0.917044 0.281207
vt 0.795588 0.282378
vt 0.783915 0.281862
vt 0.951570 0.282162
vt 0.943077 0.281463
vt 0.931476 0.281207
vt 0.984814 0.265237
vt 0.984828 0.243829
vt 0.996412 0.243719
vt 0.996405 0.265124
vt 0.659647 0.265151
vt 0.658682 0.243752
vt 0.667396 0.243360
vt 0.668367 0.264751
vt 0.679072 0.242856
vt 0.680053 0.264238
vt 0.917023 0.259693
vt 0.905432 0.259943
vt 0.896947 0.260624
vt 0.768064 0.260445
vt 0.756430 0.260939
vt 0.868239 0.264238
vt 0.869219 0.242856
vt 0.880896 0.243360
vt 0.879925 0.264751
vt 0.889610 0.243752
vt 0.888645 0.265151
vt 0.958749 0.265124
vt 0.958742 0.243719
vt 0.970326 0.243829
vt 0.970341 0.265237
vt 0.791862 0.260939
vt 0.780228 0.260445
vt 0.951573 0.260624
vt 0.943088 0.259943
vt 0.931496 0.259693
vt 0.917009 0.238260
vt 0.905425 0.238506
vt 0.896945 0.239179
vt 0.769441 0.239036
vt 0.757840 0.239519
vt 0.790452 0.239519
vt 0.778851 0.239036
vt 0.951575 0.239179
vt 0.943095 0.238506
vt 0.931511 0.238260
vt 0.984839 0.209456
vt 0.996418 0.209347
vt 0.658503 0.209382
vt 0.667212 0.208993
vt 0.678884 0.208495
vt 0.916998 0.203871
vt 0.905419 0.204116
vt 0.896943 0.204783
vt 0.770570 0.204659
vt 0.758994 0.205136
vt 0.869408 0.208495
vt 0.881079 0.208993
vt 0.889789 0.209382
vt 0.958737 0.209347
vt 0.970315 0.209456
vt 0.789297 0.205136
vt 0.777722 0.204659
vt 0.951576 0.204783
vt 0.943100 0.204116
vt 0.931522 0.203871
vt 0.984846 0.172079
vt 0.996421 0.171967
vt 0.659814 0.171992
vt 0.668522 0.171593
vt 0.680191 0.171082
vt 0.916991 0.166574
vt 0.905416 0.166821
vt 0.896942 0.167497
vt 0.768697 0.167280
vt 0.757139 0.167770
vt 0.868101 0.171082
vt 0.879770 0.171593
vt 0.888478 0.171992
vt 0.958733 0.171967
vt 0.970308 0.172079
vt 0.791153 0.167770
vt 0.779595 0.167280
vt 0.951577 0.167497
vt 0.943104 0.166821
vt 0.931529 0.166574
vt 0.867311 0.155291
vt 0.878977 0.155811
vt 0.887683 0.156216
vt 0.958731 0.156197
vt 0.970304 0.156312
vt 0.680981 0.155291
vt 0.669314 0.155811
vt 0.660608 0.156217
vt 0.996423 0.156198
vt 0.984850 0.156313
vt 0.755713 0.152012
vt 0.767260 0.151514
vt 0.896942 0.151795
vt 0.905414 0.151113
vt 0.916987 0.150863
vt 0.792579 0.152012
vt 0.781032 0.151514
vt 0.951578 0.151795
vt 0.943106 0.151113
vt 0.931533 0.150863
vt 0.984850 0.147231
vt 0.984851 0.003576
vt 0.996424 0.003598
vt 0.996423 0.147116
vt 0.660608 0.147135
vt 0.659522 0.003621
vt 0.668235 0.003588
vt 0.669314 0.146730
vt 0.679911 0.003576
vt 0.680981 0.146209
vt 0.916986 0.003576
vt 0.916987 0.141781
vt 0.905414 0.142031
vt 0.905413 0.003690
vt 0.896942 0.142714
vt 0.896942 0.003999
vt 0.766279 0.003588
vt 0.767260 0.142433
vt 0.755713 0.142931
vt 0.754724 0.003576
vt 0.867311 0.146209
vt 0.868380 0.003576
vt 0.880057 0.003588
vt 0.878977 0.146730
vt 0.888770 0.003621
vt 0.887683 0.147135
vt 0.958731 0.147116
vt 0.958731 0.003598
vt 0.970303 0.003576
vt 0.970304 0.147231
vt 0.793568 0.003576
vt 0.792579 0.142931
vt 0.781032 0.142433
vt 0.782012 0.003588
vt 0.951578 0.003999
vt 0.951578 0.142714
vt 0.943106 0.142031
vt 0.943106 0.003690
vt 0.931533 0.141781
vt 0.931534 0.003576
vt 0.812659 0.855778
vt 0.735615 0.855778
vt 0.735615 0.811216
vt 0.738722 0.796434
vt 0.747209 0.785613
vt 0.758803 0.781652
vt 0.789471 0.781652
vt 0.801065 0.785613
vt 0.809552 0.796434
vt 0.812659 0.811216
vt 0.819811 0.804935
vt 0.822912 0.793294
vt 0.831384 0.784772
vt 0.842956 0.781652
vt 0.857504 0.781652
vt 0.869077 0.784772
vt 0.877548 0.793294
vt 0.880649 0.804935
vt 0.880649 0.879769
vt 0.877548 0.891366
vt 0.869077 0.899855
vt 0.857504 0.902963
vt 0.842956 0.902963
vt 0.831384 0.899855
vt 0.822912 0.891366
vt 0.819811 0.879769
vt 0.395660 0.567277
vt 0.369212 0.567277
vt 0.373776 0.541996
vt 0.391096 0.541996
vt 0.442702 0.624414
vt 0.492006 0.624414
vt 0.490106 0.633756
vt 0.444602 0.633756
vt 0.437197 0.596387
vt 0.497511 0.596387
vt 0.493898 0.615072
vt 0.440810 0.615072
vt 0.288837 0.122382
vt 0.084802 0.122420
vt 0.051108 0.077103
vt 0.301287 0.077096
vt 0.456990 0.709844
vt 0.477718 0.709844
vt 0.474647 0.735160
vt 0.460061 0.735160
vt 0.284575 0.147832
vt 0.102811 0.147909
vt 0.552115 0.147909
vt 0.370352 0.147832
vt 0.366089 0.122382
vt 0.570125 0.122420
vt 0.449260 0.659133
vt 0.485448 0.659133
vt 0.480790 0.684502
vt 0.453918 0.684502
vt 0.386725 0.496960
vt 0.378146 0.496960
vt 0.382038 0.432158
vt 0.382834 0.432158
vt 0.471400 0.780205
vt 0.463308 0.780205
vt 0.353640 0.077096
vt 0.603819 0.077103
vt 0.467752 0.844952
vt 0.466956 0.844952
vt 0.636125 0.694892
vt 0.636921 0.694892
vt 0.636921 0.709891
vt 0.636125 0.709891
vt 0.636921 0.727529
vt 0.636125 0.727529
vt 0.636921 0.746076
vt 0.636125 0.746076
vt 0.636921 0.763719
vt 0.636125 0.763719
vt 0.636921 0.778730
vt 0.636125 0.778730
vt 0.173006 0.003576
vt 0.190647 0.003933
vt 0.205652 0.004611
vt 0.323887 0.011965
vt 0.003576 0.011966
vt 0.121812 0.004611
vt 0.136818 0.003933
vt 0.154458 0.003576
vt 0.636125 0.897022
vt 0.636921 0.897022
vt 0.636125 0.576719
vt 0.636921 0.576719
vt 0.500468 0.003576
vt 0.518108 0.003933
vt 0.533114 0.004611
vt 0.651350 0.011966
vt 0.331040 0.011965
vt 0.449274 0.004611
vt 0.464280 0.003933
vt 0.481920 0.003576
vt 0.151378 0.235152
vt 0.151877 0.234030
vt 0.153390 0.233817
vt 0.152278 0.232299
vt 0.152471 0.230423
vt 0.502456 0.230423
vt 0.502649 0.232299
vt 0.501536 0.233817
vt 0.503049 0.234030
vt 0.503549 0.235152
vt 0.352158 0.649101
vt 0.412714 0.649101
vt 0.412964 0.650972
vt 0.351907 0.650972
vt 0.413176 0.652700
vt 0.351696 0.652700
vt 0.413291 0.653822
vt 0.351581 0.653822
vt 0.152569 0.227838
vt 0.152507 0.225938
vt 0.153745 0.224442
vt 0.152209 0.224143
vt 0.151755 0.222934
vt 0.503172 0.222934
vt 0.502718 0.224143
vt 0.501182 0.224442
vt 0.502420 0.225938
vt 0.502358 0.227838
vt 0.412353 0.646524
vt 0.352519 0.646524
vt 0.352802 0.644631
vt 0.412069 0.644631
vt 0.353102 0.642846
vt 0.411770 0.642846
vt 0.353338 0.641644
vt 0.411534 0.641644
vt 0.405879 0.617101
vt 0.358993 0.617101
vt 0.364648 0.592557
vt 0.400224 0.592557
vt 0.281758 0.198773
vt 0.136288 0.198166
vt 0.120821 0.173398
vt 0.282166 0.173281
vt 0.281967 0.224264
vt 0.281974 0.233655
vt 0.518639 0.198166
vt 0.373169 0.198773
vt 0.372760 0.173281
vt 0.534106 0.173398
vt 0.372953 0.233655
vt 0.372959 0.224264
vt 0.145365 0.248792
vt 0.145685 0.245689
vt 0.147312 0.243175
vt 0.146347 0.242825
vt 0.147174 0.240968
vt 0.507753 0.240968
vt 0.508579 0.242825
vt 0.507615 0.243175
vt 0.509242 0.245689
vt 0.509562 0.248792
vt 0.414587 0.667464
vt 0.350285 0.667464
vt 0.350647 0.664367
vt 0.414225 0.664367
vt 0.350958 0.661508
vt 0.413914 0.661507
vt 0.351134 0.659651
vt 0.413738 0.659651
vt 0.281980 0.243045
vt 0.281993 0.261821
vt 0.144867 0.261917
vt 0.416174 0.680554
vt 0.348698 0.680554
vt 0.510060 0.261917
vt 0.372934 0.261821
vt 0.372946 0.243045
vt 0.144568 0.417771
vt 0.281707 0.417774
vt 0.281695 0.421984
vt 0.144555 0.421983
vt 0.281677 0.425005
vt 0.144537 0.425005
vt 0.658503 0.918747
vt 0.658527 0.781690
vt 0.662706 0.781652
vt 0.662706 0.918709
vt 0.724259 0.918709
vt 0.724259 0.781652
vt 0.728438 0.781690
vt 0.728463 0.918747
vt 0.510390 0.425005
vt 0.373250 0.425005
vt 0.373232 0.421984
vt 0.510371 0.421983
vt 0.373219 0.417774
vt 0.510359 0.417771
vt 0.363590 0.692336
vt 0.402105 0.693160
vt 0.401282 0.692336
vt 0.389709 0.689230
vt 0.375163 0.689230
vt 0.420417 0.840562
vt 0.417416 0.843666
vt 0.413212 0.844802
vt 0.351660 0.844802
vt 0.347456 0.843666
vt 0.344455 0.840562
vt 0.343461 0.836323
vt 0.355118 0.700821
vt 0.352017 0.712412
vt 0.352017 0.787191
vt 0.355118 0.798828
vt 0.363590 0.807347
vt 0.375163 0.810465
vt 0.389709 0.810465
vt 0.401282 0.807347
vt 0.409754 0.798828
vt 0.412855 0.787191
vt 0.412855 0.712412
vt 0.409754 0.700821
vt 0.421411 0.836323
vt 0.429465 0.436392
vt 0.432399 0.433292
vt 0.436578 0.432158
vt 0.498130 0.432158
vt 0.502309 0.433292
vt 0.505243 0.436392
vt 0.506145 0.440627
vt 0.486201 0.585553
vt 0.494672 0.577070
vt 0.497773 0.565481
vt 0.497773 0.490703
vt 0.494672 0.479070
vt 0.486200 0.470554
vt 0.474628 0.467437
vt 0.460080 0.467437
vt 0.448508 0.470554
vt 0.440036 0.479070
vt 0.436935 0.490703
vt 0.436935 0.565481
vt 0.440036 0.577070
vt 0.448508 0.585553
vt 0.428563 0.440627
vt 0.460080 0.588658
vt 0.474628 0.588658
vt 0.611325 0.569567
vt 0.599752 0.569464
vt 0.599752 0.432438
vt 0.611324 0.432541
vt 0.598929 0.569437
vt 0.591280 0.569183
vt 0.591280 0.432158
vt 0.765215 0.636433
vt 0.765213 0.773579
vt 0.753709 0.773694
vt 0.753712 0.636549
vt 0.628973 0.576719
vt 0.628972 0.713865
vt 0.617399 0.713897
vt 0.617400 0.576751
vt 0.667243 0.637310
vt 0.667244 0.774456
vt 0.658503 0.774500
vt 0.658503 0.637355
vt 0.678955 0.637218
vt 0.678959 0.774363
vt 0.783870 0.636549
vt 0.783873 0.773694
vt 0.772369 0.773579
vt 0.772367 0.636433
vt 0.645916 0.432158
vt 0.645916 0.569183
vt 0.637444 0.569464
vt 0.637444 0.432438
vt 0.625871 0.569567
vt 0.625872 0.432541
vt 0.870339 0.637310
vt 0.870338 0.774455
vt 0.858623 0.774363
vt 0.858627 0.637218
vt 0.879079 0.637355
vt 0.879079 0.774500
vt 0.602852 0.576751
vt 0.602853 0.713897
vt 0.591280 0.713865
vt 0.591280 0.576719
s 1
usemtl axe
f 34/1/1 5/2/2 7/3/3 36/4/4
f 36/4/4 7/3/3 8/5/5 35/6/6
f 35/7/6 8/8/5 6/9/7 33/10/8
f 38/11/9 25/12/10 27/13/11 40/14/12
f 40/15/12 27/16/11 28/17/13 39/18/14
f 39/18/14 28/17/13 26/19/15 37/20/16
f 42/21/17 13/22/18 15/23/19 44/24/20
f 44/25/20 15/26/19 16/27/21 43/28/22
f 43/28/22 16/27/21 14/29/23 41/30/24
f 46/31/25 21/32/26 23/33/27 48/34/28
f 48/35/28 23/36/27 24/37/29 47/38/30
f 47/38/30 24/37/29 22/39/31 45/40/32
f 2/41/33 34/1/1 36/4/4 4/42/34
f 4/42/34 36/4/4 35/6/6 3/43/35
f 3/44/35 35/7/6 33/10/8 1/45/36
f 30/46/37 38/11/9 40/14/12 32/47/38
f 32/48/38 40/15/12 39/18/14 31/49/39
f 31/49/39 39/18/14 37/20/16 29/50/40
f 10/51/41 42/21/17 44/24/20 12/52/42
f 12/53/42 44/25/20 43/28/22 11/54/43
f 11/54/43 43/28/22 41/30/24 9/55/44
f 18/56/45 46/31/25 48/34/28 20/57/46
f 20/58/46 48/35/28 47/38/30 19/59/47
f 19/59/47 47/38/30 45/40/32 17/60/48
f 21/32/26 57/61/49 59/62/50 23/33/27
f 23/36/27 59/63/50 60/64/51 24/37/29
f 24/37/29 60/64/51 58/65/52 22/39/31
f 62/66/53 30/46/37 32/47/38 64/67/54
f 64/68/54 32/48/38 31/49/39 63/69/55
f 63/69/55 31/49/39 29/50/40 61/70/56
f 13/22/18 53/71/57 55/72/58 15/23/19
f 15/26/19 55/73/58 56/74/59 16/27/21
f 16/27/21 56/74/59 54/75/60 14/29/23
f 50/76/61 6/9/7 8/8/5 52/77/62
f 52/78/62 8/5/5 7/3/3 51/79/63
f 51/79/63 7/3/3 5/2/2 49/80/64
f 61/70/56 78/81/65 80/82/66 63/69/55
f 63/83/55 80/84/66 79/85/67 64/67/54
f 64/67/54 79/85/67 77/86/68 62/66/53
f 69/87/69 54/75/60 56/74/59 71/88/70
f 71/89/70 56/90/59 55/72/58 72/91/71
f 72/91/71 55/72/58 53/71/57 70/92/72
f 57/93/73 74/94/74 76/95/75 59/96/50
f 59/96/50 76/95/75 75/97/76 60/98/51
f 60/64/51 75/99/76 73/100/77 58/65/52
f 65/101/78 50/102/79 52/103/62 67/104/80
f 67/104/80 52/103/62 51/105/63 68/106/81
f 68/107/81 51/79/63 49/80/64 66/108/82
f 98/109/83 89/110/84 91/111/85 100/112/86
f 100/113/86 91/114/85 92/115/87 99/116/88
f 99/116/88 92/115/87 90/117/89 97/118/90
f 102/119/91 2/41/33 4/42/34 104/120/92
f 104/121/92 4/122/34 3/44/35 103/123/93
f 103/123/93 3/44/35 1/45/36 101/124/94
f 106/125/95 85/126/96 87/127/97 108/128/98
f 108/128/98 87/127/97 88/129/99 107/130/100
f 107/131/100 88/132/99 86/133/101 105/134/102
f 110/135/103 26/19/15 28/17/13 112/136/104
f 112/136/104 28/17/13 27/16/11 111/137/105
f 111/138/105 27/13/11 25/12/10 109/139/106
f 17/60/48 98/109/83 100/112/86 19/59/47
f 19/140/47 100/113/86 99/116/88 20/57/46
f 20/57/46 99/116/88 97/118/90 18/56/45
f 82/141/107 102/119/91 104/120/92 84/142/108
f 84/143/108 104/121/92 103/123/93 83/144/109
f 83/144/109 103/123/93 101/124/94 81/145/110
f 9/55/44 106/125/95 108/128/98 11/54/43
f 11/54/43 108/128/98 107/130/100 12/53/42
f 12/52/42 107/131/100 105/134/102 10/51/41
f 94/146/111 110/135/103 112/136/104 96/147/112
f 96/147/112 112/136/104 111/137/105 95/148/113
f 95/149/113 111/138/105 109/139/106 93/150/114
f 89/110/84 121/151/115 123/152/116 91/111/85
f 91/114/85 123/153/116 124/154/117 92/115/87
f 92/115/87 124/154/117 122/155/118 90/117/89
f 114/156/119 82/141/107 84/142/108 116/157/120
f 116/158/120 84/143/108 83/144/109 115/159/121
f 115/159/121 83/144/109 81/145/110 113/160/122
f 118/161/123 86/133/101 88/132/99 120/162/124
f 120/163/124 88/129/99 87/127/97 119/164/125
f 119/164/125 87/127/97 85/126/96 117/165/126
f 93/150/114 125/166/127 127/167/128 95/149/113
f 95/148/113 127/168/128 128/169/129 96/147/112
f 96/147/112 128/169/129 126/170/130 94/146/111
f 121/151/115 137/171/131 139/172/132 123/152/116
f 123/153/116 139/173/132 140/174/133 124/154/117
f 124/154/117 140/174/133 138/175/134 122/155/118
f 130/176/135 114/156/119 116/157/120 132/177/136
f 132/178/136 116/158/120 115/159/121 131/179/137
f 131/179/137 115/159/121 113/160/122 129/180/138
f 134/181/139 118/161/123 120/162/124 136/182/140
f 136/183/140 120/163/124 119/164/125 135/184/141
f 135/184/141 119/164/125 117/165/126 133/185/142
f 125/166/127 141/186/143 143/187/144 127/167/128
f 127/168/128 143/188/144 144/189/145 128/169/129
f 128/169/129 144/189/145 142/190/146 126/170/130
f 141/186/143 157/191/147 159/192/148 143/187/144
f 143/188/144 159/193/148 160/194/149 144/189/145
f 144/189/145 160/194/149 158/195/150 142/190/146
f 154/196/151 138/175/134 140/174/133 156/197/152
f 156/197/152 140/174/133 139/173/132 155/198/153
f 155/199/153 139/172/132 137/171/131 153/200/154
f 133/185/142 149/201/155 151/202/156 135/184/141
f 135/184/141 151/202/156 152/203/157 136/183/140
f 136/182/140 152/204/157 150/205/158 134/181/139
f 146/206/159 130/176/135 132/177/136 148/207/160
f 148/208/160 132/178/136 131/179/137 147/209/161
f 147/209/161 131/179/137 129/180/138 145/210/162
f 157/191/147 181/211/163 183/212/164 159/192/148
f 159/193/148 183/213/164 184/214/165 160/194/149
f 160/194/149 184/214/165 182/215/166 158/195/150
f 190/216/167 154/196/151 156/197/152 192/217/168
f 192/217/168 156/197/152 155/198/153 191/218/169
f 191/219/169 155/199/153 153/200/154 189/220/170
f 149/201/155 177/221/171 179/222/172 151/202/156
f 151/202/156 179/222/172 180/223/173 152/203/157
f 152/204/157 180/224/173 178/225/174 150/205/158
f 186/226/175 146/206/159 148/207/160 188/227/176
f 188/228/176 148/208/160 147/209/161 187/229/177
f 187/229/177 147/209/161 145/210/162 185/230/178
f 177/231/179 165/232/179 167/233/179 179/234/179
f 179/234/179 167/233/179 168/235/179 180/236/179
f 180/236/179 168/235/179 166/237/179 178/238/179
f 174/239/179 182/240/179 184/241/179 176/242/179
f 176/242/179 184/241/179 183/243/179 175/244/179
f 175/244/179 183/243/179 181/245/179 173/246/179
f 185/247/179 161/248/179 163/249/179 187/250/179
f 187/250/179 163/249/179 164/251/179 188/252/179
f 188/252/179 164/251/179 162/253/179 186/254/179
f 170/255/179 190/256/179 192/257/179 172/258/179
f 172/258/179 192/257/179 191/259/179 171/260/179
f 171/260/179 191/259/179 189/261/179 169/262/179
f 169/263/180 205/264/181 207/265/182 171/266/183
f 171/267/183 207/268/182 208/269/184 172/270/185
f 172/270/185 208/269/184 206/271/186 170/272/187
f 202/273/188 162/274/189 164/275/190 204/276/191
f 204/277/191 164/278/190 163/279/192 203/280/193
f 203/280/193 163/279/192 161/281/194 201/282/195
f 194/283/196 166/284/197 168/285/198 196/286/199
f 196/287/199 168/288/198 167/289/200 195/290/201
f 195/290/201 167/289/200 165/291/202 193/292/203
f 173/293/204 197/294/205 199/295/206 175/296/207
f 175/297/207 199/298/206 200/299/208 176/300/209
f 176/300/209 200/299/208 198/301/210 174/302/211
f 201/282/195 217/303/212 219/304/213 203/280/193
f 203/280/193 219/304/213 220/305/214 204/277/191
f 204/276/191 220/306/214 218/307/215 202/273/188
f 210/308/216 194/283/196 196/286/199 212/309/217
f 212/310/217 196/287/199 195/290/201 211/311/218
f 211/311/218 195/290/201 193/292/203 209/312/219
f 197/294/205 213/313/220 215/314/221 199/295/206
f 199/298/206 215/315/221 216/316/222 200/299/208
f 200/299/208 216/316/222 214/317/223 198/301/210
f 222/318/224 206/271/186 208/269/184 224/319/225
f 224/319/225 208/269/184 207/268/182 223/320/226
f 223/321/226 207/265/182 205/264/181 221/322/227
f 242/323/228 229/324/229 231/325/230 244/326/231
f 244/327/231 231/328/230 232/329/232 243/330/233
f 243/330/233 232/329/232 230/331/234 241/332/235
f 246/333/236 222/318/224 224/319/225 248/334/237
f 248/334/237 224/319/225 223/320/226 247/335/238
f 247/336/238 223/321/226 221/322/227 245/337/239
f 250/338/240 225/339/241 227/340/242 252/341/243
f 252/341/243 227/340/242 228/342/244 251/343/245
f 251/344/245 228/345/244 226/346/246 249/347/247
f 254/348/248 218/307/215 220/306/214 256/349/249
f 256/350/249 220/305/214 219/304/213 255/351/250
f 255/351/250 219/304/213 217/303/212 253/352/251
f 213/313/220 242/323/228 244/326/231 215/314/221
f 215/315/221 244/327/231 243/330/233 216/316/222
f 216/316/222 243/330/233 241/332/235 214/317/223
f 238/353/252 246/333/236 248/334/237 240/354/253
f 240/354/253 248/334/237 247/335/238 239/355/47
f 239/356/47 247/336/238 245/337/239 237/357/254
f 209/312/219 250/338/240 252/341/243 211/311/218
f 211/311/218 252/341/243 251/343/245 212/310/217
f 212/309/217 251/344/245 249/347/247 210/308/216
f 234/358/255 254/348/248 256/349/249 236/359/34
f 236/360/34 256/350/249 255/351/250 235/361/256
f 235/361/256 255/351/250 253/352/251 233/362/257
f 274/363/258 261/364/259 263/365/260 276/366/261
f 276/367/261 263/368/260 264/369/262 275/370/263
f 275/370/263 264/369/262 262/371/264 273/372/265
f 278/373/266 238/353/252 240/354/253 280/374/267
f 280/374/267 240/354/253 239/355/47 279/375/268
f 279/376/268 239/356/47 237/357/254 277/377/269
f 282/378/270 257/379/271 259/380/272 284/381/273
f 284/381/273 259/380/272 260/382/274 283/383/275
f 283/384/275 260/385/274 258/386/276 281/387/277
f 286/388/278 234/358/255 236/359/34 288/389/279
f 288/390/279 236/360/34 235/361/256 287/391/280
f 287/391/280 235/361/256 233/362/257 285/392/281
f 229/324/229 274/363/258 276/366/261 231/325/230
f 231/328/230 276/367/261 275/370/263 232/329/232
f 232/329/232 275/370/263 273/372/265 230/331/234
f 270/393/282 278/373/266 280/374/267 272/394/283
f 272/394/283 280/374/267 279/375/268 271/395/284
f 271/396/284 279/376/268 277/377/269 269/397/285
f 225/339/241 282/378/270 284/381/273 227/340/242
f 227/340/242 284/381/273 283/383/275 228/342/244
f 228/345/244 283/384/275 281/387/277 226/346/246
f 266/398/286 286/388/278 288/389/279 268/399/287
f 268/400/287 288/390/279 287/391/280 267/401/288
f 267/401/288 287/391/280 285/392/281 265/402/289
f 257/379/271 289/403/290 291/404/291 259/380/272
f 259/380/272 291/404/291 292/405/292 260/382/274
f 260/385/274 292/406/292 290/407/293 258/386/276
f 294/408/294 262/371/264 264/369/262 296/409/295
f 296/409/295 264/369/262 263/368/260 295/410/296
f 295/411/296 263/365/260 261/364/259 293/412/297
f 269/397/285 301/413/298 303/414/299 271/396/284
f 271/395/284 303/415/299 304/416/300 272/394/283
f 272/394/283 304/416/300 302/417/301 270/393/282
f 298/418/302 266/398/286 268/399/287 300/419/303
f 300/420/303 268/400/287 267/401/288 299/421/304
f 299/421/304 267/401/288 265/402/289 297/422/305
f 322/423/306 309/424/307 311/425/308 324/426/309
f 324/427/309 311/428/308 312/429/310 323/430/311
f 323/430/311 312/429/310 310/431/312 321/432/313
f 326/433/314 302/417/301 304/416/300 328/434/315
f 328/434/315 304/416/300 303/415/299 327/435/316
f 327/436/316 303/414/299 301/413/298 325/437/317
f 330/438/318 305/439/319 307/440/320 332/441/321
f 332/441/321 307/440/320 308/442/322 331/443/323
f 331/444/323 308/445/322 306/446/324 329/447/325
f 334/448/326 298/418/302 300/419/303 336/449/327
f 336/450/327 300/420/303 299/421/304 335/451/328
f 335/451/328 299/421/304 297/422/305 333/452/329
f 293/412/297 322/423/306 324/426/309 295/411/296
f 295/410/296 324/427/309 323/430/311 296/409/295
f 296/409/295 323/430/311 321/432/313 294/408/294
f 318/453/330 326/433/314 328/434/315 320/454/331
f 320/454/331 328/434/315 327/435/316 319/455/332
f 319/456/332 327/436/316 325/437/317 317/457/333
f 289/403/290 330/438/318 332/441/321 291/404/291
f 291/404/291 332/441/321 331/443/323 292/405/292
f 292/406/292 331/444/323 329/447/325 290/407/293
f 314/458/334 334/448/326 336/449/327 316/459/335
f 316/460/335 336/450/327 335/451/328 315/461/336
f 315/461/336 335/451/328 333/452/329 313/462/337
f 309/424/307 341/463/338 343/464/339 311/425/308
f 311/428/308 343/465/339 344/466/340 312/429/310
f 312/429/310 344/466/340 342/467/341 310/431/312
f 350/468/342 318/453/330 320/454/331 352/469/343
f 352/469/343 320/454/331 319/455/332 351/470/344
f 351/471/344 319/456/332 317/457/333 349/472/345
f 305/439/319 337/473/346 339/474/347 307/440/320
f 307/440/320 339/474/347 340/475/348 308/442/322
f 308/445/322 340/476/348 338/477/349 306/446/324
f 346/478/350 314/458/334 316/459/335 348/479/351
f 348/480/351 316/460/335 315/461/336 347/481/352
f 347/481/352 315/461/336 313/462/337 345/482/353
f 341/463/338 357/483/354 359/484/355 343/464/339
f 343/465/339 359/485/355 360/486/356 344/466/340
f 344/466/340 360/486/356 358/487/357 342/467/341
f 366/488/358 350/468/342 352/469/343 368/489/359
f 368/489/359 352/469/343 351/470/344 367/490/360
f 367/491/360 351/471/344 349/472/345 365/492/361
f 337/473/346 353/493/362 355/494/363 339/474/347
f 339/474/347 355/494/363 356/495/364 340/475/348
f 340/476/348 356/496/364 354/497/365 338/477/349
f 362/498/366 346/478/350 348/479/351 364/499/367
f 364/500/367 348/480/351 347/481/352 363/501/368
f 363/501/368 347/481/352 345/482/353 361/502/369
f 353/493/362 369/503/370 371/504/371 355/494/363
f 355/494/363 371/504/371 372/505/372 356/495/364
f 356/496/364 372/506/372 370/507/373 354/497/365
f 374/508/374 358/487/357 360/486/356 376/509/375
f 376/509/375 360/486/356 359/485/355 375/510/376
f 375/511/376 359/484/355 357/483/354 373/512/377
f 365/492/361 381/513/378 383/514/379 367/491/360
f 367/490/360 383/515/379 384/516/380 368/489/359
f 368/489/359 384/516/380 382/517/381 366/488/358
f 378/518/382 362/498/366 364/499/367 380/519/383
f 380/520/383 364/500/367 363/501/368 379/521/384
f 379/521/384 363/501/368 361/502/369 377/522/385
f 373/523/377 390/524/386 392/525/387 375/526/376
f 375/527/376 392/528/387 391/529/388 376/530/375
f 376/530/375 391/529/388 389/531/389 374/532/374
f 397/533/390 382/534/381 384/535/380 399/536/391
f 399/536/391 384/535/380 383/537/379 400/538/392
f 400/539/392 383/540/379 381/541/378 398/542/393
f 369/543/370 386/544/394 388/545/395 371/546/371
f 371/546/371 388/545/395 387/547/396 372/548/372
f 372/549/372 387/550/396 385/551/397 370/552/373
f 393/553/398 378/554/382 380/555/383 395/556/399
f 395/557/399 380/558/383 379/559/384 396/560/400
f 396/560/400 379/559/384 377/561/385 394/562/401
f 9/55/44 2/41/33 102/119/91 106/125/95
f 34/1/1 2/41/33 9/55/44 41/30/24
f 1/45/36 18/56/45 97/118/90 101/124/94
f 46/31/25 18/56/45 1/45/36 33/10/8
f 21/32/26 6/9/7 50/76/61 57/61/49
f 21/32/26 46/31/25 33/10/8 6/9/7
f 5/2/2 34/1/1 41/30/24 14/29/23
f 5/2/2 14/29/23 54/75/60 49/80/64
f 25/12/10 10/51/41 105/134/102 109/139/106
f 42/21/17 10/51/41 25/12/10 38/11/9
f 13/22/18 42/21/17 38/11/9 30/46/37
f 13/22/18 30/46/37 62/66/53 53/71/57
f 17/60/48 26/19/15 110/135/103 98/109/83
f 37/20/16 26/19/15 17/60/48 45/40/32
f 29/50/40 37/20/16 45/40/32 22/39/31
f 29/50/40 22/39/31 58/65/52 61/70/56
f 57/93/73 50/102/79 65/101/78 74/94/74
f 49/80/64 54/75/60 69/87/69 66/108/82
f 53/71/57 62/66/53 77/86/68 70/92/72
f 61/70/56 58/65/52 73/100/77 78/81/65
f 73/563/402 75/97/403 76/95/75 74/94/74 65/101/78 67/104/80 68/106/404 66/564/405 69/565/406 71/566/70 72/567/71 70/568/72 77/569/68 79/570/67 80/571/66 78/572/407
f 85/126/96 82/141/107 114/156/119 117/165/126
f 106/125/95 102/119/91 82/141/107 85/126/96
f 81/145/110 90/117/89 122/155/118 113/160/122
f 101/124/94 97/118/90 90/117/89 81/145/110
f 93/150/114 86/133/101 118/161/123 125/166/127
f 109/139/106 105/134/102 86/133/101 93/150/114
f 89/110/84 94/146/111 126/170/130 121/151/115
f 98/109/83 110/135/103 94/146/111 89/110/84
f 117/165/126 114/156/119 130/176/135 133/185/142
f 113/160/122 122/155/118 138/175/134 129/180/138
f 125/166/127 118/161/123 134/181/139 141/186/143
f 121/151/115 126/170/130 142/190/146 137/171/131
f 133/185/142 130/176/135 146/206/159 149/201/155
f 129/180/138 138/175/134 154/196/151 145/210/162
f 141/186/143 134/181/139 150/205/158 157/191/147
f 137/171/131 142/190/146 158/195/150 153/200/154
f 149/201/155 146/206/159 186/226/175 177/221/171
f 145/210/162 154/196/151 190/216/167 185/230/178
f 157/191/147 150/205/158 178/225/174 181/211/163
f 153/200/154 158/195/150 182/215/166 189/220/170
f 165/291/202 162/274/189 202/273/188 193/292/203
f 162/253/179 165/232/179 177/231/179 186/254/179
f 161/281/194 170/272/187 206/271/186 201/282/195
f 170/255/179 161/248/179 185/247/179 190/256/179
f 173/293/204 166/284/197 194/283/196 197/294/205
f 166/237/179 173/246/179 181/245/179 178/238/179
f 169/263/180 174/302/211 198/301/210 205/264/181
f 174/239/179 169/262/179 189/261/179 182/240/179
f 197/294/205 194/283/196 210/308/216 213/313/220
f 193/292/203 202/273/188 218/307/215 209/312/219
f 205/264/181 198/301/210 214/317/223 221/322/227
f 201/282/195 206/271/186 222/318/224 217/303/212
f 213/313/220 210/308/216 249/347/247 242/323/228
f 209/312/219 218/307/215 254/348/248 250/338/240
f 221/322/227 214/317/223 241/332/235 245/337/239
f 217/303/212 222/318/224 246/333/236 253/352/251
f 229/324/229 226/346/246 281/387/277 274/363/258
f 242/323/228 249/347/247 226/346/246 229/324/229
f 225/339/241 234/358/255 286/388/278 282/378/270
f 250/338/240 254/348/248 234/358/255 225/339/241
f 245/337/239 241/332/235 230/331/234 237/357/254
f 237/357/254 230/331/234 273/372/265 277/377/269
f 233/362/257 238/353/252 278/373/266 285/392/281
f 253/352/251 246/333/236 238/353/252 233/362/257
f 274/363/258 281/387/277 258/386/276 261/364/259
f 257/379/271 266/398/286 298/418/302 289/403/290
f 282/378/270 286/388/278 266/398/286 257/379/271
f 261/364/259 258/386/276 290/407/293 293/412/297
f 269/397/285 262/371/264 294/408/294 301/413/298
f 277/377/269 273/372/265 262/371/264 269/397/285
f 265/402/289 270/393/282 302/417/301 297/422/305
f 285/392/281 278/373/266 270/393/282 265/402/289
f 293/412/297 290/407/293 329/447/325 322/423/306
f 289/403/290 298/418/302 334/448/326 330/438/318
f 301/413/298 294/408/294 321/432/313 325/437/317
f 297/422/305 302/417/301 326/433/314 333/452/329
f 309/424/307 306/446/324 338/477/349 341/463/338
f 322/423/306 329/447/325 306/446/324 309/424/307
f 305/439/319 314/458/334 346/478/350 337/473/346
f 330/438/318 334/448/326 314/458/334 305/439/319
f 325/437/317 321/432/313 310/431/312 317/457/333
f 317/457/333 310/431/312 342/467/341 349/472/345
f 313/462/337 318/453/330 350/468/342 345/482/353
f 333/452/329 326/433/314 318/453/330 313/462/337
f 341/463/338 338/477/349 354/497/365 357/483/354
f 337/473/346 346/478/350 362/498/366 353/493/362
f 349/472/345 342/467/341 358/487/357 365/492/361
f 345/482/353 350/468/342 366/488/358 361/502/369
f 353/493/362 362/498/366 378/518/382 369/503/370
f 357/483/354 354/497/365 370/507/373 373/512/377
f 365/492/361 358/487/357 374/508/374 381/513/378
f 361/502/369 366/488/358 382/517/381 377/522/385
f 373/523/377 370/552/373 385/551/397 390/524/386
f 369/543/370 378/554/382 393/553/398 386/544/394
f 381/541/378 374/532/374 389/531/389 398/542/393
f 377/561/385 382/534/381 397/533/390 394/562/401
f 393/573/408 395/574/408 396/575/408 394/576/408 397/577/408 399/578/408 400/579/408 398/580/408 389/581/408 391/582/408 392/583/408 390/584/408 385/585/408 387/586/408 388/587/408 386/588/408
f 485/589/409 486/590/409 413/591/410 411/592/410
f 410/593/411 409/594/411 405/595/412 406/596/412
f 404/597/413 402/598/413 407/599/411 408/600/411
f 408/600/411 407/599/411 409/594/411 410/593/411
f 412/601/414 411/602/415 419/603/416 420/604/417
f 487/605/418 488/606/418 412/607/419 414/608/419
f 488/609/420 485/610/421 411/602/415 412/601/414
f 486/611/422 487/612/423 414/613/424 413/614/425
f 491/615/426 492/616/426 417/617/427 418/618/427
f 419/619/428 421/620/428 425/621/429 423/622/429
f 414/608/419 412/607/419 420/623/430 422/624/430
f 411/592/410 413/591/410 421/620/428 419/619/428
f 413/614/425 414/613/424 422/625/431 421/626/432
f 422/624/430 420/623/430 424/627/433 426/628/433
f 433/629/434 428/630/434 432/631/435 435/632/435
f 435/632/435 432/631/435 431/633/436 436/634/436
f 436/634/436 431/633/436 430/635/437 437/636/437
f 437/636/437 430/635/437 429/637/438 438/638/438
f 438/638/438 429/637/438 427/639/439 434/640/439
f 431/641/440 432/642/440 428/643/440 424/644/440 420/604/417 419/603/416 423/645/440 427/646/440 429/647/440 430/648/440
f 425/649/441 434/640/439 427/639/439 423/650/441
f 433/629/434 426/651/442 424/652/442 428/630/434
f 437/653/443 438/654/443 434/655/443 425/656/443 421/626/432 422/625/431 426/657/443 433/658/443 435/659/443 436/660/443
f 439/661/444 442/662/445 441/663/446
f 442/662/445 443/664/447 441/663/446
f 443/664/447 440/665/448 441/663/446
f 444/666/449 447/667/450 446/668/451
f 447/667/450 448/669/452 446/668/451
f 448/669/452 445/670/453 446/668/451
f 444/671/454 440/672/454 443/673/455 447/674/455
f 447/674/455 443/673/455 442/675/456 448/676/456
f 448/676/456 442/675/456 439/677/457 445/678/457
f 449/679/458 452/680/459 451/681/460
f 452/680/459 453/682/461 451/681/460
f 453/682/461 450/683/462 451/681/460
f 454/684/463 457/685/464 456/686/465
f 457/685/464 458/687/466 456/686/465
f 458/687/466 455/688/467 456/686/465
f 449/689/468 455/690/468 458/691/469 452/692/469
f 452/692/469 458/691/469 457/693/470 453/694/470
f 453/694/470 457/693/470 454/695/471 450/696/471
f 440/672/454 444/671/454 455/690/468 449/689/468
f 489/697/472 490/698/472 415/699/473 416/700/473
f 492/701/474 489/702/475 416/703/476 417/704/477
f 451/681/460 405/705/478 409/706/479 441/663/446 440/665/448 449/679/458
f 490/707/480 491/708/481 418/709/482 415/710/483
f 456/686/465 455/688/467 444/666/449 446/668/451 410/711/484 406/712/485
f 459/713/486 462/714/487 461/715/488
f 462/714/487 463/716/489 461/715/488
f 463/716/489 460/717/490 461/715/488
f 464/718/491 467/719/492 466/720/493
f 467/719/492 468/721/494 466/720/493
f 468/721/494 465/722/495 466/720/493
f 459/723/496 465/724/496 468/725/497 462/726/497
f 462/726/497 468/725/497 467/727/498 463/728/498
f 463/728/498 467/727/498 464/729/499 460/730/499
f 407/731/500 402/732/501 401/733/502 459/713/486 461/715/488
f 460/717/490 439/661/444 441/663/446 409/706/479 407/731/500 461/715/488
f 401/734/503 403/735/503 465/724/496 459/723/496
f 460/730/499 464/729/499 445/678/457 439/677/457
f 465/722/495 403/736/504 404/737/505 408/738/506 466/720/493
f 464/718/491 466/720/493 408/738/506 410/711/484 446/668/451 445/670/453
f 469/739/507 474/740/508 476/741/509 471/742/510
f 471/742/510 476/741/509 475/743/511 472/744/512
f 472/745/512 475/746/511 473/747/513 470/748/513
f 477/749/514 482/750/514 484/751/515 479/752/516
f 479/753/516 484/754/515 483/755/517 480/756/518
f 480/756/518 483/755/517 481/757/519 478/758/520
f 501/759/521 403/735/503 401/734/503 493/760/521 494/761/521 495/762/521 500/763/521
f 471/764/522 472/765/522 470/766/522 477/767/522 479/768/522 480/769/522 478/770/522 403/735/503 501/759/521 499/771/522 497/772/522 498/773/522 496/774/522 506/775/522 507/776/522 508/777/522 509/778/522 504/779/522 503/780/522 502/781/522 505/782/522 493/760/521 401/734/503 469/783/522
f 401/733/502 402/732/501 474/740/508 469/739/507
f 470/748/513 473/747/513 482/750/514 477/749/514
f 483/784/523 484/785/523 482/786/523 473/787/523 475/788/523 476/789/523 474/790/523 402/598/413 517/791/523 512/792/523 510/793/523 511/794/523 513/795/523 519/796/523 520/797/523 524/798/523 525/799/523 521/800/523 522/801/523 518/802/523 523/803/523 515/804/523 404/597/413 481/805/523
f 517/791/523 402/598/413 404/597/413 515/804/523 514/806/523 516/807/523
f 478/758/520 481/757/519 404/737/505 403/736/504
f 415/710/483 418/709/482 487/612/423 486/611/422
f 417/704/477 416/703/476 485/610/421 488/609/420
f 418/618/427 417/617/427 488/606/418 487/605/418
f 416/700/473 415/699/473 486/590/409 485/589/409
f 450/696/471 454/695/471 490/698/472 489/697/472
f 406/596/412 405/595/412 492/616/426 491/615/426
f 450/683/462 489/702/475 492/701/474 405/705/478 451/681/460
f 454/684/463 456/686/465 406/712/485 491/708/481 490/707/480
f 495/808/524 494/809/525 517/810/526 516/811/527
f 517/810/526 494/809/525 493/812/528 505/813/529 512/814/530
f 512/815/530 505/816/529 502/817/531 510/818/532
f 519/819/533 509/820/534 508/821/535 520/822/536
f 513/823/537 504/824/538 509/825/534 519/826/533
f 511/827/539 503/828/540 504/824/538 513/823/537
f 518/829/541 497/830/542 499/831/543 523/832/544
f 523/833/544 499/834/543 501/835/545 515/836/546
f 501/835/545 500/837/547 514/838/548 515/836/546
f 521/839/549 496/840/550 498/841/551 522/842/552
f 525/843/553 506/844/554 496/840/550 521/839/549
f 524/845/555 507/846/556 506/847/554 525/848/553
f 500/837/547 495/808/524 516/811/527 514/838/548
f 498/841/551 497/830/542 518/829/541 522/842/552
f 510/818/532 502/817/531 503/828/540 511/827/539
f 520/822/536 508/821/535 507/846/556 524/845/555
