# Blender 5.0.0
# www.blender.org
mtllib white_tile.mtl
o white_tile
v -0.500000 0.000000 0.500000
v 0.336378 0.000493 0.316732
v -0.500000 0.000000 -0.500000
v 0.500000 0.000000 0.500000
v 0.363633 0.000493 0.328021
v 0.500000 0.000000 -0.500000
v -0.426422 0.060000 0.460000
v 0.374922 0.000493 0.355275
v -0.460000 0.060000 0.426422
v -0.483743 0.060000 0.483743
v 0.363633 0.000493 0.382530
v -0.443211 0.060000 0.455501
v -0.455501 0.060000 0.443211
v 0.336378 0.000493 0.393819
v -0.460000 0.060000 -0.426422
v -0.426422 0.060000 -0.460000
v 0.309124 0.000493 0.382530
v -0.483743 0.060000 -0.483743
v -0.455501 0.060000 -0.443211
v 0.297835 0.000493 0.355275
v -0.443211 0.060000 -0.455501
v 0.460000 0.060000 0.426422
v 0.309124 0.000493 0.328021
v 0.426422 0.060000 0.460000
v 0.483743 0.060000 0.483743
v 0.455501 0.060000 0.443211
v 0.443211 0.060000 0.455501
v 0.426422 0.060000 -0.460000
v 0.460000 0.060000 -0.426422
v 0.483743 0.060000 -0.483743
v 0.443211 0.060000 -0.455501
v 0.455501 0.060000 -0.443211
v -0.437000 0.010000 0.405101
v -0.405101 0.010000 0.437000
v -0.432726 0.010000 0.421051
v -0.421051 0.010000 0.432726
v -0.405101 0.010000 -0.437000
v -0.437000 0.010000 -0.405101
v -0.421051 0.010000 -0.432726
v -0.432726 0.010000 -0.421051
v 0.437000 0.010000 -0.405101
v 0.405101 0.010000 -0.437000
v 0.432726 0.010000 -0.421051
v 0.421051 0.010000 -0.432726
v 0.405101 0.010000 0.437000
v 0.437000 0.010000 0.405101
v 0.421051 0.010000 0.432726
v 0.432726 0.010000 0.421051
v -0.500000 0.043743 0.500000
v -0.497822 0.051871 0.497822
v -0.491871 0.057822 0.491871
v -0.500000 0.043743 -0.500000
v -0.491871 0.057822 -0.491871
v -0.497822 0.051871 -0.497822
v 0.500000 0.043743 -0.500000
v 0.491871 0.057822 -0.491871
v 0.497822 0.051871 -0.497822
v 0.500000 0.043743 0.500000
v 0.491871 0.057822 0.491871
v 0.497822 0.051871 0.497822
v 0.363633 0.010000 0.328021
v 0.297835 0.010000 0.355275
v 0.309124 0.010000 0.382530
v 0.309124 0.010000 0.328021
v 0.374922 0.010000 0.355275
v 0.363633 0.010000 0.382530
v 0.336378 0.010000 0.393819
v 0.336378 0.010000 0.316732
v 0.366358 0.010000 0.325295
v 0.293981 0.010000 0.355275
v 0.306399 0.010000 0.385255
v 0.306399 0.010000 0.325295
v 0.378776 0.010000 0.355275
v 0.366358 0.010000 0.385255
v 0.336378 0.010000 0.397673
v 0.336378 0.010000 0.312877
v 0.297835 0.011727 0.355275
v 0.309124 0.011727 0.328021
v 0.336378 0.011727 0.316732
v 0.363633 0.011727 0.328021
v 0.374922 0.011727 0.355275
v 0.363633 0.011727 0.382530
v 0.336378 0.011727 0.393819
v 0.309124 0.011727 0.382530
v 0.296100 0.011727 0.355275
v 0.307898 0.011727 0.326794
v 0.336378 0.011727 0.314997
v 0.364859 0.011727 0.326794
v 0.376656 0.011727 0.355275
v 0.364859 0.011727 0.383756
v 0.336378 0.011727 0.395553
v 0.307898 0.011727 0.383756
v 0.336378 0.005247 0.338380
v 0.348325 0.005247 0.343328
v 0.353274 0.005247 0.355275
v 0.348325 0.005247 0.367222
v 0.336378 0.005247 0.372171
v 0.324431 0.005247 0.367222
v 0.319483 0.005247 0.355275
v 0.324431 0.005247 0.343328
v 0.309124 0.005247 0.328021
v 0.336378 0.005247 0.316732
v 0.297835 0.005247 0.355275
v 0.309124 0.005247 0.382530
v 0.336378 0.005247 0.393819
v 0.363633 0.005247 0.382530
v 0.374922 0.005247 0.355275
v 0.363633 0.005247 0.328021
v 0.312951 0.005247 0.331848
v 0.336378 0.005247 0.322144
v 0.303247 0.005247 0.355275
v 0.312951 0.005247 0.378703
v 0.336378 0.005247 0.388407
v 0.359806 0.005247 0.378703
v 0.369510 0.005247 0.355275
v 0.359806 0.005247 0.331848
v 0.316778 0.005247 0.335675
v 0.336378 0.005247 0.327556
v 0.308659 0.005247 0.355275
v 0.316778 0.005247 0.374876
v 0.336378 0.005247 0.382995
v 0.355979 0.005247 0.374876
v 0.364098 0.005247 0.355275
v 0.355979 0.005247 0.335675
v 0.320605 0.005247 0.339501
v 0.336378 0.005247 0.332968
v 0.314071 0.005247 0.355275
v 0.320605 0.005247 0.371049
v 0.336378 0.005247 0.377583
v 0.352152 0.005247 0.371049
v 0.358686 0.005247 0.355275
v 0.352152 0.005247 0.339501
v 0.326678 0.006062 0.345575
v 0.336378 0.006062 0.341557
v 0.322660 0.006062 0.355275
v 0.326678 0.006062 0.364975
v 0.336378 0.006062 0.368993
v 0.346078 0.006062 0.364975
v 0.350096 0.006062 0.355275
v 0.346078 0.006062 0.345575
vn -0.0000 -1.0000 -0.0000
vn -0.0000 1.0000 -0.0000
vn -0.0984 0.9903 0.0984
vn -0.0984 0.9903 -0.0984
vn 0.0984 0.9903 0.0984
vn 0.0984 0.9903 -0.0984
vn -0.8763 0.4617 -0.1374
vn -0.8891 0.4483 -0.0923
vn -0.7491 0.5220 -0.4079
vn -0.7280 0.5263 -0.4393
vn -0.4079 0.5220 -0.7491
vn -0.4393 0.5263 -0.7280
vn -0.0923 0.4483 -0.8891
vn -0.1374 0.4617 -0.8763
vn 0.8891 0.4483 -0.0923
vn 0.8763 0.4617 -0.1374
vn 0.7280 0.5263 -0.4393
vn 0.7491 0.5220 -0.4079
vn 0.4393 0.5263 -0.7280
vn 0.4079 0.5220 -0.7491
vn 0.1374 0.4617 -0.8763
vn 0.0923 0.4483 -0.8891
vn 0.8763 0.4617 0.1374
vn 0.8891 0.4483 0.0923
vn 0.7491 0.5220 0.4079
vn 0.7280 0.5263 0.4393
vn 0.4079 0.5220 0.7491
vn 0.4393 0.5263 0.7280
vn 0.0923 0.4483 0.8891
vn 0.1374 0.4617 0.8763
vn -0.8891 0.4483 0.0923
vn -0.8763 0.4617 0.1374
vn -0.7280 0.5263 0.4393
vn -0.7491 0.5220 0.4079
vn -0.4393 0.5263 0.7280
vn -0.4079 0.5220 0.7491
vn -0.1374 0.4617 0.8763
vn -0.0923 0.4483 0.8891
vn -0.3332 0.8820 -0.3332
vn -0.3332 0.8820 0.3332
vn -0.9047 0.4260 -0.0000
vn -0.9929 0.1191 -0.0000
vn 0.3332 0.8820 -0.3332
vn -0.0000 0.4260 -0.9047
vn -0.0000 0.1191 -0.9929
vn 0.3332 0.8820 0.3332
vn 0.9047 0.4260 -0.0000
vn 0.9929 0.1191 -0.0000
vn -0.0000 0.4260 0.9047
vn -0.0000 0.1191 0.9929
vn -0.0000 -0.0000 1.0000
vn -1.0000 -0.0000 -0.0000
vn -0.0000 -0.0000 -1.0000
vn 1.0000 -0.0000 -0.0000
vn -0.7071 -0.0000 0.7071
vn -0.7071 -0.0000 -0.7071
vn 0.7071 -0.0000 -0.7071
vn 0.7071 -0.0000 0.7071
vn -0.2531 0.7501 0.6110
vn 0.2531 0.7501 0.6110
vn 0.6110 0.7501 0.2531
vn 0.6110 0.7501 -0.2531
vn -0.6110 0.7501 0.2531
vn -0.6110 0.7501 -0.2531
vn -0.2531 0.7501 -0.6110
vn 0.2531 0.7501 -0.6110
vn -0.1024 0.9635 -0.2472
vn -0.2472 0.9635 -0.1024
vn -0.2472 0.9635 0.1024
vn -0.1024 0.9635 0.2472
vn 0.1024 0.9635 0.2472
vn 0.2472 0.9635 0.1024
vn 0.2472 0.9635 -0.1024
vn 0.1024 0.9635 -0.2472
vt 0.504098 0.000000
vt 0.504098 0.504098
vt 0.000000 0.504098
vt 0.000000 -0.000000
vt 0.032993 0.520164
vt 0.024530 0.522432
vt 0.004098 0.508195
vt 0.018334 0.528627
vt 0.016066 0.537090
vt 0.016066 0.967007
vt 0.018334 0.975470
vt 0.004098 0.995902
vt 0.024530 0.981666
vt 0.032993 0.983934
vt 0.479836 0.537090
vt 0.477568 0.528627
vt 0.491805 0.508195
vt 0.471373 0.522432
vt 0.462910 0.520164
vt 0.462910 0.983934
vt 0.471373 0.981666
vt 0.491805 0.995902
vt 0.477568 0.975470
vt 0.479836 0.967007
vt 0.619331 0.885157
vt 0.646975 0.874409
vt 0.647706 0.882449
vt 0.620101 0.893620
vt 0.649704 0.888335
vt 0.622203 0.899816
vt 0.707682 0.887425
vt 0.680077 0.876254
vt 0.680808 0.868214
vt 0.708452 0.878961
vt 0.652433 0.874409
vt 0.680077 0.885157
vt 0.679307 0.893620
vt 0.651702 0.882449
vt 0.677204 0.899816
vt 0.649704 0.888335
vt 0.680077 0.451752
vt 0.707682 0.440581
vt 0.708452 0.449044
vt 0.680808 0.459792
vt 0.680077 0.455240
vt 0.652433 0.465988
vt 0.651702 0.457948
vt 0.679307 0.446777
vt 0.649704 0.452062
vt 0.677204 0.440581
vt 0.736057 0.887425
vt 0.708452 0.876254
vt 0.709183 0.868214
vt 0.736827 0.878961
vt 0.646975 0.465988
vt 0.619331 0.455240
vt 0.620101 0.446777
vt 0.647706 0.457948
vt 0.622204 0.440581
vt 0.649704 0.452062
vt 0.708452 0.451752
vt 0.736057 0.440581
vt 0.736827 0.449044
vt 0.709183 0.459792
vt 0.512138 0.438427
vt 0.506252 0.432541
vt 0.504098 0.424501
vt 0.545295 0.070153
vt 0.559034 0.064462
vt 0.564725 0.050723
vt 0.559034 0.036984
vt 0.545295 0.031293
vt 0.531556 0.036984
vt 0.520178 0.000000
vt 0.928599 0.000000
vt 0.936639 0.002154
vt 0.942525 0.008040
vt 0.944679 0.016080
vt 0.944679 0.424501
vt 0.942524 0.432541
vt 0.936639 0.438427
vt 0.928599 0.440581
vt 0.520178 0.440581
vt 0.506252 0.008040
vt 0.512138 0.002154
vt 0.525865 0.050723
vt 0.531556 0.064462
vt 0.504098 0.016080
vt 0.000000 1.000000
vt 0.000000 0.504098
vt 0.532906 0.940581
vt 0.532906 0.444679
vt 0.536746 0.441679
vt 0.536746 0.943581
vt 0.540973 0.440581
vt 0.540973 0.944679
vt 0.495902 1.000000
vt 0.590522 0.444679
vt 0.590522 0.940581
vt 0.586683 0.943581
vt 0.586683 0.441679
vt 0.582456 0.944679
vt 0.582456 0.440581
vt 0.495902 0.504098
vt 0.504098 0.940581
vt 0.504098 0.444679
vt 0.507937 0.441679
vt 0.507937 0.943581
vt 0.512164 0.440581
vt 0.512164 0.944679
vt 0.619331 0.444679
vt 0.619331 0.940581
vt 0.615491 0.943581
vt 0.615491 0.441679
vt 0.611264 0.944679
vt 0.611264 0.440581
vt 0.590523 0.440581
vt 0.590523 0.944679
vt 0.561714 0.944679
vt 0.561714 0.440581
vt 0.561714 0.440581
vt 0.561714 0.944679
vt 0.532906 0.944679
vt 0.532906 0.440581
vt 0.416298 0.572407
vt 0.426623 0.572407
vt 0.426623 0.617714
vt 0.416298 0.617714
vt 0.416298 0.681788
vt 0.405974 0.681788
vt 0.405974 0.617714
vt 0.416298 0.727095
vt 0.405974 0.727095
vt 0.416298 0.791169
vt 0.405974 0.791169
vt 0.125962 0.742564
vt 0.125962 0.787871
vt 0.115638 0.787871
vt 0.115638 0.742564
vt 0.136287 0.787871
vt 0.136287 0.851946
vt 0.125962 0.851946
vt 0.091452 0.742564
vt 0.101776 0.742564
vt 0.101776 0.787871
vt 0.091452 0.787871
vt 0.101776 0.851946
vt 0.091452 0.851946
vt 0.247535 0.617714
vt 0.292842 0.572407
vt 0.356916 0.572407
vt 0.402223 0.617714
vt 0.402224 0.681788
vt 0.356916 0.727095
vt 0.292842 0.727095
vt 0.247535 0.681788
vt 0.402224 0.727095
vt 0.197697 0.572407
vt 0.247535 0.622245
vt 0.243281 0.624007
vt 0.195935 0.576661
vt 0.402224 0.617714
vt 0.247535 0.692726
vt 0.243281 0.690964
vt 0.405974 0.572407
vt 0.402224 0.572407
vt 0.197697 0.742564
vt 0.195935 0.738310
vt 0.081127 0.787871
vt 0.081127 0.851946
vt 0.077377 0.851946
vt 0.077377 0.787871
vt 0.127215 0.742564
vt 0.128977 0.738310
vt 0.239800 0.689522
vt 0.239801 0.625448
vt 0.194493 0.734830
vt 0.085112 0.689523
vt 0.130419 0.734830
vt 0.081631 0.690964
vt 0.130419 0.580141
vt 0.085112 0.625448
vt 0.081631 0.624007
vt 0.128977 0.576661
vt 0.194493 0.580141
vt 0.127215 0.572407
vt 0.077377 0.622245
vt 0.402224 0.791169
vt 0.077377 0.692726
vt 0.111887 0.787871
vt 0.111887 0.742564
vt 0.081127 0.742564
vt 0.077377 0.742564
vt 0.115638 0.851946
vt 0.111887 0.851946
vt 0.136287 0.742564
vt 0.426623 0.727095
vt 0.426623 0.791169
vt 0.426623 0.681788
vt 0.142663 0.899119
vt 0.142663 0.876314
vt 0.158788 0.860188
vt 0.181593 0.860188
vt 0.197718 0.876314
vt 0.197718 0.899119
vt 0.181593 0.915244
vt 0.158788 0.915244
vt 0.297341 0.870924
vt 0.352418 0.870924
vt 0.356916 0.881784
vt 0.292842 0.881784
vt 0.258395 0.831979
vt 0.247535 0.836477
vt 0.258395 0.776901
vt 0.247535 0.772403
vt 0.297341 0.737956
vt 0.292842 0.727095
vt 0.352418 0.737956
vt 0.356916 0.727095
vt 0.391363 0.776901
vt 0.402224 0.772403
vt 0.391363 0.831979
vt 0.402224 0.836477
vt 0.147147 0.779647
vt 0.147147 0.816730
vt 0.136287 0.821229
vt 0.136287 0.775148
vt 0.173369 0.753424
vt 0.168870 0.742564
vt 0.210453 0.753424
vt 0.214951 0.742564
vt 0.236675 0.779646
vt 0.247535 0.775148
vt 0.236675 0.816730
vt 0.247535 0.821228
vt 0.210453 0.842952
vt 0.214951 0.853812
vt 0.173369 0.842952
vt 0.168870 0.853812
vt 0.184234 0.921620
vt 0.156147 0.921620
vt 0.136287 0.901760
vt 0.136287 0.873673
vt 0.156147 0.853812
vt 0.184234 0.853812
vt 0.204094 0.873673
vt 0.204094 0.901760
s 1
usemtl white_tile
f 3/1/1 6/2/1 4/3/1 1/4/1
f 7/5/2 12/6/2 10/7/3
f 12/6/2 13/8/2 10/7/3
f 13/8/2 9/9/2 10/7/3
f 15/10/2 19/11/2 18/12/4
f 19/11/2 21/13/2 18/12/4
f 21/13/2 16/14/2 18/12/4
f 22/15/2 26/16/2 25/17/5
f 26/16/2 27/18/2 25/17/5
f 27/18/2 24/19/2 25/17/5
f 28/20/2 31/21/2 30/22/6
f 31/21/2 32/23/2 30/22/6
f 32/23/2 29/24/2 30/22/6
f 22/25/7 46/26/8 48/27/9 26/28/10
f 26/28/10 48/27/9 47/29/11 27/30/12
f 27/31/12 47/32/11 45/33/13 24/34/14
f 33/35/15 9/36/16 13/37/17 35/38/18
f 35/38/18 13/37/17 12/39/19 36/40/20
f 36/41/20 12/42/19 7/43/21 34/44/22
f 15/45/23 38/46/24 40/47/25 19/48/26
f 19/48/26 40/47/25 39/49/27 21/50/28
f 21/51/28 39/52/27 37/53/29 16/54/30
f 41/55/31 29/56/32 32/57/33 43/58/34
f 43/58/34 32/57/33 31/59/35 44/60/36
f 44/61/36 31/62/35 28/63/37 42/64/38
f 15/45/23 9/36/16 33/35/15 38/46/24
f 7/43/21 24/34/14 45/33/13 34/44/22
f 28/63/37 16/54/30 37/53/29 42/64/38
f 22/25/7 29/56/32 41/55/31 46/26/8
f 35/65/2 36/66/2 34/67/2 62/68/2 64/69/2 68/70/2 61/71/2 65/72/2 66/73/2 46/74/2 41/75/2 43/76/2 44/77/2 42/78/2 37/79/2 39/80/2 40/81/2 38/82/2 33/83/2
f 47/84/2 48/85/2 46/74/2 66/73/2 67/86/2 63/87/2 62/68/2 34/67/2 45/88/2
f 10/7/3 18/12/4 53/89/39 51/90/40
f 51/91/40 53/92/39 54/93/41 50/94/41
f 50/94/41 54/93/41 52/95/42 49/96/42
f 18/12/4 30/22/6 56/97/43 53/89/39
f 53/98/39 56/99/43 57/100/44 54/101/44
f 54/101/44 57/100/44 55/102/45 52/103/45
f 30/22/6 25/17/5 59/104/46 56/97/43
f 56/105/43 59/106/46 60/107/47 57/108/47
f 57/108/47 60/107/47 58/109/48 55/110/48
f 25/17/5 10/7/3 51/90/40 59/104/46
f 59/111/46 51/112/40 50/113/49 60/114/49
f 60/114/49 50/113/49 49/115/50 58/116/50
f 4/117/51 58/116/50 49/115/50 1/118/51
f 1/119/52 49/96/42 52/95/42 3/120/52
f 25/17/5 24/19/2 7/5/2 10/7/3
f 10/7/3 9/9/2 15/10/2 18/12/4
f 3/121/53 52/103/45 55/102/45 6/122/53
f 18/12/4 16/14/2 28/20/2 30/22/6
f 6/123/54 55/110/48 58/109/48 4/124/54
f 30/22/6 29/24/2 22/15/2 25/17/5
f 102/125/51 2/126/51 5/127/55 108/128/55
f 108/128/55 107/129/52 65/130/52 61/131/55
f 107/129/52 106/132/56 66/133/56 65/130/52
f 106/132/56 105/134/53 67/135/53 66/133/56
f 105/136/53 104/137/57 63/138/57 67/139/53
f 104/137/57 17/140/57 20/141/54 103/142/54
f 103/143/54 20/144/54 23/145/58 101/146/58
f 101/146/58 23/145/58 2/147/51 102/148/51
f 17/149/2 14/150/2 11/151/2 8/152/2 5/153/2 2/154/2 23/155/2 20/156/2
f 65/130/52 66/133/56 82/157/56 81/153/52
s 0
f 71/158/59 75/159/59 91/160/59 92/161/59
s 1
f 61/131/55 65/130/52 81/153/52 80/162/55
s 0
f 75/159/60 74/163/60 90/164/60 91/160/60
s 1
f 68/165/51 61/131/55 80/162/55 79/166/51
s 0
f 74/163/61 73/167/61 89/168/61 90/164/61
s 1
f 64/169/58 68/170/51 79/171/51 78/172/58
s 0
f 73/167/62 69/173/62 88/174/62 89/168/62
s 1
f 82/175/2 83/176/2 91/160/2 90/164/2
f 81/177/2 82/175/2 90/164/2 89/168/2
f 79/178/2 80/179/2 88/174/2 87/180/2
f 77/181/2 78/182/2 86/183/2 85/184/2
f 83/176/2 84/185/2 92/161/2 91/160/2
f 80/179/2 81/177/2 89/168/2 88/174/2
f 78/182/2 79/178/2 87/180/2 86/183/2
f 84/185/2 77/181/2 85/184/2 92/161/2
s 0
f 70/186/63 71/158/63 92/161/63 85/184/63
f 72/187/64 70/186/64 85/184/64 86/183/64
s 1
f 66/133/56 67/135/53 83/188/53 82/157/56
s 0
f 76/189/65 72/187/65 86/183/65 87/180/65
s 1
f 67/139/53 63/138/57 84/190/57 83/191/53
s 0
f 69/173/66 76/189/66 87/180/66 88/174/66
s 1
f 62/192/54 64/169/58 78/172/58 77/193/54
f 63/138/57 62/194/54 77/195/54 84/190/57
f 64/169/58 101/146/58 102/148/51 68/170/51
f 62/192/54 103/143/54 101/146/58 64/169/58
f 63/138/57 104/137/57 103/142/54 62/194/54
f 14/196/53 17/140/57 104/137/57 105/136/53
f 11/197/56 14/198/53 105/134/53 106/132/56
f 8/199/52 11/197/56 106/132/56 107/129/52
f 5/127/55 8/199/52 107/129/52 108/128/55
f 68/165/51 102/125/51 108/128/55 61/131/55
s 0
f 135/200/2 136/201/2 137/202/2 138/203/2 139/204/2 140/205/2 134/206/2 133/207/2
f 109/208/2 110/209/2 102/210/2 101/211/2
f 111/212/2 109/208/2 101/211/2 103/213/2
f 112/214/2 111/212/2 103/213/2 104/215/2
f 113/216/2 112/214/2 104/215/2 105/217/2
f 114/218/2 113/216/2 105/217/2 106/219/2
f 115/220/2 114/218/2 106/219/2 107/221/2
f 116/222/2 115/220/2 107/221/2 108/223/2
f 110/209/2 116/222/2 108/223/2 102/210/2
f 125/224/2 126/225/2 118/226/2 117/227/2
f 127/228/2 125/224/2 117/227/2 119/229/2
f 128/230/2 127/228/2 119/229/2 120/231/2
f 129/232/2 128/230/2 120/231/2 121/233/2
f 130/234/2 129/232/2 121/233/2 122/235/2
f 131/236/2 130/234/2 122/235/2 123/237/2
f 132/238/2 131/236/2 123/237/2 124/239/2
f 126/225/2 132/238/2 124/239/2 118/226/2
f 133/207/67 134/206/67 93/240/67 100/241/67
f 135/200/68 133/207/68 100/241/68 99/242/68
f 136/201/69 135/200/69 99/242/69 98/243/69
f 137/202/70 136/201/70 98/243/70 97/244/70
f 138/203/71 137/202/71 97/244/71 96/245/71
f 139/204/72 138/203/72 96/245/72 95/246/72
f 140/205/73 139/204/73 95/246/73 94/247/73
f 134/206/74 140/205/74 94/247/74 93/240/74
