# Blender 5.0.0
# www.blender.org
mtllib office.mtl
o red_folder
v -0.090000 -0.002350 0.371995
v -0.090000 -0.001850 0.371995
v -0.090000 -0.002350 0.251995
v -0.090000 -0.001850 0.251995
v 0.090000 -0.002350 0.371995
v 0.090000 -0.001850 0.371995
v 0.090000 -0.002350 0.251995
v 0.090000 -0.001850 0.251995
v -0.090000 -0.002350 0.371199
v -0.090000 -0.001850 0.371199
v 0.090000 -0.002350 0.371199
v 0.090000 -0.001850 0.371199
v -0.090000 -0.002260 0.371995
v -0.090000 -0.001940 0.371995
v -0.090000 -0.001940 0.251995
v -0.090000 -0.002260 0.251995
v 0.090000 -0.001940 0.251995
v 0.090000 -0.002260 0.251995
v 0.090000 -0.001940 0.371995
v 0.090000 -0.002260 0.371995
v 0.090000 -0.001940 0.371199
v 0.090000 -0.002260 0.371199
v -0.090000 -0.001940 0.371199
v -0.090000 -0.002260 0.371199
v -0.089316 -0.001940 0.252452
v -0.089316 -0.002260 0.252452
v 0.089316 -0.001940 0.252452
v 0.089316 -0.002260 0.252452
v 0.089032 -0.001940 0.371199
v 0.089032 -0.002260 0.371199
v -0.089032 -0.001940 0.371199
v -0.089032 -0.002260 0.371199
vn -1.0000 -0.0001 -0.0000
vn -0.0000 -0.0001 -1.0000
vn 1.0000 -0.0001 -0.0000
vn -0.0000 -0.0001 1.0000
vn -0.0000 -1.0000 -0.0000
vn -0.0000 1.0000 -0.0000
vn -1.0000 0.0001 -0.0000
vn -1.0000 -0.0000 -0.0000
vn 1.0000 0.0001 -0.0000
vn -0.0000 0.0001 1.0000
vn -0.0000 -0.0000 1.0000
vn 1.0000 -0.0000 -0.0000
vn -0.0000 0.0001 -1.0000
vn 1.0000 -0.0000 0.0024
vn -0.0000 -0.0000 -1.0000
vn -1.0000 -0.0000 0.0024
vt 0.134032 0.701487
vt 0.133945 0.701487
vt 0.133945 0.816324
vt 0.134032 0.816324
vt 0.006055 0.646530
vt 0.005968 0.646530
vt 0.005968 0.819938
vt 0.006055 0.819938
vt 0.151474 0.697603
vt 0.151474 0.697516
vt 0.150706 0.697516
vt 0.150706 0.697603
vt 0.125386 0.644529
vt 0.125300 0.644529
vt 0.125300 0.817937
vt 0.125386 0.817937
vt 0.006055 0.993345
vt 0.006055 0.819938
vt 0.005288 0.819938
vt 0.005288 0.993345
vt 0.121660 0.993345
vt 0.121660 0.819938
vt 0.120893 0.819938
vt 0.120893 0.993345
vt 0.236498 0.993345
vt 0.236498 0.819938
vt 0.120893 0.819938
vt 0.139478 0.700104
vt 0.139391 0.700104
vt 0.139391 0.814941
vt 0.139478 0.814941
vt 0.134032 0.700719
vt 0.133945 0.700719
vt 0.134427 0.700719
vt 0.134340 0.700719
vt 0.134340 0.701487
vt 0.134427 0.701487
vt 0.139873 0.700104
vt 0.139786 0.700104
vt 0.139786 0.814941
vt 0.139873 0.814941
vt 0.120893 0.646530
vt 0.006055 0.647463
vt 0.120453 0.647189
vt 0.125781 0.644529
vt 0.125695 0.644529
vt 0.125695 0.817937
vt 0.125781 0.817937
vt 0.151474 0.697998
vt 0.151474 0.697911
vt 0.150706 0.697911
vt 0.150706 0.697998
vt 0.130174 0.642684
vt 0.130088 0.642684
vt 0.130088 0.816091
vt 0.130175 0.816091
vt 0.120893 0.819938
vt 0.120453 0.819278
vt 0.134340 0.816324
vt 0.134427 0.816324
vt 0.006055 0.819005
vt 0.858936 0.572604
vt 0.858476 0.572604
vt 0.858476 0.401795
vt 0.858936 0.401795
vt 0.861668 0.976709
vt 0.861208 0.976709
vt 0.861208 0.719761
vt 0.861668 0.719761
vt 0.866171 0.572604
vt 0.865711 0.572604
vt 0.865711 0.401795
vt 0.866171 0.401795
vt 0.150706 0.815951
vt 0.150706 0.701113
vt 0.149774 0.701113
vt 0.150047 0.815511
vt 0.151639 0.757301
vt 0.151639 0.756993
vt 0.150706 0.756993
vt 0.150706 0.757301
vt 0.144629 0.817477
vt 0.144629 0.644069
vt 0.144190 0.644729
vt 0.144190 0.816818
vt 0.151692 0.644069
vt 0.152000 0.644069
vt 0.152000 0.643137
vt 0.151692 0.643137
vt 0.156261 0.700533
vt 0.156261 0.815371
vt 0.156921 0.814931
vt 0.157194 0.700533
s 0
usemtl office
f 23/1/1 10/2/1 4/3/1 15/4/1
f 15/5/2 4/6/2 8/7/2 17/8/2
f 21/9/3 12/10/3 6/11/3 19/12/3
f 19/13/4 6/14/4 2/15/4 14/16/4
f 9/17/5 11/18/5 5/19/5 1/20/5
f 12/21/6 10/22/6 2/23/6 6/24/6
f 8/25/6 4/26/6 10/22/6 12/21/6
f 3/24/5 7/27/5 11/18/5 9/17/5
f 17/28/3 8/29/3 12/30/3 21/31/3
f 14/32/1 2/33/1 10/2/1 23/1/1
f 1/34/7 13/35/7 24/36/7 9/37/7
f 13/35/8 14/32/8 23/1/8 24/36/8
f 7/38/9 18/39/9 22/40/9 11/41/9
f 17/42/5 21/5/5 29/43/5 27/44/5
f 5/45/10 20/46/10 13/47/10 1/48/10
f 20/46/11 19/13/11 14/16/11 13/47/11
f 11/49/9 22/50/9 20/51/9 5/52/9
f 22/50/12 21/9/12 19/12/12 20/51/12
f 3/53/13 16/54/13 18/55/13 7/56/13
f 15/57/5 17/42/5 27/44/5 25/58/5
f 9/37/7 24/36/7 16/59/7 3/60/7
f 23/8/5 15/57/5 25/58/5 31/61/5
f 16/74/6 24/75/6 32/76/6 26/77/6
f 24/78/15 23/79/15 31/80/15 32/81/15
f 18/82/6 16/83/6 26/84/6 28/85/6
f 21/86/15 22/87/15 30/88/15 29/89/15
f 22/90/6 18/91/6 28/92/6 30/93/6
usemtl 
f 28/62/14 27/63/14 29/64/14 30/65/14
f 26/66/15 25/67/15 27/68/15 28/69/15
f 32/70/16 31/71/16 25/72/16 26/73/16
o close_folder
v -0.090000 -0.002350 0.231815
v 0.090000 -0.002350 0.231815
v 0.090000 -0.002350 0.111815
v 0.000000 -0.002350 0.231815
v -0.090000 -0.002350 0.123815
v 0.090000 -0.002350 0.123815
v 0.000000 -0.002350 0.123815
v -0.090000 -0.001658 0.231815
v -0.090000 -0.001658 0.111815
v 0.090000 -0.001658 0.231815
v -0.090000 -0.001658 0.123815
v 0.090000 -0.001658 0.123815
v 0.000000 -0.001658 0.231815
v 0.000000 -0.001658 0.123815
v -0.090000 -0.001727 0.123815
v -0.090000 -0.001727 0.111815
v 0.090000 -0.001727 0.123815
v 0.090000 -0.001727 0.231815
v 0.000000 -0.001727 0.231815
v -0.090000 -0.001727 0.231815
v 0.000000 -0.001727 0.123815
v -0.090000 -0.002281 0.123815
v -0.090000 -0.002281 0.231815
v 0.090000 -0.002281 0.123815
v 0.090000 -0.002281 0.111815
v 0.000000 -0.002281 0.231815
v 0.090000 -0.002281 0.231815
v 0.000000 -0.002281 0.123815
v -0.089936 -0.001727 0.231773
v -0.089910 -0.001727 0.123815
v 0.000000 -0.001727 0.231755
v 0.089910 -0.001727 0.123815
v 0.089936 -0.001727 0.231773
v -0.089910 -0.002281 0.123815
v -0.089936 -0.002281 0.231773
v 0.000000 -0.002281 0.231755
v 0.089936 -0.002281 0.231773
v 0.089910 -0.002281 0.123815
v 0.000000 -0.002350 0.121815
v 0.010000 -0.002350 0.111815
v 0.000761 -0.002350 0.117988
v 0.002929 -0.002350 0.114744
v 0.006173 -0.002350 0.112576
v 0.000000 -0.001658 0.121815
v -0.010000 -0.001658 0.111815
v -0.000761 -0.001658 0.117988
v -0.002929 -0.001658 0.114744
v -0.006173 -0.001658 0.112576
v -0.010000 -0.001727 0.111815
v 0.000000 -0.001727 0.121815
v -0.006173 -0.001727 0.112576
v -0.002929 -0.001727 0.114744
v -0.000761 -0.001727 0.117988
v 0.010000 -0.002281 0.111815
v 0.000000 -0.002281 0.121815
v 0.006173 -0.002281 0.112576
v 0.002929 -0.002281 0.114744
v 0.000761 -0.002281 0.117988
vn -0.0000 -1.0000 -0.0000
vn -0.0000 1.0000 -0.0000
vn -0.0000 -0.0000 1.0000
vn -0.0000 -0.0000 -1.0000
vn -1.0000 -0.0000 -0.0000
vn 1.0000 -0.0000 -0.0000
vn 0.0002 -0.0000 -1.0000
vn -0.0002 -0.0000 -1.0000
vn 1.0000 -0.0000 0.0002
vn -1.0000 -0.0000 0.0002
vn 0.1951 -0.0000 -0.9808
vn 0.5556 -0.0000 -0.8315
vn 0.8315 -0.0000 -0.5556
vn 0.9808 -0.0000 -0.1951
vn -0.1951 -0.0000 -0.9808
vn -0.5556 -0.0000 -0.8315
vn -0.8315 -0.0000 -0.5556
vn -0.9808 -0.0000 -0.1951
vt 0.733515 0.297974
vt 0.733515 0.395012
vt 0.617070 0.395012
vt 0.617070 0.297974
vt 0.733515 0.200936
vt 0.617070 0.200936
vt 0.398342 0.181979
vt 0.411949 0.361961
vt 0.068370 0.337651
vt 0.055740 0.160598
vt 0.862899 0.200936
vt 0.862899 0.297974
vt 0.746453 0.297974
vt 0.746453 0.200936
vt 0.733515 0.200936
vt 0.617070 0.200936
vt 0.617070 0.103899
vt 0.733515 0.103899
vt 0.617070 0.006861
vt 0.733515 0.006861
vt 0.992282 0.103899
vt 0.992357 0.103899
vt 0.992357 0.200936
vt 0.992282 0.200936
vt 0.993776 0.123214
vt 0.993850 0.123214
vt 0.993850 0.220252
vt 0.993776 0.220252
vt 0.992282 0.006861
vt 0.992357 0.006861
vt 0.993029 0.006861
vt 0.993104 0.006861
vt 0.993104 0.019794
vt 0.993029 0.019794
vt 0.993104 0.136194
vt 0.993029 0.136194
vt 0.993104 0.252594
vt 0.993029 0.252594
vt 0.862899 0.103899
vt 0.746453 0.103899
vt 0.746453 0.006861
vt 0.862899 0.006861
vt 0.862899 0.200936
vt 0.746453 0.200936
vt 0.993776 0.265527
vt 0.993701 0.265527
vt 0.993701 0.252594
vt 0.993776 0.252594
vt 0.993850 0.317290
vt 0.993776 0.317290
vt 0.993850 0.220252
vt 0.993701 0.136194
vt 0.993776 0.136194
vt 0.993029 0.103899
vt 0.992954 0.103899
vt 0.992954 0.006861
vt 0.993029 0.006861
vt 0.993029 0.200936
vt 0.992954 0.200936
vt 0.993701 0.019794
vt 0.993776 0.019794
vt 0.994470 0.214947
vt 0.994373 0.214947
vt 0.994373 0.214350
vt 0.994470 0.214350
vt 0.992282 0.006958
vt 0.875883 0.006930
vt 0.875837 0.006861
vt 0.994470 0.215545
vt 0.994373 0.215545
vt 0.875837 0.200936
vt 0.875883 0.201005
vt 0.875902 0.297974
vt 0.875837 0.297974
vt 0.992282 0.200936
vt 0.992880 0.200936
vt 0.992880 0.297906
vt 0.992282 0.297906
vt 0.992880 0.394875
vt 0.992282 0.394875
vt 0.993626 0.265527
vt 0.993626 0.381881
vt 0.993029 0.381881
vt 0.993029 0.265527
vt 0.994373 0.006861
vt 0.994373 0.123214
vt 0.993776 0.006861
vt 0.875902 0.103899
vt 0.875837 0.103899
vt 0.875883 0.394943
vt 0.875837 0.395012
vt 0.875883 0.200868
vt 0.992282 0.200839
vt 0.992282 0.200936
vt 0.992282 0.394915
vt 0.992282 0.395012
vt 0.992282 0.200936
vt 0.992282 0.201033
vt 0.994448 0.014485
vt 0.994373 0.014485
vt 0.994373 0.010359
vt 0.994448 0.010359
vt 0.994448 0.006861
vt 0.994448 0.204485
vt 0.994373 0.204485
vt 0.994373 0.200923
vt 0.994448 0.200923
vt 0.994373 0.196776
vt 0.994448 0.196776
vt 0.994373 0.186996
vt 0.994448 0.186996
vt 0.994448 0.191123
vt 0.994373 0.191123
vt 0.994448 0.194620
vt 0.994373 0.194620
vt 0.994373 0.204485
vt 0.994448 0.208047
vt 0.994373 0.208047
vt 0.994448 0.212194
vt 0.994373 0.212194
vt 0.994373 0.100741
vt 0.994448 0.100741
vt 0.735671 0.297974
vt 0.739798 0.298795
vt 0.743295 0.301132
vt 0.745633 0.304630
vt 0.746453 0.308756
vt 0.746453 0.395012
vt 0.994448 0.214350
vt 0.994373 0.214350
vt 0.865055 0.297974
vt 0.869181 0.298795
vt 0.872679 0.301132
vt 0.875016 0.304630
vt 0.875837 0.308756
vt 0.875837 0.395012
vt 0.862899 0.395012
vt 0.994373 0.194620
vt 0.994448 0.194620
vt 0.746453 0.093117
vt 0.745633 0.097243
vt 0.743295 0.100741
vt 0.739798 0.103078
vt 0.735671 0.103899
vt 0.746453 0.006861
vt 0.875837 0.093117
vt 0.875016 0.097243
vt 0.872679 0.100741
vt 0.869181 0.103078
vt 0.865055 0.103899
s 0
usemtl office
f 39/94/17 38/95/17 34/96/17 36/97/17
f 37/98/17 39/94/17 36/97/17 33/99/17
f 46/100/18 43/101/18 40/102/18 45/103/18
f 44/104/18 46/105/18 45/106/18 42/107/18
f 49/108/17 50/109/17 51/110/17 53/111/17
f 53/111/17 51/110/17 52/112/17 47/113/17
f 45/114/19 51/115/19 50/116/19 42/117/19
f 44/118/20 49/119/20 53/120/20 46/121/20
f 40/122/19 52/123/19 51/115/19 45/114/19
f 41/124/21 48/125/21 47/126/21 43/127/21
f 43/127/21 47/126/21 52/128/21 40/129/21
f 42/129/22 50/128/22 49/130/22 44/131/22
f 60/132/18 58/133/18 59/134/18 56/135/18
f 54/136/18 55/137/18 58/133/18 60/132/18
f 35/138/22 57/139/22 56/140/22 38/141/22
f 37/142/20 54/143/20 60/121/20 39/144/20
f 38/141/22 56/140/22 59/145/22 34/146/22
f 36/147/19 58/148/19 55/149/19 33/150/19
f 34/151/19 59/152/19 58/148/19 36/147/19
f 33/146/21 55/145/21 54/153/21 37/154/21
f 56/155/20 70/156/20 64/157/20 49/158/20
f 49/122/18 64/159/18 65/160/18 50/161/18
f 47/156/20 62/155/20 66/162/20 54/163/20
f 55/164/17 67/165/17 68/166/17 58/167/17
f 65/168/23 69/169/23 68/170/23 63/171/23
f 68/170/24 67/172/24 61/173/24 63/171/24
f 67/174/25 66/175/25 62/176/25 61/177/25
f 70/178/26 69/179/26 65/118/26 64/180/26
f 50/161/18 65/160/18 63/181/18 51/182/18
f 58/167/17 68/166/17 69/183/17 59/184/17
f 52/164/18 61/185/18 62/186/18 47/187/18
f 59/184/17 69/183/17 70/188/17 56/189/17
f 51/182/18 63/181/18 61/185/18 52/164/18
f 54/190/17 66/191/17 67/165/17 55/164/17
f 56/140/22 49/130/22 50/128/22 59/145/22
f 59/152/19 50/116/19 51/115/19 58/148/19
f 58/148/19 51/115/19 52/123/19 55/149/19
f 55/145/21 52/128/21 47/126/21 54/153/21
f 81/192/27 77/193/27 80/194/27 83/195/27
f 83/195/28 80/194/28 79/178/28 84/196/28
f 84/197/29 79/198/29 78/199/29 85/200/29
f 85/200/30 78/199/30 76/201/30 82/202/30
f 86/203/31 72/204/31 75/205/31 88/206/31
f 88/206/32 75/205/32 74/207/32 89/208/32
f 89/209/33 74/197/33 73/210/33 90/211/33
f 90/211/34 73/210/34 71/212/34 87/213/34
f 72/204/20 86/203/20 57/214/20 35/215/20
f 71/216/17 73/217/17 74/218/17 75/219/17 72/220/17 35/221/17 38/95/17 39/94/17
f 39/222/21 60/223/21 87/213/21 71/212/21
f 77/193/20 81/192/20 48/215/20 41/214/20
f 76/224/18 78/225/18 79/226/18 80/227/18 77/228/18 41/229/18 43/230/18 46/105/18
f 46/231/22 53/232/22 82/202/22 76/201/22
f 81/233/17 83/234/17 84/235/17 85/236/17 82/237/17 53/111/17 47/113/17 48/238/17
f 86/239/18 88/240/18 89/241/18 90/242/18 87/243/18 60/132/18 56/135/18 57/161/18
o open_folder
v -0.090000 -0.001727 -0.031836
v -0.090000 -0.001726 0.088164
v 0.090000 -0.001726 -0.031836
v -0.090000 -0.001726 0.076164
v 0.090000 -0.001726 0.076164
v 0.000000 -0.001727 -0.031856
v 0.000000 -0.001726 0.076164
v -0.090000 -0.001657 0.076164
v -0.090000 -0.001657 0.088164
v 0.090000 -0.001657 0.076164
v 0.090000 -0.001657 -0.031836
v 0.000000 -0.001657 -0.031836
v -0.090000 -0.001657 -0.031836
v 0.000000 -0.001657 0.076164
v -0.089936 -0.001657 -0.031794
v -0.089910 -0.001657 0.076164
v 0.000000 -0.001657 -0.031776
v 0.089910 -0.001657 0.076164
v 0.089936 -0.001657 -0.031794
v 0.000000 -0.001726 0.078164
v -0.010000 -0.001726 0.088164
v -0.000761 -0.001726 0.081991
v -0.002929 -0.001726 0.085235
v -0.006173 -0.001726 0.087403
v -0.010000 -0.001657 0.088164
v 0.000000 -0.001657 0.078164
v -0.006173 -0.001657 0.087403
v -0.002929 -0.001657 0.085235
v -0.000761 -0.001657 0.081991
v -0.090000 -0.002350 -0.031836
v 0.090000 -0.002350 -0.031836
v 0.090000 -0.002350 -0.151836
v 0.000000 -0.002350 -0.031836
v -0.090000 -0.002350 -0.139836
v 0.090000 -0.002350 -0.139836
v 0.000000 -0.002350 -0.139836
v -0.090000 -0.001727 -0.139836
v 0.090000 -0.001727 -0.139836
v 0.090000 -0.001727 -0.031836
v -0.090000 -0.002281 -0.139836
v -0.090000 -0.002281 -0.031836
v 0.090000 -0.002281 -0.139836
v 0.090000 -0.002281 -0.151836
v 0.000000 -0.002281 -0.031836
v 0.090000 -0.002281 -0.031836
v 0.000000 -0.002281 -0.139836
v -0.089936 -0.001727 -0.031878
v -0.089910 -0.001727 -0.139836
v 0.089910 -0.001727 -0.139836
v 0.089936 -0.001727 -0.031878
v -0.089910 -0.002281 -0.139836
v -0.089936 -0.002281 -0.031878
v 0.000000 -0.002281 -0.031896
v 0.089936 -0.002281 -0.031878
v 0.089910 -0.002281 -0.139836
v 0.000000 -0.002350 -0.141836
v 0.010000 -0.002350 -0.151836
v 0.000761 -0.002350 -0.145663
v 0.002929 -0.002350 -0.148907
v 0.006173 -0.002350 -0.151075
v 0.010000 -0.002281 -0.151836
v 0.000000 -0.002281 -0.141836
v 0.006173 -0.002281 -0.151075
v 0.002929 -0.002281 -0.148907
v 0.000761 -0.002281 -0.145663
vn -0.0000 -1.0000 -0.0000
vn -0.0000 1.0000 -0.0000
vn 0.0001 0.1425 -0.9898
vn -0.0000 -0.0000 1.0000
vn -0.0001 0.1422 -0.9898
vn -1.0000 -0.0000 -0.0000
vn 1.0000 -0.0000 -0.0000
vn 0.1951 -0.0000 0.9808
vn 0.5556 -0.0000 0.8315
vn 0.8315 -0.0000 0.5556
vn 0.9808 -0.0000 0.1951
vn -0.0000 -0.0000 -1.0000
vn -0.0000 0.0361 -0.9993
vn 1.0000 -0.0000 0.0002
vn -1.0000 -0.0000 0.0002
vn -0.0001 0.0180 0.9998
vn 0.0001 0.0180 0.9998
vn -0.1951 -0.0000 -0.9808
vn -0.5556 -0.0000 -0.8315
vn -0.8315 -0.0000 -0.5556
vn -0.9808 -0.0000 -0.1951
vn 0.0020 1.0000 -0.0000
vn -0.0000 1.0000 -0.0073
vt 0.600873 0.099057
vt 0.600873 0.009390
vt 0.493272 0.009390
vt 0.493252 0.099057
vt 0.600873 0.188725
vt 0.493272 0.188725
vt 0.505228 0.368060
vt 0.612829 0.368060
vt 0.612829 0.278393
vt 0.505228 0.278393
vt 0.612829 0.188725
vt 0.505228 0.188725
vt 0.835444 0.387290
vt 0.835396 0.387290
vt 0.835396 0.325656
vt 0.835444 0.325656
vt 0.851050 0.404027
vt 0.850981 0.404027
vt 0.850981 0.453843
vt 0.851050 0.453843
vt 0.835444 0.448924
vt 0.835396 0.448924
vt 0.835445 0.325656
vt 0.835492 0.325656
vt 0.835492 0.333838
vt 0.835445 0.333838
vt 0.835492 0.407477
vt 0.835444 0.407477
vt 0.851050 0.314560
vt 0.850981 0.314560
vt 0.759852 0.448953
vt 0.759852 0.448891
vt 0.833801 0.448909
vt 0.833830 0.448953
vt 0.833789 0.387305
vt 0.833830 0.387305
vt 0.833830 0.325656
vt 0.833801 0.325700
vt 0.759852 0.325718
vt 0.759852 0.325656
vt 0.850981 0.469319
vt 0.851050 0.469319
vt 0.851050 0.466570
vt 0.850981 0.466570
vt 0.851050 0.462979
vt 0.850981 0.462979
vt 0.851050 0.459092
vt 0.850981 0.459092
vt 0.851050 0.455500
vt 0.850981 0.455500
vt 0.850981 0.513601
vt 0.851050 0.513601
vt 0.602866 0.099057
vt 0.606679 0.098299
vt 0.609911 0.096139
vt 0.612071 0.092907
vt 0.612829 0.089094
vt 0.612829 0.009390
vt 0.493272 0.268430
vt 0.494031 0.272242
vt 0.496191 0.275474
vt 0.499423 0.277634
vt 0.503235 0.278393
vt 0.493272 0.188725
vt 0.883960 0.495243
vt 0.883960 0.584911
vt 0.991561 0.584911
vt 0.991561 0.495243
vt 0.883960 0.405576
vt 0.991561 0.405576
vt 0.979625 0.674579
vt 0.872024 0.674579
vt 0.872024 0.764246
vt 0.979625 0.764246
vt 0.979625 0.584911
vt 0.872024 0.584911
vt 0.851671 0.314560
vt 0.851602 0.314560
vt 0.851602 0.324500
vt 0.851671 0.324500
vt 0.835185 0.448786
vt 0.835137 0.448786
vt 0.835137 0.387152
vt 0.835185 0.387153
vt 0.851602 0.413967
vt 0.851671 0.413967
vt 0.851671 0.463784
vt 0.851602 0.463784
vt 0.851602 0.513601
vt 0.851671 0.513601
vt 0.825369 0.325601
vt 0.825300 0.325601
vt 0.825300 0.432709
vt 0.825369 0.432709
vt 0.834272 0.406051
vt 0.834210 0.406051
vt 0.834210 0.405672
vt 0.834272 0.405672
vt 0.834210 0.406051
vt 0.834272 0.406051
vt 0.834272 0.406431
vt 0.834210 0.406431
vt 0.872024 0.584911
vt 0.871982 0.584974
vt 0.871964 0.674579
vt 0.833831 0.325656
vt 0.834210 0.325657
vt 0.834210 0.387246
vt 0.833830 0.387247
vt 0.834209 0.448837
vt 0.833830 0.448836
vt 0.823644 0.325601
vt 0.823644 0.415047
vt 0.824196 0.415047
vt 0.824196 0.325601
vt 0.824748 0.432664
vt 0.824748 0.325601
vt 0.824196 0.432664
vt 0.871982 0.764183
vt 0.861366 0.307871
vt 0.861324 0.307808
vt 0.753765 0.307782
vt 0.753765 0.307871
vt 0.833816 0.448953
vt 0.833816 0.449014
vt 0.759867 0.448996
vt 0.759838 0.448953
vt 0.851050 0.324500
vt 0.851050 0.413967
vt 0.851050 0.463767
vt 0.824748 0.325601
vt 0.824748 0.432709
vt 0.835064 0.392039
vt 0.835017 0.392039
vt 0.835034 0.389407
vt 0.835081 0.389407
vt 0.835090 0.387153
vt 0.834258 0.405672
vt 0.834210 0.405672
vt 0.834210 0.403318
vt 0.834258 0.403318
vt 0.834210 0.400659
vt 0.834258 0.400659
vt 0.835137 0.446824
vt 0.835090 0.446824
vt 0.881967 0.495243
vt 0.878155 0.496002
vt 0.874922 0.498162
vt 0.872763 0.501394
vt 0.872004 0.505207
vt 0.872004 0.584911
vt 0.834210 0.399295
vt 0.834258 0.399295
vt 0.991581 0.684542
vt 0.990823 0.680729
vt 0.988663 0.677497
vt 0.985431 0.675337
vt 0.981618 0.674579
vt 0.991581 0.764246
vt 0.851671 0.422161
vt 0.851695 0.529762
vt 0.851785 0.529762
vt 0.851734 0.422203
vt 0.846777 0.315197
vt 0.757109 0.315197
vt 0.757172 0.315239
vt 0.843333 0.428681
vt 0.843356 0.321080
vt 0.843293 0.321122
vt 0.843243 0.428681
vt 0.753689 0.321080
s 0
usemtl office
f 97/244/35 94/245/35 91/246/35 96/247/35
f 95/248/35 97/244/35 96/247/35 93/249/35
f 100/250/36 101/251/36 102/252/36 104/253/36
f 104/253/36 102/252/36 103/254/36 98/255/36
f 96/256/37 102/257/37 101/258/37 93/259/37
f 95/260/38 100/261/38 104/262/38 97/263/38
f 91/264/39 103/265/39 102/257/39 96/256/39
f 92/266/40 99/267/40 98/268/40 94/269/40
f 94/269/40 98/268/40 103/270/40 91/271/40
f 93/272/41 101/273/41 100/261/41 95/260/41
f 100/274/35 108/275/35 109/276/35 101/277/35
f 101/277/35 109/276/35 107/278/35 102/279/35
f 103/280/35 105/281/35 106/282/35 98/283/35
f 102/279/35 107/278/35 105/281/35 103/280/35
f 115/284/42 111/285/42 114/286/42 117/287/42
f 117/287/43 114/286/43 113/288/43 118/289/43
f 118/289/44 113/288/44 112/290/44 119/291/44
f 119/291/45 112/290/45 110/292/45 116/293/45
f 111/285/38 115/284/38 99/294/38 92/295/38
f 110/296/35 112/297/35 113/298/35 114/299/35 111/300/35 92/301/35 94/245/35 97/244/35
f 97/263/41 104/262/41 116/293/41 110/292/41
f 115/302/36 117/303/36 118/304/36 119/305/36 116/306/36 104/253/36 98/255/36 99/307/36
f 126/308/35 125/309/35 121/310/35 123/311/35
f 124/312/35 126/308/35 123/311/35 120/313/35
f 136/314/36 134/315/36 135/316/36 132/317/36
f 130/318/36 131/319/36 134/315/36 136/314/36
f 122/320/41 133/321/41 132/322/41 125/323/41
f 124/324/46 130/325/46 136/326/46 126/327/46
f 125/323/41 132/322/41 135/328/41 121/329/41
f 123/330/38 134/331/38 131/332/38 120/333/38
f 121/329/38 135/328/38 134/331/38 123/330/38
f 120/334/40 131/335/40 130/336/40 124/337/40
f 132/338/46 145/339/46 139/340/46 128/341/46
f 127/342/46 138/343/46 141/344/46 130/345/46
f 131/346/35 142/347/35 143/348/35 134/315/35
f 140/349/47 144/350/47 143/351/47 96/352/47
f 143/351/47 142/353/47 137/354/47 96/352/47
f 142/355/48 141/356/48 138/357/48 137/358/48
f 145/359/49 144/360/49 140/358/49 139/361/49
f 134/315/35 143/348/35 144/362/35 135/316/35
f 135/363/35 144/364/35 145/365/35 132/366/35
f 130/367/35 141/368/35 142/369/35 131/370/35
f 132/322/41 128/371/41 129/372/41 135/328/41
f 135/328/50 129/372/50 96/373/50 134/331/50
f 134/331/51 96/373/51 91/295/51 131/332/51
f 131/335/40 91/374/40 127/375/40 130/336/40
f 151/376/52 147/377/52 150/378/52 153/379/52
f 153/379/53 150/378/53 149/380/53 154/326/53
f 154/381/54 149/382/54 148/383/54 155/384/54
f 155/384/55 148/383/55 146/385/55 152/386/55
f 147/377/46 151/376/46 133/387/46 122/388/46
f 146/389/35 148/390/35 149/391/35 150/392/35 147/393/35 122/394/35 125/309/35 126/308/35
f 126/395/40 136/396/40 152/386/40 146/385/40
f 151/397/36 153/398/36 154/399/36 155/400/36 152/401/36 136/314/36 132/317/36 133/402/36
f 129/403/36 128/404/36 139/405/36 140/406/36
f 96/407/36 129/408/36 140/409/36
f 127/410/56 91/411/56 137/412/56 138/413/56
f 91/411/57 96/414/57 137/412/57
o paper
v -0.068993 -0.002281 -0.038608
v 0.076204 -0.002281 -0.051432
v -0.076204 -0.002281 -0.120240
v 0.068993 -0.002281 -0.133064
v -0.076204 -0.002042 -0.120240
v -0.068993 -0.002042 -0.038608
v 0.076204 -0.002042 -0.051432
v 0.068993 -0.002042 -0.133064
vn -0.0000 -1.0000 -0.0000
vn -0.0000 1.0000 -0.0000
vn -0.0880 -0.0000 -0.9961
vn 0.0880 -0.0000 0.9961
vn 0.9961 -0.0000 -0.0880
vn -0.9961 -0.0000 0.0880
vt 0.741606 0.718219
vt 0.859485 0.718219
vt 0.859485 0.927888
vt 0.741606 0.927888
vt 0.868514 0.979198
vt 0.868514 0.769530
vt 0.986393 0.769530
vt 0.986393 0.979198
vt 0.859858 0.746670
vt 0.859858 0.956338
vt 0.859514 0.956338
vt 0.859514 0.746670
vt 0.860202 0.746670
vt 0.860202 0.956338
vt 0.858476 0.401795
vt 0.858476 0.519674
vt 0.858131 0.519674
vt 0.858131 0.401795
vt 0.816779 0.328161
vt 0.816779 0.446040
vt 0.816435 0.446040
vt 0.816435 0.328161
s 0
usemtl office
f 156/415/58 158/416/58 159/417/58 157/418/58
f 161/419/59 162/420/59 163/421/59 160/422/59
f 159/423/60 158/424/60 160/425/60 163/426/60
f 156/427/61 157/428/61 162/424/61 161/423/61
f 157/429/62 159/430/62 163/431/62 162/432/62
f 158/433/63 156/434/63 161/435/63 160/436/63
o pencil
v -0.050000 -0.002350 -0.182044
v 0.050000 -0.002350 -0.183794
v 0.050000 -0.003588 -0.183282
v 0.050000 -0.004100 -0.182044
v 0.050000 -0.003588 -0.180807
v 0.050000 -0.002350 -0.180294
v 0.050000 -0.001113 -0.180807
v 0.050000 -0.000600 -0.182044
v 0.050000 -0.001113 -0.183282
v -0.042027 -0.002350 -0.183794
v -0.042027 -0.003588 -0.183282
v -0.042027 -0.004100 -0.182044
v -0.042027 -0.003588 -0.180807
v -0.042027 -0.002350 -0.180294
v -0.042027 -0.001113 -0.180807
v -0.042027 -0.000600 -0.182044
v -0.042027 -0.001113 -0.183282
v 0.047987 -0.002350 -0.183794
v 0.047987 -0.003588 -0.183282
v 0.047987 -0.004100 -0.182044
v 0.047987 -0.003588 -0.180807
v 0.047987 -0.002350 -0.180294
v 0.047987 -0.001113 -0.180807
v 0.047987 -0.000600 -0.182044
v 0.047987 -0.001113 -0.183282
vn -0.0000 -0.0000 -1.0000
vn -0.0000 -0.7071 -0.7071
vn -0.0000 -1.0000 -0.0000
vn -0.0000 -0.7071 0.7071
vn -0.0000 -0.0000 1.0000
vn -0.0000 0.7071 0.7071
vn -0.0000 1.0000 -0.0000
vn 1.0000 -0.0000 -0.0000
vn -0.0000 0.7071 -0.7071
vn -1.0000 -0.0000 -0.0000
vn -0.2144 0.6907 -0.6907
vn -0.2144 -0.0000 -0.9768
vn -0.2144 0.9768 -0.0000
vn -0.2144 0.6907 0.6907
vn -0.2144 -0.0000 0.9768
vn -0.2144 -0.6907 0.6907
vn -0.2144 -0.9768 -0.0000
vn -0.2144 -0.6907 -0.6907
vt 0.072253 0.794491
vt 0.072253 0.803999
vt 0.067771 0.804298
vt 0.067771 0.794790
vt 0.061432 0.804298
vt 0.061432 0.794790
vt 0.056950 0.803999
vt 0.056950 0.794491
vt 0.078690 0.794798
vt 0.078592 0.804305
vt 0.072253 0.804240
vt 0.072351 0.794732
vt 0.008342 0.809310
vt 0.008342 0.799803
vt 0.012824 0.799504
vt 0.012824 0.809012
vt 0.019163 0.799504
vt 0.019163 0.809012
vt 0.035128 0.798770
vt 0.039610 0.794288
vt 0.045949 0.794288
vt 0.050432 0.798770
vt 0.050432 0.805109
vt 0.045949 0.809591
vt 0.039610 0.809591
vt 0.035128 0.805109
vt 0.023645 0.799803
vt 0.023645 0.809310
vt 0.025856 0.809012
vt 0.025954 0.799504
vt 0.032292 0.799570
vt 0.032194 0.809077
vt 0.559664 0.683385
vt 0.556888 0.645194
vt 0.563227 0.645259
vt 0.547108 0.682762
vt 0.550278 0.644602
vt 0.554760 0.644900
vt 0.543939 0.644602
vt 0.568262 0.603763
vt 0.564699 0.641889
vt 0.560220 0.641544
vt 0.571038 0.641954
vt 0.552568 0.603763
vt 0.549399 0.641923
vt 0.544917 0.641625
vt 0.555738 0.641923
vt 0.567705 0.645604
vt 0.667588 0.996649
vt 0.671969 0.573307
vt 0.678307 0.573373
vt 0.673926 0.996715
vt 0.638535 0.997448
vt 0.638535 0.574083
vt 0.643017 0.574381
vt 0.643017 0.997746
vt 0.632196 0.997448
vt 0.632196 0.574083
vt 0.627714 0.997746
vt 0.627714 0.574381
vt 0.669138 0.573700
vt 0.664757 0.997042
vt 0.658419 0.996977
vt 0.662799 0.573635
vt 0.647499 0.573669
vt 0.647499 0.997034
vt 0.643017 0.996736
vt 0.643017 0.573371
vt 0.653838 0.573669
vt 0.653838 0.997034
vt 0.658321 0.573371
vt 0.658321 0.996736
s 1
usemtl office
f 181/437/64 165/438/64 166/439/65 182/440/65
f 182/440/65 166/439/65 167/441/66 183/442/66
f 183/442/66 167/441/66 168/443/67 184/444/67
f 184/445/67 168/446/67 169/447/68 185/448/68
f 185/449/68 169/450/68 170/451/69 186/452/69
f 186/452/69 170/451/69 171/453/70 187/454/70
f 166/455/71 165/456/71 172/457/71 171/458/71 170/459/71 169/460/71 168/461/71 167/462/71
f 187/454/70 171/453/70 172/463/72 188/464/72
f 188/465/72 172/466/72 165/467/64 181/468/64
f 164/469/73 180/470/74 173/471/75
f 164/472/73 179/473/76 180/474/74
f 164/472/73 178/475/77 179/473/76
f 164/476/73 177/477/78 178/478/77
f 164/476/73 176/479/79 177/477/78
f 164/480/73 175/481/80 176/482/79
f 164/480/73 174/483/81 175/481/80
f 164/469/73 173/471/75 174/484/81
f 180/485/72 188/486/72 181/487/64 173/488/64
f 179/489/70 187/490/70 188/491/72 180/492/72
f 178/493/69 186/494/69 187/490/70 179/489/70
f 177/495/68 185/496/68 186/494/69 178/493/69
f 176/497/67 184/498/67 185/499/68 177/500/68
f 175/501/66 183/502/66 184/503/67 176/504/67
f 174/505/65 182/506/65 183/502/66 175/501/66
f 173/507/64 181/508/64 182/506/65 174/505/65
o pencil_cup
v 0.000000 0.042650 -0.233093
v 0.009326 0.042650 -0.229230
v 0.013189 0.042650 -0.219904
v 0.009326 0.042650 -0.210578
v 0.000000 0.042650 -0.206715
v -0.009326 0.042650 -0.210578
v -0.013189 0.042650 -0.219904
v -0.009326 0.042650 -0.229230
v 0.010607 0.042650 -0.230510
v 0.000000 0.042650 -0.234904
v 0.015000 0.042650 -0.219904
v 0.010607 0.042650 -0.209297
v 0.000000 0.042650 -0.204904
v -0.010607 0.042650 -0.209297
v -0.015000 0.042650 -0.219904
v -0.010607 0.042650 -0.230510
v 0.009326 0.000000 -0.229230
v 0.000000 0.000000 -0.233093
v 0.013189 0.000000 -0.219904
v 0.009326 0.000000 -0.210578
v 0.000000 0.000000 -0.206715
v -0.009326 0.000000 -0.210578
v -0.013189 0.000000 -0.219904
v -0.009326 0.000000 -0.229230
v 0.000000 -0.002350 -0.232894
v 0.000000 -0.000493 -0.234904
v 0.000000 -0.001806 -0.234315
v 0.009185 -0.002350 -0.229089
v 0.010607 -0.000493 -0.230510
v 0.010190 -0.001806 -0.230094
v 0.012990 -0.002350 -0.219904
v 0.015000 -0.000493 -0.219904
v 0.014411 -0.001806 -0.219904
v 0.009185 -0.002350 -0.210719
v 0.010607 -0.000493 -0.209297
v 0.010190 -0.001806 -0.209714
v -0.000000 -0.002350 -0.206914
v 0.000000 -0.000493 -0.204904
v -0.000000 -0.001806 -0.205493
v -0.009185 -0.002350 -0.210719
v -0.010607 -0.000493 -0.209297
v -0.010190 -0.001806 -0.209714
v -0.012990 -0.002350 -0.219904
v -0.015000 -0.000493 -0.219904
v -0.014411 -0.001806 -0.219904
v -0.009185 -0.002350 -0.229089
v -0.010607 -0.000493 -0.230510
v -0.010190 -0.001806 -0.230094
vn 1.0000 -0.0000 -0.0000
vn 0.7071 -0.0000 -0.7071
vn -0.0000 1.0000 -0.0000
vn -0.0000 -0.0000 -1.0000
vn -0.7071 -0.0000 -0.7071
vn -1.0000 -0.0000 -0.0000
vn -0.7071 -0.0000 0.7071
vn 0.7071 -0.0000 0.7071
vn -0.0000 -0.0000 1.0000
vn -0.0000 -0.1994 -0.9799
vn 0.6929 -0.1994 -0.6929
vn 0.5169 -0.6824 -0.5169
vn -0.0000 -0.6824 -0.7310
vn 0.1590 -0.9744 -0.1590
vn -0.0000 -0.9744 -0.2248
vn 0.9799 -0.1994 -0.0000
vn 0.7310 -0.6824 -0.0000
vn 0.2248 -0.9744 -0.0000
vn 0.6929 -0.1994 0.6929
vn 0.5169 -0.6824 0.5169
vn 0.1590 -0.9744 0.1590
vn -0.0000 -0.1994 0.9799
vn -0.0000 -0.6824 0.7310
vn -0.0000 -0.9744 0.2248
vn -0.6929 -0.1994 0.6929
vn -0.5169 -0.6824 0.5169
vn -0.1590 -0.9744 0.1590
vn -0.9799 -0.1994 -0.0000
vn -0.7310 -0.6824 -0.0000
vn -0.2248 -0.9744 -0.0000
vn -0.6929 -0.1994 -0.6929
vn -0.5169 -0.6824 -0.5169
vn -0.1590 -0.9744 -0.1590
vt 0.506525 0.857662
vt 0.485656 0.854954
vt 0.485656 0.731312
vt 0.506525 0.734020
vt 0.451250 0.802388
vt 0.430382 0.781519
vt 0.432408 0.776627
vt 0.456143 0.800362
vt 0.400869 0.781519
vt 0.398842 0.776627
vt 0.380000 0.802388
vt 0.375108 0.800362
vt 0.380000 0.831901
vt 0.375108 0.833928
vt 0.400869 0.852770
vt 0.398842 0.857662
vt 0.430382 0.852770
vt 0.432408 0.857662
vt 0.451250 0.831901
vt 0.456143 0.833927
vt 0.303857 0.786411
vt 0.324726 0.807280
vt 0.324726 0.836793
vt 0.303857 0.857662
vt 0.274344 0.857662
vt 0.253475 0.836793
vt 0.253475 0.807280
vt 0.274344 0.786411
vt 0.556906 0.857662
vt 0.536038 0.854954
vt 0.536038 0.731312
vt 0.556906 0.734020
vt 0.375108 0.857662
vt 0.354239 0.854954
vt 0.354239 0.731312
vt 0.375108 0.734020
vt 0.320673 0.986998
vt 0.291160 0.986998
vt 0.291160 0.863356
vt 0.320673 0.863356
vt 0.456143 0.854954
vt 0.456143 0.731312
vt 0.506525 0.854954
vt 0.506525 0.731312
vt 0.324726 0.854954
vt 0.324726 0.731312
vt 0.341542 0.989706
vt 0.341542 0.866064
vt 0.570744 0.864635
vt 0.537178 0.864635
vt 0.537837 0.860621
vt 0.570085 0.860621
vt 0.456143 0.721575
vt 0.456143 0.753824
vt 0.452303 0.752234
vt 0.452303 0.723166
vt 0.513443 0.861555
vt 0.515034 0.857662
vt 0.433340 0.776627
vt 0.431749 0.772788
vt 0.398842 0.864635
vt 0.365276 0.864635
vt 0.365935 0.860621
vt 0.398183 0.860621
vt 0.401091 0.776627
vt 0.402682 0.772788
vt 0.341542 0.861555
vt 0.343132 0.857662
vt 0.378288 0.753824
vt 0.382128 0.752234
vt 0.513443 0.864635
vt 0.479877 0.864635
vt 0.480536 0.860621
vt 0.512785 0.860621
vt 0.378288 0.721575
vt 0.382128 0.723166
vt 0.456143 0.861555
vt 0.457733 0.857662
vt 0.401091 0.698772
vt 0.402682 0.702612
vt 0.456143 0.864635
vt 0.422577 0.864635
vt 0.423236 0.860621
vt 0.455484 0.860621
vt 0.433340 0.698772
vt 0.431749 0.702612
vt 0.398842 0.861555
vt 0.400433 0.857662
vt 0.570744 0.989706
vt 0.537178 0.989706
vt 0.422577 0.989706
vt 0.398842 0.986626
vt 0.513443 0.986626
vt 0.398842 0.989706
vt 0.365276 0.989706
vt 0.341542 0.986626
vt 0.513443 0.989706
vt 0.479877 0.989706
vt 0.456143 0.986626
vt 0.456143 0.989706
s 1
usemtl office
f 195/509/82 194/510/83 210/511/83 211/512/82
f 189/513/84 190/514/84 197/515/84 198/516/84
f 190/514/84 191/517/84 199/518/84 197/515/84
f 191/517/84 192/519/84 200/520/84 199/518/84
f 192/519/84 193/521/84 201/522/84 200/520/84
f 193/521/84 194/523/84 202/524/84 201/522/84
f 194/523/84 195/525/84 203/526/84 202/524/84
f 195/525/84 196/527/84 204/528/84 203/526/84
f 196/527/84 189/513/84 198/516/84 204/528/84
f 205/529/84 206/530/84 212/531/84 211/532/84 210/533/84 209/534/84 208/535/84 207/536/84
f 193/537/85 192/538/86 208/539/86 209/540/85
f 191/541/87 190/542/88 205/543/88 207/544/87
f 196/545/89 195/546/82 211/547/82 212/548/89
f 194/510/83 193/549/85 209/550/85 210/511/83
f 192/538/86 191/551/87 207/552/87 208/539/86
f 190/542/88 189/553/90 206/554/90 205/543/88
f 189/555/90 196/545/89 212/548/89 206/556/90
f 214/557/91 217/558/92 218/559/93 215/560/94
f 215/561/94 218/562/93 216/563/95 213/564/96
f 217/558/92 220/565/97 221/566/98 218/559/93
f 218/562/93 221/567/98 219/568/99 216/563/95
f 220/569/97 223/570/100 224/571/101 221/572/98
f 221/567/98 224/573/101 222/574/102 219/568/99
f 223/570/100 226/575/103 227/576/104 224/571/101
f 224/573/101 227/577/104 225/578/105 222/574/102
f 226/579/103 229/580/106 230/581/107 227/582/104
f 227/577/104 230/583/107 228/584/108 225/578/105
f 229/580/106 232/585/109 233/586/110 230/581/107
f 230/583/107 233/587/110 231/588/111 228/584/108
f 232/589/109 235/590/112 236/591/113 233/592/110
f 233/587/110 236/593/113 234/594/114 231/588/111
f 235/590/112 214/595/91 215/596/94 236/591/113
f 236/593/113 215/561/94 213/564/96 234/594/114
f 213/564/96 216/563/95 219/568/99 222/574/102 225/578/105 228/584/108 231/588/111 234/594/114
f 214/557/91 198/597/85 197/598/83 217/558/92
f 235/590/112 204/599/86 198/600/85 214/595/91
f 217/558/92 197/598/83 199/601/82 220/565/97
f 220/569/97 199/602/82 200/603/89 223/570/100
f 223/570/100 200/603/89 201/604/90 226/575/103
f 226/579/103 201/605/90 202/606/88 229/580/106
f 229/580/106 202/606/88 203/607/87 232/585/109
f 232/589/109 203/608/87 204/599/86 235/590/112
