# Blender 5.0.0
# www.blender.org
mtllib drawing.mtl
o drawing
v 0.300000 0.000000 0.444314
v 0.300000 0.000000 -0.444314
v -0.300000 0.000000 0.444314
v -0.300000 0.000000 -0.444314
v 0.300000 0.000000 0.222157
v 0.300000 0.000000 -0.000000
v 0.300000 0.000000 -0.222157
v -0.300000 0.000000 -0.222157
v -0.300000 0.000000 0.000000
v -0.300000 0.000000 0.222157
v 0.300000 0.013091 -0.486334
v -0.300000 0.013091 -0.486334
v 0.300000 0.043013 -0.498334
v -0.300000 0.043013 -0.498334
v 0.300000 0.068388 -0.471740
v -0.300000 0.068388 -0.471740
v 0.300000 0.013091 0.486334
v -0.300000 0.013091 0.486334
v 0.300000 0.043013 0.498334
v -0.300000 0.043013 0.498334
v 0.300000 0.068388 0.471740
v -0.300000 0.068388 0.471740
v -0.300000 -0.001024 0.444654
v 0.300000 -0.001024 0.444654
v 0.300000 -0.001024 -0.222157
v 0.300000 -0.001024 -0.444654
v -0.300000 -0.001024 -0.444654
v -0.300000 -0.001024 0.222157
v 0.300000 -0.001024 0.222157
v 0.300000 -0.001024 -0.000000
v -0.300000 -0.001024 -0.222157
v -0.300000 -0.001024 0.000000
v 0.300000 0.012365 -0.487630
v -0.300000 0.012365 -0.487630
v 0.300000 0.043209 -0.500000
v -0.300000 0.043209 -0.500000
v 0.300000 0.068975 -0.472996
v -0.300000 0.068975 -0.472997
v -0.300000 0.012365 0.487630
v 0.300000 0.012365 0.487630
v -0.300000 0.043209 0.500000
v 0.300000 0.043209 0.500000
v -0.300000 0.068976 0.472997
v 0.300000 0.068976 0.472997
vn -0.0000 1.0000 -0.0000
vn -0.0000 0.9547 0.2974
vn -0.0000 0.3722 0.9281
vn -0.0000 -0.7235 0.6903
vn -0.0000 0.9547 -0.2974
vn -0.0000 0.3722 -0.9281
vn -0.0000 -0.7235 -0.6903
vn -0.0000 -1.0000 -0.0000
vn -0.0000 -0.9547 -0.2974
vn -0.0000 -0.3722 -0.9281
vn -0.0000 0.7235 -0.6903
vn -0.0000 -0.9547 0.2974
vn -0.0000 -0.3722 0.9281
vn -0.0000 0.7235 0.6903
vn -1.0000 -0.0000 -0.0000
vn 1.0000 -0.0000 -0.0000
vn -0.0000 0.9058 0.4238
vn -0.0000 0.9058 -0.4237
vt 0.298997 0.999543
vt 0.093114 0.999543
vt 0.093114 0.004560
vt 0.298997 0.004560
vt 0.916646 0.999543
vt 0.710763 0.999543
vt 0.710763 0.004560
vt 0.916646 0.004560
vt 0.504880 0.999543
vt 0.504880 0.004560
vt 0.054172 0.999543
vt 0.054172 0.004560
vt 0.053661 0.999543
vt 0.001218 0.999589
vt 0.001218 0.004607
vt 0.053661 0.004560
vt 0.050943 0.999589
vt 0.050943 0.004607
vt 0.955588 0.004560
vt 0.955588 0.999543
vt 0.956708 0.004560
vt 0.999829 0.004560
vt 0.999829 0.999543
vt 0.956708 0.999543
vt 0.956819 0.004560
vt 0.956819 0.999543
vt 0.796093 0.722157
vt 0.203907 0.722157
vt 0.203907 0.944654
vt 0.796093 0.944654
vt 0.796093 0.055346
vt 0.203907 0.055346
vt 0.203907 0.277843
vt 0.796093 0.277843
vt 0.203907 0.500000
vt 0.796093 0.500000
vt 0.203907 0.987630
vt 0.796093 0.987630
vt 0.796093 0.487264
vt 0.203907 0.487264
vt 0.203907 0.533430
vt 0.796093 0.533430
vt 0.203907 0.571995
vt 0.796093 0.571995
vt 0.796093 0.012370
vt 0.203907 0.012370
vt 0.203907 0.487264
vt 0.796093 0.487264
vt 0.796093 0.533430
vt 0.203907 0.533430
vt 0.796093 0.571995
vt 0.203907 0.571995
vt 0.167907 0.533136
vt 0.166797 0.533430
vt 0.184792 0.571995
vt 0.185629 0.571116
vt 0.648047 0.468758
vt 0.648047 0.467224
vt 0.500000 0.467224
vt 0.500000 0.468758
vt 0.175904 0.488352
vt 0.175040 0.487264
vt 0.203680 0.467224
vt 0.203907 0.468758
vt 0.796320 0.467224
vt 0.796093 0.468758
vt 0.351953 0.467224
vt 0.351953 0.468758
vt 0.203907 0.468758
vt 0.203680 0.467224
vt 0.175040 0.487264
vt 0.175904 0.488352
vt 0.832093 0.533136
vt 0.833203 0.533430
vt 0.824960 0.487264
vt 0.824096 0.488352
vt 0.824096 0.488352
vt 0.824960 0.487264
vt 0.833203 0.533430
vt 0.832093 0.533136
vt 0.796093 0.971740
vt 0.796093 0.972996
vt 0.203907 0.972996
vt 0.203907 0.971740
vt 0.814371 0.571115
vt 0.815208 0.571995
vt 0.203907 0.028260
vt 0.203907 0.027003
vt 0.796093 0.027003
vt 0.796093 0.028260
vt 0.814371 0.571115
vt 0.796320 0.467224
s 0
usemtl drawing_1
f 7/1/1 2/2/1 4/3/1 8/4/1
f 1/5/1 5/6/1 10/7/1 3/8/1
f 5/6/1 6/9/1 9/10/1 10/7/1
f 6/9/1 7/1/1 8/4/1 9/10/1
f 2/2/2 11/11/2 12/12/2 4/3/2
f 11/13/3 13/14/3 14/15/3 12/16/3
f 13/14/4 15/17/4 16/18/4 14/15/4
f 3/8/5 18/19/5 17/20/5 1/5/5
f 18/21/6 20/22/6 19/23/6 17/24/6
f 20/22/7 22/25/7 21/26/7 19/23/7
usemtl drawing_2
f 25/27/8 31/28/8 27/29/8 26/30/8
f 24/31/8 23/32/8 28/33/8 29/34/8
f 29/34/8 28/33/8 32/35/8 30/36/8
f 30/36/8 32/35/8 31/28/8 25/27/8
f 26/30/9 27/29/9 34/37/9 33/38/9
f 33/39/10 34/40/10 36/41/10 35/42/10
f 35/42/11 36/41/11 38/43/11 37/44/11
f 23/32/12 24/31/12 40/45/12 39/46/12
f 39/47/13 40/48/13 42/49/13 41/50/13
f 41/50/14 42/49/14 44/51/14 43/52/14
f 20/53/15 41/54/15 43/55/15 22/56/15
f 8/57/15 31/58/15 32/59/15 9/60/15
f 17/61/16 40/62/16 24/63/16 1/64/16
f 7/57/16 25/58/16 26/65/16 2/66/16
f 9/60/15 32/59/15 28/67/15 10/68/15
f 3/69/15 23/70/15 39/71/15 18/72/15
f 14/73/15 36/74/15 34/75/15 12/76/15
f 10/68/15 28/67/15 23/70/15 3/69/15
f 11/77/16 33/78/16 35/79/16 13/80/16
f 19/53/16 42/54/16 40/62/16 17/61/16
f 1/64/16 24/63/16 29/67/16 5/68/16
f 15/81/17 37/82/17 38/83/17 16/84/17
f 18/72/15 39/71/15 41/54/15 20/53/15
f 5/68/16 29/67/16 30/59/16 6/60/16
f 16/85/15 38/86/15 36/74/15 14/73/15
f 22/87/18 43/88/18 44/89/18 21/90/18
f 6/60/16 30/59/16 25/58/16 7/57/16
f 13/80/16 35/79/16 37/86/16 15/91/16
f 12/76/15 34/75/15 27/92/15 4/66/15
f 21/56/16 44/55/16 42/54/16 19/53/16
f 4/66/15 27/92/15 31/58/15 8/57/15
f 2/66/16 26/65/16 33/78/16 11/77/16
