# Blender 5.0.0
# www.blender.org
mtllib rack.mtl
o rack
v -0.300000 0.000000 1.000000
v -0.300000 2.000000 1.000000
v -0.300000 0.000000 -1.000000
v -0.300000 2.000000 -1.000000
v 0.300000 0.000000 1.000000
v 0.300000 2.000000 1.000000
v 0.300000 0.000000 -1.000000
v 0.300000 2.000000 -1.000000
v -0.300000 1.487500 1.000000
v -0.300000 1.075000 1.000000
v -0.300000 0.662500 1.000000
v 0.300000 0.662500 0.900000
v 0.300000 1.075000 0.900000
v 0.300000 1.487500 0.900000
v 0.300000 0.662500 -0.900000
v 0.300000 1.075000 -0.900000
v 0.300000 1.487500 -0.900000
v -0.300000 0.662500 -0.900000
v -0.300000 1.075000 -0.900000
v -0.300000 1.487500 -0.900000
v -0.300000 0.000000 -0.900000
v -0.300000 0.000000 0.900000
v -0.300000 2.000000 0.900000
v -0.300000 2.000000 -0.900000
v 0.300000 0.000000 0.900000
v 0.300000 0.000000 -0.900000
v 0.300000 2.000000 -0.900000
v 0.300000 2.000000 0.900000
v -0.300000 0.662500 0.900000
v -0.300000 1.075000 0.900000
v -0.300000 1.487500 0.900000
v 0.300000 0.662500 1.000000
v 0.300000 1.075000 1.000000
v 0.300000 1.487500 1.000000
v 0.300000 0.662500 -1.000000
v 0.300000 1.075000 -1.000000
v 0.300000 1.487500 -1.000000
v -0.300000 0.662500 -1.000000
v -0.300000 1.075000 -1.000000
v -0.300000 1.487500 -1.000000
v -0.300000 0.250000 -1.000000
v 0.300000 0.250000 -1.000000
v 0.300000 0.250000 1.000000
v -0.300000 0.250000 1.000000
v -0.300000 0.250000 0.900000
v -0.300000 0.250000 -0.900000
v 0.300000 0.250000 -0.900000
v 0.300000 0.250000 0.900000
v -0.300000 1.900000 1.000000
v -0.300000 1.900000 -1.000000
v 0.300000 1.900000 -1.000000
v 0.300000 1.900000 1.000000
v 0.300000 1.900000 -0.900000
v 0.300000 1.900000 0.900000
v -0.300000 1.900000 0.900000
v -0.300000 1.900000 -0.900000
v 0.320000 0.250000 -1.000000
v 0.320000 0.000000 -1.000000
v 0.320000 0.000000 -0.900000
v 0.320000 2.000000 0.900000
v 0.320000 2.000000 1.000000
v 0.320000 0.250000 1.000000
v 0.320000 0.000000 1.000000
v 0.320000 1.075000 0.900000
v 0.320000 0.662500 0.900000
v 0.320000 1.487500 0.900000
v 0.320000 1.900000 0.900000
v 0.320000 1.075000 -0.900000
v 0.320000 0.662500 -0.900000
v 0.320000 1.487500 -0.900000
v 0.320000 1.900000 -0.900000
v 0.320000 1.487500 1.000000
v 0.320000 1.075000 1.000000
v 0.320000 0.662500 1.000000
v 0.320000 0.000000 0.900000
v 0.320000 2.000000 -1.000000
v 0.320000 2.000000 -0.900000
v 0.320000 0.662500 -1.000000
v 0.320000 1.075000 -1.000000
v 0.320000 1.487500 -1.000000
v 0.320000 1.900000 -1.000000
v 0.320000 0.250000 -0.900000
v 0.320000 0.250000 0.900000
v 0.320000 1.900000 1.000000
v 0.300000 0.687500 -0.875000
v 0.300000 1.050000 -0.875000
v 0.300000 1.050000 0.875000
v 0.300000 0.687500 0.875000
v 0.300000 1.100000 -0.875000
v 0.300000 1.462500 -0.875000
v 0.300000 1.462500 0.875000
v 0.300000 1.100000 0.875000
v 0.300000 0.275000 -0.875000
v 0.300000 0.637500 -0.875000
v 0.300000 0.637500 0.875000
v 0.300000 0.275000 0.875000
v 0.300000 1.512500 -0.875000
v 0.300000 1.875000 -0.875000
v 0.300000 1.875000 0.875000
v 0.300000 1.512500 0.875000
v -0.050000 1.050000 -0.875000
v -0.050000 0.687500 -0.875000
v -0.050000 0.687500 0.875000
v -0.050000 1.050000 0.875000
v -0.050000 1.462500 -0.875000
v -0.050000 1.100000 -0.875000
v -0.050000 1.100000 0.875000
v -0.050000 1.462500 0.875000
v -0.050000 0.637500 -0.875000
v -0.050000 0.275000 -0.875000
v -0.050000 0.275000 0.875000
v -0.050000 0.637500 0.875000
v -0.050000 1.875000 -0.875000
v -0.050000 1.512500 -0.875000
v -0.050000 1.512500 0.875000
v -0.050000 1.875000 0.875000
vn -1.0000 -0.0000 -0.0000
vn -0.0000 -0.0000 -1.0000
vn -0.0000 -0.0000 1.0000
vn -0.0000 -1.0000 -0.0000
vn -0.0000 1.0000 -0.0000
vn 1.0000 -0.0000 -0.0000
vt 0.018018 0.018018
vt -0.000000 0.018018
vt 0.000000 -0.000000
vt 0.018018 -0.000000
vt 0.360360 0.342342
vt 0.360360 0.324324
vt 0.468468 0.324324
vt 0.468468 0.342342
vt 0.738739 0.777027
vt 0.738739 0.702703
vt 0.742342 0.702703
vt 0.742342 0.777027
vt 0.475676 0.342342
vt 0.475676 0.324324
vt 0.583784 0.324324
vt 0.583784 0.342342
vt 0.695495 0.342342
vt 0.587387 0.342342
vt 0.587387 0.324324
vt 0.695495 0.324324
vt 0.803604 0.342342
vt 0.803604 0.324324
vt 0.018018 0.378378
vt 0.000000 0.378378
vt 0.000000 0.360360
vt 0.018018 0.360360
vt 0.475676 0.565315
vt 0.475676 0.490991
vt 0.583784 0.490991
vt 0.583784 0.565315
vt 0.475676 0.416667
vt 0.583784 0.416667
vt 0.475676 0.639640
vt 0.583784 0.639640
vt 0.996396 0.963964
vt 0.996396 0.639640
vt 1.000000 0.639640
vt 1.000000 0.963964
vt 0.738739 0.684685
vt 0.742342 0.684685
vt 0.738739 0.851351
vt 0.742342 0.851351
vt 0.360360 0.565315
vt 0.360360 0.490991
vt 0.468468 0.490991
vt 0.468468 0.565315
vt 0.360360 0.416667
vt 0.468468 0.416667
vt 0.360360 0.639640
vt 0.468468 0.639640
vt 0.240991 0.018018
vt 0.166667 0.018018
vt 0.166667 -0.000000
vt 0.240991 -0.000000
vt 0.092342 0.018018
vt 0.092342 -0.000000
vt 0.675676 0.750000
vt 0.675676 0.684685
vt 0.738739 0.684685
vt 0.738739 0.750000
vt 0.092342 0.360360
vt 0.018018 0.360360
vt 0.018018 0.342342
vt 0.092342 0.342342
vt 0.738739 1.000000
vt 0.738739 0.925676
vt 0.742342 0.925676
vt 0.742342 1.000000
vt 0.934685 0.000000
vt 0.934685 0.315315
vt 0.871622 0.315315
vt 0.871622 0.000000
vt 0.315315 0.342342
vt 0.240991 0.342342
vt 0.315315 0.018018
vt 0.166667 0.342342
vt 0.472072 0.342342
vt 0.472072 0.416667
vt 0.745946 0.684685
vt 0.745946 0.702703
vt 0.742342 0.702703
vt 0.742342 0.684685
vt 0.315315 -0.000000
vt 0.803604 0.684685
vt 0.803604 0.666667
vt 0.807207 0.666667
vt 0.807207 0.684685
vt 0.315315 0.360360
vt 0.240991 0.360360
vt 0.166667 0.360360
vt 0.695495 0.684685
vt 0.695495 0.666667
vt 0.587387 0.684685
vt 0.587387 0.666667
vt 0.378378 0.324324
vt 0.360360 0.324324
vt 0.360360 0.000000
vt 0.378378 0.000000
vt -0.000000 0.360360
vt -0.000000 0.342342
vt 0.745946 0.925676
vt 0.745946 1.000000
vt 0.742342 1.000000
vt 0.742342 0.925676
vt 0.472072 0.342342
vt 0.472072 0.324324
vt 0.360360 0.342342
vt 0.360360 0.018018
vt 0.360360 0.360360
vt 0.360360 -0.000000
vt 0.360360 0.684685
vt 0.468468 0.684685
vt 0.583784 0.666667
vt 0.475676 0.684685
vt 0.583784 0.684685
vt 0.423423 0.750000
vt 0.423423 0.684685
vt 0.486486 0.684685
vt 0.486486 0.750000
vt 0.000000 0.786036
vt 0.000000 0.720721
vt 0.063063 0.720721
vt 0.063063 0.786036
vt 0.472072 0.324324
vt 0.240991 0.378378
vt 0.166667 0.378378
vt 0.166667 0.360360
vt 0.240991 0.360360
vt 0.092342 0.378378
vt 0.092342 0.360360
vt 0.315315 0.378378
vt 0.315315 0.360360
vt 0.018018 0.720721
vt 0.018018 0.702703
vt 0.092342 0.702703
vt 0.092342 0.720721
vt 0.166667 0.702703
vt 0.166667 0.720721
vt 0.240991 0.720721
vt 0.240991 0.702703
vt 0.315315 0.702703
vt 0.315315 0.720721
vt -0.000000 0.720721
vt -0.000000 0.702703
vt 0.360360 0.702703
vt 0.360360 0.378378
vt 0.360360 0.720721
vt 0.360360 0.360360
vt 0.472072 0.490991
vt 0.472072 0.565315
vt 0.745946 0.851351
vt 0.742342 0.851351
vt 0.472072 0.490991
vt 0.472072 0.416667
vt 0.745946 0.777027
vt 0.742342 0.777027
vt 0.472072 0.639640
vt 0.472072 0.684685
vt 0.807207 0.324324
vt 0.807207 0.342342
vt 0.472072 0.684685
vt 0.472072 0.639640
vt 0.472072 0.565315
vt 0.601351 0.324324
vt 0.527027 0.324324
vt 0.531532 0.319820
vt 0.596847 0.319820
vt 0.527027 0.000000
vt 0.531532 0.004505
vt 0.601351 0.000000
vt 0.596847 0.004505
vt 0.452703 0.324324
vt 0.457207 0.319820
vt 0.522523 0.319820
vt 0.452703 0.000000
vt 0.457207 0.004505
vt 0.522523 0.004505
vt 0.675676 0.324324
vt 0.605856 0.319820
vt 0.671171 0.319820
vt 0.605856 0.004505
vt 0.675676 0.000000
vt 0.671171 0.004505
vt 0.382883 0.319820
vt 0.448198 0.319820
vt 0.382883 0.004505
vt 0.448198 0.004505
vt 0.871622 0.315315
vt 0.806306 0.315315
vt 0.806306 -0.000000
vt 0.871622 0.000000
vt 0.740991 0.315315
vt 0.675676 0.315315
vt 0.675676 -0.000000
vt 0.740991 0.000000
vt 0.872522 0.639640
vt 0.807207 0.639640
vt 0.872522 0.324324
vt 0.806306 0.315315
vt 0.740991 -0.000000
vt 0.806306 -0.000000
vt 0.935586 0.324324
vt 0.935586 0.639640
vt 0.872522 0.639640
vt 0.486486 0.750000
vt 0.486486 0.684685
vt 0.549550 0.684685
vt 0.549550 0.750000
vt 0.807207 0.954955
vt 0.807207 0.639640
vt 0.870270 0.639640
vt 0.870270 0.954955
vt 0.933333 0.639640
vt 0.933333 0.954955
vt 0.933333 0.954955
vt 0.933333 0.639640
vt 0.996396 0.639640
vt 0.996396 0.954955
vt 0.997748 0.000000
vt 0.997748 0.315315
vt 0.126126 0.720721
vt 0.126126 0.786036
vt 0.998649 0.324324
vt 0.998649 0.639640
vt 0.612613 0.684685
vt 0.612613 0.750000
vt 0.549549 0.750000
vt 0.549549 0.684685
vt 0.360360 1.000000
vt 0.423423 0.684685
vt 0.423423 1.000000
vt 0.189189 0.720721
vt 0.189189 0.786036
vt 0.675676 0.684685
vt 0.675676 0.750000
vt 0.612613 0.684685
s 0
usemtl rack
f 56/1/1 24/2/1 4/3/1 50/4/1
f 50/5/2 4/6/2 8/7/2 51/8/2
f 14/9/2 54/10/2 67/11/2 66/12/2
f 52/13/3 6/14/3 2/15/3 49/16/3
f 22/17/4 25/18/4 5/19/4 1/20/4
f 28/21/5 23/17/5 2/20/5 6/22/5
f 67/23/6 60/24/6 61/25/6 84/26/6
f 32/27/3 33/28/3 10/29/3 11/30/3
f 34/31/3 52/13/3 49/16/3 9/32/3
f 43/33/3 32/27/3 11/30/3 44/34/3
f 47/35/5 48/36/5 83/37/5 82/38/5
f 54/10/2 28/39/2 60/40/2 67/11/2
f 13/41/2 14/9/2 66/12/2 64/42/2
f 38/43/2 39/44/2 36/45/2 35/46/2
f 40/47/2 50/5/2 51/8/2 37/48/2
f 41/49/2 38/43/2 35/46/2 42/50/2
f 18/51/1 19/52/1 39/53/1 38/54/1
f 20/55/1 56/1/1 50/4/1 40/56/1
f 93/57/3 94/58/3 109/59/3 110/60/3
f 9/61/1 49/62/1 55/63/1 31/64/1
f 48/65/2 12/66/2 65/67/2 83/68/2
f 88/69/5 85/70/5 102/71/5 103/72/5
f 45/73/1 29/74/1 18/51/1 46/75/1
f 30/76/1 31/64/1 20/55/1 19/52/1
f 37/48/2 51/8/2 81/77/2 80/78/2
f 27/79/3 53/80/3 71/81/3 77/82/3
f 46/75/1 18/51/1 38/54/1 41/83/1
f 8/84/5 27/85/5 77/86/5 76/87/5
f 44/88/1 11/89/1 29/74/1 45/73/1
f 10/90/1 9/61/1 31/64/1 30/76/1
f 8/84/5 4/91/5 24/92/5 27/85/5
f 27/85/5 24/92/5 23/17/5 28/21/5
f 3/91/4 7/93/4 26/94/4 21/92/4
f 21/92/4 26/94/4 25/18/4 22/17/4
f 12/66/2 13/41/2 64/42/2 65/67/2
f 53/95/6 27/96/6 28/97/6 54/98/6
f 49/62/1 2/99/1 23/100/1 55/63/1
f 55/63/1 23/100/1 24/2/1 56/1/1
f 15/101/3 47/102/3 82/103/3 69/104/3
f 6/14/3 52/13/3 84/105/3 61/106/3
f 22/107/1 45/73/1 46/75/1 21/108/1
f 1/109/1 44/88/1 45/73/1 22/107/1
f 21/108/1 46/75/1 41/83/1 3/110/1
f 3/111/2 41/49/2 42/50/2 7/112/2
f 25/18/4 26/94/4 59/113/4 75/16/4
f 5/114/3 43/33/3 44/34/3 1/115/3
f 89/116/3 90/117/3 105/118/3 106/119/3
f 31/64/1 55/63/1 56/1/1 20/55/1
f 29/74/1 30/76/1 19/52/1 18/51/1
f 85/120/3 86/121/3 101/122/3 102/123/3
f 51/8/2 8/7/2 76/124/2 81/77/2
f 39/44/2 40/47/2 37/48/2 36/45/2
f 19/52/1 20/55/1 40/56/1 39/53/1
f 11/89/1 10/90/1 30/76/1 29/74/1
f 33/28/3 34/31/3 9/32/3 10/29/3
f 65/125/6 64/126/6 73/127/6 74/128/6
f 66/129/6 67/23/6 84/26/6 72/130/6
f 83/131/6 65/125/6 74/128/6 62/132/6
f 81/133/6 71/134/6 70/135/6 80/136/6
f 80/136/6 70/135/6 68/137/6 79/138/6
f 78/139/6 69/140/6 82/141/6 57/142/6
f 79/138/6 68/137/6 69/140/6 78/139/6
f 81/133/6 76/143/6 77/144/6 71/134/6
f 59/145/6 82/141/6 83/131/6 75/146/6
f 58/147/6 57/142/6 82/141/6 59/145/6
f 75/146/6 83/131/6 62/132/6 63/148/6
f 64/126/6 66/129/6 72/130/6 73/127/6
f 35/46/2 36/45/2 79/149/2 78/150/2
f 16/151/3 15/101/3 69/104/3 68/152/3
f 34/31/3 33/28/3 73/153/3 72/154/3
f 36/45/2 37/48/2 80/78/2 79/149/2
f 17/155/3 16/151/3 68/152/3 70/156/3
f 52/13/3 34/31/3 72/154/3 84/105/3
f 7/112/2 42/50/2 57/157/2 58/158/2
f 53/80/3 17/155/3 70/156/3 71/81/3
f 26/94/4 7/93/4 58/115/4 59/113/4
f 28/21/5 6/22/5 61/159/5 60/160/5
f 43/33/3 5/114/3 63/161/3 62/162/3
f 33/28/3 32/27/3 74/163/3 73/153/3
f 42/50/2 35/46/2 78/150/2 57/157/2
f 32/27/3 43/33/3 62/162/3 74/163/3
f 5/19/4 25/18/4 75/16/4 63/15/4
f 15/164/6 16/165/6 86/166/6 85/167/6
f 16/165/6 13/168/6 87/169/6 86/166/6
f 13/168/6 12/170/6 88/171/6 87/169/6
f 12/170/6 15/164/6 85/167/6 88/171/6
f 16/165/6 17/172/6 90/173/6 89/174/6
f 17/172/6 14/175/6 91/176/6 90/173/6
f 14/175/6 13/168/6 92/177/6 91/176/6
f 13/168/6 16/165/6 89/174/6 92/177/6
f 47/178/6 15/164/6 94/179/6 93/180/6
f 15/164/6 12/170/6 95/181/6 94/179/6
f 12/170/6 48/182/6 96/183/6 95/181/6
f 48/182/6 47/178/6 93/180/6 96/183/6
f 17/172/6 53/95/6 98/184/6 97/185/6
f 53/95/6 54/98/6 99/186/6 98/184/6
f 54/98/6 14/175/6 100/187/6 99/186/6
f 14/175/6 17/172/6 97/185/6 100/187/6
f 102/188/6 101/189/6 104/190/6 103/191/6
f 106/192/6 105/193/6 108/194/6 107/195/6
f 110/196/6 109/197/6 112/159/6 111/198/6
f 114/199/6 113/192/6 116/200/6 115/201/6
f 92/202/5 89/203/5 106/204/5 107/198/5
f 97/205/3 98/206/3 113/207/3 114/208/3
f 86/209/4 87/210/4 104/211/4 101/212/4
f 96/213/5 93/214/5 110/212/5 111/211/5
f 90/215/4 91/216/4 108/217/4 105/218/4
f 100/219/5 97/220/5 114/70/5 115/69/5
f 87/221/2 88/222/2 103/123/2 104/122/2
f 94/203/4 95/202/4 112/223/4 109/224/4
f 91/225/2 92/226/2 107/227/2 108/228/2
f 98/229/4 99/111/4 116/230/4 113/231/4
f 95/232/2 96/233/2 111/222/2 112/221/2
f 99/234/2 100/235/2 115/226/2 116/236/2
