# Blender 5.0.0
# www.blender.org
mtllib bed.mtl
o mattress_1
v -0.646117 0.320000 1.225000
v -0.648750 0.340000 1.245000
v -0.647433 0.322680 1.235000
v -0.648397 0.330000 1.242321
v -0.728750 0.320000 1.142367
v -0.748750 0.340000 1.145000
v -0.738750 0.322680 1.143683
v -0.746071 0.330000 1.144647
v -0.688397 0.320000 1.213671
v -0.698750 0.340000 1.231602
v -0.693574 0.322680 1.222637
v -0.697363 0.330000 1.229200
v -0.717421 0.320000 1.184647
v -0.735353 0.340000 1.195000
v -0.726387 0.322680 1.189824
v -0.732950 0.330000 1.193613
v -0.728750 0.440000 1.142367
v -0.748750 0.420000 1.145000
v -0.738750 0.437321 1.143683
v -0.746071 0.430000 1.144647
v -0.646117 0.440000 1.225000
v -0.648750 0.420000 1.245000
v -0.647433 0.437321 1.235000
v -0.648397 0.430000 1.242321
v -0.717421 0.440000 1.184647
v -0.735353 0.420000 1.195000
v -0.726387 0.437321 1.189824
v -0.732950 0.430000 1.193613
v -0.688397 0.440000 1.213671
v -0.698750 0.420000 1.231602
v -0.693574 0.437321 1.222637
v -0.697363 0.430000 1.229200
v -0.728750 0.320000 -1.142367
v -0.748750 0.340000 -1.145000
v -0.738750 0.322680 -1.143683
v -0.746071 0.330000 -1.144647
v -0.646117 0.320000 -1.225000
v -0.648750 0.340000 -1.245000
v -0.647433 0.322680 -1.235000
v -0.648397 0.330000 -1.242321
v -0.717421 0.320000 -1.184647
v -0.735353 0.340000 -1.195000
v -0.726387 0.322680 -1.189824
v -0.732950 0.330000 -1.193613
v -0.688397 0.320000 -1.213671
v -0.698750 0.340000 -1.231602
v -0.693574 0.322680 -1.222637
v -0.697363 0.330000 -1.229200
v -0.646117 0.440000 -1.225000
v -0.648750 0.420000 -1.245000
v -0.647433 0.437321 -1.235000
v -0.648397 0.430000 -1.242321
v -0.728750 0.440000 -1.142367
v -0.748750 0.420000 -1.145000
v -0.738750 0.437321 -1.143683
v -0.746071 0.430000 -1.144647
v -0.688397 0.440000 -1.213671
v -0.698750 0.420000 -1.231602
v -0.693574 0.437321 -1.222637
v -0.697363 0.430000 -1.229200
v -0.717421 0.440000 -1.184647
v -0.735353 0.420000 -1.195000
v -0.726387 0.437321 -1.189824
v -0.732950 0.430000 -1.193613
v 0.728750 0.320000 1.142367
v 0.748750 0.340000 1.145000
v 0.738750 0.322680 1.143683
v 0.746071 0.330000 1.144647
v 0.646117 0.320000 1.225000
v 0.648750 0.340000 1.245000
v 0.647433 0.322680 1.235000
v 0.648397 0.330000 1.242321
v 0.717421 0.320000 1.184647
v 0.735353 0.340000 1.195000
v 0.726387 0.322680 1.189824
v 0.732950 0.330000 1.193613
v 0.688397 0.320000 1.213671
v 0.698750 0.340000 1.231602
v 0.693574 0.322680 1.222637
v 0.697363 0.330000 1.229200
v 0.646117 0.440000 1.225000
v 0.648750 0.420000 1.245000
v 0.647433 0.437321 1.235000
v 0.648397 0.430000 1.242321
v 0.728750 0.440000 1.142367
v 0.748750 0.420000 1.145000
v 0.738750 0.437321 1.143683
v 0.746071 0.430000 1.144647
v 0.688397 0.440000 1.213671
v 0.698750 0.420000 1.231602
v 0.693574 0.437321 1.222637
v 0.697363 0.430000 1.229200
v 0.717421 0.440000 1.184647
v 0.735353 0.420000 1.195000
v 0.726387 0.437321 1.189824
v 0.732950 0.430000 1.193613
v 0.646117 0.320000 -1.225000
v 0.648750 0.340000 -1.245000
v 0.647433 0.322680 -1.235000
v 0.648397 0.330000 -1.242321
v 0.728750 0.320000 -1.142367
v 0.748750 0.340000 -1.145000
v 0.738750 0.322680 -1.143683
v 0.746071 0.330000 -1.144647
v 0.688397 0.320000 -1.213671
v 0.698750 0.340000 -1.231602
v 0.693574 0.322680 -1.222637
v 0.697363 0.330000 -1.229200
v 0.717421 0.320000 -1.184647
v 0.735353 0.340000 -1.195000
v 0.726387 0.322680 -1.189824
v 0.732950 0.330000 -1.193613
v 0.728750 0.440000 -1.142367
v 0.748750 0.420000 -1.145000
v 0.738750 0.437321 -1.143683
v 0.746071 0.430000 -1.144647
v 0.646117 0.440000 -1.225000
v 0.648750 0.420000 -1.245000
v 0.647433 0.437321 -1.235000
v 0.648397 0.430000 -1.242321
v 0.717421 0.440000 -1.184647
v 0.735353 0.420000 -1.195000
v 0.726387 0.437321 -1.189824
v 0.732950 0.430000 -1.193613
v 0.688397 0.440000 -1.213671
v 0.698750 0.420000 -1.231602
v 0.693574 0.437321 -1.222637
v 0.697363 0.430000 -1.229200
vn -0.0183 -0.9901 0.1388
vn -0.1294 -0.1302 0.9830
vn -0.0670 -0.8584 0.5086
vn -0.1135 -0.4936 0.8622
vn -0.1388 -0.9901 0.0183
vn -0.9830 -0.1302 0.1294
vn -0.5086 -0.8584 0.0670
vn -0.8622 -0.4936 0.1135
vn -0.0734 -0.9892 0.1272
vn -0.4956 -0.1320 0.8584
vn -0.2598 -0.8544 0.4500
vn -0.4350 -0.4931 0.7534
vn -0.1272 -0.9892 0.0734
vn -0.8584 -0.1320 0.4956
vn -0.4500 -0.8544 0.2598
vn -0.7534 -0.4931 0.4350
vn -0.1388 0.9901 0.0183
vn -0.9830 0.1302 0.1294
vn -0.5086 0.8584 0.0670
vn -0.8622 0.4936 0.1135
vn -0.0183 0.9901 0.1388
vn -0.1294 0.1302 0.9830
vn -0.0670 0.8584 0.5086
vn -0.1135 0.4936 0.8622
vn -0.1272 0.9892 0.0734
vn -0.8584 0.1320 0.4956
vn -0.4500 0.8544 0.2598
vn -0.7534 0.4931 0.4350
vn -0.0734 0.9892 0.1272
vn -0.4956 0.1320 0.8584
vn -0.2598 0.8544 0.4500
vn -0.4350 0.4931 0.7534
vn -0.1388 -0.9901 -0.0183
vn -0.9830 -0.1302 -0.1294
vn -0.5086 -0.8584 -0.0670
vn -0.8622 -0.4936 -0.1135
vn -0.0183 -0.9901 -0.1388
vn -0.1294 -0.1302 -0.9830
vn -0.0670 -0.8584 -0.5086
vn -0.1135 -0.4936 -0.8622
vn -0.1272 -0.9892 -0.0734
vn -0.8584 -0.1320 -0.4956
vn -0.4500 -0.8544 -0.2598
vn -0.7534 -0.4931 -0.4350
vn -0.0734 -0.9892 -0.1272
vn -0.4956 -0.1320 -0.8584
vn -0.2598 -0.8544 -0.4500
vn -0.4350 -0.4931 -0.7534
vn -0.0183 0.9901 -0.1388
vn -0.1294 0.1302 -0.9830
vn -0.0670 0.8584 -0.5086
vn -0.1135 0.4936 -0.8622
vn -0.1388 0.9901 -0.0183
vn -0.9830 0.1302 -0.1294
vn -0.5086 0.8584 -0.0670
vn -0.8622 0.4936 -0.1135
vn -0.0734 0.9892 -0.1272
vn -0.4956 0.1320 -0.8584
vn -0.2598 0.8544 -0.4500
vn -0.4350 0.4931 -0.7534
vn -0.1272 0.9892 -0.0734
vn -0.8584 0.1320 -0.4956
vn -0.4500 0.8544 -0.2598
vn -0.7534 0.4931 -0.4350
vn 0.1388 -0.9901 0.0183
vn 0.9830 -0.1302 0.1294
vn 0.5086 -0.8584 0.0670
vn 0.8622 -0.4936 0.1135
vn 0.0183 -0.9901 0.1388
vn 0.1294 -0.1302 0.9830
vn 0.0670 -0.8584 0.5086
vn 0.1135 -0.4936 0.8622
vn 0.1272 -0.9892 0.0734
vn 0.8584 -0.1320 0.4956
vn 0.4500 -0.8544 0.2598
vn 0.7534 -0.4931 0.4350
vn 0.0734 -0.9892 0.1272
vn 0.4956 -0.1320 0.8584
vn 0.2598 -0.8544 0.4500
vn 0.4350 -0.4931 0.7534
vn 0.0183 0.9901 0.1388
vn 0.1294 0.1302 0.9830
vn 0.0670 0.8584 0.5086
vn 0.1135 0.4936 0.8622
vn 0.1388 0.9901 0.0183
vn 0.9830 0.1302 0.1294
vn 0.5086 0.8584 0.0670
vn 0.8622 0.4936 0.1135
vn 0.0734 0.9892 0.1272
vn 0.4956 0.1320 0.8584
vn 0.2598 0.8544 0.4500
vn 0.4350 0.4931 0.7534
vn 0.1272 0.9892 0.0734
vn 0.8584 0.1320 0.4956
vn 0.4500 0.8544 0.2598
vn 0.7534 0.4931 0.4350
vn 0.0183 -0.9901 -0.1388
vn 0.1294 -0.1302 -0.9830
vn 0.0670 -0.8584 -0.5086
vn 0.1135 -0.4936 -0.8622
vn 0.1388 -0.9901 -0.0183
vn 0.9830 -0.1302 -0.1294
vn 0.5086 -0.8584 -0.0670
vn 0.8622 -0.4936 -0.1135
vn 0.0734 -0.9892 -0.1272
vn 0.4956 -0.1320 -0.8584
vn 0.2598 -0.8544 -0.4500
vn 0.4350 -0.4931 -0.7534
vn 0.1272 -0.9892 -0.0734
vn 0.8584 -0.1320 -0.4956
vn 0.4500 -0.8544 -0.2598
vn 0.7534 -0.4931 -0.4350
vn 0.1388 0.9901 -0.0183
vn 0.9830 0.1302 -0.1294
vn 0.5086 0.8584 -0.0670
vn 0.8622 0.4936 -0.1135
vn 0.0183 0.9901 -0.1388
vn 0.1294 0.1302 -0.9830
vn 0.0670 0.8584 -0.5086
vn 0.1135 0.4936 -0.8622
vn 0.1272 0.9892 -0.0734
vn 0.8584 0.1320 -0.4956
vn 0.4500 0.8544 -0.2598
vn 0.7534 0.4931 -0.4350
vn 0.0734 0.9892 -0.1272
vn 0.4956 0.1320 -0.8584
vn 0.2598 0.8544 -0.4500
vn 0.4350 0.4931 -0.7534
vt 0.456756 0.618356
vt 0.450264 0.616616
vt 0.450466 0.615080
vt 0.457551 0.616979
vt 0.450614 0.613956
vt 0.458132 0.615971
vt 0.499673 0.991406
vt 0.499673 0.983662
vt 0.501209 0.983649
vt 0.501209 0.991557
vt 0.020114 0.617870
vt 0.013622 0.619610
vt 0.012827 0.618233
vt 0.019912 0.616335
vt 0.012245 0.617225
vt 0.019764 0.615211
vt 0.515028 0.983662
vt 0.515028 0.991406
vt 0.513492 0.991557
vt 0.513492 0.983649
vt 0.461212 0.622812
vt 0.462589 0.622017
vt 0.463597 0.621435
vt 0.499673 0.997675
vt 0.501209 0.998005
vt 0.009166 0.624066
vt 0.007789 0.623271
vt 0.006781 0.622689
vt 0.515028 0.997675
vt 0.513492 0.998005
vt 0.462952 0.629304
vt 0.464487 0.629102
vt 0.465611 0.628954
vt 0.467558 0.638843
vt 0.467558 0.631324
vt 0.469094 0.631111
vt 0.469094 0.638788
vt 0.007426 0.630558
vt 0.005891 0.630356
vt 0.004767 0.630208
vt 0.482913 0.631324
vt 0.482913 0.638843
vt 0.481377 0.638788
vt 0.481377 0.631111
vt 0.013622 0.992317
vt 0.020114 0.994057
vt 0.019912 0.995592
vt 0.012827 0.993694
vt 0.019764 0.996716
vt 0.012245 0.994702
vt 0.530382 0.778018
vt 0.530382 0.785536
vt 0.528847 0.785482
vt 0.528847 0.777805
vt 0.450264 0.992803
vt 0.456756 0.991063
vt 0.457551 0.992440
vt 0.450466 0.994338
vt 0.458132 0.993447
vt 0.450614 0.995462
vt 0.515028 0.785536
vt 0.515028 0.778018
vt 0.516563 0.777805
vt 0.516563 0.785482
vt 0.009166 0.987861
vt 0.007789 0.988656
vt 0.006781 0.989237
vt 0.530382 0.772554
vt 0.528847 0.772185
vt 0.461212 0.986606
vt 0.462589 0.987401
vt 0.463597 0.987983
vt 0.515028 0.772554
vt 0.516563 0.772185
vt 0.007426 0.981369
vt 0.005891 0.981571
vt 0.004767 0.981719
vt 0.482913 0.990354
vt 0.482913 0.997872
vt 0.481377 0.998085
vt 0.481377 0.990408
vt 0.462952 0.980115
vt 0.464487 0.980317
vt 0.465611 0.980465
vt 0.467558 0.997872
vt 0.467558 0.990354
vt 0.469094 0.990408
vt 0.469094 0.998085
vt 0.229479 0.987861
vt 0.231219 0.981369
vt 0.232754 0.981571
vt 0.230856 0.988656
vt 0.233878 0.981719
vt 0.231864 0.989237
vt 0.482913 0.997816
vt 0.482913 0.990717
vt 0.484448 0.990837
vt 0.484448 0.998085
vt 0.239159 0.980115
vt 0.240899 0.986606
vt 0.239522 0.987401
vt 0.237624 0.980317
vt 0.238514 0.987983
vt 0.236500 0.980465
vt 0.498267 0.990717
vt 0.498267 0.997816
vt 0.496732 0.998085
vt 0.496732 0.990837
vt 0.225023 0.992317
vt 0.225817 0.993694
vt 0.226399 0.994702
vt 0.530382 0.992172
vt 0.530382 0.997636
vt 0.528847 0.998005
vt 0.528847 0.992385
vt 0.245355 0.991063
vt 0.244560 0.992440
vt 0.243979 0.993447
vt 0.515028 0.997636
vt 0.515028 0.992172
vt 0.516563 0.992385
vt 0.516563 0.998005
vt 0.218531 0.994057
vt 0.218733 0.995592
vt 0.218881 0.996716
vt 0.530382 0.984654
vt 0.528847 0.984708
vt 0.251847 0.992803
vt 0.251645 0.994338
vt 0.251497 0.995462
vt 0.515028 0.984654
vt 0.516563 0.984708
vt 0.225023 0.619610
vt 0.218531 0.617870
vt 0.218733 0.616335
vt 0.225817 0.618233
vt 0.218881 0.615211
vt 0.226399 0.617225
vt 0.515028 0.780019
vt 0.515028 0.787117
vt 0.513492 0.786998
vt 0.513492 0.779749
vt 0.251847 0.616616
vt 0.245355 0.618356
vt 0.244560 0.616979
vt 0.251645 0.615080
vt 0.243979 0.615971
vt 0.251497 0.613956
vt 0.499673 0.787117
vt 0.499673 0.780019
vt 0.501209 0.779749
vt 0.501209 0.786998
vt 0.229479 0.624066
vt 0.230856 0.623271
vt 0.231864 0.622689
vt 0.482913 0.636003
vt 0.482913 0.629734
vt 0.484448 0.629404
vt 0.484448 0.635852
vt 0.240899 0.622812
vt 0.239522 0.622017
vt 0.238514 0.621435
vt 0.498267 0.629734
vt 0.498267 0.636003
vt 0.496732 0.635852
vt 0.496732 0.629404
vt 0.231219 0.630558
vt 0.232754 0.630356
vt 0.233878 0.630208
vt 0.482913 0.643747
vt 0.484448 0.643759
vt 0.239159 0.629304
vt 0.237624 0.629102
vt 0.236500 0.628954
vt 0.498267 0.643747
vt 0.496732 0.643759
s 1
usemtl bed
f 9/1/9 1/2/1 3/3/3 11/4/11
f 11/4/11 3/3/3 4/5/4 12/6/12
f 12/7/12 4/8/4 2/9/2 10/10/10
f 21/11/21 29/12/29 31/13/31 23/14/23
f 23/14/23 31/13/31 32/15/32 24/16/24
f 24/17/24 32/18/32 30/19/30 22/20/22
f 13/21/13 9/1/9 11/4/11 15/22/15
f 15/22/15 11/4/11 12/6/12 16/23/16
f 16/24/16 12/7/12 10/10/10 14/25/14
f 29/12/29 25/26/25 27/27/27 31/13/31
f 31/13/31 27/27/27 28/28/28 32/15/32
f 32/18/32 28/29/28 26/30/26 30/19/30
f 5/31/5 13/21/13 15/22/15 7/32/7
f 7/32/7 15/22/15 16/23/16 8/33/8
f 8/34/8 16/35/16 14/36/14 6/37/6
f 25/26/25 17/38/17 19/39/19 27/27/27
f 27/27/27 19/39/19 20/40/20 28/28/28
f 28/41/28 20/42/20 18/43/18 26/44/26
f 57/45/57 49/46/49 51/47/51 59/48/59
f 59/48/59 51/47/51 52/49/52 60/50/60
f 60/51/60 52/52/52 50/53/50 58/54/58
f 37/55/37 45/56/45 47/57/47 39/58/39
f 39/58/39 47/57/47 48/59/48 40/60/40
f 40/61/40 48/62/48 46/63/46 38/64/38
f 61/65/61 57/45/57 59/48/59 63/66/63
f 63/66/63 59/48/59 60/50/60 64/67/64
f 64/68/64 60/51/60 58/54/58 62/69/62
f 45/56/45 41/70/41 43/71/43 47/57/47
f 47/57/47 43/71/43 44/72/44 48/59/48
f 48/62/48 44/73/44 42/74/42 46/63/46
f 53/75/53 61/65/61 63/66/63 55/76/55
f 55/76/55 63/66/63 64/67/64 56/77/56
f 56/78/56 64/79/64 62/80/62 54/81/54
f 41/70/41 33/82/33 35/83/35 43/71/43
f 43/71/43 35/83/35 36/84/36 44/72/44
f 44/85/44 36/86/36 34/87/34 42/88/42
f 121/89/121 113/90/113 115/91/115 123/92/123
f 123/92/123 115/91/115 116/93/116 124/94/124
f 124/95/124 116/96/116 114/97/114 122/98/122
f 101/99/101 109/100/109 111/101/111 103/102/103
f 103/102/103 111/101/111 112/103/112 104/104/104
f 104/105/104 112/106/112 110/107/110 102/108/102
f 125/109/125 121/89/121 123/92/123 127/110/127
f 127/110/127 123/92/123 124/94/124 128/111/128
f 128/112/128 124/113/124 122/114/122 126/115/126
f 109/100/109 105/116/105 107/117/107 111/101/111
f 111/101/111 107/117/107 108/118/108 112/103/112
f 112/119/112 108/120/108 106/121/106 110/122/110
f 117/123/117 125/109/125 127/110/127 119/124/119
f 119/124/119 127/110/127 128/111/128 120/125/120
f 120/126/120 128/112/128 126/115/126 118/127/118
f 105/116/105 97/128/97 99/129/99 107/117/107
f 107/117/107 99/129/99 100/130/100 108/118/108
f 108/120/108 100/131/100 98/132/98 106/121/106
f 89/133/89 81/134/81 83/135/83 91/136/91
f 91/136/91 83/135/83 84/137/84 92/138/92
f 92/139/92 84/140/84 82/141/82 90/142/90
f 69/143/69 77/144/77 79/145/79 71/146/71
f 71/146/71 79/145/79 80/147/80 72/148/72
f 72/149/72 80/150/80 78/151/78 70/152/70
f 93/153/93 89/133/89 91/136/91 95/154/95
f 95/154/95 91/136/91 92/138/92 96/155/96
f 96/156/96 92/157/92 90/158/90 94/159/94
f 77/144/77 73/160/73 75/161/75 79/145/79
f 79/145/79 75/161/75 76/162/76 80/147/80
f 80/163/80 76/164/76 74/165/74 78/166/78
f 85/167/85 93/153/93 95/154/95 87/168/87
f 87/168/87 95/154/95 96/155/96 88/169/88
f 88/170/88 96/156/96 94/159/94 86/171/86
f 73/160/73 65/172/65 67/173/67 75/161/75
f 75/161/75 67/173/67 68/174/68 76/162/76
f 76/164/76 68/175/68 66/176/66 74/165/74
f 6/37/6 34/87/34 36/86/36 8/34/8
f 8/33/8 36/84/36 35/83/35 7/32/7
f 7/32/7 35/83/35 33/82/33 5/31/5
f 38/64/38 98/132/98 100/131/100 40/61/40
f 40/60/40 100/130/100 99/129/99 39/58/39
f 39/58/39 99/129/99 97/128/97 37/55/37
f 102/108/102 66/176/66 68/175/68 104/105/104
f 104/104/104 68/174/68 67/173/67 103/102/103
f 103/102/103 67/173/67 65/172/65 101/99/101
f 70/152/70 2/9/2 4/8/4 72/149/72
f 72/148/72 4/5/4 3/3/3 71/146/71
f 71/146/71 3/3/3 1/2/1 69/143/69
f 17/38/17 53/75/53 55/76/55 19/39/19
f 19/39/19 55/76/55 56/77/56 20/40/20
f 20/42/20 56/78/56 54/81/54 18/43/18
f 81/134/81 21/11/21 23/14/23 83/135/83
f 83/135/83 23/14/23 24/16/24 84/137/84
f 84/140/84 24/17/24 22/20/22 82/141/82
f 86/171/86 114/97/114 116/96/116 88/170/88
f 88/169/88 116/93/116 115/91/115 87/168/87
f 87/168/87 115/91/115 113/90/113 85/167/85
f 118/127/118 50/53/50 52/52/52 120/126/120
f 120/125/120 52/49/52 51/47/51 119/124/119
f 119/124/119 51/47/51 49/46/49 117/123/117
f 33/82/33 41/70/41 45/56/45 37/55/37 97/128/97 105/116/105 109/100/109 101/99/101 65/172/65 73/160/73 77/144/77 69/143/69 1/2/1 9/1/9 13/21/13 5/31/5
f 2/9/2 22/20/22 30/19/30 10/10/10
f 70/152/70 82/141/82 22/20/22 2/9/2
f 14/36/14 26/44/26 18/43/18 6/37/6
f 6/37/6 18/43/18 54/81/54 34/87/34
f 10/10/10 30/19/30 26/30/26 14/25/14
f 113/90/113 121/89/121 125/109/125 117/123/117 49/46/49 57/45/57 61/65/61 53/75/53 17/38/17 25/26/25 29/12/29 21/11/21 81/134/81 89/133/89 93/153/93 85/167/85
f 62/80/62 42/88/42 34/87/34 54/81/54
f 38/64/38 50/53/50 118/127/118 98/132/98
f 50/53/50 38/64/38 46/63/46 58/54/58
f 58/54/58 46/63/46 42/74/42 62/69/62
f 94/159/94 74/165/74 66/176/66 86/171/86
f 102/108/102 114/97/114 86/171/86 66/176/66
f 82/141/82 70/152/70 78/151/78 90/142/90
f 90/158/90 78/166/78 74/165/74 94/159/94
f 126/115/126 106/121/106 98/132/98 118/127/118
f 114/97/114 102/108/102 110/107/110 122/98/122
f 122/114/122 110/122/110 106/121/106 126/115/126
o bed
v -0.800000 1.300000 1.300000
v -0.750000 1.400000 1.245833
v -0.800000 1.300000 -1.300000
v -0.750000 1.400000 -1.245833
v 0.800000 1.300000 1.300000
v 0.750000 1.400000 1.245833
v 0.800000 1.300000 -1.300000
v 0.750000 1.400000 -1.245833
v -0.800000 1.400000 1.300000
v -0.800000 1.400000 -1.300000
v 0.800000 1.400000 -1.300000
v 0.800000 1.400000 1.300000
v -0.700000 1.320000 1.191666
v -0.700000 1.320000 -1.191666
v 0.700000 1.320000 -1.191666
v 0.700000 1.320000 1.191666
v -0.750000 1.320000 1.245833
v -0.750000 1.320000 -1.245833
v 0.750000 1.320000 -1.245833
v 0.750000 1.320000 1.245833
v -0.750000 1.300000 1.245833
v -0.750000 1.300000 -1.245833
v 0.750000 1.300000 -1.245833
v 0.750000 1.300000 1.245833
v -0.700000 1.300000 1.191666
v -0.700000 1.300000 -1.191666
v 0.700000 1.300000 -1.191666
v 0.700000 1.300000 1.191666
v -0.750000 1.320000 1.191666
v -0.750000 1.320000 -1.191666
v 0.750000 1.320000 -1.191666
v 0.750000 1.320000 1.191666
v -0.700000 1.320000 0.998423
v -0.700000 1.320000 0.934009
v -0.700000 1.320000 0.676351
v -0.700000 1.320000 0.611937
v -0.700000 1.320000 0.354279
v -0.700000 1.320000 0.289865
v -0.700000 1.320000 0.032207
v -0.700000 1.320000 -0.032207
v -0.700000 1.320000 -0.289865
v -0.700000 1.320000 -0.354279
v -0.700000 1.320000 -0.611937
v -0.700000 1.320000 -0.676351
v -0.700000 1.320000 -0.934009
v -0.700000 1.320000 -0.998423
v -0.700000 1.300000 0.998423
v -0.700000 1.300000 0.934009
v -0.700000 1.300000 0.676351
v -0.700000 1.300000 0.611937
v -0.700000 1.300000 0.354279
v -0.700000 1.300000 0.289865
v -0.700000 1.300000 0.032207
v -0.700000 1.300000 -0.032207
v -0.700000 1.300000 -0.289865
v -0.700000 1.300000 -0.354279
v -0.700000 1.300000 -0.611937
v -0.700000 1.300000 -0.676351
v -0.700000 1.300000 -0.934009
v -0.700000 1.300000 -0.998423
v 0.700000 1.320000 -0.998423
v 0.700000 1.320000 -0.934009
v 0.700000 1.320000 -0.676351
v 0.700000 1.320000 -0.611937
v 0.700000 1.320000 -0.354279
v 0.700000 1.320000 -0.289865
v 0.700000 1.320000 -0.032207
v 0.700000 1.320000 0.032207
v 0.700000 1.320000 0.289865
v 0.700000 1.320000 0.354279
v 0.700000 1.320000 0.611937
v 0.700000 1.320000 0.676351
v 0.700000 1.320000 0.934009
v 0.700000 1.320000 0.998423
v 0.700000 1.300000 -0.998423
v 0.700000 1.300000 -0.934009
v 0.700000 1.300000 -0.676351
v 0.700000 1.300000 -0.611937
v 0.700000 1.300000 -0.354279
v 0.700000 1.300000 -0.289865
v 0.700000 1.300000 -0.032207
v 0.700000 1.300000 0.032207
v 0.700000 1.300000 0.289865
v 0.700000 1.300000 0.354279
v 0.700000 1.300000 0.611937
v 0.700000 1.300000 0.676351
v 0.700000 1.300000 0.934009
v 0.700000 1.300000 0.998423
v -0.800000 0.300000 1.300000
v -0.750000 0.400000 1.245833
v -0.800000 0.300000 -1.300000
v -0.750000 0.400000 -1.245833
v 0.800000 0.300000 1.300000
v 0.750000 0.400000 1.245833
v 0.800000 0.300000 -1.300000
v 0.750000 0.400000 -1.245833
v -0.800000 0.400000 1.300000
v -0.800000 0.400000 -1.300000
v 0.800000 0.400000 -1.300000
v 0.800000 0.400000 1.300000
v -0.700000 0.320000 1.191666
v -0.700000 0.320000 -1.191666
v 0.700000 0.320000 -1.191666
v 0.700000 0.320000 1.191666
v -0.750000 0.320000 1.245833
v -0.750000 0.320000 -1.245833
v 0.750000 0.320000 -1.245833
v 0.750000 0.320000 1.245833
v -0.750000 0.300000 1.245833
v -0.750000 0.300000 -1.245833
v 0.750000 0.300000 -1.245833
v 0.750000 0.300000 1.245833
v -0.700000 0.300000 1.191666
v -0.700000 0.300000 -1.191666
v 0.700000 0.300000 -1.191666
v 0.700000 0.300000 1.191666
v -0.750000 0.320000 1.191666
v -0.750000 0.320000 -1.191666
v 0.750000 0.320000 -1.191666
v 0.750000 0.320000 1.191666
v -0.700000 0.320000 0.998423
v -0.700000 0.320000 0.934009
v -0.700000 0.320000 0.676351
v -0.700000 0.320000 0.611937
v -0.700000 0.320000 0.354279
v -0.700000 0.320000 0.289865
v -0.700000 0.320000 0.032207
v -0.700000 0.320000 -0.032207
v -0.700000 0.320000 -0.289865
v -0.700000 0.320000 -0.354279
v -0.700000 0.320000 -0.611937
v -0.700000 0.320000 -0.676351
v -0.700000 0.320000 -0.934009
v -0.700000 0.320000 -0.998423
v -0.700000 0.300000 0.998423
v -0.700000 0.300000 0.934009
v -0.700000 0.300000 0.676351
v -0.700000 0.300000 0.611937
v -0.700000 0.300000 0.354279
v -0.700000 0.300000 0.289865
v -0.700000 0.300000 0.032207
v -0.700000 0.300000 -0.032207
v -0.700000 0.300000 -0.289865
v -0.700000 0.300000 -0.354279
v -0.700000 0.300000 -0.611937
v -0.700000 0.300000 -0.676351
v -0.700000 0.300000 -0.934009
v -0.700000 0.300000 -0.998423
v 0.700000 0.320000 -0.998423
v 0.700000 0.320000 -0.934009
v 0.700000 0.320000 -0.676351
v 0.700000 0.320000 -0.611937
v 0.700000 0.320000 -0.354279
v 0.700000 0.320000 -0.289865
v 0.700000 0.320000 -0.032207
v 0.700000 0.320000 0.032207
v 0.700000 0.320000 0.289865
v 0.700000 0.320000 0.354279
v 0.700000 0.320000 0.611937
v 0.700000 0.320000 0.676351
v 0.700000 0.320000 0.934009
v 0.700000 0.320000 0.998423
v 0.700000 0.300000 -0.998423
v 0.700000 0.300000 -0.934009
v 0.700000 0.300000 -0.676351
v 0.700000 0.300000 -0.611937
v 0.700000 0.300000 -0.354279
v 0.700000 0.300000 -0.289865
v 0.700000 0.300000 -0.032207
v 0.700000 0.300000 0.032207
v 0.700000 0.300000 0.289865
v 0.700000 0.300000 0.354279
v 0.700000 0.300000 0.611937
v 0.700000 0.300000 0.676351
v 0.700000 0.300000 0.934009
v 0.700000 0.300000 0.998423
v 0.800000 0.300000 -0.550000
v 0.800000 1.400000 -0.550000
v 0.800000 0.300000 -1.050000
v 0.800000 1.400000 -1.050000
v 0.825000 0.300000 -0.550000
v 0.825000 1.400000 -0.550000
v 0.825000 0.300000 -1.050000
v 0.825000 1.400000 -1.050000
v 0.800000 0.300000 -1.004545
v 0.800000 0.300000 -0.595455
v 0.800000 1.400000 -0.595455
v 0.800000 1.400000 -1.004545
v 0.825000 0.300000 -0.595455
v 0.825000 0.300000 -1.004545
v 0.825000 1.400000 -1.004545
v 0.825000 1.400000 -0.595455
v 0.825000 1.295238 -1.004545
v 0.825000 1.242857 -1.004545
v 0.825000 1.085714 -1.004545
v 0.825000 1.033333 -1.004545
v 0.825000 0.876190 -1.004545
v 0.825000 0.823810 -1.004545
v 0.825000 0.666667 -1.004545
v 0.825000 0.614286 -1.004545
v 0.825000 0.457143 -1.004545
v 0.825000 0.404762 -1.004545
v 0.800000 1.295238 -1.004545
v 0.800000 1.242857 -1.004545
v 0.800000 1.085714 -1.004545
v 0.800000 1.033333 -1.004545
v 0.800000 0.876190 -1.004545
v 0.800000 0.823810 -1.004545
v 0.800000 0.666667 -1.004545
v 0.800000 0.614286 -1.004545
v 0.800000 0.457143 -1.004545
v 0.800000 0.404762 -1.004545
v 0.825000 1.295238 -0.595455
v 0.825000 1.242857 -0.595455
v 0.825000 1.085714 -0.595455
v 0.825000 1.033333 -0.595455
v 0.825000 0.876190 -0.595455
v 0.825000 0.823810 -0.595455
v 0.825000 0.666667 -0.595455
v 0.825000 0.614286 -0.595455
v 0.825000 0.457143 -0.595455
v 0.825000 0.404762 -0.595455
v 0.800000 1.295238 -0.595455
v 0.800000 1.242857 -0.595455
v 0.800000 1.085714 -0.595455
v 0.800000 1.033333 -0.595455
v 0.800000 0.876190 -0.595455
v 0.800000 0.823810 -0.595455
v 0.800000 0.666667 -0.595455
v 0.800000 0.614286 -0.595455
v 0.800000 0.457143 -0.595455
v 0.800000 0.404762 -0.595455
v 0.805000 1.290238 -1.004545
v 0.805000 1.247857 -1.004545
v 0.820000 1.247857 -1.004545
v 0.820000 1.290238 -1.004545
v 0.805000 1.080714 -1.004545
v 0.805000 1.038333 -1.004545
v 0.820000 1.038333 -1.004545
v 0.820000 1.080714 -1.004545
v 0.805000 0.871190 -1.004545
v 0.805000 0.828809 -1.004545
v 0.820000 0.828809 -1.004545
v 0.820000 0.871190 -1.004545
v 0.805000 0.661667 -1.004545
v 0.805000 0.619286 -1.004545
v 0.820000 0.619286 -1.004545
v 0.820000 0.661667 -1.004545
v 0.805000 0.452143 -1.004545
v 0.805000 0.409762 -1.004545
v 0.820000 0.409762 -1.004545
v 0.820000 0.452143 -1.004545
v 0.805000 1.290238 -0.595455
v 0.820000 1.290238 -0.595455
v 0.820000 1.247857 -0.595455
v 0.805000 1.247857 -0.595455
v 0.805000 1.080714 -0.595455
v 0.820000 1.080714 -0.595455
v 0.820000 1.038333 -0.595455
v 0.805000 1.038333 -0.595455
v 0.805000 0.871190 -0.595455
v 0.820000 0.871190 -0.595455
v 0.820000 0.828809 -0.595455
v 0.805000 0.828809 -0.595455
v 0.805000 0.661667 -0.595455
v 0.820000 0.661667 -0.595455
v 0.820000 0.619286 -0.595455
v 0.805000 0.619286 -0.595455
v 0.805000 0.452143 -0.595455
v 0.820000 0.452143 -0.595455
v 0.820000 0.409762 -0.595455
v 0.805000 0.409762 -0.595455
v -0.800000 0.000000 1.250000
v -0.800000 1.700000 1.250000
v -0.835355 0.000000 1.264645
v -0.835355 1.700000 1.264645
v -0.850000 0.000000 1.300000
v -0.850000 1.700000 1.300000
v -0.835355 0.000000 1.335355
v -0.835355 1.700000 1.335355
v -0.800000 0.000000 1.350000
v -0.800000 1.700000 1.350000
v -0.764645 0.000000 1.335355
v -0.764645 1.700000 1.335355
v -0.750000 0.000000 1.300000
v -0.750000 1.700000 1.300000
v -0.764645 0.000000 1.264645
v -0.764645 1.700000 1.264645
v -0.792530 1.747165 1.250000
v -0.826155 1.758090 1.264645
v -0.840083 1.762616 1.300000
v -0.826155 1.758090 1.335355
v -0.792530 1.747165 1.350000
v -0.758905 1.736240 1.335355
v -0.744977 1.731714 1.300000
v -0.758905 1.736240 1.264645
v -0.770850 1.789713 1.250000
v -0.799453 1.810495 1.264644
v -0.811301 1.819103 1.300000
v -0.799453 1.810495 1.335355
v -0.770850 1.789713 1.350000
v -0.742247 1.768932 1.335355
v -0.730399 1.760324 1.300000
v -0.742247 1.768932 1.264644
v -0.737084 1.823480 1.250000
v -0.757865 1.852083 1.264644
v -0.766473 1.863931 1.300000
v -0.757865 1.852083 1.335355
v -0.737084 1.823480 1.350000
v -0.716303 1.794877 1.335355
v -0.707695 1.783029 1.300000
v -0.716303 1.794877 1.264644
v -0.694536 1.845159 1.250000
v -0.705461 1.878784 1.264644
v -0.709987 1.892712 1.300000
v -0.705461 1.878784 1.335355
v -0.694536 1.845159 1.350000
v -0.683610 1.811534 1.335355
v -0.679085 1.797606 1.300000
v -0.683610 1.811534 1.264644
v -0.647371 1.852629 1.250000
v -0.647371 1.887985 1.264644
v -0.647371 1.902629 1.299999
v -0.647371 1.887985 1.335355
v -0.647371 1.852629 1.350000
v -0.647371 1.817274 1.335355
v -0.647371 1.802629 1.299999
v -0.647371 1.817274 1.264644
v 0.800000 0.000000 1.250000
v 0.800000 1.700000 1.250000
v 0.835356 0.000000 1.264645
v 0.835356 1.700000 1.264645
v 0.850000 0.000000 1.300000
v 0.850000 1.700000 1.300000
v 0.835356 0.000000 1.335355
v 0.835356 1.700000 1.335355
v 0.800000 0.000000 1.350000
v 0.800000 1.700000 1.350000
v 0.764645 0.000000 1.335355
v 0.764645 1.700000 1.335355
v 0.750000 0.000000 1.300000
v 0.750000 1.700000 1.300000
v 0.764645 0.000000 1.264645
v 0.764645 1.700000 1.264645
v 0.792530 1.747165 1.250000
v 0.826155 1.758090 1.264645
v 0.840083 1.762616 1.300000
v 0.826155 1.758090 1.335355
v 0.792530 1.747165 1.350000
v 0.758905 1.736240 1.335355
v 0.744977 1.731714 1.300000
v 0.758905 1.736240 1.264645
v 0.770851 1.789713 1.250000
v 0.799454 1.810495 1.264644
v 0.811301 1.819103 1.300000
v 0.799454 1.810495 1.335355
v 0.770851 1.789713 1.350000
v 0.742248 1.768932 1.335355
v 0.730400 1.760324 1.300000
v 0.742248 1.768932 1.264644
v 0.737084 1.823480 1.250000
v 0.757865 1.852083 1.264644
v 0.766473 1.863931 1.300000
v 0.757865 1.852083 1.335355
v 0.737084 1.823480 1.350000
v 0.716303 1.794877 1.335355
v 0.707695 1.783029 1.300000
v 0.716303 1.794877 1.264644
v 0.694536 1.845159 1.250000
v 0.705461 1.878784 1.264644
v 0.709987 1.892712 1.300000
v 0.705461 1.878784 1.335355
v 0.694536 1.845159 1.350000
v 0.683611 1.811534 1.335355
v 0.679085 1.797606 1.300000
v 0.683611 1.811534 1.264644
v 0.647371 1.852629 1.250000
v 0.647371 1.887985 1.264644
v 0.647371 1.902629 1.299999
v 0.647371 1.887985 1.335355
v 0.647371 1.852629 1.350000
v 0.647371 1.817274 1.335355
v 0.647371 1.802629 1.299999
v 0.647371 1.817274 1.264644
v -0.800000 0.000000 -1.350000
v -0.800000 1.620000 -1.350000
v -0.835355 0.000000 -1.335356
v -0.835355 1.620000 -1.335356
v -0.850000 0.000000 -1.300000
v -0.850000 1.620000 -1.300000
v -0.835355 0.000000 -1.264645
v -0.835355 1.620000 -1.264645
v -0.800000 0.000000 -1.250000
v -0.800000 1.620000 -1.250000
v -0.764645 0.000000 -1.264645
v -0.764645 1.620000 -1.264645
v -0.750000 0.000000 -1.300000
v -0.750000 1.620000 -1.300000
v -0.764645 0.000000 -1.335356
v -0.764645 1.620000 -1.335356
v -0.792530 1.667165 -1.350000
v -0.826155 1.678091 -1.335356
v -0.840083 1.682616 -1.300000
v -0.826155 1.678091 -1.264645
v -0.792530 1.667165 -1.250000
v -0.758905 1.656240 -1.264645
v -0.744977 1.651714 -1.300000
v -0.758905 1.656240 -1.335356
v -0.770850 1.709713 -1.350000
v -0.799453 1.730495 -1.335356
v -0.811301 1.739103 -1.300000
v -0.799453 1.730495 -1.264645
v -0.770850 1.709713 -1.250000
v -0.742247 1.688932 -1.264645
v -0.730399 1.680324 -1.300000
v -0.742247 1.688932 -1.335356
v -0.737084 1.743480 -1.350000
v -0.757865 1.772083 -1.335356
v -0.766473 1.783931 -1.300000
v -0.757865 1.772083 -1.264645
v -0.737084 1.743480 -1.250000
v -0.716303 1.714877 -1.264645
v -0.707695 1.703029 -1.300000
v -0.716303 1.714877 -1.335356
v -0.694536 1.765159 -1.350001
v -0.705461 1.798784 -1.335356
v -0.709987 1.812712 -1.300001
v -0.705461 1.798784 -1.264645
v -0.694536 1.765159 -1.250000
v -0.683610 1.731534 -1.264645
v -0.679085 1.717606 -1.300001
v -0.683610 1.731534 -1.335356
v -0.647371 1.772629 -1.350001
v -0.647371 1.807985 -1.335356
v -0.647371 1.822629 -1.300001
v -0.647371 1.807985 -1.264645
v -0.647371 1.772629 -1.250001
v -0.647371 1.737274 -1.264645
v -0.647371 1.722629 -1.300001
v -0.647371 1.737274 -1.335356
v 0.800000 0.000000 -1.350000
v 0.800000 1.620000 -1.350000
v 0.835356 0.000000 -1.335356
v 0.835356 1.620000 -1.335356
v 0.850000 0.000000 -1.300000
v 0.850000 1.620000 -1.300000
v 0.835356 0.000000 -1.264645
v 0.835356 1.620000 -1.264645
v 0.800000 0.000000 -1.250000
v 0.800000 1.620000 -1.250000
v 0.764645 0.000000 -1.264645
v 0.764645 1.620000 -1.264645
v 0.750000 0.000000 -1.300000
v 0.750000 1.620000 -1.300000
v 0.764645 0.000000 -1.335356
v 0.764645 1.620000 -1.335356
v 0.792530 1.667165 -1.350000
v 0.826155 1.678091 -1.335356
v 0.840083 1.682616 -1.300000
v 0.826155 1.678091 -1.264645
v 0.792530 1.667165 -1.250000
v 0.758905 1.656240 -1.264645
v 0.744977 1.651714 -1.300000
v 0.758905 1.656240 -1.335356
v 0.770851 1.709713 -1.350000
v 0.799454 1.730495 -1.335356
v 0.811301 1.739103 -1.300000
v 0.799454 1.730495 -1.264645
v 0.770851 1.709713 -1.250000
v 0.742248 1.688932 -1.264645
v 0.730400 1.680324 -1.300000
v 0.742248 1.688932 -1.335356
v 0.737084 1.743480 -1.350000
v 0.757865 1.772083 -1.335356
v 0.766473 1.783931 -1.300000
v 0.757865 1.772083 -1.264645
v 0.737084 1.743480 -1.250000
v 0.716303 1.714877 -1.264645
v 0.707695 1.703029 -1.300000
v 0.716303 1.714877 -1.335356
v 0.694536 1.765159 -1.350001
v 0.705461 1.798784 -1.335356
v 0.709987 1.812712 -1.300001
v 0.705461 1.798784 -1.264645
v 0.694536 1.765159 -1.250000
v 0.683611 1.731534 -1.264645
v 0.679085 1.717606 -1.300001
v 0.683611 1.731534 -1.335356
v 0.647371 1.772629 -1.350001
v 0.647371 1.807985 -1.335356
v 0.647371 1.822629 -1.300001
v 0.647371 1.807985 -1.264645
v 0.647371 1.772629 -1.250001
v 0.647371 1.737274 -1.264645
v 0.647371 1.722629 -1.300001
v 0.647371 1.737274 -1.335356
v -0.765000 1.600000 1.285000
v 0.765000 1.600000 1.285000
v -0.765000 1.589393 1.289393
v 0.765000 1.589393 1.289393
v -0.765000 1.585000 1.300000
v 0.765000 1.585000 1.300000
v -0.765000 1.589393 1.310607
v 0.765000 1.589393 1.310607
v -0.765000 1.600000 1.315000
v 0.765000 1.600000 1.315000
v -0.765000 1.610607 1.310607
v 0.765000 1.610607 1.310607
v -0.765000 1.615000 1.300000
v 0.765000 1.615000 1.300000
v -0.765000 1.610607 1.289393
v 0.765000 1.610607 1.289393
v -0.765000 0.600000 1.285000
v 0.765000 0.600000 1.285000
v -0.765000 0.589393 1.289393
v 0.765000 0.589393 1.289393
v -0.765000 0.585000 1.300000
v 0.765000 0.585000 1.300000
v -0.765000 0.589393 1.310607
v 0.765000 0.589393 1.310607
v -0.765000 0.600000 1.315000
v 0.765000 0.600000 1.315000
v -0.765000 0.610607 1.310607
v 0.765000 0.610607 1.310607
v -0.765000 0.615000 1.300000
v 0.765000 0.615000 1.300000
v -0.765000 0.610607 1.289393
v 0.765000 0.610607 1.289393
v -0.765000 0.600000 -1.315000
v 0.765000 0.600000 -1.315000
v -0.765000 0.589393 -1.310606
v 0.765000 0.589393 -1.310606
v -0.765000 0.585000 -1.300000
v 0.765000 0.585000 -1.300000
v -0.765000 0.589393 -1.289393
v 0.765000 0.589393 -1.289393
v -0.765000 0.600000 -1.285000
v 0.765000 0.600000 -1.285000
v -0.765000 0.610607 -1.289393
v 0.765000 0.610607 -1.289393
v -0.765000 0.615000 -1.300000
v 0.765000 0.615000 -1.300000
v -0.765000 0.610607 -1.310606
v 0.765000 0.610607 -1.310606
v -0.765000 1.600000 -1.315000
v 0.765000 1.600000 -1.315000
v -0.765000 1.589393 -1.310606
v 0.765000 1.589393 -1.310606
v -0.765000 1.585000 -1.300000
v 0.765000 1.585000 -1.300000
v -0.765000 1.589393 -1.289393
v 0.765000 1.589393 -1.289393
v -0.765000 1.600000 -1.285000
v 0.765000 1.600000 -1.285000
v -0.765000 1.610607 -1.289393
v 0.765000 1.610607 -1.289393
v -0.765000 1.615000 -1.300000
v 0.765000 1.615000 -1.300000
v -0.765000 1.610607 -1.310606
v 0.765000 1.610607 -1.310606
vn -1.0000 -0.0000 -0.0000
vn -0.0000 -0.0000 -1.0000
vn 1.0000 -0.0000 -0.0000
vn -0.0000 -0.0000 1.0000
vn -0.0000 1.0000 -0.0000
vn -0.0000 -1.0000 -0.0000
vn -0.7071 -0.0000 -0.7071
vn -0.7149 0.0564 -0.6969
vn -0.0191 0.0030 -0.9998
vn -0.9970 0.0770 -0.0000
vn -0.7071 -0.0000 0.7071
vn -0.7149 0.0564 0.6969
vn -0.0191 0.0030 0.9998
vn 0.7071 -0.0000 0.7071
vn 0.6959 -0.0549 0.7160
vn 0.9968 -0.0800 -0.0000
vn 0.6959 -0.0549 -0.7160
vn 0.6533 -0.2123 -0.7267
vn 0.9511 -0.3090 -0.0000
vn 0.7071 -0.0000 -0.7071
vn 0.5558 -0.4038 -0.7267
vn 0.8090 -0.5878 -0.0000
vn -0.9511 0.3090 -0.0000
vn -0.6897 0.2241 -0.6885
vn 0.6533 -0.2123 0.7267
vn -0.0363 0.0118 0.9993
vn -0.0363 0.0118 -0.9993
vn -0.6897 0.2241 0.6885
vn -0.8090 0.5878 -0.0000
vn -0.5878 0.8090 -0.0000
vn -0.4263 0.5867 -0.6885
vn -0.5867 0.4263 -0.6885
vn 0.5558 -0.4038 0.7267
vn -0.0309 0.0225 0.9993
vn -0.5867 0.4263 0.6885
vn -0.0309 0.0225 -0.9993
vn -0.0225 0.0309 -0.9993
vn -0.0118 0.0363 -0.9993
vn 0.2123 -0.6533 -0.7267
vn 0.4038 -0.5558 -0.7267
vn 0.5878 -0.8090 -0.0000
vn 0.4038 -0.5558 0.7267
vn -0.0225 0.0309 0.9993
vn -0.4263 0.5867 0.6885
vn -0.2241 0.6897 0.6885
vn -0.0564 0.7149 0.6969
vn -0.0770 0.9970 -0.0000
vn -0.3090 0.9511 -0.0000
vn 0.3090 -0.9511 -0.0000
vn 0.2123 -0.6533 0.7267
vn -0.0118 0.0363 0.9993
vn -0.2241 0.6897 -0.6885
vn 0.0770 0.9970 -0.0000
vn 0.0564 0.7149 0.6969
vn -0.0564 0.7149 -0.6969
vn -0.0030 0.0191 -0.9998
vn 0.0549 -0.6959 -0.7160
vn 0.0800 -0.9968 -0.0000
vn 0.0549 -0.6959 0.7160
vn -0.0030 0.0191 0.9998
vn 0.0191 0.0030 -0.9998
vn 0.7149 0.0564 -0.6969
vn 0.9970 0.0770 -0.0000
vn 0.7149 0.0564 0.6969
vn 0.0191 0.0030 0.9998
vn -0.6959 -0.0549 0.7160
vn -0.9968 -0.0800 -0.0000
vn -0.6959 -0.0549 -0.7160
vn -0.9511 -0.3090 -0.0000
vn -0.6533 -0.2123 -0.7267
vn -0.8090 -0.5878 -0.0000
vn -0.5558 -0.4038 -0.7267
vn 0.6897 0.2241 -0.6885
vn 0.9511 0.3090 -0.0000
vn 0.0363 0.0118 0.9993
vn -0.6533 -0.2123 0.7267
vn 0.0363 0.0118 -0.9993
vn 0.6897 0.2241 0.6885
vn 0.8090 0.5878 -0.0000
vn 0.5867 0.4263 -0.6885
vn 0.4263 0.5867 -0.6885
vn 0.5878 0.8090 -0.0000
vn 0.0309 0.0225 0.9993
vn -0.5558 -0.4038 0.7267
vn 0.5867 0.4263 0.6885
vn 0.0309 0.0225 -0.9993
vn 0.0225 0.0309 -0.9993
vn -0.4038 -0.5558 -0.7267
vn -0.2123 -0.6533 -0.7267
vn 0.0118 0.0363 -0.9993
vn -0.5878 -0.8090 -0.0000
vn 0.0225 0.0309 0.9993
vn -0.4038 -0.5558 0.7267
vn 0.4263 0.5867 0.6885
vn 0.2241 0.6897 0.6885
vn 0.3090 0.9511 -0.0000
vn -0.2123 -0.6533 0.7267
vn -0.3090 -0.9511 -0.0000
vn 0.0118 0.0363 0.9993
vn 0.2241 0.6897 -0.6885
vn 0.0564 0.7149 -0.6969
vn 0.0030 0.0191 -0.9998
vn -0.0549 -0.6959 -0.7160
vn -0.0549 -0.6959 0.7160
vn -0.0800 -0.9968 -0.0000
vn 0.0030 0.0191 0.9998
vn -0.0000 -0.7071 -0.7071
vn -0.0000 -0.7071 0.7071
vn -0.0000 0.7071 0.7071
vn -0.0000 0.7071 -0.7071
vt 0.422569 0.321244
vt 0.410285 0.321244
vt 0.410285 0.001869
vt 0.422569 0.001869
vt 0.120644 0.516371
vt 0.109589 0.516371
vt 0.109589 0.339487
vt 0.120644 0.339487
vt 0.434852 0.321244
vt 0.422569 0.321244
vt 0.422569 0.001869
vt 0.434852 0.001869
vt 0.131699 0.516371
vt 0.131699 0.339487
vt 0.134023 0.504701
vt 0.134023 0.338871
vt 0.142867 0.338871
vt 0.142867 0.504701
vt 0.319316 0.335581
vt 0.013249 0.335581
vt 0.006595 0.329439
vt 0.325970 0.329439
vt 0.013249 0.519836
vt 0.006595 0.525978
vt 0.319316 0.519836
vt 0.325970 0.525978
vt 0.186291 0.016044
vt 0.192433 0.009390
vt 0.192433 0.315457
vt 0.186291 0.308804
vt 0.186291 0.285066
vt 0.186291 0.277154
vt 0.186291 0.245504
vt 0.186291 0.237592
vt 0.186291 0.205942
vt 0.186291 0.198030
vt 0.186291 0.166380
vt 0.186291 0.158468
vt 0.186291 0.126818
vt 0.186291 0.118905
vt 0.186291 0.087256
vt 0.186291 0.079343
vt 0.186291 0.047693
vt 0.186291 0.039781
vt 0.145078 0.504701
vt 0.145078 0.338871
vt 0.153922 0.338871
vt 0.153922 0.504701
vt 0.384178 0.308390
vt 0.384178 0.002322
vt 0.394005 0.002322
vt 0.394005 0.008976
vt 0.394005 0.301736
vt 0.394005 0.308390
vt 0.396462 0.308390
vt 0.396462 0.002322
vt 0.406289 0.002322
vt 0.406289 0.008976
vt 0.406289 0.301736
vt 0.406289 0.308390
vt 0.017027 0.339664
vt 0.019484 0.339664
vt 0.019484 0.511635
vt 0.017027 0.511635
vt 0.408745 0.002322
vt 0.408745 0.308390
vt 0.021941 0.339664
vt 0.021941 0.511635
vt 0.019484 0.511635
vt 0.396462 0.002322
vt 0.396462 0.308390
vt 0.008179 0.315457
vt 0.014320 0.308804
vt 0.008179 0.009390
vt 0.014320 0.016044
vt 0.014320 0.039781
vt 0.014320 0.047693
vt 0.014320 0.079343
vt 0.014320 0.087256
vt 0.014320 0.118905
vt 0.014320 0.126818
vt 0.014320 0.158468
vt 0.014320 0.166380
vt 0.014320 0.198030
vt 0.014320 0.205942
vt 0.014320 0.237592
vt 0.014320 0.245504
vt 0.014320 0.277154
vt 0.014320 0.285066
vt 0.156133 0.338871
vt 0.156133 0.504701
vt 0.199923 0.308390
vt 0.206065 0.301736
vt 0.378036 0.301736
vt 0.384178 0.008976
vt 0.378036 0.008976
vt 0.199923 0.002322
vt 0.206065 0.008976
vt 0.199923 0.301736
vt 0.198575 0.002736
vt 0.198575 0.322111
vt 0.002037 0.322111
vt 0.002037 0.002736
vt 0.199923 0.008976
vt 0.206065 0.032713
vt 0.206065 0.040626
vt 0.206065 0.072276
vt 0.206065 0.080188
vt 0.206065 0.111838
vt 0.206065 0.119750
vt 0.206065 0.151400
vt 0.206065 0.159312
vt 0.206065 0.190962
vt 0.206065 0.198874
vt 0.206065 0.230524
vt 0.206065 0.238437
vt 0.206065 0.270086
vt 0.206065 0.277999
vt 0.384178 0.301736
vt 0.378036 0.277999
vt 0.378036 0.270086
vt 0.378036 0.238437
vt 0.378036 0.230524
vt 0.378036 0.198874
vt 0.378036 0.190962
vt 0.378036 0.159312
vt 0.378036 0.151400
vt 0.378036 0.119750
vt 0.378036 0.111838
vt 0.378036 0.080188
vt 0.378036 0.072276
vt 0.378036 0.040626
vt 0.378036 0.032713
vt 0.087227 0.339294
vt 0.087227 0.363031
vt 0.084770 0.363031
vt 0.084770 0.339294
vt 0.066051 0.339294
vt 0.066051 0.370943
vt 0.063595 0.370943
vt 0.063595 0.339294
vt 0.101284 0.339176
vt 0.101284 0.370825
vt 0.098827 0.370825
vt 0.098827 0.339176
vt 0.096370 0.339176
vt 0.096370 0.370825
vt 0.093914 0.370825
vt 0.093914 0.339176
vt 0.104947 0.339176
vt 0.104947 0.370825
vt 0.102490 0.370825
vt 0.102490 0.339176
vt 0.068508 0.339294
vt 0.068508 0.370943
vt 0.066051 0.370943
vt 0.066051 0.339294
vt 0.072487 0.339294
vt 0.072487 0.370943
vt 0.070030 0.370943
vt 0.070030 0.339294
vt 0.082313 0.339294
vt 0.082313 0.363031
vt 0.079857 0.363031
vt 0.079857 0.339294
vt 0.089684 0.339294
vt 0.089684 0.363031
vt 0.021941 0.339664
vt 0.024398 0.339664
vt 0.024398 0.511635
vt 0.021941 0.511635
vt 0.074943 0.339294
vt 0.074943 0.370943
vt 0.072486 0.370943
vt 0.072486 0.339294
vt 0.024398 0.339664
vt 0.026854 0.339664
vt 0.026854 0.511635
vt 0.024398 0.511635
vt 0.061138 0.339294
vt 0.061138 0.370943
vt 0.058681 0.370943
vt 0.058681 0.339294
vt 0.026854 0.339664
vt 0.029311 0.339664
vt 0.029311 0.511635
vt 0.026854 0.511635
vt 0.029311 0.339664
vt 0.031768 0.339664
vt 0.031768 0.511635
vt 0.063595 0.339294
vt 0.063595 0.370943
vt 0.061138 0.370943
vt 0.061138 0.339294
vt 0.031768 0.339664
vt 0.034225 0.339664
vt 0.034225 0.511635
vt 0.077400 0.339294
vt 0.077400 0.370943
vt 0.074943 0.370943
vt 0.074943 0.339294
vt 0.034225 0.339664
vt 0.036681 0.339664
vt 0.036681 0.511635
vt 0.079857 0.339294
vt 0.079857 0.370943
vt 0.039138 0.339664
vt 0.039138 0.511635
vt 0.084770 0.339294
vt 0.084770 0.363031
vt 0.041595 0.511635
vt 0.041595 0.339664
vt 0.044052 0.511635
vt 0.044052 0.339664
vt 0.046508 0.511635
vt 0.046508 0.339664
vt 0.048965 0.511635
vt 0.048965 0.339664
vt 0.051422 0.511635
vt 0.051422 0.339664
vt 0.053879 0.511635
vt 0.053879 0.339664
vt 0.056335 0.511635
vt 0.053879 0.339664
vt 0.056335 0.339664
vt 0.246359 0.342749
vt 0.246359 0.358835
vt 0.242520 0.358835
vt 0.242520 0.342749
vt 0.180142 0.412943
vt 0.176303 0.412943
vt 0.176303 0.405963
vt 0.180142 0.405963
vt 0.183981 0.412943
vt 0.180142 0.412943
vt 0.180142 0.405963
vt 0.183981 0.405963
vt 0.187819 0.412943
vt 0.187819 0.405963
vt 0.191658 0.412943
vt 0.187819 0.412943
vt 0.187819 0.405963
vt 0.191658 0.405963
vt 0.269304 0.406178
vt 0.262796 0.406178
vt 0.262796 0.343364
vt 0.269304 0.343364
vt 0.246359 0.366878
vt 0.246359 0.391006
vt 0.242520 0.391006
vt 0.242520 0.366878
vt 0.240415 0.405413
vt 0.238112 0.405413
vt 0.238112 0.342599
vt 0.240415 0.342599
vt 0.246359 0.399049
vt 0.246359 0.423178
vt 0.242520 0.423178
vt 0.242520 0.399049
vt 0.275811 0.343364
vt 0.282318 0.343364
vt 0.282318 0.406178
vt 0.275811 0.406178
vt 0.246359 0.431221
vt 0.246359 0.455349
vt 0.242520 0.455349
vt 0.242520 0.431221
vt 0.250356 0.405611
vt 0.248053 0.405611
vt 0.248053 0.342797
vt 0.250356 0.342797
vt 0.246359 0.463392
vt 0.246359 0.487521
vt 0.242520 0.487521
vt 0.242520 0.463392
vt 0.246359 0.495564
vt 0.246359 0.511649
vt 0.242520 0.511649
vt 0.242520 0.495564
vt 0.288826 0.406178
vt 0.282318 0.406178
vt 0.282318 0.343364
vt 0.288826 0.343364
vt 0.170389 0.512264
vt 0.170389 0.343364
vt 0.177368 0.343364
vt 0.177368 0.359450
vt 0.177368 0.367493
vt 0.177368 0.391622
vt 0.177368 0.399664
vt 0.177368 0.423793
vt 0.177368 0.431836
vt 0.177368 0.455964
vt 0.177368 0.464007
vt 0.177368 0.488136
vt 0.177368 0.496179
vt 0.177368 0.512264
vt 0.251280 0.512264
vt 0.251280 0.343364
vt 0.255119 0.343364
vt 0.255119 0.512264
vt 0.177368 0.512264
vt 0.177368 0.496179
vt 0.177368 0.488136
vt 0.177368 0.464007
vt 0.177368 0.455964
vt 0.177368 0.431836
vt 0.177368 0.423793
vt 0.177368 0.399664
vt 0.177368 0.391622
vt 0.177368 0.367493
vt 0.177368 0.359450
vt 0.177368 0.343364
vt 0.184348 0.343364
vt 0.184348 0.512264
vt 0.292240 0.405748
vt 0.289937 0.405748
vt 0.289937 0.342934
vt 0.292240 0.342934
vt 0.258958 0.367493
vt 0.258958 0.391622
vt 0.255119 0.391622
vt 0.255119 0.367493
vt 0.199068 0.342599
vt 0.205575 0.342599
vt 0.205575 0.405413
vt 0.199068 0.405413
vt 0.258958 0.399664
vt 0.258958 0.423793
vt 0.255119 0.423793
vt 0.255119 0.399664
vt 0.294543 0.405748
vt 0.292240 0.405748
vt 0.292240 0.342934
vt 0.294543 0.342934
vt 0.258958 0.431836
vt 0.258958 0.455964
vt 0.255119 0.455964
vt 0.255119 0.431836
vt 0.212083 0.405413
vt 0.205575 0.405413
vt 0.205575 0.342599
vt 0.212083 0.342599
vt 0.258958 0.464007
vt 0.258958 0.488136
vt 0.255119 0.488136
vt 0.255119 0.464007
vt 0.255119 0.496179
vt 0.258958 0.496179
vt 0.258958 0.512264
vt 0.296846 0.405748
vt 0.294543 0.405748
vt 0.294543 0.342934
vt 0.296846 0.342934
vt 0.191327 0.343364
vt 0.191327 0.359450
vt 0.191327 0.367493
vt 0.191327 0.391622
vt 0.191327 0.399664
vt 0.191327 0.423793
vt 0.191327 0.431836
vt 0.191327 0.455964
vt 0.191327 0.464007
vt 0.191327 0.488136
vt 0.191327 0.496179
vt 0.191327 0.512264
vt 0.258958 0.343364
vt 0.262796 0.343364
vt 0.262796 0.512264
vt 0.198306 0.343364
vt 0.198306 0.512264
vt 0.245591 0.366110
vt 0.245591 0.359603
vt 0.243288 0.366110
vt 0.239497 0.381445
vt 0.239497 0.373402
vt 0.240265 0.374170
vt 0.240265 0.380677
vt 0.243288 0.359603
vt 0.245591 0.398281
vt 0.245591 0.391774
vt 0.243288 0.398281
vt 0.243288 0.391774
vt 0.245591 0.430453
vt 0.245591 0.423945
vt 0.243288 0.430453
vt 0.243288 0.423945
vt 0.245591 0.462624
vt 0.245591 0.456117
vt 0.243288 0.462624
vt 0.243288 0.456117
vt 0.245591 0.494796
vt 0.245591 0.488288
vt 0.243288 0.494796
vt 0.243288 0.488288
vt 0.255119 0.359450
vt 0.258958 0.359450
vt 0.258190 0.360218
vt 0.255887 0.360218
vt 0.258190 0.366725
vt 0.255887 0.366725
vt 0.258190 0.392389
vt 0.255887 0.392389
vt 0.258190 0.398897
vt 0.255887 0.398897
vt 0.258190 0.424561
vt 0.255887 0.424561
vt 0.258190 0.431068
vt 0.255887 0.431068
vt 0.258190 0.456732
vt 0.255887 0.456732
vt 0.258190 0.463240
vt 0.255887 0.463240
vt 0.258190 0.488904
vt 0.255887 0.488904
vt 0.258190 0.495411
vt 0.255887 0.495411
vt 0.299150 0.405748
vt 0.296847 0.405748
vt 0.296847 0.342934
vt 0.299150 0.342934
vt 0.269304 0.343364
vt 0.275811 0.406178
vt 0.269304 0.406178
vt 0.301453 0.405748
vt 0.299150 0.405748
vt 0.299150 0.342934
vt 0.301453 0.342934
vt 0.231605 0.405413
vt 0.225098 0.405413
vt 0.225098 0.342599
vt 0.231605 0.342599
vt 0.303756 0.405748
vt 0.303756 0.342934
vt 0.231605 0.342599
vt 0.231605 0.405413
vt 0.306059 0.405748
vt 0.303756 0.405748
vt 0.303756 0.342934
vt 0.306059 0.342934
vt 0.218590 0.405413
vt 0.218590 0.342599
vt 0.308362 0.405748
vt 0.306059 0.405748
vt 0.306059 0.342934
vt 0.308362 0.342934
vt 0.218590 0.342599
vt 0.218590 0.405413
vt 0.720348 0.701495
vt 0.713800 0.701495
vt 0.713800 0.407455
vt 0.720348 0.407455
vt 0.910337 0.685043
vt 0.906568 0.684686
vt 0.908412 0.446960
vt 0.912181 0.447317
vt 0.901197 0.684641
vt 0.903041 0.446915
vt 0.995711 0.992948
vt 0.990991 0.992948
vt 0.990991 0.731921
vt 0.995711 0.731921
vt 0.985179 0.992948
vt 0.985179 0.731921
vt 0.826511 0.991336
vt 0.822388 0.991715
vt 0.821100 0.731651
vt 0.825224 0.731272
vt 0.815224 0.731683
vt 0.815540 0.726207
vt 0.821377 0.726858
vt 0.816512 0.991748
vt 0.725664 0.701495
vt 0.725664 0.407455
vt 0.954078 0.766016
vt 0.948203 0.766016
vt 0.944048 0.761861
vt 0.944048 0.755985
vt 0.948202 0.751830
vt 0.954078 0.751830
vt 0.958233 0.755985
vt 0.958233 0.761861
vt 0.816512 0.721403
vt 0.822227 0.722654
vt 0.907938 0.438309
vt 0.911741 0.439291
vt 0.984324 0.726357
vt 0.989879 0.724679
vt 0.721601 0.399297
vt 0.726627 0.401187
vt 0.715344 0.397407
vt 0.902601 0.438889
vt 0.825540 0.725796
vt 0.994340 0.723001
vt 0.716349 0.386854
vt 0.723870 0.379101
vt 0.726801 0.381150
vt 0.719824 0.388343
vt 0.981843 0.721337
vt 0.986650 0.718146
vt 0.901197 0.431846
vt 0.906425 0.430717
vt 0.725239 0.391938
vt 0.729422 0.395532
vt 0.826511 0.720992
vt 0.990363 0.714955
vt 0.910337 0.432248
vt 0.730904 0.386097
vt 0.738042 0.382348
vt 0.739259 0.388164
vt 0.733775 0.391045
vt 0.818044 0.717741
vt 0.823568 0.719449
vt 0.977979 0.717353
vt 0.981621 0.712961
vt 0.784594 0.965380
vt 0.787089 0.958399
vt 0.792797 0.959762
vt 0.790107 0.967286
vt 0.925416 0.441315
vt 0.925416 0.444801
vt 0.919988 0.443479
vt 0.919988 0.439496
vt 0.984169 0.708569
vt 0.788691 0.949994
vt 0.789244 0.940986
vt 0.795119 0.940992
vt 0.794524 0.950701
vt 0.925416 0.449194
vt 0.919988 0.448499
vt 0.975284 0.709632
vt 0.976364 0.704470
vt 0.798685 0.950450
vt 0.797083 0.958856
vt 0.930845 0.443479
vt 0.930845 0.448499
vt 0.973110 0.714795
vt 0.735593 0.376532
vt 0.795119 0.743342
vt 0.789244 0.743337
vt 0.745340 0.374940
vt 0.745955 0.381056
vt 0.745340 0.387171
vt 0.925416 0.454064
vt 0.919988 0.454064
vt 0.968259 0.708485
vt 0.967712 0.703057
vt 0.799237 0.941442
vt 0.930845 0.454064
vt 0.967712 0.713914
vt 0.988788 0.701495
vt 0.988788 0.407455
vt 0.994104 0.407455
vt 0.994104 0.701495
vt 0.768487 0.991322
vt 0.775007 0.748556
vt 0.780492 0.748700
vt 0.773972 0.991465
vt 0.784352 0.748469
vt 0.777832 0.991234
vt 0.746877 0.992948
vt 0.746877 0.731921
vt 0.752690 0.731921
vt 0.752690 0.992948
vt 0.757409 0.731921
vt 0.757409 0.992948
vt 0.805221 0.992919
vt 0.803937 0.732855
vt 0.809812 0.732830
vt 0.811097 0.992894
vt 0.813940 0.733168
vt 0.810088 0.727916
vt 0.814255 0.727553
vt 0.815224 0.993232
vt 0.982241 0.701495
vt 0.982241 0.407455
vt 0.943996 0.778462
vt 0.943996 0.772586
vt 0.948151 0.768431
vt 0.954027 0.768431
vt 0.958182 0.772586
vt 0.958182 0.778462
vt 0.954027 0.782617
vt 0.948151 0.782617
vt 0.810937 0.723358
vt 0.815224 0.722345
vt 0.774719 0.740143
vt 0.780182 0.739631
vt 0.753802 0.724679
vt 0.758264 0.726357
vt 0.981278 0.401187
vt 0.987535 0.399297
vt 0.992561 0.397407
vt 0.784065 0.740055
vt 0.804252 0.727240
vt 0.748247 0.723001
vt 0.778802 0.731196
vt 0.773439 0.732317
vt 0.771292 0.725845
vt 0.776487 0.724220
vt 0.757031 0.718146
vt 0.760745 0.721337
vt 0.782784 0.732230
vt 0.983898 0.391938
vt 0.988081 0.388343
vt 0.978483 0.395532
vt 0.805221 0.722032
vt 0.752224 0.714955
vt 0.978233 0.386097
vt 0.974130 0.391045
vt 0.968645 0.388164
vt 0.971094 0.382348
vt 0.930845 0.667433
vt 0.925416 0.665614
vt 0.925416 0.662128
vt 0.930845 0.663450
vt 0.762060 0.712961
vt 0.764609 0.717353
vt 0.784594 0.721298
vt 0.790107 0.719586
vt 0.792797 0.725749
vt 0.787089 0.727015
vt 0.981103 0.381150
vt 0.806750 0.717741
vt 0.812275 0.719603
vt 0.758418 0.708569
vt 0.788691 0.734609
vt 0.794524 0.733934
vt 0.919988 0.663450
vt 0.919988 0.658430
vt 0.925416 0.657735
vt 0.766223 0.704470
vt 0.768397 0.709633
vt 0.768487 0.721361
vt 0.773464 0.719386
vt 0.930845 0.658430
vt 0.769478 0.714795
vt 0.972311 0.376532
vt 0.799237 0.743793
vt 0.963181 0.381056
vt 0.962565 0.374940
vt 0.962565 0.387171
vt 0.919988 0.652865
vt 0.925416 0.652865
vt 0.774875 0.703057
vt 0.775422 0.708485
vt 0.798685 0.735065
vt 0.930845 0.652865
vt 0.774875 0.713914
vt 0.734211 0.678421
vt 0.729492 0.678421
vt 0.729492 0.429677
vt 0.734211 0.429677
vt 0.936526 0.996160
vt 0.930651 0.996211
vt 0.928639 0.748390
vt 0.934515 0.748339
vt 0.926528 0.996603
vt 0.924517 0.748782
vt 0.965278 0.659602
vt 0.960173 0.659602
vt 0.960173 0.441160
vt 0.965278 0.441160
vt 0.956029 0.659602
vt 0.956029 0.441160
vt 0.853735 0.986882
vt 0.847859 0.986848
vt 0.849144 0.739022
vt 0.855020 0.739056
vt 0.845020 0.738642
vt 0.844706 0.733166
vt 0.848869 0.734230
vt 0.843735 0.986468
vt 0.740023 0.678421
vt 0.740023 0.429677
vt 0.953781 0.750433
vt 0.947905 0.750433
vt 0.943750 0.746278
vt 0.943750 0.740402
vt 0.947905 0.736248
vt 0.953781 0.736248
vt 0.957936 0.740402
vt 0.957936 0.746278
vt 0.843735 0.728362
vt 0.848019 0.730025
vt 0.929155 0.738927
vt 0.934993 0.739560
vt 0.955278 0.436274
vt 0.959196 0.434800
vt 0.735323 0.422435
vt 0.740878 0.424113
vt 0.730862 0.420758
vt 0.924995 0.740003
vt 0.854705 0.733580
vt 0.964074 0.433327
vt 0.891941 0.965479
vt 0.889341 0.958208
vt 0.894857 0.956892
vt 0.897268 0.963638
vt 0.953099 0.431865
vt 0.956361 0.429063
vt 0.926528 0.732297
vt 0.930807 0.730621
vt 0.734839 0.412711
vt 0.738552 0.415902
vt 0.743359 0.419093
vt 0.853735 0.728776
vt 0.960582 0.426261
vt 0.936526 0.731854
vt 0.743581 0.410718
vt 0.749918 0.407389
vt 0.752092 0.412552
vt 0.747223 0.415109
vt 0.902798 0.949855
vt 0.902798 0.945871
vt 0.908227 0.944550
vt 0.908227 0.948036
vt 0.949706 0.428367
vt 0.951944 0.424510
vt 0.955142 0.420653
vt 0.957427 0.419056
vt 0.963291 0.425100
vt 0.741033 0.406326
vt 0.846679 0.726820
vt 0.852203 0.725113
vt 0.883651 0.949210
vt 0.883118 0.940506
vt 0.887097 0.940071
vt 0.887672 0.949453
vt 0.908227 0.940157
vt 0.913655 0.940852
vt 0.913655 0.945871
vt 0.946379 0.421587
vt 0.948288 0.417053
vt 0.893309 0.948770
vt 0.902798 0.940852
vt 0.945430 0.426121
vt 0.885200 0.957333
vt 0.748838 0.402226
vt 0.887097 0.749078
vt 0.883118 0.749514
vt 0.757490 0.400813
vt 0.756943 0.406242
vt 0.757490 0.411670
vt 0.908226 0.935287
vt 0.913655 0.935287
vt 0.940210 0.420580
vt 0.940690 0.415812
vt 0.892775 0.940065
vt 0.902798 0.935287
vt 0.940690 0.425347
vt 0.972512 0.678421
vt 0.972512 0.429677
vt 0.978325 0.429677
vt 0.978325 0.678421
vt 0.868994 0.989466
vt 0.862281 0.750079
vt 0.866276 0.750313
vt 0.872989 0.989701
vt 0.871952 0.750158
vt 0.878665 0.989545
vt 0.746757 0.659602
vt 0.746757 0.441160
vt 0.750901 0.441160
vt 0.750901 0.659602
vt 0.756006 0.441160
vt 0.756006 0.659602
vt 0.832450 0.988364
vt 0.833732 0.740538
vt 0.837859 0.740201
vt 0.836577 0.988027
vt 0.843735 0.740228
vt 0.837585 0.735287
vt 0.843421 0.734613
vt 0.842453 0.988053
vt 0.967793 0.678421
vt 0.967793 0.429677
vt 0.962078 0.766043
vt 0.962078 0.760167
vt 0.966233 0.756013
vt 0.972109 0.756013
vt 0.976264 0.760167
vt 0.976264 0.766043
vt 0.972109 0.770198
vt 0.966233 0.770198
vt 0.836737 0.730729
vt 0.842453 0.729404
vt 0.862568 0.741372
vt 0.866586 0.740928
vt 0.751878 0.434800
vt 0.756756 0.436274
vt 0.966938 0.424113
vt 0.971400 0.422435
vt 0.976955 0.420758
vt 0.872239 0.741451
vt 0.833418 0.734923
vt 0.747961 0.433327
vt 0.891941 0.726122
vt 0.897268 0.727776
vt 0.894857 0.733301
vt 0.889341 0.732077
vt 0.754714 0.429063
vt 0.758935 0.431865
vt 0.868003 0.732198
vt 0.873554 0.733351
vt 0.968171 0.415902
vt 0.972978 0.412711
vt 0.964458 0.419093
vt 0.832450 0.729715
vt 0.751453 0.426261
vt 0.863883 0.733273
vt 0.963142 0.410717
vt 0.960593 0.415109
vt 0.955724 0.412552
vt 0.956805 0.407389
vt 0.835400 0.726974
vt 0.840925 0.725113
vt 0.759130 0.424510
vt 0.762329 0.428367
vt 0.870390 0.724976
vt 0.875768 0.726652
vt 0.966784 0.406326
vt 0.908227 0.723737
vt 0.913655 0.721918
vt 0.913655 0.725901
vt 0.908227 0.727223
vt 0.756892 0.420653
vt 0.883651 0.741080
vt 0.887672 0.739987
vt 0.913655 0.730921
vt 0.908226 0.731616
vt 0.763747 0.417053
vt 0.764695 0.421587
vt 0.893309 0.740639
vt 0.902798 0.725901
vt 0.902798 0.730921
vt 0.766605 0.426121
vt 0.873512 0.719971
vt 0.878665 0.722008
vt 0.958979 0.402226
vt 0.892775 0.749073
vt 0.949780 0.406242
vt 0.950327 0.400813
vt 0.950327 0.411670
vt 0.913655 0.736485
vt 0.908226 0.736485
vt 0.771344 0.415812
vt 0.770864 0.420580
vt 0.902798 0.736485
vt 0.771344 0.425347
vt 0.940823 0.436403
vt 0.940823 0.671327
vt 0.939060 0.671327
vt 0.939060 0.436403
vt 0.937814 0.671327
vt 0.937814 0.436403
vt 0.943832 0.671327
vt 0.943832 0.436403
vt 0.945595 0.436403
vt 0.945595 0.671327
vt 0.946842 0.436403
vt 0.946842 0.671327
vt 0.942586 0.436403
vt 0.942586 0.671327
vt 0.965424 0.777790
vt 0.966671 0.776543
vt 0.968433 0.776543
vt 0.969680 0.777790
vt 0.969680 0.779552
vt 0.968433 0.780799
vt 0.966671 0.780799
vt 0.965424 0.779552
vt 0.948604 0.436403
vt 0.948604 0.671327
vt 0.949851 0.436403
vt 0.949851 0.671327
vt 0.972689 0.780799
vt 0.970926 0.780799
vt 0.970926 0.776543
vt 0.972689 0.776543
vt 0.973935 0.777790
vt 0.973935 0.779552
s 0
usemtl bed
f 129/177/129 137/178/129 138/179/129 131/180/129
f 131/181/130 138/182/130 139/183/130 135/184/130
f 135/185/131 139/186/131 140/187/131 133/188/131
f 133/189/132 140/181/132 137/184/132 129/190/132
f 130/191/130 134/192/130 148/193/130 145/194/130
f 130/195/133 132/196/133 138/197/133 137/198/133
f 132/196/133 136/199/133 139/200/133 138/197/133
f 136/199/133 134/201/133 140/202/133 139/200/133
f 134/201/133 130/195/133 137/198/133 140/202/133
f 153/203/134 149/204/134 150/205/134 154/206/134 188/207/134 187/208/134 186/209/134 185/210/134 184/211/134 183/212/134 182/213/134 181/214/134 180/215/134 179/216/134 178/217/134 177/218/134 176/219/134 175/220/134
f 136/221/132 132/222/132 146/223/132 147/224/132
f 134/225/129 136/226/129 147/227/129 159/228/129 160/229/129 148/230/129
f 132/231/131 130/232/131 145/233/131 157/234/131 158/235/131 146/236/131
f 142/237/132 154/238/132 155/239/132 143/240/132
f 146/236/131 158/235/131 157/234/131 145/233/131 149/241/131 150/242/131
f 144/238/130 156/243/130 153/244/130 141/245/130
f 148/230/129 160/229/129 159/228/129 147/227/129 151/246/129 152/247/129
f 154/206/134 150/205/134 151/248/134 155/249/134
f 155/249/134 151/248/134 152/250/134 156/251/134 216/252/134 215/253/134 214/254/134 213/255/134 212/256/134 211/257/134 210/258/134 209/259/134 208/260/134 207/261/134 206/262/134 205/263/134 204/264/134 203/265/134
f 156/251/134 152/250/134 149/204/134 153/203/134
f 145/194/130 148/193/130 152/222/130 149/221/130
f 147/224/132 146/223/132 150/266/132 151/267/132
f 147/225/133 146/268/133 142/269/133 143/270/133
f 148/226/133 160/271/133 144/272/133
f 145/273/133 148/226/133 144/272/133 141/274/133
f 146/268/133 158/275/133 142/269/133
f 129/276/134 131/277/134 150/205/134 149/204/134
f 131/277/134 135/278/134 151/248/134 150/205/134
f 135/278/134 133/279/134 152/250/134 151/248/134
f 133/279/134 129/276/134 149/204/134 152/250/134
f 141/274/133 157/280/133 145/273/133
f 142/269/133 158/275/133 157/280/133 141/274/133 161/281/133 162/282/133 163/283/133 164/284/133 165/285/133 166/286/133 167/287/133 168/288/133 169/289/133 170/290/133 171/291/133 172/292/133 173/293/133 174/294/133
f 143/270/133 159/295/133 147/225/133
f 144/272/133 160/271/133 159/295/133 143/270/133 189/296/133 190/297/133 191/298/133 192/299/133 193/300/133 194/301/133 195/302/133 196/303/133 197/304/133 198/305/133 199/306/133 200/307/133 201/308/133 202/309/133
f 153/310/131 175/311/131 161/312/131 141/313/131
f 215/253/134 216/252/134 175/220/134 176/219/134
f 176/314/131 177/315/131 163/316/131 162/317/131
f 213/255/134 214/254/134 177/218/134 178/217/134
f 178/318/131 179/319/131 165/320/131 164/321/131
f 211/257/134 212/256/134 179/216/134 180/215/134
f 180/322/131 181/323/131 167/324/131 166/325/131
f 209/259/134 210/258/134 181/214/134 182/213/134
f 182/326/131 183/327/131 169/328/131 168/329/131
f 207/261/134 208/260/134 183/212/134 184/211/134
f 184/330/131 185/331/131 171/332/131 170/333/131
f 205/263/134 206/262/134 185/210/134 186/209/134
f 186/334/131 187/335/131 173/336/131 172/337/131
f 203/265/134 204/264/134 187/208/134 188/207/134
f 188/338/131 154/339/131 142/340/131 174/341/131
f 155/342/129 203/343/129 189/311/129 143/310/129
f 189/344/130 203/345/130 188/346/130 174/347/130
f 204/348/129 205/349/129 191/350/129 190/351/129
f 191/352/130 205/353/130 186/354/130 172/355/130
f 206/356/129 207/357/129 193/358/129 192/359/129
f 193/360/130 207/361/130 184/362/130 170/363/130
f 208/321/129 209/320/129 195/323/129 194/322/129
f 195/364/130 209/365/130 182/366/130 168/362/130
f 210/367/129 211/368/129 197/369/129 196/370/129
f 197/371/130 211/372/130 180/373/130 166/366/130
f 212/374/129 213/375/129 199/376/129 198/377/129
f 199/378/130 213/379/130 178/380/130 164/373/130
f 214/381/129 215/382/129 201/375/129 200/374/129
f 201/379/130 215/383/130 176/384/130 162/380/130
f 216/385/129 156/386/129 144/339/129 202/338/129
f 210/387/132 196/384/132 167/383/132 181/388/132
f 196/303/133 195/302/133 168/288/133 167/287/133
f 208/389/132 194/387/132 169/388/132 183/390/132
f 194/301/133 193/300/133 170/290/133 169/289/133
f 206/391/132 192/389/132 171/390/132 185/392/132
f 192/299/133 191/298/133 172/292/133 171/291/133
f 204/393/132 190/391/132 173/392/132 187/394/132
f 190/297/133 189/296/133 174/294/133 173/293/133
f 212/395/132 198/393/132 165/394/132 179/396/132
f 198/305/133 197/304/133 166/286/133 165/285/133
f 214/397/132 200/395/132 163/396/132 177/398/132
f 200/307/133 199/306/133 164/284/133 163/283/133
f 216/399/132 202/397/132 161/400/132 175/401/132
f 202/309/133 201/308/133 162/282/133 161/281/133
f 217/177/129 225/178/129 226/179/129 219/180/129
f 219/181/130 226/182/130 227/183/130 223/184/130
f 223/185/131 227/186/131 228/187/131 221/188/131
f 221/189/132 228/181/132 225/184/132 217/190/132
f 218/191/130 222/192/130 236/193/130 233/194/130
f 218/195/133 220/196/133 226/197/133 225/198/133
f 220/196/133 224/199/133 227/200/133 226/197/133
f 224/199/133 222/201/133 228/202/133 227/200/133
f 222/201/133 218/195/133 225/198/133 228/202/133
f 241/203/134 237/204/134 238/205/134 242/206/134 276/207/134 275/208/134 274/209/134 273/210/134 272/211/134 271/212/134 270/213/134 269/214/134 268/215/134 267/216/134 266/217/134 265/218/134 264/219/134 263/220/134
f 224/221/132 220/222/132 234/223/132 235/224/132
f 222/225/129 224/226/129 235/227/129 247/228/129 248/229/129 236/230/129
f 220/231/131 218/232/131 233/233/131 245/234/131 246/235/131 234/236/131
f 230/237/132 242/238/132 243/239/132 231/240/132
f 234/236/131 246/235/131 245/234/131 233/233/131 237/241/131 238/242/131
f 232/238/130 244/243/130 241/244/130 229/245/130
f 236/230/129 248/229/129 247/228/129 235/227/129 239/246/129 240/247/129
f 242/206/134 238/205/134 239/248/134 243/249/134
f 243/249/134 239/248/134 240/250/134 244/251/134 304/252/134 303/253/134 302/254/134 301/255/134 300/256/134 299/257/134 298/258/134 297/259/134 296/260/134 295/261/134 294/262/134 293/263/134 292/264/134 291/265/134
f 244/251/134 240/250/134 237/204/134 241/203/134
f 233/194/130 236/193/130 240/222/130 237/221/130
f 235/224/132 234/223/132 238/266/132 239/267/132
f 235/225/133 234/268/133 230/269/133 231/270/133
f 236/226/133 248/271/133 232/272/133
f 233/273/133 236/226/133 232/272/133 229/274/133
f 234/268/133 246/275/133 230/269/133
f 217/276/134 219/277/134 238/205/134 237/204/134
f 219/277/134 223/278/134 239/248/134 238/205/134
f 223/278/134 221/279/134 240/250/134 239/248/134
f 221/279/134 217/276/134 237/204/134 240/250/134
f 229/274/133 245/280/133 233/273/133
f 230/269/133 246/275/133 245/280/133 229/274/133 249/281/133 250/282/133 251/283/133 252/284/133 253/285/133 254/286/133 255/287/133 256/288/133 257/289/133 258/290/133 259/291/133 260/292/133 261/293/133 262/294/133
f 231/270/133 247/295/133 235/225/133
f 232/272/133 248/271/133 247/295/133 231/270/133 277/296/133 278/297/133 279/298/133 280/299/133 281/300/133 282/301/133 283/302/133 284/303/133 285/304/133 286/305/133 287/306/133 288/307/133 289/308/133 290/309/133
f 241/310/131 263/311/131 249/312/131 229/313/131
f 303/253/134 304/252/134 263/220/134 264/219/134
f 264/314/131 265/315/131 251/316/131 250/317/131
f 301/255/134 302/254/134 265/218/134 266/217/134
f 266/318/131 267/319/131 253/320/131 252/321/131
f 299/257/134 300/256/134 267/216/134 268/215/134
f 268/322/131 269/323/131 255/324/131 254/325/131
f 297/259/134 298/258/134 269/214/134 270/213/134
f 270/326/131 271/327/131 257/328/131 256/329/131
f 295/261/134 296/260/134 271/212/134 272/211/134
f 272/330/131 273/331/131 259/332/131 258/333/131
f 293/263/134 294/262/134 273/210/134 274/209/134
f 274/334/131 275/335/131 261/336/131 260/337/131
f 291/265/134 292/264/134 275/208/134 276/207/134
f 276/338/131 242/339/131 230/340/131 262/341/131
f 243/342/129 291/343/129 277/311/129 231/310/129
f 277/344/130 291/345/130 276/346/130 262/347/130
f 292/348/129 293/349/129 279/350/129 278/351/129
f 279/352/130 293/353/130 274/354/130 260/355/130
f 294/356/129 295/357/129 281/358/129 280/359/129
f 281/360/130 295/361/130 272/362/130 258/363/130
f 296/321/129 297/320/129 283/323/129 282/322/129
f 283/364/130 297/365/130 270/366/130 256/362/130
f 298/367/129 299/368/129 285/369/129 284/370/129
f 285/371/130 299/372/130 268/373/130 254/366/130
f 300/374/129 301/375/129 287/376/129 286/377/129
f 287/378/130 301/379/130 266/380/130 252/373/130
f 302/381/129 303/382/129 289/375/129 288/374/129
f 289/379/130 303/383/130 264/384/130 250/380/130
f 304/385/129 244/386/129 232/339/129 290/338/129
f 298/387/132 284/384/132 255/383/132 269/388/132
f 284/303/133 283/302/133 256/288/133 255/287/133
f 296/389/132 282/387/132 257/388/132 271/390/132
f 282/301/133 281/300/133 258/290/133 257/289/133
f 294/391/132 280/389/132 259/390/132 273/392/132
f 280/299/133 279/298/133 260/292/133 259/291/133
f 292/393/132 278/391/132 261/392/132 275/394/132
f 278/297/133 277/296/133 262/294/133 261/293/133
f 300/395/132 286/393/132 253/394/132 267/396/132
f 286/305/133 285/304/133 254/286/133 253/285/133
f 302/397/132 288/395/132 251/396/132 265/398/132
f 288/307/133 287/306/133 252/284/133 251/283/133
f 304/399/132 290/397/132 249/400/132 263/401/132
f 290/309/133 289/308/133 250/282/133 249/281/133
f 316/402/132 331/403/132 321/404/132 319/405/132
f 314/406/134 317/407/134 309/408/134 305/409/134
f 320/410/133 315/411/133 306/412/133 310/413/133
f 312/414/133 308/410/133 316/413/133 319/415/133
f 307/416/134 311/417/134 318/418/134 313/419/134
f 371/420/131 372/421/131 390/422/131 391/423/131
f 332/424/132 333/425/132 323/426/132 322/427/132
f 370/428/134 371/429/134 391/430/134 392/431/134
f 334/432/132 335/433/132 325/434/132 324/435/132
f 365/436/129 366/437/129 388/438/129 385/439/129
f 336/440/132 337/441/132 327/442/132 326/443/132
f 368/444/133 365/445/133 385/446/133 386/447/133
f 338/448/132 339/449/132 329/450/132 328/451/132
f 340/452/132 313/453/132 318/454/132 330/455/132
f 367/456/131 368/457/131 386/458/131 387/459/131
f 311/460/131 312/461/131 319/462/131 321/463/131 322/464/131 323/465/131 324/466/131 325/467/131 326/468/131 327/469/131 328/470/131 329/471/131 330/472/131 318/473/131
f 307/474/130 308/475/130 312/476/130 311/477/130
f 313/478/129 340/479/129 339/480/129 338/481/129 337/482/129 336/483/129 335/484/129 334/485/129 333/486/129 332/487/129 331/488/129 316/489/129 308/490/129 307/491/129
f 366/492/134 367/493/134 387/494/134 388/495/134
f 342/496/130 343/497/130 353/498/130 352/499/130
f 361/500/129 362/501/129 384/502/129 381/503/129
f 344/504/130 345/505/130 355/506/130 354/507/130
f 364/508/133 361/509/133 381/510/133 382/511/133
f 346/512/130 347/513/130 357/514/130 356/515/130
f 363/516/131 364/517/131 382/518/131 383/519/131
f 348/520/130 349/521/130 359/522/130 358/523/130
f 360/524/130 350/525/130 317/526/130 314/477/130
f 362/527/134 363/528/134 383/529/134 384/530/134
f 305/491/129 306/490/129 315/531/129 351/532/129 352/533/129 353/534/129 354/535/129 355/536/129 356/537/129 357/538/129 358/539/129 359/540/129 360/541/129 314/542/129
f 309/526/132 310/543/132 306/544/132 305/545/132
f 317/542/131 350/541/131 349/540/131 348/539/131 347/538/131 346/537/131 345/536/131 344/535/131 343/534/131 342/533/131 341/532/131 320/531/131 310/546/131 309/547/131
f 331/403/132 332/424/132 362/548/132 361/549/132
f 332/424/132 322/427/132 363/550/132 362/548/132
f 322/551/132 321/552/132 364/553/132 363/554/132
f 321/404/132 331/403/132 361/549/132 364/555/132
f 333/425/132 334/432/132 366/556/132 365/557/132
f 334/432/132 324/435/132 367/558/132 366/556/132
f 324/435/132 323/426/132 368/559/132 367/558/132
f 323/426/132 333/425/132 365/557/132 368/559/132
f 335/433/132 336/440/132 370/560/132 369/561/132
f 336/440/132 326/443/132 371/562/132 370/560/132
f 326/443/132 325/434/132 372/563/132 371/562/132
f 325/434/132 335/433/132 369/561/132 372/563/132
f 337/441/132 338/448/132 374/564/132 373/565/132
f 338/448/132 328/451/132 375/566/132 374/564/132
f 328/451/132 327/442/132 376/567/132 375/566/132
f 327/442/132 337/441/132 373/565/132 376/567/132
f 339/449/132 340/452/132 378/568/132 377/569/132
f 340/452/132 330/455/132 379/570/132 378/568/132
f 330/455/132 329/450/132 380/571/132 379/570/132
f 329/450/132 339/449/132 377/569/132 380/571/132
f 351/572/130 341/573/130 382/574/130 381/575/130
f 341/573/130 342/496/130 383/576/130 382/574/130
f 342/496/130 352/499/130 384/577/130 383/576/130
f 352/499/130 351/572/130 381/575/130 384/577/130
f 353/498/130 343/497/130 386/578/130 385/579/130
f 343/497/130 344/504/130 387/580/130 386/578/130
f 344/504/130 354/507/130 388/581/130 387/580/130
f 354/507/130 353/498/130 385/579/130 388/581/130
f 355/506/130 345/505/130 390/582/130 389/583/130
f 345/505/130 346/512/130 391/584/130 390/582/130
f 346/512/130 356/515/130 392/585/130 391/584/130
f 356/515/130 355/506/130 389/583/130 392/585/130
f 357/514/130 347/513/130 394/586/130 393/587/130
f 347/513/130 348/520/130 395/588/130 394/586/130
f 348/520/130 358/523/130 396/589/130 395/588/130
f 358/523/130 357/514/130 393/587/130 396/589/130
f 359/522/130 349/521/130 398/590/130 397/591/130
f 349/521/130 350/525/130 399/592/130 398/590/130
f 350/525/130 360/524/130 400/593/130 399/592/130
f 360/524/130 359/522/130 397/591/130 400/593/130
f 372/594/133 369/595/133 389/596/133 390/597/133
f 369/598/129 370/436/129 392/599/129 389/600/129
f 374/601/134 375/602/134 395/603/134 396/604/134
f 375/605/131 376/606/131 394/607/131 395/608/131
f 376/609/133 373/601/133 393/604/133 394/610/133
f 373/611/129 374/430/129 396/429/129 393/612/129
f 378/613/134 379/614/134 399/615/134 400/616/134
f 379/617/131 380/516/131 398/519/131 399/618/131
f 380/619/133 377/620/133 397/621/133 398/622/133
f 377/623/129 378/607/129 400/606/129 397/624/129
f 320/543/130 341/573/130 351/572/130 315/476/130
s 1
f 401/625/130 403/626/135 404/627/136 402/628/137
f 403/629/135 405/630/129 406/631/138 404/632/136
f 405/630/129 407/633/139 408/634/140 406/631/138
f 407/635/139 409/636/132 410/637/141 408/638/140
f 409/636/132 411/639/142 412/640/143 410/637/141
f 411/641/142 413/642/131 414/643/144 412/644/143
f 416/645/145 424/646/146 423/647/147 414/643/144
f 413/642/131 415/648/148 416/645/145 414/643/144
f 415/649/148 401/625/130 402/628/137 416/650/145
f 401/651/134 415/652/134 413/653/134 411/654/134 409/655/134 407/656/134 405/657/134 403/658/134
f 424/646/146 432/659/149 431/660/150 423/647/147
f 406/631/138 419/661/151 418/662/152 404/632/136
f 412/640/143 422/663/153 421/664/154 410/637/141
f 402/628/137 417/665/155 424/666/146 416/650/145
f 404/627/136 418/667/152 417/665/155 402/628/137
f 408/634/140 420/668/156 419/661/151 406/631/138
f 414/643/144 423/647/147 422/669/153 412/644/143
f 410/637/141 421/664/154 420/670/156 408/638/140
f 427/671/157 435/672/158 434/673/159 426/674/160
f 422/663/153 430/675/161 429/676/162 421/664/154
f 420/668/156 428/677/163 427/678/157 419/661/151
f 418/667/152 426/674/160 425/679/164 417/665/155
f 417/665/155 425/679/164 432/680/149 424/666/146
f 423/647/147 431/660/150 430/681/161 422/669/153
f 421/664/154 429/676/162 428/682/163 420/670/156
f 419/661/151 427/678/157 426/683/160 418/662/152
f 433/684/165 441/685/166 448/686/167 440/687/168
f 432/659/149 440/688/168 439/689/169 431/660/150
f 430/675/161 438/690/170 437/691/171 429/676/162
f 428/692/163 436/693/172 435/694/158 427/695/157
f 426/674/160 434/673/159 433/684/165 425/679/164
f 425/679/164 433/684/165 440/687/168 432/680/149
f 431/696/150 439/697/169 438/698/170 430/699/161
f 429/676/162 437/691/171 436/700/172 428/682/163
f 444/701/173 452/702/174 451/703/175 443/704/176
f 439/697/169 447/705/177 446/706/178 438/698/170
f 437/691/171 445/707/179 444/708/173 436/700/172
f 435/694/158 443/704/176 442/709/180 434/710/159
f 440/711/168 448/712/167 447/705/177 439/697/169
f 438/690/170 446/713/178 445/707/179 437/691/171
f 436/693/172 444/701/173 443/704/176 435/694/158
f 434/673/159 442/714/180 441/685/166 433/684/165
f 507/715/181 451/703/175 452/702/174 508/716/182
f 442/714/180 450/717/183 449/718/184 441/685/166
f 441/685/166 449/718/184 456/719/185 448/686/167
f 447/705/177 455/720/186 454/721/187 446/706/178
f 445/707/179 453/722/188 452/723/174 444/708/173
f 443/704/176 451/703/175 450/724/183 442/709/180
f 448/712/167 456/725/185 455/720/186 447/705/177
f 446/713/178 454/726/187 453/722/188 445/707/179
f 457/727/130 458/728/189 460/729/190 459/730/148
f 459/731/148 460/732/190 462/733/191 461/734/131
f 461/734/131 462/733/191 464/735/192 463/736/142
f 463/737/142 464/738/192 466/739/193 465/740/132
f 465/740/132 466/739/193 468/741/194 467/742/139
f 467/743/139 468/744/194 470/745/195 469/746/129
f 472/747/196 470/745/195 479/748/197 480/749/198
f 469/746/129 470/745/195 472/747/196 471/750/135
f 471/751/135 472/752/196 458/728/189 457/727/130
f 457/753/134 459/754/134 461/755/134 463/756/134 465/757/134 467/758/134 469/759/134 471/760/134
f 480/749/198 479/748/197 487/761/199 488/762/200
f 462/733/191 460/732/190 474/763/201 475/764/202
f 468/741/194 466/739/193 477/765/203 478/766/204
f 458/728/189 472/752/196 480/767/198 473/768/205
f 460/729/190 458/728/189 473/768/205 474/769/201
f 464/735/192 462/733/191 475/764/202 476/770/206
f 470/745/195 468/744/194 478/771/204 479/748/197
f 466/739/193 464/738/192 476/772/206 477/765/203
f 483/773/207 482/774/208 490/775/209 491/776/210
f 478/766/204 477/765/203 485/777/211 486/778/212
f 476/770/206 475/764/202 483/773/207 484/779/213
f 474/769/201 473/768/205 481/780/214 482/781/208
f 473/768/205 480/767/198 488/782/200 481/780/214
f 479/748/197 478/771/204 486/783/212 487/761/199
f 477/765/203 476/772/206 484/784/213 485/777/211
f 475/764/202 474/763/201 482/774/208 483/773/207
f 489/785/215 496/786/216 504/787/217 497/788/218
f 488/789/200 487/790/199 495/791/219 496/792/216
f 486/778/212 485/777/211 493/793/220 494/794/221
f 484/795/213 483/796/207 491/797/210 492/798/222
f 482/781/208 481/780/214 489/785/215 490/799/209
f 481/780/214 488/782/200 496/786/216 489/785/215
f 487/761/199 486/783/212 494/800/221 495/801/219
f 485/777/211 484/784/213 492/802/222 493/793/220
f 500/803/223 499/804/224 507/715/181 508/716/182
f 495/791/219 494/805/221 502/806/225 503/807/226
f 493/793/220 492/802/222 500/808/223 501/809/227
f 491/776/210 490/775/209 498/810/228 499/811/224
f 496/792/216 495/791/219 503/807/226 504/812/217
f 494/794/221 493/793/220 501/809/227 502/813/225
f 492/798/222 491/797/210 499/804/224 500/803/223
f 490/799/209 489/785/215 497/788/218 498/814/228
f 506/815/229 450/724/183 451/703/175 507/715/181
f 498/814/228 497/788/218 505/816/230 506/817/229
f 497/788/218 504/787/217 512/818/231 505/816/230
f 503/807/226 502/806/225 510/819/232 511/820/233
f 501/809/227 500/808/223 508/821/182 509/822/234
f 499/804/224 498/823/228 506/815/229 507/715/181
f 504/812/217 503/807/226 511/820/233 512/824/231
f 502/813/225 501/809/227 509/822/234 510/825/232
f 508/821/182 452/723/174 453/722/188 509/822/234
f 509/822/234 453/722/188 454/726/187 510/825/232
f 510/819/232 454/721/187 455/720/186 511/820/233
f 511/820/233 455/720/186 456/725/185 512/824/231
f 512/818/231 456/719/185 449/718/184 505/816/230
f 505/816/230 449/718/184 450/717/183 506/817/229
f 513/826/130 515/827/135 516/828/136 514/829/137
f 515/830/135 517/831/129 518/832/138 516/833/136
f 517/831/129 519/834/139 520/835/140 518/832/138
f 519/836/139 521/837/132 522/838/141 520/839/140
f 521/837/132 523/840/142 524/841/143 522/838/141
f 523/842/142 525/843/131 526/844/144 524/845/143
f 528/846/145 536/847/146 535/848/147 526/844/144
f 525/843/131 527/849/148 528/846/145 526/844/144
f 527/850/148 513/826/130 514/829/137 528/851/145
f 513/852/134 527/853/134 525/854/134 523/855/134 521/856/134 519/857/134 517/858/134 515/859/134
f 536/847/146 544/860/149 543/861/150 535/848/147
f 518/832/138 531/862/151 530/863/152 516/833/136
f 524/841/143 534/864/153 533/865/154 522/838/141
f 514/829/137 529/866/155 536/867/146 528/851/145
f 516/828/136 530/868/152 529/866/155 514/829/137
f 520/835/140 532/869/156 531/862/151 518/832/138
f 526/844/144 535/848/147 534/870/153 524/845/143
f 522/838/141 533/865/154 532/871/156 520/839/140
f 539/872/157 547/873/158 546/874/159 538/875/160
f 534/864/153 542/876/161 541/877/162 533/865/154
f 532/869/156 540/878/163 539/879/157 531/862/151
f 530/868/152 538/880/160 537/881/164 529/866/155
f 529/866/155 537/881/164 544/882/149 536/867/146
f 535/848/147 543/861/150 542/883/161 534/870/153
f 533/865/154 541/877/162 540/884/163 532/871/156
f 531/862/151 539/879/157 538/885/160 530/863/152
f 545/886/165 553/887/166 560/888/167 552/889/168
f 544/890/149 552/891/168 551/892/169 543/893/150
f 542/876/161 550/894/170 549/895/171 541/877/162
f 540/884/163 548/896/172 547/897/158 539/898/157
f 538/880/160 546/899/159 545/886/165 537/881/164
f 537/881/164 545/886/165 552/889/168 544/882/149
f 543/861/150 551/900/169 550/901/170 542/883/161
f 541/877/162 549/895/171 548/896/172 540/884/163
f 556/902/173 564/903/174 563/904/175 555/905/176
f 551/892/169 559/906/177 558/907/178 550/908/170
f 549/895/171 557/909/179 556/910/173 548/896/172
f 547/873/158 555/905/176 554/911/180 546/874/159
f 552/891/168 560/912/167 559/906/177 551/892/169
f 550/894/170 558/913/178 557/909/179 549/895/171
f 548/914/172 556/902/173 555/905/176 547/873/158
f 546/899/159 554/915/180 553/887/166 545/886/165
f 619/916/181 563/904/175 564/903/174 620/917/182
f 554/915/180 562/918/183 561/919/184 553/887/166
f 553/887/166 561/919/184 568/920/185 560/888/167
f 559/906/177 567/921/186 566/922/187 558/907/178
f 557/909/179 565/923/188 564/924/174 556/910/173
f 555/905/176 563/904/175 562/925/183 554/911/180
f 560/912/167 568/926/185 567/921/186 559/906/177
f 558/913/178 566/927/187 565/923/188 557/909/179
f 569/928/130 570/929/189 572/930/190 571/931/148
f 571/932/148 572/933/190 574/934/191 573/935/131
f 573/935/131 574/934/191 576/936/192 575/937/142
f 575/938/142 576/939/192 578/940/193 577/941/132
f 577/941/132 578/940/193 580/942/194 579/943/139
f 579/944/139 580/945/194 582/946/195 581/947/129
f 584/948/196 582/946/195 591/949/197 592/950/198
f 581/947/129 582/946/195 584/948/196 583/951/135
f 583/952/135 584/953/196 570/929/189 569/928/130
f 569/954/134 571/955/134 573/956/134 575/957/134 577/958/134 579/959/134 581/960/134 583/961/134
f 592/950/198 591/949/197 599/962/199 600/963/200
f 574/934/191 572/933/190 586/964/201 587/965/202
f 580/942/194 578/940/193 589/966/203 590/967/204
f 570/929/189 584/953/196 592/968/198 585/969/205
f 572/930/190 570/929/189 585/969/205 586/970/201
f 576/936/192 574/934/191 587/965/202 588/971/206
f 582/946/195 580/945/194 590/972/204 591/949/197
f 578/940/193 576/939/192 588/973/206 589/966/203
f 595/974/207 594/975/208 602/976/209 603/977/210
f 590/967/204 589/966/203 597/978/211 598/979/212
f 588/971/206 587/965/202 595/980/207 596/981/213
f 586/970/201 585/969/205 593/982/214 594/983/208
f 585/969/205 592/968/198 600/984/200 593/982/214
f 591/949/197 590/972/204 598/985/212 599/962/199
f 589/966/203 588/973/206 596/986/213 597/978/211
f 587/965/202 586/964/201 594/987/208 595/980/207
f 601/988/215 608/989/216 616/990/217 609/991/218
f 600/963/200 599/962/199 607/992/219 608/993/216
f 598/979/212 597/978/211 605/994/220 606/995/221
f 596/981/213 595/980/207 603/996/210 604/997/222
f 594/983/208 593/982/214 601/988/215 602/998/209
f 593/982/214 600/984/200 608/989/216 601/988/215
f 599/999/199 598/1000/212 606/1001/221 607/1002/219
f 597/978/211 596/986/213 604/1003/222 605/994/220
f 612/1004/223 611/1005/224 619/916/181 620/917/182
f 607/1002/219 606/1001/221 614/1006/225 615/1007/226
f 605/994/220 604/1003/222 612/1008/223 613/1009/227
f 603/977/210 602/976/209 610/1010/228 611/1005/224
f 608/1011/216 607/1002/219 615/1007/226 616/1012/217
f 606/995/221 605/994/220 613/1009/227 614/1013/225
f 604/997/222 603/996/210 611/1014/224 612/1015/223
f 602/998/209 601/988/215 609/991/218 610/1016/228
f 618/1017/229 562/925/183 563/904/175 619/916/181
f 610/1016/228 609/991/218 617/1018/230 618/1019/229
f 609/991/218 616/990/217 624/1020/231 617/1018/230
f 615/1007/226 614/1006/225 622/1021/232 623/1022/233
f 613/1009/227 612/1008/223 620/1023/182 621/1024/234
f 611/1005/224 610/1010/228 618/1017/229 619/916/181
f 616/1012/217 615/1007/226 623/1022/233 624/1025/231
f 614/1013/225 613/1009/227 621/1024/234 622/1026/232
f 620/1023/182 564/924/174 565/923/188 621/1024/234
f 621/1024/234 565/923/188 566/927/187 622/1026/232
f 622/1021/232 566/922/187 567/921/186 623/1022/233
f 623/1022/233 567/921/186 568/926/185 624/1025/231
f 624/1020/231 568/920/185 561/919/184 617/1018/230
f 617/1018/230 561/919/184 562/918/183 618/1019/229
f 625/1027/130 626/1028/130 628/1029/235 627/1030/235
f 627/1030/235 628/1029/235 630/1031/134 629/1032/134
f 629/1033/134 630/1034/134 632/1035/236 631/1036/236
f 631/1036/236 632/1035/236 634/1037/132 633/1038/132
f 633/1028/132 634/1027/132 636/1039/237 635/1040/237
f 635/1040/237 636/1039/237 638/1034/133 637/1033/133
f 628/1041/131 626/1042/131 640/1043/131 638/1044/131 636/1045/131 634/1046/131 632/1047/131 630/1048/131
f 637/1038/133 638/1037/133 640/1049/238 639/1050/238
f 639/1050/238 640/1049/238 626/1051/130 625/1052/130
f 625/1053/129 627/1054/129 629/1045/129 631/1044/129 633/1055/129 635/1056/129 637/1057/129 639/1058/129
f 641/1027/130 642/1028/130 644/1029/235 643/1030/235
f 643/1030/235 644/1029/235 646/1031/134 645/1032/134
f 645/1033/134 646/1034/134 648/1035/236 647/1036/236
f 647/1036/236 648/1035/236 650/1037/132 649/1038/132
f 649/1028/132 650/1027/132 652/1039/237 651/1040/237
f 651/1040/237 652/1039/237 654/1034/133 653/1033/133
f 644/1041/131 642/1042/131 656/1043/131 654/1044/131 652/1045/131 650/1046/131 648/1047/131 646/1048/131
f 653/1038/133 654/1037/133 656/1049/238 655/1050/238
f 655/1050/238 656/1049/238 642/1051/130 641/1052/130
f 641/1053/129 643/1054/129 645/1045/129 647/1044/129 649/1055/129 651/1056/129 653/1057/129 655/1058/129
f 657/1027/130 658/1028/130 660/1029/235 659/1030/235
f 659/1030/235 660/1029/235 662/1031/134 661/1032/134
f 661/1033/134 662/1034/134 664/1035/236 663/1036/236
f 663/1036/236 664/1035/236 666/1037/132 665/1038/132
f 665/1028/132 666/1027/132 668/1039/237 667/1040/237
f 667/1040/237 668/1039/237 670/1034/133 669/1033/133
f 660/1041/131 658/1042/131 672/1043/131 670/1044/131 668/1045/131 666/1046/131 664/1047/131 662/1048/131
f 669/1038/133 670/1037/133 672/1049/238 671/1050/238
f 671/1050/238 672/1049/238 658/1051/130 657/1052/130
f 657/1053/129 659/1054/129 661/1045/129 663/1044/129 665/1055/129 667/1056/129 669/1057/129 671/1058/129
f 673/1027/130 674/1028/130 676/1029/235 675/1030/235
f 675/1030/235 676/1029/235 678/1031/134 677/1032/134
f 677/1033/134 678/1034/134 680/1035/236 679/1036/236
f 679/1036/236 680/1035/236 682/1037/132 681/1038/132
f 681/1028/132 682/1027/132 684/1039/237 683/1040/237
f 683/1040/237 684/1039/237 686/1034/133 685/1033/133
f 676/1041/131 674/1042/131 688/1043/131 686/1044/131 684/1045/131 682/1046/131 680/1047/131 678/1048/131
f 685/1038/133 686/1037/133 688/1049/238 687/1050/238
f 687/1050/238 688/1049/238 674/1051/130 673/1052/130
f 673/1053/129 675/1054/129 677/1045/129 679/1044/129 681/1055/129 683/1056/129 685/1057/129 687/1058/129
o mattress_2
v -0.646117 1.320000 1.225000
v -0.648750 1.340000 1.245000
v -0.647433 1.322680 1.235000
v -0.648397 1.330000 1.242321
v -0.728750 1.320000 1.142367
v -0.748750 1.340000 1.145000
v -0.738750 1.322680 1.143683
v -0.746071 1.330000 1.144647
v -0.688397 1.320000 1.213671
v -0.698750 1.340000 1.231602
v -0.693574 1.322680 1.222637
v -0.697363 1.330000 1.229200
v -0.717421 1.320000 1.184647
v -0.735353 1.340000 1.195000
v -0.726387 1.322680 1.189824
v -0.732950 1.330000 1.193613
v -0.728750 1.440000 1.142367
v -0.748750 1.420000 1.145000
v -0.738750 1.437321 1.143683
v -0.746071 1.430000 1.144647
v -0.646117 1.440000 1.225000
v -0.648750 1.420000 1.245000
v -0.647433 1.437321 1.235000
v -0.648397 1.430000 1.242321
v -0.717421 1.440000 1.184647
v -0.735353 1.420000 1.195000
v -0.726387 1.437321 1.189824
v -0.732950 1.430000 1.193613
v -0.688397 1.440000 1.213671
v -0.698750 1.420000 1.231602
v -0.693574 1.437321 1.222637
v -0.697363 1.430000 1.229200
v -0.728750 1.320000 -1.142367
v -0.748750 1.340000 -1.145000
v -0.738750 1.322680 -1.143683
v -0.746071 1.330000 -1.144647
v -0.646117 1.320000 -1.225000
v -0.648750 1.340000 -1.245000
v -0.647433 1.322680 -1.235000
v -0.648397 1.330000 -1.242321
v -0.717421 1.320000 -1.184647
v -0.735353 1.340000 -1.195000
v -0.726387 1.322680 -1.189824
v -0.732950 1.330000 -1.193613
v -0.688397 1.320000 -1.213671
v -0.698750 1.340000 -1.231602
v -0.693574 1.322680 -1.222637
v -0.697363 1.330000 -1.229200
v -0.646117 1.440000 -1.225000
v -0.648750 1.420000 -1.245000
v -0.647433 1.437321 -1.235000
v -0.648397 1.430000 -1.242321
v -0.728750 1.440000 -1.142367
v -0.748750 1.420000 -1.145000
v -0.738750 1.437321 -1.143683
v -0.746071 1.430000 -1.144647
v -0.688397 1.440000 -1.213671
v -0.698750 1.420000 -1.231602
v -0.693574 1.437321 -1.222637
v -0.697363 1.430000 -1.229200
v -0.717421 1.440000 -1.184647
v -0.735353 1.420000 -1.195000
v -0.726387 1.437321 -1.189824
v -0.732950 1.430000 -1.193613
v 0.728750 1.320000 1.142367
v 0.748750 1.340000 1.145000
v 0.738750 1.322680 1.143683
v 0.746071 1.330000 1.144647
v 0.646117 1.320000 1.225000
v 0.648750 1.340000 1.245000
v 0.647433 1.322680 1.235000
v 0.648397 1.330000 1.242321
v 0.717421 1.320000 1.184647
v 0.735353 1.340000 1.195000
v 0.726387 1.322680 1.189824
v 0.732950 1.330000 1.193613
v 0.688397 1.320000 1.213671
v 0.698750 1.340000 1.231602
v 0.693574 1.322680 1.222637
v 0.697363 1.330000 1.229200
v 0.646117 1.440000 1.225000
v 0.648750 1.420000 1.245000
v 0.647433 1.437321 1.235000
v 0.648397 1.430000 1.242321
v 0.728750 1.440000 1.142367
v 0.748750 1.420000 1.145000
v 0.738750 1.437321 1.143683
v 0.746071 1.430000 1.144647
v 0.688397 1.440000 1.213671
v 0.698750 1.420000 1.231602
v 0.693574 1.437321 1.222637
v 0.697363 1.430000 1.229200
v 0.717421 1.440000 1.184647
v 0.735353 1.420000 1.195000
v 0.726387 1.437321 1.189824
v 0.732950 1.430000 1.193613
v 0.646117 1.320000 -1.225000
v 0.648750 1.340000 -1.245000
v 0.647433 1.322680 -1.235000
v 0.648397 1.330000 -1.242321
v 0.728750 1.320000 -1.142367
v 0.748750 1.340000 -1.145000
v 0.738750 1.322680 -1.143683
v 0.746071 1.330000 -1.144647
v 0.688397 1.320000 -1.213671
v 0.698750 1.340000 -1.231602
v 0.693574 1.322680 -1.222637
v 0.697363 1.330000 -1.229200
v 0.717421 1.320000 -1.184647
v 0.735353 1.340000 -1.195000
v 0.726387 1.322680 -1.189824
v 0.732950 1.330000 -1.193613
v 0.728750 1.440000 -1.142367
v 0.748750 1.420000 -1.145000
v 0.738750 1.437321 -1.143683
v 0.746071 1.430000 -1.144647
v 0.646117 1.440000 -1.225000
v 0.648750 1.420000 -1.245000
v 0.647433 1.437321 -1.235000
v 0.648397 1.430000 -1.242321
v 0.717421 1.440000 -1.184647
v 0.735353 1.420000 -1.195000
v 0.726387 1.437321 -1.189824
v 0.732950 1.430000 -1.193613
v 0.688397 1.440000 -1.213671
v 0.698750 1.420000 -1.231602
v 0.693574 1.437321 -1.222637
v 0.697363 1.430000 -1.229200
vn -0.0183 -0.9901 0.1388
vn -0.1294 -0.1302 0.9830
vn -0.0670 -0.8584 0.5086
vn -0.1135 -0.4936 0.8622
vn -0.1388 -0.9901 0.0183
vn -0.9830 -0.1302 0.1294
vn -0.5086 -0.8584 0.0670
vn -0.8622 -0.4936 0.1135
vn -0.0734 -0.9892 0.1272
vn -0.4956 -0.1320 0.8584
vn -0.2598 -0.8544 0.4500
vn -0.4350 -0.4931 0.7534
vn -0.1272 -0.9892 0.0734
vn -0.8584 -0.1320 0.4956
vn -0.4500 -0.8544 0.2598
vn -0.7534 -0.4931 0.4350
vn -0.1388 0.9901 0.0183
vn -0.9830 0.1302 0.1294
vn -0.5086 0.8584 0.0670
vn -0.8622 0.4936 0.1135
vn -0.0183 0.9901 0.1388
vn -0.1294 0.1302 0.9830
vn -0.0670 0.8584 0.5086
vn -0.1135 0.4936 0.8622
vn -0.1272 0.9892 0.0734
vn -0.8584 0.1320 0.4956
vn -0.4500 0.8544 0.2598
vn -0.7534 0.4931 0.4350
vn -0.0734 0.9892 0.1272
vn -0.4956 0.1320 0.8584
vn -0.2598 0.8544 0.4500
vn -0.4350 0.4931 0.7534
vn -0.1388 -0.9901 -0.0183
vn -0.9830 -0.1302 -0.1294
vn -0.5086 -0.8584 -0.0670
vn -0.8622 -0.4936 -0.1135
vn -0.0183 -0.9901 -0.1388
vn -0.1294 -0.1302 -0.9830
vn -0.0670 -0.8584 -0.5086
vn -0.1135 -0.4936 -0.8622
vn -0.1272 -0.9892 -0.0734
vn -0.8584 -0.1320 -0.4956
vn -0.4500 -0.8544 -0.2598
vn -0.7534 -0.4931 -0.4350
vn -0.0734 -0.9892 -0.1272
vn -0.4956 -0.1320 -0.8584
vn -0.2598 -0.8544 -0.4500
vn -0.4350 -0.4931 -0.7534
vn -0.0183 0.9901 -0.1388
vn -0.1294 0.1302 -0.9830
vn -0.0670 0.8584 -0.5086
vn -0.1135 0.4936 -0.8622
vn -0.1388 0.9901 -0.0183
vn -0.9830 0.1302 -0.1294
vn -0.5086 0.8584 -0.0670
vn -0.8622 0.4936 -0.1135
vn -0.0734 0.9892 -0.1272
vn -0.4956 0.1320 -0.8584
vn -0.2598 0.8544 -0.4500
vn -0.4350 0.4931 -0.7534
vn -0.1272 0.9892 -0.0734
vn -0.8584 0.1320 -0.4956
vn -0.4500 0.8544 -0.2598
vn -0.7534 0.4931 -0.4350
vn 0.1388 -0.9901 0.0183
vn 0.9830 -0.1302 0.1294
vn 0.5086 -0.8584 0.0670
vn 0.8622 -0.4936 0.1135
vn 0.0183 -0.9901 0.1388
vn 0.1294 -0.1302 0.9830
vn 0.0670 -0.8584 0.5086
vn 0.1135 -0.4936 0.8622
vn 0.1272 -0.9892 0.0734
vn 0.8584 -0.1320 0.4956
vn 0.4500 -0.8544 0.2598
vn 0.7534 -0.4931 0.4350
vn 0.0734 -0.9892 0.1272
vn 0.4956 -0.1320 0.8584
vn 0.2598 -0.8544 0.4500
vn 0.4350 -0.4931 0.7534
vn 0.0183 0.9901 0.1388
vn 0.1294 0.1302 0.9830
vn 0.0670 0.8584 0.5086
vn 0.1135 0.4936 0.8622
vn 0.1388 0.9901 0.0183
vn 0.9830 0.1302 0.1294
vn 0.5086 0.8584 0.0670
vn 0.8622 0.4936 0.1135
vn 0.0734 0.9892 0.1272
vn 0.4956 0.1320 0.8584
vn 0.2598 0.8544 0.4500
vn 0.4350 0.4931 0.7534
vn 0.1272 0.9892 0.0734
vn 0.8584 0.1320 0.4956
vn 0.4500 0.8544 0.2598
vn 0.7534 0.4931 0.4350
vn 0.0183 -0.9901 -0.1388
vn 0.1294 -0.1302 -0.9830
vn 0.0670 -0.8584 -0.5086
vn 0.1135 -0.4936 -0.8622
vn 0.1388 -0.9901 -0.0183
vn 0.9830 -0.1302 -0.1294
vn 0.5086 -0.8584 -0.0670
vn 0.8622 -0.4936 -0.1135
vn 0.0734 -0.9892 -0.1272
vn 0.4956 -0.1320 -0.8584
vn 0.2598 -0.8544 -0.4500
vn 0.4350 -0.4931 -0.7534
vn 0.1272 -0.9892 -0.0734
vn 0.8584 -0.1320 -0.4956
vn 0.4500 -0.8544 -0.2598
vn 0.7534 -0.4931 -0.4350
vn 0.1388 0.9901 -0.0183
vn 0.9830 0.1302 -0.1294
vn 0.5086 0.8584 -0.0670
vn 0.8622 0.4936 -0.1135
vn 0.0183 0.9901 -0.1388
vn 0.1294 0.1302 -0.9830
vn 0.0670 0.8584 -0.5086
vn 0.1135 0.4936 -0.8622
vn 0.1272 0.9892 -0.0734
vn 0.8584 0.1320 -0.4956
vn 0.4500 0.8544 -0.2598
vn 0.7534 0.4931 -0.4350
vn 0.0734 0.9892 -0.1272
vn 0.4956 0.1320 -0.8584
vn 0.2598 0.8544 -0.4500
vn 0.4350 0.4931 -0.7534
vt 0.456756 0.618356
vt 0.450264 0.616616
vt 0.450466 0.615080
vt 0.457551 0.616979
vt 0.450614 0.613956
vt 0.458132 0.615971
vt 0.499673 0.991406
vt 0.499673 0.983662
vt 0.501209 0.983649
vt 0.501209 0.991557
vt 0.020114 0.617870
vt 0.013622 0.619610
vt 0.012827 0.618233
vt 0.019912 0.616335
vt 0.012245 0.617225
vt 0.019764 0.615211
vt 0.515028 0.983662
vt 0.515028 0.991406
vt 0.513492 0.991557
vt 0.513492 0.983649
vt 0.461212 0.622812
vt 0.462589 0.622017
vt 0.463597 0.621435
vt 0.499673 0.997675
vt 0.501209 0.998005
vt 0.009166 0.624066
vt 0.007789 0.623271
vt 0.006781 0.622689
vt 0.515028 0.997675
vt 0.513492 0.998005
vt 0.462952 0.629304
vt 0.464487 0.629102
vt 0.465611 0.628954
vt 0.467558 0.638843
vt 0.467558 0.631324
vt 0.469094 0.631111
vt 0.469094 0.638788
vt 0.007426 0.630558
vt 0.005891 0.630356
vt 0.004767 0.630208
vt 0.482913 0.631324
vt 0.482913 0.638843
vt 0.481377 0.638788
vt 0.481377 0.631111
vt 0.013622 0.992317
vt 0.020114 0.994057
vt 0.019912 0.995592
vt 0.012827 0.993694
vt 0.019764 0.996716
vt 0.012245 0.994702
vt 0.530382 0.778018
vt 0.530382 0.785536
vt 0.528847 0.785482
vt 0.528847 0.777805
vt 0.450264 0.992803
vt 0.456756 0.991063
vt 0.457551 0.992440
vt 0.450466 0.994338
vt 0.458132 0.993447
vt 0.450614 0.995462
vt 0.515028 0.785536
vt 0.515028 0.778018
vt 0.516563 0.777805
vt 0.516563 0.785482
vt 0.009166 0.987861
vt 0.007789 0.988656
vt 0.006781 0.989237
vt 0.530382 0.772554
vt 0.528847 0.772185
vt 0.461212 0.986606
vt 0.462589 0.987401
vt 0.463597 0.987983
vt 0.515028 0.772554
vt 0.516563 0.772185
vt 0.007426 0.981369
vt 0.005891 0.981571
vt 0.004767 0.981719
vt 0.482913 0.990354
vt 0.482913 0.997872
vt 0.481377 0.998085
vt 0.481377 0.990408
vt 0.462952 0.980115
vt 0.464487 0.980317
vt 0.465611 0.980465
vt 0.467558 0.997872
vt 0.467558 0.990354
vt 0.469094 0.990408
vt 0.469094 0.998085
vt 0.229479 0.987861
vt 0.231219 0.981369
vt 0.232754 0.981571
vt 0.230856 0.988656
vt 0.233878 0.981719
vt 0.231864 0.989237
vt 0.482913 0.997816
vt 0.482913 0.990717
vt 0.484448 0.990837
vt 0.484448 0.998085
vt 0.239159 0.980115
vt 0.240899 0.986606
vt 0.239522 0.987401
vt 0.237624 0.980317
vt 0.238514 0.987983
vt 0.236500 0.980465
vt 0.498267 0.990717
vt 0.498267 0.997816
vt 0.496732 0.998085
vt 0.496732 0.990837
vt 0.225023 0.992317
vt 0.225817 0.993694
vt 0.226399 0.994702
vt 0.530382 0.992172
vt 0.530382 0.997636
vt 0.528847 0.998005
vt 0.528847 0.992385
vt 0.245355 0.991063
vt 0.244560 0.992440
vt 0.243979 0.993447
vt 0.515028 0.997636
vt 0.515028 0.992172
vt 0.516563 0.992385
vt 0.516563 0.998005
vt 0.218531 0.994057
vt 0.218733 0.995592
vt 0.218881 0.996716
vt 0.530382 0.984654
vt 0.528847 0.984708
vt 0.251847 0.992803
vt 0.251645 0.994338
vt 0.251497 0.995462
vt 0.515028 0.984654
vt 0.516563 0.984708
vt 0.225023 0.619610
vt 0.218531 0.617870
vt 0.218733 0.616335
vt 0.225817 0.618233
vt 0.218881 0.615211
vt 0.226399 0.617225
vt 0.515028 0.780019
vt 0.515028 0.787117
vt 0.513492 0.786998
vt 0.513492 0.779749
vt 0.251847 0.616616
vt 0.245355 0.618356
vt 0.244560 0.616979
vt 0.251645 0.615080
vt 0.243979 0.615971
vt 0.251497 0.613956
vt 0.499673 0.787117
vt 0.499673 0.780019
vt 0.501209 0.779749
vt 0.501209 0.786998
vt 0.229479 0.624066
vt 0.230856 0.623271
vt 0.231864 0.622689
vt 0.482913 0.636003
vt 0.482913 0.629734
vt 0.484448 0.629404
vt 0.484448 0.635852
vt 0.240899 0.622812
vt 0.239522 0.622017
vt 0.238514 0.621435
vt 0.498267 0.629734
vt 0.498267 0.636003
vt 0.496732 0.635852
vt 0.496732 0.629404
vt 0.231219 0.630558
vt 0.232754 0.630356
vt 0.233878 0.630208
vt 0.482913 0.643747
vt 0.484448 0.643759
vt 0.239159 0.629304
vt 0.237624 0.629102
vt 0.236500 0.628954
vt 0.498267 0.643747
vt 0.496732 0.643759
s 1
usemtl bed
f 697/1059/247 689/1060/239 691/1061/241 699/1062/249
f 699/1062/249 691/1061/241 692/1063/242 700/1064/250
f 700/1065/250 692/1066/242 690/1067/240 698/1068/248
f 709/1069/259 717/1070/267 719/1071/269 711/1072/261
f 711/1072/261 719/1071/269 720/1073/270 712/1074/262
f 712/1075/262 720/1076/270 718/1077/268 710/1078/260
f 701/1079/251 697/1059/247 699/1062/249 703/1080/253
f 703/1080/253 699/1062/249 700/1064/250 704/1081/254
f 704/1082/254 700/1065/250 698/1068/248 702/1083/252
f 717/1070/267 713/1084/263 715/1085/265 719/1071/269
f 719/1071/269 715/1085/265 716/1086/266 720/1073/270
f 720/1076/270 716/1087/266 714/1088/264 718/1077/268
f 693/1089/243 701/1079/251 703/1080/253 695/1090/245
f 695/1090/245 703/1080/253 704/1081/254 696/1091/246
f 696/1092/246 704/1093/254 702/1094/252 694/1095/244
f 713/1084/263 705/1096/255 707/1097/257 715/1085/265
f 715/1085/265 707/1097/257 708/1098/258 716/1086/266
f 716/1099/266 708/1100/258 706/1101/256 714/1102/264
f 745/1103/295 737/1104/287 739/1105/289 747/1106/297
f 747/1106/297 739/1105/289 740/1107/290 748/1108/298
f 748/1109/298 740/1110/290 738/1111/288 746/1112/296
f 725/1113/275 733/1114/283 735/1115/285 727/1116/277
f 727/1116/277 735/1115/285 736/1117/286 728/1118/278
f 728/1119/278 736/1120/286 734/1121/284 726/1122/276
f 749/1123/299 745/1103/295 747/1106/297 751/1124/301
f 751/1124/301 747/1106/297 748/1108/298 752/1125/302
f 752/1126/302 748/1109/298 746/1112/296 750/1127/300
f 733/1114/283 729/1128/279 731/1129/281 735/1115/285
f 735/1115/285 731/1129/281 732/1130/282 736/1117/286
f 736/1120/286 732/1131/282 730/1132/280 734/1121/284
f 741/1133/291 749/1123/299 751/1124/301 743/1134/293
f 743/1134/293 751/1124/301 752/1125/302 744/1135/294
f 744/1136/294 752/1137/302 750/1138/300 742/1139/292
f 729/1128/279 721/1140/271 723/1141/273 731/1129/281
f 731/1129/281 723/1141/273 724/1142/274 732/1130/282
f 732/1143/282 724/1144/274 722/1145/272 730/1146/280
f 809/1147/359 801/1148/351 803/1149/353 811/1150/361
f 811/1150/361 803/1149/353 804/1151/354 812/1152/362
f 812/1153/362 804/1154/354 802/1155/352 810/1156/360
f 789/1157/339 797/1158/347 799/1159/349 791/1160/341
f 791/1160/341 799/1159/349 800/1161/350 792/1162/342
f 792/1163/342 800/1164/350 798/1165/348 790/1166/340
f 813/1167/363 809/1147/359 811/1150/361 815/1168/365
f 815/1168/365 811/1150/361 812/1152/362 816/1169/366
f 816/1170/366 812/1171/362 810/1172/360 814/1173/364
f 797/1158/347 793/1174/343 795/1175/345 799/1159/349
f 799/1159/349 795/1175/345 796/1176/346 800/1161/350
f 800/1177/350 796/1178/346 794/1179/344 798/1180/348
f 805/1181/355 813/1167/363 815/1168/365 807/1182/357
f 807/1182/357 815/1168/365 816/1169/366 808/1183/358
f 808/1184/358 816/1170/366 814/1173/364 806/1185/356
f 793/1174/343 785/1186/335 787/1187/337 795/1175/345
f 795/1175/345 787/1187/337 788/1188/338 796/1176/346
f 796/1178/346 788/1189/338 786/1190/336 794/1179/344
f 777/1191/327 769/1192/319 771/1193/321 779/1194/329
f 779/1194/329 771/1193/321 772/1195/322 780/1196/330
f 780/1197/330 772/1198/322 770/1199/320 778/1200/328
f 757/1201/307 765/1202/315 767/1203/317 759/1204/309
f 759/1204/309 767/1203/317 768/1205/318 760/1206/310
f 760/1207/310 768/1208/318 766/1209/316 758/1210/308
f 781/1211/331 777/1191/327 779/1194/329 783/1212/333
f 783/1212/333 779/1194/329 780/1196/330 784/1213/334
f 784/1214/334 780/1215/330 778/1216/328 782/1217/332
f 765/1202/315 761/1218/311 763/1219/313 767/1203/317
f 767/1203/317 763/1219/313 764/1220/314 768/1205/318
f 768/1221/318 764/1222/314 762/1223/312 766/1224/316
f 773/1225/323 781/1211/331 783/1212/333 775/1226/325
f 775/1226/325 783/1212/333 784/1213/334 776/1227/326
f 776/1228/326 784/1214/334 782/1217/332 774/1229/324
f 761/1218/311 753/1230/303 755/1231/305 763/1219/313
f 763/1219/313 755/1231/305 756/1232/306 764/1220/314
f 764/1222/314 756/1233/306 754/1234/304 762/1223/312
f 694/1095/244 722/1145/272 724/1144/274 696/1092/246
f 696/1091/246 724/1142/274 723/1141/273 695/1090/245
f 695/1090/245 723/1141/273 721/1140/271 693/1089/243
f 726/1122/276 786/1190/336 788/1189/338 728/1119/278
f 728/1118/278 788/1188/338 787/1187/337 727/1116/277
f 727/1116/277 787/1187/337 785/1186/335 725/1113/275
f 790/1166/340 754/1234/304 756/1233/306 792/1163/342
f 792/1162/342 756/1232/306 755/1231/305 791/1160/341
f 791/1160/341 755/1231/305 753/1230/303 789/1157/339
f 758/1210/308 690/1067/240 692/1066/242 760/1207/310
f 760/1206/310 692/1063/242 691/1061/241 759/1204/309
f 759/1204/309 691/1061/241 689/1060/239 757/1201/307
f 705/1096/255 741/1133/291 743/1134/293 707/1097/257
f 707/1097/257 743/1134/293 744/1135/294 708/1098/258
f 708/1100/258 744/1136/294 742/1139/292 706/1101/256
f 769/1192/319 709/1069/259 711/1072/261 771/1193/321
f 771/1193/321 711/1072/261 712/1074/262 772/1195/322
f 772/1198/322 712/1075/262 710/1078/260 770/1199/320
f 774/1229/324 802/1155/352 804/1154/354 776/1228/326
f 776/1227/326 804/1151/354 803/1149/353 775/1226/325
f 775/1226/325 803/1149/353 801/1148/351 773/1225/323
f 806/1185/356 738/1111/288 740/1110/290 808/1184/358
f 808/1183/358 740/1107/290 739/1105/289 807/1182/357
f 807/1182/357 739/1105/289 737/1104/287 805/1181/355
f 721/1140/271 729/1128/279 733/1114/283 725/1113/275 785/1186/335 793/1174/343 797/1158/347 789/1157/339 753/1230/303 761/1218/311 765/1202/315 757/1201/307 689/1060/239 697/1059/247 701/1079/251 693/1089/243
f 690/1067/240 710/1078/260 718/1077/268 698/1068/248
f 758/1210/308 770/1199/320 710/1078/260 690/1067/240
f 702/1094/252 714/1102/264 706/1101/256 694/1095/244
f 694/1095/244 706/1101/256 742/1139/292 722/1145/272
f 698/1068/248 718/1077/268 714/1088/264 702/1083/252
f 801/1148/351 809/1147/359 813/1167/363 805/1181/355 737/1104/287 745/1103/295 749/1123/299 741/1133/291 705/1096/255 713/1084/263 717/1070/267 709/1069/259 769/1192/319 777/1191/327 781/1211/331 773/1225/323
f 750/1138/300 730/1146/280 722/1145/272 742/1139/292
f 726/1122/276 738/1111/288 806/1185/356 786/1190/336
f 738/1111/288 726/1122/276 734/1121/284 746/1112/296
f 746/1112/296 734/1121/284 730/1132/280 750/1127/300
f 782/1217/332 762/1223/312 754/1234/304 774/1229/324
f 790/1166/340 802/1155/352 774/1229/324 754/1234/304
f 770/1199/320 758/1210/308 766/1209/316 778/1200/328
f 778/1216/328 766/1224/316 762/1223/312 782/1217/332
f 814/1173/364 794/1179/344 786/1190/336 806/1185/356
f 802/1155/352 790/1166/340 798/1165/348 810/1156/360
f 810/1172/360 798/1180/348 794/1179/344 814/1173/364
