# Blender 5.0.0
# www.blender.org
mtllib fuse_box.mtl
o fuse_box
v -0.065000 0.015000 0.110262
v -0.055000 0.000000 0.112500
v -0.062071 0.004393 0.111845
v -0.065000 0.052984 0.138750
v -0.055000 0.050000 0.150000
v -0.062071 0.050874 0.146705
v -0.065000 0.026125 0.130406
v -0.055000 0.014645 0.139017
v -0.062071 0.018007 0.136495
v -0.065000 0.447016 0.138750
v -0.055000 0.450000 0.150000
v -0.062071 0.449126 0.146705
v -0.065000 0.485000 0.110262
v -0.055000 0.500000 0.112500
v -0.062071 0.495607 0.111845
v -0.065000 0.473875 0.130406
v -0.055000 0.485355 0.139017
v -0.062071 0.481993 0.136495
v -0.065000 0.052984 -0.138750
v -0.055000 0.050000 -0.150000
v -0.062071 0.050874 -0.146705
v -0.065000 0.015000 -0.110262
v -0.055000 0.000000 -0.112500
v -0.062071 0.004393 -0.111845
v -0.065000 0.026125 -0.130406
v -0.055000 0.014645 -0.139017
v -0.062071 0.018007 -0.136495
v -0.065000 0.485000 -0.110262
v -0.055000 0.500000 -0.112500
v -0.062071 0.495607 -0.111845
v -0.065000 0.447016 -0.138750
v -0.055000 0.450000 -0.150000
v -0.062071 0.449126 -0.146705
v -0.065000 0.473875 -0.130406
v -0.055000 0.485355 -0.139017
v -0.062071 0.481993 -0.136495
v 0.065000 0.024925 0.107704
v 0.055000 0.000000 0.112500
v 0.062071 0.004393 0.111845
v 0.065000 0.054490 0.128825
v 0.055000 0.050000 0.150000
v 0.062071 0.050874 0.146705
v 0.065000 0.032883 0.122113
v 0.055000 0.014645 0.139017
v 0.062071 0.018007 0.136495
v 0.065000 0.445510 0.128825
v 0.055000 0.450000 0.150000
v 0.062071 0.449126 0.146705
v 0.065000 0.475075 0.107704
v 0.055000 0.500000 0.112500
v 0.062071 0.495607 0.111845
v 0.065000 0.467117 0.122113
v 0.055000 0.485355 0.139017
v 0.062071 0.481993 0.136495
v 0.065000 0.054490 -0.128825
v 0.055000 0.050000 -0.150000
v 0.062071 0.050874 -0.146705
v 0.065000 0.024925 -0.107704
v 0.055000 0.000000 -0.112500
v 0.062071 0.004393 -0.111845
v 0.065000 0.032883 -0.122113
v 0.055000 0.014645 -0.139017
v 0.062071 0.018007 -0.136495
v 0.065000 0.475075 -0.107704
v 0.055000 0.500000 -0.112500
v 0.062071 0.495607 -0.111845
v 0.065000 0.445510 -0.128825
v 0.055000 0.450000 -0.150000
v 0.062071 0.449126 -0.146705
v 0.065000 0.467117 -0.122113
v 0.055000 0.485355 -0.139017
v 0.062071 0.481993 -0.136495
v 0.065000 0.015000 -0.110262
v 0.065000 0.026125 -0.130406
v 0.065000 0.052984 -0.138750
v 0.065000 0.473875 -0.130406
v 0.065000 0.485000 -0.110262
v 0.065000 0.447016 -0.138750
v 0.065000 0.026125 0.130406
v 0.065000 0.015000 0.110262
v 0.065000 0.052984 0.138750
v 0.065000 0.485000 0.110262
v 0.065000 0.473875 0.130406
v 0.065000 0.447016 0.138750
v 0.049912 0.024925 -0.107704
v 0.049912 0.032883 -0.122113
v 0.049912 0.054490 -0.128825
v 0.049912 0.467117 -0.122113
v 0.049912 0.475075 -0.107704
v 0.049912 0.445510 -0.128825
v 0.049912 0.032883 0.122113
v 0.049912 0.024925 0.107704
v 0.049912 0.054490 0.128825
v 0.049912 0.475075 0.107704
v 0.049912 0.467117 0.122113
v 0.049912 0.445510 0.128825
vn -0.9879 -0.1492 -0.0418
vn -0.9833 -0.1028 -0.1503
vn -0.7426 -0.4121 -0.5279
vn -0.7747 -0.6115 -0.1612
vn -0.2456 -0.6205 -0.7448
vn -0.2648 -0.9346 -0.2375
vn -0.9823 -0.0260 -0.1853
vn -0.7249 -0.1024 -0.6812
vn -0.2172 -0.1484 -0.9648
vn -0.9833 0.1028 -0.1503
vn -0.9879 0.1492 -0.0418
vn -0.7747 0.6115 -0.1612
vn -0.7426 0.4121 -0.5279
vn -0.2648 0.9346 -0.2375
vn -0.2456 0.6205 -0.7448
vn -0.9823 0.0260 -0.1853
vn -0.7249 0.1024 -0.6812
vn -0.2172 0.1484 -0.9648
vn -0.9833 -0.1028 0.1503
vn -0.9879 -0.1492 0.0418
vn -0.7747 -0.6115 0.1612
vn -0.7426 -0.4121 0.5279
vn -0.2648 -0.9346 0.2375
vn -0.2456 -0.6205 0.7448
vn -0.9823 -0.0260 0.1853
vn -0.7249 -0.1024 0.6812
vn -0.2172 -0.1484 0.9648
vn -0.9879 0.1492 0.0418
vn -0.9833 0.1028 0.1503
vn -0.7426 0.4121 0.5279
vn -0.7747 0.6115 0.1612
vn -0.2456 0.6205 0.7448
vn -0.2648 0.9346 0.2375
vn -0.9823 0.0260 0.1853
vn -0.7249 0.1024 0.6812
vn -0.2172 0.1484 0.9648
vn 0.2456 -0.6205 0.7448
vn 0.2172 -0.1484 0.9648
vn 0.2172 0.1484 0.9648
vn 0.2456 0.6205 0.7448
vn 0.2648 0.9346 0.2375
vn 0.2648 0.9346 -0.2375
vn 0.2172 -0.1484 -0.9648
vn 0.2172 0.1484 -0.9648
vn 0.2456 0.6205 -0.7448
vn 0.2456 -0.6205 -0.7448
vn 0.2648 -0.9346 -0.2375
vn 0.2648 -0.9346 0.2375
vn 0.9879 -0.1492 -0.0418
vn 0.7747 -0.6115 -0.1612
vn 0.7426 -0.4121 -0.5279
vn 0.9833 -0.1028 -0.1503
vn 0.7249 -0.1024 -0.6812
vn 0.9823 -0.0260 -0.1853
vn 0.9833 0.1028 -0.1503
vn 0.7426 0.4121 -0.5279
vn 0.7747 0.6115 -0.1612
vn 0.9879 0.1492 -0.0418
vn 0.9823 0.0260 -0.1853
vn 0.7249 0.1024 -0.6812
vn 0.9833 -0.1028 0.1503
vn 0.7426 -0.4121 0.5279
vn 0.7747 -0.6115 0.1612
vn 0.9879 -0.1492 0.0418
vn 0.9823 -0.0260 0.1853
vn 0.7249 -0.1024 0.6812
vn 0.9879 0.1492 0.0418
vn 0.7747 0.6115 0.1612
vn 0.7426 0.4121 0.5279
vn 0.9833 0.1028 0.1503
vn 0.7249 0.1024 0.6812
vn 0.9823 0.0260 0.1853
vn -0.0000 0.9683 0.2496
vn -0.0000 0.6317 0.7752
vn 1.0000 -0.0000 -0.0000
vn -0.0000 -0.6317 -0.7752
vn -0.0000 -0.1500 -0.9887
vn -0.0000 0.6317 -0.7752
vn -0.0000 0.9683 -0.2496
vn -0.0000 0.1500 0.9887
vn -0.0000 -0.1500 0.9887
vn -0.0000 0.1500 -0.9887
vn -0.0000 -0.6317 0.7752
vn -0.0000 -0.9683 0.2496
vn -0.0000 -0.9683 -0.2496
vt 0.400379 0.282225
vt 0.405068 0.287883
vt 0.401646 0.289594
vt 0.395908 0.282670
vt 0.599253 0.848390
vt 0.599253 0.862580
vt 0.596540 0.864032
vt 0.596540 0.848767
vt 0.416389 0.290227
vt 0.415500 0.292461
vt 0.612870 0.859526
vt 0.612870 0.840605
vt 0.615583 0.841108
vt 0.615583 0.861461
vt 0.593794 0.287883
vt 0.598484 0.282225
vt 0.602954 0.282670
vt 0.597216 0.289594
vt 0.612873 0.589154
vt 0.612873 0.574964
vt 0.615586 0.575341
vt 0.615586 0.590547
vt 0.582474 0.290227
vt 0.583363 0.292462
vt 0.612870 0.611344
vt 0.612870 0.592424
vt 0.615583 0.590547
vt 0.615583 0.610841
vt 0.405068 0.214624
vt 0.400379 0.220282
vt 0.395908 0.219837
vt 0.401646 0.212914
vt 0.599253 0.705429
vt 0.599253 0.719619
vt 0.596540 0.719242
vt 0.596540 0.703977
vt 0.416389 0.212280
vt 0.415500 0.210046
vt 0.612867 0.180283
vt 0.612867 0.161362
vt 0.615579 0.159427
vt 0.615579 0.179779
vt 0.598484 0.220282
vt 0.593794 0.214624
vt 0.597216 0.212914
vt 0.602954 0.219837
vt 0.612873 0.446194
vt 0.612873 0.432003
vt 0.615586 0.430486
vt 0.615586 0.445816
vt 0.582474 0.212280
vt 0.583363 0.210046
vt 0.612867 0.428464
vt 0.612867 0.409543
vt 0.615579 0.410047
vt 0.615579 0.430486
vt 0.657779 0.159427
vt 0.657779 0.179779
vt 0.657779 0.410047
vt 0.657779 0.430486
vt 0.657785 0.445816
vt 0.657785 0.575341
vt 0.657785 0.430486
vt 0.657782 0.841108
vt 0.657782 0.610841
vt 0.657785 0.590547
vt 0.554341 0.864032
vt 0.554341 0.848767
vt 0.657782 0.861461
vt 0.554341 0.719242
vt 0.554341 0.703977
vt 0.365531 0.856549
vt 0.365117 0.860713
vt 0.358669 0.855368
vt 0.360261 0.852182
vt 0.551628 0.848390
vt 0.551628 0.862580
vt 0.355998 0.842466
vt 0.358079 0.841638
vt 0.660495 0.859526
vt 0.660495 0.840605
vt 0.360261 0.676411
vt 0.358669 0.673225
vt 0.365117 0.667880
vt 0.365531 0.672044
vt 0.660497 0.589154
vt 0.657785 0.590606
vt 0.660497 0.574964
vt 0.358079 0.686955
vt 0.355998 0.686127
vt 0.660495 0.611344
vt 0.657782 0.590547
vt 0.660495 0.592424
vt 0.428492 0.852182
vt 0.430084 0.855368
vt 0.423636 0.860713
vt 0.423222 0.856549
vt 0.551628 0.705429
vt 0.551628 0.719619
vt 0.430674 0.841638
vt 0.432756 0.842466
vt 0.677677 0.396014
vt 0.680390 0.396517
vt 0.680390 0.416870
vt 0.677677 0.414934
vt 0.423222 0.672044
vt 0.423636 0.667880
vt 0.430084 0.673225
vt 0.428492 0.676411
vt 0.660497 0.446194
vt 0.657785 0.430551
vt 0.660497 0.432003
vt 0.432756 0.686127
vt 0.430674 0.686955
vt 0.677677 0.147833
vt 0.680390 0.145897
vt 0.680390 0.166250
vt 0.677677 0.166753
vt 0.610412 0.836275
vt 0.610412 0.844570
vt 0.604624 0.844570
vt 0.604624 0.836275
vt 0.362431 0.849529
vt 0.366200 0.852653
vt 0.360675 0.841047
vt 0.366200 0.675940
vt 0.362431 0.679064
vt 0.360675 0.687546
vt 0.422553 0.852653
vt 0.426322 0.849529
vt 0.428078 0.841047
vt 0.426322 0.679064
vt 0.422553 0.675940
vt 0.428078 0.687546
vt 0.056167 0.025961
vt 0.290588 0.025961
vt 0.306573 0.035433
vt 0.314019 0.061151
vt 0.314019 0.838029
vt 0.306573 0.863746
vt 0.290588 0.873218
vt 0.056167 0.873218
vt 0.040183 0.863746
vt 0.032736 0.838029
vt 0.032736 0.061151
vt 0.040183 0.035433
vt 0.669275 0.410763
vt 0.669275 0.398324
vt 0.675063 0.398324
vt 0.675063 0.410763
vt 0.610412 0.703977
vt 0.610412 0.712272
vt 0.604624 0.712272
vt 0.604624 0.703977
vt 0.669275 0.173227
vt 0.663487 0.398324
vt 0.663487 0.173227
vt 0.669275 0.160788
vt 0.663487 0.160788
vt 0.675063 0.160788
vt 0.675063 0.173227
vt 0.665869 0.571144
vt 0.665869 0.562849
vt 0.671657 0.562849
vt 0.671657 0.571144
vt 0.665869 0.438846
vt 0.665869 0.430551
vt 0.671657 0.430551
vt 0.671657 0.438846
vt 0.663487 0.410763
s 1
usemtl fuse_box
f 22/1/1 25/2/2 27/3/3 24/4/4
f 24/5/4 27/6/3 26/7/5 23/8/6
f 25/2/2 19/9/7 21/10/8 27/3/3
f 27/11/3 21/12/8 20/13/9 26/14/5
f 34/15/10 28/16/11 30/17/12 36/18/13
f 36/19/13 30/20/12 29/21/14 35/22/15
f 31/23/16 34/15/10 36/18/13 33/24/17
f 33/25/17 36/26/13 35/27/15 32/28/18
f 7/29/19 1/30/20 3/31/21 9/32/22
f 9/33/22 3/34/21 2/35/23 8/36/24
f 4/37/25 7/29/19 9/32/22 6/38/26
f 6/39/26 9/40/22 8/41/24 5/42/27
f 13/43/28 16/44/29 18/45/30 15/46/31
f 15/47/31 18/48/30 17/49/32 14/50/33
f 16/44/29 10/51/34 12/52/35 18/45/30
f 18/53/30 12/54/35 11/55/36 17/56/32
f 1/30/20 22/1/1 24/4/4 3/31/21
f 3/34/21 24/5/4 23/8/6 2/35/23
f 5/42/27 11/55/36 12/54/35 6/39/26
f 6/38/26 12/52/35 10/51/34 4/37/25
f 14/50/33 29/21/14 30/20/12 15/47/31
f 15/46/31 30/17/12 28/16/11 13/43/28
f 32/28/18 20/13/9 21/12/8 33/25/17
f 33/24/17 21/10/8 19/9/7 31/23/16
f 1/30/20 7/29/19 4/37/25 10/51/34 16/44/29 13/43/28 28/16/11 34/15/10 31/23/16 19/9/7 25/2/2 22/1/1
f 44/57/37 41/58/38 5/42/27 8/41/24
f 5/42/27 41/58/38 47/59/39 11/55/36
f 11/55/36 47/59/39 53/60/40 17/56/32
f 14/50/33 50/61/41 65/62/42 29/21/14
f 17/49/32 53/63/40 50/61/41 14/50/33
f 56/64/43 20/13/9 32/28/18 68/65/44
f 65/62/42 71/66/45 35/22/15 29/21/14
f 26/7/5 62/67/46 59/68/47 23/8/6
f 20/13/9 56/64/43 62/69/46 26/14/5
f 59/68/47 38/70/48 2/35/23 23/8/6
f 38/70/48 44/71/37 8/36/24 2/35/23
f 73/72/49 60/73/50 63/74/51 74/75/52
f 60/76/50 59/68/47 62/67/46 63/77/51
f 74/75/52 63/74/51 57/78/53 75/79/54
f 63/80/51 62/69/46 56/64/43 57/81/53
f 76/82/55 72/83/56 66/84/57 77/85/58
f 72/86/56 71/87/45 65/62/42 66/88/57
f 78/89/59 69/90/60 72/83/56 76/82/55
f 69/91/60 68/65/44 71/92/45 72/93/56
f 79/94/61 45/95/62 39/96/63 80/97/64
f 45/98/62 44/71/37 38/70/48 39/99/63
f 81/100/65 42/101/66 45/95/62 79/94/61
f 42/102/66 41/103/38 44/104/37 45/105/62
f 82/106/67 51/107/68 54/108/69 83/109/70
f 51/110/68 50/61/41 53/111/40 54/112/69
f 83/109/70 54/108/69 48/113/71 84/114/72
f 54/115/69 53/116/40 47/117/39 48/118/71
f 80/97/64 39/96/63 60/73/50 73/72/49
f 39/99/63 38/70/48 59/68/47 60/76/50
f 41/103/38 42/102/66 48/118/71 47/117/39
f 42/101/66 81/100/65 84/114/72 48/113/71
f 50/61/41 51/110/68 66/88/57 65/62/42
f 51/107/68 82/106/67 77/85/58 66/84/57
f 68/65/44 69/91/60 57/81/53 56/64/43
f 69/90/60 78/89/59 75/79/54 57/78/53
f 58/119/73 61/120/74 86/121/74 85/122/73
f 71/92/45 68/65/44 32/28/18 35/27/15
f 61/123/75 58/124/75 73/72/49 74/75/52
f 55/125/75 61/123/75 74/75/52 75/79/54
f 64/126/75 70/127/75 76/82/55 77/85/58
f 70/127/75 67/128/75 78/89/59 76/82/55
f 37/129/75 43/130/75 79/94/61 80/97/64
f 43/130/75 40/131/75 81/100/65 79/94/61
f 52/132/75 49/133/75 82/106/67 83/109/70
f 46/134/75 52/132/75 83/109/70 84/114/72
f 58/124/75 37/129/75 80/97/64 73/72/49
f 40/131/75 46/134/75 84/114/72 81/100/65
f 49/133/75 64/126/75 77/85/58 82/106/67
f 67/128/75 55/125/75 75/79/54 78/89/59
f 92/135/75 85/136/75 86/137/75 87/138/75 90/139/75 88/140/75 89/141/75 94/142/75 95/143/75 96/144/75 93/145/75 91/146/75
f 52/147/76 46/148/77 96/149/77 95/150/76
f 43/151/78 37/152/79 92/153/79 91/154/78
f 55/155/80 67/148/81 90/156/81 87/157/80
f 61/158/74 55/155/80 87/157/80 86/159/74
f 37/152/79 58/119/73 85/122/73 92/153/79
f 40/155/82 43/158/78 91/160/78 93/161/82
f 70/162/83 64/163/84 89/164/84 88/165/83
f 46/148/77 40/155/82 93/161/82 96/149/77
f 49/166/85 52/167/76 95/168/76 94/169/85
f 67/148/81 70/147/83 88/170/83 90/156/81
f 64/163/84 49/166/85 94/169/85 89/164/84
o fuse_box_door
v 0.072423 0.014645 -0.139017
v 0.075000 0.017604 -0.136797
v 0.074245 0.015511 -0.138367
v 0.075000 0.003866 -0.111923
v 0.072423 0.000000 -0.112500
v 0.074245 0.001132 -0.112331
v 0.072423 0.050000 -0.150000
v 0.075000 0.050769 -0.147100
v 0.074245 0.050225 -0.149151
v 0.072423 0.500000 -0.112500
v 0.075000 0.496134 -0.111923
v 0.074245 0.498868 -0.112331
v 0.075000 0.482396 -0.136797
v 0.072423 0.485355 -0.139017
v 0.074245 0.484489 -0.138367
v 0.075000 0.449231 -0.147100
v 0.072423 0.450000 -0.150000
v 0.074245 0.449775 -0.149151
v 0.072423 0.000000 0.112500
v 0.075000 0.003866 0.111923
v 0.074245 0.001132 0.112331
v 0.075000 0.017604 0.136797
v 0.072423 0.014645 0.139017
v 0.074245 0.015511 0.138367
v 0.075000 0.050769 0.147100
v 0.072423 0.050000 0.150000
v 0.074245 0.050225 0.149151
v 0.072423 0.485355 0.139017
v 0.075000 0.482396 0.136797
v 0.074245 0.484489 0.138367
v 0.075000 0.496134 0.111923
v 0.072423 0.500000 0.112500
v 0.074245 0.498868 0.112331
v 0.072423 0.450000 0.150000
v 0.075000 0.449231 0.147100
v 0.074245 0.449775 0.149151
v 0.067577 0.014645 -0.139017
v 0.065000 0.017604 -0.136797
v 0.065755 0.015511 -0.138367
v 0.065000 0.003866 -0.111923
v 0.067577 0.000000 -0.112500
v 0.065755 0.001132 -0.112331
v 0.067577 0.050000 -0.150000
v 0.065000 0.050769 -0.147100
v 0.065755 0.050225 -0.149151
v 0.067577 0.500000 -0.112500
v 0.065000 0.496134 -0.111923
v 0.065755 0.498868 -0.112331
v 0.065000 0.482396 -0.136797
v 0.067577 0.485355 -0.139017
v 0.065755 0.484489 -0.138367
v 0.065000 0.449231 -0.147100
v 0.067577 0.450000 -0.150000
v 0.065755 0.449775 -0.149151
v 0.067577 0.000000 0.112500
v 0.065000 0.003866 0.111923
v 0.065755 0.001132 0.112331
v 0.065000 0.017604 0.136797
v 0.067577 0.014645 0.139017
v 0.065755 0.015511 0.138367
v 0.065000 0.050769 0.147100
v 0.067577 0.050000 0.150000
v 0.065755 0.050225 0.149151
v 0.067577 0.485355 0.139017
v 0.065000 0.482396 0.136797
v 0.065755 0.484489 0.138367
v 0.065000 0.496134 0.111923
v 0.067577 0.500000 0.112500
v 0.065755 0.498868 0.112331
v 0.067577 0.450000 0.150000
v 0.065000 0.449231 0.147100
v 0.065755 0.449775 0.149151
vn 0.2456 -0.6205 -0.7448
vn 0.9833 -0.1028 -0.1503
vn 0.7426 -0.4121 -0.5279
vn 0.9879 -0.1492 -0.0418
vn 0.2648 -0.9346 -0.2375
vn 0.7747 -0.6115 -0.1612
vn 0.2172 -0.1484 -0.9648
vn 0.9823 -0.0260 -0.1853
vn 0.7249 -0.1024 -0.6812
vn 0.2648 0.9346 -0.2375
vn 0.9879 0.1492 -0.0418
vn 0.7747 0.6115 -0.1612
vn 0.9833 0.1028 -0.1503
vn 0.2456 0.6205 -0.7448
vn 0.7426 0.4121 -0.5279
vn 0.9823 0.0260 -0.1853
vn 0.2172 0.1484 -0.9648
vn 0.7249 0.1024 -0.6812
vn 0.2648 -0.9346 0.2375
vn 0.9879 -0.1492 0.0418
vn 0.7747 -0.6115 0.1612
vn 0.9833 -0.1028 0.1503
vn 0.2456 -0.6205 0.7448
vn 0.7426 -0.4121 0.5279
vn 0.9823 -0.0260 0.1853
vn 0.2173 -0.1484 0.9648
vn 0.7249 -0.1024 0.6812
vn 0.2456 0.6205 0.7448
vn 0.9833 0.1028 0.1503
vn 0.7426 0.4121 0.5279
vn 0.9879 0.1492 0.0418
vn 0.2648 0.9346 0.2375
vn 0.7747 0.6115 0.1612
vn 0.2173 0.1484 0.9648
vn 0.9823 0.0260 0.1853
vn 0.7249 0.1024 0.6812
vn -0.2456 -0.6205 -0.7448
vn -0.9833 -0.1028 -0.1503
vn -0.7426 -0.4121 -0.5279
vn -0.9879 -0.1492 -0.0418
vn -0.2648 -0.9346 -0.2375
vn -0.7747 -0.6115 -0.1612
vn -0.2172 -0.1484 -0.9648
vn -0.9823 -0.0260 -0.1853
vn -0.7249 -0.1024 -0.6812
vn -0.2648 0.9346 -0.2375
vn -0.9879 0.1492 -0.0418
vn -0.7747 0.6115 -0.1612
vn -0.9833 0.1028 -0.1503
vn -0.2456 0.6205 -0.7448
vn -0.7426 0.4121 -0.5279
vn -0.9823 0.0260 -0.1853
vn -0.2172 0.1484 -0.9648
vn -0.7249 0.1024 -0.6812
vn -0.2648 -0.9346 0.2375
vn -0.9879 -0.1492 0.0418
vn -0.7747 -0.6115 0.1612
vn -0.9833 -0.1028 0.1503
vn -0.2456 -0.6205 0.7448
vn -0.7426 -0.4121 0.5279
vn -0.9823 -0.0260 0.1853
vn -0.2173 -0.1484 0.9648
vn -0.7249 -0.1024 0.6812
vn -0.2456 0.6205 0.7448
vn -0.9833 0.1028 0.1503
vn -0.7426 0.4121 0.5279
vn -0.9879 0.1492 0.0418
vn -0.2648 0.9346 0.2375
vn -0.7747 0.6115 0.1612
vn -0.2173 0.1484 0.9648
vn -0.9823 0.0260 0.1853
vn -0.7249 0.1024 0.6812
vt 0.636752 0.155994
vt 0.611966 0.135452
vt 0.612372 0.131364
vt 0.638316 0.152865
vt 0.612540 0.129671
vt 0.638963 0.151569
vt 0.647019 0.205586
vt 0.649062 0.204773
vt 0.649908 0.204437
vt 0.611966 0.871545
vt 0.636752 0.851003
vt 0.638316 0.854132
vt 0.612372 0.875633
vt 0.638963 0.855427
vt 0.612540 0.877326
vt 0.647019 0.801410
vt 0.649062 0.802224
vt 0.649908 0.802560
vt 0.388906 0.135452
vt 0.364119 0.155994
vt 0.362556 0.152865
vt 0.388500 0.131364
vt 0.361908 0.151569
vt 0.388331 0.129671
vt 0.353853 0.205586
vt 0.351810 0.204773
vt 0.350963 0.204437
vt 0.364119 0.851003
vt 0.388906 0.871545
vt 0.388500 0.875633
vt 0.362556 0.854132
vt 0.388331 0.877326
vt 0.361908 0.855427
vt 0.353853 0.801410
vt 0.351810 0.802224
vt 0.350963 0.802560
vt 0.395975 0.144461
vt 0.394285 0.142347
vt 0.392077 0.166551
vt 0.393507 0.166687
vt 0.413756 0.141376
vt 0.413648 0.139587
vt 0.606493 0.166687
vt 0.607923 0.166551
vt 0.605715 0.142347
vt 0.604025 0.144461
vt 0.586352 0.139587
vt 0.586244 0.141376
vt 0.393507 0.328330
vt 0.392077 0.328467
vt 0.394285 0.352671
vt 0.395975 0.350557
vt 0.413648 0.355430
vt 0.413756 0.353642
vt 0.604025 0.350557
vt 0.605715 0.352671
vt 0.607923 0.328467
vt 0.606493 0.328330
vt 0.586244 0.353642
vt 0.586352 0.355430
s 1
usemtl fuse_box
f 98/171/87 100/172/89 102/173/91 99/174/88
f 99/174/88 102/173/91 101/175/90 97/176/86
f 104/177/93 98/171/87 99/174/88 105/178/94
f 105/178/94 99/174/88 97/176/86 103/179/92
f 107/180/96 109/181/98 111/182/100 108/183/97
f 108/183/97 111/182/100 110/184/99 106/185/95
f 109/181/98 112/186/101 114/187/103 111/182/100
f 111/182/100 114/187/103 113/188/102 110/184/99
f 116/189/105 118/190/107 120/191/109 117/192/106
f 117/192/106 120/191/109 119/193/108 115/194/104
f 118/190/107 121/195/110 123/196/112 120/191/109
f 120/191/109 123/196/112 122/197/111 119/193/108
f 125/198/114 127/199/116 129/200/118 126/201/115
f 126/201/115 129/200/118 128/202/117 124/203/113
f 131/204/120 125/198/114 126/201/115 132/205/121
f 132/205/121 126/201/115 124/203/113 130/206/119
f 100/172/89 116/189/105 117/192/106 102/173/91
f 102/173/91 117/192/106 115/194/104 101/175/90
f 121/195/110 131/204/120 132/205/121 123/196/112
f 123/196/112 132/205/121 130/206/119 122/197/111
f 127/199/116 107/180/96 108/183/97 129/200/118
f 129/200/118 108/183/97 106/185/95 128/202/117
f 112/186/101 104/177/93 105/178/94 114/187/103
f 114/187/103 105/178/94 103/179/92 113/188/102
f 97/176/86 133/176/122 139/179/128 103/179/92
f 100/172/89 98/171/87 104/177/93 112/186/101 109/181/98 107/180/96 127/199/116 125/198/114 131/204/120 121/195/110 118/190/107 116/189/105
f 110/184/99 146/184/135 142/185/131 106/185/95
f 130/206/119 166/206/155 158/197/147 122/197/111
f 113/188/102 149/188/138 146/184/135 110/184/99
f 103/179/92 139/179/128 149/188/138 113/188/102
f 119/193/108 155/193/144 151/194/140 115/194/104
f 122/197/111 158/197/147 155/193/144 119/193/108
f 128/202/117 164/202/153 160/203/149 124/203/113
f 106/185/95 142/185/131 164/202/153 128/202/117
f 124/203/113 160/203/149 166/206/155 130/206/119
f 115/194/104 151/194/140 137/175/126 101/175/90
f 134/207/123 135/208/124 138/209/127 136/210/125
f 135/174/124 133/176/122 137/175/126 138/173/127
f 140/211/129 141/212/130 135/208/124 134/207/123
f 141/178/130 139/179/128 133/176/122 135/174/124
f 143/213/132 144/214/133 147/215/136 145/216/134
f 144/183/133 142/185/131 146/184/135 147/182/136
f 145/216/134 147/215/136 150/217/139 148/218/137
f 147/182/136 146/184/135 149/188/138 150/187/139
f 152/219/141 153/220/142 156/221/145 154/222/143
f 153/192/142 151/194/140 155/193/144 156/191/145
f 154/222/143 156/221/145 159/223/148 157/224/146
f 156/191/145 155/193/144 158/197/147 159/196/148
f 161/225/150 162/226/151 165/227/154 163/228/152
f 162/201/151 160/203/149 164/202/153 165/200/154
f 167/229/156 168/230/157 162/226/151 161/225/150
f 168/205/157 166/206/155 160/203/149 162/201/151
f 136/210/125 138/209/127 153/220/142 152/219/141
f 138/173/127 137/175/126 151/194/140 153/192/142
f 157/224/146 159/223/148 168/230/157 167/229/156
f 159/196/148 158/197/147 166/206/155 168/205/157
f 163/228/152 165/227/154 144/214/133 143/213/132
f 165/200/154 164/202/153 142/185/131 144/183/133
f 148/218/137 150/217/139 141/212/130 140/211/129
f 150/187/139 149/188/138 139/179/128 141/178/130
f 136/210/125 152/219/141 154/222/143 157/224/146 167/229/156 161/225/150 163/228/152 143/213/132 145/216/134 148/218/137 140/211/129 134/207/123
f 101/175/90 137/175/126 133/176/122 97/176/86
