# Blender 5.0.0
# www.blender.org
mtllib nightstand.mtl
o latch_1
v 0.405000 0.872500 -0.155000
v 0.425000 0.627500 -0.175000
v -0.425000 0.627500 -0.175000
v -0.405000 0.872500 -0.155000
v 0.405000 0.872500 0.405000
v 0.425000 0.627500 0.425000
v -0.425000 0.627500 0.425000
v -0.405000 0.872500 0.405000
v 0.425000 0.872500 -0.175000
v -0.425000 0.872500 -0.175000
v 0.425000 0.872500 0.425000
v -0.425000 0.872500 0.425000
v 0.405000 0.647500 -0.155000
v -0.405000 0.647500 -0.155000
v 0.405000 0.647500 0.405000
v -0.405000 0.647500 0.405000
v -0.080000 0.740000 0.446614
v -0.080000 0.760000 0.446614
v -0.080000 0.740000 0.431614
v -0.080000 0.760000 0.431614
v -0.086679 0.740000 0.445556
v -0.086679 0.760000 0.445556
v -0.082044 0.740000 0.431291
v -0.082044 0.760000 0.431291
v -0.092704 0.740000 0.442486
v -0.092704 0.760000 0.442486
v -0.083888 0.740000 0.430351
v -0.083888 0.760000 0.430351
v -0.097486 0.740000 0.437705
v -0.097486 0.760000 0.437705
v -0.085351 0.740000 0.428888
v -0.085351 0.760000 0.428888
v -0.100556 0.740000 0.431679
v -0.100556 0.760000 0.431679
v -0.086290 0.740000 0.427044
v -0.086290 0.760000 0.427044
v -0.101614 0.740000 0.425000
v -0.101614 0.760000 0.425000
v -0.086614 0.740000 0.425000
v -0.086614 0.760000 0.425000
v 0.080000 0.740000 0.446614
v 0.080000 0.760000 0.446614
v 0.080000 0.740000 0.431614
v 0.080000 0.760000 0.431614
v 0.086679 0.740000 0.445556
v 0.086679 0.760000 0.445556
v 0.082044 0.740000 0.431291
v 0.082044 0.760000 0.431291
v 0.092704 0.740000 0.442486
v 0.092704 0.760000 0.442486
v 0.083888 0.740000 0.430351
v 0.083888 0.760000 0.430351
v 0.097486 0.740000 0.437705
v 0.097486 0.760000 0.437705
v 0.085351 0.740000 0.428888
v 0.085351 0.760000 0.428888
v 0.100556 0.740000 0.431679
v 0.100556 0.760000 0.431679
v 0.086290 0.740000 0.427044
v 0.086290 0.760000 0.427044
v 0.101614 0.740000 0.425000
v 0.101614 0.760000 0.425000
v 0.086614 0.740000 0.425000
v 0.086614 0.760000 0.425000
vn -0.0000 -1.0000 -0.0000
vn -0.0000 -0.0000 1.0000
vn 1.0000 -0.0000 -0.0000
vn -1.0000 -0.0000 -0.0000
vn -0.0000 -0.0000 -1.0000
vn -0.0000 1.0000 -0.0000
vn 0.0785 -0.0000 -0.9969
vn 0.3090 -0.0000 -0.9511
vn -0.0785 -0.0000 -0.9969
vn -0.0785 -0.0000 0.9969
vn 0.0785 -0.0000 0.9969
vn 0.5878 -0.0000 -0.8090
vn -0.3090 -0.0000 0.9511
vn -0.5878 -0.0000 0.8090
vn 0.8090 -0.0000 -0.5878
vn -0.8090 -0.0000 0.5878
vn 0.9511 -0.0000 -0.3090
vn 0.9877 -0.0000 -0.1564
vn -0.9511 -0.0000 0.3090
vn -0.9877 -0.0000 0.1564
vn -0.3090 -0.0000 -0.9511
vn -0.5878 -0.0000 -0.8090
vn 0.3090 -0.0000 0.9511
vn 0.5878 -0.0000 0.8090
vn -0.8090 -0.0000 -0.5878
vn 0.8090 -0.0000 0.5878
vn -0.9511 -0.0000 -0.3090
vn -0.9877 -0.0000 -0.1564
vn 0.9511 -0.0000 0.3090
vn 0.9877 -0.0000 0.1564
vt 0.493303 0.734644
vt 0.493303 0.964684
vt 0.330921 0.964684
vt 0.330921 0.734644
vt 0.797728 0.716409
vt 0.731422 0.716409
vt 0.731422 0.486369
vt 0.797728 0.486369
vt 0.519231 0.890188
vt 0.519231 0.738632
vt 0.580124 0.738632
vt 0.580124 0.890188
vt 0.726604 0.842884
vt 0.660298 0.842884
vt 0.660298 0.680502
vt 0.726604 0.680502
vt 0.660298 0.508041
vt 0.726604 0.508041
vt 0.726604 0.670423
vt 0.660298 0.670423
vt 0.864034 0.486369
vt 0.864034 0.716409
vt 0.163824 0.958124
vt 0.163824 0.738909
vt 0.169236 0.733496
vt 0.169236 0.963536
vt 0.012267 0.738909
vt 0.012267 0.958124
vt 0.006855 0.963536
vt 0.006855 0.733496
vt 0.320793 0.733496
vt 0.320793 0.952711
vt 0.169236 0.952711
vt 0.169236 0.733496
vt 0.014662 0.947800
vt 0.014662 0.743426
vt 0.071432 0.743426
vt 0.071432 0.947800
vt 0.585889 0.888274
vt 0.585889 0.736718
vt 0.646782 0.736718
vt 0.646782 0.888274
vt 0.128203 0.743426
vt 0.128203 0.947800
vt 0.503729 0.936239
vt 0.509141 0.936239
vt 0.509141 0.936792
vt 0.503729 0.936792
vt 0.509141 0.892937
vt 0.503729 0.892937
vt 0.509141 0.845145
vt 0.509141 0.888446
vt 0.503729 0.888446
vt 0.503729 0.845145
vt 0.509141 0.937291
vt 0.503729 0.937291
vt 0.503729 0.843337
vt 0.509141 0.843337
vt 0.503729 0.841706
vt 0.509141 0.841706
vt 0.505177 0.958941
vt 0.505177 0.964354
vt 0.504781 0.964354
vt 0.504781 0.958941
vt 0.503729 0.942703
vt 0.505023 0.937291
vt 0.505023 0.942703
vt 0.504282 0.958941
vt 0.504282 0.964354
vt 0.503729 0.964354
vt 0.503729 0.958941
vt 0.506654 0.937291
vt 0.506654 0.942703
vt 0.503729 0.953529
vt 0.503729 0.948116
vt 0.507788 0.948116
vt 0.507788 0.953529
vt 0.508461 0.937291
vt 0.508461 0.942703
vt 0.503729 0.892384
vt 0.509141 0.892384
vt 0.503729 0.891885
vt 0.509141 0.891885
vt 0.509141 0.890254
vt 0.503729 0.890254
vt 0.509141 0.891885
vt 0.503729 0.891885
vt 0.504125 0.964354
vt 0.504125 0.969767
vt 0.503729 0.969767
vt 0.508461 0.948116
vt 0.507167 0.948116
vt 0.507167 0.942703
vt 0.504624 0.964354
vt 0.505177 0.969767
vt 0.504624 0.969767
vt 0.505537 0.948116
vt 0.505537 0.942703
vt 0.503729 0.737554
vt 0.504015 0.735747
vt 0.504846 0.734116
vt 0.506140 0.732822
vt 0.507771 0.731991
vt 0.509578 0.731705
vt 0.509578 0.735764
vt 0.509025 0.735852
vt 0.508526 0.736106
vt 0.508130 0.736502
vt 0.507876 0.737001
vt 0.507788 0.737554
vt 0.507788 0.780856
vt 0.507876 0.781409
vt 0.508130 0.781908
vt 0.508526 0.782304
vt 0.509025 0.782558
vt 0.509578 0.782646
vt 0.509578 0.786705
vt 0.507771 0.786419
vt 0.506140 0.785588
vt 0.504846 0.784294
vt 0.504015 0.782663
vt 0.503729 0.780856
vt 0.507788 0.958941
vt 0.503729 0.953529
vt 0.507788 0.953529
vt 0.503729 0.948116
vt 0.503729 0.835857
vt 0.503729 0.792555
vt 0.504015 0.790747
vt 0.504846 0.789117
vt 0.506140 0.787823
vt 0.507771 0.786992
vt 0.509578 0.790765
vt 0.509025 0.790853
vt 0.508526 0.791107
vt 0.508130 0.791503
vt 0.507876 0.792002
vt 0.507788 0.792555
vt 0.507788 0.835857
vt 0.507876 0.836410
vt 0.508130 0.836909
vt 0.508526 0.837305
vt 0.509025 0.837559
vt 0.509578 0.837647
vt 0.509578 0.841706
vt 0.507771 0.841420
vt 0.506140 0.840589
vt 0.504846 0.839295
vt 0.504015 0.837664
s 0
usemtl nightstand
f 3/1/1 2/2/1 6/3/1 7/4/1
f 6/5/2 11/6/2 12/7/2 7/8/2
f 4/9/3 8/10/3 16/11/3 14/12/3
f 2/13/3 9/14/3 11/15/3 6/16/3
f 10/17/4 3/18/4 7/19/4 12/20/4
f 9/8/5 2/21/5 3/22/5 10/5/5
f 4/23/6 1/24/6 9/25/6 10/26/6
f 5/27/6 8/28/6 12/29/6 11/30/6
f 8/28/6 4/23/6 10/26/6 12/29/6
f 1/24/6 5/27/6 11/30/6 9/25/6
f 13/31/6 14/32/6 16/33/6 15/34/6
f 1/35/2 4/36/2 14/37/2 13/38/2
f 5/39/4 1/40/4 13/41/4 15/42/4
f 8/38/5 5/37/5 15/43/5 16/44/5
s 1
f 20/45/7 19/46/7 23/47/8 24/48/8
f 43/49/9 19/46/7 20/45/7 44/50/9
f 17/51/10 41/52/11 42/53/11 18/54/10
f 24/48/8 23/47/8 27/55/12 28/56/12
f 17/51/10 18/54/10 22/57/13 21/58/13
f 21/58/13 22/57/13 26/59/14 25/60/14
f 28/61/12 27/62/12 31/63/15 32/64/15
f 25/65/14 26/56/14 30/66/16 29/67/16
f 36/68/17 35/69/17 39/70/18 40/71/18
f 32/64/15 31/63/15 35/69/17 36/68/17
f 29/67/16 30/66/16 34/72/19 33/73/19
f 37/74/5 38/75/5 40/76/5 39/77/5
f 33/73/19 34/72/19 38/78/20 37/79/20
f 44/50/9 48/80/21 47/81/21 43/49/9
f 48/80/21 52/82/22 51/83/22 47/81/21
f 41/52/11 45/84/23 46/85/23 42/53/11
f 45/84/23 49/86/24 50/87/24 46/85/23
f 52/70/22 56/88/25 55/89/25 51/90/22
f 49/91/24 53/92/26 54/93/26 50/79/24
f 60/94/27 64/62/28 63/95/28 59/96/27
f 56/88/25 60/94/27 59/96/27 55/89/25
f 53/92/26 57/97/29 58/98/29 54/93/26
f 17/99/1 21/100/1 25/101/1 29/102/1 33/103/1 37/104/1 39/105/1 35/106/1 31/107/1 27/108/1 23/109/1 19/110/1 43/111/1 47/112/1 51/113/1 55/114/1 59/115/1 63/116/1 61/117/1 57/118/1 53/119/1 49/120/1 45/121/1 41/122/1
f 61/123/5 63/71/5 64/124/5 62/125/5
f 57/97/29 61/126/30 62/65/30 58/98/29
f 18/127/6 42/128/6 46/129/6 50/130/6 54/131/6 58/132/6 62/117/6 64/133/6 60/134/6 56/135/6 52/136/6 48/137/6 44/138/6 20/139/6 24/140/6 28/141/6 32/142/6 36/143/6 40/144/6 38/145/6 34/146/6 30/147/6 26/148/6 22/149/6
o nightstand
v -0.450000 0.000000 0.425000
v -0.450000 0.900000 0.425000
v -0.450000 0.000000 -0.425000
v -0.450000 0.900000 -0.425000
v 0.450000 0.000000 0.425000
v 0.450000 0.900000 0.425000
v 0.450000 0.000000 -0.425000
v 0.450000 0.900000 -0.425000
v -0.450000 0.300000 0.425000
v -0.450000 0.600000 0.425000
v -0.450000 0.600000 -0.425000
v -0.450000 0.300000 -0.425000
v 0.450000 0.600000 -0.425000
v 0.450000 0.300000 -0.425000
v 0.450000 0.600000 0.425000
v 0.450000 0.300000 0.425000
v 0.427500 0.625000 0.425000
v 0.427500 0.875000 0.425000
v -0.427500 0.875000 0.425000
v -0.427500 0.625000 0.425000
v 0.427500 0.025000 0.425000
v 0.427500 0.275000 0.425000
v -0.427500 0.275000 0.425000
v -0.427500 0.025000 0.425000
v 0.427500 0.325000 0.425000
v 0.427500 0.575000 0.425000
v -0.427500 0.575000 0.425000
v -0.427500 0.325000 0.425000
v 0.427500 0.275000 -0.175000
v 0.427500 0.025000 -0.175000
v -0.427500 0.025000 -0.175000
v -0.427500 0.275000 -0.175000
v 0.427500 0.575000 -0.175000
v 0.427500 0.325000 -0.175000
v -0.427500 0.325000 -0.175000
v -0.427500 0.575000 -0.175000
v 0.427500 0.875000 -0.175000
v 0.427500 0.625000 -0.175000
v -0.427500 0.625000 -0.175000
v -0.427500 0.875000 -0.175000
vn -1.0000 -0.0000 -0.0000
vn -0.0000 -0.0000 -1.0000
vn 1.0000 -0.0000 -0.0000
vn -0.0000 1.0000 -0.0000
vn -0.0000 -1.0000 -0.0000
vn -0.0000 -0.0000 1.0000
vt 0.479395 0.086822
vt 0.479395 0.005631
vt 0.709435 0.005631
vt 0.709435 0.086822
vt 0.086973 0.249203
vt 0.005782 0.249203
vt 0.005782 0.005631
vt 0.086973 0.005631
vt 0.479395 0.330394
vt 0.479395 0.249203
vt 0.709435 0.249203
vt 0.709435 0.330394
vt 0.005782 0.724169
vt 0.005782 0.492775
vt 0.168163 0.492775
vt 0.168163 0.724169
vt 0.249354 0.249203
vt 0.249354 0.005631
vt 0.479395 0.249203
vt 0.479395 0.492775
vt 0.249354 0.492775
vt 0.249354 0.249203
vt 0.168163 0.724169
vt 0.330545 0.492775
vt 0.330545 0.724169
vt 0.016004 0.258290
vt 0.076897 0.258290
vt 0.076897 0.404434
vt 0.016004 0.404434
vt 0.479395 0.411585
vt 0.709435 0.411585
vt 0.709435 0.492775
vt 0.249354 0.249203
vt 0.168163 0.249203
vt 0.168163 0.005631
vt 0.479395 0.168012
vt 0.709435 0.168012
vt 0.709435 0.249203
vt 0.086973 0.492775
vt 0.005782 0.492775
vt 0.012548 0.486686
vt 0.080207 0.486686
vt 0.005782 0.249203
vt 0.012548 0.255292
vt 0.086973 0.249203
vt 0.080207 0.255292
vt 0.249354 0.492775
vt 0.174929 0.486686
vt 0.242588 0.486686
vt 0.174929 0.255292
vt 0.242588 0.255292
vt 0.093739 0.486686
vt 0.161398 0.486686
vt 0.093739 0.255292
vt 0.161398 0.255292
vt 0.774648 0.506445
vt 0.816195 0.506445
vt 0.816195 0.648538
vt 0.774648 0.648538
vt 0.857743 0.648538
vt 0.816195 0.506445
vt 0.857743 0.506445
vt 0.238505 0.404025
vt 0.177612 0.404025
vt 0.177612 0.257882
vt 0.238505 0.257882
vt 0.098164 0.259082
vt 0.159057 0.259082
vt 0.159057 0.405225
vt 0.098164 0.405225
vt 0.330545 0.724169
vt 0.330545 0.492775
vt 0.492927 0.492775
vt 0.492927 0.724169
vt 0.655308 0.492775
vt 0.655308 0.724169
vt 0.939476 0.330394
vt 0.871817 0.330394
vt 0.871817 0.168012
vt 0.939476 0.168012
vt 0.659151 0.500552
vt 0.726810 0.500552
vt 0.726810 0.662934
vt 0.659151 0.662934
vt 0.709435 0.237024
vt 0.871817 0.005631
vt 0.871817 0.237024
vt 0.709435 0.468418
vt 0.871817 0.468418
vt 0.939476 0.168012
vt 0.871817 0.168012
vt 0.871817 0.005631
vt 0.939476 0.005631
vt 0.733100 0.648538
vt 0.733100 0.506445
vt 0.774648 0.506445
vt 0.774648 0.648538
s 0
usemtl nightstand
f 74/150/31 66/151/31 68/152/31 75/153/31
f 75/154/32 68/155/32 72/156/32 77/157/32
f 77/158/33 72/159/33 70/160/33 79/161/33
f 84/162/34 81/163/34 102/164/34 103/165/34
f 67/151/35 71/159/35 69/166/35 65/167/35
f 72/168/34 68/169/34 66/170/34 70/171/34
f 90/172/35 91/164/35 100/173/35 97/174/35
f 87/175/33 88/176/33 95/177/33 96/178/33
f 71/169/33 78/179/33 80/180/33 69/181/33
f 78/179/33 77/158/33 79/161/33 80/180/33
f 67/182/32 76/183/32 78/184/32 71/167/32
f 76/183/32 75/154/32 77/157/32 78/184/32
f 65/159/31 73/185/31 76/186/31 67/187/31
f 73/185/31 74/150/31 75/153/31 76/186/31
f 79/188/36 70/189/36 82/190/36 81/191/36
f 70/189/36 66/192/36 83/193/36 82/190/36
f 66/192/36 74/194/36 84/195/36 83/193/36
f 74/194/36 79/188/36 81/191/36 84/195/36
f 69/196/36 80/164/36 86/197/36 85/198/36
f 80/164/36 73/183/36 87/199/36 86/197/36
f 73/183/36 65/166/36 88/200/36 87/199/36
f 65/166/36 69/196/36 85/198/36 88/200/36
f 80/164/36 79/188/36 90/201/36 89/202/36
f 79/188/36 74/194/36 91/203/36 90/201/36
f 74/194/36 73/183/36 92/204/36 91/203/36
f 73/183/36 80/164/36 89/202/36 92/204/36
f 94/205/36 93/206/36 96/207/36 95/208/36
f 98/209/36 97/207/36 100/210/36 99/211/36
f 85/212/31 86/213/31 93/214/31 94/215/31
f 91/216/33 92/217/33 99/218/33 100/219/33
f 82/220/35 83/221/35 104/222/35 101/223/35
f 88/223/34 85/222/34 94/224/34 95/225/34
f 89/226/31 90/227/31 97/228/31 98/229/31
f 83/230/33 84/231/33 103/232/33 104/233/33
f 86/234/35 87/152/35 96/235/35 93/236/35
f 92/237/34 89/234/34 98/236/34 99/238/34
f 81/239/31 82/240/31 101/241/31 102/242/31
f 101/243/36 104/244/36 103/245/36 102/246/36
o latch_2
v 0.405000 0.572500 -0.155000
v 0.425000 0.327500 -0.175000
v -0.425000 0.327500 -0.175000
v -0.405000 0.572500 -0.155000
v 0.405000 0.572500 0.405000
v 0.425000 0.327500 0.425000
v -0.425000 0.327500 0.425000
v -0.405000 0.572500 0.405000
v 0.425000 0.572500 -0.175000
v -0.425000 0.572500 -0.175000
v 0.425000 0.572500 0.425000
v -0.425000 0.572500 0.425000
v 0.405000 0.347500 -0.155000
v -0.405000 0.347500 -0.155000
v 0.405000 0.347500 0.405000
v -0.405000 0.347500 0.405000
v -0.080000 0.440000 0.446614
v -0.080000 0.460000 0.446614
v -0.080000 0.440000 0.431614
v -0.080000 0.460000 0.431614
v -0.086679 0.440000 0.445556
v -0.086679 0.460000 0.445556
v -0.082044 0.440000 0.431291
v -0.082044 0.460000 0.431291
v -0.092704 0.440000 0.442486
v -0.092704 0.460000 0.442486
v -0.083888 0.440000 0.430351
v -0.083888 0.460000 0.430351
v -0.097486 0.440000 0.437705
v -0.097486 0.460000 0.437705
v -0.085351 0.440000 0.428888
v -0.085351 0.460000 0.428888
v -0.100556 0.440000 0.431679
v -0.100556 0.460000 0.431679
v -0.086290 0.440000 0.427044
v -0.086290 0.460000 0.427044
v -0.101614 0.440000 0.425000
v -0.101614 0.460000 0.425000
v -0.086614 0.440000 0.425000
v -0.086614 0.460000 0.425000
v 0.080000 0.440000 0.446614
v 0.080000 0.460000 0.446614
v 0.080000 0.440000 0.431614
v 0.080000 0.460000 0.431614
v 0.086679 0.440000 0.445556
v 0.086679 0.460000 0.445556
v 0.082044 0.440000 0.431291
v 0.082044 0.460000 0.431291
v 0.092704 0.440000 0.442486
v 0.092704 0.460000 0.442486
v 0.083888 0.440000 0.430351
v 0.083888 0.460000 0.430351
v 0.097486 0.440000 0.437705
v 0.097486 0.460000 0.437705
v 0.085351 0.440000 0.428888
v 0.085351 0.460000 0.428888
v 0.100556 0.440000 0.431679
v 0.100556 0.460000 0.431679
v 0.086290 0.440000 0.427044
v 0.086290 0.460000 0.427044
v 0.101614 0.440000 0.425000
v 0.101614 0.460000 0.425000
v 0.086614 0.440000 0.425000
v 0.086614 0.460000 0.425000
vn -0.0000 -1.0000 -0.0000
vn -0.0000 -0.0000 1.0000
vn 1.0000 -0.0000 -0.0000
vn -1.0000 -0.0000 -0.0000
vn -0.0000 -0.0000 -1.0000
vn -0.0000 1.0000 -0.0000
vn 0.0785 -0.0000 -0.9969
vn 0.3090 -0.0000 -0.9511
vn -0.0785 -0.0000 -0.9969
vn -0.0785 -0.0000 0.9969
vn 0.0785 -0.0000 0.9969
vn 0.5878 -0.0000 -0.8090
vn -0.3090 -0.0000 0.9511
vn -0.5878 -0.0000 0.8090
vn 0.8090 -0.0000 -0.5878
vn -0.8090 -0.0000 0.5878
vn 0.9511 -0.0000 -0.3090
vn 0.9877 -0.0000 -0.1564
vn -0.9511 -0.0000 0.3090
vn -0.9877 -0.0000 0.1564
vn -0.3090 -0.0000 -0.9511
vn -0.5878 -0.0000 -0.8090
vn 0.3090 -0.0000 0.9511
vn 0.5878 -0.0000 0.8090
vn -0.8090 -0.0000 -0.5878
vn 0.8090 -0.0000 0.5878
vn -0.9511 -0.0000 -0.3090
vn -0.9877 -0.0000 -0.1564
vn 0.9511 -0.0000 0.3090
vn 0.9877 -0.0000 0.1564
vt 0.493303 0.734644
vt 0.493303 0.964684
vt 0.330921 0.964684
vt 0.330921 0.734644
vt 0.797728 0.716409
vt 0.731422 0.716409
vt 0.731422 0.486369
vt 0.797728 0.486369
vt 0.519231 0.890188
vt 0.519231 0.738632
vt 0.580124 0.738632
vt 0.580124 0.890188
vt 0.726604 0.842884
vt 0.660298 0.842884
vt 0.660298 0.680502
vt 0.726604 0.680502
vt 0.660298 0.508041
vt 0.726604 0.508041
vt 0.726604 0.670423
vt 0.660298 0.670423
vt 0.864034 0.486369
vt 0.864034 0.716409
vt 0.163824 0.958124
vt 0.163824 0.738909
vt 0.169236 0.733496
vt 0.169236 0.963536
vt 0.012267 0.738909
vt 0.012267 0.958124
vt 0.006855 0.963536
vt 0.006855 0.733496
vt 0.320793 0.733496
vt 0.320793 0.952711
vt 0.169236 0.952711
vt 0.169236 0.733496
vt 0.014662 0.947800
vt 0.014662 0.743426
vt 0.071432 0.743426
vt 0.071432 0.947800
vt 0.585889 0.888274
vt 0.585889 0.736718
vt 0.646782 0.736718
vt 0.646782 0.888274
vt 0.128203 0.743426
vt 0.128203 0.947800
vt 0.503729 0.936239
vt 0.509141 0.936239
vt 0.509141 0.936792
vt 0.503729 0.936792
vt 0.509141 0.892937
vt 0.503729 0.892937
vt 0.509141 0.845145
vt 0.509141 0.888446
vt 0.503729 0.888446
vt 0.503729 0.845145
vt 0.509141 0.937291
vt 0.503729 0.937291
vt 0.503729 0.843337
vt 0.509141 0.843337
vt 0.503729 0.841706
vt 0.509141 0.841706
vt 0.505177 0.958941
vt 0.505177 0.964354
vt 0.504781 0.964354
vt 0.504781 0.958941
vt 0.503729 0.942703
vt 0.505023 0.937291
vt 0.505023 0.942703
vt 0.504282 0.958941
vt 0.504282 0.964354
vt 0.503729 0.964354
vt 0.503729 0.958941
vt 0.506654 0.937291
vt 0.506654 0.942703
vt 0.503729 0.953529
vt 0.503729 0.948116
vt 0.507788 0.948116
vt 0.507788 0.953529
vt 0.508461 0.937291
vt 0.508461 0.942703
vt 0.503729 0.892384
vt 0.509141 0.892384
vt 0.503729 0.891885
vt 0.509141 0.891885
vt 0.509141 0.890254
vt 0.503729 0.890254
vt 0.509141 0.891885
vt 0.503729 0.891885
vt 0.504125 0.964354
vt 0.504125 0.969767
vt 0.503729 0.969767
vt 0.508461 0.948116
vt 0.507167 0.948116
vt 0.507167 0.942703
vt 0.504624 0.964354
vt 0.505177 0.969767
vt 0.504624 0.969767
vt 0.505537 0.948116
vt 0.505537 0.942703
vt 0.503729 0.737554
vt 0.504015 0.735747
vt 0.504846 0.734116
vt 0.506140 0.732822
vt 0.507771 0.731991
vt 0.509578 0.731705
vt 0.509578 0.735764
vt 0.509025 0.735852
vt 0.508526 0.736106
vt 0.508130 0.736502
vt 0.507876 0.737001
vt 0.507788 0.737554
vt 0.507788 0.780856
vt 0.507876 0.781409
vt 0.508130 0.781908
vt 0.508526 0.782304
vt 0.509025 0.782558
vt 0.509578 0.782646
vt 0.509578 0.786705
vt 0.507771 0.786419
vt 0.506140 0.785588
vt 0.504846 0.784294
vt 0.504015 0.782663
vt 0.503729 0.780856
vt 0.507788 0.958941
vt 0.503729 0.953529
vt 0.507788 0.953529
vt 0.503729 0.948116
vt 0.503729 0.835857
vt 0.503729 0.792555
vt 0.504015 0.790747
vt 0.504846 0.789117
vt 0.506140 0.787823
vt 0.507771 0.786992
vt 0.509578 0.790765
vt 0.509025 0.790853
vt 0.508526 0.791107
vt 0.508130 0.791503
vt 0.507876 0.792002
vt 0.507788 0.792555
vt 0.507788 0.835857
vt 0.507876 0.836410
vt 0.508130 0.836909
vt 0.508526 0.837305
vt 0.509025 0.837559
vt 0.509578 0.837647
vt 0.509578 0.841706
vt 0.507771 0.841420
vt 0.506140 0.840589
vt 0.504846 0.839295
vt 0.504015 0.837664
s 0
usemtl nightstand
f 107/247/37 106/248/37 110/249/37 111/250/37
f 110/251/38 115/252/38 116/253/38 111/254/38
f 108/255/39 112/256/39 120/257/39 118/258/39
f 106/259/39 113/260/39 115/261/39 110/262/39
f 114/263/40 107/264/40 111/265/40 116/266/40
f 113/254/41 106/267/41 107/268/41 114/251/41
f 108/269/42 105/270/42 113/271/42 114/272/42
f 109/273/42 112/274/42 116/275/42 115/276/42
f 112/274/42 108/269/42 114/272/42 116/275/42
f 105/270/42 109/273/42 115/276/42 113/271/42
f 117/277/42 118/278/42 120/279/42 119/280/42
f 105/281/38 108/282/38 118/283/38 117/284/38
f 109/285/40 105/286/40 117/287/40 119/288/40
f 112/284/41 109/283/41 119/289/41 120/290/41
s 1
f 124/291/43 123/292/43 127/293/44 128/294/44
f 147/295/45 123/292/43 124/291/43 148/296/45
f 121/297/46 145/298/47 146/299/47 122/300/46
f 128/294/44 127/293/44 131/301/48 132/302/48
f 121/297/46 122/300/46 126/303/49 125/304/49
f 125/304/49 126/303/49 130/305/50 129/306/50
f 132/307/48 131/308/48 135/309/51 136/310/51
f 129/311/50 130/302/50 134/312/52 133/313/52
f 140/314/53 139/315/53 143/316/54 144/317/54
f 136/310/51 135/309/51 139/315/53 140/314/53
f 133/313/52 134/312/52 138/318/55 137/319/55
f 141/320/41 142/321/41 144/322/41 143/323/41
f 137/319/55 138/318/55 142/324/56 141/325/56
f 148/296/45 152/326/57 151/327/57 147/295/45
f 152/326/57 156/328/58 155/329/58 151/327/57
f 145/298/47 149/330/59 150/331/59 146/299/47
f 149/330/59 153/332/60 154/333/60 150/331/59
f 156/316/58 160/334/61 159/335/61 155/336/58
f 153/337/60 157/338/62 158/339/62 154/325/60
f 164/340/63 168/308/64 167/341/64 163/342/63
f 160/334/61 164/340/63 163/342/63 159/335/61
f 157/338/62 161/343/65 162/344/65 158/339/62
f 121/345/37 125/346/37 129/347/37 133/348/37 137/349/37 141/350/37 143/351/37 139/352/37 135/353/37 131/354/37 127/355/37 123/356/37 147/357/37 151/358/37 155/359/37 159/360/37 163/361/37 167/362/37 165/363/37 161/364/37 157/365/37 153/366/37 149/367/37 145/368/37
f 165/369/41 167/317/41 168/370/41 166/371/41
f 161/343/65 165/372/66 166/311/66 162/344/65
f 122/373/42 146/374/42 150/375/42 154/376/42 158/377/42 162/378/42 166/363/42 168/379/42 164/380/42 160/381/42 156/382/42 152/383/42 148/384/42 124/385/42 128/386/42 132/387/42 136/388/42 140/389/42 144/390/42 142/391/42 138/392/42 134/393/42 130/394/42 126/395/42
o latch_3
v 0.405000 0.272500 -0.155000
v 0.425000 0.027500 -0.175000
v -0.425000 0.027500 -0.175000
v -0.405000 0.272500 -0.155000
v 0.405000 0.272500 0.405000
v 0.425000 0.027500 0.425000
v -0.425000 0.027500 0.425000
v -0.405000 0.272500 0.405000
v 0.425000 0.272500 -0.175000
v -0.425000 0.272500 -0.175000
v 0.425000 0.272500 0.425000
v -0.425000 0.272500 0.425000
v 0.405000 0.047500 -0.155000
v -0.405000 0.047500 -0.155000
v 0.405000 0.047500 0.405000
v -0.405000 0.047500 0.405000
v -0.080000 0.140000 0.446614
v -0.080000 0.160000 0.446614
v -0.080000 0.140000 0.431614
v -0.080000 0.160000 0.431614
v -0.086679 0.140000 0.445556
v -0.086679 0.160000 0.445556
v -0.082044 0.140000 0.431291
v -0.082044 0.160000 0.431291
v -0.092704 0.140000 0.442486
v -0.092704 0.160000 0.442486
v -0.083888 0.140000 0.430351
v -0.083888 0.160000 0.430351
v -0.097486 0.140000 0.437705
v -0.097486 0.160000 0.437705
v -0.085351 0.140000 0.428888
v -0.085351 0.160000 0.428888
v -0.100556 0.140000 0.431679
v -0.100556 0.160000 0.431679
v -0.086290 0.140000 0.427044
v -0.086290 0.160000 0.427044
v -0.101614 0.140000 0.425000
v -0.101614 0.160000 0.425000
v -0.086614 0.140000 0.425000
v -0.086614 0.160000 0.425000
v 0.080000 0.140000 0.446614
v 0.080000 0.160000 0.446614
v 0.080000 0.140000 0.431614
v 0.080000 0.160000 0.431614
v 0.086679 0.140000 0.445556
v 0.086679 0.160000 0.445556
v 0.082044 0.140000 0.431291
v 0.082044 0.160000 0.431291
v 0.092704 0.140000 0.442486
v 0.092704 0.160000 0.442486
v 0.083888 0.140000 0.430351
v 0.083888 0.160000 0.430351
v 0.097486 0.140000 0.437705
v 0.097486 0.160000 0.437705
v 0.085351 0.140000 0.428888
v 0.085351 0.160000 0.428888
v 0.100556 0.140000 0.431679
v 0.100556 0.160000 0.431679
v 0.086290 0.140000 0.427044
v 0.086290 0.160000 0.427044
v 0.101614 0.140000 0.425000
v 0.101614 0.160000 0.425000
v 0.086614 0.140000 0.425000
v 0.086614 0.160000 0.425000
vn -0.0000 -1.0000 -0.0000
vn -0.0000 -0.0000 1.0000
vn 1.0000 -0.0000 -0.0000
vn -1.0000 -0.0000 -0.0000
vn -0.0000 -0.0000 -1.0000
vn -0.0000 1.0000 -0.0000
vn 0.0785 -0.0000 -0.9969
vn 0.3090 -0.0000 -0.9511
vn -0.0785 -0.0000 -0.9969
vn -0.0785 -0.0000 0.9969
vn 0.0785 -0.0000 0.9969
vn 0.5878 -0.0000 -0.8090
vn -0.3090 -0.0000 0.9511
vn -0.5878 -0.0000 0.8090
vn 0.8090 -0.0000 -0.5878
vn -0.8090 -0.0000 0.5878
vn 0.9511 -0.0000 -0.3090
vn 0.9877 -0.0000 -0.1564
vn -0.9511 -0.0000 0.3090
vn -0.9877 -0.0000 0.1564
vn -0.3090 -0.0000 -0.9511
vn -0.5878 -0.0000 -0.8090
vn 0.3090 -0.0000 0.9511
vn 0.5878 -0.0000 0.8090
vn -0.8090 -0.0000 -0.5878
vn 0.8090 -0.0000 0.5878
vn -0.9511 -0.0000 -0.3090
vn -0.9877 -0.0000 -0.1564
vn 0.9511 -0.0000 0.3090
vn 0.9877 -0.0000 0.1564
vt 0.493303 0.734644
vt 0.493303 0.964684
vt 0.330921 0.964684
vt 0.330921 0.734644
vt 0.797728 0.716409
vt 0.731422 0.716409
vt 0.731422 0.486369
vt 0.797728 0.486369
vt 0.519231 0.890188
vt 0.519231 0.738632
vt 0.580124 0.738632
vt 0.580124 0.890188
vt 0.726604 0.842884
vt 0.660298 0.842884
vt 0.660298 0.680502
vt 0.726604 0.680502
vt 0.660298 0.508041
vt 0.726604 0.508041
vt 0.726604 0.670423
vt 0.660298 0.670423
vt 0.864034 0.486369
vt 0.864034 0.716409
vt 0.163824 0.958124
vt 0.163824 0.738909
vt 0.169236 0.733496
vt 0.169236 0.963536
vt 0.012267 0.738909
vt 0.012267 0.958124
vt 0.006855 0.963536
vt 0.006855 0.733496
vt 0.320793 0.733496
vt 0.320793 0.952711
vt 0.169236 0.952711
vt 0.169236 0.733496
vt 0.014662 0.947800
vt 0.014662 0.743426
vt 0.071432 0.743426
vt 0.071432 0.947800
vt 0.585889 0.888274
vt 0.585889 0.736718
vt 0.646782 0.736718
vt 0.646782 0.888274
vt 0.128203 0.743426
vt 0.128203 0.947800
vt 0.503729 0.936239
vt 0.509141 0.936239
vt 0.509141 0.936792
vt 0.503729 0.936792
vt 0.509141 0.892937
vt 0.503729 0.892937
vt 0.509141 0.845145
vt 0.509141 0.888446
vt 0.503729 0.888446
vt 0.503729 0.845145
vt 0.509141 0.937291
vt 0.503729 0.937291
vt 0.503729 0.843337
vt 0.509141 0.843337
vt 0.503729 0.841706
vt 0.509141 0.841706
vt 0.505177 0.958941
vt 0.505177 0.964354
vt 0.504781 0.964354
vt 0.504781 0.958941
vt 0.503729 0.942703
vt 0.505023 0.937291
vt 0.505023 0.942703
vt 0.504282 0.958941
vt 0.504282 0.964354
vt 0.503729 0.964354
vt 0.503729 0.958941
vt 0.506654 0.937291
vt 0.506654 0.942703
vt 0.503729 0.953529
vt 0.503729 0.948116
vt 0.507788 0.948116
vt 0.507788 0.953529
vt 0.508461 0.937291
vt 0.508461 0.942703
vt 0.503729 0.892384
vt 0.509141 0.892384
vt 0.503729 0.891885
vt 0.509141 0.891885
vt 0.509141 0.890254
vt 0.503729 0.890254
vt 0.509141 0.891885
vt 0.503729 0.891885
vt 0.504125 0.964354
vt 0.504125 0.969767
vt 0.503729 0.969767
vt 0.508461 0.948116
vt 0.507167 0.948116
vt 0.507167 0.942703
vt 0.504624 0.964354
vt 0.505177 0.969767
vt 0.504624 0.969767
vt 0.505537 0.948116
vt 0.505537 0.942703
vt 0.503729 0.737554
vt 0.504015 0.735747
vt 0.504846 0.734116
vt 0.506140 0.732822
vt 0.507771 0.731991
vt 0.509578 0.731705
vt 0.509578 0.735764
vt 0.509025 0.735852
vt 0.508526 0.736106
vt 0.508130 0.736502
vt 0.507876 0.737001
vt 0.507788 0.737554
vt 0.507788 0.780856
vt 0.507876 0.781409
vt 0.508130 0.781908
vt 0.508526 0.782304
vt 0.509025 0.782558
vt 0.509578 0.782646
vt 0.509578 0.786705
vt 0.507771 0.786419
vt 0.506140 0.785588
vt 0.504846 0.784294
vt 0.504015 0.782663
vt 0.503729 0.780856
vt 0.507788 0.958941
vt 0.503729 0.953529
vt 0.507788 0.953529
vt 0.503729 0.948116
vt 0.503729 0.835857
vt 0.503729 0.792555
vt 0.504015 0.790747
vt 0.504846 0.789117
vt 0.506140 0.787823
vt 0.507771 0.786992
vt 0.509578 0.790765
vt 0.509025 0.790853
vt 0.508526 0.791107
vt 0.508130 0.791503
vt 0.507876 0.792002
vt 0.507788 0.792555
vt 0.507788 0.835857
vt 0.507876 0.836410
vt 0.508130 0.836909
vt 0.508526 0.837305
vt 0.509025 0.837559
vt 0.509578 0.837647
vt 0.509578 0.841706
vt 0.507771 0.841420
vt 0.506140 0.840589
vt 0.504846 0.839295
vt 0.504015 0.837664
s 0
usemtl nightstand
f 171/396/67 170/397/67 174/398/67 175/399/67
f 174/400/68 179/401/68 180/402/68 175/403/68
f 172/404/69 176/405/69 184/406/69 182/407/69
f 170/408/69 177/409/69 179/410/69 174/411/69
f 178/412/70 171/413/70 175/414/70 180/415/70
f 177/403/71 170/416/71 171/417/71 178/400/71
f 172/418/72 169/419/72 177/420/72 178/421/72
f 173/422/72 176/423/72 180/424/72 179/425/72
f 176/423/72 172/418/72 178/421/72 180/424/72
f 169/419/72 173/422/72 179/425/72 177/420/72
f 181/426/72 182/427/72 184/428/72 183/429/72
f 169/430/68 172/431/68 182/432/68 181/433/68
f 173/434/70 169/435/70 181/436/70 183/437/70
f 176/433/71 173/432/71 183/438/71 184/439/71
s 1
f 188/440/73 187/441/73 191/442/74 192/443/74
f 211/444/75 187/441/73 188/440/73 212/445/75
f 185/446/76 209/447/77 210/448/77 186/449/76
f 192/443/74 191/442/74 195/450/78 196/451/78
f 185/446/76 186/449/76 190/452/79 189/453/79
f 189/453/79 190/452/79 194/454/80 193/455/80
f 196/456/78 195/457/78 199/458/81 200/459/81
f 193/460/80 194/451/80 198/461/82 197/462/82
f 204/463/83 203/464/83 207/465/84 208/466/84
f 200/459/81 199/458/81 203/464/83 204/463/83
f 197/462/82 198/461/82 202/467/85 201/468/85
f 205/469/71 206/470/71 208/471/71 207/472/71
f 201/468/85 202/467/85 206/473/86 205/474/86
f 212/445/75 216/475/87 215/476/87 211/444/75
f 216/475/87 220/477/88 219/478/88 215/476/87
f 209/447/77 213/479/89 214/480/89 210/448/77
f 213/479/89 217/481/90 218/482/90 214/480/89
f 220/465/88 224/483/91 223/484/91 219/485/88
f 217/486/90 221/487/92 222/488/92 218/474/90
f 228/489/93 232/457/94 231/490/94 227/491/93
f 224/483/91 228/489/93 227/491/93 223/484/91
f 221/487/92 225/492/95 226/493/95 222/488/92
f 185/494/67 189/495/67 193/496/67 197/497/67 201/498/67 205/499/67 207/500/67 203/501/67 199/502/67 195/503/67 191/504/67 187/505/67 211/506/67 215/507/67 219/508/67 223/509/67 227/510/67 231/511/67 229/512/67 225/513/67 221/514/67 217/515/67 213/516/67 209/517/67
f 229/518/71 231/466/71 232/519/71 230/520/71
f 225/492/95 229/521/96 230/460/96 226/493/95
f 186/522/72 210/523/72 214/524/72 218/525/72 222/526/72 226/527/72 230/512/72 232/528/72 228/529/72 224/530/72 220/531/72 216/532/72 212/533/72 188/534/72 192/535/72 196/536/72 200/537/72 204/538/72 208/539/72 206/540/72 202/541/72 198/542/72 194/543/72 190/544/72
