# Blender 5.0.0
# www.blender.org
mtllib shower_interior.mtl
o towel
v -0.042752 -0.173455 -0.359179
v 0.039683 -0.175955 -0.357535
v -0.041037 -0.172706 -0.559102
v 0.041291 -0.176984 -0.557462
v 0.050394 -0.076760 -0.357927
v -0.051955 -0.073455 -0.558892
v -0.052104 -0.074102 -0.358802
v 0.050409 -0.077626 -0.557996
v 0.040915 -0.125908 -0.357777
v -0.042121 -0.122656 -0.558930
v -0.045188 -0.023473 -0.358690
v 0.043465 -0.027046 -0.558183
v 0.042755 -0.026309 -0.358137
v -0.044491 -0.022902 -0.558721
v -0.043350 -0.123390 -0.358997
v 0.041693 -0.126920 -0.557709
v -0.041118 -0.173447 -0.359218
v 0.039290 -0.125744 -0.357816
v 0.038050 -0.175934 -0.357596
v 0.039657 -0.176983 -0.557422
v -0.040496 -0.122488 -0.558883
v -0.039404 -0.172688 -0.559033
v -0.043849 -0.024410 -0.358703
v 0.042091 -0.027932 -0.558175
v 0.041390 -0.027209 -0.358140
v 0.048759 -0.076729 -0.357939
v -0.043161 -0.023852 -0.558712
v -0.050321 -0.073415 -0.558871
v -0.041722 -0.123244 -0.359024
v -0.050470 -0.074071 -0.358811
v 0.040065 -0.126776 -0.557683
v 0.048775 -0.077598 -0.557987
v 0.000830 -0.000266 -0.358384
v -0.000904 -0.000203 -0.358395
v -0.000062 -0.000762 -0.358395
v 0.000438 -0.000099 -0.358387
v -0.000030 -0.000029 -0.358390
v -0.000501 -0.000065 -0.358393
v -0.000846 -0.000142 -0.558491
v 0.000887 -0.000213 -0.558481
v 0.000004 -0.000704 -0.558483
v -0.000442 -0.000006 -0.558489
v 0.000029 0.000029 -0.558486
v 0.000496 -0.000044 -0.558483
v -0.000973 -0.001837 -0.358405
v 0.000760 -0.001900 -0.358393
v -0.000570 -0.001699 -0.358402
v -0.000099 -0.001663 -0.358399
v 0.000368 -0.001733 -0.358396
v 0.000828 -0.001848 -0.558475
v -0.000904 -0.001776 -0.558486
v 0.000437 -0.001678 -0.558478
v -0.000030 -0.001605 -0.558481
v -0.000500 -0.001640 -0.558484
vn 0.9950 -0.0994 0.0044
vn 0.9998 -0.0196 0.0020
vn 0.8378 0.5460 0.0004
vn 0.8378 0.5459 0.0004
vn -0.9997 -0.0227 -0.0029
vn -0.9997 -0.0226 -0.0029
vn -0.9948 -0.1015 -0.0057
vn -0.8168 0.5769 -0.0006
vn -0.8169 0.5768 -0.0006
vn -0.9998 -0.0168 -0.0074
vn 0.9998 -0.0163 0.0060
vn -0.9998 0.0211 -0.0020
vn -0.9950 0.0996 -0.0044
vn -0.9998 0.0210 -0.0020
vn -0.8389 -0.5443 -0.0005
vn -0.8388 -0.5444 -0.0004
vn 0.9948 0.1017 0.0057
vn 0.9948 0.1018 0.0057
vn 0.9997 0.0242 0.0029
vn 0.9997 0.0244 0.0029
vn 0.9905 -0.1376 0.0017
vn 0.9998 0.0169 0.0074
vn -0.9998 0.0164 -0.0060
vn 0.0155 0.0032 -0.9999
vn 0.0156 0.0032 -0.9999
vn 0.0279 0.0043 -0.9996
vn 0.0353 0.0040 -0.9994
vn 0.0205 -0.0035 0.9998
vn 0.0158 -0.0028 0.9999
vn 0.0088 -0.0026 1.0000
vn 0.0024 -0.0063 1.0000
vn -0.0206 -0.0049 -0.9998
vn -0.0159 -0.0045 -0.9999
vn -0.0078 -0.0042 -1.0000
vn -0.0008 -0.0055 -1.0000
vn -0.0007 -0.0055 -1.0000
vn -0.0063 0.0011 1.0000
vn -0.0105 0.0045 0.9999
vn 0.0078 -1.0000 -0.0037
vn -0.0228 0.0055 0.9997
vn -0.0305 0.0054 0.9995
vn 0.0085 -0.0002 -1.0000
vn -0.0071 -1.0000 0.0051
vn -0.0073 -0.0026 1.0000
vn -0.0081 -0.0065 0.9999
vn -0.0055 -0.0055 1.0000
vn -0.0065 -0.0072 1.0000
vn -0.0049 -0.0067 1.0000
vn -0.0026 -0.0086 1.0000
vn 0.0065 -0.0026 -1.0000
vn 0.0066 -0.0037 -1.0000
vn 0.0054 -0.0039 -1.0000
vn 0.0060 -0.0039 -1.0000
vn 0.0054 -0.0037 -1.0000
vn 0.0036 -0.0058 -1.0000
vn 0.4635 0.8861 -0.0000
vn 0.4631 0.8863 -0.0000
vn 0.2741 0.9617 0.0003
vn 0.2750 0.9614 0.0003
vn 0.0380 0.9993 0.0003
vn 0.0388 0.9992 0.0003
vn -0.2004 0.9797 0.0002
vn -0.1995 0.9799 0.0002
vn -0.3941 0.9191 0.0004
vn -0.3937 0.9193 0.0004
vn -0.0024 -0.0087 1.0000
vn -0.0056 -0.0042 1.0000
vn -0.0067 -0.0038 1.0000
vn -0.0079 -0.0041 1.0000
vn -0.0070 -0.0016 1.0000
vn 0.0033 -0.0061 -1.0000
vn 0.0058 -0.0028 -1.0000
vn 0.0062 -0.0027 -1.0000
vn 0.0065 -0.0029 -1.0000
vn 0.0065 -0.0023 -1.0000
vn 0.3942 -0.9190 -0.0003
vn 0.3947 -0.9188 -0.0003
vn 0.2006 -0.9797 -0.0002
vn 0.1997 -0.9798 -0.0002
vn -0.0383 -0.9993 -0.0003
vn -0.0391 -0.9992 -0.0003
vn -0.2749 -0.9615 -0.0004
vn -0.2758 -0.9612 -0.0004
vn -0.4641 -0.8858 -0.0000
vn -0.4646 -0.8855 -0.0000
vn 0.4645 -0.8856 -0.0005
vt 0.120323 0.779154
vt 0.120531 0.995687
vt 0.067161 0.995815
vt 0.067112 0.779138
vt 0.012369 0.995764
vt 0.012460 0.779108
vt 0.231970 0.995263
vt 0.231888 0.778563
vt 0.285179 0.778632
vt 0.285356 0.995167
vt 0.177143 0.995199
vt 0.177143 0.778560
vt 0.339384 0.778596
vt 0.339577 0.995123
vt 0.174524 0.779108
vt 0.174751 0.995640
vt 0.119905 0.773339
vt 0.066648 0.773172
vt 0.066957 0.556709
vt 0.120035 0.556684
vt 0.173671 0.556670
vt 0.173698 0.773313
vt 0.398176 0.992489
vt 0.398389 0.776033
vt 0.451553 0.775940
vt 0.451447 0.992607
vt 0.505218 0.775932
vt 0.505218 0.992547
vt 0.343804 0.992427
vt 0.344020 0.776018
vt 0.012274 0.773092
vt 0.012601 0.556670
vt 0.401844 0.652221
vt 0.403357 0.652233
vt 0.410968 0.697945
vt 0.409458 0.698051
vt 0.410462 0.744436
vt 0.408950 0.744403
vt 0.490970 0.759139
vt 0.489201 0.759076
vt 0.491519 0.704750
vt 0.493277 0.704963
vt 0.502618 0.651810
vt 0.504386 0.651897
vt 0.497097 0.597833
vt 0.498578 0.596863
vt 0.485019 0.750851
vt 0.483507 0.750801
vt 0.485400 0.704348
vt 0.486902 0.704530
vt 0.494944 0.659097
vt 0.496455 0.659173
vt 0.490257 0.612932
vt 0.491555 0.612153
vt 0.403283 0.597016
vt 0.404731 0.598035
vt 0.395111 0.651395
vt 0.393340 0.651375
vt 0.515407 0.777415
vt 0.517175 0.777357
vt 0.517175 0.993884
vt 0.515407 0.993825
vt 0.403736 0.704768
vt 0.401970 0.704891
vt 0.403413 0.759139
vt 0.401643 0.759108
vt 0.410278 0.605662
vt 0.411481 0.606581
vt 0.011718 0.773143
vt 0.009949 0.773201
vt 0.009949 0.556670
vt 0.011718 0.556722
vt 0.449531 0.570214
vt 0.449961 0.570047
vt 0.450481 0.570781
vt 0.450470 0.569986
vt 0.450979 0.570042
vt 0.451411 0.570204
vt 0.451358 0.585916
vt 0.451736 0.585802
vt 0.452128 0.586462
vt 0.452173 0.585784
vt 0.452603 0.585866
vt 0.452960 0.586034
vt 0.227526 0.773306
vt 0.228255 0.556600
vt 0.228665 0.556599
vt 0.227938 0.773305
vt 0.229164 0.556597
vt 0.228438 0.773303
vt 0.229676 0.556596
vt 0.228950 0.773302
vt 0.230122 0.556596
vt 0.229395 0.773301
vt 0.278926 0.556533
vt 0.278926 0.773171
vt 0.184096 0.773426
vt 0.184176 0.556773
vt 0.451431 0.571975
vt 0.450999 0.571812
vt 0.450491 0.571757
vt 0.449983 0.571818
vt 0.449553 0.571986
vt 0.452856 0.587545
vt 0.452499 0.587376
vt 0.452069 0.587295
vt 0.451633 0.587313
vt 0.451255 0.587427
vt 0.338266 0.554729
vt 0.338975 0.771419
vt 0.338542 0.771418
vt 0.337834 0.554728
vt 0.338033 0.771417
vt 0.337325 0.554726
vt 0.337526 0.771415
vt 0.336817 0.554725
vt 0.337098 0.771414
vt 0.336387 0.554724
vt 0.383989 0.554888
vt 0.384043 0.771501
vt 0.291624 0.771253
vt 0.291624 0.554611
s 1
usemtl shower_interior
f 9/1/1 16/2/1 8/3/2 5/4/2
f 5/4/2 8/3/2 12/5/3 13/6/4
f 7/7/5 6/8/6 10/9/7 15/10/7
f 11/11/8 14/12/9 6/8/6 7/7/5
f 15/10/7 10/9/7 3/13/10 1/14/10
f 2/15/11 4/16/11 16/2/1 9/1/1
f 32/17/12 31/18/13 18/19/13 26/20/14
f 25/21/15 24/22/16 32/17/12 26/20/14
f 29/23/17 21/24/18 28/25/19 30/26/20
f 28/25/19 27/27/21 23/28/21 30/26/20
f 17/29/22 22/30/22 21/24/18 29/23/17
f 18/19/13 31/18/13 20/31/23 19/32/23
f 6/33/24 28/34/25 21/35/26 10/36/26
f 10/36/26 21/35/26 22/37/27 3/38/27
f 1/39/28 17/40/28 29/41/29 15/42/29
f 15/42/29 29/41/29 30/43/30 7/44/30
f 7/44/30 30/43/30 23/45/31 11/46/31
f 4/47/32 20/48/32 31/49/33 16/50/33
f 16/50/33 31/49/33 32/51/34 8/52/34
f 8/52/34 32/51/34 24/53/35 12/54/36
f 13/55/37 25/56/37 26/57/38 5/58/38
f 17/59/39 1/60/39 3/61/39 22/62/39
f 5/58/38 26/57/38 18/63/40 9/64/40
f 9/64/40 18/63/40 19/65/41 2/66/41
f 14/67/42 27/68/42 28/34/25 6/33/24
f 20/69/43 4/70/43 2/71/43 19/72/43
f 33/73/44 36/74/45 35/75/46
f 36/74/45 37/76/47 35/75/46
f 37/76/47 38/77/48 35/75/46
f 38/77/48 34/78/49 35/75/46
f 39/79/50 42/80/51 41/81/52
f 42/80/51 43/82/53 41/81/52
f 43/82/53 44/83/54 41/81/52
f 44/83/54 40/84/55 41/81/52
f 33/85/56 40/86/57 44/87/58 36/88/59
f 36/88/59 44/87/58 43/89/60 37/90/61
f 37/90/61 43/89/60 42/91/62 38/92/63
f 38/92/63 42/91/62 39/93/64 34/94/65
f 34/94/65 39/93/64 14/95/9 11/96/8
f 13/97/4 12/98/3 40/86/57 33/85/56
f 45/99/66 47/100/67 35/75/46
f 47/100/67 48/101/68 35/75/46
f 48/101/68 49/102/69 35/75/46
f 49/102/69 46/103/70 35/75/46
f 50/104/71 52/105/72 41/81/52
f 52/105/72 53/106/73 41/81/52
f 53/106/73 54/107/74 41/81/52
f 54/107/74 51/108/75 41/81/52
f 45/109/76 51/110/77 54/111/78 47/112/79
f 47/112/79 54/111/78 53/113/80 48/114/81
f 48/114/81 53/113/80 52/115/82 49/116/83
f 49/116/83 52/115/82 50/117/84 46/118/85
f 11/46/31 23/45/31 45/99/66 35/75/46 34/78/49
f 23/119/86 27/120/86 51/110/77 45/109/76
f 33/73/44 35/75/46 46/103/70 25/56/37 13/55/37
f 50/117/84 24/121/16 25/122/15 46/118/85
f 12/54/36 24/53/35 50/104/71 41/81/52 40/84/55
f 39/79/50 41/81/52 51/108/75 27/68/42 14/67/42
o tap
v 0.014400 0.015538 0.368082
v -0.000000 0.036000 0.368081
v 0.014400 0.010987 0.379069
v -0.000000 0.025456 0.393537
v 0.014400 -0.000000 0.383620
v -0.000000 0.000000 0.404081
v 0.014400 -0.010987 0.379069
v 0.000000 -0.025456 0.393537
v 0.014400 -0.015538 0.368082
v 0.000000 -0.036000 0.368081
v 0.014400 -0.010987 0.357094
v 0.000000 -0.025456 0.342625
v 0.014400 -0.000000 0.352543
v 0.000000 0.000000 0.332081
v 0.014400 0.010987 0.357094
v 0.000000 0.025456 0.342625
v 0.014400 0.029160 0.368082
v 0.014400 0.020619 0.388701
v 0.014400 0.000000 0.397242
v 0.014400 -0.020619 0.388701
v 0.014400 -0.029160 0.368082
v 0.014400 -0.020619 0.347462
v 0.014400 0.000000 0.338922
v 0.014400 0.020619 0.347462
v 0.059058 0.013216 0.368082
v 0.059058 0.009345 0.377426
v 0.059058 -0.000000 0.381297
v 0.059058 -0.009345 0.377426
v 0.059058 -0.013216 0.368082
v 0.059058 -0.009345 0.358737
v 0.059058 -0.000000 0.354866
v 0.059058 0.009345 0.358737
v 0.050371 0.017092 0.368082
v 0.050371 0.012086 0.355996
v 0.050371 -0.000000 0.350989
v 0.050371 -0.012086 0.355996
v 0.050371 -0.017092 0.368082
v 0.050371 -0.012086 0.380167
v 0.050371 -0.000000 0.385174
v 0.050371 0.012086 0.380167
v 0.062078 0.012136 0.368082
v 0.062078 0.008581 0.376663
v 0.062078 -0.000000 0.380217
v 0.062078 -0.008581 0.376663
v 0.062078 -0.012136 0.368082
v 0.062078 -0.008581 0.359500
v 0.062078 -0.000000 0.355946
v 0.062078 0.008581 0.359500
v 0.062078 0.013216 0.368082
v 0.062078 0.009345 0.377426
v 0.062078 -0.000000 0.381297
v 0.062078 -0.009345 0.377426
v 0.062078 -0.013216 0.368082
v 0.062078 -0.009345 0.358737
v 0.062078 -0.000000 0.354866
v 0.062078 0.009345 0.358737
v 0.069088 0.002606 0.368082
v 0.065828 0.012136 0.368082
v 0.068133 0.009345 0.368082
v 0.065828 0.008581 0.376663
v 0.069088 0.001843 0.369925
v 0.068133 0.006608 0.374689
v 0.065828 -0.000000 0.380217
v 0.069088 -0.000000 0.370688
v 0.068133 -0.000000 0.377426
v 0.065828 -0.008581 0.376663
v 0.069088 -0.001843 0.369925
v 0.068133 -0.006608 0.374689
v 0.065828 -0.012136 0.368082
v 0.069088 -0.002606 0.368082
v 0.068133 -0.009345 0.368082
v 0.065828 -0.008581 0.359500
v 0.069088 -0.001843 0.366238
v 0.068133 -0.006608 0.361474
v 0.065828 -0.000000 0.355946
v 0.069088 -0.000000 0.365475
v 0.068133 -0.000000 0.358737
v 0.065828 0.008581 0.359500
v 0.069088 0.001843 0.366238
v 0.068133 0.006608 0.361474
vn 0.4291 0.9033 -0.0000
vn 0.4291 0.6387 0.6387
vn 0.4290 -0.0000 0.9033
vn 0.4290 -0.6387 0.6387
vn 0.4291 -0.9033 -0.0000
vn 0.4291 -0.6387 -0.6387
vn 0.4291 -0.0000 -0.9033
vn -1.0000 -0.0000 -0.0000
vn 0.4291 0.6387 -0.6387
vn 1.0000 -0.0000 -0.0000
vn -0.0000 1.0000 -0.0000
vn -0.0000 0.7071 0.7071
vn 0.4075 0.6457 -0.6457
vn 0.4075 -0.0000 -0.9132
vn 0.1872 -0.0000 -0.9823
vn 0.1872 0.6946 -0.6946
vn 0.4075 -0.6457 -0.6457
vn 0.4075 -0.9132 -0.0000
vn 0.1872 -0.9823 -0.0000
vn 0.1871 -0.6946 -0.6946
vn 0.4075 -0.6457 0.6457
vn 0.4075 -0.0000 0.9132
vn 0.1872 -0.0000 0.9823
vn 0.1872 -0.6946 0.6946
vn 0.4075 0.9132 -0.0000
vn 0.1872 0.9823 -0.0000
vn 0.4075 0.6457 0.6457
vn 0.1872 0.6946 0.6946
vn -0.0432 0.9991 -0.0000
vn -0.0432 0.7064 0.7064
vn -0.0432 -0.0000 0.9991
vn -0.0432 -0.7064 0.7064
vn -0.0432 -0.9991 -0.0000
vn -0.0432 -0.7064 -0.7064
vn -0.0432 -0.0000 -0.9991
vn -0.0432 0.7064 -0.7064
vn -0.0000 0.7071 -0.7071
vn -0.0000 -0.7071 -0.7071
vn -0.0000 -0.0000 -1.0000
vn -0.0000 -0.7071 0.7071
vn -0.0000 -1.0000 -0.0000
vn -0.0000 -0.0000 1.0000
vn 0.7710 0.6369 -0.0000
vn 0.7710 0.4503 0.4503
vn 0.8894 0.3233 0.3233
vn 0.8894 0.4572 -0.0000
vn 0.9961 0.0621 0.0621
vn 0.9961 0.0878 -0.0000
vn 0.7710 -0.0000 0.6369
vn 0.8894 -0.0000 0.4572
vn 0.9961 -0.0000 0.0878
vn 0.7710 -0.4503 0.4503
vn 0.8894 -0.3233 0.3233
vn 0.9961 -0.0621 0.0621
vn 0.7710 -0.6369 -0.0000
vn 0.8894 -0.4572 -0.0000
vn 0.9961 -0.0878 -0.0000
vn 0.7710 -0.4503 -0.4503
vn 0.8894 -0.3233 -0.3233
vn 0.9961 -0.0621 -0.0621
vn 0.7710 -0.0000 -0.6369
vn 0.8894 -0.0000 -0.4572
vn 0.9961 -0.0000 -0.0878
vn 0.7710 0.4503 -0.4503
vn 0.8894 0.3233 -0.3233
vn 0.9961 0.0621 -0.0621
vt 0.123832 0.452453
vt 0.100778 0.449957
vt 0.103378 0.420430
vt 0.125938 0.428535
vt 0.258718 0.435909
vt 0.277406 0.427837
vt 0.281183 0.452723
vt 0.261778 0.456067
vt 0.281183 0.487918
vt 0.261778 0.484574
vt 0.277406 0.512804
vt 0.258718 0.504732
vt 0.160369 0.505857
vt 0.138362 0.515362
vt 0.133914 0.486056
vt 0.156766 0.482119
vt 0.133914 0.444611
vt 0.156766 0.448548
vt 0.072379 0.354398
vt 0.101685 0.383704
vt 0.101685 0.425150
vt 0.072379 0.454456
vt 0.030934 0.454456
vt 0.001628 0.425150
vt 0.001628 0.383704
vt 0.030934 0.354398
vt 0.138362 0.415305
vt 0.160369 0.424810
vt 0.125938 0.485957
vt 0.103378 0.491320
vt 0.235745 0.484592
vt 0.235745 0.466704
vt 0.254675 0.458863
vt 0.254675 0.492433
vt 0.223096 0.497241
vt 0.230937 0.516171
vt 0.205207 0.497241
vt 0.197366 0.516171
vt 0.192558 0.484592
vt 0.173628 0.492433
vt 0.192558 0.466704
vt 0.173628 0.458863
vt 0.205207 0.454055
vt 0.197366 0.435125
vt 0.223096 0.454055
vt 0.230937 0.435125
vt 0.772888 0.165700
vt 0.783769 0.165852
vt 0.784380 0.170299
vt 0.773500 0.170147
vt 0.378687 0.017769
vt 0.389371 0.019836
vt 0.386586 0.033467
vt 0.372769 0.030795
vt 0.404573 0.020451
vt 0.415389 0.019255
vt 0.420235 0.032716
vt 0.406247 0.034263
vt 0.715132 0.018279
vt 0.730346 0.018279
vt 0.732578 0.032013
vt 0.712900 0.032013
vt 0.757815 0.167773
vt 0.753734 0.154471
vt 0.773228 0.151791
vt 0.704373 0.016646
vt 0.698986 0.029901
vt 0.741105 0.016646
vt 0.746492 0.029901
vt 0.765101 0.099255
vt 0.777894 0.099434
vt 0.787300 0.151987
vt 0.731683 0.085165
vt 0.713795 0.085165
vt 0.415920 0.085930
vt 0.403204 0.087336
vt 0.385330 0.086613
vt 0.372769 0.084183
vt 0.744332 0.083246
vt 0.701146 0.083246
vt 0.747379 0.101692
vt 0.758427 0.172220
vt 0.389552 0.015350
vt 0.404755 0.015965
vt 0.704373 0.012157
vt 0.715132 0.013790
vt 0.730346 0.013790
vt 0.741105 0.012157
vt 0.747379 0.170856
vt 0.747991 0.175303
vt 0.415570 0.014769
vt 0.782542 0.032009
vt 0.782542 0.018037
vt 0.784043 0.017415
vt 0.784043 0.032630
vt 0.772663 0.041888
vt 0.773284 0.043389
vt 0.758691 0.041888
vt 0.758070 0.043389
vt 0.748812 0.032009
vt 0.747311 0.032630
vt 0.748812 0.018037
vt 0.747311 0.017415
vt 0.758691 0.008158
vt 0.758070 0.006657
vt 0.772663 0.008158
vt 0.773284 0.006657
vt 0.807894 0.006657
vt 0.817773 0.016536
vt 0.813894 0.018143
vt 0.806287 0.010536
vt 0.804530 0.022022
vt 0.802408 0.019900
vt 0.817773 0.030508
vt 0.813894 0.028901
vt 0.804530 0.025023
vt 0.773773 0.063291
vt 0.773773 0.077263
vt 0.769756 0.075656
vt 0.769756 0.064898
vt 0.806287 0.036509
vt 0.802408 0.027144
vt 0.807894 0.040387
vt 0.793922 0.040387
vt 0.795529 0.036509
vt 0.799408 0.027144
vt 0.784043 0.030508
vt 0.787922 0.028901
vt 0.797286 0.025023
vt 0.784923 0.077263
vt 0.784923 0.063291
vt 0.788940 0.064898
vt 0.788940 0.075656
vt 0.787922 0.018143
vt 0.797286 0.022022
vt 0.784043 0.016536
vt 0.793922 0.006657
vt 0.795529 0.010536
vt 0.799408 0.019900
vt 0.765740 0.077263
vt 0.765740 0.063291
vt 0.760165 0.063291
vt 0.761664 0.053412
vt 0.767239 0.053412
vt 0.760165 0.077263
vt 0.777849 0.053412
vt 0.779348 0.063291
vt 0.772274 0.053412
vt 0.779348 0.077263
vt 0.777849 0.087142
vt 0.772274 0.087142
vt 0.780847 0.087142
vt 0.779348 0.077263
vt 0.786422 0.087142
vt 0.761664 0.087142
vt 0.767239 0.087142
s 1
usemtl shower_interior
f 71/123/87 56/124/87 58/125/88 72/126/88
f 72/127/88 58/128/88 60/129/89 73/130/89
f 73/130/89 60/129/89 62/131/90 74/132/90
f 74/132/90 62/131/90 64/133/91 75/134/91
f 75/135/91 64/136/91 66/137/92 76/138/92
f 76/138/92 66/137/92 68/139/93 77/140/93
f 58/141/94 56/142/94 70/143/94 68/144/94 66/145/94 64/146/94 62/147/94 60/148/94
f 77/140/93 68/139/93 70/149/95 78/150/95
f 78/151/95 70/152/95 56/124/87 71/123/87
f 57/153/96 55/154/96 71/155/96 72/156/96
f 59/157/96 57/153/96 72/156/96 73/158/96
f 61/159/96 59/157/96 73/158/96 74/160/96
f 63/161/96 61/159/96 74/160/96 75/162/96
f 65/163/96 63/161/96 75/162/96 76/164/96
f 67/165/96 65/163/96 76/164/96 77/166/96
f 69/167/96 67/165/96 77/166/96 78/168/96
f 55/154/96 69/167/96 78/168/96 71/155/96
f 79/169/97 80/170/98 104/171/98 103/172/97
f 86/173/99 85/174/100 89/175/101 88/176/102
f 84/177/103 83/178/104 91/179/105 90/180/106
f 82/181/107 81/182/108 93/183/109 92/184/110
f 79/169/111 86/185/99 88/186/102 87/187/112
f 85/174/100 84/177/103 90/180/106 89/175/101
f 83/188/104 82/181/107 92/184/110 91/189/105
f 81/182/108 80/190/113 94/191/114 93/183/109
f 55/192/115 57/193/116 94/194/114 87/187/112
f 59/195/117 61/196/118 92/184/110 93/183/109
f 63/197/119 65/198/120 90/180/106 91/179/105
f 67/199/121 69/200/122 88/176/102 89/175/101
f 57/201/116 59/195/117 93/183/109 94/191/114
f 61/196/118 63/202/119 91/189/105 92/184/110
f 65/198/120 67/199/121 89/175/101 90/180/106
f 69/203/122 55/192/115 87/187/112 88/186/102
f 86/185/123 79/169/97 103/172/97 110/204/123
f 84/177/124 85/174/125 109/205/125 108/206/124
f 82/181/126 83/188/127 107/207/127 106/208/126
f 80/190/98 81/182/128 105/209/128 104/210/98
f 85/211/125 86/185/123 110/204/123 109/212/125
f 83/178/127 84/177/124 108/206/124 107/213/127
f 81/182/128 82/181/126 106/208/126 105/209/128
f 96/214/96 95/215/96 103/216/96 104/217/96
f 97/218/96 96/214/96 104/217/96 105/219/96
f 98/220/96 97/218/96 105/219/96 106/221/96
f 99/222/96 98/220/96 106/221/96 107/223/96
f 100/224/96 99/222/96 107/223/96 108/225/96
f 101/226/96 100/224/96 108/225/96 109/227/96
f 102/228/96 101/226/96 109/227/96 110/229/96
f 95/215/96 102/228/96 110/229/96 103/216/96
f 112/230/129 114/231/130 116/232/131 113/233/132
f 113/233/132 116/232/131 115/234/133 111/235/134
f 114/231/130 117/236/135 119/237/136 116/232/131
f 116/232/131 119/237/136 118/238/137 115/234/133
f 117/239/135 120/240/138 122/241/139 119/242/136
f 119/237/136 122/243/139 121/244/140 118/238/137
f 120/245/138 123/246/141 125/247/142 122/243/139
f 122/243/139 125/247/142 124/248/143 121/244/140
f 123/246/141 126/249/144 128/250/145 125/247/142
f 125/247/142 128/250/145 127/251/146 124/248/143
f 126/252/144 129/253/147 131/254/148 128/255/145
f 128/250/145 131/256/148 130/257/149 127/251/146
f 129/258/147 132/259/150 134/260/151 131/256/148
f 131/256/148 134/260/151 133/261/152 130/257/149
f 132/262/150 112/263/129 113/242/132 134/241/151
f 134/260/151 113/233/132 111/235/134 133/261/152
f 95/264/97 96/265/98 114/266/98 112/263/97
f 111/235/134 115/234/133 118/238/137 121/244/140 124/248/143 127/251/146 130/257/149 133/261/152
f 102/267/123 95/264/97 112/263/97 132/262/123
f 96/268/98 97/269/128 117/239/128 114/270/98
f 97/269/128 98/271/126 120/240/126 117/239/128
f 98/271/126 99/272/127 123/273/127 120/240/126
f 99/274/127 100/275/124 126/252/124 123/276/127
f 100/275/124 101/269/125 129/253/125 126/252/124
f 101/277/125 102/267/123 132/262/123 129/278/125
f 80/170/113 79/169/111 87/187/112 94/194/114
o shower
v 0.020000 0.020206 0.505501
v -0.000000 0.060000 0.505501
v 0.020000 0.014288 0.519788
v -0.000000 0.042426 0.547927
v 0.020000 0.000000 0.525706
v -0.000000 -0.000000 0.565501
v 0.020000 -0.014288 0.519788
v -0.000000 -0.042426 0.547927
v 0.020000 -0.020206 0.505501
v -0.000000 -0.060000 0.505501
v 0.020000 -0.014288 0.491213
v -0.000000 -0.042426 0.463074
v 0.020000 0.000000 0.485295
v -0.000000 -0.000000 0.445501
v 0.020000 0.014288 0.491213
v -0.000000 0.042426 0.463074
v 0.020000 0.060000 0.505501
v 0.020000 0.042426 0.547927
v 0.020000 0.000000 0.565501
v 0.020000 -0.042426 0.547927
v 0.020000 -0.060000 0.505501
v 0.020000 -0.042426 0.463074
v 0.020000 0.000000 0.445501
v 0.020000 0.042426 0.463074
v 0.120000 0.020206 0.505501
v 0.120000 0.014288 0.519788
v 0.120000 0.000000 0.525706
v 0.120000 -0.014288 0.519788
v 0.120000 -0.020206 0.505501
v 0.120000 -0.014288 0.491213
v 0.120000 0.000000 0.485295
v 0.120000 0.014288 0.491213
v 0.141521 0.017563 0.505501
v 0.140089 0.011821 0.519789
v 0.136632 -0.002043 0.525707
v 0.133176 -0.015906 0.519789
v 0.131744 -0.021648 0.505501
v 0.133176 -0.015906 0.491214
v 0.136632 -0.002043 0.485295
v 0.140089 0.011821 0.491214
v 0.161763 0.009792 0.505502
v 0.158984 0.004567 0.519789
v 0.152277 -0.008048 0.525707
v 0.145569 -0.020663 0.519789
v 0.142791 -0.025889 0.505502
v 0.145569 -0.020663 0.491214
v 0.152277 -0.008048 0.485296
v 0.158984 0.004567 0.491214
v 0.179523 -0.002644 0.505502
v 0.175563 -0.007042 0.519790
v 0.166003 -0.017660 0.525708
v 0.156443 -0.028278 0.519790
v 0.152483 -0.032676 0.505502
v 0.156443 -0.028278 0.491214
v 0.166003 -0.017660 0.485296
v 0.175563 -0.007042 0.491214
v 0.193748 -0.019009 0.505502
v 0.188842 -0.022318 0.519790
v 0.176997 -0.030307 0.525708
v 0.165152 -0.038297 0.519790
v 0.160246 -0.041606 0.505502
v 0.165152 -0.038297 0.491215
v 0.176997 -0.030307 0.485297
v 0.188842 -0.022318 0.491215
v 0.203591 -0.038328 0.505503
v 0.198030 -0.040352 0.519790
v 0.184604 -0.045238 0.525709
v 0.171178 -0.050125 0.519790
v 0.165617 -0.052149 0.505503
v 0.171178 -0.050125 0.491215
v 0.184604 -0.045238 0.485297
v 0.198030 -0.040352 0.491215
v 0.261722 -0.109426 0.505502
v 0.247819 -0.114486 0.541221
v 0.214254 -0.126703 0.556016
v 0.180690 -0.138919 0.541221
v 0.166787 -0.143979 0.505502
v 0.180690 -0.138919 0.469783
v 0.214254 -0.126703 0.454988
v 0.247819 -0.114486 0.469783
v 0.250874 -0.124016 0.505502
v 0.241150 -0.127555 0.530484
v 0.217675 -0.136100 0.540832
v 0.194199 -0.144644 0.530484
v 0.184476 -0.148183 0.505502
v 0.194199 -0.144644 0.480521
v 0.217675 -0.136100 0.470173
v 0.241150 -0.127555 0.480521
v 0.227924 -0.098377 0.505502
v 0.221581 -0.100686 0.521799
v 0.206267 -0.106259 0.528549
v 0.190953 -0.111833 0.521799
v 0.184609 -0.114142 0.505502
v 0.190953 -0.111833 0.489206
v 0.206267 -0.106259 0.482455
v 0.221581 -0.100686 0.489206
v 0.237264 -0.094217 0.505503
v 0.213291 -0.064977 0.505503
v 0.223105 -0.081215 0.505503
v 0.207729 -0.067001 0.519790
v 0.228255 -0.097496 0.528648
v 0.216534 -0.083606 0.522385
v 0.194303 -0.071887 0.525709
v 0.206505 -0.105412 0.538235
v 0.200670 -0.089380 0.529377
v 0.180878 -0.076774 0.519790
v 0.184756 -0.113328 0.528648
v 0.184807 -0.095154 0.522385
v 0.175316 -0.078798 0.505503
v 0.175747 -0.116607 0.505503
v 0.178236 -0.097546 0.505503
v 0.180878 -0.076774 0.491215
v 0.184756 -0.113328 0.482357
v 0.184807 -0.095154 0.488621
v 0.194303 -0.071887 0.485297
v 0.206505 -0.105412 0.472770
v 0.200670 -0.089380 0.481628
v 0.207729 -0.067001 0.491215
v 0.228255 -0.097496 0.482357
v 0.216534 -0.083606 0.488621
v 0.258981 -0.121065 0.505502
v 0.263071 -0.113130 0.505502
v 0.262731 -0.117812 0.505502
v 0.249168 -0.118191 0.541221
v 0.246883 -0.125469 0.536585
v 0.249357 -0.122680 0.539863
v 0.215603 -0.130407 0.556016
v 0.217675 -0.136100 0.549460
v 0.217068 -0.134432 0.554096
v 0.182038 -0.142624 0.541221
v 0.188466 -0.146730 0.536585
v 0.184779 -0.146184 0.539863
v 0.168135 -0.147684 0.505502
v 0.176368 -0.151134 0.505502
v 0.171405 -0.151052 0.505502
v 0.182038 -0.142624 0.469783
v 0.188466 -0.146730 0.474420
v 0.184779 -0.146184 0.471141
v 0.215603 -0.130407 0.454988
v 0.217675 -0.136100 0.461545
v 0.217068 -0.134432 0.456909
v 0.249168 -0.118191 0.469783
v 0.246883 -0.125469 0.474420
v 0.249357 -0.122680 0.471141
v 0.215321 -0.083870 0.505502
v 0.210872 -0.085490 0.516933
v 0.200130 -0.089399 0.521668
v 0.189388 -0.093309 0.516933
v 0.184939 -0.094928 0.505502
v 0.189388 -0.093309 0.494071
v 0.200130 -0.089399 0.489337
v 0.210872 -0.085490 0.494071
vn -0.0000 1.0000 -0.0000
vn -0.0000 0.7071 0.7071
vn -0.0000 -0.0000 1.0000
vn -0.0000 -0.7071 0.7071
vn -0.0000 -1.0000 -0.0000
vn -0.0000 -0.7071 -0.7071
vn -0.0000 -0.0000 -1.0000
vn -1.0000 -0.0000 -0.0000
vn -0.0000 0.7071 -0.7071
vn 0.0018 0.0149 -0.9999
vn -0.0428 -0.6987 -0.7141
vn 1.0000 -0.0000 -0.0000
vn 0.0437 0.7135 -0.6993
vn 0.0602 0.9982 -0.0000
vn 0.2419 0.9703 -0.0000
vn 0.1745 0.6999 -0.6926
vn -0.0620 -0.9981 -0.0000
vn -0.0428 -0.6987 0.7141
vn 0.0018 0.0149 0.9999
vn 0.0437 0.7135 0.6993
vn 0.1745 0.6999 0.6926
vn 0.0072 0.0289 0.9996
vn 0.0139 0.0263 0.9996
vn 0.3387 0.6369 0.6926
vn 0.0072 0.0288 -0.9996
vn -0.1673 -0.6711 -0.7223
vn -0.2420 -0.9703 -0.0000
vn -0.1674 -0.6711 0.7223
vn 0.3387 0.6369 -0.6926
vn 0.4695 0.8829 -0.0000
vn 0.6691 0.7431 -0.0000
vn 0.4827 0.5361 -0.6926
vn 0.0140 0.0262 -0.9996
vn -0.3247 -0.6107 -0.7223
vn -0.4695 -0.8829 -0.0000
vn -0.3247 -0.6106 0.7223
vn 0.0199 0.0221 0.9996
vn -0.4628 -0.5139 0.7223
vn -0.5734 -0.3867 0.7223
vn 0.0246 0.0166 0.9996
vn 0.0199 0.0221 -0.9996
vn -0.4628 -0.5140 -0.7223
vn -0.6692 -0.7431 -0.0000
vn 0.4827 0.5361 0.6926
vn 0.0247 0.0166 -0.9996
vn 0.5981 0.4034 -0.6926
vn 0.6555 0.2851 -0.6993
vn 0.0133 0.0068 -0.9999
vn 0.5980 0.4034 0.6926
vn 0.8290 0.5592 -0.0000
vn -0.5734 -0.3868 -0.7223
vn -0.8291 -0.5592 -0.0000
vn -0.6419 -0.2792 -0.7141
vn -0.9167 -0.3996 -0.0000
vn -0.6419 -0.2792 0.7141
vn 0.0133 0.0068 0.9999
vn 0.6555 0.2851 0.6993
vn 0.9174 0.3979 -0.0000
vn -0.4933 -0.5713 0.6560
vn -0.7451 -0.6669 -0.0000
vn -0.4901 -0.5701 0.6594
vn 0.1225 -0.3365 0.9337
vn -0.4979 -0.5623 0.6602
vn -0.2578 -0.8139 0.5206
vn 0.2314 -0.6359 0.7363
vn 0.7407 -0.1025 0.6640
vn 0.1199 -0.3383 0.9334
vn 0.1264 -0.3359 0.9334
vn 0.7439 -0.1012 0.6605
vn 0.7407 -0.1025 -0.6640
vn 1.0000 -0.0039 -0.0000
vn 0.7439 -0.1012 -0.6605
vn -0.4933 -0.5713 -0.6560
vn 0.1199 -0.3383 -0.9334
vn 0.1264 -0.3359 -0.9334
vn -0.4901 -0.5701 -0.6594
vn 0.9010 0.4338 -0.0000
vn 0.6271 0.3342 0.7036
vn 0.5076 0.5484 0.6645
vn 0.7663 0.6425 -0.0000
vn 0.3652 0.7204 0.5896
vn 0.5947 0.8040 -0.0000
vn -0.0340 0.0935 0.9950
vn -0.1169 0.3211 0.9398
vn -0.1888 0.5188 0.8338
vn -0.6952 -0.1471 0.7036
vn -0.7413 0.0938 0.6645
vn -0.7428 0.3172 0.5896
vn -0.9691 -0.2468 -0.0000
vn -1.0000 -0.0003 -0.0000
vn -0.9723 0.2336 -0.0000
vn -0.6952 -0.1471 -0.7036
vn -0.7413 0.0938 -0.6645
vn -0.7428 0.3172 -0.5896
vn -0.0340 0.0935 -0.9950
vn -0.1169 0.3211 -0.9398
vn -0.1888 0.5188 -0.8338
vn 0.6271 0.3342 -0.7036
vn 0.5076 0.5484 -0.6645
vn 0.3652 0.7205 -0.5896
vn 0.5289 0.5164 0.6736
vn 0.7910 0.6118 -0.0000
vn 0.5288 0.5164 -0.6736
vn -0.1041 0.2860 0.9526
vn -0.7370 0.0556 0.6736
vn -0.9992 -0.0398 -0.0000
vn -0.7370 0.0556 -0.6736
vn -0.1041 0.2860 -0.9526
vn 0.9890 0.1477 -0.0000
vn 0.7193 0.0496 0.6929
vn 0.7191 -0.4645 0.5169
vn 0.9203 -0.3913 -0.0000
vn 0.4827 -0.8613 0.1590
vn 0.5445 -0.8387 -0.0000
vn 0.0682 -0.1874 0.9799
vn 0.2334 -0.6413 0.7310
vn 0.3333 -0.9156 0.2248
vn -0.5829 -0.4244 0.6929
vn -0.2523 -0.8180 0.5169
vn 0.1839 -0.9700 0.1590
vn -0.8526 -0.5226 -0.0000
vn -0.4535 -0.8913 -0.0000
vn 0.1220 -0.9925 -0.0000
vn -0.5829 -0.4244 -0.6929
vn -0.2523 -0.8180 -0.5169
vn 0.1839 -0.9700 -0.1590
vn 0.0682 -0.1874 -0.9799
vn 0.2334 -0.6413 -0.7310
vn 0.3333 -0.9156 -0.2248
vn 0.7193 0.0496 -0.6929
vn 0.7191 -0.4645 -0.5169
vn 0.4827 -0.8613 -0.1590
vn 0.3420 -0.9397 -0.0000
vn -0.4604 -0.8877 -0.0000
vn -0.2578 -0.8139 -0.5206
vn 0.2314 -0.6359 -0.7363
vn 0.7207 -0.4578 -0.5206
vn 0.9233 -0.3841 -0.0000
vn 0.7207 -0.4578 0.5206
vn 0.9999 -0.0172 -0.0000
vn 0.7429 -0.1107 0.6602
vn 0.1225 -0.3365 -0.9337
vn 0.7429 -0.1107 -0.6602
vn -0.7549 -0.6558 -0.0000
vn -0.4979 -0.5623 -0.6602
vt 0.221336 0.009783
vt 0.251354 0.009880
vt 0.254599 0.056311
vt 0.224581 0.056214
vt 0.254599 0.125306
vt 0.224581 0.125209
vt 0.251354 0.176447
vt 0.221336 0.176350
vt 0.297155 0.145585
vt 0.267465 0.144839
vt 0.263206 0.085797
vt 0.292897 0.086543
vt 0.267465 0.018725
vt 0.297155 0.019471
vt 0.212956 0.174038
vt 0.182939 0.174134
vt 0.179693 0.122992
vt 0.209711 0.122896
vt 0.122418 0.177055
vt 0.171155 0.225969
vt 0.171155 0.295018
vt 0.122418 0.343755
vt 0.053494 0.343630
vt 0.004757 0.294717
vt 0.004757 0.225667
vt 0.053494 0.176930
vt 0.179693 0.053998
vt 0.209711 0.053901
vt 0.182939 0.007567
vt 0.212956 0.007470
vt 0.579078 0.037595
vt 0.591965 0.026116
vt 0.684873 0.143990
vt 0.671986 0.155468
vt 0.114988 0.101397
vt 0.114988 0.078142
vt 0.170194 0.055322
vt 0.170194 0.124376
vt 0.098568 0.117817
vt 0.121435 0.173135
vt 0.075347 0.117784
vt 0.052480 0.173036
vt 0.058927 0.101317
vt 0.003721 0.124137
vt 0.058927 0.078062
vt 0.003721 0.055082
vt 0.075347 0.061642
vt 0.052480 0.006323
vt 0.098568 0.061675
vt 0.121435 0.006423
vt 0.703167 0.129666
vt 0.716152 0.120887
vt 0.733263 0.148640
vt 0.719139 0.155573
vt 0.360639 0.208605
vt 0.340833 0.210864
vt 0.338387 0.062384
vt 0.358193 0.060125
vt 0.540260 0.015388
vt 0.558554 0.029712
vt 0.465645 0.147585
vt 0.447351 0.133261
vt 0.610259 0.011792
vt 0.318205 0.210370
vt 0.315760 0.061890
vt 0.571440 0.041190
vt 0.478532 0.159063
vt 0.527275 0.006609
vt 0.434366 0.124482
vt 0.623244 0.003013
vt 0.431379 0.159168
vt 0.452421 0.169035
vt 0.444440 0.192898
vt 0.421739 0.187991
vt 0.698097 0.165439
vt 0.682462 0.172460
vt 0.338444 0.045282
vt 0.358257 0.040937
vt 0.315824 0.042703
vt 0.468056 0.176056
vt 0.417256 0.152235
vt 0.728780 0.184395
vt 0.743590 0.179516
vt 0.746521 0.211682
vt 0.731515 0.214420
vt 0.706079 0.189303
vt 0.316656 0.025408
vt 0.339186 0.029866
vt 0.461734 0.194960
vt 0.406929 0.183112
vt 0.688785 0.191364
vt 0.359089 0.023643
vt 0.442175 0.217758
vt 0.459940 0.214653
vt 0.462781 0.233965
vt 0.445762 0.242136
vt 0.708344 0.214162
vt 0.690579 0.211057
vt 0.340567 0.017054
vt 0.360639 0.009268
vt 0.419004 0.218016
vt 0.318205 0.011034
vt 0.403998 0.215277
vt 0.704757 0.238540
vt 0.727184 0.243865
vt 0.716043 0.270979
vt 0.695533 0.260989
vt 0.524015 0.144320
vt 0.545506 0.150543
vt 0.545506 0.174745
vt 0.524015 0.170247
vt 0.502524 0.150543
vt 0.502524 0.174745
vt 0.687738 0.230369
vt 0.589024 0.138991
vt 0.607176 0.144204
vt 0.607175 0.156225
vt 0.589024 0.152477
vt 0.423335 0.247461
vt 0.625327 0.138991
vt 0.625326 0.152477
vt 0.625326 0.168013
vt 0.607174 0.170073
vt 0.470089 0.251749
vt 0.454987 0.264585
vt 0.545507 0.202697
vt 0.524016 0.200191
vt 0.502525 0.202697
vt 0.680431 0.248153
vt 0.589023 0.168013
vt 0.434477 0.274576
vt 0.231938 0.418622
vt 0.236203 0.381045
vt 0.277138 0.381045
vt 0.274356 0.405558
vt 0.151904 0.370831
vt 0.140278 0.351442
vt 0.165834 0.351210
vt 0.173989 0.364810
vt 0.123662 0.419072
vt 0.112295 0.380837
vt 0.159319 0.395774
vt 0.394336 0.308460
vt 0.356759 0.312841
vt 0.356759 0.261754
vt 0.381272 0.258896
vt 0.385821 0.320782
vt 0.381176 0.355125
vt 0.340833 0.361563
vt 0.343864 0.339159
vt 0.094473 0.351115
vt 0.319182 0.308460
vt 0.332246 0.258896
vt 0.385821 0.394743
vt 0.343864 0.387407
vt 0.231938 0.343468
vt 0.274356 0.356532
vt 0.524016 0.241124
vt 0.545507 0.243629
vt 0.549409 0.269400
vt 0.524016 0.266439
vt 0.558830 0.291373
vt 0.524016 0.287314
vt 0.454544 0.310071
vt 0.475054 0.300081
vt 0.489902 0.324264
vt 0.465668 0.336068
vt 0.506021 0.347748
vt 0.472796 0.363931
vt 0.490156 0.287245
vt 0.507747 0.309097
vt 0.530486 0.326954
vt 0.589023 0.202662
vt 0.607174 0.204722
vt 0.607174 0.228744
vt 0.585727 0.226310
vt 0.607175 0.252672
vt 0.577770 0.249335
vt 0.625326 0.202662
vt 0.628622 0.226310
vt 0.636579 0.249335
vt 0.660364 0.283649
vt 0.675466 0.296485
vt 0.660617 0.320668
vt 0.642773 0.305501
vt 0.644498 0.344152
vt 0.620033 0.323358
vt 0.695976 0.306475
vt 0.684851 0.332472
vt 0.677723 0.360335
vt 0.502525 0.243629
vt 0.498622 0.269400
vt 0.489201 0.291373
vt 0.450274 0.366024
vt 0.478903 0.405357
vt 0.444146 0.408587
vt 0.700245 0.362429
vt 0.706373 0.404992
vt 0.671616 0.401761
vt 0.530177 0.380382
vt 0.567932 0.348292
vt 0.607175 0.286544
vt 0.561797 0.281394
vt 0.652553 0.281394
vt 0.620342 0.376786
vt 0.582586 0.344695
vt 0.385779 0.154393
vt 0.379514 0.208121
vt 0.372757 0.206078
vt 0.378783 0.154393
vt 0.314276 0.238399
vt 0.314276 0.294198
vt 0.308617 0.291829
vt 0.308618 0.241354
vt 0.481692 0.410292
vt 0.532966 0.385317
vt 0.535120 0.390216
vt 0.485795 0.414242
vt 0.275773 0.334306
vt 0.273788 0.328110
vt 0.570722 0.353226
vt 0.571440 0.359346
vt 0.221322 0.335227
vt 0.224532 0.328944
vt 0.561797 0.286211
vt 0.607175 0.291361
vt 0.607175 0.295926
vt 0.563522 0.290972
vt 0.182819 0.296423
vt 0.189703 0.293841
vt 0.652553 0.286211
vt 0.650828 0.290972
vt 0.182819 0.240624
vt 0.189703 0.243366
vt 0.579797 0.349630
vt 0.617552 0.381720
vt 0.615398 0.386620
vt 0.579078 0.355750
vt 0.221322 0.200516
vt 0.224532 0.207085
vt 0.668826 0.406696
vt 0.664723 0.410646
vt 0.275773 0.199594
vt 0.273788 0.206251
vt 0.379514 0.100665
vt 0.372757 0.102708
vt 0.296947 0.287073
vt 0.296947 0.246505
vt 0.385205 0.100665
vt 0.391469 0.154393
vt 0.385205 0.208121
vt 0.268954 0.218292
vt 0.268954 0.316233
vt 0.229366 0.316903
vt 0.201373 0.288690
vt 0.201373 0.248122
vt 0.229366 0.218962
vt 0.223376 0.348765
vt 0.223376 0.367328
vt 0.210567 0.380670
vt 0.192453 0.380977
vt 0.179644 0.368067
vt 0.179644 0.349505
vt 0.192453 0.336162
vt 0.210567 0.335855
vt 0.339565 0.230938
vt 0.356759 0.232943
vt 0.320290 0.382875
vt 0.318164 0.364747
vt 0.298306 0.363851
vt 0.300257 0.381045
vt 0.298306 0.398239
vt 0.179190 0.382305
vt 0.373953 0.230938
vt 0.320290 0.349033
s 1
usemtl shower_interior
f 151/279/153 136/280/153 138/281/154 152/282/154
f 152/282/154 138/281/154 140/283/155 153/284/155
f 153/284/155 140/283/155 142/285/156 154/286/156
f 154/287/156 142/288/156 144/289/157 155/290/157
f 155/290/157 144/289/157 146/291/158 156/292/158
f 156/293/158 146/294/158 148/295/159 157/296/159
f 138/297/160 136/298/160 150/299/160 148/300/160 146/301/160 144/302/160 142/303/160 140/304/160
f 157/296/159 148/295/159 150/305/161 158/306/161
f 158/306/161 150/305/161 136/307/153 151/308/153
f 145/309/158 147/310/159 165/311/162 164/312/163
f 137/313/164 135/314/164 151/315/164 152/316/164
f 139/317/164 137/313/164 152/316/164 153/318/164
f 141/319/164 139/317/164 153/318/164 154/320/164
f 143/321/164 141/319/164 154/320/164 155/322/164
f 145/323/164 143/321/164 155/322/164 156/324/164
f 147/325/164 145/323/164 156/324/164 157/326/164
f 149/327/164 147/325/164 157/326/164 158/328/164
f 135/314/164 149/327/164 158/328/164 151/315/164
f 166/329/165 159/330/166 167/331/167 174/332/168
f 141/333/156 143/334/157 163/335/169 162/336/170
f 137/337/154 139/338/155 161/339/171 160/340/172
f 147/310/159 149/341/161 166/329/165 165/311/162
f 143/334/157 145/342/158 164/343/163 163/335/169
f 139/338/155 141/344/156 162/345/170 161/339/171
f 135/346/153 137/337/154 160/340/172 159/347/166
f 149/341/161 135/348/153 159/330/166 166/329/165
f 168/349/173 169/350/174 177/351/175 176/352/176
f 164/312/163 165/311/162 173/353/177 172/354/178
f 162/336/170 163/335/169 171/355/179 170/356/180
f 160/340/172 161/339/171 169/350/174 168/349/173
f 165/311/162 166/329/165 174/332/168 173/353/177
f 163/335/169 164/343/163 172/357/178 171/355/179
f 161/339/171 162/345/170 170/358/180 169/350/174
f 159/347/166 160/340/172 168/349/173 167/359/167
f 182/360/181 175/361/182 183/362/183 190/363/184
f 173/353/177 174/332/168 182/360/181 181/364/185
f 171/355/179 172/357/178 180/365/186 179/366/187
f 169/350/174 170/358/180 178/367/188 177/351/175
f 167/359/167 168/349/173 176/352/176 175/368/182
f 174/332/168 167/331/167 175/361/182 182/360/181
f 172/354/178 173/353/177 181/364/185 180/369/186
f 170/356/180 171/355/179 179/366/187 178/370/188
f 185/371/189 186/372/190 194/373/191 193/374/192
f 180/369/186 181/364/185 189/375/193 188/376/194
f 178/370/188 179/366/187 187/377/195 186/378/190
f 176/352/176 177/351/175 185/371/189 184/379/196
f 181/364/185 182/360/181 190/363/184 189/375/193
f 179/366/187 180/365/186 188/380/194 187/377/195
f 177/351/175 178/367/188 186/372/190 185/371/189
f 175/368/182 176/352/176 184/379/196 183/381/183
f 197/382/197 198/383/198 206/384/199 205/385/200
f 183/386/183 184/387/196 192/388/201 191/389/202
f 190/390/184 183/386/183 191/389/202 198/391/198
f 188/376/194 189/375/193 197/382/197 196/392/203
f 186/393/190 187/394/195 195/395/204 194/396/191
f 184/379/196 185/371/189 193/374/192 192/397/201
f 189/375/193 190/363/184 198/383/198 197/382/197
f 187/394/195 188/398/194 196/399/203 195/395/204
f 195/395/204 196/399/203 204/400/205 203/401/206
f 193/374/192 194/373/191 202/402/207 201/403/208
f 191/389/202 192/388/201 200/404/209 199/405/210
f 198/391/198 191/389/202 199/405/210 206/406/199
f 196/392/203 197/382/197 205/385/200 204/407/205
f 194/396/191 195/395/204 203/401/206 202/408/207
f 192/397/201 193/374/192 201/403/208 200/409/209
f 222/410/211 215/411/212 223/412/212 230/413/213
f 229/414/214 230/415/215 286/416/216 285/417/217
f 220/418/218 221/419/219 229/414/220 228/420/221
f 218/421/222 219/422/223 227/423/223 226/424/224
f 216/425/225 217/426/226 225/427/227 224/428/228
f 221/419/219 222/429/211 230/415/213 229/414/220
f 219/422/223 220/430/218 228/431/221 227/423/223
f 217/426/226 218/432/222 226/433/224 225/427/227
f 215/411/212 216/434/225 224/435/228 223/412/212
f 232/436/229 234/437/230 236/438/231 233/439/232
f 233/439/232 236/438/231 235/440/233 231/441/234
f 234/442/230 237/443/235 239/444/236 236/445/231
f 236/445/231 239/444/236 238/446/237 235/447/233
f 237/443/235 240/448/238 242/449/239 239/444/236
f 239/444/236 242/449/239 241/450/240 238/446/237
f 240/451/238 243/452/241 245/453/242 242/454/239
f 242/454/239 245/453/242 244/455/243 241/456/240
f 243/452/241 246/457/244 248/458/245 245/453/242
f 245/453/242 248/458/245 247/459/246 244/455/243
f 246/460/244 249/461/247 251/462/248 248/463/245
f 248/463/245 251/462/248 250/464/249 247/465/246
f 249/461/247 252/466/250 254/467/251 251/462/248
f 251/462/248 254/467/251 253/468/252 250/464/249
f 252/469/250 232/436/229 233/439/232 254/470/251
f 254/470/251 233/439/232 231/441/234 253/471/252
f 231/472/234 235/447/233 208/473/253 207/474/254
f 206/406/199 199/405/210 232/436/229 252/469/250
f 199/405/210 200/404/209 234/437/230 232/436/229
f 253/468/252 231/475/234 207/476/254 214/477/255
f 235/447/233 238/446/237 209/478/256 208/473/253
f 200/409/209 201/403/208 237/443/235 234/442/230
f 238/446/237 241/450/240 210/479/257 209/478/256
f 201/403/208 202/402/207 240/448/238 237/443/235
f 241/456/240 244/455/243 211/480/258 210/481/257
f 202/408/207 203/401/206 243/452/241 240/451/238
f 244/455/243 247/459/246 212/482/259 211/480/258
f 203/401/206 204/400/205 246/457/244 243/452/241
f 247/465/246 250/464/249 213/483/260 212/484/259
f 204/407/205 205/385/200 249/461/247 246/460/244
f 250/464/249 253/468/252 214/477/255 213/483/260
f 205/385/200 206/384/199 252/466/250 249/461/247
f 256/485/261 258/486/262 260/487/263 257/488/264
f 257/489/264 260/490/263 259/491/265 255/492/266
f 258/493/262 261/494/267 263/495/268 260/496/263
f 260/490/263 263/497/268 262/498/269 259/491/265
f 261/494/267 264/499/270 266/500/271 263/495/268
f 263/497/268 266/501/271 265/502/272 262/498/269
f 264/503/270 267/504/273 269/505/274 266/506/271
f 266/501/271 269/507/274 268/508/275 265/502/272
f 267/504/273 270/509/276 272/510/277 269/505/274
f 269/507/274 272/511/277 271/512/278 268/508/275
f 270/513/276 273/514/279 275/515/280 272/516/277
f 272/511/277 275/517/280 274/518/281 271/512/278
f 273/514/279 276/519/282 278/520/283 275/515/280
f 275/517/280 278/521/283 277/522/284 274/518/281
f 276/523/282 256/485/261 257/488/264 278/524/283
f 278/521/283 257/489/264 255/492/266 277/522/284
f 216/525/285 215/526/285 255/492/266 259/491/265
f 214/527/255 207/528/254 256/485/261 276/523/282
f 207/528/254 208/529/253 258/486/262 256/485/261
f 215/526/285 222/530/285 277/522/284 255/492/266
f 217/531/285 216/525/285 259/491/265 262/498/269
f 208/473/253 209/478/256 261/494/267 258/493/262
f 218/532/285 217/531/285 262/498/269 265/502/272
f 209/478/256 210/479/257 264/499/270 261/494/267
f 219/533/285 218/532/285 265/502/272 268/508/275
f 210/481/257 211/480/258 267/504/273 264/503/270
f 220/534/285 219/533/285 268/508/275 271/512/278
f 211/480/258 212/482/259 270/509/276 267/504/273
f 221/535/285 220/534/285 271/512/278 274/518/281
f 212/484/259 213/483/260 273/514/279 270/513/276
f 222/530/285 221/535/285 274/518/281 277/522/284
f 213/483/260 214/477/255 276/519/282 273/514/279
f 279/536/286 280/537/287 281/538/288 282/539/289 283/540/290 284/541/291 285/542/217 286/543/216
f 227/423/292 228/431/293 284/544/291 283/545/290
f 225/427/294 226/433/295 282/546/289 281/547/288
f 223/412/296 224/435/297 280/548/287 279/549/286
f 230/413/215 223/412/296 279/549/286 286/550/216
f 228/420/293 229/414/214 285/417/217 284/551/291
f 226/424/295 227/423/292 283/545/290 282/552/289
f 224/428/297 225/427/294 281/547/288 280/553/287
o rack
v 0.000000 -0.020000 0.270000
v 0.000000 0.020000 0.270000
v 0.000000 -0.020000 0.230000
v 0.000000 0.020000 0.230000
v 0.064517 -0.020000 0.270000
v 0.080000 -0.004517 0.270000
v 0.075466 -0.015465 0.270000
v 0.080000 0.004517 0.270000
v 0.064517 0.020000 0.270000
v 0.075466 0.015465 0.270000
v 0.080000 -0.004517 0.230000
v 0.064517 -0.020000 0.230000
v 0.075466 -0.015465 0.230000
v 0.064517 0.020000 0.230000
v 0.080000 0.004517 0.230000
v 0.075466 0.015465 0.230000
v 0.000000 -0.020000 -0.230000
v 0.000000 0.020000 -0.230000
v 0.000000 -0.020000 -0.270000
v 0.000000 0.020000 -0.270000
v 0.064517 -0.020000 -0.230000
v 0.080000 -0.004517 -0.230000
v 0.075466 -0.015465 -0.230000
v 0.080000 0.004517 -0.230000
v 0.064517 0.020000 -0.230000
v 0.075466 0.015465 -0.230000
v 0.080000 -0.004517 -0.270000
v 0.064517 -0.020000 -0.270000
v 0.075466 -0.015465 -0.270000
v 0.064517 0.020000 -0.270000
v 0.080000 0.004517 -0.270000
v 0.075466 0.015465 -0.270000
v 0.060000 0.010000 -0.231768
v 0.060000 0.010000 0.231768
v 0.067071 0.007071 -0.231768
v 0.067071 0.007071 0.231768
v 0.070000 0.000000 -0.231768
v 0.070000 0.000000 0.231768
v 0.067071 -0.007071 -0.231768
v 0.067071 -0.007071 0.231768
v 0.060000 -0.010000 -0.231768
v 0.060000 -0.010000 0.231768
v 0.052929 -0.007071 -0.231768
v 0.052929 -0.007071 0.231768
v 0.050000 0.000000 -0.231768
v 0.050000 0.000000 0.231768
v 0.052929 0.007071 -0.231768
v 0.052929 0.007071 0.231768
vn -1.0000 -0.0000 -0.0000
vn 0.1951 -0.9808 -0.0000
vn 0.7071 -0.7071 -0.0000
vn 0.9808 -0.1951 -0.0000
vn 0.1951 0.9808 -0.0000
vn 0.7071 0.7071 -0.0000
vn 0.9808 0.1951 -0.0000
vn -0.0000 -1.0000 -0.0000
vn -0.0000 -0.0000 1.0000
vn -0.0000 1.0000 -0.0000
vn -0.0000 -0.0000 -1.0000
vn 1.0000 -0.0000 -0.0000
vn -0.7071 -0.7071 -0.0000
vn -0.7071 0.7071 -0.0000
vt 0.779928 0.864213
vt 0.720269 0.864213
vt 0.720269 0.804046
vt 0.779928 0.804046
vt 0.983938 0.884414
vt 0.923771 0.884414
vt 0.923771 0.867184
vt 0.983938 0.867184
vt 0.868926 0.719944
vt 0.868926 0.659777
vt 0.883341 0.659777
vt 0.883341 0.719944
vt 0.788067 0.475489
vt 0.848235 0.475489
vt 0.848235 0.492719
vt 0.788067 0.492719
vt 0.886476 0.789583
vt 0.886476 0.849750
vt 0.868869 0.849750
vt 0.868869 0.789583
vt 0.923771 0.980595
vt 0.983938 0.980595
vt 0.870422 0.726833
vt 0.883633 0.726833
vt 0.883633 0.787000
vt 0.870422 0.787000
vt 0.845512 0.597723
vt 0.838690 0.614191
vt 0.822222 0.621012
vt 0.808634 0.621012
vt 0.792166 0.614191
vt 0.785344 0.597723
vt 0.785344 0.500677
vt 0.845512 0.500677
vt 0.788067 0.379309
vt 0.848235 0.379309
vt 0.782824 0.990879
vt 0.722656 0.990879
vt 0.722656 0.893834
vt 0.729478 0.877366
vt 0.745946 0.870545
vt 0.759534 0.870545
vt 0.776002 0.877366
vt 0.782824 0.893834
vt 0.778863 0.798784
vt 0.719204 0.798784
vt 0.719204 0.738616
vt 0.778863 0.738616
vt 0.850531 0.779183
vt 0.790363 0.779183
vt 0.790363 0.761953
vt 0.850531 0.761953
vt 0.876381 0.510577
vt 0.876381 0.450409
vt 0.890796 0.450409
vt 0.890796 0.510577
vt 0.790363 0.971545
vt 0.850531 0.971545
vt 0.850531 0.988775
vt 0.790363 0.988775
vt 0.893931 0.515005
vt 0.893931 0.575172
vt 0.876324 0.575172
vt 0.876324 0.515005
vt 0.790363 0.875364
vt 0.850531 0.875364
vt 0.855115 0.513774
vt 0.868326 0.513774
vt 0.868326 0.573942
vt 0.855115 0.573942
vt 0.923771 0.964229
vt 0.916949 0.980698
vt 0.900481 0.987519
vt 0.886893 0.987519
vt 0.870425 0.980698
vt 0.863603 0.964229
vt 0.863603 0.867184
vt 0.790363 0.875364
vt 0.850531 0.875364
vt 0.849081 0.751434
vt 0.788914 0.751434
vt 0.788914 0.654389
vt 0.795735 0.637920
vt 0.812203 0.631099
vt 0.825792 0.631099
vt 0.842260 0.637920
vt 0.849081 0.654389
vt 0.932778 0.150607
vt 0.932778 0.847850
vt 0.921650 0.847850
vt 0.921650 0.150607
vt 0.984498 0.150607
vt 0.984498 0.847850
vt 0.973126 0.847850
vt 0.973126 0.150607
vt 0.963816 0.847850
vt 0.963816 0.150607
vt 0.963816 0.150607
vt 0.963816 0.847850
vt 0.952688 0.847850
vt 0.952688 0.150607
vt 0.942733 0.847850
vt 0.942733 0.150607
vt 0.900558 0.847850
vt 0.900558 0.150607
vt 0.911676 0.150607
vt 0.911676 0.847850
vt 0.871512 0.580258
vt 0.883024 0.580258
vt 0.891165 0.588399
vt 0.891165 0.599911
vt 0.883024 0.608052
vt 0.871512 0.608052
vt 0.863371 0.599911
vt 0.863371 0.588399
vt 0.921650 0.847850
vt 0.942733 0.847850
vt 0.863821 0.623555
vt 0.871962 0.615415
vt 0.883474 0.615415
vt 0.891615 0.623555
vt 0.891615 0.635068
vt 0.883474 0.643208
vt 0.871962 0.643208
vt 0.863821 0.635068
s 1
usemtl shower_interior
f 287/554/298 288/555/298 290/556/298 289/557/298
f 291/558/299 298/559/299 299/560/300 293/561/300
f 293/562/300 299/563/300 297/564/301 292/565/301
f 300/566/302 295/567/302 296/568/303 302/569/303
f 302/570/303 296/571/303 294/572/304 301/573/304
f 289/574/305 298/559/299 291/558/299 287/575/305
f 297/576/301 301/577/304 294/578/304 292/579/301
f 291/580/306 293/581/306 292/582/306 294/583/306 296/584/306 295/585/306 288/586/306 287/587/306
f 300/566/302 290/588/307 288/589/307 295/567/302
f 289/590/308 290/591/308 300/592/308 302/593/308 301/594/308 297/595/308 299/596/308 298/597/308
f 303/598/298 304/599/298 306/600/298 305/601/298
f 307/602/299 314/603/299 315/604/300 309/605/300
f 309/606/300 315/607/300 313/608/301 308/609/301
f 316/610/302 311/611/302 312/612/303 318/613/303
f 318/614/303 312/615/303 310/616/304 317/617/304
f 305/618/305 314/603/299 307/602/299 303/619/305
f 313/620/301 317/621/304 310/622/304 308/623/301
f 307/624/306 309/625/306 308/626/306 310/627/306 312/628/306 311/629/306 304/630/306 303/560/306
f 316/610/302 306/631/307 304/632/307 311/611/302
f 305/633/308 306/634/308 316/635/308 318/636/308 317/637/308 313/638/308 315/639/308 314/640/308
f 319/641/307 320/642/307 322/643/303 321/644/303
f 321/645/303 322/646/303 324/647/309 323/648/309
f 323/648/309 324/647/309 326/649/300 325/650/300
f 325/651/300 326/652/300 328/653/305 327/654/305
f 327/654/305 328/653/305 330/655/310 329/656/310
f 329/657/310 330/658/310 332/659/298 331/660/298
f 322/661/306 320/662/306 334/663/306 332/664/306 330/665/306 328/666/306 326/667/306 324/668/306
f 331/660/298 332/659/298 334/644/311 333/669/311
f 333/656/311 334/670/311 320/642/307 319/641/307
f 319/671/308 321/672/308 323/673/308 325/674/308 327/675/308 329/676/308 331/677/308 333/678/308
